<svg width="32" height="32" viewBox="0 0 32 32" fill="none" xmlns="http://www.w3.org/2000/svg">
<circle cx="16" cy="16" r="16" fill="#210529"/>
<path d="M16.936 24.48C12.112 24.48 8.80005 20.832 8.80005 15.888V15.792C8.80005 10.848 12.16 7.19995 16.936 7.19995H16.96C19.864 7.19995 22.192 8.68795 23.464 10.824L21.424 12.192C20.512 10.536 19.024 9.57595 17.008 9.57595C13.576 9.57595 11.44 12.12 11.44 15.792V15.888C11.44 19.56 13.6 22.08 17.008 22.08C19.072 22.08 20.656 21.12 21.544 19.488L23.512 20.856C22.288 22.968 19.864 24.48 16.96 24.48H16.936Z" fill="white"/>
</svg>
