<svg width="32" height="32" viewBox="0 0 32 32" fill="none" xmlns="http://www.w3.org/2000/svg">
<circle cx="16" cy="16" r="16" fill="#210529"/>
<path d="M10.4 24.0381V7.19995H16.3174C19.637 7.19995 21.874 8.90782 21.874 11.4576V11.5779C21.874 13.0212 21.2486 14.1998 19.9737 15.0658C21.7778 15.8355 22.7641 17.3269 22.7641 19.1791V19.2994C22.7641 22.1859 20.527 24.0381 17.0631 24.0381H10.4ZM12.8776 14.3923H16.3896C18.2418 14.3923 19.3002 13.4301 19.3002 11.9146V11.7944C19.3002 10.3992 18.2659 9.46108 16.3896 9.46108H12.8776V14.3923ZM12.8776 21.753H16.9429C18.9634 21.753 20.1902 20.7667 20.1902 19.1791V19.0829C20.1902 17.4712 18.9394 16.485 16.9429 16.485H12.8776V21.753Z" fill="white"/>
</svg>
