<svg width="129" height="53" viewBox="0 0 129 53" fill="none" xmlns="http://www.w3.org/2000/svg">
<rect y="33" width="8" height="20" rx="4" fill="#1167FC"/>
<rect x="10" y="27" width="8" height="26" rx="4" fill="#1167FC"/>
<rect x="20" y="36" width="8" height="17" rx="4" fill="#1167FC"/>
<rect x="30" y="29" width="8" height="24" rx="4" fill="#1167FC"/>
<rect x="40" y="17" width="8" height="36" rx="4" fill="#1167FC"/>
<rect x="50" y="13" width="8" height="40" rx="4" fill="#1167FC"/>
<rect x="60" y="17" width="8" height="36" rx="4" fill="#1167FC"/>
<rect x="70" y="11" width="8" height="42" rx="4" fill="#1167FC"/>
<rect x="80" y="25" width="8" height="28" rx="4" fill="#1167FC"/>
<rect x="90" y="6" width="8" height="47" rx="4" fill="#1167FC"/>
<rect x="100" y="11" width="8" height="42" rx="4" fill="#1167FC"/>
<rect x="110" y="2" width="8" height="51" rx="4" fill="#1167FC"/>
<rect x="120" width="8" height="53" rx="4" fill="#1167FC"/>
</svg>
