<svg width="69" height="69" viewBox="0 0 69 69" fill="none" xmlns="http://www.w3.org/2000/svg">
<circle cx="34.5" cy="34.5" r="28.1274" stroke="white" stroke-width="12.7452"/>
<path d="M34.7197 12.7646C46.6917 12.7646 56.2544 22.5943 56.2544 34.7197H69C69 15.5446 53.6522 0 34.7197 0V12.7646Z" fill="#9E93A2"/>
<path d="M26.421 38.121C24.573 38.121 23.407 37.23 23.407 35.866C23.407 34.942 23.935 34.249 24.848 33.897C24.133 33.556 23.726 32.962 23.726 32.192C23.726 30.949 24.76 30.179 26.421 30.179C28.082 30.179 29.116 30.949 29.116 32.17C29.116 32.962 28.687 33.556 27.906 33.897C28.863 34.249 29.435 34.942 29.435 35.877C29.435 37.23 28.269 38.121 26.421 38.121ZM26.421 33.391C27.29 33.391 27.807 33.017 27.807 32.379C27.807 31.741 27.29 31.378 26.421 31.378C25.552 31.378 25.046 31.741 25.046 32.379C25.046 33.017 25.552 33.391 26.421 33.391ZM26.432 36.878C27.477 36.878 28.071 36.438 28.071 35.69C28.071 34.953 27.477 34.513 26.432 34.513C25.376 34.513 24.771 34.953 24.771 35.69C24.771 36.438 25.376 36.878 26.432 36.878ZM33.2988 38.121C31.8468 38.121 30.7798 37.428 30.4168 36.196L31.7038 35.899C31.9788 36.537 32.5508 36.845 33.3098 36.845C34.3658 36.845 34.9378 36.273 34.9378 35.404C34.9378 34.557 34.3878 34.062 33.4858 34.062C32.8148 34.062 32.3088 34.26 31.8688 34.689L30.7688 34.381L31.2198 30.3H35.8398V31.554H32.2868L32.0778 33.424C32.5838 33.083 33.0788 32.929 33.7388 32.929C35.3668 32.929 36.3458 33.864 36.3458 35.371C36.3458 37.021 35.1468 38.121 33.2988 38.121ZM39.1027 34.304C38.0467 34.304 37.3207 33.457 37.3207 32.335V32.181C37.3207 31.048 38.0467 30.212 39.1027 30.212H39.2457C40.3017 30.212 41.0387 31.048 41.0387 32.181V32.335C41.0387 33.457 40.3017 34.304 39.2457 34.304H39.1027ZM37.7277 38L43.7557 30.267H45.2737L39.2457 38H37.7277ZM39.1577 33.248H39.1907C39.6307 33.248 39.9387 32.83 39.9387 32.291V32.225C39.9387 31.675 39.6307 31.268 39.1907 31.268H39.1577C38.7177 31.268 38.4097 31.675 38.4097 32.225V32.291C38.4097 32.83 38.7177 33.248 39.1577 33.248ZM43.7447 38.088C42.6777 38.088 41.9517 37.252 41.9517 36.119V35.965C41.9517 34.843 42.6777 33.996 43.7447 33.996H43.8767C44.9437 33.996 45.6697 34.843 45.6697 35.965V36.119C45.6697 37.252 44.9437 38.088 43.8767 38.088H43.7447ZM43.7887 37.032H43.8327C44.2727 37.032 44.5697 36.625 44.5697 36.075V36.009C44.5697 35.47 44.2727 35.052 43.8327 35.052H43.7887C43.3487 35.052 43.0517 35.47 43.0517 36.009V36.075C43.0517 36.625 43.3487 37.032 43.7887 37.032Z" fill="white"/>
</svg>
