<svg width="70" height="75" viewBox="0 0 70 75" fill="none" xmlns="http://www.w3.org/2000/svg">
<path d="M13.3417 48.8099C13.6638 47.9393 14.8952 47.9393 15.2174 48.8099L17.867 55.9704C17.9683 56.2441 18.1841 56.4599 18.4578 56.5612L25.6183 59.2108C26.4889 59.533 26.4889 60.7644 25.6183 61.0865L18.4578 63.7361C18.1841 63.8374 17.9683 64.0532 17.867 64.3269L15.2174 71.4874C14.8952 72.358 13.6638 72.358 13.3417 71.4874L10.6921 64.3269C10.5908 64.0532 10.375 63.8374 10.1012 63.7361L2.94075 61.0865C2.07013 60.7644 2.07014 59.533 2.94076 59.2108L10.1012 56.5612C10.375 56.4599 10.5908 56.2441 10.6921 55.9704L13.3417 48.8099Z" fill="white"/>
<path d="M47.1904 20.4564C47.5125 19.5858 48.7439 19.5858 49.0661 20.4564L53.7063 32.9964C53.8076 33.2701 54.0234 33.486 54.2971 33.5872L66.8372 38.2275C67.7078 38.5496 67.7078 39.781 66.8372 40.1032L54.2971 44.7434C54.0234 44.8447 53.8076 45.0605 53.7063 45.3342L49.0661 57.8743C48.7439 58.7449 47.5125 58.7449 47.1904 57.8743L42.5501 45.3342C42.4488 45.0605 42.233 44.8447 41.9593 44.7434L29.4193 40.1032C28.5487 39.781 28.5487 38.5496 29.4193 38.2275L41.9593 33.5872C42.233 33.486 42.4488 33.2701 42.5501 32.9964L47.1904 20.4564Z" fill="white"/>
<path d="M23.7796 2.53451C24.1018 1.66389 25.3331 1.66389 25.6553 2.53451L27.3682 7.16343C27.4694 7.43715 27.6853 7.65296 27.959 7.75425L32.5879 9.4671C33.4585 9.78926 33.4585 11.0206 32.5879 11.3428L27.959 13.0557C27.6853 13.1569 27.4694 13.3728 27.3682 13.6465L25.6553 18.2754C25.3331 19.146 24.1018 19.146 23.7796 18.2754L22.0667 13.6465C21.9655 13.3728 21.7496 13.1569 21.4759 13.0557L16.847 11.3428C15.9764 11.0206 15.9764 9.78926 16.847 9.4671L21.4759 7.75425C21.7496 7.65296 21.9655 7.43715 22.0667 7.16343L23.7796 2.53451Z" fill="white"/>
</svg>
