<svg width="18" height="18" viewBox="0 0 18 18" fill="none" xmlns="http://www.w3.org/2000/svg">
<path d="M7.65656 1.57943C7.97871 0.70881 9.2101 0.70881 9.53226 1.57943L11.2451 6.20835C11.3464 6.48207 11.5622 6.69788 11.8359 6.79917L16.4649 8.51202C17.3355 8.83418 17.3355 10.0656 16.4649 10.3877L11.8359 12.1006C11.5622 12.2019 11.3464 12.4177 11.2451 12.6914L9.53226 17.3203C9.2101 18.1909 7.97871 18.1909 7.65656 17.3203L5.9437 12.6914C5.84241 12.4177 5.6266 12.2019 5.35288 12.1006L0.723959 10.3877C-0.146659 10.0656 -0.146659 8.83418 0.723959 8.51202L5.35288 6.79917C5.6266 6.69788 5.84241 6.48207 5.9437 6.20835L7.65656 1.57943Z" fill="white"/>
</svg>
