<svg width="385" height="253" viewBox="0 0 385 253" fill="none" xmlns="http://www.w3.org/2000/svg">
<path d="M189.32 78.1671L359.531 111.854C367.014 113.335 371.879 120.602 370.398 128.084L367.046 145.021C368.527 137.538 363.662 130.271 356.179 128.79L185.968 95.1035C178.485 93.6225 171.219 98.4881 169.738 105.971L173.089 89.0347C174.57 81.5517 181.837 76.6862 189.32 78.1671Z" fill="#1167FC"/>
<path d="M192.337 62.9244L362.547 96.6111C370.03 98.0921 374.896 105.359 373.415 112.842L370.063 129.778C371.544 122.295 366.678 115.028 359.195 113.547L188.985 79.8608C181.502 78.3798 174.235 83.2454 172.754 90.7283L176.106 73.792C177.587 66.309 184.854 61.4434 192.337 62.9244Z" fill="#F39974"/>
<path d="M195.353 47.6816L365.564 81.3683C373.047 82.8493 377.913 90.116 376.432 97.5989L373.08 114.535C374.561 107.052 369.695 99.7857 362.212 98.3047L192.001 64.618C184.518 63.137 177.252 68.0026 175.771 75.4855L179.123 58.5492C180.604 51.0662 187.87 46.2006 195.353 47.6816Z" fill="#5C2580"/>
<path d="M169.737 105.971C171.218 98.4881 178.485 93.6225 185.968 95.1035L356.178 128.79C363.661 130.271 368.527 137.538 367.046 145.021L356.99 195.83C355.509 203.313 348.242 208.179 340.759 206.698L170.549 173.011C163.066 171.53 158.2 164.263 159.681 156.78L169.737 105.971Z" fill="white"/>
<path d="M95.3453 110.251L295.143 132.203C303.927 133.168 310.265 141.071 309.3 149.855L307.115 169.735C308.081 160.952 301.742 153.049 292.959 152.084L93.161 130.132C84.3773 129.167 76.4744 135.505 75.5093 144.289L77.6936 124.408C78.6587 115.625 86.5616 109.286 95.3453 110.251Z" fill="#1167FC"/>
<path d="M97.3111 92.359L297.109 114.311C305.892 115.276 312.231 123.179 311.266 131.963L309.081 151.843C310.046 143.059 303.708 135.156 294.924 134.191L95.1269 112.239C86.3432 111.274 78.4402 117.613 77.4751 126.396L79.6594 106.516C80.6245 97.7322 88.5274 91.3939 97.3111 92.359Z" fill="#F39974"/>
<path d="M99.2769 74.4667L299.075 96.4186C307.858 97.3837 314.196 105.287 313.231 114.07L311.047 133.951C312.012 125.167 305.674 117.264 296.89 116.299L97.0926 94.347C88.3089 93.382 80.4059 99.7202 79.4409 108.504L81.6251 88.6235C82.5902 79.8398 90.4932 73.5016 99.2769 74.4667Z" fill="#5C2580"/>
<path d="M75.5088 144.289C76.4739 135.505 84.3768 129.167 93.1605 130.132L292.958 152.084C301.742 153.049 308.08 160.952 307.115 169.735L300.562 229.376C299.597 238.16 291.694 244.498 282.911 243.533L83.1129 221.581C74.3292 220.616 67.9909 212.713 68.956 203.93L75.5088 144.289Z" fill="white"/>
<path d="M110.634 171.121L109.324 183.05C109.102 185.07 108.448 186.746 107.363 188.078C106.232 189.44 104.71 190.427 103 190.909C101.177 191.46 99.0663 191.605 96.6678 191.341C95.1713 191.192 93.6994 190.856 92.2863 190.343C91.1441 189.953 90.0851 189.354 89.164 188.578L89.6892 183.797C90.4224 184.542 91.2844 185.15 92.234 185.592C93.3282 186.133 94.5102 186.476 95.7248 186.606C97.8032 186.834 99.4394 186.529 100.633 185.691C101.827 184.854 102.527 183.495 102.732 181.616L102.777 181.205C101.993 182.53 101.025 183.456 99.8724 183.984C98.619 184.532 97.2368 184.725 95.8788 184.542C94.4668 184.421 93.1113 183.933 91.9487 183.126C90.8921 182.375 90.0781 181.334 89.6059 180.132C89.1107 178.853 88.9428 177.472 89.1171 176.113C89.2462 174.659 89.7384 173.26 90.5492 172.044C91.2978 170.934 92.3538 170.064 93.5898 169.538C94.9036 168.998 96.3376 168.812 97.7478 168.998C99.2886 169.167 100.537 169.637 101.492 170.406C102.447 171.175 103.155 172.278 103.615 173.714L103.98 170.398L110.634 171.121ZM101.189 180.207C101.738 180.018 102.221 179.675 102.579 179.221C102.933 178.762 103.15 178.213 103.205 177.637C103.281 177.055 103.192 176.464 102.948 175.928C102.704 175.412 102.314 174.976 101.826 174.674C101.267 174.333 100.637 174.126 99.9845 174.069C99.3338 173.983 98.672 174.053 98.0545 174.273C97.5109 174.47 97.0355 174.817 96.684 175.274C96.3249 175.748 96.1047 176.312 96.0476 176.903C95.9766 177.467 96.0658 178.04 96.305 178.557C96.5488 179.072 96.9371 179.506 97.4232 179.806C97.9703 180.144 98.5895 180.35 99.231 180.407C99.8907 180.493 100.561 180.424 101.189 180.207Z" fill="#210529"/>
<path d="M115.116 171.348C114.624 171.093 114.21 170.712 113.917 170.245C113.648 169.808 113.536 169.293 113.599 168.785C113.648 168.291 113.867 167.829 114.218 167.477C114.61 167.091 115.096 166.815 115.629 166.674C116.253 166.499 116.906 166.449 117.551 166.526C118.184 166.586 118.798 166.769 119.36 167.066C119.847 167.313 120.255 167.69 120.54 168.153C120.794 168.579 120.9 169.077 120.842 169.568C120.794 170.074 120.581 170.551 120.235 170.926C119.862 171.319 119.388 171.602 118.864 171.747C118.25 171.92 117.608 171.968 116.975 171.887C116.325 171.832 115.693 171.648 115.116 171.348ZM113.465 172.532L120.142 173.266L118.519 188.039L111.842 187.305L113.465 172.532Z" fill="#210529"/>
<path d="M133.025 174.663L139.021 175.322L138.515 179.932L132.626 179.285L131.505 189.489L124.841 188.756L125.962 178.552L121.597 178.073L122.103 173.463L126.394 173.935C126.411 173.614 126.428 173.393 126.444 173.243C126.665 171.231 127.538 169.778 129.062 168.883C130.586 167.989 132.645 167.679 135.238 167.953C137.21 168.17 138.785 168.682 139.963 169.49L139.496 173.74C138.604 173.137 137.568 172.778 136.492 172.7C134.355 172.465 133.196 173.109 133.025 174.663Z" fill="#210529"/>
<path d="M139.659 195.228C140.551 196.572 140.868 198.414 140.611 200.754L139.583 210.111L132.906 209.378L133.767 201.541C133.885 200.473 133.777 199.628 133.446 199.006C133.279 198.698 133.034 198.437 132.736 198.251C132.437 198.064 132.095 197.957 131.743 197.941C131.378 197.88 131.003 197.91 130.654 198.03C130.304 198.149 129.989 198.354 129.74 198.625C129.239 199.172 128.933 199.962 128.819 200.995L127.958 208.831L121.307 208.101L122.194 200.029C122.301 199.058 122.189 198.278 121.858 197.689C121.689 197.394 121.447 197.146 121.155 196.969C120.863 196.792 120.531 196.69 120.19 196.675C119.812 196.617 119.427 196.657 119.07 196.791C118.714 196.926 118.399 197.15 118.156 197.443C117.636 198.046 117.314 198.909 117.191 200.029L117.168 200.001L116.337 207.56L109.686 206.829L111.429 190.969L118.026 191.694L117.617 195.413C118.246 193.947 119.075 192.908 120.104 192.297C121.133 191.685 122.394 191.462 123.886 191.628C125.343 191.788 126.501 192.29 127.359 193.135C128.218 193.98 128.759 195.125 128.983 196.569C129.607 195.146 130.444 194.135 131.494 193.538C132.544 192.941 133.83 192.724 135.352 192.888C137.328 193.105 138.764 193.885 139.659 195.228Z" fill="#210529"/>
<path d="M156.973 196.28C158.272 197.033 159.294 198.178 159.891 199.549C160.483 200.914 160.677 202.518 160.475 204.362L159.599 212.331L153.123 211.619L153.338 209.66C151.999 211.202 150.073 211.834 147.56 211.558C146.472 211.464 145.422 211.114 144.496 210.537C143.701 210.041 143.07 209.324 142.68 208.476C142.3 207.623 142.161 206.684 142.276 205.76C142.354 204.802 142.719 203.889 143.325 203.14C143.93 202.391 144.748 201.84 145.672 201.558C147.759 200.961 149.996 201.152 151.952 202.095C152.753 202.537 153.432 203.168 153.928 203.934C153.978 203.376 153.892 202.815 153.678 202.297C153.463 201.779 153.126 201.32 152.696 200.959C151.821 200.215 150.628 199.761 149.116 199.594C147.166 199.376 145.203 199.859 143.584 200.957L144.128 196.002C146.352 194.827 148.93 194.4 151.863 194.722C153.916 194.948 155.619 195.467 156.973 196.28ZM152.744 207.829C152.996 207.726 153.215 207.557 153.379 207.341C153.543 207.125 153.645 206.868 153.674 206.599C153.701 206.337 153.657 206.073 153.546 205.834C153.435 205.594 153.262 205.389 153.044 205.239C152.469 204.824 151.787 204.58 151.078 204.535C150.444 204.433 149.795 204.539 149.226 204.835C149.003 204.96 148.812 205.136 148.671 205.349C148.53 205.562 148.442 205.805 148.414 206.058C148.386 206.312 148.419 206.568 148.511 206.807C148.603 207.045 148.75 207.259 148.941 207.429C149.434 207.836 150.046 208.074 150.686 208.109C151.385 208.211 152.099 208.114 152.744 207.829Z" fill="#210529"/>
<path d="M164.544 193.096L171.192 193.826L169.047 213.349L162.399 212.619L164.544 193.096Z" fill="#210529"/>
<path d="M173.963 194.131L180.614 194.862L178.469 214.385L171.818 213.654L173.963 194.131Z" fill="#210529"/>
<path d="M155.361 181.782L155.865 177.19L151.074 176.664L151.815 170.29L144.904 171.194C144.904 171.194 144.655 173.345 144.354 175.917L139.904 175.428L139.398 180.028L143.82 180.514C143.565 182.719 143.361 184.457 143.355 184.511C143.134 186.523 143.595 188.123 144.738 189.31C145.881 190.498 147.61 191.221 149.924 191.481C151.685 191.674 153.162 191.497 154.354 190.95L154.82 186.705C153.938 187.108 152.956 187.247 151.995 187.105C150.074 186.894 150.065 185.421 150.235 183.868L150.538 181.252L155.361 181.782Z" fill="#210529"/>
<path d="M12.9352 48.8099C13.2574 47.9393 14.4888 47.9393 14.8109 48.8099L17.4605 55.9704C17.5618 56.2441 17.7776 56.4599 18.0514 56.5612L25.2118 59.2108C26.0825 59.533 26.0825 60.7644 25.2118 61.0865L18.0514 63.7361C17.7776 63.8374 17.5618 64.0532 17.4605 64.3269L14.8109 71.4874C14.4888 72.358 13.2574 72.358 12.9352 71.4874L10.2856 64.3269C10.1843 64.0532 9.96852 63.8374 9.6948 63.7361L2.53431 61.0865C1.66369 60.7644 1.6637 59.533 2.53432 59.2108L9.6948 56.5612C9.96852 56.4599 10.1843 56.2441 10.2856 55.9704L12.9352 48.8099Z" fill="white"/>
<path d="M46.7839 20.4564C47.1061 19.5858 48.3375 19.5858 48.6596 20.4564L53.2998 32.9964C53.4011 33.2701 53.6169 33.486 53.8907 33.5872L66.4307 38.2275C67.3013 38.5496 67.3013 39.781 66.4307 40.1032L53.8907 44.7434C53.6169 44.8447 53.4011 45.0605 53.2998 45.3342L48.6596 57.8743C48.3375 58.7449 47.1061 58.7449 46.7839 57.8743L42.1437 45.3342C42.0424 45.0605 41.8266 44.8447 41.5529 44.7434L29.0128 40.1032C28.1422 39.781 28.1422 38.5496 29.0128 38.2275L41.5529 33.5872C41.8266 33.486 42.0424 33.2701 42.1437 32.9964L46.7839 20.4564Z" fill="white"/>
<path d="M23.3732 2.5345C23.6953 1.66388 24.9267 1.66388 25.2489 2.5345L26.9617 7.16342C27.063 7.43714 27.2788 7.65295 27.5525 7.75424L32.1815 9.46709C33.0521 9.78925 33.0521 11.0206 32.1815 11.3428L27.5525 13.0557C27.2788 13.1569 27.063 13.3728 26.9617 13.6465L25.2489 18.2754C24.9267 19.146 23.6953 19.146 23.3732 18.2754L21.6603 13.6465C21.559 13.3728 21.3432 13.1569 21.0695 13.0557L16.4406 11.3428C15.5699 11.0206 15.5699 9.78925 16.4406 9.46709L21.0695 7.75424C21.3432 7.65295 21.559 7.43714 21.6603 7.16342L23.3732 2.5345Z" fill="white"/>
<path d="M373.25 232.579C373.572 231.709 374.804 231.709 375.126 232.579L376.839 237.208C376.94 237.482 377.156 237.698 377.43 237.799L382.059 239.512C382.929 239.834 382.929 241.066 382.059 241.388L377.43 243.101C377.156 243.202 376.94 243.418 376.839 243.691L375.126 248.32C374.804 249.191 373.572 249.191 373.25 248.32L371.537 243.691C371.436 243.418 371.22 243.202 370.947 243.101L366.318 241.388C365.447 241.066 365.447 239.834 366.318 239.512L370.947 237.799C371.22 237.698 371.436 237.482 371.537 237.208L373.25 232.579Z" fill="white"/>
</svg>
