<svg width="48" height="48" viewBox="0 0 48 48" fill="none" xmlns="http://www.w3.org/2000/svg">
    <rect width="48" height="48" rx="13.7143" fill="white"/>
    <path d="M33.4284 14.3639V25.4191C33.4284 27.2916 33.0062 28.8921 32.1617 30.2208C31.2794 31.5818 30.0086 32.6389 28.5183 33.2518C26.9337 33.9406 25.0501 34.285 22.8672 34.285C21.5069 34.2986 20.1501 34.1398 18.8288 33.8121C17.7631 33.5699 16.7517 33.128 15.8467 32.5094V28.0788C16.5796 28.6874 17.4148 29.1574 18.3123 29.4667C19.3497 29.8516 20.4465 30.047 21.5515 30.0435C23.4429 30.0435 24.8841 29.5998 25.875 28.7125C26.866 27.8251 27.3606 26.5106 27.3591 24.7689V24.3883C26.7857 25.6807 26.0067 26.6264 25.022 27.2254C23.9491 27.8536 22.7253 28.1695 21.486 28.138C20.2045 28.1695 18.9373 27.8588 17.8122 27.2372C16.7879 26.6555 15.9531 25.7847 15.4097 24.7311C14.838 23.6093 14.5505 22.3615 14.573 21.0996C14.5454 19.7551 14.8499 18.4248 15.4588 17.2294C16.0223 16.138 16.8859 15.2348 17.9454 14.6287C19.0735 14.0026 20.3445 13.6879 21.6309 13.7161C23.0332 13.7161 24.2017 14.0203 25.1365 14.6287C26.0714 15.2371 26.8169 16.1757 27.3731 17.4445V14.371L33.4284 14.3639ZM25.833 23.6341C26.308 23.4055 26.7079 23.0436 26.9852 22.5915C27.2585 22.1357 27.3995 21.6113 27.3918 21.0783C27.4023 20.5377 27.2639 20.0048 26.9922 19.5392C26.7211 19.0906 26.3274 18.7309 25.8587 18.5037C25.3229 18.2479 24.7356 18.1216 24.1433 18.1349C23.5496 18.1214 22.9614 18.2519 22.4279 18.5155C21.9586 18.7508 21.5654 19.1166 21.2944 19.57C21.0184 20.0403 20.876 20.5787 20.8831 21.1256C20.875 21.6496 21.0118 22.1655 21.278 22.6151C21.5481 23.0617 21.9401 23.4197 22.4068 23.6459C22.9322 23.9006 23.5094 24.0269 24.0919 24.0147C24.6936 24.0267 25.2898 23.8964 25.833 23.6341Z" fill="#210529"/>
</svg>
