<svg width="24" height="24" viewBox="0 0 24 24" fill="none" xmlns="http://www.w3.org/2000/svg">
<path fill-rule="evenodd" clip-rule="evenodd" d="M9.82574 5.11958L6.35401 7.10312L6.33541 7.11242C5.94818 7.30604 5.65012 7.55317 5.42274 7.81659L9.88569 10.2976L9.90615 10.3108C10.373 10.6115 11.7418 11.0796 13.1235 10.2926L17.4745 7.72417C17.1788 7.42198 16.8657 7.21298 16.6646 7.11242L16.646 7.10312L13.1469 5.10394C11.8757 4.47732 10.6061 4.81383 9.82574 5.11958ZM18.2095 9.03214L13.8722 11.5925C13.3216 11.9072 12.7728 12.0857 12.25 12.1688V19.0573C12.6388 18.9845 12.9531 18.8728 13.141 18.7823C13.988 18.2737 15.9126 17.0985 17.084 16.3176C18.0402 15.6801 18.25 14.7362 18.25 14.4416V9.4416C18.25 9.30052 18.2358 9.16397 18.2095 9.03214ZM10.75 19.0727V12.1668C10.0451 12.0553 9.46817 11.8077 9.11614 11.586L4.77501 9.17271C4.75748 9.27748 4.75 9.36883 4.75 9.4416V14.4416C4.75 15.3105 5.20848 16.0455 5.4673 16.3432L9.84925 18.7777C10.1449 18.9237 10.4486 19.0181 10.75 19.0727ZM9.22146 3.74556C10.1089 3.3906 11.9384 2.82261 13.8354 3.77109L13.854 3.78039L17.3553 5.78079C17.774 5.99394 18.3491 6.40437 18.83 6.99115C19.3238 7.59349 19.75 8.42267 19.75 9.4416V14.4416C19.75 15.147 19.3598 16.6031 17.916 17.5656C16.7 18.3763 14.7201 19.5842 13.8859 20.0847L13.8612 20.0995L13.8354 20.1124C13.3522 20.354 12.4965 20.6212 11.5089 20.6329C10.7839 20.6415 9.96469 20.5125 9.16459 20.1124L9.15001 20.1051L4.54395 17.5462L4.46967 17.4719C4.04094 17.0432 3.25 15.8965 3.25 14.4416V9.4416C3.25 8.57633 3.7409 6.74336 5.64523 5.78051L9.17313 3.76489L9.22146 3.74556Z" fill="black"/>
</svg>
