<svg width="24" height="24" viewBox="0 0 24 24" fill="none" xmlns="http://www.w3.org/2000/svg">
<path fill-rule="evenodd" clip-rule="evenodd" d="M19.6556 2.63577C19.5177 2.38752 19.2514 2.23846 18.9677 2.2507C16.2828 2.36656 14.5777 3.21227 13.4241 4.50788C12.4452 5.60732 11.9172 6.98304 11.4688 8.25H6C5.00544 8.25 4.05161 8.64509 3.34835 9.34835C2.64509 10.0516 2.25 11.0054 2.25 12C2.25 12.4142 2.58579 12.75 3 12.75C3.41421 12.75 3.75 12.4142 3.75 12C3.75 11.4033 3.98705 10.831 4.40901 10.409C4.83097 9.98706 5.40326 9.75 6 9.75H6.07816L4.50138 17.3393C4.3268 17.2047 4.15193 17.0653 3.97678 16.9211C3.65704 16.6577 3.18438 16.7035 2.92106 17.0232C2.65773 17.343 2.70347 17.8156 3.02322 18.0789C3.53669 18.5018 4.05228 18.8893 4.56992 19.2408L4.57902 19.247C5.53598 19.8961 6.50043 20.4224 7.47248 20.822C8.9665 21.4363 10.4762 21.7503 12 21.7503C13.5253 21.7503 15.0363 21.4357 16.5317 20.8202C17.5163 20.4151 18.4931 19.88 19.4622 19.219L19.4711 19.2129C19.9749 18.8688 20.4769 18.4906 20.9768 18.0789C21.2965 17.8156 21.3423 17.343 21.0789 17.0232C20.8156 16.7035 20.343 16.6577 20.0232 16.9211C19.8517 17.0623 19.6805 17.1989 19.5095 17.3309L17.7926 10.0919L18.3354 9.00623L19.6646 9.67082C19.9533 9.81519 20.3021 9.7586 20.5303 9.53033L22.0303 8.03033C22.2671 7.79355 22.3182 7.42849 22.1556 7.13577L19.6556 2.63577ZM15.0956 19.7505L13.4926 15.75H10.5118L8.94063 19.7621C9.96941 20.0896 10.989 20.2503 12 20.2503C13.0229 20.2503 14.0545 20.0859 15.0956 19.7505Z" fill="black"/>
</svg>
