<svg width="24" height="24" viewBox="0 0 24 24" fill="none" xmlns="http://www.w3.org/2000/svg">
<path fill-rule="evenodd" clip-rule="evenodd" d="M5.25 13.35C5.25 12.793 5.45319 12.2589 5.81487 11.8651C6.17654 11.4712 6.66708 11.25 7.17857 11.25H16.8214C17.3329 11.25 17.8235 11.4712 18.1851 11.8651C18.5468 12.2589 18.75 12.793 18.75 13.35V19.65C18.75 20.207 18.5468 20.7411 18.1851 21.1349C17.8235 21.5288 17.3329 21.75 16.8214 21.75H7.17857C6.66708 21.75 6.17654 21.5288 5.81487 21.1349C5.45319 20.7411 5.25 20.207 5.25 19.65V13.35ZM10.8068 15.2007C11.1232 14.8561 11.5524 14.6625 12 14.6625C12.4476 14.6625 12.8768 14.8561 13.1932 15.2007C13.5097 15.5453 13.6875 16.0127 13.6875 16.5C13.6875 16.9873 13.5097 17.4547 13.1932 17.7993C12.8768 18.1439 12.4476 18.3375 12 18.3375C11.5524 18.3375 11.1232 18.1439 10.8068 17.7993C10.4903 17.4547 10.3125 16.9873 10.3125 16.5C10.3125 16.0127 10.4903 15.5453 10.8068 15.2007Z" fill="black"/>
<path fill-rule="evenodd" clip-rule="evenodd" d="M12 3.33C11.1369 3.33 10.2964 3.67652 9.66737 4.3131C9.03665 4.95139 8.67391 5.82723 8.67391 6.75V11.25H7.5V6.75C7.5 5.57226 7.96179 4.43361 8.79875 3.58661C9.63739 2.7379 10.7875 2.25 12 2.25C13.2125 2.25 14.3626 2.7379 15.2013 3.58661C16.0382 4.43361 16.5 5.57226 16.5 6.75V11.25H15.3261V6.75C15.3261 5.82723 14.9634 4.95139 14.3326 4.3131C13.7036 3.67652 12.8631 3.33 12 3.33Z" fill="black"/>
</svg>
