<svg width="24" height="24" viewBox="0 0 24 24" fill="none" xmlns="http://www.w3.org/2000/svg">
<path fill-rule="evenodd" clip-rule="evenodd" d="M3.82937 13.6703C3.52838 13.6703 3.23505 13.6396 2.95064 13.5828L3.37152 17.2027C3.6164 19.3352 5.54606 20.9447 7.85694 20.9447H15.1443C17.4553 20.9447 19.3849 19.3365 19.6298 17.2027L20.0506 13.5828C19.7662 13.6407 19.4729 13.6703 19.1719 13.6703H3.82937Z" fill="black"/>
<path fill-rule="evenodd" clip-rule="evenodd" d="M18.6029 7.60117H16.25C16.25 5.14443 14.0203 3.05078 11.5065 3.05078C8.89041 3.05078 6.76286 5.09316 6.76286 7.60203L4.39712 7.60226C3.07518 7.60226 2 8.6339 2 9.90233C2 11.1707 3.07518 12.2024 4.39712 12.2024H18.6029C19.9248 12.2003 21 11.1686 21 9.90127C21 8.63285 19.9248 7.60117 18.6029 7.60117ZM11.5051 4.42656C9.68 4.42656 8.19552 5.85082 8.19552 7.6019L14.8157 7.603C14.8157 5.7223 13.2301 4.42656 11.5051 4.42656Z" fill="black"/>
</svg>
