<svg width="24" height="24" viewBox="0 0 24 24" fill="none" xmlns="http://www.w3.org/2000/svg">
<path fill-rule="evenodd" clip-rule="evenodd" d="M3.82937 13.6703C3.52838 13.6703 3.23505 13.6396 2.95064 13.5828L3.37152 17.2027C3.6164 19.3352 5.54606 20.9447 7.85694 20.9447H15.1443C17.4553 20.9447 19.3849 19.3365 19.6298 17.2027L20.0506 13.5828C19.7662 13.6407 19.4729 13.6703 19.1719 13.6703H3.82937ZM15.3918 14.9647C15.7783 15.0366 16.0314 15.3983 15.9572 15.7726L15.4197 18.4838C15.3455 18.8582 14.9721 19.1034 14.5856 19.0315C14.1992 18.9596 13.9461 18.5979 14.0203 18.2235L14.5578 15.5123C14.632 15.138 15.0054 14.8928 15.3918 14.9647ZM11.5912 14.9631C11.9847 14.9631 12.3037 15.2721 12.3037 15.6533V18.414C12.3037 18.7952 11.9847 19.1042 11.5912 19.1042C11.1977 19.1042 10.8787 18.7952 10.8787 18.414V15.6533C10.8787 15.2721 11.1977 14.9631 11.5912 14.9631ZM7.79099 14.9639C7.40455 15.0358 7.15143 15.3975 7.22564 15.7718L7.76309 18.483C7.8373 18.8574 8.21073 19.1026 8.59718 19.0307C8.98362 18.9588 9.23673 18.5971 9.16253 18.2227L8.62507 15.5115C8.55086 15.1372 8.17743 14.892 7.79099 14.9639Z" fill="black"/>
<path fill-rule="evenodd" clip-rule="evenodd" d="M18.6029 7.60117H16.25C16.25 5.14443 14.0203 3.05078 11.5065 3.05078C8.89041 3.05078 6.76286 5.09316 6.76286 7.60203L4.39712 7.60226C3.07518 7.60226 2 8.6339 2 9.90233C2 11.1707 3.07518 12.2024 4.39712 12.2024H18.6029C19.9248 12.2003 21 11.1686 21 9.90127C21 8.63285 19.9248 7.60117 18.6029 7.60117ZM11.5051 4.42656C9.68 4.42656 8.19552 5.85082 8.19552 7.6019L14.8157 7.603C14.8157 5.7223 13.2301 4.42656 11.5051 4.42656Z" fill="black"/>
</svg>
