<svg width="24" height="24" viewBox="0 0 24 24" fill="none" xmlns="http://www.w3.org/2000/svg">
<path d="M12.0012 2C9.5674 2 7.4835 3.6942 6.62129 6.09627C9.56732 7.15121 13.506 7.81106 17.4165 6.19521C16.5764 3.74085 14.4685 2 12.0012 2Z" fill="black"/>
<path d="M21.0878 9.54767C21.0878 8.61196 20.3002 7.77907 18.9831 7.12564C13.7712 9.76262 8.46391 8.51192 5.06577 7.10277C3.72085 7.75941 2.91406 8.60117 2.91406 9.54767C2.91406 11.6625 6.98262 13.378 12.001 13.378C17.0197 13.378 21.0878 11.6629 21.0878 9.54767Z" fill="black"/>
<path d="M10.3909 18.1671C10.3909 19.5507 9.06702 20.9991 7.43375 20.9991C5.80048 20.9991 4.47656 19.5507 4.47656 18.1671C4.47656 16.7844 5.80048 15.9902 7.43375 15.9902C9.06702 15.9902 10.3909 16.7844 10.3909 18.1671Z" fill="black"/>
<path fill-rule="evenodd" clip-rule="evenodd" d="M5.81553 17.2387C5.47588 17.4744 5.30451 17.7776 5.30451 18.167C5.30451 18.6024 5.5199 19.109 5.92862 19.5177C6.3314 19.9204 6.86801 20.1729 7.43562 20.1729C8.00322 20.1729 8.53983 19.9204 8.94261 19.5177C9.35134 19.109 9.56673 18.6024 9.56673 18.167C9.56673 17.7776 9.39535 17.4744 9.05571 17.2387C8.6929 16.9869 8.13071 16.8162 7.43562 16.8162C6.74052 16.8162 6.17833 16.9869 5.81553 17.2387ZM4.87356 15.8814C5.58103 15.3904 6.49744 15.1641 7.43562 15.1641C8.37379 15.1641 9.2902 15.3904 9.99767 15.8814C10.7283 16.3884 11.2189 17.1737 11.2189 18.167C11.2189 19.1153 10.7723 20.0246 10.1108 20.686C9.44327 21.3534 8.50128 21.8251 7.43562 21.8251C6.36995 21.8251 5.42796 21.3534 4.76047 20.686C4.09891 20.0246 3.65234 19.1153 3.65234 18.167C3.65234 17.1737 4.14293 16.3884 4.87356 15.8814Z" fill="black"/>
<path d="M18.6964 18.1671C18.6964 19.5507 17.3721 20.9991 15.7384 20.9991C14.1052 20.9991 12.7812 19.5507 12.7812 18.1671C12.7812 16.7844 14.1056 15.9902 15.7384 15.9902C17.3725 15.9902 18.6964 16.7844 18.6964 18.1671Z" fill="black"/>
<path fill-rule="evenodd" clip-rule="evenodd" d="M14.1164 17.2387C13.7767 17.4745 13.6053 17.7777 13.6053 18.167C13.6053 18.6024 13.8207 19.109 14.2294 19.5177C14.6322 19.9204 15.1688 20.1729 15.7364 20.1729C16.3043 20.1729 16.8411 19.9203 17.244 19.5176C17.6529 19.1089 17.8683 18.6023 17.8683 18.167C17.8683 17.7776 17.6969 17.4745 17.3572 17.2388C16.9944 16.987 16.432 16.8162 15.7364 16.8162C15.0415 16.8162 14.4793 16.9869 14.1164 17.2387ZM13.1745 15.8814C13.882 15.3904 14.7984 15.1641 15.7364 15.1641C16.6749 15.1641 17.5915 15.3904 18.2991 15.8813C19.0299 16.3884 19.5205 17.1737 19.5205 18.167C19.5205 19.1153 19.0737 20.0247 18.412 20.6861C17.7443 21.3535 16.8022 21.8251 15.7364 21.8251C14.6707 21.8251 13.7287 21.3534 13.0613 20.686C12.3997 20.0246 11.9531 19.1153 11.9531 18.167C11.9531 17.1736 12.4439 16.3884 13.1745 15.8814Z" fill="black"/>
<path fill-rule="evenodd" clip-rule="evenodd" d="M9.77344 17.8559C9.77344 17.5137 10.0508 17.2363 10.393 17.2363H12.7801C13.1223 17.2363 13.3996 17.5137 13.3996 17.8559C13.3996 18.1981 13.1223 18.4754 12.7801 18.4754H10.393C10.0508 18.4754 9.77344 18.1981 9.77344 17.8559Z" fill="black"/>
<path fill-rule="evenodd" clip-rule="evenodd" d="M2.35156 17.8555C2.35156 17.4413 2.68735 17.1055 3.10156 17.1055H4.29471C4.70892 17.1055 5.04471 17.4413 5.04471 17.8555C5.04471 18.2697 4.70892 18.6055 4.29471 18.6055H3.10156C2.68735 18.6055 2.35156 18.2697 2.35156 17.8555Z" fill="black"/>
<path fill-rule="evenodd" clip-rule="evenodd" d="M18.1289 17.8555C18.1289 17.4413 18.4647 17.1055 18.8789 17.1055H20.0721C20.4863 17.1055 20.8221 17.4413 20.8221 17.8555C20.8221 18.2697 20.4863 18.6055 20.0721 18.6055H18.8789C18.4647 18.6055 18.1289 18.2697 18.1289 17.8555Z" fill="black"/>
</svg>
