<svg width="24" height="24" viewBox="0 0 24 24" fill="none" xmlns="http://www.w3.org/2000/svg">
<path fill-rule="evenodd" clip-rule="evenodd" d="M3.25 19C3.25 18.5858 3.58579 18.25 4 18.25H20C20.4142 18.25 20.75 18.5858 20.75 19C20.75 19.4142 20.4142 19.75 20 19.75H4C3.58579 19.75 3.25 19.4142 3.25 19Z" fill="black"/>
<path fill-rule="evenodd" clip-rule="evenodd" d="M15.9586 5.25115C16.1716 5.23935 16.3796 5.31882 16.5304 5.46967L20.5304 9.46967C20.8233 9.76256 20.8233 10.2374 20.5304 10.5303C20.2375 10.8232 19.7626 10.8232 19.4697 10.5303L16.0623 7.12285L12.5857 11.4685C12.3648 11.7447 11.981 11.829 11.6647 11.6708L8.25686 9.96692L4.62412 15.416C4.39435 15.7607 3.9287 15.8538 3.58405 15.624C3.23941 15.3943 3.14628 14.9286 3.37604 14.584L7.37604 8.58398C7.58585 8.26926 7.99718 8.16003 8.33549 8.32918L11.7932 10.058L15.4144 5.53148C15.5477 5.3649 15.7456 5.26295 15.9586 5.25115Z" fill="black"/>
</svg>
