<svg width="24" height="24" viewBox="0 0 24 24" fill="none" xmlns="http://www.w3.org/2000/svg">
<path d="M6.32836 7.25C5.93189 7.24997 5.5401 7.33566 5.17984 7.50121C4.81955 7.66678 4.49933 7.90829 4.24113 8.2092C3.98292 8.51012 3.79285 8.8633 3.68392 9.24455C3.575 9.62581 3.54981 10.0261 3.61008 10.418L4.86508 18.57C5.00125 19.4553 5.44983 20.2627 6.12962 20.846C6.80943 21.4293 7.67558 21.75 8.57133 21.75H15.4231C16.319 21.7502 17.1856 21.4297 17.8656 20.8464C18.5457 20.2631 18.9944 19.4556 19.1306 18.5701L20.3856 10.4181C20.4459 10.0262 20.4207 9.62581 20.3118 9.24455C20.2029 8.86331 20.0128 8.51012 19.7546 8.2092C19.4964 7.90829 19.1762 7.66678 18.8159 7.50121C18.4556 7.33566 18.0638 7.24997 17.6674 7.25H17.248V11C17.248 12.2426 16.2407 13.25 14.998 13.25C13.7554 13.25 12.748 12.2426 12.748 11V7.25H11.248V11C11.248 12.2426 10.2407 13.25 8.99805 13.25C7.75541 13.25 6.74805 12.2426 6.74805 11V7.25H6.32836Z" fill="black"/>
<path fill-rule="evenodd" clip-rule="evenodd" d="M11.998 3.75C11.4013 3.75 10.829 3.98705 10.4071 4.40901C9.9851 4.83097 9.74805 5.40326 9.74805 6V11C9.74805 11.4142 9.41226 11.75 8.99805 11.75C8.58383 11.75 8.24805 11.4142 8.24805 11V6C8.24805 5.00544 8.64313 4.05161 9.3464 3.34835C10.0497 2.64509 11.0035 2.25 11.998 2.25C12.9926 2.25 13.9464 2.64509 14.6497 3.34835C15.353 4.05161 15.748 5.00544 15.748 6V11C15.748 11.4142 15.4123 11.75 14.998 11.75C14.5838 11.75 14.248 11.4142 14.248 11V6C14.248 5.40326 14.011 4.83097 13.589 4.40901C13.1671 3.98705 12.5948 3.75 11.998 3.75Z" fill="black"/>
</svg>
