<svg width="24" height="24" viewBox="0 0 24 24" fill="none" xmlns="http://www.w3.org/2000/svg">
<path d="Mnan nanC-nan -nan -nan -nan nan nanL22 8.03751C-nan -nan -nan -nan 22 8.03751C22 5.80765 20.1923 4 17.9625 4H6.03751C3.80765 4 2 5.80765 2 8.03751C-nan -nan -nan -nan 2 8.03751Lnan nanC-nan -nan -nan -nan -nan -nanL2 8.03751H22Lnan nanZ" fill="black"/>
<path fill-rule="evenodd" clip-rule="evenodd" d="M2 15C2 17.7614 4.23858 20 7 20H17C19.7614 20 22 17.7614 22 15V9.60039H2V15ZM4.1 16C4.1 15.5029 4.50294 15.1 5 15.1H7C7.49706 15.1 7.9 15.5029 7.9 16C7.9 16.4971 7.49706 16.9 7 16.9H5C4.50294 16.9 4.1 16.4971 4.1 16ZM10.1 16C10.1 15.5029 10.5029 15.1 11 15.1H13C13.4971 15.1 13.9 15.5029 13.9 16C13.9 16.4971 13.4971 16.9 13 16.9H11C10.5029 16.9 10.1 16.4971 10.1 16Z" fill="black"/>
</svg>
