<svg width="24" height="24" viewBox="0 0 24 24" fill="none" xmlns="http://www.w3.org/2000/svg">
<path fill-rule="evenodd" clip-rule="evenodd" d="M1 7.80502L18.747 1.14051C18.9792 1.05328 19.2412 1.09408 19.4282 1.25716C20.8278 2.47768 22.3885 4.4485 22.9283 6.7403C23.1057 10.3704 20.3406 13.3036 18.6914 14.5122C18.5104 14.6448 18.2748 14.6697 18.0647 14.591L12.8296 12.6297C12.6172 12.5501 12.3792 12.5797 12.1928 12.709C12.0064 12.8382 11.8951 13.0506 11.8951 13.2775V14.9583C11.8951 15.2354 11.7977 15.3059 11.7092 15.3472C11.5593 15.4172 11.2744 15.4454 10.9006 15.3407C10.1145 15.1207 9.53306 14.5172 9.53306 13.9097V11.8742C9.53306 11.5858 9.3541 11.3276 9.084 11.2264L1 8.19784V7.80502ZM17.0624 5.91964C16.9655 6.03926 16.94 6.1557 16.9875 6.29539C17.1103 6.65714 16.9167 7.05 16.5549 7.17285C16.1932 7.29571 15.8003 7.10205 15.6775 6.7403C15.4574 6.09223 15.6325 5.48692 15.9872 5.049C16.3271 4.62914 16.8321 4.35422 17.3483 4.26236C17.8691 4.16968 18.4757 4.2532 18.9598 4.66025C19.4519 5.074 19.6996 5.72188 19.6996 6.51785C19.6996 6.89989 19.3899 7.2096 19.0079 7.2096C18.6258 7.2096 18.3161 6.89989 18.3161 6.51785C18.3161 6.00232 18.1626 5.79751 18.0694 5.71918C17.9683 5.63415 17.8057 5.58619 17.5907 5.62445C17.3712 5.66353 17.1739 5.78194 17.0624 5.91964ZM12.7817 8.55608C12.6848 8.6757 12.6594 8.79215 12.7068 8.93184C12.8297 9.29359 12.636 9.68644 12.2743 9.8093C11.9125 9.93216 11.5197 9.7385 11.3968 9.37675C11.1767 8.72868 11.3519 8.12337 11.7065 7.68544C12.0465 7.26559 12.5515 6.99066 13.0677 6.8988C13.5884 6.80613 14.195 6.88965 14.6791 7.2967C15.1712 7.71045 15.419 8.35833 15.419 9.15429C15.419 9.53634 15.1093 9.84604 14.7272 9.84604C14.3452 9.84604 14.0355 9.53634 14.0355 9.15429C14.0355 8.63877 13.8819 8.43396 13.7888 8.35563C13.6876 8.2706 13.525 8.22264 13.3101 8.2609C13.0905 8.29997 12.8932 8.41839 12.7817 8.55608Z" fill="black"/>
<path d="M20.1551 19.9152C19.8338 20.4457 19.1645 20.2028 19.1645 19.5826V16.2446C19.1645 16.0099 19.2831 15.7924 19.4721 15.6533C20.5545 14.8564 22.1081 13.3243 23 11.3437C22.5821 14.8588 21.2778 18.0622 20.1551 19.9152Z" fill="black"/>
<path d="M13.2786 14.2753L17.3295 15.793C17.6014 15.8948 17.7822 16.1539 17.7839 16.4443L17.804 19.7813C17.807 20.272 17.3173 20.6133 16.8579 20.4408L1 14.4857V9.67524L8.14957 12.3538V13.9097C8.14957 15.3994 9.44089 16.3688 10.5276 16.673C11.0902 16.8305 11.7417 16.8587 12.2941 16.601C12.9079 16.3146 13.2786 15.7297 13.2786 14.9583V14.2753Z" fill="black"/>
</svg>
