<svg width="24" height="24" viewBox="0 0 24 24" fill="none" xmlns="http://www.w3.org/2000/svg">
<path fill-rule="evenodd" clip-rule="evenodd" d="M3.05546 15.0555C3.57118 14.5397 4.27065 14.25 5 14.25C5.72935 14.25 6.42882 14.5397 6.94454 15.0555C7.46027 15.5712 7.75 16.2707 7.75 17C7.75 17.7293 7.46027 18.4288 6.94454 18.9445C6.42882 19.4603 5.72935 19.75 5 19.75C4.27065 19.75 3.57118 19.4603 3.05546 18.9445C2.53973 18.4288 2.25 17.7293 2.25 17C2.25 16.2707 2.53973 15.5712 3.05546 15.0555ZM5 15.75C4.66848 15.75 4.35054 15.8817 4.11612 16.1161C3.8817 16.3505 3.75 16.6685 3.75 17C3.75 17.3315 3.8817 17.6495 4.11612 17.8839C4.35054 18.1183 4.66848 18.25 5 18.25C5.33152 18.25 5.64946 18.1183 5.88388 17.8839C6.1183 17.6495 6.25 17.3315 6.25 17C6.25 16.6685 6.1183 16.3505 5.88388 16.1161C5.64946 15.8817 5.33152 15.75 5 15.75Z" fill="black"/>
<path fill-rule="evenodd" clip-rule="evenodd" d="M15.0555 15.0555C15.5712 14.5397 16.2707 14.25 17 14.25C17.7293 14.25 18.4288 14.5397 18.9445 15.0555C19.4603 15.5712 19.75 16.2707 19.75 17C19.75 17.7293 19.4603 18.4288 18.9445 18.9445C18.4288 19.4603 17.7293 19.75 17 19.75C16.2707 19.75 15.5712 19.4603 15.0555 18.9445C14.5397 18.4288 14.25 17.7293 14.25 17C14.25 16.2707 14.5397 15.5712 15.0555 15.0555ZM17 15.75C16.6685 15.75 16.3505 15.8817 16.1161 16.1161C15.8817 16.3505 15.75 16.6685 15.75 17C15.75 17.3315 15.8817 17.6495 16.1161 17.8839C16.3505 18.1183 16.6685 18.25 17 18.25C17.3315 18.25 17.6495 18.1183 17.8839 17.8839C18.1183 17.6495 18.25 17.3315 18.25 17C18.25 16.6685 18.1183 16.3505 17.8839 16.1161C17.6495 15.8817 17.3315 15.75 17 15.75Z" fill="black"/>
<path fill-rule="evenodd" clip-rule="evenodd" d="M14.4168 4.52849C14.5591 4.35235 14.7735 4.25 15 4.25H16C17.622 4.25 19.1018 5.15267 20.1458 6.61432C21.1876 8.0728 21.75 10.0116 21.75 12V18C21.75 18.4142 21.4142 18.75 21 18.75H19C18.5858 18.75 18.25 18.4142 18.25 18C18.25 17.5858 18.5858 17.25 19 17.25H20.25V12.75H16.5C16.1463 12.75 15.8407 12.5029 15.7666 12.1571L14.2666 5.15715C14.2192 4.93568 14.2744 4.70463 14.4168 4.52849ZM20.2189 11.25C20.0988 9.81002 19.6368 8.4823 18.9252 7.48618C18.0939 6.32233 17.0302 5.75 16 5.75H15.9277L17.1063 11.25H20.2189ZM6.25 18C6.25 17.5858 6.58579 17.25 7 17.25H15C15.4142 17.25 15.75 17.5858 15.75 18C15.75 18.4142 15.4142 18.75 15 18.75H7C6.58579 18.75 6.25 18.4142 6.25 18Z" fill="black"/>
<path fill-rule="evenodd" clip-rule="evenodd" d="M11.25 5C11.25 4.58579 11.5858 4.25 12 4.25H15C15.4142 4.25 15.75 4.58579 15.75 5C15.75 5.41421 15.4142 5.75 15 5.75H12.75V18C12.75 18.4142 12.4142 18.75 12 18.75C11.5858 18.75 11.25 18.4142 11.25 18V5Z" fill="black"/>
<path fill-rule="evenodd" clip-rule="evenodd" d="M2.25 12C2.25 11.5858 2.58579 11.25 3 11.25H12C12.4142 11.25 12.75 11.5858 12.75 12C12.75 12.4142 12.4142 12.75 12 12.75H3.75V17C3.75 17.4142 3.41421 17.75 3 17.75C2.58579 17.75 2.25 17.4142 2.25 17V12Z" fill="black"/>
</svg>
