<svg width="24" height="24" viewBox="0 0 24 24" fill="none" xmlns="http://www.w3.org/2000/svg">
<path fill-rule="evenodd" clip-rule="evenodd" d="M11.1979 4.7758C11.172 4.76506 11.1442 4.75961 11.1161 4.75977C11.0886 4.75993 11.0613 4.76552 11.0359 4.7762C11.0355 4.77638 11.0351 4.77657 11.0346 4.77675L3.90431 7.88242C3.84402 7.90982 3.79849 7.95829 3.77523 8.01731C3.7512 8.07828 3.75207 8.14626 3.77765 8.20659L3.78024 8.21269L8.70807 20.125C8.71845 20.1511 8.73388 20.1749 8.75357 20.1948C8.77327 20.2148 8.79677 20.2306 8.82269 20.2414C8.84861 20.2521 8.87642 20.2576 8.90447 20.2574C8.93218 20.2572 8.95957 20.2516 8.98508 20.2407C8.9854 20.2406 8.98572 20.2405 8.98604 20.2403L16.1142 17.1352C16.1148 17.1349 16.1154 17.1347 16.116 17.1344C16.175 17.1076 16.2213 17.0588 16.2451 16.9985C16.2691 16.9375 16.2683 16.8695 16.2427 16.8092L16.2401 16.8031L11.3124 4.89205C11.302 4.86601 11.2866 4.84229 11.2669 4.82233C11.2472 4.80237 11.2237 4.78655 11.1979 4.7758ZM11.1075 3.25979C11.3357 3.25847 11.5619 3.30286 11.7728 3.39035C11.9836 3.47784 12.1748 3.60665 12.335 3.76919C12.494 3.9304 12.6193 4.12155 12.7038 4.33155L17.6251 16.227C17.8028 16.6485 17.8084 17.1229 17.6406 17.5486C17.4724 17.9754 17.1433 18.319 16.7242 18.5056L16.7187 18.508L9.5817 21.617L9.5783 21.6185C9.36841 21.7087 9.14256 21.7559 8.9141 21.7574C8.68564 21.7588 8.4592 21.7145 8.24817 21.627C8.03713 21.5395 7.84576 21.4106 7.68537 21.2479C7.52634 21.0866 7.40095 20.8953 7.31649 20.6851L2.39669 8.79221C2.3962 8.79104 2.3957 8.78987 2.39521 8.78871C2.21755 8.36722 2.21196 7.89287 2.37973 7.46724C2.54849 7.03909 2.8784 6.69717 3.29619 6.51121L3.30167 6.50877L10.4437 3.39804C10.6535 3.30812 10.8792 3.26112 11.1075 3.25979Z" fill="black"/>
<path fill-rule="evenodd" clip-rule="evenodd" d="M14.25 4C14.25 3.58579 14.5858 3.25 15 3.25H16C16.4641 3.25 16.9092 3.43437 17.2374 3.76256C17.5656 4.09075 17.75 4.53587 17.75 5V8.5C17.75 8.91421 17.4142 9.25 17 9.25C16.5858 9.25 16.25 8.91421 16.25 8.5V5C16.25 4.93369 16.2237 4.87011 16.1768 4.82322C16.1299 4.77634 16.0663 4.75 16 4.75H15C14.5858 4.75 14.25 4.41421 14.25 4Z" fill="black"/>
<path fill-rule="evenodd" clip-rule="evenodd" d="M19.3098 5.70728C19.4715 5.32596 19.9118 5.14799 20.2931 5.30976C20.5518 5.41951 20.802 5.52213 21.0438 5.61768L21.0612 5.62478C21.4884 5.80606 21.8261 6.1496 22 6.57984C22.1739 7.01008 22.1699 7.4918 21.9887 7.91903L21.9878 7.92108L21.9878 7.92108L19.6898 13.2951C19.5269 13.6759 19.0862 13.8527 18.7053 13.6898C18.3245 13.5269 18.1477 13.0862 18.3106 12.7053L20.6077 7.33336C20.6078 7.33313 20.6079 7.3329 20.608 7.33267C20.6336 7.27181 20.6341 7.20328 20.6093 7.14204C20.5853 7.0825 20.5392 7.03458 20.4809 7.0081C20.2304 6.90897 19.9725 6.80313 19.7073 6.69063C19.326 6.52886 19.148 6.0886 19.3098 5.70728Z" fill="black"/>
</svg>
