<svg width="24" height="24" viewBox="0 0 24 24" fill="none" xmlns="http://www.w3.org/2000/svg">
<path fill-rule="evenodd" clip-rule="evenodd" d="M9.0887 10.2363C8.5826 10.2347 8.08117 10.3332 7.61328 10.5261C7.14539 10.719 6.72028 11.0026 6.36241 11.3605C6.00454 11.7183 5.72098 12.1434 5.52806 12.6113C5.33514 13.0792 5.23666 13.5806 5.2383 14.0867C5.23994 14.5928 5.34166 15.0936 5.5376 15.5603C5.73321 16.0261 6.01886 16.4487 6.37815 16.8039L11.4715 21.8982C11.6122 22.0389 11.803 22.118 12.0019 22.118C12.2009 22.118 12.3916 22.0389 12.5323 21.8982L17.6256 16.8039C17.9849 16.4487 18.2706 16.0261 18.4662 15.5603C18.6622 15.0936 18.7639 14.5928 18.7655 14.0867C18.7672 13.5806 18.6687 13.0792 18.4758 12.6113C18.2828 12.1434 17.9993 11.7183 17.6414 11.3605C17.2836 11.0026 16.8584 10.719 16.3905 10.5261C15.9227 10.3332 15.4212 10.2347 14.9151 10.2363C14.409 10.238 13.9082 10.3397 13.4416 10.5357C12.9759 10.7312 12.5533 11.0168 12.1982 11.376L12.0019 11.572L11.8057 11.376C11.4505 11.0168 11.028 10.7312 10.5622 10.5357C10.0956 10.3397 9.5948 10.238 9.0887 10.2363Z" fill="black"/>
<path fill-rule="evenodd" clip-rule="evenodd" d="M9.7019 3.2019C10.3114 2.59241 11.138 2.25 12 2.25C12.862 2.25 13.6886 2.59241 14.2981 3.2019C14.9076 3.8114 15.25 4.63805 15.25 5.5C15.25 6.36195 14.9076 7.1886 14.2981 7.7981C13.6886 8.40759 12.862 8.75 12 8.75C11.138 8.75 10.3114 8.40759 9.7019 7.7981C9.09241 7.1886 8.75 6.36195 8.75 5.5C8.75 4.63805 9.09241 3.8114 9.7019 3.2019Z" fill="black"/>
</svg>
