<svg width="24" height="24" viewBox="0 0 24 24" fill="none" xmlns="http://www.w3.org/2000/svg">
<path d="M5 18.6263C5.98668 19.2955 6.97333 19.8232 7.95997 20.2095L10 15H14L16.081 20.1934C17.0672 19.8034 18.0534 19.2721 19.0396 18.5994L17 10L18 8L20 9L21.5 7.5L19 3C13.948 3.218 13.01 6.133 12 9H7L5 18.6263Z" fill="black"/>
<path fill-rule="evenodd" clip-rule="evenodd" d="M18.9677 2.2507C19.2514 2.23846 19.5177 2.38752 19.6556 2.63577L22.1556 7.13577C22.3182 7.42849 22.2671 7.79355 22.0303 8.03033L20.5303 9.53033C20.3021 9.7586 19.9533 9.81519 19.6646 9.67082L18.3354 9.00623L17.7926 10.0919L19.5095 17.3309C19.6805 17.1989 19.8517 17.0623 20.0232 16.9211C20.343 16.6577 20.8156 16.7035 21.0789 17.0232C21.3423 17.343 21.2965 17.8156 20.9768 18.0789C20.4769 18.4906 19.9749 18.8688 19.4711 19.2129C19.4681 19.2149 19.4652 19.217 19.4622 19.219C18.4931 19.88 17.5163 20.4151 16.5317 20.8202C15.0363 21.4357 13.5253 21.7503 12 21.7503C10.4762 21.7503 8.9665 21.4363 7.47248 20.822C6.50043 20.4224 5.53598 19.8961 4.57902 19.247C4.57597 19.245 4.57293 19.2429 4.56992 19.2408C4.05228 18.8893 3.53669 18.5018 3.02322 18.0789C2.70347 17.8156 2.65773 17.343 2.92106 17.0232C3.18438 16.7035 3.65704 16.6577 3.97678 16.9211C4.15193 17.0653 4.3268 17.2047 4.50138 17.3393L6.07816 9.75H6C5.40326 9.75 4.83097 9.98706 4.40901 10.409C3.98705 10.831 3.75 11.4033 3.75 12C3.75 12.4142 3.41421 12.75 3 12.75C2.58579 12.75 2.25 12.4142 2.25 12C2.25 11.0054 2.64509 10.0516 3.34835 9.34835C4.05161 8.64509 5.00544 8.25 6 8.25H11.4688C11.9172 6.98304 12.4452 5.60732 13.4241 4.50788C14.5777 3.21227 16.2828 2.36656 18.9677 2.2507ZM12 9.75H7.61019L5.83804 18.2797C6.40968 18.6433 6.97813 18.9552 7.54336 19.2165L9.30164 14.7265C9.41419 14.4391 9.69133 14.25 10 14.25H14C14.3065 14.25 14.5822 14.4365 14.6962 14.721L16.4911 19.2005C17.0539 18.9383 17.6198 18.6261 18.1889 18.2626L16.2702 10.1731C16.2296 10.0019 16.2505 9.82193 16.3292 9.66459L17.3292 7.66459C17.4181 7.48668 17.5741 7.35139 17.7628 7.28849C17.9515 7.22559 18.1575 7.24023 18.3354 7.32918L19.8519 8.08743L20.5696 7.3697L18.5741 3.77778C16.4957 3.94827 15.32 4.6343 14.5444 5.50538C13.6865 6.46889 13.2431 7.72788 12.7374 9.16405C12.7274 9.19236 12.7174 9.22075 12.7074 9.24921C12.6017 9.54928 12.3181 9.75 12 9.75ZM15.0956 19.7505L13.4926 15.75H10.5118L8.94063 19.7621C9.96941 20.0896 10.989 20.2503 12 20.2503C13.0229 20.2503 14.0545 20.0859 15.0956 19.7505Z" fill="black"/>
</svg>
