<svg width="24" height="24" viewBox="0 0 24 24" fill="none" xmlns="http://www.w3.org/2000/svg">
<path fill-rule="evenodd" clip-rule="evenodd" d="M8.25 12C8.25 11.5858 8.58579 11.25 9 11.25H10C10.4142 11.25 10.75 11.5858 10.75 12C10.75 12.4142 10.4142 12.75 10 12.75H9.75V16.25H10C10.4142 16.25 10.75 16.5858 10.75 17C10.75 17.4142 10.4142 17.75 10 17.75H9C8.58579 17.75 8.25 17.4142 8.25 17V12Z" fill="black"/>
<path fill-rule="evenodd" clip-rule="evenodd" d="M13.25 12C13.25 11.5858 13.5858 11.25 14 11.25H15C15.4142 11.25 15.75 11.5858 15.75 12V17C15.75 17.4142 15.4142 17.75 15 17.75H14C13.5858 17.75 13.25 17.4142 13.25 17C13.25 16.5858 13.5858 16.25 14 16.25H14.25V12.75H14C13.5858 12.75 13.25 12.4142 13.25 12Z" fill="black"/>
<path fill-rule="evenodd" clip-rule="evenodd" d="M14 2.25C14.4142 2.25 14.75 2.58579 14.75 3V7C14.75 7.0663 14.7763 7.12989 14.8232 7.17678C14.8701 7.22366 14.9337 7.25 15 7.25H19C19.4142 7.25 19.75 7.58579 19.75 8C19.75 8.41421 19.4142 8.75 19 8.75H15C14.5359 8.75 14.0908 8.56563 13.7626 8.23744C13.4344 7.90925 13.25 7.46413 13.25 7V3C13.25 2.58579 13.5858 2.25 14 2.25Z" fill="black"/>
<path fill-rule="evenodd" clip-rule="evenodd" d="M7 3.75C6.66848 3.75 6.35054 3.8817 6.11612 4.11612C5.8817 4.35054 5.75 4.66848 5.75 5V19C5.75 19.3315 5.8817 19.6495 6.11612 19.8839C6.35054 20.1183 6.66848 20.25 7 20.25H17C17.3315 20.25 17.6495 20.1183 17.8839 19.8839C18.1183 19.6495 18.25 19.3315 18.25 19V8.31066L13.6893 3.75H7ZM5.05546 3.05546C5.57118 2.53973 6.27065 2.25 7 2.25H14C14.1989 2.25 14.3897 2.32902 14.5303 2.46967L19.5303 7.46967C19.671 7.61032 19.75 7.80109 19.75 8V19C19.75 19.7293 19.4603 20.4288 18.9445 20.9445C18.4288 21.4603 17.7293 21.75 17 21.75H7C6.27065 21.75 5.57118 21.4603 5.05546 20.9445C4.53973 20.4288 4.25 19.7293 4.25 19V5C4.25 4.27065 4.53973 3.57118 5.05546 3.05546Z" fill="black"/>
</svg>
