<svg width="24" height="24" viewBox="0 0 24 24" fill="none" xmlns="http://www.w3.org/2000/svg">
<path fill-rule="evenodd" clip-rule="evenodd" d="M22 20V13C22 11.8954 21.1046 11 20 11H18.75V15C18.75 15.4142 18.4142 15.75 18 15.75C17.5858 15.75 17.25 15.4142 17.25 15V11H12.75V15C12.75 15.4142 12.4142 15.75 12 15.75C11.5858 15.75 11.25 15.4142 11.25 15V11H6.75V15C6.75 15.4142 6.41421 15.75 6 15.75C5.58579 15.75 5.25 15.4142 5.25 15V11H4C2.89543 11 2 11.8954 2 13V20C2 21.1046 2.89543 22 4 22H20C21.1046 22 22 21.1046 22 20Z" fill="black"/>
<path fill-rule="evenodd" clip-rule="evenodd" d="M3 2.25C3.41421 2.25 3.75 2.58579 3.75 3V4.25H20.25V3C20.25 2.58579 20.5858 2.25 21 2.25C21.4142 2.25 21.75 2.58579 21.75 3V7C21.75 7.41421 21.4142 7.75 21 7.75C20.5858 7.75 20.25 7.41421 20.25 7V5.75H3.75V7C3.75 7.41421 3.41421 7.75 3 7.75C2.58579 7.75 2.25 7.41421 2.25 7V3C2.25 2.58579 2.58579 2.25 3 2.25Z" fill="black"/>
</svg>
