<svg width="24" height="24" viewBox="0 0 24 24" fill="none" xmlns="http://www.w3.org/2000/svg">
<path fill-rule="evenodd" clip-rule="evenodd" d="M4.99135 6.56177C6.3304 4.70198 8.55556 3.25 12 3.25C15.4444 3.25 17.6696 4.70198 19.0087 6.56177C20.3202 8.38332 20.75 10.5466 20.75 12C20.75 12.0196 20.75 12.0394 20.75 12.0594C20.7503 12.7691 20.7506 13.7555 20.4548 14.5688C20.2956 15.0068 20.0356 15.442 19.6063 15.7641C19.1715 16.0901 18.63 16.25 18 16.25C17.3286 16.25 16.7729 16.0342 16.3455 15.6543C16.0956 15.4322 15.9073 15.17 15.7642 14.8975C14.8957 16.0242 13.5326 16.75 12 16.75C9.37665 16.75 7.25 14.6234 7.25 12C7.25 9.37665 9.37665 7.25 12 7.25C14.6234 7.25 16.75 9.37665 16.75 12C16.75 12.5169 16.7559 13.2711 16.9615 13.8878C17.0613 14.1873 17.1915 14.3994 17.342 14.5332C17.4771 14.6533 17.6714 14.75 18 14.75C18.37 14.75 18.5785 14.6599 18.7063 14.5641C18.8394 14.4642 18.9544 14.3057 19.0452 14.0562C19.2411 13.5174 19.25 12.7866 19.25 12C19.25 10.7867 18.8798 8.95002 17.7913 7.43823C16.7304 5.96468 14.9556 4.75 12 4.75C9.04444 4.75 7.2696 5.96468 6.20865 7.43823C5.12016 8.95002 4.75 10.7867 4.75 12C4.75 13.0369 5.09041 14.7514 6.17071 16.2487C7.22546 17.7105 9.01582 19.0109 12.0289 19.25C12.9389 19.2481 13.6551 19.1577 14.7628 18.7885C15.1558 18.6575 15.5805 18.8699 15.7115 19.2628C15.8425 19.6558 15.6301 20.0805 15.2372 20.2115C13.9566 20.6384 13.0762 20.75 12 20.75C11.9808 20.75 11.9616 20.7493 11.9425 20.7478C8.47284 20.4809 6.27121 18.9515 4.95429 17.1263C3.65959 15.3319 3.25 13.2964 3.25 12C3.25 10.5466 3.67984 8.38332 4.99135 6.56177ZM15.25 12.0009C15.25 12.0006 15.25 12.0003 15.25 12C15.25 10.2051 13.7949 8.75 12 8.75C10.2051 8.75 8.75 10.2051 8.75 12C8.75 13.7949 10.2051 15.25 12 15.25C13.7946 15.25 15.2495 13.7954 15.25 12.0009Z" fill="black"/>
</svg>
