<svg width="24" height="24" viewBox="0 0 24 24" fill="none" xmlns="http://www.w3.org/2000/svg">
<path fill-rule="evenodd" clip-rule="evenodd" d="M9.03806 3.76657C10.8072 3.13011 12.7344 3.08046 14.534 3.62495C16.3336 4.16945 17.91 5.27913 19.0295 6.78962C20.1491 8.30012 20.7524 10.1311 20.75 12.0112V13.3436C20.75 14.1319 20.4368 14.8879 19.8794 15.4453C19.3221 16.0027 18.5661 16.3158 17.7778 16.3158C16.9895 16.3158 16.2335 16.0027 15.6761 15.4453C15.5005 15.2697 15.3492 15.0745 15.2243 14.8647C15.618 14.4199 15.9127 13.9013 16.0942 13.3436C16.2324 12.919 16.3049 12.4718 16.3055 12.017V13.3436C16.3055 13.7341 16.4607 14.1085 16.7368 14.3846C17.0128 14.6607 17.3873 14.8158 17.7778 14.8158C18.1682 14.8158 18.5427 14.6607 18.8188 14.3846C19.0949 14.1085 19.25 13.7341 19.25 13.3436V12.0103C19.252 10.4524 18.7521 8.93438 17.8245 7.68283C16.8968 6.43128 15.5907 5.51183 14.0996 5.06067C12.6085 4.60952 11.0117 4.65067 9.54582 5.17801C8.07993 5.70536 6.82289 6.69086 5.96092 7.98853C5.09894 9.28619 4.67788 10.827 4.76011 12.3827C4.84234 13.9384 5.42349 15.4262 6.41746 16.6258C7.41144 17.8253 8.76536 18.6728 10.2787 19.0427C11.792 19.4126 13.3842 19.2851 14.8194 18.6793C15.201 18.5182 15.641 18.697 15.8021 19.0786C15.9632 19.4602 15.7844 19.9002 15.4028 20.0612C13.6706 20.7924 11.749 20.9462 9.92254 20.4998C8.09613 20.0534 6.46208 19.0306 5.26245 17.5828C4.06283 16.1351 3.36145 14.3394 3.2622 12.4619C3.16296 10.5843 3.67113 8.72471 4.71145 7.15857C5.75176 5.59242 7.26888 4.40302 9.03806 3.76657ZM16.3056 12.0113C16.3056 10.8694 15.8519 9.77424 15.0445 8.9668C14.237 8.15935 13.1419 7.70573 12 7.70573C10.8581 7.70573 9.76296 8.15935 8.95551 8.9668C8.14806 9.77424 7.69444 10.8694 7.69444 12.0113C7.69444 13.1532 8.14806 14.2483 8.95551 15.0558C9.76296 15.8632 10.8581 16.3168 12 16.3168C13.1419 16.3168 14.237 15.8632 15.0445 15.0558C15.1065 14.9937 15.1665 14.93 15.2243 14.8647C14.9525 14.4085 14.8055 13.8836 14.8055 13.3436V12.0159C14.8056 12.0144 14.8056 12.0128 14.8056 12.0113C14.8056 12.0109 14.8055 12.0106 14.8055 12.0103C14.8055 11.5961 15.1413 11.2603 15.5555 11.2603C15.9698 11.2603 16.3055 11.5961 16.3055 12.0103L16.3056 12.0113ZM14.8055 12.0103C14.8053 11.2666 14.5097 10.5534 13.9838 10.0275C13.4577 9.50131 12.7441 9.20573 12 9.20573C11.2559 9.20573 10.5423 9.50131 10.0162 10.0275C9.49003 10.5536 9.19444 11.2672 9.19444 12.0113C9.19444 12.7554 9.49003 13.469 10.0162 13.9951C10.5423 14.5213 11.2559 14.8168 12 14.8168C12.7441 14.8168 13.4577 14.5213 13.9838 13.9951C14.5089 13.4701 14.8043 12.7583 14.8055 12.0159V12.0103ZM16.3055 12.017C16.3056 12.0151 16.3056 12.0132 16.3056 12.0113Z" fill="black"/>
</svg>
