<svg width="24" height="24" viewBox="0 0 24 24" fill="none" xmlns="http://www.w3.org/2000/svg">
<path d="M4 10C4 10.5304 4.21071 11.0391 4.58579 11.4142C4.96086 11.7893 5.46957 12 6 12C6.53043 12 7.03914 11.7893 7.41421 11.4142C7.78929 11.0391 8 10.5304 8 10C8 9.46957 7.78929 8.96086 7.41421 8.58579C7.03914 8.21071 6.53043 8 6 8C5.46957 8 4.96086 8.21071 4.58579 8.58579C4.21071 8.96086 4 9.46957 4 10Z" fill="black"/>
<path fill-rule="evenodd" clip-rule="evenodd" d="M4.05546 8.05546C4.57118 7.53973 5.27065 7.25 6 7.25C6.72935 7.25 7.42882 7.53973 7.94454 8.05546C8.46027 8.57118 8.75 9.27065 8.75 10C8.75 10.7293 8.46027 11.4288 7.94454 11.9445C7.42882 12.4603 6.72935 12.75 6 12.75C5.27065 12.75 4.57118 12.4603 4.05546 11.9445C3.53973 11.4288 3.25 10.7293 3.25 10C3.25 9.27065 3.53973 8.57118 4.05546 8.05546ZM6 8.75C5.66848 8.75 5.35054 8.8817 5.11612 9.11612C4.8817 9.35054 4.75 9.66848 4.75 10C4.75 10.3315 4.8817 10.6495 5.11612 10.8839C5.35054 11.1183 5.66848 11.25 6 11.25C6.33152 11.25 6.64946 11.1183 6.88388 10.8839C7.1183 10.6495 7.25 10.3315 7.25 10C7.25 9.66848 7.1183 9.35054 6.88388 9.11612C6.64946 8.8817 6.33152 8.75 6 8.75Z" fill="black"/>
<path fill-rule="evenodd" clip-rule="evenodd" d="M6 3.25C6.41421 3.25 6.75 3.58579 6.75 4V8C6.75 8.41421 6.41421 8.75 6 8.75C5.58579 8.75 5.25 8.41421 5.25 8V4C5.25 3.58579 5.58579 3.25 6 3.25Z" fill="black"/>
<path fill-rule="evenodd" clip-rule="evenodd" d="M6 11.25C6.41421 11.25 6.75 11.5858 6.75 12V20C6.75 20.4142 6.41421 20.75 6 20.75C5.58579 20.75 5.25 20.4142 5.25 20V12C5.25 11.5858 5.58579 11.25 6 11.25Z" fill="black"/>
<path d="M10 16C10 16.5304 10.2107 17.0391 10.5858 17.4142C10.9609 17.7893 11.4696 18 12 18C12.5304 18 13.0391 17.7893 13.4142 17.4142C13.7893 17.0391 14 16.5304 14 16C14 15.4696 13.7893 14.9609 13.4142 14.5858C13.0391 14.2107 12.5304 14 12 14C11.4696 14 10.9609 14.2107 10.5858 14.5858C10.2107 14.9609 10 15.4696 10 16Z" fill="black"/>
<path fill-rule="evenodd" clip-rule="evenodd" d="M10.0555 14.0555C10.5712 13.5397 11.2707 13.25 12 13.25C12.7293 13.25 13.4288 13.5397 13.9445 14.0555C14.4603 14.5712 14.75 15.2707 14.75 16C14.75 16.7293 14.4603 17.4288 13.9445 17.9445C13.4288 18.4603 12.7293 18.75 12 18.75C11.2707 18.75 10.5712 18.4603 10.0555 17.9445C9.53973 17.4288 9.25 16.7293 9.25 16C9.25 15.2707 9.53973 14.5712 10.0555 14.0555ZM12 14.75C11.6685 14.75 11.3505 14.8817 11.1161 15.1161C10.8817 15.3505 10.75 15.6685 10.75 16C10.75 16.3315 10.8817 16.6495 11.1161 16.8839C11.3505 17.1183 11.6685 17.25 12 17.25C12.3315 17.25 12.6495 17.1183 12.8839 16.8839C13.1183 16.6495 13.25 16.3315 13.25 16C13.25 15.6685 13.1183 15.3505 12.8839 15.1161C12.6495 14.8817 12.3315 14.75 12 14.75Z" fill="black"/>
<path fill-rule="evenodd" clip-rule="evenodd" d="M12 3.25C12.4142 3.25 12.75 3.58579 12.75 4V14C12.75 14.4142 12.4142 14.75 12 14.75C11.5858 14.75 11.25 14.4142 11.25 14V4C11.25 3.58579 11.5858 3.25 12 3.25Z" fill="black"/>
<path fill-rule="evenodd" clip-rule="evenodd" d="M12 17.25C12.4142 17.25 12.75 17.5858 12.75 18V20C12.75 20.4142 12.4142 20.75 12 20.75C11.5858 20.75 11.25 20.4142 11.25 20V18C11.25 17.5858 11.5858 17.25 12 17.25Z" fill="black"/>
<path d="M16 7C16 7.53043 16.2107 8.03914 16.5858 8.41421C16.9609 8.78929 17.4696 9 18 9C18.5304 9 19.0391 8.78929 19.4142 8.41421C19.7893 8.03914 20 7.53043 20 7C20 6.46957 19.7893 5.96086 19.4142 5.58579C19.0391 5.21071 18.5304 5 18 5C17.4696 5 16.9609 5.21071 16.5858 5.58579C16.2107 5.96086 16 6.46957 16 7Z" fill="black"/>
<path fill-rule="evenodd" clip-rule="evenodd" d="M16.0555 5.05546C16.5712 4.53973 17.2707 4.25 18 4.25C18.7293 4.25 19.4288 4.53973 19.9445 5.05546C20.4603 5.57118 20.75 6.27065 20.75 7C20.75 7.72935 20.4603 8.42882 19.9445 8.94454C19.4288 9.46027 18.7293 9.75 18 9.75C17.2707 9.75 16.5712 9.46027 16.0555 8.94454C15.5397 8.42882 15.25 7.72935 15.25 7C15.25 6.27065 15.5397 5.57118 16.0555 5.05546ZM18 5.75C17.6685 5.75 17.3505 5.8817 17.1161 6.11612C16.8817 6.35054 16.75 6.66848 16.75 7C16.75 7.33152 16.8817 7.64946 17.1161 7.88388C17.3505 8.1183 17.6685 8.25 18 8.25C18.3315 8.25 18.6495 8.1183 18.8839 7.88388C19.1183 7.64946 19.25 7.33152 19.25 7C19.25 6.66848 19.1183 6.35054 18.8839 6.11612C18.6495 5.8817 18.3315 5.75 18 5.75Z" fill="black"/>
<path fill-rule="evenodd" clip-rule="evenodd" d="M18 3.25C18.4142 3.25 18.75 3.58579 18.75 4V5C18.75 5.41421 18.4142 5.75 18 5.75C17.5858 5.75 17.25 5.41421 17.25 5V4C17.25 3.58579 17.5858 3.25 18 3.25Z" fill="black"/>
<path fill-rule="evenodd" clip-rule="evenodd" d="M18 8.25C18.4142 8.25 18.75 8.58579 18.75 9V20C18.75 20.4142 18.4142 20.75 18 20.75C17.5858 20.75 17.25 20.4142 17.25 20V9C17.25 8.58579 17.5858 8.25 18 8.25Z" fill="black"/>
</svg>
