<svg width="24" height="24" viewBox="0 0 24 24" fill="none" xmlns="http://www.w3.org/2000/svg">
<path fill-rule="evenodd" clip-rule="evenodd" d="M18.5115 6.3577C18.8663 6.14394 19.3272 6.25827 19.541 6.61306C20.523 8.24302 20.9467 10.1483 20.7485 12.0402V13.0001C20.7475 13.9214 20.9889 14.8275 21.4485 15.6259C21.6552 15.9849 21.5317 16.4435 21.1727 16.6501C20.8137 16.8568 20.3552 16.7333 20.1485 16.3743C19.5577 15.3479 19.2473 14.184 19.2485 12.9997C19.2486 12.9996 19.2485 12.9999 19.2485 12.9997V12.0001C19.2485 11.9728 19.25 11.9455 19.253 11.9184C19.426 10.3396 19.0758 8.74761 18.2561 7.38716C18.0424 7.03237 18.1567 6.57146 18.5115 6.3577Z" fill="black"/>
<path fill-rule="evenodd" clip-rule="evenodd" d="M12 7.75C11.138 7.75 10.3114 8.09241 9.7019 8.7019C9.09241 9.3114 8.75 10.138 8.75 11C8.75 11.4142 8.41421 11.75 8 11.75C7.58579 11.75 7.25 11.4142 7.25 11C7.25 9.74022 7.75044 8.53204 8.64124 7.64124C9.53204 6.75044 10.7402 6.25 12 6.25C13.2598 6.25 14.468 6.75044 15.3588 7.64124C16.2496 8.53204 16.75 9.74022 16.75 11V12C16.75 14.0014 17.3991 15.9489 18.6 17.55C18.8485 17.8814 18.7814 18.3515 18.45 18.6C18.1186 18.8485 17.6485 18.7814 17.4 18.45C16.0044 16.5892 15.25 14.326 15.25 12V11C15.25 10.138 14.9076 9.3114 14.2981 8.7019C13.6886 8.09241 12.862 7.75 12 7.75Z" fill="black"/>
<path fill-rule="evenodd" clip-rule="evenodd" d="M12 10.25C12.4142 10.25 12.75 10.5858 12.75 11V13C12.747 15.7062 13.5727 18.3493 15.1161 20.5723C15.3523 20.9125 15.268 21.3798 14.9277 21.6161C14.5875 21.8523 14.1202 21.768 13.8839 21.4277C12.1659 18.9532 11.2467 16.012 11.25 12.9996C11.25 12.9995 11.25 12.9997 11.25 12.9996V11C11.25 10.5858 11.5858 10.25 12 10.25Z" fill="black"/>
<path fill-rule="evenodd" clip-rule="evenodd" d="M7.91285 14.2552C8.32425 14.207 8.69681 14.5014 8.74498 14.9128C8.97949 16.9156 9.56333 18.8617 10.47 20.6628C10.6562 21.0328 10.5073 21.4837 10.1373 21.67C9.76731 21.8562 9.3164 21.7073 9.13016 21.3373C8.14467 19.3796 7.51006 17.2642 7.25516 15.0873C7.20699 14.6759 7.50145 14.3033 7.91285 14.2552Z" fill="black"/>
<path fill-rule="evenodd" clip-rule="evenodd" d="M15.6254 4.69985C14.5218 4.06268 13.2698 3.72765 11.9955 3.72852C10.7212 3.72938 9.46958 4.06611 8.36685 4.70477C7.26413 5.34343 6.34922 6.26146 5.71431 7.36636C5.07941 8.47125 4.74695 9.72397 4.75042 10.9983L4.75043 11.0003L4.75042 12.0003C4.75042 12.0086 4.75029 12.0169 4.75001 12.0252C4.67403 14.3111 4.96758 16.5943 5.61933 18.7866C5.73736 19.1836 5.51119 19.6012 5.11415 19.7192C4.71711 19.8373 4.29956 19.6111 4.18152 19.2141C3.48496 16.871 3.17057 14.431 3.25042 11.988V11.0013C3.24642 9.46372 3.64766 7.9522 4.41375 6.61901C5.18001 5.28552 6.28421 4.17755 7.61508 3.40676C8.94596 2.63596 10.4565 2.22956 11.9945 2.22852C13.5324 2.22747 15.0435 2.63182 16.3754 3.40081C16.7341 3.60792 16.857 4.06661 16.6499 4.42533C16.4428 4.78405 15.9841 4.90696 15.6254 4.69985Z" fill="black"/>
</svg>
