<svg width="24" height="24" viewBox="0 0 24 24" fill="none" xmlns="http://www.w3.org/2000/svg">
<path fill-rule="evenodd" clip-rule="evenodd" d="M4.25 5C4.25 4.58579 4.58579 4.25 5 4.25H17.7929C18.9065 4.25 19.4642 5.59642 18.6768 6.38388L15.5607 9.5L18.6768 12.6161C19.4642 13.4036 18.9065 14.75 17.7929 14.75H5.75V21C5.75 21.4142 5.41421 21.75 5 21.75C4.58579 21.75 4.25 21.4142 4.25 21V5ZM5.75 13.25H17.1893L13.9697 10.0303C13.829 9.88968 13.75 9.69891 13.75 9.5C13.75 9.30109 13.829 9.11032 13.9697 8.96967L17.1893 5.75H5.75V13.25Z" fill="black"/>
</svg>
