<svg width="24" height="24" viewBox="0 0 24 24" fill="none" xmlns="http://www.w3.org/2000/svg">
<path fill-rule="evenodd" clip-rule="evenodd" d="M5.64124 3.64124C6.53204 2.75044 7.74022 2.25 9 2.25C10.2598 2.25 11.468 2.75044 12.3588 3.64124C13.2496 4.53204 13.75 5.74022 13.75 7C13.75 8.25978 13.2496 9.46796 12.3588 10.3588C11.468 11.2496 10.2598 11.75 9 11.75C7.74022 11.75 6.53204 11.2496 5.64124 10.3588C4.75044 9.46796 4.25 8.25978 4.25 7C4.25 5.74022 4.75044 4.53204 5.64124 3.64124ZM9 3.75C8.13805 3.75 7.3114 4.09241 6.7019 4.7019C6.09241 5.3114 5.75 6.13805 5.75 7C5.75 7.86195 6.09241 8.6886 6.7019 9.2981C7.3114 9.90759 8.13805 10.25 9 10.25C9.86195 10.25 10.6886 9.90759 11.2981 9.2981C11.9076 8.6886 12.25 7.86195 12.25 7C12.25 6.13805 11.9076 5.3114 11.2981 4.7019C10.6886 4.09241 9.86195 3.75 9 3.75Z" fill="black"/>
<path fill-rule="evenodd" clip-rule="evenodd" d="M7 15.75C6.13805 15.75 5.3114 16.0924 4.7019 16.7019C4.09241 17.3114 3.75 18.138 3.75 19V21C3.75 21.4142 3.41421 21.75 3 21.75C2.58579 21.75 2.25 21.4142 2.25 21V19C2.25 17.7402 2.75044 16.532 3.64124 15.6412C4.53204 14.7504 5.74022 14.25 7 14.25H11C12.2598 14.25 13.468 14.7504 14.3588 15.6412C15.2496 16.532 15.75 17.7402 15.75 19V21C15.75 21.4142 15.4142 21.75 15 21.75C14.5858 21.75 14.25 21.4142 14.25 21V19C14.25 18.138 13.9076 17.3114 13.2981 16.7019C12.6886 16.0924 11.862 15.75 11 15.75H7Z" fill="black"/>
<path fill-rule="evenodd" clip-rule="evenodd" d="M15.2736 2.94501C15.3764 2.54374 15.7849 2.30174 16.1862 2.40448C17.208 2.66609 18.1136 3.26031 18.7603 4.09347C19.407 4.92663 19.758 5.95134 19.758 7.00604C19.758 8.06074 19.407 9.08545 18.7603 9.91861C18.1136 10.7518 17.208 11.346 16.1862 11.6076C15.7849 11.7103 15.3764 11.4683 15.2736 11.0671C15.1709 10.6658 15.4129 10.2572 15.8142 10.1545C16.5132 9.97548 17.1329 9.56891 17.5754 8.99885C18.0178 8.42879 18.258 7.72768 18.258 7.00604C18.258 6.2844 18.0178 5.58329 17.5754 5.01323C17.1329 4.44317 16.5132 4.0366 15.8142 3.8576C15.4129 3.75486 15.1709 3.34628 15.2736 2.94501Z" fill="black"/>
<path fill-rule="evenodd" clip-rule="evenodd" d="M17.274 14.9631C17.3775 14.562 17.7866 14.3208 18.1877 14.4244C19.2028 14.6865 20.1027 15.277 20.747 16.104C21.3914 16.931 21.7441 17.9479 21.7502 18.9963L21.7502 19.0006H21.7502V21.0006C21.7502 21.4148 21.4144 21.7506 21.0002 21.7506C20.586 21.7506 20.2502 21.4148 20.2502 21.0006V19.0028C20.2456 18.2863 20.0043 17.5912 19.5638 17.026C19.1229 16.4601 18.5072 16.0561 17.8127 15.8768C17.4116 15.7732 17.1704 15.3641 17.274 14.9631Z" fill="black"/>
</svg>
