<svg width="24" height="24" viewBox="0 0 24 24" fill="none" xmlns="http://www.w3.org/2000/svg">
<path fill-rule="evenodd" clip-rule="evenodd" d="M3.25 5C3.25 4.58579 3.58579 4.25 4 4.25H6C6.41421 4.25 6.75 4.58579 6.75 5C6.75 5.41421 6.41421 5.75 6 5.75H4C3.58579 5.75 3.25 5.41421 3.25 5Z" fill="black"/>
<path fill-rule="evenodd" clip-rule="evenodd" d="M5 3.25C5.41421 3.25 5.75 3.58579 5.75 4V6C5.75 6.41421 5.41421 6.75 5 6.75C4.58579 6.75 4.25 6.41421 4.25 6V4C4.25 3.58579 4.58579 3.25 5 3.25Z" fill="black"/>
<path fill-rule="evenodd" clip-rule="evenodd" d="M11.6821 3.27257C12.0839 3.37303 12.3282 3.78023 12.2278 4.18208L11.7278 6.18208C11.6273 6.58393 11.2201 6.82825 10.8183 6.72778C10.4164 6.62732 10.1721 6.22012 10.2726 5.81828L10.7726 3.81828C10.873 3.41643 11.2802 3.17211 11.6821 3.27257Z" fill="black"/>
<path fill-rule="evenodd" clip-rule="evenodd" d="M17.25 5C17.25 4.58579 17.5858 4.25 18 4.25H20C20.4142 4.25 20.75 4.58579 20.75 5C20.75 5.41421 20.4142 5.75 20 5.75H18C17.5858 5.75 17.25 5.41421 17.25 5Z" fill="black"/>
<path fill-rule="evenodd" clip-rule="evenodd" d="M19 3.25C19.4142 3.25 19.75 3.58579 19.75 4V6C19.75 6.41421 19.4142 6.75 19 6.75C18.5858 6.75 18.25 6.41421 18.25 6V4C18.25 3.58579 18.5858 3.25 19 3.25Z" fill="black"/>
<path fill-rule="evenodd" clip-rule="evenodd" d="M15.5303 8.46967C15.8232 8.76256 15.8232 9.23744 15.5303 9.53033L14.5303 10.5303C14.2374 10.8232 13.7626 10.8232 13.4697 10.5303C13.1768 10.2374 13.1768 9.76256 13.4697 9.46967L14.4697 8.46967C14.7626 8.17678 15.2374 8.17678 15.5303 8.46967Z" fill="black"/>
<path fill-rule="evenodd" clip-rule="evenodd" d="M20.7278 12.3183C20.8282 12.7201 20.5839 13.1273 20.1821 13.2278L18.1821 13.7278C17.7802 13.8282 17.373 13.5839 17.2726 13.1821C17.1721 12.7802 17.4164 12.373 17.8183 12.2726L19.8183 11.7726C20.2201 11.6721 20.6273 11.9164 20.7278 12.3183Z" fill="black"/>
<path fill-rule="evenodd" clip-rule="evenodd" d="M17.25 19C17.25 18.5858 17.5858 18.25 18 18.25H20C20.4142 18.25 20.75 18.5858 20.75 19C20.75 19.4142 20.4142 19.75 20 19.75H18C17.5858 19.75 17.25 19.4142 17.25 19Z" fill="black"/>
<path fill-rule="evenodd" clip-rule="evenodd" d="M19 17.25C19.4142 17.25 19.75 17.5858 19.75 18V20C19.75 20.4142 19.4142 20.75 19 20.75C18.5858 20.75 18.25 20.4142 18.25 20V18C18.25 17.5858 18.5858 17.25 19 17.25Z" fill="black"/>
<path d="M14.0018 16.518L7.48376 10L3.09376 19.58C3.00699 19.766 2.97955 19.9742 3.01518 20.1763C3.0508 20.3785 3.14776 20.5647 3.29289 20.7099C3.43802 20.855 3.6243 20.952 3.82643 20.9876C4.02856 21.0232 4.23676 20.9958 4.42276 20.909L14.0018 16.518Z" fill="black"/>
<path fill-rule="evenodd" clip-rule="evenodd" d="M7.35107 9.26184C7.59277 9.21839 7.84044 9.29603 8.01409 9.46968L14.5321 15.9877C14.7057 16.1613 14.7834 16.409 14.7399 16.6507C14.6965 16.8923 14.5375 17.0975 14.3143 17.1998L4.7373 21.5899C4.41244 21.7408 4.04906 21.7884 3.69625 21.7262C3.34252 21.6639 3.01654 21.4942 2.76256 21.2402C2.50859 20.9862 2.33891 20.6603 2.27656 20.3065C2.21439 19.9538 2.26197 19.5904 2.41284 19.2656L6.80194 9.68757C6.90424 9.46431 7.10936 9.30529 7.35107 9.26184ZM7.7162 11.2931L3.77346 19.8971C3.75176 19.9436 3.74489 19.9956 3.7538 20.0462C3.7627 20.0967 3.78694 20.1433 3.82322 20.1795C3.85951 20.2158 3.90607 20.2401 3.95661 20.249C4.00714 20.2579 4.05919 20.251 4.10569 20.2293L4.11022 20.2272L12.7088 16.2857L7.7162 11.2931Z" fill="black"/>
</svg>
