<svg width="24" height="24" viewBox="0 0 24 24" fill="none" xmlns="http://www.w3.org/2000/svg">
<path fill-rule="evenodd" clip-rule="evenodd" d="M12 20.5C14.4853 20.5 16.5 18.4853 16.5 16C16.5 13.5147 14.4853 11.5 12 11.5C9.51472 11.5 7.5 13.5147 7.5 16C7.5 18.4853 9.51472 20.5 12 20.5ZM12 22C15.3137 22 18 19.3137 18 16C18 12.6863 15.3137 10 12 10C8.68629 10 6 12.6863 6 16C6 19.3137 8.68629 22 12 22Z" fill="black"/>
<path fill-rule="evenodd" clip-rule="evenodd" d="M8.50908 2.31528L6.80091 3.99957C6.60987 4.18794 6.74325 4.51319 7.01154 4.51319H16.9907C17.2589 4.51319 17.3923 4.18794 17.2013 3.99957L15.4931 2.31528C15.306 2.13078 15.0538 2.02734 14.791 2.02734H9.21119C8.94842 2.02734 8.6962 2.13078 8.50908 2.31528ZM16.9857 6.01269C17.1754 5.82394 17.0418 5.5 16.7741 5.5H7.22809C6.96043 5.5 6.82676 5.82394 7.01652 6.01269L11.2818 10.2555C11.675 10.6625 12.3272 10.6625 12.7204 10.2555L16.9857 6.01269Z" fill="black"/>
</svg>
