<?xml version="1.0" encoding="utf-8"?>
<!-- Generator: Adobe Illustrator 24.2.0, SVG Export Plug-In . SVG Version: 6.00 Build 0)  -->
<svg version="1.1" id="Layer_1" xmlns="http://www.w3.org/2000/svg" xmlns:xlink="http://www.w3.org/1999/xlink" x="0px" y="0px"
	 viewBox="0 0 24 24" style="enable-background:new 0 0 24 24;" xml:space="preserve">
<style type="text/css">
	.st0{fill-rule:evenodd;clip-rule:evenodd;}
</style>
<path class="st0" d="M19.4,11.6C19,11.2,18.5,11,18,11h-1.2V7c0-1.3-0.5-2.5-1.4-3.4c-0.9-0.9-2.1-1.4-3.4-1.4S9.5,2.7,8.6,3.6
	C7.8,4.5,7.2,5.7,7.2,7v4H6c-0.5,0-1,0.2-1.4,0.6C4.2,12,4,12.5,4,13v6c0,0.5,0.2,1,0.6,1.4C5,20.8,5.5,21,6,21h12
	c0.5,0,1-0.2,1.4-0.6C19.8,20,20,19.5,20,19v-6C20,12.5,19.8,12,19.4,11.6z M13.2,17.2c-0.3,0.3-0.8,0.5-1.2,0.5s-0.9-0.2-1.2-0.5
	c-0.3-0.3-0.5-0.8-0.5-1.2c0-0.5,0.2-0.9,0.5-1.2c0.3-0.3,0.8-0.5,1.2-0.5s0.9,0.2,1.2,0.5c0.3,0.3,0.5,0.8,0.5,1.2
	C13.8,16.5,13.6,16.9,13.2,17.2z M15.2,11H8.8V7c0-0.9,0.3-1.7,1-2.3c0.6-0.6,1.4-1,2.3-1s1.7,0.4,2.3,1c0.6,0.6,1,1.4,1,2.3V11z"/>
</svg>
