<svg width="71" height="32" viewBox="0 0 71 32" fill="none" xmlns="http://www.w3.org/2000/svg">
<path d="M15.9138 4.44738V13.5908C15.9138 15.1395 15.5575 16.4633 14.8448 17.5622C14.1002 18.6878 13.0278 19.5621 11.77 20.069C10.4328 20.6387 8.84317 20.9235 7.00106 20.9235C5.85302 20.9348 4.70807 20.8034 3.59297 20.5324C2.69365 20.3321 1.84008 19.9667 1.07634 19.455V15.7906C1.69485 16.2939 2.39967 16.6827 3.1571 16.9384C4.03257 17.2568 4.95816 17.4184 5.89067 17.4155C7.4869 17.4155 8.70314 17.0486 9.53939 16.3147C10.3756 15.5807 10.7931 14.4935 10.7918 13.0531V12.7382C10.3079 13.8072 9.65049 14.5894 8.8195 15.0847C7.91406 15.6043 6.88131 15.8656 5.83545 15.8395C4.7539 15.8656 3.68451 15.6086 2.73503 15.0945C1.87058 14.6134 1.16609 13.8932 0.707528 13.0218C0.225072 12.094 -0.0175412 11.062 0.0014533 10.0183C-0.0218351 8.90627 0.235088 7.80605 0.748946 6.81732C1.22457 5.91468 1.95335 5.1677 2.84745 4.66638C3.79944 4.14855 4.87213 3.88824 5.95773 3.9116C7.1411 3.9116 8.12723 4.1632 8.91615 4.66638C9.70506 5.16957 10.3342 5.94586 10.8036 6.99526V4.45325L15.9138 4.44738ZM9.50388 12.1145C9.90472 11.9255 10.2423 11.6261 10.4762 11.2521C10.7069 10.8752 10.8259 10.4415 10.8194 10.0007C10.8282 9.55358 10.7115 9.11283 10.4821 8.72773C10.2534 8.35669 9.92113 8.05923 9.52558 7.87127C9.07341 7.6597 8.57781 7.55526 8.07793 7.56623C7.57695 7.55506 7.08055 7.66301 6.63028 7.88105C6.23425 8.07562 5.90241 8.37816 5.67372 8.75315C5.44078 9.14219 5.32067 9.58742 5.3266 10.0398C5.31981 10.4732 5.43525 10.8999 5.65992 11.2717C5.88779 11.6411 6.21864 11.9372 6.61253 12.1243C7.0559 12.3349 7.54298 12.4394 8.03454 12.4293C8.54236 12.4392 9.0455 12.3314 9.50388 12.1145Z" fill="black"/>
<path d="M19.3337 4.24515C18.9395 4.09324 18.5935 3.83935 18.3318 3.50992C18.0916 3.20096 17.9637 2.8206 17.9689 2.43054C17.9651 2.05237 18.0925 1.68439 18.3298 1.38832C18.5948 1.06369 18.9409 0.81356 19.3337 0.662868C19.7928 0.478435 20.2841 0.386055 20.7794 0.391068C21.2646 0.383569 21.7466 0.47129 22.1975 0.64918C22.5874 0.796139 22.9287 1.04722 23.1836 1.37463C23.412 1.67609 23.534 2.04372 23.5307 2.42077C23.5364 2.8084 23.4146 3.18732 23.1836 3.50014C22.9331 3.82843 22.5969 4.08265 22.2113 4.23537C21.7602 4.41798 21.2764 4.50779 20.7893 4.49935C20.2919 4.51125 19.7971 4.42484 19.3337 4.24515V4.24515ZM18.1799 5.27955H23.3079V16.6032H18.1799V5.27955Z" fill="black"/>
<path d="M33.2006 5.26587H37.8059V8.79927H33.2834V16.6208H28.1654V8.79927H24.8125V5.26587H28.1082C28.0944 5.02145 28.0885 4.85328 28.0885 4.73792C28.0885 3.19576 28.6295 2.02253 29.7116 1.21821C30.7938 0.413891 32.3302 0.00782157 34.3208 0C35.8356 0 37.0735 0.256808 38.0346 0.770425V4.02811C37.3072 3.64547 36.4908 3.45998 35.6679 3.49038C34.027 3.49038 33.2006 4.07504 33.2006 5.26587Z" fill="black"/>
<path d="M39.9498 20.2888C40.7387 21.2326 41.1331 22.6013 41.1331 24.3951V31.5675H36.0052V25.5605C36.0052 24.7418 35.8533 24.1109 35.5496 23.6677C35.3972 23.4479 35.1899 23.271 34.9479 23.1545C34.7059 23.038 34.4375 22.9857 34.169 23.0028C33.8868 22.9867 33.6051 23.0408 33.3494 23.1604C33.0938 23.2799 32.8725 23.4611 32.7056 23.6872C32.3716 24.1435 32.2046 24.7673 32.2046 25.5585V31.5655H27.0964V25.3786C27.0964 24.6343 26.9465 24.0529 26.6467 23.6344C26.4933 23.4251 26.289 23.2576 26.0528 23.1475C25.8166 23.0374 25.5562 22.9883 25.2957 23.0048C25.0047 22.9923 24.7154 23.0549 24.4561 23.1865C24.1968 23.3181 23.9764 23.5142 23.8165 23.7557C23.472 24.2562 23.2998 24.9361 23.2998 25.7951L23.2801 25.7756V31.5694H18.1719V19.4127H23.2387V22.2637C23.5937 21.1009 24.136 20.2451 24.8658 19.6963C25.5955 19.1475 26.5337 18.8737 27.6802 18.875C28.7992 18.875 29.7196 19.1592 30.4414 19.7276C31.1633 20.2959 31.6695 21.1178 31.9601 22.1933C32.3151 21.0631 32.866 20.2281 33.6128 19.6884C34.3597 19.1488 35.3175 18.8776 36.4864 18.875C38.0038 18.875 39.1582 19.3463 39.9498 20.2888Z" fill="black"/>
<path d="M53.1763 19.6454C54.2247 20.1072 55.0963 20.8898 55.6633 21.8785C56.2261 22.8627 56.5075 24.0613 56.5075 25.4744V31.5831H51.5334V30.0813C50.6459 31.3602 49.237 31.9996 47.3068 31.9996C46.4734 32.0187 45.6473 31.8411 44.8967 31.4814C44.2523 31.1715 43.7134 30.6814 43.3465 30.0716C42.9875 29.4572 42.8034 28.7577 42.814 28.0477C42.7931 27.3157 42.9942 26.5942 43.3911 25.9765C43.788 25.3589 44.3626 24.8734 45.0407 24.5828C46.5748 23.9567 48.2882 23.9156 49.851 24.4674C50.496 24.7349 51.0639 25.1568 51.5038 25.6954C51.4953 25.269 51.3833 24.8509 51.1773 24.4765C50.9713 24.1021 50.6774 23.7824 50.3204 23.5445C49.5947 23.0543 48.6512 22.8092 47.4902 22.8092C45.9925 22.8058 44.5431 23.3351 43.4057 24.3012V20.5038C44.9953 19.4284 46.9163 18.8906 49.1686 18.8906C50.7451 18.8906 52.081 19.1422 53.1763 19.6454ZM50.9299 28.7439C51.1126 28.6449 51.265 28.4989 51.3712 28.3214C51.4774 28.1439 51.5334 27.9413 51.5334 27.7349C51.5321 27.5343 51.4765 27.3378 51.3724 27.1658C51.2683 26.9938 51.1196 26.8527 50.9417 26.7572C50.4707 26.491 49.9331 26.3628 49.3915 26.3876C48.9019 26.3636 48.4175 26.4973 48.0109 26.7689C47.8517 26.8822 47.722 27.0315 47.6325 27.2044C47.543 27.3774 47.4964 27.5689 47.4964 27.7632C47.4964 27.9576 47.543 28.1491 47.6325 28.322C47.722 28.4949 47.8517 28.6442 48.0109 28.7575C48.4191 29.0247 48.9032 29.1543 49.3915 29.1271C49.9305 29.1462 50.464 29.0133 50.9299 28.7439V28.7439Z" fill="black"/>
<path d="M58.6562 16.6035H63.7625V31.5681H58.6562V16.6035Z" fill="black"/>
<path d="M65.8906 16.6035H70.9988V31.5681H65.8906V16.6035Z" fill="black"/>
<path d="M50.744 8.79881V5.27911H47.0638L47.0953 0.390625L41.926 1.6499C41.926 1.6499 41.9161 3.30025 41.9023 5.27324H38.4844V8.79881H41.8806C41.8708 10.4902 41.8609 11.8238 41.8609 11.8649C41.8609 13.407 42.3441 14.5803 43.3105 15.3846C44.277 16.1889 45.649 16.593 47.4267 16.5969C48.7797 16.5969 49.8855 16.3401 50.744 15.8265V12.5727C50.1082 12.9514 49.3749 13.1382 48.6337 13.1105C47.1584 13.1105 47.0283 11.9959 47.0283 10.805L47.0401 8.79881H50.744Z" fill="black"/>
</svg>
