<svg width="24" height="24" viewBox="0 0 24 24" fill="none" xmlns="http://www.w3.org/2000/svg">
<path fill-rule="evenodd" clip-rule="evenodd" d="M9.25 6C9.25 5.58579 9.58579 5.25 10 5.25H14C14.0108 5.25 14.0216 5.25023 14.0324 5.2507C14.7802 5.28299 15.5012 5.53833 16.1027 5.98387C16.7042 6.4294 17.1585 7.04475 17.4074 7.7507C17.545 8.14136 17.34 8.56967 16.9493 8.70735C16.5586 8.84504 16.1303 8.63996 15.9926 8.2493C15.8434 7.82573 15.5707 7.45653 15.2099 7.1892C14.853 6.92486 14.426 6.77211 13.9827 6.75H10C9.58579 6.75 9.25 6.41421 9.25 6ZM7.83525 6.79175C8.1883 7.00838 8.29888 7.4702 8.08225 7.82325C7.87302 8.16424 7.75848 8.55485 7.75045 8.95483C7.74242 9.35482 7.84118 9.74971 8.03656 10.0988C8.23194 10.4479 8.51687 10.7386 8.86199 10.941C9.20711 11.1433 9.59994 11.25 10 11.25H12C12.4142 11.25 12.75 11.5858 12.75 12C12.75 12.4142 12.4142 12.75 12 12.75H10C9.33323 12.75 8.67851 12.5722 8.10331 12.235C7.52811 11.8977 7.05323 11.4132 6.7276 10.8314C6.40197 10.2495 6.23737 9.59136 6.25076 8.92472C6.26414 8.25808 6.45503 7.60706 6.80375 7.03875C7.02039 6.6857 7.4822 6.57512 7.83525 6.79175ZM7.0507 15.2926C7.44136 15.155 7.86967 15.36 8.00736 15.7507C8.15664 16.1743 8.42927 16.5435 8.79015 16.8108C9.14701 17.0751 9.57402 17.2279 10.0173 17.25H14C14.3864 17.25 14.7664 17.1506 15.1032 16.9611C15.44 16.7717 15.7224 16.4987 15.9231 16.1685C16.1382 15.8145 16.5995 15.702 16.9535 15.9171C17.3075 16.1322 17.42 16.5935 17.2049 16.9475C16.8705 17.4979 16.3999 17.9528 15.8385 18.2685C15.2772 18.5842 14.644 18.75 14 18.75C14 18.75 14 18.75 14 18.75H10C9.98921 18.75 9.97843 18.7498 9.96765 18.7493C9.21983 18.717 8.49879 18.4617 7.89731 18.0161C7.29584 17.5706 6.84146 16.9553 6.59265 16.2493C6.45496 15.8586 6.66004 15.4303 7.0507 15.2926Z" fill="black"/>
<path fill-rule="evenodd" clip-rule="evenodd" d="M12 2.25C12.4142 2.25 12.75 2.58579 12.75 3V6C12.75 6.41421 12.4142 6.75 12 6.75C11.5858 6.75 11.25 6.41421 11.25 6V3C11.25 2.58579 11.5858 2.25 12 2.25ZM12 17.25C12.4142 17.25 12.75 17.5858 12.75 18V21C12.75 21.4142 12.4142 21.75 12 21.75C11.5858 21.75 11.25 21.4142 11.25 21V18C11.25 17.5858 11.5858 17.25 12 17.25Z" fill="black"/>
<path fill-rule="evenodd" clip-rule="evenodd" d="M2.46967 2.46967C2.76256 2.17678 3.23744 2.17678 3.53033 2.46967L21.5303 20.4697C21.8232 20.7626 21.8232 21.2374 21.5303 21.5303C21.2374 21.8232 20.7626 21.8232 20.4697 21.5303L2.46967 3.53033C2.17678 3.23744 2.17678 2.76256 2.46967 2.46967Z" fill="black"/>
</svg>
