<svg width="24" height="24" viewBox="0 0 24 24" fill="none" xmlns="http://www.w3.org/2000/svg">
<path fill-rule="evenodd" clip-rule="evenodd" d="M7.63404 13.8124C7.00361 13.687 6.35014 13.7514 5.75628 13.9974C5.16242 14.2434 4.65484 14.6599 4.29772 15.1944C3.94061 15.7289 3.75 16.3572 3.75 17V20.25H7C7.64279 20.25 8.27114 20.0594 8.8056 19.7023C9.34006 19.3452 9.75662 18.8376 10.0026 18.2437C10.2486 17.6499 10.313 16.9964 10.1876 16.366C10.0622 15.7355 9.75262 15.1564 9.2981 14.7019C8.84358 14.2474 8.26448 13.9379 7.63404 13.8124ZM5.18225 12.6116C6.0502 12.2521 7.00527 12.158 7.92668 12.3413C8.84809 12.5246 9.69446 12.9769 10.3588 13.6412C11.0231 14.3055 11.4755 15.1519 11.6587 16.0733C11.842 16.9947 11.7479 17.9498 11.3884 18.8177C11.0289 19.6857 10.4201 20.4275 9.63896 20.9495C8.85782 21.4714 7.93946 21.75 7 21.75H3C2.58579 21.75 2.25 21.4142 2.25 21V17C2.25 16.0605 2.52858 15.1422 3.05052 14.361C3.57246 13.5799 4.3143 12.9711 5.18225 12.6116Z" fill="black"/>
<path fill-rule="evenodd" clip-rule="evenodd" d="M21.7425 2.89845C21.7986 3.30884 21.5115 3.68704 21.1011 3.74317C18.3807 4.11527 15.8112 5.21493 13.6639 6.92608C11.5166 8.63722 9.87106 10.8964 8.90106 13.465C8.75473 13.8526 8.32197 14.0481 7.93447 13.9017C7.54696 13.7554 7.35145 13.3226 7.49778 12.9351C8.56319 10.1138 10.3705 7.63244 12.7291 5.75299C15.0876 3.87353 17.9098 2.66571 20.8978 2.25701C21.3082 2.20087 21.6864 2.48806 21.7425 2.89845Z" fill="black"/>
<path fill-rule="evenodd" clip-rule="evenodd" d="M21.1026 2.25701C21.513 2.31314 21.8002 2.69134 21.7441 3.10173C21.3354 6.0897 20.1275 8.91191 18.2481 11.2704C16.3686 13.629 13.8873 15.4363 11.0659 16.5017C10.6784 16.6481 10.2457 16.4526 10.0993 16.065C9.95301 15.6775 10.1485 15.2448 10.536 15.0984C13.1047 14.1285 15.3639 12.483 17.075 10.3356C18.7861 8.18831 19.8858 5.61884 20.2579 2.89845C20.314 2.48806 20.6922 2.20087 21.1026 2.25701Z" fill="black"/>
<path fill-rule="evenodd" clip-rule="evenodd" d="M9.91687 8.68588C10.0905 8.30979 10.536 8.14563 10.9121 8.31921C13.0172 9.29082 14.7072 10.9808 15.6788 13.0859C15.8524 13.462 15.6882 13.9076 15.3121 14.0811C14.936 14.2547 14.4905 14.0906 14.3169 13.7145C13.4947 11.9332 12.0648 10.5033 10.2835 9.68115C9.90745 9.50756 9.74329 9.06197 9.91687 8.68588Z" fill="black"/>
</svg>
