<svg width="24" height="24" viewBox="0 0 24 24" fill="none" xmlns="http://www.w3.org/2000/svg">
<path d="M13.7287 6.12411L13.5953 6.0485C12.2955 5.31196 10.7045 5.31196 9.4047 6.0485L5.89072 8.03975C5.77193 8.10707 5.66079 8.18426 5.55809 8.26998L7.75 9.51207L13.7287 6.12411Z" fill="black"/>
<path d="M17.1093 8.03975L15.25 6.98616L9.27126 10.3741L9.4047 10.4497C10.7045 11.1863 12.2955 11.1863 13.5953 10.4497L17.4419 8.26998C17.3392 8.18426 17.2281 8.10707 17.1093 8.03975Z" fill="black"/>
<path d="M12.25 19.5639C12.5446 19.494 12.8317 19.3824 13.1023 19.2291L17.1093 16.9585C17.8143 16.559 18.25 15.8112 18.25 15.0009V9.9973C18.25 9.84899 18.2354 9.70277 18.2072 9.5604L14.3348 11.7548C13.6772 12.1274 12.9644 12.3607 12.2377 12.4547C12.2458 12.4987 12.25 12.5441 12.25 12.5904V19.5639Z" fill="black"/>
<path d="M7.39099 11.0327C7.38334 11.0286 7.37577 11.0243 7.36826 11.0198L6.31321 10.422L4.79277 9.5604C4.7646 9.70277 4.75 9.84899 4.75 9.9973V15.0009C4.75 15.8112 5.18572 16.559 5.89072 16.9585L9.89771 19.2291C10.1683 19.3824 10.4554 19.494 10.75 19.5639V12.5904C10.75 12.5441 10.7542 12.4987 10.7623 12.4547C10.0356 12.3607 9.32283 12.1274 8.66518 11.7548L7.75 11.2362L7.39099 11.0327Z" fill="black"/>
<path fill-rule="evenodd" clip-rule="evenodd" d="M14.3348 4.74347C12.5763 3.74697 10.4237 3.74697 8.66518 4.74347L5.1512 6.73472C4.79013 6.93933 4.47144 7.19874 4.20318 7.49915L5.55809 8.26998C5.66079 8.18426 5.77193 8.10707 5.89072 8.03975L9.4047 6.0485C10.7045 5.31196 12.2955 5.31196 13.5953 6.0485L13.7287 6.12411L15.3306 5.30772L14.3348 4.74347ZM16.7403 6.10655L15.25 6.98616L17.1093 8.03975C17.2281 8.10707 17.3392 8.18426 17.4419 8.26998L18.731 7.4273C18.4769 7.15727 18.1808 6.92283 17.8488 6.73472L16.7403 6.10655ZM3.25 9.9973C3.25 9.58759 3.31683 9.18748 3.44276 8.81026L4.79277 9.5604C4.7646 9.70277 4.75 9.84899 4.75 9.9973V15.0009C4.75 15.8112 5.18572 16.559 5.89072 16.9585L9.89771 19.2291C10.1683 19.3824 10.4554 19.494 10.75 19.5639V21.092C10.1985 21.0039 9.659 20.8179 9.15819 20.5341L5.1512 18.2635C3.97621 17.5977 3.25 16.3515 3.25 15.0009V9.9973ZM19.5 8.65087L18.2072 9.5604C18.2354 9.70277 18.25 9.84899 18.25 9.9973V15.0009C18.25 15.8112 17.8143 16.559 17.1093 16.9585L13.1023 19.2291C12.8317 19.3824 12.5446 19.494 12.25 19.5639L12.2377 21.0939C12.7935 21.0066 13.3373 20.82 13.8418 20.5341L17.8488 18.2635C19.0238 17.5977 19.75 16.3515 19.75 15.0009V9.9973C19.75 9.52937 19.6628 9.07396 19.5 8.65087Z" fill="black"/>
</svg>
