<?xml version="1.0" encoding="utf-8"?>
<!-- Generator: Adobe Illustrator 24.2.0, SVG Export Plug-In . SVG Version: 6.00 Build 0)  -->
<svg version="1.1" id="Layer_1" xmlns="http://www.w3.org/2000/svg" xmlns:xlink="http://www.w3.org/1999/xlink" x="0px" y="0px"
	 viewBox="0 0 24 24" style="enable-background:new 0 0 24 24;" xml:space="preserve">
<style type="text/css">
	.st0{fill-rule:evenodd;clip-rule:evenodd;}
</style>
<path class="st0" d="M18.3,6.2l-2.2-1.3c0,0,0,0,0,0l-1.3-0.7c-1.8-1-3.9-1-5.7,0l-3.5,2C4.5,6.8,3.8,8.1,3.8,9.4v5
	c0,1.4,0.7,2.6,1.9,3.3l4,2.3c1.5,0.8,3.2,0.8,4.7,0l4-2.3c1.2-0.7,1.9-1.9,1.9-3.3v-5C20.2,8.1,19.5,6.8,18.3,6.2z M6.4,7.5l3.5-2
	c1.3-0.7,2.9-0.7,4.2,0l0.1,0.1l-6,3.4L6.1,7.7C6.2,7.6,6.3,7.5,6.4,7.5z M11.2,12v7c-0.3-0.1-0.6-0.2-0.8-0.3l-4-2.3
	c-0.7-0.4-1.1-1.2-1.1-2v-5c0-0.1,0-0.3,0-0.4l2.6,1.5c0,0,0,0,0,0l1.3,0.7c0.7,0.4,1.4,0.6,2.1,0.7C11.2,11.9,11.2,12,11.2,12z
	 M9.9,9.9L9.8,9.8l6-3.4l1.9,1.1c0.1,0.1,0.2,0.1,0.3,0.2l-3.8,2.2C12.8,10.6,11.2,10.6,9.9,9.9z M18.8,14.4c0,0.8-0.4,1.6-1.1,2
	l-4,2.3c-0.3,0.2-0.6,0.3-0.8,0.3v-7c0,0,0-0.1,0-0.1c0.7-0.1,1.4-0.3,2.1-0.7L18.7,9c0,0.2,0,0.3,0,0.4V14.4z"/>
</svg>
