<svg width="24" height="24" viewBox="0 0 24 24" fill="none" xmlns="http://www.w3.org/2000/svg">
<path fill-rule="evenodd" clip-rule="evenodd" d="M7.57304 5.51615C7.84027 5.83262 7.80035 6.30582 7.48387 6.57305C6.38771 7.49865 5.60242 8.73872 5.23432 10.1254C4.86622 11.512 4.93309 12.9783 5.42587 14.3257C5.91866 15.6731 6.81355 16.8366 7.98942 17.6586C9.16528 18.4805 10.5653 18.9214 12 18.9214C13.4347 18.9214 14.8347 18.4805 16.0106 17.6586C17.1865 16.8366 18.0813 15.6731 18.5741 14.3257C19.0669 12.9783 19.1338 11.512 18.7657 10.1254C18.3976 8.73872 17.6123 7.49865 16.5161 6.57305C16.1997 6.30582 16.1597 5.83262 16.427 5.51615C16.6942 5.19967 17.1674 5.15975 17.4839 5.42698C18.8149 6.55093 19.7685 8.05673 20.2155 9.74053C20.6624 11.4243 20.5812 13.2048 19.9829 14.8409C19.3845 16.4771 18.2978 17.8898 16.87 18.8879C15.4422 19.8861 13.7421 20.4214 12 20.4214C10.2579 20.4214 8.55784 19.8861 7.13 18.8879C5.70217 17.8898 4.61551 16.4771 4.01713 14.8409C3.41876 13.2048 3.33756 11.4243 3.78453 9.74053C4.23151 8.05673 5.18507 6.55093 6.51613 5.42698C6.83261 5.15975 7.3058 5.19967 7.57304 5.51615Z" fill="black"/>
<path fill-rule="evenodd" clip-rule="evenodd" d="M12 3.25C12.4142 3.25 12.75 3.58579 12.75 4V12C12.75 12.4142 12.4142 12.75 12 12.75C11.5858 12.75 11.25 12.4142 11.25 12V4C11.25 3.58579 11.5858 3.25 12 3.25Z" fill="black"/>
</svg>
