<svg width="24" height="24" viewBox="0 0 24 24" fill="none" xmlns="http://www.w3.org/2000/svg">
<path d="M2.21979 2.96973C2.49436 2.69515 2.92911 2.67773 3.22369 2.91797L3.28033 2.96973L21.2803 20.9697L21.3321 21.0264C21.5724 21.321 21.5549 21.7557 21.2803 22.0303C21.0057 22.3048 20.571 22.3223 20.2764 22.082L20.2198 22.0303L17.8204 19.6309V19.75C17.8204 20.2141 17.6359 20.6591 17.3077 20.9873C16.9795 21.3155 16.5345 21.5 16.0704 21.5H13.0704C12.6063 21.5 12.1612 21.3155 11.8331 20.9873C11.5049 20.6591 11.3204 20.2141 11.3204 19.75V18.75C11.3204 18.4185 11.1886 18.1006 10.9542 17.8662C10.7197 17.6319 10.4019 17.5 10.0704 17.5C9.73891 17.5 9.42097 17.6318 9.18658 17.8662C8.95221 18.1006 8.82038 18.4185 8.82037 18.75V19.75C8.82037 20.2141 8.63587 20.6591 8.30768 20.9873C7.97949 21.3155 7.53447 21.5 7.07037 21.5H4.07037C3.60629 21.5 3.16123 21.3155 2.83307 20.9873C2.50493 20.6591 2.32037 20.2141 2.32037 19.75V16.75C2.32038 16.2859 2.50492 15.8409 2.83307 15.5127C3.16123 15.1845 3.60629 15 4.07037 15H5.07037C5.40186 15 5.71975 14.8682 5.95416 14.6338C6.15917 14.4288 6.28601 14.16 6.31451 13.874L6.32037 13.75C6.32037 13.4185 6.18858 13.1006 5.95416 12.8662C5.71975 12.6318 5.40186 12.5 5.07037 12.5H4.07037C3.60629 12.5 3.16122 12.3155 2.83307 11.9873C2.54592 11.7001 2.36892 11.3235 2.32916 10.9229L2.32037 10.75V7.75C2.32037 7.28591 2.50492 6.84088 2.83307 6.5127C3.16122 6.18454 3.60629 6.00004 4.07037 6H4.18951L2.21979 4.03027L2.16803 3.97363C1.92779 3.67908 1.94526 3.24431 2.21979 2.96973ZM10.3419 2.01367C10.9715 2.07612 11.5634 2.35438 12.0147 2.80566C12.5304 3.32139 12.8204 4.02066 12.8204 4.75V5.75C12.8204 5.81627 12.8468 5.87988 12.8936 5.92676C12.9405 5.97361 13.0041 5.99996 13.0704 6H16.0704C16.5345 6 16.9795 6.18456 17.3077 6.5127C17.6359 6.84089 17.8204 7.28588 17.8204 7.75V10.75C17.8204 10.8163 17.8468 10.8799 17.8936 10.9268C17.9405 10.9736 18.0041 11 18.0704 11H19.0704C19.7997 11 20.499 11.29 21.0147 11.8057C21.5304 12.3214 21.8204 13.0207 21.8204 13.75C21.8204 14.4794 21.5304 15.1786 21.0147 15.6943C20.499 16.21 19.7997 16.5 19.0704 16.5H18.9415L7.32037 4.87891V4.75C7.32037 4.02069 7.61036 3.32138 8.12604 2.80566C8.64173 2.28997 9.34108 2.00004 10.0704 2L10.3419 2.01367Z" fill="black"/>
</svg>
