<svg width="24" height="24" viewBox="0 0 24 24" fill="none" xmlns="http://www.w3.org/2000/svg">
<path fill-rule="evenodd" clip-rule="evenodd" d="M7.41689 3.76381C8.23584 3.42459 9.11358 3.25 10 3.25C10.8864 3.25 11.7642 3.42459 12.5831 3.76381C13.4021 4.10303 14.1462 4.60023 14.773 5.22703C15.3998 5.85382 15.897 6.59794 16.2362 7.41689C16.5754 8.23584 16.75 9.11358 16.75 10C16.75 10.8864 16.5754 11.7642 16.2362 12.5831C15.9931 13.1701 15.6688 13.7186 15.2737 14.2131L20.5303 19.4697C20.8232 19.7626 20.8232 20.2374 20.5303 20.5303C20.2374 20.8232 19.7626 20.8232 19.4697 20.5303L14.2131 15.2737C13.7186 15.6688 13.1701 15.9931 12.5831 16.2362C11.7642 16.5754 10.8864 16.75 10 16.75C9.11358 16.75 8.23584 16.5754 7.41689 16.2362C6.59794 15.897 5.85382 15.3998 5.22703 14.773C4.60023 14.1462 4.10303 13.4021 3.76381 12.5831C3.42459 11.7642 3.25 10.8864 3.25 10C3.25 9.11358 3.42459 8.23583 3.76381 7.41689C4.10303 6.59794 4.60023 5.85382 5.22703 5.22703C5.85382 4.60023 6.59794 4.10303 7.41689 3.76381ZM10 4.75C9.31056 4.75 8.62787 4.88579 7.99091 5.14963C7.35395 5.41347 6.7752 5.80018 6.28769 6.28769C5.80018 6.7752 5.41347 7.35395 5.14963 7.99091C4.8858 8.62787 4.75 9.31056 4.75 10C4.75 10.6894 4.8858 11.3721 5.14963 12.0091C5.41347 12.646 5.80018 13.2248 6.28769 13.7123C6.7752 14.1998 7.35395 14.5865 7.99091 14.8504C8.62787 15.1142 9.31056 15.25 10 15.25C10.6894 15.25 11.3721 15.1142 12.0091 14.8504C12.646 14.5865 13.2248 14.1998 13.7123 13.7123C14.1998 13.2248 14.5865 12.646 14.8504 12.0091C15.1142 11.3721 15.25 10.6894 15.25 10C15.25 9.31056 15.1142 8.62787 14.8504 7.99091C14.5865 7.35395 14.1998 6.7752 13.7123 6.28769C13.2248 5.80018 12.646 5.41347 12.0091 5.14963C11.3721 4.88579 10.6894 4.75 10 4.75Z" fill="black"/>
</svg>
