<svg width="24" height="24" viewBox="0 0 24 24" fill="none" xmlns="http://www.w3.org/2000/svg">
<path fill-rule="evenodd" clip-rule="evenodd" d="M11.3757 3.00003C11.5802 2.99881 11.7831 3.03959 11.9727 3.12032C12.1623 3.20106 12.3352 3.32032 12.4807 3.47179C12.6252 3.62214 12.7398 3.80122 12.8173 3.99901L17.5247 15.6748C17.6881 16.0725 17.6934 16.521 17.539 16.9228C17.3845 17.3252 17.0839 17.6448 16.7064 17.8172L16.7019 17.8193L9.87544 20.8707L9.87263 20.872C9.68383 20.9552 9.48118 20.9986 9.27653 21C9.07188 21.0013 8.86873 20.9606 8.67895 20.8798C8.48915 20.7991 8.31613 20.6797 8.17047 20.5281C8.02594 20.3777 7.91125 20.1985 7.83377 20.0005L3.12643 8.32387C2.96301 7.9262 2.95778 7.47766 3.11212 7.07585C3.26713 6.67232 3.56837 6.3543 3.94474 6.1824L3.94928 6.18033L10.78 3.12743C10.9687 3.04443 11.1712 3.00124 11.3757 3.00003Z" fill="black"/>
<path fill-rule="evenodd" clip-rule="evenodd" d="M13.9874 3.29602C14.1036 3.11122 14.3005 3 14.5116 3H16.186C16.5972 3 16.9763 3.19096 17.2447 3.50375C17.5112 3.81424 17.6511 4.22183 17.6511 4.63415V9.80488C17.6511 10.1175 17.4415 10.3871 17.1495 10.45C16.8575 10.5128 16.5635 10.3517 16.4461 10.0643L13.9345 3.91795C13.8513 3.71448 13.8712 3.48082 13.9874 3.29602Z" fill="black"/>
<path fill-rule="evenodd" clip-rule="evenodd" d="M19.1282 4.822C19.3259 4.72154 19.5593 4.73674 19.7436 4.86208C19.9244 4.98503 20.099 5.09982 20.2675 5.20653C20.2732 5.21017 20.2789 5.2139 20.2846 5.21773C20.6261 5.45003 20.8315 5.83628 20.9278 6.21795C21.0262 6.60803 21.0241 7.03769 20.9212 7.42635L20.9209 7.4277L19.3024 13.4945C19.2148 13.8227 18.9029 14.0266 18.5834 13.9646C18.2639 13.9026 18.0423 13.5951 18.0725 13.2558L18.7768 5.35335C18.7973 5.12396 18.9305 4.92245 19.1282 4.822Z" fill="black"/>
</svg>
