<svg width="24" height="24" viewBox="0 0 24 24" fill="none" xmlns="http://www.w3.org/2000/svg">
<path fill-rule="evenodd" clip-rule="evenodd" d="M4.05546 4.05546C4.57118 3.53973 5.27065 3.25 6 3.25C6.72935 3.25 7.42882 3.53973 7.94454 4.05546C8.46027 4.57118 8.75 5.27065 8.75 6C8.75 6.72935 8.46027 7.42882 7.94454 7.94454C7.42882 8.46027 6.72935 8.75 6 8.75C5.27065 8.75 4.57118 8.46027 4.05546 7.94454C3.53973 7.42882 3.25 6.72935 3.25 6C3.25 5.27065 3.53973 4.57118 4.05546 4.05546ZM6 4.75C5.66848 4.75 5.35054 4.8817 5.11612 5.11612C4.8817 5.35054 4.75 5.66848 4.75 6C4.75 6.33152 4.8817 6.64946 5.11612 6.88388C5.35054 7.1183 5.66848 7.25 6 7.25C6.33152 7.25 6.64946 7.1183 6.88388 6.88388C7.1183 6.64946 7.25 6.33152 7.25 6C7.25 5.66848 7.1183 5.35054 6.88388 5.11612C6.64946 4.8817 6.33152 4.75 6 4.75Z" fill="black"/>
<path fill-rule="evenodd" clip-rule="evenodd" d="M16.0555 16.0555C16.5712 15.5397 17.2707 15.25 18 15.25C18.7293 15.25 19.4288 15.5397 19.9445 16.0555C20.4603 16.5712 20.75 17.2707 20.75 18C20.75 18.7293 20.4603 19.4288 19.9445 19.9445C19.4288 20.4603 18.7293 20.75 18 20.75C17.2707 20.75 16.5712 20.4603 16.0555 19.9445C15.5397 19.4288 15.25 18.7293 15.25 18C15.25 17.2707 15.5397 16.5712 16.0555 16.0555ZM18 16.75C17.6685 16.75 17.3505 16.8817 17.1161 17.1161C16.8817 17.3505 16.75 17.6685 16.75 18C16.75 18.3315 16.8817 18.6495 17.1161 18.8839C17.3505 19.1183 17.6685 19.25 18 19.25C18.3315 19.25 18.6495 19.1183 18.8839 18.8839C19.1183 18.6495 19.25 18.3315 19.25 18C19.25 17.6685 19.1183 17.3505 18.8839 17.1161C18.6495 16.8817 18.3315 16.75 18 16.75Z" fill="black"/>
<path fill-rule="evenodd" clip-rule="evenodd" d="M10.25 6C10.25 5.58579 10.5858 5.25 11 5.25H16C16.7293 5.25 17.4288 5.53973 17.9445 6.05546C18.4603 6.57118 18.75 7.27065 18.75 8V16C18.75 16.4142 18.4142 16.75 18 16.75C17.5858 16.75 17.25 16.4142 17.25 16V8C17.25 7.66848 17.1183 7.35054 16.8839 7.11612C16.6495 6.8817 16.3315 6.75 16 6.75H11C10.5858 6.75 10.25 6.41421 10.25 6Z" fill="black"/>
<path fill-rule="evenodd" clip-rule="evenodd" d="M14.5303 2.46967C14.8232 2.76256 14.8232 3.23744 14.5303 3.53033L12.0607 6L14.5303 8.46967C14.8232 8.76256 14.8232 9.23744 14.5303 9.53033C14.2374 9.82322 13.7626 9.82322 13.4697 9.53033L10.4697 6.53033C10.1768 6.23744 10.1768 5.76256 10.4697 5.46967L13.4697 2.46967C13.7626 2.17678 14.2374 2.17678 14.5303 2.46967Z" fill="black"/>
<path fill-rule="evenodd" clip-rule="evenodd" d="M6 7.25C6.41421 7.25 6.75 7.58579 6.75 8V16C6.75 16.3315 6.8817 16.6495 7.11612 16.8839C7.35054 17.1183 7.66848 17.25 8 17.25H13C13.4142 17.25 13.75 17.5858 13.75 18C13.75 18.4142 13.4142 18.75 13 18.75H8C7.27065 18.75 6.57118 18.4603 6.05546 17.9445C5.53973 17.4288 5.25 16.7293 5.25 16V8C5.25 7.58579 5.58579 7.25 6 7.25Z" fill="black"/>
<path fill-rule="evenodd" clip-rule="evenodd" d="M9.46967 14.4697C9.76256 14.1768 10.2374 14.1768 10.5303 14.4697L13.5303 17.4697C13.8232 17.7626 13.8232 18.2374 13.5303 18.5303L10.5303 21.5303C10.2374 21.8232 9.76256 21.8232 9.46967 21.5303C9.17678 21.2374 9.17678 20.7626 9.46967 20.4697L11.9393 18L9.46967 15.5303C9.17678 15.2374 9.17678 14.7626 9.46967 14.4697Z" fill="black"/>
</svg>
