<svg width="24" height="24" viewBox="0 0 24 24" fill="none" xmlns="http://www.w3.org/2000/svg">
<path d="M5 9C5 12.866 8.13401 16 12 16C12.3874 16 12.7674 15.9685 13.1376 15.908L5.04276 8.2219C5.0145 8.47737 5 8.73699 5 9Z" fill="black"/>
<path d="M19 9C19 5.13401 15.866 2 12 2C8.92892 2 6.31973 3.97769 5.3766 6.72898L14.6108 15.4969C17.1837 14.462 19 11.9431 19 9Z" fill="black"/>
<path d="M22 18C22 19.6569 20.6569 21 19 21C17.3431 21 16 19.6569 16 18C16 16.3431 17.3431 15 19 15C20.6569 15 22 16.3431 22 18Z" fill="black"/>
<path d="M2.86103 15.6218L6.34243 12.5755C6.71946 12.2457 7.28242 12.2457 7.65944 12.5755L9.14085 13.8718C9.59618 14.2702 9.59618 14.9785 9.14085 15.3769L5.65944 18.4232C5.28242 18.7531 4.71946 18.7531 4.34243 18.4232L2.86103 17.1269C2.4057 16.7285 2.4057 16.0202 2.86103 15.6218Z" fill="black"/>
</svg>
