<svg width="24" height="24" viewBox="0 0 24 24" fill="none" xmlns="http://www.w3.org/2000/svg">
<path fill-rule="evenodd" clip-rule="evenodd" d="M8.43518 4.76226C7.85178 4.70002 7.2618 4.75926 6.70241 4.93624C6.14302 5.11321 5.62633 5.4041 5.18489 5.79057C4.74344 6.17704 4.38679 6.65073 4.13741 7.18181C3.88802 7.71289 3.7513 8.28986 3.73585 8.87637C3.7204 9.46289 3.82656 10.0462 4.04764 10.5897C4.26872 11.1332 4.59993 11.625 5.02042 12.0342L5.02516 12.0388L5.02514 12.0388L11.9974 18.9441L18.9696 12.0388C18.988 12.0206 19.0071 12.0035 19.0269 11.9875C19.418 11.589 19.727 11.1171 19.9358 10.5987C20.1544 10.0562 20.2586 9.47438 20.242 8.88972C20.2254 8.30507 20.0882 7.73015 19.8392 7.20093C19.5901 6.67171 19.2345 6.1996 18.7946 5.81413C18.3547 5.42866 17.84 5.13814 17.2827 4.96075C16.7253 4.78336 16.1374 4.72292 15.5556 4.78321C14.9738 4.8435 14.4108 5.02323 13.9017 5.31114C13.3925 5.59904 12.9483 5.98894 12.5968 6.45642C12.4547 6.64543 12.2318 6.75634 11.9953 6.75569C11.7588 6.75503 11.5365 6.64288 11.3954 6.45308C11.0454 5.98218 10.6017 5.58884 10.0923 5.29785C9.5828 5.00685 9.01859 4.82449 8.43518 4.76226ZM19.965 13.1641L12.5251 20.5326C12.2328 20.8221 11.7619 20.8221 11.4696 20.5326L3.97432 13.1092C3.9735 13.1084 3.97268 13.1076 3.97186 13.1068C3.40413 12.5537 2.95688 11.8892 2.6582 11.1549C2.35909 10.4196 2.21547 9.63039 2.23637 8.83687C2.25727 8.04335 2.44225 7.26276 2.77965 6.54424C3.11706 5.82572 3.59958 5.18484 4.19683 4.66197C4.79408 4.13909 5.49313 3.74554 6.24995 3.5061C7.00678 3.26666 7.80498 3.18652 8.59429 3.27072C9.38361 3.35492 10.1469 3.60164 10.8362 3.99534C11.2611 4.23801 11.6521 4.53328 12.0005 4.8733C12.349 4.53692 12.7395 4.24508 13.1633 4.00545C13.8521 3.61593 14.6139 3.37277 15.401 3.2912C16.1881 3.20963 16.9836 3.29141 17.7376 3.53141C18.4917 3.7714 19.1881 4.16446 19.7832 4.68597C20.3784 5.20749 20.8595 5.84623 21.1964 6.56223C21.5333 7.27823 21.7189 8.05607 21.7414 8.84707C21.7639 9.63807 21.6229 10.4252 21.3272 11.1592C21.0315 11.8932 20.5875 12.5583 20.0229 13.1128C20.0043 13.131 19.985 13.1482 19.965 13.1641Z" fill="black"/>
<path fill-rule="evenodd" clip-rule="evenodd" d="M12.5302 5.46967C12.8231 5.76256 12.8231 6.23744 12.5302 6.53033L9.23726 9.82325C9.23723 9.82328 9.23729 9.82322 9.23726 9.82325C9.19044 9.87012 9.16406 9.93375 9.16406 10C9.16406 10.0663 9.19036 10.1298 9.23718 10.1767C9.23721 10.1767 9.23715 10.1766 9.23718 10.1767L9.78018 10.7197C10.1773 11.1168 10.8224 11.1168 11.2195 10.7197L12.2195 9.71967C12.9569 8.98229 13.957 8.56803 14.9998 8.56803C16.0427 8.56803 17.0428 8.98228 17.7802 9.71967L20.0302 11.9697C20.3231 12.2626 20.3231 12.7374 20.0302 13.0303C19.7373 13.3232 19.2624 13.3232 18.9695 13.0303L16.7195 10.7803C16.2634 10.3243 15.6449 10.068 14.9998 10.068C14.3548 10.068 13.7363 10.3242 13.2802 10.7803C13.2802 10.7803 13.2802 10.7803 13.2802 10.7803L12.2802 11.7803C11.2973 12.7632 9.70241 12.7632 8.71952 11.7803L8.17652 11.2373C7.84844 10.9092 7.66406 10.464 7.66406 10C7.66406 9.53596 7.84836 9.09092 8.17644 8.76275L11.4695 5.46967C11.7624 5.17678 12.2373 5.17678 12.5302 5.46967Z" fill="black"/>
<path fill-rule="evenodd" clip-rule="evenodd" d="M11.9697 14.9697C12.2626 14.6768 12.7374 14.6768 13.0303 14.9697L15.0303 16.9697C15.3232 17.2626 15.3232 17.7374 15.0303 18.0303C14.7374 18.3232 14.2626 18.3232 13.9697 18.0303L11.9697 16.0303C11.6768 15.7374 11.6768 15.2626 11.9697 14.9697Z" fill="black"/>
<path fill-rule="evenodd" clip-rule="evenodd" d="M14.4697 12.4697C14.7626 12.1768 15.2374 12.1768 15.5303 12.4697L17.5303 14.4697C17.8232 14.7626 17.8232 15.2374 17.5303 15.5303C17.2374 15.8232 16.7626 15.8232 16.4697 15.5303L14.4697 13.5303C14.1768 13.2374 14.1768 12.7626 14.4697 12.4697Z" fill="black"/>
</svg>
