<svg width="24" height="24" viewBox="0 0 24 24" fill="none" xmlns="http://www.w3.org/2000/svg">
<path fill-rule="evenodd" clip-rule="evenodd" d="M6 5.75C5.66848 5.75 5.35054 5.8817 5.11612 6.11612C4.8817 6.35054 4.75 6.66848 4.75 7V19C4.75 19.3315 4.8817 19.6495 5.11612 19.8839C5.35054 20.1183 5.66848 20.25 6 20.25H11C11.4142 20.25 11.75 20.5858 11.75 21C11.75 21.4142 11.4142 21.75 11 21.75H6C5.27065 21.75 4.57118 21.4603 4.05546 20.9445C3.53973 20.4288 3.25 19.7293 3.25 19V7C3.25 6.27065 3.53973 5.57118 4.05546 5.05546C4.57118 4.53973 5.27065 4.25 6 4.25H18C18.7293 4.25 19.4288 4.53973 19.9445 5.05546C20.4603 5.57118 20.75 6.27065 20.75 7V10.5C20.75 10.9142 20.4142 11.25 20 11.25C19.5858 11.25 19.25 10.9142 19.25 10.5V7C19.25 6.66848 19.1183 6.35054 18.8839 6.11612C18.6495 5.8817 18.3315 5.75 18 5.75H6Z" fill="black"/>
<path fill-rule="evenodd" clip-rule="evenodd" d="M16 2.25C16.4142 2.25 16.75 2.58579 16.75 3V7C16.75 7.41421 16.4142 7.75 16 7.75C15.5858 7.75 15.25 7.41421 15.25 7V3C15.25 2.58579 15.5858 2.25 16 2.25Z" fill="black"/>
<path fill-rule="evenodd" clip-rule="evenodd" d="M8 2.25C8.41421 2.25 8.75 2.58579 8.75 3V7C8.75 7.41421 8.41421 7.75 8 7.75C7.58579 7.75 7.25 7.41421 7.25 7V3C7.25 2.58579 7.58579 2.25 8 2.25Z" fill="black"/>
<path fill-rule="evenodd" clip-rule="evenodd" d="M3.25 11C3.25 10.5858 3.58579 10.25 4 10.25H15C15.4142 10.25 15.75 10.5858 15.75 11C15.75 11.4142 15.4142 11.75 15 11.75H4C3.58579 11.75 3.25 11.4142 3.25 11Z" fill="black"/>
<path fill-rule="evenodd" clip-rule="evenodd" d="M17.8012 15.1987L17.0363 16.7433C16.9268 16.9643 16.7158 17.1173 16.4718 17.1527L14.767 17.3998L15.9988 18.5965C16.1763 18.769 16.2573 19.0178 16.2153 19.2617L15.9239 20.9543L17.4531 20.1531C17.6711 20.0389 17.9312 20.0389 18.1492 20.1531L19.6777 20.954L19.387 19.2614C19.3451 19.0177 19.4261 18.7689 19.6035 18.5965L20.8353 17.3998L19.1306 17.1527C18.8865 17.1173 18.6755 16.9643 18.5661 16.7433L17.8012 15.1987ZM21.5594 17.5048C21.5596 17.5049 21.5591 17.5048 21.5594 17.5048ZM14.0436 17.5047C14.0421 17.5049 14.0406 17.5052 14.0391 17.5054ZM17.1997 13.4212C17.3804 13.3093 17.5886 13.25 17.8012 13.25C18.0137 13.25 18.222 13.3093 18.4026 13.4212C18.5833 13.5331 18.7291 13.6932 18.8237 13.8835L18.8243 13.8846L19.7355 15.7247L21.773 16.0201C21.7731 16.0201 21.7728 16.0201 21.773 16.0201M15.8668 15.7247L16.7786 13.8835C16.8732 13.6932 17.0191 13.5331 17.1997 13.4212" fill="black"/>
</svg>
