<svg width="24" height="24" viewBox="0 0 24 24" fill="none" xmlns="http://www.w3.org/2000/svg">
<path fill-rule="evenodd" clip-rule="evenodd" d="M7.55012 4.45251C9.23098 3.48146 11.1845 3.08998 13.1097 3.3384C15.035 3.58682 16.8251 4.46135 18.2045 5.82727C19.5838 7.19319 20.4757 8.97472 20.743 10.8974C20.8 11.3077 20.5136 11.6865 20.1033 11.7435C19.6931 11.8006 19.3142 11.5142 19.2572 11.1039C19.0353 9.50708 18.2945 8.0275 17.149 6.89309C16.0035 5.75868 14.5167 5.03238 12.9178 4.82607C11.3189 4.61976 9.69644 4.94488 8.30047 5.75135C7.24361 6.36191 6.36093 7.22272 5.72541 8.25068H8.00009C8.41431 8.25068 8.75009 8.58647 8.75009 9.00068C8.75009 9.4149 8.41431 9.75068 8.00009 9.75068H4.51686C4.5055 9.75094 4.49412 9.75094 4.48272 9.75068H4.00009C3.58588 9.75068 3.25009 9.4149 3.25009 9.00068V5.00068C3.25009 4.58647 3.58588 4.25068 4.00009 4.25068C4.41431 4.25068 4.75009 4.58647 4.75009 5.00068V7.00764C5.48358 5.96989 6.43655 5.09583 7.55012 4.45251ZM3.89686 12.2571C4.30713 12.2001 4.68594 12.4865 4.74295 12.8968C4.96487 14.4936 5.70565 15.9732 6.85119 17.1076C7.99673 18.242 9.48347 18.9683 11.0824 19.1746C12.6813 19.3809 14.3037 19.0558 15.6997 18.2493C16.7566 17.6388 17.6393 16.778 18.2748 15.75H16.0001C15.5859 15.75 15.2501 15.4142 15.2501 15C15.2501 14.5858 15.5859 14.25 16.0001 14.25H19.4833C19.4947 14.2497 19.5061 14.2497 19.5175 14.25H20.0001C20.4143 14.25 20.7501 14.5858 20.7501 15V19C20.7501 19.4142 20.4143 19.75 20.0001 19.75C19.5859 19.75 19.2501 19.4142 19.2501 19V16.993C18.5166 18.0308 17.5636 18.9049 16.4501 19.5482C14.7692 20.5192 12.8157 20.9107 10.8904 20.6623C8.9652 20.4139 7.17504 19.5393 5.79572 18.1734C4.4164 16.8075 3.52443 15.026 3.25723 13.1032C3.20022 12.693 3.48658 12.3142 3.89686 12.2571Z" fill="black"/>
</svg>
