<svg width="24" height="24" viewBox="0 0 24 24" fill="none" xmlns="http://www.w3.org/2000/svg">
<path fill-rule="evenodd" clip-rule="evenodd" d="M17.0373 13.1329C17.3617 12.9953 17.7099 12.9244 18.062 12.9244C18.414 12.9244 18.7622 12.9953 19.0867 13.1329C19.4111 13.2704 19.7049 13.4716 19.9517 13.7242C20.1985 13.9768 20.3935 14.2758 20.5263 14.604C20.6591 14.9321 20.7273 15.2833 20.7273 15.6376C20.7273 15.9919 20.6591 16.3431 20.5263 16.6712C20.3937 16.9989 20.1991 17.2975 19.9528 17.5499L19.9517 17.551L16.8255 20.7788C16.6886 20.9202 16.5005 21 16.304 21H13.5355C13.1339 21 12.8083 20.6733 12.8083 20.2703V17.4368C12.8083 17.2447 12.8838 17.0603 13.0185 16.9237L16.1723 13.7242L16.1734 13.723C16.42 13.471 16.7134 13.2702 17.0373 13.1329Z" fill="black"/>
<path fill-rule="evenodd" clip-rule="evenodd" d="M8.5672 4.22485C9.33416 3.44196 10.3768 3 11.4665 3C12.5561 3 13.5988 3.44196 14.3657 4.22485C15.1323 5.00736 15.561 6.06627 15.561 7.16805C15.561 8.26983 15.1323 9.32874 14.3657 10.1112C13.5988 10.8941 12.5561 11.3361 11.4665 11.3361C10.3768 11.3361 9.33416 10.8941 8.5672 10.1112C7.80061 9.32874 7.37195 8.26983 7.37195 7.16805C7.37195 6.06627 7.80061 5.00736 8.5672 4.22485Z" fill="black"/>
<path d="M8.57622 12.4655C7.35387 12.4655 6.18715 12.9717 5.33114 13.8637C4.47599 14.7548 4 15.958 4 17.2072C4 18.7063 5.19346 19.9411 6.68953 19.9411H9.8665C10.4556 19.9411 10.9331 19.4671 10.9331 18.8823V16.9846C10.9331 16.8438 10.9896 16.7088 11.0901 16.6095L14.5987 13.1408C14.8545 12.8878 14.7178 12.4655 14.3567 12.4655H8.57622Z" fill="black"/>
</svg>
