<svg width="24" height="24" viewBox="0 0 24 24" fill="none" xmlns="http://www.w3.org/2000/svg">
<path fill-rule="evenodd" clip-rule="evenodd" d="M18 10.2222L17 4H7L6.07574 9.75097C6.92725 9.25798 7.87567 9 8.83875 9C10.1016 9 11.3393 9.44358 12.3663 10.279C13.1633 10.9273 14.1441 11.2857 15.1613 11.2857C16.1784 11.2857 17.203 10.8705 18 10.2222ZM17.1267 12.6314C16.4973 12.8746 15.8328 13 15.1613 13C13.8984 13 12.6607 12.5564 11.6337 11.721C10.8367 11.0727 9.85588 10.7143 8.83875 10.7143C7.90593 10.7143 7.00365 11.0158 6.24571 11.5658C6.98032 13.4748 9.27838 14.6667 12 14.6667C14.1716 14.6667 16.0735 13.9079 17.1267 12.6314Z" fill="black"/>
<path fill-rule="evenodd" clip-rule="evenodd" d="M12 13.916C12.4142 13.916 12.75 14.2518 12.75 14.666V19.2493H16C16.4142 19.2493 16.75 19.5851 16.75 19.9993C16.75 20.4136 16.4142 20.7493 16 20.7493H8C7.58579 20.7493 7.25 20.4136 7.25 19.9993C7.25 19.5851 7.58579 19.2493 8 19.2493H11.25V14.666C11.25 14.2518 11.5858 13.916 12 13.916Z" fill="black"/>
</svg>
