<svg width="24" height="24" viewBox="0 0 24 24" fill="none" xmlns="http://www.w3.org/2000/svg">
<path fill-rule="evenodd" clip-rule="evenodd" d="M12.2041 2C12.5928 2.00004 12.978 2.07731 13.3369 2.22656C13.6954 2.37571 14.021 2.59391 14.2949 2.86914L14.9922 3.56738C15.2635 3.83683 15.6313 3.98791 16.0137 3.98828H17.0137C17.796 3.98828 18.5464 4.29944 19.0996 4.85254C19.6528 5.40571 19.9638 6.15618 19.9639 6.93848V7.93848C19.9641 8.32086 20.1154 8.68763 20.3848 8.95898L21.084 9.6582C21.3591 9.93208 21.5775 10.2578 21.7266 10.6162C21.8758 10.9751 21.9521 11.3603 21.9521 11.749C21.9521 12.1377 21.8758 12.5229 21.7266 12.8818C21.5775 13.2403 21.3591 13.566 21.084 13.8398L20.3857 14.5371C20.1162 14.8085 19.9641 15.177 19.9639 15.5596V16.5586C19.9639 17.341 19.6528 18.0913 19.0996 18.6445C18.5464 19.1978 17.7961 19.5088 17.0137 19.5088H16.0146C15.6321 19.509 15.2646 19.6602 14.9932 19.9297L14.2949 20.6289C14.021 20.9041 13.6954 21.1224 13.3369 21.2715C12.978 21.4207 12.5928 21.497 12.2041 21.4971C11.8154 21.4971 11.4302 21.4207 11.0713 21.2715C10.7129 21.1224 10.3872 20.904 10.1133 20.6289L9.41406 19.9297C9.1427 19.6603 8.77594 19.5091 8.39355 19.5088H7.39355C6.61126 19.5087 5.86079 19.1977 5.30762 18.6445C4.75451 18.0913 4.44336 17.3409 4.44336 16.5586V15.5596C4.44309 15.1771 4.292 14.8095 4.02246 14.5381L3.32422 13.8398C3.04899 13.566 2.83079 13.2403 2.68164 12.8818C2.53239 12.5229 2.45512 12.1377 2.45508 11.749C2.45508 11.3602 2.53236 10.9752 2.68164 10.6162C2.83079 10.2576 3.04889 9.93122 3.32422 9.65723L4.02246 8.95996C4.29182 8.68861 4.44309 8.32085 4.44336 7.93848V6.93848C4.44343 6.15618 4.75445 5.40571 5.30762 4.85254C5.86079 4.29937 6.61126 3.98835 7.39355 3.98828H8.39355C8.77596 3.98797 9.14273 3.83683 9.41406 3.56738L10.1123 2.87012C10.3863 2.59478 10.7126 2.37572 11.0713 2.22656C11.4303 2.07728 11.8153 2 12.2041 2ZM15.5303 8.46973C15.2374 8.17683 14.7626 8.17683 14.4697 8.46973L8.46973 14.4697C8.17683 14.7626 8.17683 15.2374 8.46973 15.5303C8.76262 15.8232 9.23738 15.8232 9.53027 15.5303L15.5303 9.53027C15.8232 9.23738 15.8232 8.76262 15.5303 8.46973ZM14.5 13.25C13.8096 13.25 13.25 13.8096 13.25 14.5C13.25 15.1904 13.8096 15.75 14.5 15.75C15.1904 15.75 15.75 15.1904 15.75 14.5C15.75 13.8096 15.1904 13.25 14.5 13.25ZM9.5 8.25C8.80964 8.25 8.25 8.80964 8.25 9.5C8.25 10.1904 8.80964 10.75 9.5 10.75C10.1904 10.75 10.75 10.1904 10.75 9.5C10.75 8.80964 10.1904 8.25 9.5 8.25Z" fill="black"/>
</svg>
