<svg width="69" height="31" viewBox="0 0 69 31" fill="none" xmlns="http://www.w3.org/2000/svg">
<path d="M15.2873 4.30756V13.1655C15.2873 14.6658 14.945 15.9482 14.2604 17.0129C13.5451 18.1033 12.5149 18.9503 11.3067 19.4414C10.0221 19.9933 8.49505 20.2692 6.72546 20.2692C5.62261 20.2801 4.52273 20.1529 3.45153 19.8903C2.58761 19.6962 1.76765 19.3422 1.03397 18.8466V15.2966C1.62813 15.7841 2.3052 16.1608 3.03281 16.4086C3.87382 16.717 4.76298 16.8735 5.65878 16.8708C7.19217 16.8708 8.36053 16.5153 9.16386 15.8043C9.96718 15.0933 10.3682 14.04 10.367 12.6445V12.3395C9.90213 13.3751 9.27059 14.1328 8.47232 14.6127C7.60251 15.1161 6.61042 15.3692 5.60573 15.3439C4.56676 15.3692 3.53947 15.1203 2.62736 14.6222C1.79695 14.1561 1.12019 13.4584 0.679676 12.6142C0.216212 11.7154 -0.0168507 10.7156 0.00139609 9.70451C-0.0209755 8.62721 0.225834 7.56135 0.719463 6.60349C1.17636 5.72904 1.87645 5.00538 2.73536 4.51972C3.64987 4.01806 4.68033 3.76587 5.7232 3.78851C6.85998 3.78851 7.8073 4.03225 8.56515 4.51972C9.32301 5.0072 9.9274 5.75925 10.3783 6.77587V4.31324L15.2873 4.30756ZM9.12976 11.7352C9.51481 11.5521 9.83906 11.2621 10.0638 10.8998C10.2854 10.5347 10.3997 10.1145 10.3935 9.68746C10.402 9.25431 10.2898 8.82733 10.0695 8.45425C9.84972 8.09479 9.53058 7.80662 9.1506 7.62453C8.71622 7.41956 8.24013 7.31839 7.75993 7.32902C7.27867 7.3182 6.80182 7.42278 6.36927 7.63401C5.98883 7.82251 5.67006 8.1156 5.45037 8.47888C5.2266 8.85577 5.11121 9.28709 5.11691 9.72535C5.11039 10.1452 5.22129 10.5586 5.43711 10.9188C5.65601 11.2766 5.97384 11.5635 6.35222 11.7447C6.77814 11.9488 7.24605 12.05 7.71825 12.0402C8.20608 12.0498 8.68942 11.9454 9.12976 11.7352Z" fill="#210529"/>
<path d="M18.573 4.11258C18.1942 3.96541 17.8619 3.71946 17.6105 3.40031C17.3797 3.101 17.2569 2.73252 17.2619 2.35464C17.2582 1.98828 17.3806 1.63179 17.6086 1.34496C17.8631 1.03046 18.1956 0.788147 18.573 0.64216C19.0139 0.463486 19.4859 0.37399 19.9617 0.378847C20.4279 0.371583 20.8908 0.456564 21.324 0.628899C21.6986 0.771269 22.0264 1.01451 22.2713 1.3317C22.4907 1.62374 22.6079 1.9799 22.6047 2.34517C22.6102 2.7207 22.4932 3.08779 22.2713 3.39084C22.0306 3.70887 21.7076 3.95515 21.3372 4.10311C20.9039 4.28001 20.4392 4.36702 19.9712 4.35884C19.4934 4.37038 19.0181 4.28666 18.573 4.11258ZM17.4646 5.11468H22.3906V16.0848H17.4646V5.11468Z" fill="#210529"/>
<path d="M31.8938 5.10144H36.3178V8.5245H31.9734V16.1018H27.0568V8.5245H23.8359V5.10144H27.0019C26.9886 4.86465 26.9829 4.70174 26.9829 4.58997C26.9829 3.09597 27.5027 1.95937 28.5422 1.18017C29.5817 0.400967 31.0577 0.00757733 32.97 0C34.4251 0 35.6143 0.248789 36.5376 0.746367V3.90233C35.8388 3.53164 35.0545 3.35194 34.264 3.38139C32.6877 3.38139 31.8938 3.94779 31.8938 5.10144Z" fill="#210529"/>
<path d="M38.3766 19.6553C39.1345 20.5696 39.5134 21.8956 39.5134 23.6334V30.5818H34.5874V24.7624C34.5874 23.9693 34.4415 23.358 34.1497 22.9287C34.0033 22.7157 33.8041 22.5444 33.5716 22.4315C33.3392 22.3186 33.0814 22.268 32.8234 22.2846C32.5524 22.2689 32.2817 22.3214 32.0361 22.4372C31.7906 22.553 31.5779 22.7285 31.4176 22.9476C31.0968 23.3896 30.9364 23.9939 30.9364 24.7605V30.5799H26.0293V24.5862C26.0293 23.8651 25.8853 23.3018 25.5973 22.8965C25.4499 22.6937 25.2537 22.5314 25.0268 22.4247C24.7999 22.3181 24.5497 22.2705 24.2995 22.2865C24.0199 22.2744 23.742 22.335 23.4929 22.4625C23.2438 22.59 23.0321 22.78 22.8785 23.0139C22.5476 23.4989 22.3821 24.1574 22.3821 24.9897L22.3632 24.9708V30.5837H17.4561V18.8066H22.3234V21.5685C22.6644 20.442 23.1854 19.6129 23.8864 19.0813C24.5875 18.5496 25.4887 18.2844 26.5901 18.2856C27.665 18.2856 28.5491 18.561 29.2426 19.1116C29.936 19.6622 30.4223 20.4584 30.7015 21.5003C31.0425 20.4054 31.5717 19.5965 32.2892 19.0737C33.0066 18.5509 33.9268 18.2882 35.0496 18.2856C36.5073 18.2856 37.6162 18.7422 38.3766 19.6553Z" fill="#210529"/>
<path d="M51.0828 19.032C52.0899 19.4794 52.9272 20.2375 53.4719 21.1953C54.0125 22.1488 54.2828 23.31 54.2828 24.679V30.5969H49.5045V29.1421C48.652 30.3809 47.2986 31.0004 45.4443 31.0004C44.6437 31.0189 43.8501 30.8469 43.1291 30.4984C42.5101 30.1982 41.9924 29.7234 41.6399 29.1326C41.2951 28.5374 41.1183 27.8597 41.1284 27.1719C41.1084 26.4627 41.3015 25.7638 41.6828 25.1654C42.0641 24.5671 42.6161 24.0967 43.2674 23.8152C44.7411 23.2087 46.3871 23.1689 47.8884 23.7034C48.5079 23.9625 49.0535 24.3713 49.4761 24.8931C49.4679 24.48 49.3603 24.075 49.1625 23.7123C48.9646 23.3495 48.6823 23.0398 48.3393 22.8093C47.6421 22.3345 46.7359 22.097 45.6205 22.097C44.1817 22.0937 42.7895 22.6065 41.6968 23.5424V19.8636C43.2238 18.8217 45.0692 18.3008 47.2329 18.3008C48.7473 18.3008 50.0306 18.5445 51.0828 19.032ZM48.9248 27.8463C49.1003 27.7504 49.2467 27.6091 49.3487 27.4371C49.4507 27.2651 49.5046 27.0688 49.5045 26.8689C49.5033 26.6746 49.4498 26.4842 49.3499 26.3176C49.2499 26.151 49.107 26.0143 48.9362 25.9217C48.4837 25.6638 47.9673 25.5396 47.447 25.5637C46.9766 25.5404 46.5113 25.67 46.1207 25.9331C45.9678 26.0429 45.8432 26.1875 45.7572 26.355C45.6713 26.5225 45.6264 26.7081 45.6264 26.8963C45.6264 27.0846 45.6713 27.2701 45.7572 27.4376C45.8432 27.6052 45.9678 27.7498 46.1207 27.8596C46.5128 28.1184 46.9779 28.244 47.447 28.2176C47.9648 28.2361 48.4772 28.1073 48.9248 27.8463Z" fill="#210529"/>
<path d="M56.3477 16.085H61.2529V30.5823H56.3477V16.085Z" fill="#210529"/>
<path d="M63.2969 16.085H68.204V30.5823H63.2969V16.085Z" fill="#210529"/>
<path d="M48.7468 8.52405V5.11425H45.2114L45.2417 0.378418L40.2759 1.59837C40.2759 1.59837 40.2664 3.19719 40.2531 5.10857H36.9697V8.52405H40.2323C40.2228 10.1627 40.2133 11.4546 40.2133 11.4944C40.2133 12.9884 40.6775 14.125 41.6059 14.9042C42.5343 15.6834 43.8523 16.0749 45.56 16.0787C46.8597 16.0787 47.922 15.8299 48.7468 15.3323V12.1801C48.136 12.5469 47.4315 12.728 46.7195 12.7011C45.3023 12.7011 45.1773 11.6213 45.1773 10.4676L45.1887 8.52405H48.7468Z" fill="#210529"/>
</svg>
