<svg width="73" height="20" viewBox="0 0 73 20" fill="none" xmlns="http://www.w3.org/2000/svg">
<g clip-path="url(#clip0_11014_3002)">
<mask id="mask0_11014_3002" style="mask-type:luminance" maskUnits="userSpaceOnUse" x="0" y="0" width="73" height="20">
<path d="M0 20H73V0H0V20Z" fill="white"/>
</mask>
<g mask="url(#mask0_11014_3002)">
<path d="M1.35761 19.9286H2.33968V16.5474H3.69729V15.7618H0V16.5474H1.35761V19.9286ZM6.42311 16.7262V18.3094C6.44161 18.5424 6.36876 18.7735 6.21945 18.9554C6.14962 19.0278 6.06481 19.0846 5.97073 19.1221C5.87664 19.1596 5.77548 19.1768 5.67404 19.1726C5.23359 19.1726 5.01336 18.9146 5.01336 18.3986V16.7262H4.06714V18.5358C4.05258 18.7307 4.07838 18.9265 4.143 19.1114C4.20761 19.2963 4.3097 19.4664 4.4431 19.6114C4.57942 19.7358 4.73981 19.832 4.91475 19.8944C5.08968 19.9567 5.27558 19.9838 5.46142 19.9742C5.65502 19.9759 5.84691 19.9385 6.02515 19.8642C6.19698 19.7918 6.35008 19.6824 6.47321 19.5442V19.9254H7.36933V16.723L6.42311 16.7262ZM12.0552 20.0002C12.3983 20.0055 12.7389 19.9412 13.0556 19.8114C13.3479 19.6892 13.6058 19.4992 13.8071 19.2578L13.1766 18.6846C13.0485 18.8409 12.8859 18.9666 12.7011 19.0522C12.5163 19.1378 12.3141 19.181 12.1098 19.1786C11.8644 19.1829 11.6222 19.1244 11.4067 19.009C11.2039 18.8991 11.0368 18.735 10.9249 18.5358C10.8072 18.3243 10.7476 18.0864 10.7518 17.8454C10.7476 17.6044 10.8072 17.3665 10.9249 17.155C11.0368 16.9558 11.2038 16.7917 11.4067 16.6818C11.6221 16.5663 11.8644 16.5077 12.1098 16.5118C12.3135 16.5093 12.5153 16.5519 12.6999 16.6364C12.8846 16.721 13.0475 16.8453 13.1766 17.0002L13.8071 16.4286C13.6052 16.1906 13.3488 16.003 13.0588 15.881C12.7435 15.7505 12.4039 15.6857 12.0617 15.6906C11.6514 15.6844 11.246 15.7796 10.8829 15.9674C10.5415 16.1442 10.2563 16.4099 10.0585 16.7354C9.85601 17.0711 9.75211 17.4553 9.75829 17.8454C9.75211 18.2355 9.85601 18.6197 10.0585 18.9554C10.2563 19.2809 10.5415 19.5466 10.8829 19.7234C11.244 19.9107 11.6469 20.0059 12.0552 20.0002ZM17.4804 18.3394C17.4872 18.0327 17.4108 17.7297 17.2592 17.4614C17.1166 17.2143 16.9045 17.0128 16.6482 16.881C16.3808 16.744 16.083 16.6744 15.7814 16.6786C15.472 16.6744 15.1665 16.7472 14.8934 16.8902C14.6339 17.0262 14.4178 17.2302 14.269 17.4794C14.1162 17.7367 14.0376 18.03 14.0417 18.3278C14.0367 18.6271 14.1165 18.9218 14.2723 19.179C14.4289 19.4319 14.6561 19.6354 14.9268 19.7654C15.231 19.9111 15.5661 19.9835 15.9044 19.9766C16.1535 19.9931 16.4032 19.9552 16.6356 19.8658C16.868 19.7763 17.0773 19.6374 17.2486 19.459L16.7455 18.9234C16.6407 19.0252 16.516 19.1051 16.379 19.1582C16.2343 19.2102 16.0812 19.2354 15.9272 19.2326C15.7077 19.2403 15.4914 19.1798 15.3089 19.0598C15.1459 18.9489 15.0329 18.7803 14.9936 18.5894H17.4616C17.4734 18.4346 17.4804 18.3494 17.4804 18.3394ZM15.7887 17.3794C15.9831 17.374 16.1727 17.4386 16.3219 17.561C16.469 17.6846 16.564 17.8573 16.5887 18.0458H14.983C15.0063 17.856 15.1016 17.6817 15.2498 17.5578C15.4019 17.4366 15.5934 17.3733 15.7891 17.3794M20.0929 16.6786C19.884 16.6764 19.6765 16.7137 19.482 16.7886C19.3042 16.8566 19.1446 16.9635 19.0152 17.101V16.7262H18.1109V19.9286H19.0563V18.3454C19.0384 18.1111 19.1146 17.8793 19.2685 17.6994C19.3428 17.626 19.4319 17.5687 19.5301 17.5313C19.6284 17.4939 19.7335 17.4772 19.8388 17.4822C19.9296 17.4764 20.0206 17.4902 20.1054 17.5226C20.1902 17.555 20.2667 17.6053 20.3296 17.6698C20.455 17.8326 20.5154 18.0347 20.4995 18.2382V19.9286H21.4449V18.0954C21.4594 17.9032 21.4339 17.7101 21.3698 17.5279C21.3057 17.3457 21.2044 17.1782 21.0722 17.0358C20.9418 16.9152 20.7881 16.8214 20.6202 16.76C20.4523 16.6987 20.2736 16.671 20.0946 16.6786M24.1495 19.1186C24.0396 19.1999 23.9049 19.2422 23.7674 19.2386C23.7123 19.242 23.6571 19.234 23.6054 19.215C23.5537 19.1961 23.5066 19.1666 23.4672 19.1286C23.3919 19.042 23.3539 18.9299 23.3613 18.8162V17.5126H24.1735V16.7982H23.3597V16.0186H22.4143V16.7982H21.9108V17.5126H22.4139V18.8282C22.4024 18.985 22.4248 19.1425 22.4796 19.2902C22.5344 19.438 22.6204 19.5726 22.732 19.6854C22.9825 19.8931 23.305 19.9976 23.6322 19.977C23.7763 19.9778 23.92 19.9609 24.0599 19.9266C24.183 19.8984 24.2994 19.8469 24.4024 19.775L24.1495 19.1186ZM25.8407 17.1486V16.7258H24.9356V19.9282H25.881V18.4162C25.8715 18.2951 25.8871 18.1734 25.9267 18.0583C25.9663 17.9432 26.0292 17.8372 26.1116 17.7466C26.1971 17.6694 26.2976 17.6099 26.4071 17.5717C26.5165 17.5334 26.6327 17.5171 26.7486 17.5238C26.785 17.5238 26.8558 17.5278 26.9609 17.5358V16.6786C26.7337 16.6747 26.5081 16.7155 26.2973 16.7986C26.1142 16.8711 25.9555 16.9929 25.8395 17.1498M29.0459 19.977C29.3659 19.9821 29.6822 19.9092 29.9665 19.765C30.2297 19.631 30.4499 19.428 30.6027 19.1786C30.7584 18.9213 30.8382 18.6266 30.8333 18.3274C30.8382 18.0282 30.7584 17.7335 30.6027 17.4762C30.4496 17.2274 30.2295 17.025 29.9665 16.8914C29.6819 16.7472 29.3653 16.6745 29.0451 16.6798C28.7239 16.6747 28.4063 16.7473 28.1205 16.8914C27.856 17.0247 27.6345 17.2278 27.481 17.4778C27.3254 17.7351 27.2455 18.0298 27.2505 18.329C27.2455 18.6282 27.3254 18.9229 27.481 19.1802C27.6345 19.4303 27.856 19.6333 28.1205 19.7666C28.4064 19.9105 28.7239 19.9831 29.0451 19.9778M29.0451 19.2178C28.9336 19.2213 28.8226 19.2017 28.7192 19.1603C28.6159 19.119 28.5225 19.0568 28.4451 18.9778C28.3643 18.8908 28.3018 18.7889 28.2612 18.678C28.2207 18.5671 28.2029 18.4495 28.2089 18.3318C28.2029 18.2142 28.2207 18.0965 28.2612 17.9856C28.3018 17.8747 28.3643 17.7728 28.4451 17.6858C28.5225 17.6068 28.6158 17.5446 28.7192 17.5032C28.8225 17.4619 28.9336 17.4423 29.0451 17.4458C29.1563 17.4421 29.267 17.4616 29.3699 17.503C29.4728 17.5444 29.5656 17.6067 29.6423 17.6858C29.8039 17.8624 29.8878 18.0947 29.8757 18.3318C29.8856 18.567 29.8012 18.7966 29.6406 18.9714C29.564 19.0505 29.4711 19.1128 29.3682 19.1542C29.2653 19.1955 29.1546 19.215 29.0435 19.2114M35.2939 20.0002C35.7075 20.0065 36.116 19.9102 36.4817 19.7202C36.8245 19.5419 37.1115 19.2755 37.3122 18.9494C37.5158 18.6162 37.6207 18.2339 37.6153 17.8454C37.6207 17.4569 37.5158 17.0746 37.3122 16.7414C37.1119 16.416 36.8256 16.1499 36.4837 15.9714C36.1181 15.7814 35.7095 15.6851 35.2959 15.6914C34.8812 15.6853 34.4715 15.7816 34.1045 15.9714C33.7611 16.1488 33.474 16.4155 33.2744 16.7422C33.0726 17.076 32.9687 17.4581 32.9742 17.8462C32.9687 18.2344 33.0726 18.6164 33.2744 18.9502C33.4738 19.2771 33.761 19.5438 34.1045 19.721C34.4715 19.9108 34.8812 20.0071 35.2959 20.001M35.2959 19.1794C35.0583 19.1828 34.824 19.1243 34.6169 19.0098C34.4167 18.8985 34.252 18.7346 34.1412 18.5366C34.0237 18.3251 33.9642 18.0872 33.9685 17.8462C33.9641 17.6053 34.0237 17.3674 34.1412 17.1558C34.2519 16.9577 34.4167 16.7939 34.6169 16.6826C34.824 16.568 35.0583 16.5093 35.2959 16.5126C35.5335 16.5094 35.7676 16.5681 35.9745 16.6826C36.1748 16.7939 36.3396 16.9577 36.4503 17.1558C36.5678 17.3674 36.6273 17.6053 36.623 17.8462C36.6273 18.0872 36.5678 18.3251 36.4503 18.5366C36.3395 18.7346 36.1748 18.8985 35.9745 19.0098C35.7676 19.1242 35.5334 19.1827 35.2959 19.1794ZM39.357 16.6614C39.357 16.3518 39.5004 16.197 39.7871 16.197C39.9234 16.1943 40.0571 16.234 40.1692 16.3102L40.4177 15.6374C40.3201 15.5767 40.2124 15.5334 40.0995 15.5094C39.9674 15.479 39.832 15.464 39.6963 15.4646C39.5273 15.454 39.3578 15.4768 39.198 15.5318C39.0382 15.5868 38.8912 15.6727 38.7659 15.7846C38.6533 15.8996 38.5659 16.0361 38.5091 16.1856C38.4523 16.3351 38.4273 16.4945 38.4356 16.6538V16.7966H37.9305V17.511H38.4336V19.9278H39.379V17.511H40.1904V16.7966H39.3553L39.357 16.6614ZM41.1492 19.9294H42.0946V16.727H41.1492V19.9294ZM41.6221 16.2806C41.7784 16.287 41.9309 16.2325 42.0465 16.129C42.0999 16.08 42.142 16.0204 42.1701 15.9542C42.1982 15.888 42.2116 15.8167 42.2095 15.745C42.2108 15.6774 42.197 15.6102 42.1688 15.5485C42.1406 15.4867 42.0989 15.4319 42.0465 15.3878C41.9284 15.2895 41.7768 15.2385 41.6221 15.245C41.4665 15.2387 41.3144 15.292 41.1981 15.3938C41.1455 15.4402 41.1037 15.4972 41.0756 15.5609C41.0474 15.6247 41.0337 15.6936 41.0352 15.763C41.0337 15.8324 41.0475 15.9014 41.0756 15.9651C41.1037 16.0288 41.1455 16.0858 41.1981 16.1322C41.3144 16.2341 41.4664 16.287 41.6221 16.2806ZM44.5487 19.9762C44.8628 19.9834 45.1732 19.9095 45.4489 19.7618C45.6965 19.6283 45.8932 19.4194 46.0094 19.1666L45.2762 18.7738C45.21 18.9086 45.1056 19.0217 44.9756 19.0998C44.8455 19.1778 44.6954 19.2174 44.543 19.2138C44.4299 19.2169 44.3173 19.1971 44.2123 19.1559C44.1072 19.1146 44.0118 19.0526 43.9321 18.9738C43.8486 18.8876 43.784 18.7856 43.7419 18.6741C43.6999 18.5625 43.6815 18.4438 43.6877 18.325C43.6815 18.2062 43.6999 18.0875 43.7419 17.9759C43.784 17.8644 43.8486 17.7624 43.9321 17.6762C44.0118 17.5974 44.1072 17.5354 44.2123 17.4942C44.3173 17.4529 44.4299 17.4332 44.543 17.4362C44.6952 17.4336 44.8449 17.4736 44.9748 17.5515C45.1046 17.6295 45.2092 17.7421 45.2762 17.8762L46.0094 17.489C45.8964 17.2319 45.6992 17.0193 45.4489 16.885C45.1725 16.7393 44.8624 16.6664 44.5487 16.6734C44.2236 16.6683 43.9021 16.7409 43.6119 16.885C43.3444 17.0174 43.1198 17.2205 42.9634 17.4714C42.806 17.7281 42.7251 18.023 42.73 18.3226C42.7251 18.6222 42.806 18.9171 42.9634 19.1738C43.1191 19.4265 43.3438 19.6313 43.6119 19.765C43.9021 19.909 44.2236 19.9815 44.5487 19.9762ZM46.5548 19.9286H47.5002V16.7262H46.5548V19.9286ZM47.0277 16.2798C47.1839 16.2862 47.3363 16.2317 47.4518 16.1282C47.5051 16.0792 47.5473 16.0197 47.5754 15.9535C47.6035 15.8872 47.6169 15.8159 47.6147 15.7442C47.6161 15.6766 47.6022 15.6094 47.574 15.5477C47.5459 15.4859 47.5041 15.431 47.4518 15.387C47.3338 15.2887 47.1823 15.2377 47.0277 15.2442C46.8719 15.2379 46.7197 15.2912 46.6033 15.393C46.5507 15.4394 46.5089 15.4964 46.4808 15.5601C46.4526 15.6239 46.4389 15.6928 46.4404 15.7622C46.4389 15.8316 46.4526 15.9006 46.4808 15.9643C46.5089 16.028 46.5507 16.085 46.6033 16.1314C46.7197 16.2333 46.8719 16.2867 47.0277 16.2802M49.6949 16.6802C49.4357 16.6798 49.1777 16.7139 48.9279 16.7814C48.6996 16.8397 48.4832 16.9363 48.2884 17.067L48.6277 17.7158C48.7558 17.619 48.9005 17.5454 49.055 17.4986C49.2204 17.4455 49.3934 17.4185 49.5674 17.4186C49.7694 17.4037 49.9699 17.4619 50.1311 17.5822C50.1954 17.6418 50.2455 17.7146 50.2779 17.7953C50.3104 17.876 50.3244 17.9628 50.3189 18.0494H49.5674C49.1956 18.0213 48.8244 18.1111 48.5084 18.3054C48.3973 18.3863 48.3081 18.4925 48.2484 18.6149C48.1887 18.7373 48.1603 18.8722 48.1658 19.0078C48.163 19.1849 48.2136 19.3589 48.3112 19.5078C48.4149 19.6602 48.5611 19.7801 48.7324 19.853C48.9378 19.9405 49.1602 19.9831 49.3841 19.9778C49.5759 20.0003 49.7704 19.9705 49.9462 19.8918C50.122 19.8131 50.2723 19.6884 50.3808 19.5314V19.9314H51.2659V18.1042C51.2812 17.9078 51.2526 17.7104 51.1823 17.5259C51.112 17.3414 51.0015 17.1741 50.8586 17.0358C50.5287 16.7804 50.114 16.6543 49.6949 16.6818M49.622 19.3546C49.4836 19.3622 49.3465 19.3258 49.2309 19.2506C49.1854 19.2186 49.1485 19.1761 49.1237 19.1267C49.0989 19.0774 49.0869 19.0228 49.0888 18.9678C49.0888 18.7177 49.2827 18.5926 49.6705 18.5926H50.3189V18.9198C50.2724 19.0557 50.1779 19.1708 50.0525 19.2442C49.922 19.319 49.773 19.3574 49.622 19.3546ZM52.1193 19.9314H53.0647V15.5118H52.1193V19.9314ZM58.0312 15.5118V17.0654C57.9071 16.9345 57.7552 16.8319 57.5863 16.7651C57.4173 16.6982 57.2355 16.6687 57.0536 16.6786C56.7627 16.6746 56.4757 16.7443 56.2202 16.881C55.9731 17.0145 55.7701 17.2149 55.6353 17.4582C55.4897 17.7252 55.4168 18.0246 55.4235 18.3274C55.4168 18.6302 55.4897 18.9296 55.6353 19.1966C55.7701 19.44 55.9731 19.6403 56.2202 19.7738C56.4757 19.9105 56.7627 19.9802 57.0536 19.9762C57.2445 19.9881 57.4356 19.9568 57.6122 19.8846C57.7888 19.8124 57.9461 19.7013 58.0719 19.5598V19.929H58.975V15.5118H58.0312ZM57.2166 19.2142C57.105 19.2176 56.994 19.198 56.8906 19.1567C56.7873 19.1154 56.6939 19.0532 56.6166 18.9742C56.5357 18.8872 56.4732 18.7853 56.4326 18.6744C56.3921 18.5635 56.3743 18.4459 56.3803 18.3282C56.3743 18.2106 56.3921 18.0929 56.4326 17.982C56.4732 17.8711 56.5357 17.7692 56.6166 17.6822C56.6939 17.6032 56.7873 17.541 56.8906 17.4997C56.994 17.4583 57.105 17.4387 57.2166 17.4422C57.3271 17.4391 57.4372 17.4589 57.5395 17.5002C57.6418 17.5416 57.7341 17.6036 57.8104 17.6822C57.8913 17.7692 57.9538 17.8711 57.9944 17.982C58.0349 18.0929 58.0527 18.2106 58.0467 18.3282C58.0527 18.4459 58.0349 18.5635 57.9944 18.6744C57.9538 18.7853 57.8913 18.8872 57.8104 18.9742C57.7341 19.0528 57.6417 19.1148 57.5394 19.1561C57.4371 19.1974 57.3271 19.2172 57.2166 19.2142ZM63.0413 18.339C63.0481 18.0323 62.9718 17.7293 62.8201 17.461C62.6775 17.2139 62.4654 17.0124 62.2091 16.8806C61.9418 16.7436 61.6439 16.674 61.3424 16.6782C61.0329 16.674 60.7274 16.7468 60.4544 16.8898C60.1947 17.0256 59.9785 17.2296 59.83 17.479C59.677 17.7362 59.5984 18.0296 59.6027 18.3274C59.5976 18.6266 59.6773 18.9213 59.8328 19.1786C59.9894 19.4315 60.2166 19.635 60.4874 19.765C60.7915 19.9107 61.1266 19.9831 61.465 19.9762C61.714 19.9928 61.9637 19.9549 62.1962 19.8654C62.4286 19.7759 62.6379 19.637 62.8091 19.4586L62.3081 18.9226C62.2033 19.0243 62.0786 19.1042 61.9415 19.1574C61.7971 19.2094 61.644 19.2346 61.4902 19.2318C61.2707 19.2395 61.0544 19.179 60.8719 19.059C60.7091 18.9482 60.5961 18.78 60.5566 18.5894H63.0238C63.036 18.4347 63.0421 18.3514 63.0421 18.3394M61.3509 17.3794C61.5452 17.3741 61.7349 17.4387 61.8841 17.561C62.0309 17.6847 62.1258 17.8574 62.1505 18.0458H60.5444C60.5676 17.856 60.6627 17.6818 60.8108 17.5578C60.963 17.4365 61.155 17.3732 61.3509 17.3794ZM68.6534 16.5342V15.7602H65.447V19.9286H66.429V18.4114H68.3927V17.6378H66.429V16.5366L68.6534 16.5342ZM71.1569 15.7602H69.3202V19.9286H70.3023V18.7798H71.1577C71.4929 18.7873 71.826 18.7254 72.1352 18.5982C72.3973 18.4903 72.6206 18.308 72.7764 18.0746C72.9292 17.8352 73.0073 17.5571 73.0008 17.2746C73.0083 16.9906 72.9302 16.7108 72.7764 16.4702C72.6197 16.2382 72.3974 16.0562 72.1369 15.9466C71.8281 15.8174 71.4948 15.7544 71.1593 15.7618M71.1047 17.9938H70.3047V16.5474H71.1047C71.3444 16.531 71.5825 16.5973 71.7776 16.735C71.8556 16.8013 71.9169 16.8844 71.9569 16.9778C71.9969 17.0711 72.0144 17.1723 72.0082 17.2734C72.0141 17.3737 71.9964 17.4739 71.9564 17.5663C71.9164 17.6587 71.8552 17.7408 71.7776 17.8062C71.5825 17.9439 71.3444 18.0103 71.1047 17.9938Z" fill="#CEB03B"/>
<path d="M7.59517 13.0718C8.73237 13.0915 9.86073 12.8724 10.9047 12.429C11.8513 12.0184 12.677 11.3796 13.3051 10.5718L10.5955 8.19702C10.2824 8.63939 9.86706 9.00268 9.38353 9.2572C8.9 9.51172 8.36199 9.65024 7.81349 9.66142C7.41227 9.67821 7.01197 9.61128 6.63901 9.46504C6.26605 9.3188 5.92889 9.09658 5.64978 8.81302C5.08216 8.18963 4.78808 7.3714 4.83147 6.53623C4.78817 5.70106 5.08224 4.88286 5.64978 4.25943C5.92894 3.97593 6.2661 3.75375 6.63905 3.60751C7.012 3.46128 7.41227 3.39431 7.81349 3.41103C8.36198 3.42228 8.89996 3.56082 9.38348 3.81533C9.867 4.06985 10.2823 4.43311 10.5955 4.87543L13.3051 2.50063C12.677 1.69288 11.8513 1.05405 10.9047 0.643425C9.86076 0.199961 8.7324 -0.0193336 7.59517 0.000225706C6.33173 -0.0184418 5.08288 0.267077 3.95775 0.831825C2.90857 1.35798 2.02994 2.16151 1.42093 3.15182C0.800987 4.17428 0.483086 5.34601 0.502823 6.53582C0.483043 7.72565 0.800947 8.89739 1.42093 9.91982C2.02977 10.9103 2.90845 11.7138 3.95775 12.2398C5.0828 12.8048 6.33169 13.0905 7.59517 13.0718ZM20.5787 9.60742V7.96462H25.9606V4.92903H20.5782V3.46463H26.706V0.286226H16.3592V12.7862H26.9431V9.60783L20.5787 9.60742ZM35.1609 13.0718C36.2704 13.1013 37.3746 12.91 38.4069 12.5094C39.2103 12.2019 39.9076 11.6754 40.4166 10.9918C40.8615 10.3665 41.0967 9.62057 41.0895 8.85782C41.1335 8.07717 40.8698 7.30985 40.3531 6.71502C39.8784 6.20191 39.2817 5.8123 38.6162 5.58103C37.8151 5.31471 36.9944 5.10878 36.1613 4.96502C35.6118 4.87455 35.0706 4.74078 34.543 4.56502C34.2155 4.44023 34.0519 4.25276 34.0522 4.00262C34.0522 3.47889 34.6037 3.21703 35.7067 3.21703C36.9465 3.24875 38.1612 3.5668 39.2525 4.14543L40.5437 1.09183C39.846 0.714607 39.0953 0.440842 38.316 0.279425C37.4713 0.0946317 36.6084 0.00180444 35.743 0.00262439C34.6348 -0.0276598 33.5317 0.159037 32.4978 0.551825C31.6913 0.855838 30.9925 1.38403 30.4868 2.07182C30.0425 2.70082 29.8074 3.44952 29.8139 4.21502C29.771 4.99672 30.0309 5.76541 30.5414 6.36663C31.0052 6.8823 31.5934 7.27527 32.2522 7.50942C33.0544 7.78139 33.8747 7.99923 34.7071 8.16143C35.2663 8.26138 35.8166 8.40463 36.3527 8.58982C36.6862 8.72102 36.8529 8.91743 36.8529 9.17902C36.8511 9.29227 36.8133 9.40213 36.7449 9.49332C36.6765 9.58451 36.5808 9.6525 36.4713 9.68782C36.0621 9.82437 35.6298 9.88196 35.1984 9.85742C34.4659 9.85158 33.7378 9.74646 33.0347 9.54502C32.323 9.35327 31.6387 9.07427 30.998 8.71463L29.616 11.7858C30.3807 12.2262 31.2126 12.5428 32.0799 12.7234C33.09 12.9568 34.1244 13.0737 35.1621 13.0718M50.2739 13.0718C52.2255 13.0718 53.7469 12.554 54.838 11.5182C55.929 10.4825 56.4745 9.03009 56.4742 7.16103V0.285824H52.2547V7.03582C52.2547 7.95289 52.088 8.61956 51.7545 9.03582C51.5815 9.24533 51.3601 9.41132 51.1087 9.52005C50.8573 9.62877 50.5831 9.6771 50.3089 9.66103C50.0347 9.6772 49.7605 9.62892 49.5091 9.52018C49.2577 9.41145 49.0363 9.24541 48.8633 9.03582C48.5296 8.61929 48.3628 7.95262 48.3631 7.03582V0.285824H44.0719V7.16062C44.0719 9.02969 44.6175 10.4821 45.7086 11.5178C46.7997 12.5536 48.321 13.0716 50.2727 13.0718M67.8748 12.7862H72.4572L69.7843 8.92902C70.5182 8.57363 71.1357 8.02299 71.5664 7.33983C71.9898 6.63164 72.2039 5.82163 72.1847 5.00063C72.2044 4.11687 71.9577 3.2471 71.4756 2.50063C70.9824 1.76957 70.2802 1.1979 69.4573 0.857425C68.4849 0.457545 67.4379 0.262935 66.384 0.286226H60.2558V12.7862H64.5474V9.64342H65.7115L67.8748 12.7862ZM67.8565 5.00063C67.8685 5.201 67.8356 5.40152 67.7602 5.5881C67.6849 5.77468 67.5688 5.9428 67.4202 6.08063C67.0471 6.36287 66.5808 6.49964 66.1111 6.46463H64.5474V3.53582H66.1111C66.5808 3.50092 67.047 3.63768 67.4202 3.91983C67.5688 4.05767 67.6848 4.22579 67.7602 4.41236C67.8356 4.59894 67.8684 4.79945 67.8565 4.99982" fill="#132350"/>
</g>
</g>
<defs>
<clipPath id="clip0_11014_3002">
<rect width="73" height="20" fill="white"/>
</clipPath>
</defs>
</svg>
