<svg width="24" height="24" viewBox="0 0 24 24" fill="none" xmlns="http://www.w3.org/2000/svg">
<path d="M6.33032 7.25C5.93384 7.24997 5.54205 7.33566 5.18179 7.50121C4.82151 7.66678 4.50129 7.90829 4.24308 8.2092C3.98488 8.51012 3.7948 8.8633 3.68588 9.24455C3.57695 9.62581 3.55176 10.0261 3.61203 10.418L4.86703 18.57C5.00321 19.4553 5.45178 20.2627 6.13157 20.846C6.81138 21.4293 7.67753 21.75 8.57328 21.75H15.4251C16.321 21.7502 17.1876 21.4297 17.8676 20.8464C18.5476 20.2631 18.9964 19.4556 19.1326 18.5701L20.3876 10.4181C20.4479 10.0262 20.4227 9.62581 20.3138 9.24455C20.2048 8.86331 20.0148 8.51012 19.7566 8.2092C19.4984 7.90829 19.1781 7.66678 18.8178 7.50121C18.4576 7.33566 18.0658 7.24997 17.6693 7.25H17.25V11C17.25 12.2426 16.2426 13.25 15 13.25C13.7574 13.25 12.75 12.2426 12.75 11V7.25H11.25V11C11.25 12.2426 10.2426 13.25 9 13.25C7.75736 13.25 6.75 12.2426 6.75 11V7.25H6.33032Z" fill="#210529"/>
<path fill-rule="evenodd" clip-rule="evenodd" d="M12 3.75C11.4033 3.75 10.831 3.98705 10.409 4.40901C9.98705 4.83097 9.75 5.40326 9.75 6V11C9.75 11.4142 9.41421 11.75 9 11.75C8.58579 11.75 8.25 11.4142 8.25 11V6C8.25 5.00544 8.64509 4.05161 9.34835 3.34835C10.0516 2.64509 11.0054 2.25 12 2.25C12.9946 2.25 13.9484 2.64509 14.6517 3.34835C15.3549 4.05161 15.75 5.00544 15.75 6V11C15.75 11.4142 15.4142 11.75 15 11.75C14.5858 11.75 14.25 11.4142 14.25 11V6C14.25 5.40326 14.0129 4.83097 13.591 4.40901C13.169 3.98705 12.5967 3.75 12 3.75Z" fill="#210529"/>
</svg>
