<svg width="24" height="24" viewBox="0 0 24 24" fill="none" xmlns="http://www.w3.org/2000/svg">
<path fill-rule="evenodd" clip-rule="evenodd" d="M21.0677 10.9989C20.8696 9.37062 19.4709 8.14294 17.8152 8.14294H16.992V6.94564C16.992 5.62335 16.4731 4.38168 15.5297 3.44845C14.5862 2.51398 13.3326 2 11.9988 2C9.24511 2 7.00558 4.21939 7.00558 6.9457V8.143H6.18475C4.52897 8.143 3.13034 9.37068 2.93229 10.999L2.23503 16.3545C1.84542 19.347 4.17543 22 7.19318 22H16.8068C19.8246 22 22.1546 19.347 21.765 16.3545L21.0677 10.9989ZM11.9974 3.49501C10.0763 3.49501 8.51364 5.04272 8.51364 6.94555V8.14288L15.4823 8.14405V6.94675C15.4823 6.02394 15.1202 5.15722 14.4622 4.50542C13.8041 3.85361 12.929 3.49501 11.9974 3.49501ZM8.46896 15.2964C9.41119 16.2309 10.666 16.7449 12.001 16.7449C14.7547 16.7449 16.9943 14.5267 16.9943 11.798C16.9943 11.3845 16.657 11.0505 16.2395 11.0505C15.8221 11.0505 15.4848 11.3845 15.4848 11.798C15.4848 13.7009 13.9222 15.2486 12.001 15.2486C11.0694 15.2486 10.1943 14.8912 9.53624 14.2394C8.87817 13.5876 8.51612 12.7208 8.51612 11.798C8.51612 11.3845 8.17883 11.0504 7.76135 11.0504C7.34387 11.0504 7.00658 11.3845 7.00658 11.798C7.00658 13.1203 7.52673 14.3619 8.46896 15.2964Z" fill="#210529"/>
</svg>
