<svg width="24" height="24" viewBox="0 0 24 24" fill="none" xmlns="http://www.w3.org/2000/svg">
<g clip-path="url(#clip0_3702_13251)">
<path fill-rule="evenodd" clip-rule="evenodd" d="M16.8333 3.80048C15.1917 3.74572 13.562 4.09613 12.088 4.82076L12 4.86476L11.912 4.82076C10.438 4.09613 8.80827 3.74572 7.16672 3.80048C5.52518 3.85525 3.9224 4.3135 2.5 5.13476C2.34798 5.22252 2.22175 5.34876 2.13398 5.50077C2.04621 5.65279 2 5.82523 2 6.00076V19.0008L2.002 19.0688L2.006 19.1178L2.016 19.1788L2.042 19.2888L2.058 19.3378L2.102 19.4408L2.134 19.5008L2.156 19.5368L2.22 19.6258L2.293 19.7078L2.353 19.7638L2.442 19.8308L2.537 19.8868L2.663 19.9428L2.771 19.9748L2.848 19.9888L2.958 20.0008H3L3.117 19.9948L3.178 19.9848L3.288 19.9588L3.337 19.9428L3.44 19.8988L3.767 19.7188C4.96337 19.0877 6.30021 18.7702 7.65257 18.7961C9.00494 18.822 10.3287 19.1904 11.5 19.8668C11.652 19.9545 11.8245 20.0007 12 20.0007C12.1755 20.0007 12.348 19.9545 12.5 19.8668C13.7162 19.1646 15.0957 18.795 16.5 18.795C17.9043 18.795 19.2838 19.1646 20.5 19.8668C20.652 19.9545 20.8245 20.0007 21 20.0007C21.1755 20.0007 21.348 19.9545 21.5 19.8668C21.652 19.779 21.7782 19.6528 21.866 19.5007C21.9538 19.3487 22 19.1763 22 19.0008V6.00076L21.993 5.88276C21.9746 5.72833 21.9205 5.58031 21.8349 5.45046C21.7494 5.32062 21.6347 5.21252 21.5 5.13476C20.0776 4.3135 18.4748 3.85525 16.8333 3.80048ZM16.7501 9.50073C15.5597 9.50073 14.4856 9.74508 13.9161 10.1247C13.5714 10.3545 13.1058 10.2614 12.876 9.91672C12.6463 9.57207 12.7394 9.10641 13.0841 8.87666C13.3305 8.7124 13.6116 8.57372 13.9161 8.45858C14.7615 8.1389 15.7872 8.00073 16.7501 8.00073C17.7129 8.00073 18.7386 8.13891 19.5841 8.45858C19.8886 8.57372 20.1697 8.7124 20.4161 8.87665C20.7607 9.10641 20.8539 9.57206 20.6241 9.91671C20.3944 10.2614 19.9287 10.3545 19.5841 10.1247C19.0145 9.74509 17.9404 9.50073 16.7501 9.50073ZM13.9161 15.6248C14.4856 15.2451 15.5597 15.0008 16.7501 15.0008C17.9404 15.0008 19.0145 15.2451 19.5841 15.6248C19.9287 15.8545 20.3944 15.7614 20.6241 15.4167C20.8539 15.0721 20.7607 14.6064 20.4161 14.3767C20.1697 14.2124 19.8886 14.0738 19.5841 13.9586C18.7386 13.6389 17.7129 13.5008 16.7501 13.5008C15.7872 13.5008 14.7615 13.6389 13.9161 13.9586C13.6116 14.0738 13.3305 14.2124 13.0841 14.3767C12.7394 14.6064 12.6463 15.0721 12.876 15.4167C13.1058 15.7614 13.5714 15.8545 13.9161 15.6248ZM7.25008 15.0008C6.05972 15.0008 4.98561 15.2451 4.41609 15.6248C4.07144 15.8545 3.60579 15.7614 3.37604 15.4167C3.14628 15.0721 3.23941 14.6064 3.58406 14.3767C3.83046 14.2124 4.11159 14.0737 4.41609 13.9586C5.26155 13.6389 6.28723 13.5008 7.25008 13.5008C8.21293 13.5008 9.23862 13.6389 10.0841 13.9586C10.3886 14.0738 10.6697 14.2124 10.9161 14.3767C11.2607 14.6064 11.3539 15.0721 11.1241 15.4167C10.8944 15.7614 10.4287 15.8545 10.0841 15.6248C9.51455 15.2451 8.44044 15.0008 7.25008 15.0008Z" fill="#210529"/>
<path d="M3.37604 15.4167C3.60579 15.7614 4.07144 15.8545 4.41609 15.6248V13.9586C4.11159 14.0737 3.83046 14.2124 3.58406 14.3767C3.23941 14.6064 3.14628 15.0721 3.37604 15.4167Z" fill="#210529"/>
<path d="M11.1241 15.4167C11.3539 15.0721 11.2607 14.6064 10.9161 14.3767C10.6697 14.2124 10.3886 14.0738 10.0841 13.9586V15.6248C10.4287 15.8545 10.8944 15.7614 11.1241 15.4167Z" fill="#210529"/>
<path d="M12.876 15.4167C13.1058 15.7614 13.5714 15.8545 13.9161 15.6248L13.9161 13.9586C13.6116 14.0738 13.3305 14.2124 13.0841 14.3767C12.7394 14.6064 12.6463 15.0721 12.876 15.4167Z" fill="#210529"/>
<path d="M12.876 9.91672C13.1058 10.2614 13.5714 10.3545 13.9161 10.1247L13.9161 8.45858C13.6116 8.57372 13.3305 8.7124 13.0841 8.87666C12.7394 9.10641 12.6463 9.57207 12.876 9.91672Z" fill="#210529"/>
<path d="M20.6241 9.91671C20.8539 9.57206 20.7607 9.10641 20.4161 8.87665C20.1697 8.7124 19.8886 8.57372 19.5841 8.45858V10.1247C19.9287 10.3545 20.3944 10.2614 20.6241 9.91671Z" fill="#210529"/>
<path d="M20.6241 15.4167C20.8539 15.0721 20.7607 14.6064 20.4161 14.3767C20.1697 14.2124 19.8886 14.0738 19.5841 13.9586V15.6248C19.9287 15.8545 20.3944 15.7614 20.6241 15.4167Z" fill="#210529"/>
</g>
<defs>
<clipPath id="clip0_3702_13251">
<rect width="24" height="24" fill="white"/>
</clipPath>
</defs>
</svg>
