<svg width="217" height="254" viewBox="0 0 217 254" fill="none" xmlns="http://www.w3.org/2000/svg">
<path d="M87.5 142V4C87.5 1.79086 89.304 -0.00619019 91.5121 0.0606311C151.186 1.86644 193.32 43.5808 209.311 67.5633C210.558 69.4333 209.893 71.9202 207.943 73.0369L87.5 142Z" fill="#005BBF"/>
<path d="M87.5 249.284V142L181.444 194.299C183.194 195.273 183.969 197.388 183.099 199.192C174.323 217.384 146.305 248.868 91.7229 253.221C89.4384 253.403 87.5 251.576 87.5 249.284Z" fill="#E8827F"/>
<path d="M87.5 142L198.172 78.4124C200.032 77.3437 202.414 77.9325 203.481 79.7939C227.431 121.608 214.371 175.814 203.248 201.636C202.334 203.757 199.793 204.549 197.775 203.425L87.5 142Z" fill="#FBBB40"/>
<path d="M87.5 237.5V142L3.77147 188.41C1.73594 189.538 1.08444 192.157 2.46386 194.032C15.0999 211.203 45.0393 239.537 83.501 241.403C85.7076 241.51 87.5 239.709 87.5 237.5Z" fill="#479BF8"/>
<path d="M87.5 76.8153V142L32.9196 110.475C31.024 109.38 30.356 106.96 31.5872 105.15C39.1307 94.0589 56.9099 76.5681 83.2029 72.9575C85.5097 72.6408 87.5 74.4868 87.5 76.8153Z" fill="#67D7C6"/>
<path d="M87.5002 142L21.0553 103.082C19.1091 101.942 16.5928 102.636 15.6331 104.677C3.07868 131.375 9.98984 161.581 16.2778 176.692C17.1549 178.799 19.6699 179.575 21.667 178.468L87.5002 142Z" fill="#515D6F"/>
<path d="M123.494 72.5V71.343C125.054 70.342 128.369 68.145 128.369 66.091C128.369 65.142 127.706 64.518 126.731 64.518C125.73 64.518 124.937 65.155 124.703 66.416L123.429 66.091C123.702 64.297 124.989 63.257 126.757 63.257C128.525 63.257 129.76 64.362 129.76 65.987C129.76 68.119 127.225 70.16 125.561 71.278H130.007V72.5H123.494ZM130.895 72.5V71.343C132.455 70.342 135.77 68.145 135.77 66.091C135.77 65.142 135.107 64.518 134.132 64.518C133.131 64.518 132.338 65.155 132.104 66.416L130.83 66.091C131.103 64.297 132.39 63.257 134.158 63.257C135.926 63.257 137.161 64.362 137.161 65.987C137.161 68.119 134.626 70.16 132.962 71.278H137.408V72.5H130.895ZM140.481 68.132C139.22 68.132 138.362 67.131 138.362 65.792V65.623C138.362 64.297 139.22 63.296 140.481 63.296H140.585C141.846 63.296 142.691 64.297 142.691 65.623V65.792C142.691 67.131 141.846 68.132 140.585 68.132H140.481ZM138.882 72.5L146.006 63.361H147.54L140.416 72.5H138.882ZM140.52 67.053H140.546C141.157 67.053 141.573 66.494 141.573 65.766V65.662C141.573 64.934 141.157 64.375 140.546 64.375H140.52C139.909 64.375 139.493 64.934 139.493 65.662V65.766C139.493 66.494 139.909 67.053 140.52 67.053ZM145.837 72.604C144.563 72.604 143.718 71.603 143.718 70.277V70.108C143.718 68.769 144.563 67.768 145.837 67.768H145.928C147.202 67.768 148.047 68.769 148.047 70.108V70.277C148.047 71.603 147.202 72.604 145.928 72.604H145.837ZM145.863 71.525H145.902C146.513 71.525 146.916 70.966 146.916 70.238V70.134C146.916 69.406 146.513 68.847 145.902 68.847H145.863C145.252 68.847 144.849 69.406 144.849 70.134V70.238C144.849 70.966 145.252 71.525 145.863 71.525Z" fill="white"/>
<path d="M159.494 140.5V139.343C161.054 138.342 164.369 136.145 164.369 134.091C164.369 133.142 163.706 132.518 162.731 132.518C161.73 132.518 160.937 133.155 160.703 134.416L159.429 134.091C159.702 132.297 160.989 131.257 162.757 131.257C164.525 131.257 165.76 132.362 165.76 133.987C165.76 136.119 163.225 138.16 161.561 139.278H166.007V140.5H159.494ZM169.014 131.4H170.301V140.5H168.975V133.857C168.403 134.377 167.597 134.663 166.765 134.663V133.519C168.052 133.467 169.014 132.583 169.014 131.4ZM174.17 136.132C172.909 136.132 172.051 135.131 172.051 133.792V133.623C172.051 132.297 172.909 131.296 174.17 131.296H174.274C175.535 131.296 176.38 132.297 176.38 133.623V133.792C176.38 135.131 175.535 136.132 174.274 136.132H174.17ZM172.571 140.5L179.695 131.361H181.229L174.105 140.5H172.571ZM174.209 135.053H174.235C174.846 135.053 175.262 134.494 175.262 133.766V133.662C175.262 132.934 174.846 132.375 174.235 132.375H174.209C173.598 132.375 173.182 132.934 173.182 133.662V133.766C173.182 134.494 173.598 135.053 174.209 135.053ZM179.526 140.604C178.252 140.604 177.407 139.603 177.407 138.277V138.108C177.407 136.769 178.252 135.768 179.526 135.768H179.617C180.891 135.768 181.736 136.769 181.736 138.108V138.277C181.736 139.603 180.891 140.604 179.617 140.604H179.526ZM179.552 139.525H179.591C180.202 139.525 180.605 138.966 180.605 138.238V138.134C180.605 137.406 180.202 136.847 179.591 136.847H179.552C178.941 136.847 178.538 137.406 178.538 138.134V138.238C178.538 138.966 178.941 139.525 179.552 139.525Z" fill="white"/>
<path d="M113.613 201.4H114.9V210.5H113.574V203.857C113.002 204.377 112.196 204.663 111.364 204.663V203.519C112.651 203.467 113.613 202.583 113.613 201.4ZM119.926 210.63C118.262 210.63 117.014 209.824 116.598 208.433L117.859 208.108C118.21 208.966 118.964 209.369 119.952 209.369C121.356 209.369 122.071 208.602 122.071 207.471C122.071 206.353 121.369 205.703 120.199 205.703C119.354 205.703 118.678 206.002 118.132 206.535L116.988 206.223L117.508 201.4H122.851V202.635H118.587L118.301 205.196C118.925 204.767 119.575 204.546 120.407 204.546C122.279 204.546 123.449 205.651 123.449 207.419C123.449 209.33 122.071 210.63 119.926 210.63ZM126.564 206.132C125.303 206.132 124.445 205.131 124.445 203.792V203.623C124.445 202.297 125.303 201.296 126.564 201.296H126.668C127.929 201.296 128.774 202.297 128.774 203.623V203.792C128.774 205.131 127.929 206.132 126.668 206.132H126.564ZM124.965 210.5L132.089 201.361H133.623L126.499 210.5H124.965ZM126.603 205.053H126.629C127.24 205.053 127.656 204.494 127.656 203.766V203.662C127.656 202.934 127.24 202.375 126.629 202.375H126.603C125.992 202.375 125.576 202.934 125.576 203.662V203.766C125.576 204.494 125.992 205.053 126.603 205.053ZM131.92 210.604C130.646 210.604 129.801 209.603 129.801 208.277V208.108C129.801 206.769 130.646 205.768 131.92 205.768H132.011C133.285 205.768 134.13 206.769 134.13 208.108V208.277C134.13 209.603 133.285 210.604 132.011 210.604H131.92ZM131.946 209.525H131.985C132.596 209.525 132.999 208.966 132.999 208.238V208.134C132.999 207.406 132.596 206.847 131.985 206.847H131.946C131.335 206.847 130.932 207.406 130.932 208.134V208.238C130.932 208.966 131.335 209.525 131.946 209.525Z" fill="white"/>
<path d="M46.613 192.4H47.9V201.5H46.574V194.857C46.002 195.377 45.196 195.663 44.364 195.663V194.519C45.651 194.467 46.613 193.583 46.613 192.4ZM51.7038 192.4H52.9908V201.5H51.6648V194.857C51.0928 195.377 50.2868 195.663 49.4548 195.663V194.519C50.7418 194.467 51.7038 193.583 51.7038 192.4ZM56.8596 197.132C55.5986 197.132 54.7406 196.131 54.7406 194.792V194.623C54.7406 193.297 55.5986 192.296 56.8596 192.296H56.9636C58.2246 192.296 59.0696 193.297 59.0696 194.623V194.792C59.0696 196.131 58.2246 197.132 56.9636 197.132H56.8596ZM55.2606 201.5L62.3846 192.361H63.9186L56.7946 201.5H55.2606ZM56.8986 196.053H56.9246C57.5356 196.053 57.9516 195.494 57.9516 194.766V194.662C57.9516 193.934 57.5356 193.375 56.9246 193.375H56.8986C56.2876 193.375 55.8716 193.934 55.8716 194.662V194.766C55.8716 195.494 56.2876 196.053 56.8986 196.053ZM62.2156 201.604C60.9416 201.604 60.0966 200.603 60.0966 199.277V199.108C60.0966 197.769 60.9416 196.768 62.2156 196.768H62.3066C63.5806 196.768 64.4256 197.769 64.4256 199.108V199.277C64.4256 200.603 63.5806 201.604 62.3066 201.604H62.2156ZM62.2416 200.525H62.2806C62.8916 200.525 63.2946 199.966 63.2946 199.238V199.134C63.2946 198.406 62.8916 197.847 62.2806 197.847H62.2416C61.6306 197.847 61.2276 198.406 61.2276 199.134V199.238C61.2276 199.966 61.6306 200.525 62.2416 200.525Z" fill="white"/>
<path d="M30.858 143.485L32.132 143.147C32.444 143.979 33.081 144.408 33.952 144.408C35.798 144.408 36.344 142.549 36.344 141.015C35.772 141.886 34.732 142.315 33.705 142.315C32.08 142.315 30.585 141.275 30.585 139.377C30.585 137.531 31.976 136.27 34.056 136.27C36.37 136.27 37.683 137.869 37.683 140.794C37.683 143.823 36.305 145.63 33.965 145.63C32.431 145.63 31.3 144.837 30.858 143.485ZM36.214 139.377C35.928 138.155 35.2 137.518 34.069 137.518C32.808 137.518 31.95 138.298 31.95 139.416C31.95 140.482 32.73 141.158 33.874 141.158C34.927 141.158 36.214 140.573 36.214 139.377ZM40.968 141.132C39.707 141.132 38.849 140.131 38.849 138.792V138.623C38.849 137.297 39.707 136.296 40.968 136.296H41.072C42.333 136.296 43.178 137.297 43.178 138.623V138.792C43.178 140.131 42.333 141.132 41.072 141.132H40.968ZM39.369 145.5L46.493 136.361H48.027L40.903 145.5H39.369ZM41.007 140.053H41.033C41.644 140.053 42.06 139.494 42.06 138.766V138.662C42.06 137.934 41.644 137.375 41.033 137.375H41.007C40.396 137.375 39.98 137.934 39.98 138.662V138.766C39.98 139.494 40.396 140.053 41.007 140.053ZM46.324 145.604C45.05 145.604 44.205 144.603 44.205 143.277V143.108C44.205 141.769 45.05 140.768 46.324 140.768H46.415C47.689 140.768 48.534 141.769 48.534 143.108V143.277C48.534 144.603 47.689 145.604 46.415 145.604H46.324ZM46.35 144.525H46.389C47 144.525 47.403 143.966 47.403 143.238V143.134C47.403 142.406 47 141.847 46.389 141.847H46.35C45.739 141.847 45.336 142.406 45.336 143.134V143.238C45.336 143.966 45.739 144.525 46.35 144.525Z" fill="white"/>
<path d="M58.913 107.63C57.223 107.63 55.949 106.824 55.546 105.433L56.794 105.108C57.145 105.966 57.834 106.369 58.926 106.369C60.2 106.369 60.993 105.602 60.993 104.432C60.993 103.366 60.33 102.742 59.095 102.742C58.64 102.742 58.211 102.82 57.821 103.054L57.327 102.17L60.135 99.635H55.988V98.4H61.89V99.505L59.342 101.702C59.42 101.689 59.511 101.689 59.602 101.689C61.136 101.715 62.397 102.768 62.397 104.445C62.397 106.343 61.058 107.63 58.913 107.63ZM65.7395 103.132C64.4785 103.132 63.6205 102.131 63.6205 100.792V100.623C63.6205 99.297 64.4785 98.296 65.7395 98.296H65.8435C67.1045 98.296 67.9495 99.297 67.9495 100.623V100.792C67.9495 102.131 67.1045 103.132 65.8435 103.132H65.7395ZM64.1405 107.5L71.2645 98.361H72.7985L65.6745 107.5H64.1405ZM65.7785 102.053H65.8045C66.4155 102.053 66.8315 101.494 66.8315 100.766V100.662C66.8315 99.934 66.4155 99.375 65.8045 99.375H65.7785C65.1675 99.375 64.7515 99.934 64.7515 100.662V100.766C64.7515 101.494 65.1675 102.053 65.7785 102.053ZM71.0955 107.604C69.8215 107.604 68.9765 106.603 68.9765 105.277V105.108C68.9765 103.769 69.8215 102.768 71.0955 102.768H71.1865C72.4605 102.768 73.3055 103.769 73.3055 105.108V105.277C73.3055 106.603 72.4605 107.604 71.1865 107.604H71.0955ZM71.1215 106.525H71.1605C71.7715 106.525 72.1745 105.966 72.1745 105.238V105.134C72.1745 104.406 71.7715 103.847 71.1605 103.847H71.1215C70.5105 103.847 70.1075 104.406 70.1075 105.134V105.238C70.1075 105.966 70.5105 106.525 71.1215 106.525Z" fill="white"/>
</svg>
