<svg width="24" height="24" viewBox="0 0 24 24" fill="none" xmlns="http://www.w3.org/2000/svg">
<g clip-path="url(#clip0_3702_13200)">
<path fill-rule="evenodd" clip-rule="evenodd" d="M12 2.25C10.7196 2.25 9.45176 2.50219 8.26884 2.99217C7.08591 3.48216 6.01108 4.20034 5.10571 5.10571C4.20034 6.01108 3.48216 7.08591 2.99217 8.26884C2.50219 9.45176 2.25 10.7196 2.25 12C2.25 13.2804 2.50219 14.5482 2.99217 15.7312C3.48216 16.9141 4.20034 17.9889 5.10571 18.8943C6.01108 19.7997 7.08591 20.5178 8.26884 21.0078C9.45176 21.4978 10.7196 21.75 12 21.75C13.2804 21.75 14.5482 21.4978 15.7312 21.0078C16.9141 20.5178 17.9889 19.7997 18.8943 18.8943C19.7997 17.9889 20.5178 16.9141 21.0078 15.7312C21.4978 14.5482 21.75 13.2804 21.75 12C21.75 10.7196 21.4978 9.45176 21.0078 8.26884C20.5178 7.08591 19.7997 6.01108 18.8943 5.10571C17.9889 4.20034 16.9141 3.48216 15.7312 2.99217C14.5482 2.50219 13.2804 2.25 12 2.25ZM15.5303 9.46967C15.8232 9.76256 15.8232 10.2374 15.5303 10.5303L11.5303 14.5303C11.2374 14.8232 10.7626 14.8232 10.4697 14.5303L8.46967 12.5303C8.17678 12.2374 8.17678 11.7626 8.46967 11.4697C8.76256 11.1768 9.23744 11.1768 9.53033 11.4697L11 12.9393L14.4697 9.46967C14.7626 9.17678 15.2374 9.17678 15.5303 9.46967Z" fill="#210529"/>
</g>
<defs>
<clipPath id="clip0_3702_13200">
<rect width="24" height="24" fill="white"/>
</clipPath>
</defs>
</svg>
