<svg width="24" height="24" viewBox="0 0 24 24" fill="none" xmlns="http://www.w3.org/2000/svg">
<path d="M5 18.6263C5.98668 19.2955 6.97333 19.8232 7.95997 20.2095L10 15H14L16.081 20.1934C17.0672 19.8034 18.0534 19.2721 19.0396 18.5994L17 10L18 8L20 9L21.5 7.5L19 3C13.948 3.218 13.01 6.133 12 9H7L5 18.6263Z" fill="#210529"/>
<path d="M3.5 17.5C9.167 22.167 14.833 22.167 20.5 17.5M12 9C13.01 6.133 13.948 3.218 19 3L21.5 7.5L20 9L18 8L17 10L19.0396 18.5994C18.0534 19.2721 17.0672 19.8034 16.081 20.1934L14 15H10L7.95997 20.2095C6.97333 19.8232 5.98668 19.2955 5 18.6263L7 9H12ZM12 9H6C5.20435 9 4.44129 9.31607 3.87868 9.87868C3.31607 10.4413 3 11.2044 3 12" stroke="#210529" stroke-width="1.5" stroke-linecap="round" stroke-linejoin="round"/>
</svg>
