<svg width="24" height="24" viewBox="0 0 24 24" fill="none" xmlns="http://www.w3.org/2000/svg">
<path fill-rule="evenodd" clip-rule="evenodd" d="M8.71018 3.70411C9.83244 3.23926 11.0353 3 12.25 3C13.4647 3 14.6676 3.23926 15.7898 3.70411C16.9121 4.16897 17.9318 4.85032 18.7907 5.70926C19.6497 6.5682 20.331 7.58792 20.7959 8.71018C21.2607 9.83244 21.5 11.0353 21.5 12.25C21.5 13.4647 21.2607 14.6676 20.7959 15.7898C20.427 16.6805 19.9217 17.5065 19.2995 18.2389C19.1377 18.4293 18.968 18.6135 18.7907 18.7907C18.6135 18.968 18.4293 19.1377 18.2389 19.2995C17.5065 19.9217 16.6805 20.427 15.7898 20.7959C14.6676 21.2607 13.4647 21.5 12.25 21.5C11.0353 21.5 9.83244 21.2607 8.71018 20.7959C7.58792 20.331 6.5682 19.6497 5.70926 18.7907C4.85032 17.9318 4.16897 16.9121 3.70411 15.7898C3.23926 14.6676 3 13.4647 3 12.25C3 11.0353 3.23926 9.83244 3.70411 8.71018C4.16897 7.58792 4.85032 6.5682 5.70926 5.70926C6.5682 4.85032 7.58792 4.16897 8.71018 3.70411ZM12.4183 8.02436C11.9313 7.96507 11.4343 8.01423 10.9708 8.16932C10.5073 8.32444 10.0859 8.58288 9.75 8.92915C9.4616 9.22647 9.46884 9.70129 9.76617 9.98968C10.0635 10.2781 10.5383 10.2708 10.8267 9.97352C10.986 9.80933 11.1976 9.67519 11.4469 9.59178C11.6962 9.50835 11.9685 9.48068 12.237 9.51337C12.5054 9.54605 12.7537 9.63707 12.9599 9.77168C13.1657 9.90609 13.319 10.0768 13.4153 10.2608C13.5112 10.4439 13.5502 10.6386 13.5352 10.8292C13.5203 11.02 13.4506 11.2122 13.323 11.3875C13.1948 11.5637 13.0109 11.7184 12.7809 11.8291C12.5507 11.9398 12.2871 12.0001 12.0155 12C11.6012 11.9998 11.2653 12.3355 11.2651 12.7497C11.2649 13.1639 11.6006 13.4998 12.0148 13.5C12.5056 13.5002 12.9924 13.3919 13.4313 13.1807C13.8703 12.9695 14.2527 12.6592 14.5358 12.2702C14.8196 11.8803 14.9931 11.4253 15.0306 10.9465C15.0682 10.4675 14.9676 9.99173 14.7443 9.56517C14.5215 9.1396 14.1865 8.7812 13.78 8.51572C13.3737 8.25044 12.9052 8.08365 12.4183 8.02436ZM12.2884 16.75C12.8406 16.75 13.2884 16.3023 13.2884 15.75C13.2884 15.1977 12.8406 14.75 12.2884 14.75C11.7361 14.75 11.2884 15.1977 11.2884 15.75C11.2884 16.3023 11.7361 16.75 12.2884 16.75Z" fill="#210529"/>
</svg>
