<svg width="122" height="31" viewBox="0 0 122 31" fill="none" xmlns="http://www.w3.org/2000/svg">
<mask id="mask0_4228_34974" style="mask-type:alpha" maskUnits="userSpaceOnUse" x="3" y="3" width="24" height="26">
<path d="M26.0057 14.04C27.2257 14.7114 27.2257 16.4449 26.0057 17.1162L6.49401 27.853C5.30579 28.5069 3.84375 27.6583 3.84375 26.315V4.84134C3.84375 3.4979 5.30579 2.64942 6.49401 3.30327L26.0057 14.04Z" fill="#C4C4C4"/>
</mask>
<g mask="url(#mask0_4228_34974)">
<path d="M4.45407 27.6439L16.6248 15.4048L4.65451 3.36719C4.17695 3.67332 3.84375 4.20187 3.84375 4.84322V26.3168C3.84375 26.864 4.08628 27.329 4.45407 27.6439Z" fill="url(#paint0_linear_4228_34974)"/>
<path d="M26.0058 14.0409C27.2259 14.7122 27.2259 16.4456 26.0058 17.1169L21.0834 19.8257L16.625 15.4036L20.8561 11.207L26.0058 14.0409Z" fill="url(#paint1_linear_4228_34974)"/>
<path d="M21.0824 19.8244L16.6239 15.4023L4.45312 27.6415C4.98834 28.0997 5.78882 28.24 6.49311 27.8524L21.0824 19.8244Z" fill="url(#paint2_linear_4228_34974)"/>
<path d="M4.65625 3.36529L16.6266 15.4028L20.8576 11.2063L6.49573 3.30327C5.87477 2.96157 5.17903 3.03017 4.65625 3.36529Z" fill="url(#paint3_linear_4228_34974)"/>
</g>
<path d="M39.3788 7.27872C39.3788 8.85099 38.4499 9.78791 36.8776 9.78791C35.2169 9.78791 34.1714 8.6258 34.1714 6.76402C34.1714 4.9344 35.2129 3.79239 36.8656 3.79239C38.1564 3.79239 39.1335 4.55641 39.3346 5.7145H38.4097C38.1926 4.99471 37.6256 4.58054 36.8696 4.58054C35.7598 4.58054 35.0923 5.39281 35.0923 6.75597C35.0923 8.14327 35.7799 8.99977 36.8857 8.99977C37.8266 8.99977 38.4781 8.3966 38.4901 7.51597V7.41544H36.9902V6.68761H39.3788V7.27872ZM43.9428 8.91131V9.69141H40.2594V3.8889H43.9428V4.66498H41.1602V6.3619H43.794V7.10983H41.1602V8.91131H43.9428ZM47.208 9.69141H46.3072V4.66498H44.5299V3.8889H48.9813V4.66498H47.208V9.69141ZM52.2907 9.69141H51.3899V3.8889H52.2907V9.69141ZM55.7006 9.69141H54.7999V4.66498H53.0225V3.8889H57.4739V4.66498H55.7006V9.69141ZM62.3918 3.79239C64.0606 3.79239 65.1101 4.94646 65.1101 6.79216C65.1101 8.63787 64.0606 9.78791 62.3918 9.78791C60.719 9.78791 59.6735 8.63787 59.6735 6.79216C59.6735 4.94646 60.719 3.79239 62.3918 3.79239ZM62.3918 4.58456C61.29 4.58456 60.5943 5.43704 60.5943 6.79216C60.5943 8.14327 61.29 8.99575 62.3918 8.99575C63.4936 8.99575 64.1852 8.14327 64.1852 6.79216C64.1852 5.43704 63.4936 4.58456 62.3918 4.58456ZM66.8472 9.69141H65.9706V3.8889H66.7869L69.7947 8.16739H69.8269V3.8889H70.7035V9.69141H69.8912L66.8834 5.41693H66.8472V9.69141Z" fill="white"/>
<path d="M45.2159 22.1182C45.2159 25.3492 43.3071 27.2745 40.0762 27.2745C36.6635 27.2745 34.515 24.8864 34.515 21.0605C34.515 17.3008 36.6552 14.954 40.0514 14.954C42.7039 14.954 44.7118 16.524 45.125 18.9038H43.2245C42.7782 17.4247 41.6131 16.5736 40.0596 16.5736C37.779 16.5736 36.4073 18.2428 36.4073 21.044C36.4073 23.8948 37.8203 25.6549 40.0927 25.6549C42.0263 25.6549 43.3649 24.4154 43.3897 22.6058V22.3992H40.3075V20.9035H45.2159V22.1182ZM50.5457 27.2414C48.0584 27.2414 46.4223 25.5309 46.4223 22.7297C46.4223 19.9367 48.0667 18.2263 50.5457 18.2263C53.0246 18.2263 54.669 19.9367 54.669 22.7297C54.669 25.5309 53.0329 27.2414 50.5457 27.2414ZM50.5457 25.7706C51.9504 25.7706 52.8511 24.6633 52.8511 22.7297C52.8511 20.8044 51.9422 19.6971 50.5457 19.6971C49.1492 19.6971 48.2402 20.8044 48.2402 22.7297C48.2402 24.6633 49.1492 25.7706 50.5457 25.7706ZM59.784 27.2414C57.2967 27.2414 55.6606 25.5309 55.6606 22.7297C55.6606 19.9367 57.305 18.2263 59.784 18.2263C62.2629 18.2263 63.9073 19.9367 63.9073 22.7297C63.9073 25.5309 62.2712 27.2414 59.784 27.2414ZM59.784 25.7706C61.1887 25.7706 62.0894 24.6633 62.0894 22.7297C62.0894 20.8044 61.1804 19.6971 59.784 19.6971C58.3875 19.6971 57.4785 20.8044 57.4785 22.7297C57.4785 24.6633 58.3875 25.7706 59.784 25.7706ZM68.9892 25.6301C70.3857 25.6301 71.3029 24.498 71.3029 22.7049C71.3029 20.9201 70.3857 19.7467 68.9892 19.7467C67.6175 19.7467 66.7251 20.8953 66.7251 22.7049C66.7251 24.5228 67.6175 25.6301 68.9892 25.6301ZM69.0057 30.3484C66.9564 30.3484 65.436 29.2577 65.2129 27.7538H67.006C67.2622 28.4809 68.0554 28.9602 69.0718 28.9602C70.4683 28.9602 71.2946 28.1669 71.2946 26.977V25.5475H71.2616C70.774 26.4895 69.7494 27.1092 68.5099 27.1092C66.3284 27.1092 64.8989 25.407 64.8989 22.6967C64.8989 19.9615 66.3202 18.2428 68.5512 18.2428C69.7825 18.2428 70.7906 18.8625 71.3194 19.8706H71.3525V18.3833H73.0877V26.9192C73.0877 28.9932 71.4847 30.3484 69.0057 30.3484ZM74.9222 27.0762V15.1523H76.707V27.0762H74.9222ZM82.1773 19.6641C80.9295 19.6641 80.0536 20.6143 79.9627 21.9282H84.3092C84.2679 20.5978 83.425 19.6641 82.1773 19.6641ZM84.3009 24.5228H85.9949C85.747 26.1094 84.2431 27.2414 82.2517 27.2414C79.6983 27.2414 78.1531 25.5144 78.1531 22.771C78.1531 20.0442 79.7231 18.2263 82.1773 18.2263C84.5902 18.2263 86.0941 19.9285 86.0941 22.5645V23.1759H79.9545V23.2834C79.9545 24.7955 80.8634 25.7954 82.293 25.7954C83.3094 25.7954 84.0613 25.2831 84.3009 24.5228ZM91.1346 15.1523H95.605C97.9187 15.1523 99.5301 16.7471 99.5301 19.0691C99.5301 21.3993 97.8857 23.0024 95.5472 23.0024H92.9856V27.0762H91.1346V15.1523ZM92.9856 16.7141V21.4489H95.1092C96.7206 21.4489 97.6378 20.5813 97.6378 19.0774C97.6378 17.5735 96.7206 16.7141 95.1175 16.7141H92.9856ZM101.001 27.0762V15.1523H102.786V27.0762H101.001ZM107.661 25.8119C108.909 25.8119 109.884 24.9525 109.884 23.8205V23.1346L107.744 23.2668C106.678 23.3412 106.075 23.8122 106.075 24.5559C106.075 25.3161 106.703 25.8119 107.661 25.8119ZM107.165 27.2249C105.463 27.2249 104.273 26.1672 104.273 24.6055C104.273 23.085 105.438 22.1513 107.504 22.0356L109.884 21.8951V21.2258C109.884 20.259 109.231 19.6806 108.14 19.6806C107.107 19.6806 106.463 20.1764 106.306 20.9531H104.62C104.719 19.3831 106.058 18.2263 108.206 18.2263C110.314 18.2263 111.66 19.3418 111.66 21.0853V27.0762H109.95V25.6466H109.909C109.405 26.6134 108.306 27.2249 107.165 27.2249ZM114.255 30.3154C114.115 30.3154 113.66 30.2988 113.528 30.274V28.828C113.66 28.861 113.958 28.861 114.106 28.861C114.941 28.861 115.379 28.514 115.652 27.6215C115.652 27.605 115.809 27.0927 115.809 27.0844L112.669 18.3833H114.602L116.808 25.4566H116.833L119.04 18.3833H120.924L117.66 27.5306C116.916 29.6378 116.065 30.3154 114.255 30.3154Z" fill="white"/>
<defs>
<linearGradient id="paint0_linear_4228_34974" x1="12.1869" y1="10.651" x2="3.91208" y2="18.9939" gradientUnits="userSpaceOnUse">
<stop stop-color="#00C3FF"/>
<stop offset="1" stop-color="#1BE2FA"/>
</linearGradient>
<linearGradient id="paint1_linear_4228_34974" x1="16.625" y1="15.4037" x2="27.6309" y2="15.4037" gradientUnits="userSpaceOnUse">
<stop stop-color="#FFCE00"/>
<stop offset="1" stop-color="#FFEA00"/>
</linearGradient>
<linearGradient id="paint2_linear_4228_34974" x1="4.19788" y1="29.1355" x2="18.838" y2="17.3983" gradientUnits="userSpaceOnUse">
<stop stop-color="#DE2453"/>
<stop offset="1" stop-color="#FE3944"/>
</linearGradient>
<linearGradient id="paint3_linear_4228_34974" x1="4.91056" y1="2.02175" x2="18.8431" y2="13.4017" gradientUnits="userSpaceOnUse">
<stop stop-color="#11D574"/>
<stop offset="1" stop-color="#01F176"/>
</linearGradient>
</defs>
</svg>
