<svg width="107" height="31" viewBox="0 0 107 31" fill="none" xmlns="http://www.w3.org/2000/svg">
<path d="M20.385 1.92383C20.4477 1.92383 20.5103 1.92383 20.5765 1.92383C20.7302 3.8225 20.0055 5.24119 19.1247 6.26855C18.2605 7.28883 17.0771 8.27836 15.1631 8.12821C15.0354 6.25673 15.7613 4.94326 16.6409 3.91826C17.4566 2.96302 18.9521 2.11299 20.385 1.92383Z" fill="#210529"/>
<path d="M26.1838 21.6861C26.1838 21.705 26.1838 21.7215 26.1838 21.7393C25.6459 23.3684 24.8786 24.7646 23.9423 26.0603C23.0875 27.2367 22.0401 28.8197 20.1698 28.8197C18.5536 28.8197 17.4802 27.7805 15.8239 27.7521C14.0718 27.7237 13.1083 28.6211 11.5063 28.8469C11.3231 28.8469 11.1398 28.8469 10.9601 28.8469C9.7838 28.6766 8.83446 27.745 8.14285 26.9056C6.10349 24.4253 4.52757 21.2214 4.23438 17.1214C4.23438 16.7195 4.23438 16.3187 4.23438 15.9167C4.35851 12.9824 5.78429 10.5967 7.67942 9.44043C8.67959 8.82566 10.0545 8.30193 11.5855 8.53602C12.2417 8.63769 12.912 8.86231 13.4996 9.08457C14.0564 9.29856 14.7527 9.67806 15.4124 9.65796C15.8593 9.64495 16.3038 9.41205 16.7543 9.24772C18.0737 8.77128 19.367 8.22509 21.0718 8.48163C23.1206 8.79138 24.5748 9.7017 25.4733 11.1062C23.7401 12.2092 22.3699 13.8715 22.604 16.71C22.8121 19.2885 24.3111 20.797 26.1838 21.6861Z" fill="#210529"/>
<path d="M34.8805 3.8889H36.9273C38.6523 3.8889 39.6737 4.95048 39.6737 6.7801C39.6737 8.61374 38.6564 9.69141 36.9273 9.69141H34.8805V3.8889ZM35.7813 4.66498V8.91131H36.8428C38.0733 8.91131 38.7529 8.15935 38.7529 6.78814C38.7529 5.42096 38.0693 4.66498 36.8428 4.66498H35.7813ZM43.0708 9.77183C41.8604 9.77183 41.0642 8.93945 41.0642 7.57629C41.0642 6.21714 41.8644 5.38477 43.0708 5.38477C44.2771 5.38477 45.0773 6.21714 45.0773 7.57629C45.0773 8.93945 44.2811 9.77183 43.0708 9.77183ZM43.0708 9.05607C43.7544 9.05607 44.1927 8.51723 44.1927 7.57629C44.1927 6.63936 43.7503 6.10053 43.0708 6.10053C42.3912 6.10053 41.9489 6.63936 41.9489 7.57629C41.9489 8.51723 42.3912 9.05607 43.0708 9.05607ZM52.1376 5.46117L50.9796 9.69141H50.0748L49.1861 6.52275H49.166L48.2854 9.69141H47.3887L46.2266 5.46117H47.0951L47.8672 8.79067H47.8833L48.7639 5.46117H49.6003L50.485 8.79067H50.5051L51.2771 5.46117H52.1376ZM53.492 9.69141V5.46117H54.3203V6.16889H54.3404C54.5696 5.68635 55.02 5.38879 55.6714 5.38879C56.6043 5.38879 57.1391 5.98391 57.1391 6.95301V9.69141H56.2665V7.1219C56.2665 6.48656 55.969 6.13672 55.3658 6.13672C54.7546 6.13672 54.3605 6.571 54.3605 7.22645V9.69141H53.492ZM58.8353 9.69141V3.8889H59.7038V9.69141H58.8353ZM63.2376 9.77183C62.0272 9.77183 61.231 8.93945 61.231 7.57629C61.231 6.21714 62.0313 5.38477 63.2376 5.38477C64.4439 5.38477 65.2441 6.21714 65.2441 7.57629C65.2441 8.93945 64.448 9.77183 63.2376 9.77183ZM63.2376 9.05607C63.9212 9.05607 64.3595 8.51723 64.3595 7.57629C64.3595 6.63936 63.9172 6.10053 63.2376 6.10053C62.558 6.10053 62.1157 6.63936 62.1157 7.57629C62.1157 8.51723 62.558 9.05607 63.2376 9.05607ZM68.219 9.07617C68.8262 9.07617 69.3007 8.65797 69.3007 8.10708V7.77332L68.2592 7.83766C67.7405 7.87385 67.4469 8.10306 67.4469 8.46496C67.4469 8.8349 67.7525 9.07617 68.219 9.07617ZM67.9777 9.76379C67.1494 9.76379 66.5703 9.24908 66.5703 8.48909C66.5703 7.7492 67.1373 7.29481 68.1426 7.23851L69.3007 7.17015V6.84444C69.3007 6.37397 68.983 6.09249 68.4522 6.09249C67.9496 6.09249 67.6359 6.33375 67.5595 6.71174H66.7392C66.7875 5.94772 67.4389 5.38477 68.4844 5.38477C69.5098 5.38477 70.1652 5.92762 70.1652 6.77608V9.69141H69.3328V8.99575H69.3127C69.0674 9.46622 68.5326 9.76379 67.9777 9.76379ZM73.4215 9.76379C72.3519 9.76379 71.6442 8.91131 71.6442 7.57629C71.6442 6.24127 72.3519 5.39281 73.4135 5.39281C74.0207 5.39281 74.5032 5.69841 74.7405 6.16487H74.7566V3.8889H75.6291V9.69141H74.7847V8.97162H74.7686C74.5193 9.45416 74.0368 9.76379 73.4215 9.76379ZM73.6507 6.12465C72.9631 6.12465 72.5329 6.68761 72.5329 7.57629C72.5329 8.46898 72.9631 9.02792 73.6507 9.02792C74.3183 9.02792 74.7646 8.46094 74.7646 7.57629C74.7646 6.69968 74.3183 6.12465 73.6507 6.12465ZM81.6592 9.77183C80.4489 9.77183 79.6527 8.93945 79.6527 7.57629C79.6527 6.21714 80.4529 5.38477 81.6592 5.38477C82.8656 5.38477 83.6658 6.21714 83.6658 7.57629C83.6658 8.93945 82.8696 9.77183 81.6592 9.77183ZM81.6592 9.05607C82.3428 9.05607 82.7811 8.51723 82.7811 7.57629C82.7811 6.63936 82.3388 6.10053 81.6592 6.10053C80.9797 6.10053 80.5373 6.63936 80.5373 7.57629C80.5373 8.51723 80.9797 9.05607 81.6592 9.05607ZM85.1609 9.69141V5.46117H85.9892V6.16889H86.0093C86.2385 5.68635 86.6889 5.38879 87.3403 5.38879C88.2732 5.38879 88.808 5.98391 88.808 6.95301V9.69141H87.9354V7.1219C87.9354 6.48656 87.6379 6.13672 87.0347 6.13672C86.4235 6.13672 86.0294 6.571 86.0294 7.22645V9.69141H85.1609ZM93.2216 4.4599H94.0942V5.46117H94.8984V6.14878H94.0942V8.48104C94.0942 8.84697 94.2551 9.01183 94.6089 9.01183C94.6974 9.01183 94.8381 9.00379 94.8944 8.99173V9.67934C94.7979 9.70347 94.6049 9.71955 94.4119 9.71955C93.5554 9.71955 93.2216 9.39384 93.2216 8.57755V6.14878H92.6064V5.46117H93.2216V4.4599ZM96.4699 9.69141V3.8889H97.3304V6.16889H97.3505C97.5838 5.67429 98.0462 5.38879 98.6896 5.38879C99.6185 5.38879 100.173 6.00804 100.173 6.96507V9.69141H99.3008V7.13396C99.3008 6.51068 98.9871 6.13672 98.3759 6.13672C97.7325 6.13672 97.3385 6.57904 97.3385 7.24655V9.69141H96.4699ZM103.607 6.08444C102.999 6.08444 102.573 6.54687 102.529 7.18624H104.644C104.624 6.53883 104.214 6.08444 103.607 6.08444ZM104.64 8.44887H105.464C105.344 9.22093 104.612 9.77183 103.643 9.77183C102.4 9.77183 101.648 8.93141 101.648 7.59639C101.648 6.26942 102.412 5.38477 103.607 5.38477C104.781 5.38477 105.513 6.21312 105.513 7.49586V7.79343H102.525V7.8457C102.525 8.58157 102.967 9.06813 103.663 9.06813C104.158 9.06813 104.523 8.81882 104.64 8.44887Z" fill="#210529"/>
<path d="M42.7121 27.0762L41.6214 23.8535H37.0766L35.9859 27.0762H34.0605L38.3657 15.1523H40.3654L44.6705 27.0762H42.7121ZM39.3242 17.1355L37.5476 22.3661H41.1504L39.3738 17.1355H39.3242ZM50.2978 18.2428C52.5041 18.2428 53.9584 19.9781 53.9584 22.7297C53.9584 25.4814 52.5123 27.2249 50.3308 27.2249C49.0831 27.2249 48.0915 26.6134 47.5957 25.6466H47.5544V29.9518H45.7695V18.3833H47.4965V19.8789H47.5296C48.0419 18.8791 49.0418 18.2428 50.2978 18.2428ZM49.8268 25.7127C51.2398 25.7127 52.124 24.5559 52.124 22.7297C52.124 20.9118 51.2398 19.7467 49.8268 19.7467C48.4633 19.7467 47.5461 20.9366 47.5461 22.7297C47.5461 24.5394 48.4551 25.7127 49.8268 25.7127ZM59.8666 18.2428C62.0729 18.2428 63.5272 19.9781 63.5272 22.7297C63.5272 25.4814 62.0811 27.2249 59.8996 27.2249C58.6519 27.2249 57.6603 26.6134 57.1645 25.6466H57.1232V29.9518H55.3383V18.3833H57.0654V19.8789H57.0984C57.6107 18.8791 58.6106 18.2428 59.8666 18.2428ZM59.3956 25.7127C60.8086 25.7127 61.6928 24.5559 61.6928 22.7297C61.6928 20.9118 60.8086 19.7467 59.3956 19.7467C58.0322 19.7467 57.1149 20.9366 57.1149 22.7297C57.1149 24.5394 58.0239 25.7127 59.3956 25.7127ZM68.0307 23.7544H69.8568C69.989 24.936 71.1376 25.7127 72.7076 25.7127C74.2115 25.7127 75.294 24.936 75.294 23.87C75.294 22.9446 74.6412 22.3909 73.096 22.0108L71.5508 21.639C69.361 21.1101 68.3447 20.0855 68.3447 18.4246C68.3447 16.367 70.1378 14.954 72.6829 14.954C75.2031 14.954 76.9301 16.367 76.988 18.4246H75.1866C75.0792 17.2347 74.0959 16.5158 72.6581 16.5158C71.2203 16.5158 70.2369 17.2429 70.2369 18.3006C70.2369 19.1435 70.8649 19.6393 72.4019 20.0194L73.7158 20.3416C76.1617 20.9201 77.178 21.9034 77.178 23.6469C77.178 25.878 75.4015 27.2745 72.5754 27.2745C69.9312 27.2745 68.1463 25.9111 68.0307 23.7544ZM79.1447 16.3257H80.9378V18.3833H82.5905V19.7963H80.9378V24.5889C80.9378 25.3409 81.2683 25.6797 81.9955 25.6797C82.1773 25.6797 82.4665 25.6632 82.5822 25.6384V27.0514C82.3839 27.101 81.9872 27.134 81.5906 27.134C79.8305 27.134 79.1447 26.4647 79.1447 24.7873V19.7963H77.8804V18.3833H79.1447V16.3257ZM87.5814 27.2414C85.0942 27.2414 83.4581 25.5309 83.4581 22.7297C83.4581 19.9367 85.1025 18.2263 87.5814 18.2263C90.0604 18.2263 91.7048 19.9367 91.7048 22.7297C91.7048 25.5309 90.0687 27.2414 87.5814 27.2414ZM87.5814 25.7706C88.9862 25.7706 89.8869 24.6633 89.8869 22.7297C89.8869 20.8044 88.9779 19.6971 87.5814 19.6971C86.185 19.6971 85.276 20.8044 85.276 22.7297C85.276 24.6633 86.185 25.7706 87.5814 25.7706ZM93.0847 27.0762V18.3833H94.787V19.8624H94.8283C95.1175 18.846 95.8942 18.2428 96.9189 18.2428C97.175 18.2428 97.3982 18.2841 97.5304 18.3089V19.9698C97.3899 19.912 97.0759 19.8706 96.7288 19.8706C95.5802 19.8706 94.8696 20.6391 94.8696 21.8703V27.0762H93.0847ZM101.893 19.6641C100.646 19.6641 99.7697 20.6143 99.6788 21.9282H104.025C103.984 20.5978 103.141 19.6641 101.893 19.6641ZM104.017 24.5228H105.711C105.463 26.1094 103.959 27.2414 101.968 27.2414C99.4144 27.2414 97.8692 25.5144 97.8692 22.771C97.8692 20.0442 99.4392 18.2263 101.893 18.2263C104.306 18.2263 105.81 19.9285 105.81 22.5645V23.1759H99.6705V23.2834C99.6705 24.7955 100.579 25.7954 102.009 25.7954C103.025 25.7954 103.777 25.2831 104.017 24.5228Z" fill="#210529"/>
</svg>
