<svg width="24" height="24" viewBox="0 0 24 24" fill="none" xmlns="http://www.w3.org/2000/svg">
<path fill-rule="evenodd" clip-rule="evenodd" d="M6 8.13391L3.21491 10.919C2.43701 11.6969 2 12.7519 2 13.852C2 14.9522 2.43701 16.0072 3.21491 16.7851C3.9928 17.563 5.04785 18 6.14795 18C7.24805 18 8.3031 17.563 9.08099 16.7851L12 13.8661L6 8.13391ZM7.06066 7.07325L13.0607 12.8054L15.7851 10.081C16.563 9.3031 17 8.24805 17 7.14795C17 6.04785 16.563 4.9928 15.7851 4.21491C15.0072 3.43701 13.9522 3 12.852 3C11.7519 3 10.6969 3.43701 9.91901 4.21491L7.06066 7.07325Z" fill="#210529"/>
<path fill-rule="evenodd" clip-rule="evenodd" d="M14.6979 20.2575C14.6892 20.2448 14.6806 20.232 14.672 20.2192L14.6979 20.2575ZM18 22C17.1861 22 16.3978 21.752 15.7362 21.2978L21.3122 15.7573C21.7572 16.4146 22 17.1948 22 18C22 19.0609 21.5786 20.0783 20.8284 20.8284C20.0783 21.5786 19.0609 22 18 22Z" fill="#210529"/>
<path d="M20.3398 14.7557C19.6629 14.2675 18.8452 14 18 14C16.9391 14 15.9217 14.4214 15.1716 15.1716C14.4214 15.9217 14 16.9391 14 18C14 18.7956 14.2371 19.5669 14.672 20.2192L14.6979 20.2575L20.3398 14.7557Z" fill="#210529"/>
<path d="M15.1716 20.8284C15.3462 21.0031 15.5354 21.1599 15.7362 21.2978L21.3122 15.7573C21.1709 15.5486 21.0092 15.3523 20.8284 15.1716C20.676 15.0191 20.5124 14.8802 20.3398 14.7557L14.6979 20.2575C14.8368 20.4607 14.9951 20.6519 15.1716 20.8284Z" fill="#210529"/>
</svg>
