<svg width="24" height="24" viewBox="0 0 24 24" fill="none" xmlns="http://www.w3.org/2000/svg">
<path d="M19.8074 12.895L21.244 6.97211C21.3103 6.6627 21.244 6.33119 21.0451 6.08809C20.8462 5.84499 20.5588 5.69028 20.2273 5.69028H6.4146L5.90629 3.70125C5.79579 3.23714 5.37588 2.92773 4.91177 2.92773H2.03872C1.46411 2.92773 1 3.39184 1 3.96645C1 4.54106 1.46411 5.00517 2.03872 5.00517H4.09406L6.6577 15.2156C6.7682 15.6797 7.18811 15.9891 7.65222 15.9891H13.6193L13.5318 11.5941C13.5171 10.8567 14.2784 10.3577 14.9486 10.6653L19.8074 12.895Z" fill="#210529"/>
<path d="M9.08824 20.6081C10.1013 20.6081 10.9226 19.7869 10.9226 18.7738C10.9226 17.7607 10.1013 16.9395 9.08824 16.9395C8.07516 16.9395 7.25391 17.7607 7.25391 18.7738C7.25391 19.7869 8.07516 20.6081 9.08824 20.6081Z" fill="#210529"/>
<path d="M21.9063 19.99L19.9835 17.338L21.1769 16.8517C21.6632 16.6528 21.7074 15.9898 21.2432 15.7246L15.7623 12.5864C15.2982 12.3212 14.7236 12.719 14.8341 13.2494L16.0939 19.4375C16.2044 19.9458 16.8453 20.1226 17.1989 19.7248L18.0387 18.7524L19.9614 21.4044C20.1161 21.6254 20.4034 21.6696 20.6244 21.5149L21.8179 20.653C22.0168 20.4983 22.061 20.1889 21.9063 19.99Z" fill="#210529"/>
</svg>
