<svg width="24" height="24" viewBox="0 0 24 24" fill="none" xmlns="http://www.w3.org/2000/svg">
<g clip-path="url(#clip0_3702_13205)">
<path d="M3.82899 3.75C3.71912 3.75 3.63008 3.78926 3.57798 3.83509C3.52897 3.8782 3.52344 3.9145 3.52344 3.92857V12.25H21.0234V3.92857C21.0234 3.9145 21.0179 3.8782 20.9689 3.83509C20.9168 3.78926 20.8278 3.75 20.7179 3.75H3.82899Z" fill="#210529"/>
<path fill-rule="evenodd" clip-rule="evenodd" d="M3.82899 2.25C3.37896 2.25 2.93104 2.4064 2.58723 2.70885C2.24032 3.01402 2.02344 3.4501 2.02344 3.92857V15.0714C2.02344 15.5499 2.24032 15.986 2.58723 16.2911C2.93104 16.5936 3.37896 16.75 3.82899 16.75H8.92394H15.6231H20.7179C21.1679 16.75 21.6158 16.5936 21.9597 16.2911C22.3066 15.986 22.5234 15.5499 22.5234 15.0714V3.92857C22.5234 3.4501 22.3066 3.01403 21.9597 2.70885C21.6158 2.4064 21.1679 2.25 20.7179 2.25H3.82899ZM3.82899 3.75C3.71912 3.75 3.63008 3.78926 3.57798 3.83509C3.52897 3.8782 3.52344 3.9145 3.52344 3.92857V12.25V13.75V15.0714C3.52344 15.0855 3.52897 15.1218 3.57798 15.1649C3.63008 15.2107 3.71912 15.25 3.82899 15.25H20.7179C20.8278 15.25 20.9168 15.2107 20.9689 15.1649C21.0179 15.1218 21.0234 15.0855 21.0234 15.0714V13.75V12.25V3.92857C21.0234 3.9145 21.0179 3.8782 20.9689 3.83509C20.9168 3.78926 20.8278 3.75 20.7179 3.75H3.82899Z" fill="#210529"/>
<path d="M3.52344 15.0714C3.52344 15.0855 3.52897 15.1218 3.57798 15.1649C3.63008 15.2107 3.71912 15.25 3.82899 15.25H20.7179C20.8278 15.25 20.9168 15.2107 20.9689 15.1649C21.0179 15.1218 21.0234 15.0855 21.0234 15.0714V13.75H3.52344V15.0714Z" fill="#210529"/>
<path fill-rule="evenodd" clip-rule="evenodd" d="M7.02344 20C7.02344 19.5858 7.35922 19.25 7.77344 19.25H8.61144H10.1231H14.4239H15.9356H16.7734C17.1877 19.25 17.5234 19.5858 17.5234 20C17.5234 20.4142 17.1877 20.75 16.7734 20.75H7.77344C7.35922 20.75 7.02344 20.4142 7.02344 20Z" fill="#210529"/>
<path d="M8.61144 19.25H10.1231H14.4239H15.9356L15.6231 16.75H8.92394L8.61144 19.25Z" fill="#210529"/>
</g>
<defs>
<clipPath id="clip0_3702_13205">
<rect width="24" height="24" fill="white"/>
</clipPath>
</defs>
</svg>
