<svg width="24" height="24" viewBox="0 0 24 24" fill="none" xmlns="http://www.w3.org/2000/svg">
<path d="M3.44849 18.9664C3.20054 19.4583 3.39616 20.0606 3.89935 20.2849C6.37442 21.3878 9.13347 22 12 22C14.7898 22.0041 17.5465 21.4186 20.0979 20.2845C20.6021 20.0603 20.7988 19.4571 20.5505 18.9644L19.2951 16.4737C19.2255 16.5658 19.1335 16.6431 19.0224 16.6967C16.8926 17.7219 14.5588 18.2529 12.1951 18.2499C9.70741 18.2533 7.25459 17.6651 5.03899 16.5339C4.935 16.4808 4.84869 16.4067 4.78258 16.3195L3.44849 18.9664Z" fill="#210529"/>
<path fill-rule="evenodd" clip-rule="evenodd" d="M5.72109 15.1979C7.72515 16.2211 9.94381 16.7531 12.194 16.7499H12.196C14.3341 16.7527 16.4452 16.2725 18.3717 15.3451C18.4741 15.2958 18.5822 15.2718 18.6888 15.2707L12.893 3.7717C12.5234 3.03849 11.4766 3.03848 11.107 3.7717L5.3893 15.1158C5.50125 15.1171 5.61462 15.1435 5.72109 15.1979ZM13.5 11.5C14.3284 11.5 15 10.8284 15 10C15 9.17157 14.3284 8.5 13.5 8.5C12.6716 8.5 12 9.17157 12 10C12 10.8284 12.6716 11.5 13.5 11.5ZM9.84593 15.2707C10.6744 15.2707 11.3459 14.5992 11.3459 13.7707C11.3459 12.9423 10.6744 12.2707 9.84593 12.2707C9.01751 12.2707 8.34593 12.9423 8.34593 13.7707C8.34593 14.5992 9.01751 15.2707 9.84593 15.2707Z" fill="#210529"/>
</svg>
