<svg width="24" height="24" viewBox="0 0 24 24" fill="none" xmlns="http://www.w3.org/2000/svg">
<path fill-rule="evenodd" clip-rule="evenodd" d="M5 6V10C5.87148 10 6.15463 10.0015 6.79548 10.2635C7.43632 10.5255 7.98406 10.9692 8.36943 11.5384C8.62326 11.9134 8.79914 12.3317 8.88963 12.7692H15.1104C15.2009 12.3317 15.3767 11.9134 15.6306 11.5384C16.0159 10.9692 16.5637 10.5255 17.2045 10.2635C17.8454 10.0015 18 10 19 10V6C19 5.20435 18.6839 4.44129 18.1213 3.87868C17.5587 3.31607 16.7957 3 16 3H8C7.20435 3 6.44129 3.31607 5.87868 3.87868C5.31607 4.44129 5 5.20435 5 6Z" fill="#210529"/>
<path d="M21.1213 10.8787C20.7018 10.4591 20.1672 10.1734 19.5853 10.0576C19.3916 10.0191 19.1956 10 19 10C18.1561 10.4762 16.463 11.8352 16.4424 13.4615V15.3077C16.4424 15.69 16.1283 16 15.7409 16C15.3536 16 15.0395 15.69 15.0395 15.3077V14.1538H8.96049V15.3077C8.96049 15.69 8.64645 16 8.25906 16C7.87167 16 7.55763 15.69 7.55763 15.3077V13.4615C7.60374 11.4308 5.87176 10.3077 5 10C4.80443 10 4.6084 10.0191 4.41473 10.0576C3.83279 10.1734 3.29824 10.4591 2.87868 10.8787C2.45912 11.2982 2.1734 11.8328 2.05765 12.4147C2.02889 12.5593 2.01095 12.7052 2.00369 12.8512C2.0021 12.8832 2.00103 12.9152 2.00047 12.9472C1.99325 13.357 2.07006 13.7659 2.22836 14.1481C2.45543 14.6962 2.83994 15.1648 3.33329 15.4944C3.82664 15.8241 4.40666 16 5 16V19L7 19H17L19 19V16C19.5933 16 20.1734 15.8241 20.6667 15.4944C21.1601 15.1648 21.5446 14.6962 21.7716 14.1481C21.93 13.7659 22.0068 13.3569 21.9995 12.9471C21.999 12.9151 21.9979 12.8832 21.9963 12.8512C21.9891 12.7052 21.9711 12.5593 21.9424 12.4147C21.8266 11.8328 21.5409 11.2982 21.1213 10.8787Z" fill="#210529"/>
<path d="M7 19V21M17 19V21" stroke="#210529" stroke-width="1.5" stroke-linecap="round" stroke-linejoin="round"/>
</svg>
