<svg width="14" height="14" viewBox="0 0 14 14" fill="none" xmlns="http://www.w3.org/2000/svg">
<path fill-rule="evenodd" clip-rule="evenodd" d="M7 0.5C6.14641 0.5 5.30117 0.668128 4.51256 0.994783C3.72394 1.32144 3.00739 1.80023 2.40381 2.40381C1.80023 3.00739 1.32144 3.72394 0.994783 4.51256C0.668127 5.30117 0.5 6.14641 0.5 7C0.5 7.85359 0.668127 8.69883 0.994783 9.48744C1.32144 10.2761 1.80023 10.9926 2.40381 11.5962C3.00739 12.1998 3.72394 12.6786 4.51256 13.0052C5.30117 13.3319 6.14641 13.5 7 13.5C7.85359 13.5 8.69883 13.3319 9.48744 13.0052C10.2761 12.6786 10.9926 12.1998 11.5962 11.5962C12.1998 10.9926 12.6786 10.2761 13.0052 9.48744C13.3319 8.69883 13.5 7.85359 13.5 7C13.5 6.14641 13.3319 5.30117 13.0052 4.51256C12.6786 3.72394 12.1998 3.00739 11.5962 2.40381C10.9926 1.80023 10.2761 1.32144 9.48744 0.994783C8.69883 0.668128 7.85359 0.5 7 0.5ZM9.35355 5.31311C9.54882 5.50838 9.54882 5.82496 9.35355 6.02022L6.68689 8.68689C6.49163 8.88215 6.17504 8.88215 5.97978 8.68689L4.64645 7.35355C4.45118 7.15829 4.45118 6.84171 4.64645 6.64645C4.84171 6.45118 5.15829 6.45118 5.35355 6.64645L6.33333 7.62623L8.64645 5.31311C8.84171 5.11785 9.15829 5.11785 9.35355 5.31311Z" fill="#1167FC"/>
</svg>
