<svg width="82" height="43" viewBox="0 0 82 43" fill="none" xmlns="http://www.w3.org/2000/svg">
<path d="M0.494529 41.4459C0.188522 41.7251 0.166761 42.1995 0.445925 42.5055C0.72509 42.8115 1.19946 42.8332 1.50547 42.5541L0.494529 41.4459ZM29.5 16L29.8057 15.3151L29.3573 15.115L28.9945 15.4459L29.5 16ZM57.5 28.5L57.1943 29.1849L57.7069 29.4137L58.0709 28.9863L57.5 28.5ZM81.2476 1.44019C81.2146 1.0273 80.8531 0.719357 80.4402 0.752389L73.7117 1.29067C73.2988 1.3237 72.9909 1.68519 73.0239 2.09809C73.0569 2.51098 73.4184 2.81892 73.8313 2.78589L79.8122 2.30742L80.2907 8.28831C80.3237 8.70121 80.6852 9.00915 81.0981 8.97611C81.511 8.94308 81.8189 8.58159 81.7859 8.16869L81.2476 1.44019ZM1.50547 42.5541L30.0055 16.5541L28.9945 15.4459L0.494529 41.4459L1.50547 42.5541ZM29.1943 16.6849L57.1943 29.1849L57.8057 27.8151L29.8057 15.3151L29.1943 16.6849ZM58.0709 28.9863L81.0709 1.98635L79.9291 1.01365L56.9291 28.0137L58.0709 28.9863Z" fill="#7A697F"/>
</svg>
