<svg width="25" height="25" viewBox="0 0 25 25" fill="none" xmlns="http://www.w3.org/2000/svg">
<path d="M20.0488 12.0505V22.0505H4.04883V12.0505" stroke="#210529" stroke-width="1.75" stroke-linecap="round" stroke-linejoin="round"/>
<path d="M22.0488 7.05054H2.04883V12.0505H22.0488V7.05054Z" stroke="#210529" stroke-width="1.75" stroke-linecap="round" stroke-linejoin="round"/>
<path d="M12.0488 22.0508V7.05078" stroke="#210529" stroke-width="1.75" stroke-linecap="round" stroke-linejoin="round"/>
<path d="M12.0488 7.05054H7.54883C6.88579 7.05054 6.2499 6.78715 5.78106 6.3183C5.31222 5.84946 5.04883 5.21358 5.04883 4.55054C5.04883 3.8875 5.31222 3.25161 5.78106 2.78277C6.2499 2.31393 6.88579 2.05054 7.54883 2.05054C11.0488 2.05054 12.0488 7.05054 12.0488 7.05054Z" stroke="#210529" stroke-width="1.75" stroke-linecap="round" stroke-linejoin="round"/>
<path d="M12.0488 7.05078H16.5488C17.2119 7.05078 17.8478 6.78739 18.3166 6.31855C18.7854 5.84971 19.0488 5.21382 19.0488 4.55078C19.0488 3.88774 18.7854 3.25186 18.3166 2.78301C17.8478 2.31417 17.2119 2.05078 16.5488 2.05078C13.0488 2.05078 12.0488 7.05078 12.0488 7.05078Z" stroke="#210529" stroke-width="1.75" stroke-linecap="round" stroke-linejoin="round"/>
</svg>
