<svg width="16" height="16" viewBox="0 0 16 16" fill="none" xmlns="http://www.w3.org/2000/svg">
<g clip-path="url(#clip0_1817_4576)">
<path fill-rule="evenodd" clip-rule="evenodd" d="M8 1.5C7.14641 1.5 6.30117 1.66813 5.51256 1.99478C4.72394 2.32144 4.00739 2.80023 3.40381 3.40381C2.80023 4.00739 2.32144 4.72394 1.99478 5.51256C1.66813 6.30117 1.5 7.14641 1.5 8C1.5 8.85359 1.66813 9.69883 1.99478 10.4874C2.32144 11.2761 2.80023 11.9926 3.40381 12.5962C4.00739 13.1998 4.72394 13.6786 5.51256 14.0052C6.30117 14.3319 7.14641 14.5 8 14.5C8.85359 14.5 9.69883 14.3319 10.4874 14.0052C11.2761 13.6786 11.9926 13.1998 12.5962 12.5962C13.1998 11.9926 13.6786 11.2761 14.0052 10.4874C14.3319 9.69883 14.5 8.85359 14.5 8C14.5 7.14641 14.3319 6.30117 14.0052 5.51256C13.6786 4.72394 13.1998 4.00739 12.5962 3.40381C11.9926 2.80023 11.2761 2.32144 10.4874 1.99478C9.69883 1.66813 8.85359 1.5 8 1.5ZM10.3536 6.31311C10.5488 6.50838 10.5488 6.82496 10.3536 7.02022L7.68689 9.68689C7.49163 9.88215 7.17504 9.88215 6.97978 9.68689L5.64645 8.35355C5.45118 8.15829 5.45118 7.84171 5.64645 7.64645C5.84171 7.45118 6.15829 7.45118 6.35355 7.64645L7.33333 8.62623L9.64645 6.31311C9.84171 6.11785 10.1583 6.11785 10.3536 6.31311Z" fill="#9E93A2"/>
</g>
<defs>
<clipPath id="clip0_1817_4576">
<rect width="16" height="16" fill="white"/>
</clipPath>
</defs>
</svg>
