<svg width="40" height="40" viewBox="0 0 40 40" fill="none" xmlns="http://www.w3.org/2000/svg">
<path fill-rule="evenodd" clip-rule="evenodd" d="M12 16.25C12 15.1228 12.4478 14.0418 13.2448 13.2448C14.0418 12.4478 15.1228 12 16.25 12H24.75C25.8772 12 26.9582 12.4478 27.7552 13.2448C28.5522 14.0418 29 15.1228 29 16.25V24.75C29 25.8772 28.5522 26.9582 27.7552 27.7552C26.9582 28.5522 25.8772 29 24.75 29H16.25C15.1228 29 14.0418 28.5522 13.2448 27.7552C12.4478 26.9582 12 25.8772 12 24.75V16.25ZM20.4998 24.9623C22.9644 24.9623 24.9623 22.9644 24.9623 20.4998C24.9623 18.0352 22.9644 16.0373 20.4998 16.0373C18.0352 16.0373 16.0373 18.0352 16.0373 20.4998C16.0373 22.9644 18.0352 24.9623 20.4998 24.9623ZM18.2459 22.7537C17.6481 22.1559 17.3123 21.3452 17.3123 20.4998C17.3123 19.6544 17.6481 18.8437 18.2459 18.2459C18.8437 17.6481 19.6544 17.3123 20.4998 17.3123C21.3452 17.3123 22.1559 17.6481 22.7537 18.2459C23.3515 18.8437 23.6873 19.6544 23.6873 20.4998C23.6873 21.3452 23.3515 22.1559 22.7537 22.7537C22.1559 23.3515 21.3452 23.6873 20.4998 23.6873C19.6544 23.6873 18.8437 23.3515 18.2459 22.7537ZM25.281 16.6748C25.8092 16.6748 26.2373 16.2467 26.2373 15.7185C26.2373 15.1904 25.8092 14.7623 25.281 14.7623C24.7529 14.7623 24.3248 15.1904 24.3248 15.7185C24.3248 16.2467 24.7529 16.6748 25.281 16.6748Z" fill="white"/>
</svg>
