<svg width="24" height="24" viewBox="0 0 24 24" fill="none" xmlns="http://www.w3.org/2000/svg">
<circle cx="12" cy="16" r="5.25" stroke="#210529" stroke-width="1.5"/>
<path fill-rule="evenodd" clip-rule="evenodd" d="M8.50837 2.31528L6.8002 3.99957C6.60916 4.18794 6.74254 4.51319 7.01083 4.51319H16.99C17.2582 4.51319 17.3916 4.18794 17.2006 3.99957L15.4924 2.31528C15.3053 2.13078 15.0531 2.02734 14.7903 2.02734H9.21049C8.94771 2.02734 8.69549 2.13078 8.50837 2.31528ZM16.985 6.01269C17.1747 5.82394 17.0411 5.5 16.7734 5.5H7.22738C6.95972 5.5 6.82605 5.82394 7.01581 6.01269L11.2811 10.2555C11.6743 10.6625 12.3265 10.6625 12.7197 10.2555L16.985 6.01269Z" fill="#210529"/>
</svg>
