<svg width="24" height="24" viewBox="0 0 24 24" fill="none" xmlns="http://www.w3.org/2000/svg">
<circle cx="12" cy="12" r="9.75" fill="#210529"/>
<path d="M10 7.5H13C13.2652 7.5 13.5196 7.61853 13.7071 7.82951C13.8946 8.04048 14 8.32663 14 8.625V10.875C14 11.1734 13.8946 11.4595 13.7071 11.6705C13.5196 11.8815 13.2652 12 13 12H11C10.7348 12 10.4804 12.1185 10.2929 12.3295C10.1054 12.5405 10 12.8266 10 13.125V15.375C10 15.6734 10.1054 15.9595 10.2929 16.1705C10.4804 16.3815 10.7348 16.5 11 16.5H14" stroke="white" stroke-width="1.5" stroke-linecap="round" stroke-linejoin="round"/>
</svg>
