<svg width="121" height="33" viewBox="0 0 121 33" fill="none" xmlns="http://www.w3.org/2000/svg">
<path d="M8.29236 8.32573C6.9156 9.70311 6.01217 11.4824 5.71249 13.4066C5.41281 15.3309 5.73239 17.3006 6.62509 19.0315L4.65918 24.9272L10.5457 22.9653C12.0509 23.7486 13.7437 24.0996 15.4363 23.9793C17.1289 23.8589 18.755 23.2719 20.1342 22.2835C21.5135 21.295 22.5918 19.9438 23.2497 18.3796C23.9075 16.8155 24.1191 15.0997 23.861 13.4226C23.6028 11.7455 22.8851 10.1727 21.7873 8.87878C20.6895 7.58486 19.2547 6.62043 17.6421 6.09249C16.0295 5.56455 14.3021 5.49376 12.6517 5.88797C11.0012 6.28219 9.49232 7.12599 8.29236 8.32573Z" fill="url(#paint0_linear_1534_36331)"/>
<path d="M4.77059 4.93423C2.52063 7.18508 1.10361 10.1346 0.752554 13.2977C0.401494 16.4609 1.13729 19.6493 2.83896 22.3387L3.89377 19.1743C3.33919 17.7885 3.0537 16.3098 3.05256 14.8172C3.05336 12.3177 3.85672 9.88458 5.34433 7.876C6.83194 5.86743 8.92518 4.3896 11.3158 3.66011C13.7065 2.93062 16.2682 2.98804 18.6237 3.8239C20.9793 4.65977 23.0042 6.22991 24.4003 8.30311C25.7965 10.3763 26.49 12.843 26.3788 15.34C26.2676 17.837 25.3576 20.2323 23.7828 22.1733C22.2079 24.1142 20.0515 25.4981 17.6309 26.1214C15.2104 26.7446 12.6537 26.5741 10.3374 25.635L7.18678 26.6898C9.41758 28.1007 12.0015 28.8529 14.641 28.8598C17.2805 28.8667 19.8683 28.128 22.1064 26.7287C24.3446 25.3295 26.142 23.3266 27.2919 20.9507C28.4417 18.5748 28.8972 15.9224 28.6058 13.2991C28.3144 10.6757 27.2881 8.18788 25.645 6.12216C24.0019 4.05643 21.8087 2.49675 19.3181 1.62269C16.8275 0.74863 14.1407 0.59573 11.567 1.18159C8.99336 1.76745 6.63746 3.06826 4.77059 4.93423Z" fill="url(#paint1_linear_1534_36331)"/>
<path d="M20.1277 13.6293C20.1356 13.6214 20.1461 13.6161 20.1534 13.6082C20.3287 13.3669 20.4122 13.0709 20.3889 12.7736C20.3655 12.4762 20.2368 12.1969 20.0258 11.986C19.8149 11.7751 19.5357 11.6464 19.2383 11.623C18.9409 11.5996 18.645 11.6831 18.4037 11.8585L14.046 16.2162L11.7537 13.922C11.5124 13.7462 11.2162 13.6624 10.9186 13.6857C10.621 13.709 10.3414 13.8378 10.1304 14.0489C9.91932 14.2601 9.79061 14.5397 9.76745 14.8373C9.74429 15.1349 9.82819 15.4311 10.0041 15.6723C10.0113 15.6796 10.0212 15.6842 10.0284 15.6908L13.1751 18.8374C13.4065 19.0686 13.7202 19.1984 14.0473 19.1984C14.3744 19.1984 14.6881 19.0686 14.9195 18.8374L20.1277 13.6293Z" fill="white"/>
<path d="M105.564 2.88108C104.922 2.23307 104.158 1.71867 103.317 1.36762C102.475 1.01657 101.572 0.835816 100.66 0.835816C99.7478 0.835816 98.8448 1.01657 98.003 1.36762C97.1612 1.71867 96.3974 2.23307 95.7556 2.88108C95.1065 3.52796 94.5915 4.29661 94.2401 5.14293C93.8887 5.98926 93.7079 6.89663 93.7079 7.813C93.7079 8.72938 93.8887 9.63674 94.2401 10.4831C94.5915 11.3294 95.1065 12.098 95.7556 12.7449C96.3974 13.3929 97.1612 13.9073 98.003 14.2584C98.8448 14.6094 99.7478 14.7902 100.66 14.7902C101.572 14.7902 102.475 14.6094 103.317 14.2584C104.158 13.9073 104.922 13.3929 105.564 12.7449C106.213 12.0979 106.728 11.3292 107.079 10.4829C107.43 9.63661 107.611 8.72931 107.611 7.813C107.611 6.8967 107.43 5.9894 107.079 5.14309C106.728 4.29678 106.213 3.5281 105.564 2.88108ZM102.494 10.6399C102.195 11.7831 101.592 12.3243 100.689 12.3243C99.7263 12.3243 99.1251 11.7831 98.8231 10.6399C98.6293 9.71098 98.5485 8.762 98.5825 7.81366C98.5453 6.86459 98.6261 5.91457 98.8231 4.98544C99.1244 3.8436 99.7256 3.30169 100.689 3.30169C101.592 3.30169 102.195 3.8436 102.494 4.98544C102.692 5.91441 102.773 6.86454 102.735 7.81366C102.773 8.76212 102.692 9.7116 102.494 10.6399ZM58.5647 2.09919C57.2736 1.36622 55.8335 0.934425 54.3521 0.836052H47.7918V14.7933H52.6703V11.2992H54.3547C55.8412 11.2298 57.2878 10.7963 58.5674 10.0367C59.2627 9.63308 59.8398 9.05393 60.241 8.3572C60.6422 7.66047 60.8533 6.8706 60.8533 6.06662C60.8533 5.26265 60.6422 4.47277 60.241 3.77604C59.8398 3.07931 59.2627 2.50017 58.5674 2.09656L58.5647 2.09919ZM55.4952 7.93694C55.3763 8.15111 55.2126 8.33716 55.0154 8.48243C54.8181 8.6277 54.5919 8.72879 54.3521 8.77882C54.1968 8.82876 54.0336 8.84933 53.8708 8.83947H52.6677V3.30234H53.8708C54.0335 3.29266 54.1967 3.31299 54.3521 3.36234C54.5949 3.40436 54.8245 3.50231 55.023 3.64843C55.2214 3.79454 55.383 3.98482 55.4952 4.20421C55.816 4.77289 55.9822 5.4157 55.9771 6.0686C55.975 6.72185 55.8093 7.36416 55.4952 7.93694ZM39.6684 0.836052C37.818 0.836052 36.0433 1.57112 34.7349 2.87955C33.4265 4.18799 32.6914 5.9626 32.6914 7.813C32.6914 9.66341 33.4265 11.438 34.7349 12.7465C36.0433 14.0549 37.818 14.79 39.6684 14.79C41.0435 14.7792 42.3847 14.3622 43.5234 13.5914C44.6622 12.8205 45.5477 11.7302 46.0685 10.4575C46.5894 9.18486 46.7224 7.78661 46.4508 6.43856C46.1793 5.0905 45.5153 3.85281 44.5423 2.88108C43.9081 2.2314 43.1499 1.71564 42.3127 1.36436C41.4755 1.01308 40.5763 0.833426 39.6684 0.836052ZM41.4734 10.6399C41.1721 11.7831 40.5702 12.3243 39.6684 12.3243C38.7665 12.3243 38.1039 11.7831 37.802 10.6399C37.6376 9.70689 37.5569 8.76105 37.5607 7.81366C37.5538 6.8655 37.6346 5.91873 37.802 4.98544C38.1033 3.8436 38.7652 3.30169 39.6684 3.30169C40.5715 3.30169 41.1721 3.8436 41.4734 4.98544C41.8743 6.84895 41.8743 8.7764 41.4734 10.6399ZM77.5205 7.81432L72.6459 1.61727C72.4006 1.35519 72.1013 1.1495 71.7687 1.01439C71.4361 0.879279 71.0781 0.817983 70.7195 0.834733C70.048 0.839612 69.4033 1.09873 68.9151 1.55992C68.6768 1.77253 68.4845 2.03163 68.3501 2.3213C68.2156 2.61098 68.1418 2.92509 68.1332 3.24433V14.7933H70.9602V7.81432L75.8341 14.0114C76.0677 14.272 76.3565 14.4774 76.6795 14.6125C77.0024 14.7477 77.3514 14.8092 77.7011 14.7926C78.0358 14.8019 78.3689 14.7424 78.6798 14.6178C78.9906 14.4931 79.2725 14.306 79.5081 14.0681C79.7646 13.8674 79.9733 13.6123 80.119 13.3211C80.2647 13.0299 80.3438 12.7099 80.3507 12.3843V0.836052H77.5218L77.5205 7.81432ZM62.0542 5.22804H66.3875V14.7906H62.0542V5.22804ZM82.9976 1.25732C82.7329 1.37109 82.5037 1.55395 82.334 1.78674C82.1644 2.01953 82.0604 2.29368 82.0331 2.58045V13.0462C82.0603 13.3331 82.1642 13.6074 82.3339 13.8403C82.5036 14.0732 82.7328 14.2562 82.9976 14.37C83.5198 14.6356 84.0955 14.7792 84.6813 14.79H92.5048V12.325H87.0896C86.6683 12.325 86.4271 12.145 86.4271 11.7837V9.01483H92.5048V6.61117H86.4271V3.7836C86.4271 3.48232 86.6683 3.30169 87.0896 3.30169H92.5048V0.836052H84.6813C84.0955 0.847634 83.5199 0.991654 82.9976 1.25732ZM62.0542 0.836052H66.3875V3.66362H62.0542V0.836052ZM114.906 6.47866H114.473C114.148 6.52938 113.835 6.63979 113.55 6.80434C113.094 7.02846 112.688 7.3424 112.357 7.7273L112.52 6.64413H111.76L110.731 14.8242H111.489L111.925 11.5747C112.179 11.9481 112.512 12.2617 112.9 12.4938C113.291 12.6723 113.717 12.7647 114.148 12.7647H114.473C115.209 12.6857 115.897 12.3605 116.425 11.8417C117.096 11.284 117.523 10.4876 117.617 9.6207C117.682 9.22534 117.657 8.82049 117.544 8.43606C117.432 8.05164 117.234 7.69744 116.966 7.39965C116.712 7.10335 116.396 6.86705 116.04 6.70779C115.684 6.54852 115.296 6.47027 114.906 6.47866ZM116.37 10.8674C116.113 11.2245 115.78 11.5201 115.395 11.733C115.106 11.889 114.795 11.9989 114.472 12.0586H114.148C113.747 12.0527 113.354 11.9403 113.01 11.733C112.675 11.5273 112.41 11.2257 112.248 10.8674C112.083 10.4934 112.027 10.0799 112.088 9.67541C112.161 9.01281 112.469 8.39805 112.954 7.94156C113.369 7.54733 113.902 7.29999 114.471 7.23747H114.742C115.137 7.23731 115.527 7.33014 115.879 7.50842C116.23 7.72059 116.498 8.04618 116.639 8.43139C116.795 8.80879 116.87 9.21505 116.857 9.62333C116.791 10.0695 116.625 10.4949 116.37 10.8674ZM119.569 4.31233L118.594 12.5986H119.352L120.329 4.31233H119.569ZM109.85 11.9004C109.85 12.0746 109.799 12.245 109.702 12.3899C109.605 12.5349 109.468 12.6479 109.307 12.7146C109.146 12.7814 108.969 12.7989 108.798 12.765C108.627 12.7311 108.47 12.6473 108.347 12.5241C108.223 12.401 108.139 12.244 108.105 12.0731C108.071 11.9023 108.089 11.7252 108.155 11.5642C108.222 11.4032 108.335 11.2656 108.48 11.1688C108.625 11.072 108.795 11.0203 108.969 11.0203C109.085 11.0202 109.199 11.0429 109.306 11.0871C109.413 11.1313 109.51 11.1961 109.592 11.2779C109.674 11.3596 109.739 11.4566 109.783 11.5635C109.827 11.6703 109.85 11.7848 109.85 11.9004Z" fill="white"/>
<g clip-path="url(#clip0_1534_36331)">
<path d="M37.5585 23.1597L33.79 23.706L33.7233 23.7196C33.6223 23.7465 33.5301 23.7996 33.4564 23.8737C33.3826 23.9477 33.3298 24.0401 33.3034 24.1412C33.2769 24.2424 33.2778 24.3487 33.3059 24.4494C33.3341 24.5501 33.3884 24.6415 33.4634 24.7143L36.1935 27.3718L35.5497 31.1255L35.542 31.1904C35.5358 31.295 35.5575 31.3992 35.6049 31.4926C35.6522 31.5859 35.7235 31.665 35.8115 31.7218C35.8995 31.7785 36.001 31.8108 36.1056 31.8154C36.2101 31.8201 36.3141 31.7968 36.4067 31.748L39.7771 29.976L43.1398 31.748L43.1989 31.7752C43.2964 31.8136 43.4023 31.8254 43.5059 31.8093C43.6094 31.7933 43.7068 31.75 43.7881 31.6838C43.8694 31.6177 43.9316 31.5311 43.9684 31.433C44.0052 31.3349 44.0152 31.2287 43.9974 31.1255L43.353 27.3718L46.0843 24.7137L46.1304 24.6635C46.1962 24.5825 46.2393 24.4854 46.2554 24.3822C46.2715 24.2791 46.26 24.1735 46.222 24.0762C46.184 23.979 46.1209 23.8935 46.0391 23.8286C45.9573 23.7637 45.8598 23.7216 45.7565 23.7066L41.988 23.1597L40.3034 19.7456C40.2546 19.6467 40.1792 19.5634 40.0855 19.5051C39.9919 19.4469 39.8838 19.416 39.7735 19.416C39.6633 19.416 39.5552 19.4469 39.4616 19.5051C39.3679 19.5634 39.2925 19.6467 39.2437 19.7456L37.5585 23.1597Z" fill="#F9D048"/>
</g>
<g clip-path="url(#clip1_1534_36331)">
<path d="M54.9609 23.1597L51.1924 23.706L51.1256 23.7196C51.0246 23.7465 50.9325 23.7996 50.8587 23.8737C50.7849 23.9477 50.7321 24.0401 50.7057 24.1412C50.6793 24.2424 50.6802 24.3487 50.7083 24.4494C50.7364 24.5501 50.7907 24.6415 50.8657 24.7143L53.5958 27.3718L52.952 31.1255L52.9443 31.1904C52.9381 31.295 52.9598 31.3992 53.0072 31.4926C53.0546 31.5859 53.1259 31.665 53.2139 31.7218C53.3018 31.7785 53.4033 31.8108 53.5079 31.8154C53.6125 31.8201 53.7164 31.7968 53.8091 31.748L57.1794 29.976L60.5421 31.748L60.6012 31.7752C60.6987 31.8136 60.8047 31.8254 60.9082 31.8093C61.0118 31.7933 61.1092 31.75 61.1904 31.6838C61.2717 31.6177 61.334 31.5311 61.3707 31.433C61.4075 31.3349 61.4176 31.2287 61.3998 31.1255L60.7554 27.3718L63.4866 24.7137L63.5327 24.6635C63.5985 24.5825 63.6417 24.4854 63.6578 24.3822C63.6739 24.2791 63.6623 24.1735 63.6243 24.0762C63.5863 23.979 63.5232 23.8935 63.4414 23.8286C63.3597 23.7637 63.2621 23.7216 63.1588 23.7066L59.3903 23.1597L57.7057 19.7456C57.657 19.6467 57.5815 19.5634 57.4879 19.5051C57.3942 19.4469 57.2862 19.416 57.1759 19.416C57.0656 19.416 56.9575 19.4469 56.8639 19.5051C56.7703 19.5634 56.6948 19.6467 56.6461 19.7456L54.9609 23.1597Z" fill="#F9D048"/>
</g>
<g clip-path="url(#clip2_1534_36331)">
<path d="M72.3544 23.1597L68.5859 23.706L68.5192 23.7196C68.4182 23.7465 68.326 23.7996 68.2523 23.8737C68.1785 23.9477 68.1257 24.0401 68.0993 24.1412C68.0728 24.2424 68.0737 24.3487 68.1018 24.4494C68.13 24.5501 68.1843 24.6415 68.2593 24.7143L70.9894 27.3718L70.3456 31.1255L70.3379 31.1904C70.3317 31.295 70.3534 31.3992 70.4007 31.4926C70.4481 31.5859 70.5194 31.665 70.6074 31.7218C70.6954 31.7785 70.7969 31.8108 70.9015 31.8154C71.006 31.8201 71.11 31.7968 71.2026 31.748L74.573 29.976L77.9357 31.748L77.9948 31.7752C78.0922 31.8136 78.1982 31.8254 78.3018 31.8093C78.4053 31.7933 78.5027 31.75 78.584 31.6838C78.6653 31.6177 78.7275 31.5311 78.7643 31.433C78.8011 31.3349 78.8111 31.2287 78.7933 31.1255L78.1489 27.3718L80.8802 24.7137L80.9263 24.6635C80.9921 24.5825 81.0352 24.4854 81.0513 24.3822C81.0674 24.2791 81.0559 24.1735 81.0179 24.0762C80.9799 23.979 80.9168 23.8935 80.835 23.8286C80.7532 23.7637 80.6557 23.7216 80.5524 23.7066L76.7839 23.1597L75.0993 19.7456C75.0505 19.6467 74.9751 19.5634 74.8814 19.5051C74.7878 19.4469 74.6797 19.416 74.5694 19.416C74.4592 19.416 74.3511 19.4469 74.2575 19.5051C74.1638 19.5634 74.0884 19.6467 74.0396 19.7456L72.3544 23.1597Z" fill="#F9D048"/>
</g>
<g clip-path="url(#clip3_1534_36331)">
<path d="M89.7577 23.1597L85.9893 23.706L85.9225 23.7196C85.8215 23.7465 85.7294 23.7996 85.6556 23.8737C85.5818 23.9477 85.529 24.0401 85.5026 24.1412C85.4762 24.2424 85.477 24.3487 85.5052 24.4494C85.5333 24.5501 85.5876 24.6415 85.6626 24.7143L88.3927 27.3718L87.7489 31.1255L87.7412 31.1904C87.735 31.295 87.7567 31.3992 87.8041 31.4926C87.8514 31.5859 87.9228 31.665 88.0107 31.7218C88.0987 31.7785 88.2002 31.8108 88.3048 31.8154C88.4094 31.8201 88.5133 31.7968 88.6059 31.748L91.9763 29.976L95.339 31.748L95.3981 31.7752C95.4956 31.8136 95.6015 31.8254 95.7051 31.8093C95.8086 31.7933 95.906 31.75 95.9873 31.6838C96.0686 31.6177 96.1308 31.5311 96.1676 31.433C96.2044 31.3349 96.2144 31.2287 96.1967 31.1255L95.5522 27.3718L98.2835 24.7137L98.3296 24.6635C98.3954 24.5825 98.4385 24.4854 98.4546 24.3822C98.4707 24.2791 98.4592 24.1735 98.4212 24.0762C98.3832 23.979 98.3201 23.8935 98.2383 23.8286C98.1565 23.7637 98.059 23.7216 97.9557 23.7066L94.1872 23.1597L92.5026 19.7456C92.4539 19.6467 92.3784 19.5634 92.2848 19.5051C92.1911 19.4469 92.083 19.416 91.9728 19.416C91.8625 19.416 91.7544 19.4469 91.6608 19.5051C91.5671 19.5634 91.4917 19.6467 91.4429 19.7456L89.7577 23.1597Z" fill="#F9D048"/>
</g>
<g clip-path="url(#clip4_1534_36331)">
<path d="M109.37 19.4143C109.466 19.4146 109.561 19.4387 109.645 19.4843C109.73 19.53 109.802 19.5958 109.856 19.6759L109.895 19.7445L111.58 23.1591L115.348 23.7055C115.786 23.7693 115.986 24.2607 115.764 24.6069L115.722 24.663L115.676 24.7138L112.945 27.3712L113.589 31.1249C113.606 31.2228 113.597 31.3234 113.565 31.4173C113.533 31.5113 113.477 31.5955 113.404 31.6623C113.33 31.7291 113.241 31.7763 113.144 31.7996C113.048 31.8228 112.947 31.8214 112.851 31.7953L112.791 31.7747L112.732 31.7475L109.369 29.9755L105.999 31.7475C105.937 31.78 105.873 31.8007 105.81 31.8101L105.747 31.816C105.665 31.819 105.582 31.8048 105.506 31.7742C105.429 31.7436 105.36 31.6974 105.302 31.6385C105.244 31.5795 105.2 31.5092 105.171 31.4319C105.142 31.3547 105.129 31.2723 105.134 31.1899L105.142 31.1249L105.785 27.3712L103.055 24.7132C102.984 24.6444 102.932 24.5591 102.903 24.4649C102.873 24.3708 102.868 24.2708 102.887 24.1742C102.907 24.0775 102.95 23.9872 103.013 23.9114C103.076 23.8356 103.157 23.7768 103.248 23.7403L103.315 23.7191L103.383 23.7055L107.15 23.1591L108.836 19.745C108.883 19.6438 108.958 19.5585 109.053 19.4998C109.148 19.441 109.258 19.4113 109.37 19.4143ZM109.37 21.3481V28.7174C109.417 28.7174 109.465 28.7231 109.511 28.7345L109.579 28.7557L109.645 28.7853L112.222 30.1432L111.728 27.2649C111.704 27.1226 111.732 26.9764 111.808 26.8538L111.85 26.7953L111.898 26.7421L113.993 24.7026L111.104 24.2844C110.961 24.2636 110.831 24.1914 110.738 24.0812L110.694 24.0239L110.659 23.9613L109.37 21.3481Z" fill="#F9D048"/>
</g>
<defs>
<linearGradient id="paint0_linear_1534_36331" x1="14.3135" y1="24.9272" x2="14.3135" y2="5.63672" gradientUnits="userSpaceOnUse">
<stop stop-color="#6C9C2F"/>
<stop offset="1" stop-color="#86BA2A"/>
</linearGradient>
<linearGradient id="paint1_linear_1534_36331" x1="14.6792" y1="28.8598" x2="14.6792" y2="0.832031" gradientUnits="userSpaceOnUse">
<stop stop-color="#6C9C2F"/>
<stop offset="1" stop-color="#86BA2A"/>
</linearGradient>
<clipPath id="clip0_1534_36331">
<rect width="14.1761" height="14.1761" fill="white" transform="translate(32.6914 18.8242)"/>
</clipPath>
<clipPath id="clip1_1534_36331">
<rect width="14.1761" height="14.1761" fill="white" transform="translate(50.0889 18.8242)"/>
</clipPath>
<clipPath id="clip2_1534_36331">
<rect width="14.1761" height="14.1761" fill="white" transform="translate(67.4873 18.8242)"/>
</clipPath>
<clipPath id="clip3_1534_36331">
<rect width="14.1761" height="14.1761" fill="white" transform="translate(84.8857 18.8242)"/>
</clipPath>
<clipPath id="clip4_1534_36331">
<rect width="14.1761" height="14.1761" fill="white" transform="translate(102.283 18.8242)"/>
</clipPath>
</defs>
</svg>
