<svg width="24" height="24" viewBox="0 0 24 24" fill="none" xmlns="http://www.w3.org/2000/svg">
<path fill-rule="evenodd" clip-rule="evenodd" d="M4.32918 2.66459C4.45622 2.4105 4.71592 2.25 5 2.25H19C19.2841 2.25 19.5438 2.4105 19.6708 2.66459L21.4635 6.25L21.6708 6.66459C21.7229 6.76873 21.75 6.88357 21.75 7V7.75V8C21.75 8.99456 21.3549 9.94839 20.6517 10.6517C20.0033 11.3 19.1421 11.6864 18.2323 11.7428C18.1552 11.7476 18.0777 11.75 18 11.75C17.0054 11.75 16.0516 11.3549 15.3483 10.6517C15.2221 10.5254 15.1059 10.3912 15 10.25C14.8941 10.3912 14.7779 10.5254 14.6517 10.6517C13.9484 11.3549 12.9946 11.75 12 11.75C11.0054 11.75 10.0516 11.3549 9.34835 10.6517C9.22214 10.5254 9.10586 10.3912 9 10.25C8.89414 10.3912 8.77786 10.5254 8.65165 10.6517C7.94839 11.3549 6.99456 11.75 6 11.75C5.00544 11.75 4.05161 11.3549 3.34835 10.6517C2.64509 9.94839 2.25 8.99456 2.25 8V7.75V7C2.25 6.88357 2.27711 6.76873 2.32918 6.66459L2.53647 6.25L4.32918 2.66459ZM9.75 8C9.75 8.59674 9.98705 9.16903 10.409 9.59099C10.831 10.0129 11.4033 10.25 12 10.25C12.5967 10.25 13.169 10.0129 13.591 9.59099C14.0129 9.16903 14.25 8.59674 14.25 8V7.75H9.75V8ZM8.25 7.75V8C8.25 8.59674 8.01295 9.16903 7.59099 9.59099C7.16903 10.0129 6.59674 10.25 6 10.25C5.40326 10.25 4.83097 10.0129 4.40901 9.59099C3.98705 9.16903 3.75 8.59674 3.75 8V7.75H8.25ZM19.7865 6.25L18.5365 3.75H5.46353L4.21353 6.25H19.7865ZM20.25 7.75H15.75V8C15.75 8.59674 15.9871 9.16903 16.409 9.59099C16.831 10.0129 17.4033 10.25 18 10.25C18.5967 10.25 19.169 10.0129 19.591 9.59099C20.0129 9.16903 20.25 8.59674 20.25 8V7.75Z" fill="#210529"/>
<path fill-rule="evenodd" clip-rule="evenodd" d="M4.25 11.3166V20.2572L3 20.25C2.58579 20.25 2.25 20.5858 2.25 21C2.25 21.4142 2.58579 21.75 3 21.75H21C21.4142 21.75 21.75 21.4142 21.75 21C21.75 20.5858 21.4142 20.25 21 20.25L19.75 20.243V11.3166C19.2829 11.5631 18.7659 11.7097 18.2323 11.7428C18.1552 11.7476 18.0777 11.75 18 11.75C17.0054 11.75 16.0516 11.3549 15.3483 10.6517C15.2221 10.5254 15.1059 10.3912 15 10.25C14.8941 10.3912 14.7779 10.5254 14.6517 10.6517C13.9484 11.3549 12.9946 11.75 12 11.75C11.0054 11.75 10.0516 11.3549 9.34835 10.6517C9.22214 10.5254 9.10586 10.3912 9 10.25C8.89414 10.3912 8.77786 10.5254 8.65165 10.6517C7.94839 11.3549 6.99456 11.75 6 11.75C5.91634 11.75 5.83296 11.7472 5.75 11.7417C5.2226 11.7064 4.71191 11.5603 4.25 11.3166ZM8.25 20.25V17C8.25 16.2707 8.53973 15.5712 9.05546 15.0555C9.57118 14.5397 10.2707 14.25 11 14.25H13C13.7293 14.25 14.4288 14.5397 14.9445 15.0555C15.4603 15.5712 15.75 16.2707 15.75 17V20.25H14.25H9.75H8.25Z" fill="#210529"/>
<path d="M11 15.75C10.6685 15.75 10.3505 15.8817 10.1161 16.1161C9.8817 16.3505 9.75 16.6685 9.75 17V20.25H14.25V17C14.25 16.6685 14.1183 16.3505 13.8839 16.1161C13.6495 15.8817 13.3315 15.75 13 15.75H11Z" fill="#210529"/>
<path d="M18.5365 3.75L19.7865 6.25H4.21353L5.46353 3.75H18.5365Z" fill="#210529"/>
</svg>
