<svg width="24" height="24" viewBox="0 0 24 24" fill="none" xmlns="http://www.w3.org/2000/svg">
<g clip-path="url(#clip0_3702_13207)">
<path d="M4 5.5H7C7.26522 5.5 7.51957 5.39464 7.70711 5.20711C7.89464 5.01957 8 4.76522 8 4.5V3.5C8 2.96957 8.21071 2.46086 8.58579 2.08579C8.96086 1.71071 9.46957 1.5 10 1.5C10.5304 1.5 11.0391 1.71071 11.4142 2.08579C11.7893 2.46086 12 2.96957 12 3.5V4.5C12 4.76522 12.1054 5.01957 12.2929 5.20711C12.4804 5.39464 12.7348 5.5 13 5.5H16C16.2652 5.5 16.5196 5.60536 16.7071 5.79289C16.8946 5.98043 17 6.23478 17 6.5V9.5C17 9.76522 17.1054 10.0196 17.2929 10.2071C17.4804 10.3946 17.7348 10.5 18 10.5H19C19.5304 10.5 20.0391 10.7107 20.4142 11.0858C20.7893 11.4609 21 11.9696 21 12.5C21 13.0304 20.7893 13.5391 20.4142 13.9142C20.0391 14.2893 19.5304 14.5 19 14.5H18C17.7348 14.5 17.4804 14.6054 17.2929 14.7929C17.1054 14.9804 17 15.2348 17 15.5V18.5C17 18.7652 16.8946 19.0196 16.7071 19.2071C16.5196 19.3946 16.2652 19.5 16 19.5H13C12.7348 19.5 12.4804 19.3946 12.2929 19.2071C12.1054 19.0196 12 18.7652 12 18.5V17.5C12 16.9696 11.7893 16.4609 11.4142 16.0858C11.0391 15.7107 10.5304 15.5 10 15.5C9.46957 15.5 8.96086 15.7107 8.58579 16.0858C8.21071 16.4609 8 16.9696 8 17.5V18.5C8 18.7652 7.89464 19.0196 7.70711 19.2071C7.51957 19.3946 7.26522 19.5 7 19.5H4C3.73478 19.5 3.48043 19.3946 3.29289 19.2071C3.10536 19.0196 3 18.7652 3 18.5V15.5C3 15.2348 3.10536 14.9804 3.29289 14.7929C3.48043 14.6054 3.73478 14.5 4 14.5H5C5.53043 14.5 6.03914 14.2893 6.41421 13.9142C6.78929 13.5391 7 13.0304 7 12.5C7 11.9696 6.78929 11.4609 6.41421 11.0858C6.03914 10.7107 5.53043 10.5 5 10.5H4C3.73478 10.5 3.48043 10.3946 3.29289 10.2071C3.10536 10.0196 3 9.76522 3 9.5V6.5C3 6.23478 3.10536 5.98043 3.29289 5.79289C3.48043 5.60536 3.73478 5.5 4 5.5Z" fill="#210529" stroke="#210529" stroke-width="1.5" stroke-linecap="round" stroke-linejoin="round"/>
</g>
<defs>
<clipPath id="clip0_3702_13207">
<rect width="24" height="24" fill="white"/>
</clipPath>
</defs>
</svg>
