<svg width="14" height="14" viewBox="0 0 14 14" fill="none" xmlns="http://www.w3.org/2000/svg">
<path fill-rule="evenodd" clip-rule="evenodd" d="M0 3.4C0 2.49826 0.358214 1.63346 0.995838 0.995838C1.63346 0.358214 2.49826 0 3.4 0H10.2C11.1017 0 11.9665 0.358214 12.6042 0.995838C13.2418 1.63346 13.6 2.49826 13.6 3.4V10.2C13.6 11.1017 13.2418 11.9665 12.6042 12.6042C11.9665 13.2418 11.1017 13.6 10.2 13.6H3.4C2.49826 13.6 1.63346 13.2418 0.995838 12.6042C0.358214 11.9665 0 11.1017 0 10.2V3.4ZM6.79983 10.3698C8.77149 10.3698 10.3698 8.77149 10.3698 6.79983C10.3698 4.82818 8.77149 3.22983 6.79983 3.22983C4.82818 3.22983 3.22983 4.82818 3.22983 6.79983C3.22983 8.77149 4.82818 10.3698 6.79983 10.3698ZM4.99671 8.60295C4.51849 8.12474 4.24984 7.47614 4.24984 6.79983C4.24984 6.12353 4.51849 5.47493 4.99671 4.99671C5.47493 4.51849 6.12353 4.24984 6.79983 4.24984C7.47613 4.24984 8.12474 4.51849 8.60295 4.99671C9.08117 5.47493 9.34983 6.12353 9.34983 6.79983C9.34983 7.47614 9.08117 8.12474 8.60295 8.60295C8.12474 9.08117 7.47613 9.34983 6.79983 9.34983C6.12353 9.34983 5.47493 9.08117 4.99671 8.60295ZM10.6248 3.73983C11.0473 3.73983 11.3898 3.39733 11.3898 2.97483C11.3898 2.55234 11.0473 2.20983 10.6248 2.20983C10.2023 2.20983 9.85983 2.55234 9.85983 2.97483C9.85983 3.39733 10.2023 3.73983 10.6248 3.73983Z" fill="#210529"/>
</svg>
