<svg width="14" height="14" viewBox="0 0 14 14" fill="none" xmlns="http://www.w3.org/2000/svg">
<path d="M4.09635 0C4.20283 4.45553e-05 4.30817 0.0219506 4.40584 0.0643612C4.50351 0.106772 4.59144 0.168784 4.66416 0.246555L4.72328 0.318111L8.04774 4.851L12.6727 0.227889C12.8127 0.0883961 13.0005 0.00740952 13.1981 0.00137817C13.3956 -0.00465319 13.588 0.0647229 13.7363 0.195416C13.8845 0.326109 13.9774 0.508318 13.9961 0.705036C14.0149 0.901754 13.958 1.09823 13.8372 1.25456L13.7726 1.32767L8.97881 6.12033L13.8496 12.7626C13.9303 12.8726 13.9805 13.002 13.9954 13.1376C14.0102 13.2733 13.9891 13.4104 13.9342 13.5353C13.8793 13.6602 13.7924 13.7685 13.6824 13.8492C13.5724 13.93 13.4431 13.9804 13.3075 13.9953L13.2227 14H9.90365C9.79717 14 9.69183 13.978 9.59416 13.9356C9.49649 13.8932 9.40856 13.8312 9.33584 13.7534L9.27672 13.6819L5.9507 9.14822L1.32726 13.7721C1.18728 13.9116 0.999451 13.9926 0.801921 13.9986C0.60439 14.0047 0.41197 13.9353 0.263742 13.8046C0.115513 13.6739 0.0225925 13.4917 0.00385163 13.295C-0.0148892 13.0982 0.0419554 12.9018 0.16284 12.7454L0.2274 12.6723L5.01964 7.87889L0.150395 1.23744C0.0697406 1.12737 0.0194659 0.998024 0.0046181 0.86238C-0.0102297 0.726736 0.0108722 0.589574 0.0658049 0.464664C0.120738 0.339754 0.207568 0.231494 0.317577 0.150752C0.427587 0.07001 0.556904 0.0196288 0.692545 0.0046667L0.777329 0H4.09635Z" fill="#210529"/>
</svg>
