<svg width="24" height="24" viewBox="0 0 24 24" fill="none" xmlns="http://www.w3.org/2000/svg">
<g clip-path="url(#clip0_3702_13249)">
<path d="M5 9C5 12.866 8.13401 16 12 16C12.3874 16 12.7674 15.9685 13.1376 15.908L5.04276 8.2219C5.0145 8.47737 5 8.73699 5 9Z" fill="#210529"/>
<path d="M19 9C19 5.13401 15.866 2 12 2C8.92892 2 6.31973 3.97769 5.3766 6.72898L14.6108 15.4969C17.1837 14.462 19 11.9431 19 9Z" fill="#210529"/>
<circle cx="19" cy="18" r="3" fill="#210529"/>
<path d="M2.86009 15.6224L6.3415 12.5762C6.71852 12.2463 7.28148 12.2463 7.6585 12.5762L9.13991 13.8724C9.59524 14.2708 9.59524 14.9792 9.13991 15.3776L5.6585 18.4238C5.28148 18.7537 4.71852 18.7537 4.3415 18.4238L2.86009 17.1276C2.40476 16.7292 2.40476 16.0208 2.86009 15.6224Z" fill="#210529"/>
</g>
<defs>
<clipPath id="clip0_3702_13249">
<rect width="24" height="24" fill="white"/>
</clipPath>
</defs>
</svg>
