<svg width="20" height="20" viewBox="0 0 20 20" fill="none" xmlns="http://www.w3.org/2000/svg">
<path d="M6.95711 6.1166L1.64044 6.88744L1.54627 6.9066C1.40372 6.94445 1.27377 7.01944 1.16968 7.12394C1.0656 7.22843 0.991109 7.35868 0.953825 7.50137C0.91654 7.64407 0.917796 7.79411 0.957463 7.93616C0.99713 8.07822 1.07379 8.2072 1.17961 8.30994L5.03127 12.0591L4.12294 17.3549L4.11211 17.4466C4.10338 17.594 4.13399 17.7411 4.20081 17.8729C4.26764 18.0046 4.36826 18.1162 4.49239 18.1962C4.61651 18.2762 4.75968 18.3218 4.90723 18.3284C5.05478 18.3349 5.20141 18.3021 5.33211 18.2333L10.0871 15.7333L14.8313 18.2333L14.9146 18.2716C15.0522 18.3258 15.2016 18.3424 15.3477 18.3197C15.4938 18.2971 15.6313 18.236 15.7459 18.1427C15.8606 18.0494 15.9484 17.9272 16.0003 17.7888C16.0522 17.6504 16.0663 17.5006 16.0413 17.3549L15.1321 12.0591L18.9854 8.3091L19.0504 8.23827C19.1433 8.12391 19.2042 7.98698 19.2269 7.84143C19.2496 7.69588 19.2333 7.54692 19.1797 7.40971C19.1261 7.27251 19.037 7.15196 18.9217 7.06036C18.8063 6.96877 18.6687 6.90938 18.5229 6.88827L13.2063 6.1166L10.8296 1.29994C10.7608 1.16038 10.6544 1.04286 10.5223 0.960689C10.3902 0.878514 10.2377 0.834961 10.0821 0.834961C9.92653 0.834961 9.77406 0.878514 9.64195 0.960689C9.50984 1.04286 9.40338 1.16038 9.33461 1.29994L6.95711 6.1166Z" stroke="#1167FC" stroke-width="1.5" stroke-linecap="round" stroke-linejoin="round"/>
</svg>
