<svg width="24" height="24" viewBox="0 0 24 24" fill="none" xmlns="http://www.w3.org/2000/svg">
<path d="M19.3242 16.1803V18.2852C19.3242 18.3868 19.2787 18.4849 19.1981 18.5514C19.1175 18.6179 19.0125 18.646 18.9144 18.6285C16.4326 18.2144 14.1623 19.5525 13.815 22.7893C13.7975 22.9679 13.6469 23.1045 13.4682 23.1045H10.5753C10.4107 23.1045 10.2671 22.9854 10.2321 22.8243C10.197 22.6492 9.28292 18.5514 5.02056 18.4954C4.82793 18.4919 4.67383 18.3378 4.67383 18.1451V16.1803C4.67383 15.9877 4.83144 15.8301 5.02406 15.8301H18.974C19.1666 15.8301 19.3242 15.9877 19.3242 16.1803Z" fill="#210529"/>
<path fill-rule="evenodd" clip-rule="evenodd" d="M4.85687 9.83695C3.30608 11.901 3.74673 14.9084 7.11587 14.9084C8.85655 14.9084 9.74612 14.0766 10.0824 13.7334H13.6898C14.026 14.0766 15.1433 14.9084 16.8804 14.9084C20.25 14.9084 20.6962 11.9044 19.143 9.83695L14.9496 3.417C12.7081 0.0547856 10.2799 2.01608 9.34596 3.417L4.85687 9.83695ZM7.62723 8.04375L10.0824 12.3325H13.6898L16.3796 8.02975L13.6769 4.04113C12.6147 2.48308 11.2138 2.95005 10.5235 4.04113L7.62723 8.04375Z" fill="#210529"/>
</svg>
