<svg width="24" height="24" viewBox="0 0 24 24" fill="none" xmlns="http://www.w3.org/2000/svg">
<path d="M12.0012 2C9.5674 2 7.4835 3.6942 6.62129 6.09627C9.56732 7.15121 13.506 7.81106 17.4165 6.19521C16.5764 3.74085 14.4685 2 12.0012 2Z" fill="#210529"/>
<path d="M21.0878 9.54767C21.0878 8.61196 20.3002 7.77907 18.9831 7.12564C13.7712 9.76262 8.46391 8.51192 5.06577 7.10277C3.72085 7.75941 2.91406 8.60117 2.91406 9.54767C2.91406 11.6625 6.98262 13.378 12.001 13.378C17.0197 13.378 21.0878 11.6629 21.0878 9.54767Z" fill="#210529"/>
<path d="M10.3929 18.1671C10.3929 19.5507 9.06898 20.9991 7.43571 20.9991C5.80244 20.9991 4.47852 19.5507 4.47852 18.1671C4.47852 16.7844 5.80244 15.9902 7.43571 15.9902C9.06898 15.9902 10.3929 16.7844 10.3929 18.1671Z" fill="#210529" stroke="#210529" stroke-width="1.65216" stroke-miterlimit="10" stroke-linecap="round" stroke-linejoin="round"/>
<path d="M18.6945 18.1671C18.6945 19.5507 17.3702 20.9991 15.7365 20.9991C14.1032 20.9991 12.7793 19.5507 12.7793 18.1671C12.7793 16.7844 14.1036 15.9902 15.7365 15.9902C17.3705 15.9902 18.6945 16.7844 18.6945 18.1671Z" fill="#210529" stroke="#210529" stroke-width="1.65216" stroke-miterlimit="10" stroke-linecap="round" stroke-linejoin="round"/>
<path d="M10.3945 17.8555H12.7816" stroke="#210529" stroke-width="1.23912" stroke-miterlimit="10" stroke-linecap="round" stroke-linejoin="round"/>
<path d="M3.10156 17.8555H4.29471" stroke="#210529" stroke-width="1.5" stroke-miterlimit="10" stroke-linecap="round" stroke-linejoin="round"/>
<path d="M18.8789 17.8555H20.0721" stroke="#210529" stroke-width="1.5" stroke-miterlimit="10" stroke-linecap="round" stroke-linejoin="round"/>
</svg>
