<svg width="22" height="22" viewBox="0 0 22 22" fill="none" xmlns="http://www.w3.org/2000/svg">
<g clip-path="url(#clip0_1744_3431)">
<path d="M4.00684 5.757C4.00684 4.79008 4.79069 4.00623 5.75761 4.00623H7.50839C8.47532 4.00623 9.25917 4.79008 9.25917 5.757V9.25856C9.25917 10.2255 8.47532 11.0093 7.50839 11.0093H5.75762C4.79069 11.0093 4.00684 10.2255 4.00684 9.25856V5.757Z" stroke="#210529" stroke-width="1.31308" stroke-linecap="round" stroke-linejoin="round"/>
<path d="M4.00684 16.2616C4.00684 15.2947 4.79069 14.5109 5.75761 14.5109H7.50839C8.47532 14.5109 9.25917 15.2947 9.25917 16.2616V16.2616C9.25917 17.2286 8.47532 18.0124 7.50839 18.0124H5.75761C4.79069 18.0124 4.00684 17.2286 4.00684 16.2616V16.2616Z" stroke="#210529" stroke-width="1.31308" stroke-linecap="round" stroke-linejoin="round"/>
<path d="M12.7607 12.7601C12.7607 11.7931 13.5446 11.0093 14.5115 11.0093H16.2623C17.2292 11.0093 18.0131 11.7931 18.0131 12.7601V16.2616C18.0131 17.2285 17.2292 18.0124 16.2623 18.0124H14.5115C13.5446 18.0124 12.7607 17.2285 12.7607 16.2616V12.7601Z" stroke="#210529" stroke-width="1.31308" stroke-linecap="round" stroke-linejoin="round"/>
<path d="M12.7607 5.757C12.7607 4.79008 13.5446 4.00623 14.5115 4.00623H16.2623C17.2292 4.00623 18.0131 4.79008 18.0131 5.757V5.757C18.0131 6.72393 17.2292 7.50778 16.2623 7.50778H14.5115C13.5446 7.50778 12.7607 6.72393 12.7607 5.757V5.757Z" stroke="#210529" stroke-width="1.31308" stroke-linecap="round" stroke-linejoin="round"/>
</g>
<defs>
<clipPath id="clip0_1744_3431">
<rect width="21.0093" height="21.0093" fill="white" transform="translate(0.504883 0.504639)"/>
</clipPath>
</defs>
</svg>
