<svg width="24" height="24" viewBox="0 0 24 24" fill="none" xmlns="http://www.w3.org/2000/svg">
<path fill-rule="evenodd" clip-rule="evenodd" d="M1 7.80531L18.747 1.14079C18.9792 1.05357 19.2412 1.09437 19.4282 1.25745C20.8278 2.47796 22.3885 4.44879 22.9283 6.74059C23.1057 10.3707 20.3406 13.3039 18.6914 14.5124C18.5104 14.6451 18.2748 14.67 18.0647 14.5913L12.8296 12.63C12.6172 12.5504 12.3792 12.58 12.1928 12.7093C12.0064 12.8385 11.8951 13.0509 11.8951 13.2778V14.9586C11.8951 15.2357 11.7977 15.3062 11.7092 15.3475C11.5593 15.4175 11.2744 15.4457 10.9006 15.341C10.1145 15.121 9.53306 14.5175 9.53306 13.91V11.8745C9.53306 11.5861 9.3541 11.3279 9.084 11.2267L1 8.19813V7.80531ZM17.0624 5.91993C16.9655 6.03955 16.94 6.15599 16.9875 6.29568C17.1103 6.65743 16.9167 7.05028 16.5549 7.17314C16.1932 7.296 15.8003 7.10234 15.6775 6.74059C15.4574 6.09252 15.6325 5.48721 15.9872 5.04928C16.3271 4.62943 16.8321 4.35451 17.3483 4.26265C17.8691 4.16997 18.4757 4.25349 18.9598 4.66054C19.4519 5.07429 19.6996 5.72217 19.6996 6.51814C19.6996 6.90018 19.3899 7.20989 19.0079 7.20989C18.6258 7.20989 18.3161 6.90018 18.3161 6.51814C18.3161 6.00261 18.1626 5.7978 18.0694 5.71947C17.9683 5.63444 17.8057 5.58648 17.5907 5.62474C17.3712 5.66381 17.1739 5.78223 17.0624 5.91993ZM12.7817 8.55637C12.6848 8.67599 12.6594 8.79244 12.7068 8.93213C12.8297 9.29388 12.636 9.68673 12.2743 9.80959C11.9125 9.93245 11.5197 9.73879 11.3968 9.37704C11.1767 8.72897 11.3519 8.12366 11.7065 7.68573C12.0465 7.26588 12.5515 6.99095 13.0677 6.89909C13.5884 6.80642 14.195 6.88994 14.6791 7.29699C15.1712 7.71074 15.419 8.35862 15.419 9.15458C15.419 9.53663 15.1093 9.84633 14.7272 9.84633C14.3452 9.84633 14.0355 9.53663 14.0355 9.15458C14.0355 8.63905 13.8819 8.43425 13.7888 8.35591C13.6876 8.27088 13.525 8.22293 13.3101 8.26119C13.0905 8.30026 12.8932 8.41868 12.7817 8.55637Z" fill="#210529"/>
<path d="M20.1551 19.9155C19.8338 20.4459 19.1645 20.2031 19.1645 19.5829V16.2449C19.1645 16.0101 19.2831 15.7927 19.4721 15.6536C20.5545 14.8567 22.1081 13.3246 23 11.344C22.5821 14.8591 21.2778 18.0625 20.1551 19.9155Z" fill="#210529"/>
<path d="M13.2786 14.2756L17.3295 15.7933C17.6014 15.8951 17.7822 16.1542 17.7839 16.4446L17.804 19.7816C17.807 20.2722 17.3173 20.6136 16.8579 20.4411L1 14.486V9.67553L8.14957 12.3541V13.91C8.14957 15.3997 9.44089 16.3691 10.5276 16.6733C11.0902 16.8308 11.7417 16.859 12.2941 16.6013C12.9079 16.3149 13.2786 15.73 13.2786 14.9586V14.2756Z" fill="#210529"/>
</svg>
