<svg width="24" height="24" viewBox="0 0 24 24" fill="none" xmlns="http://www.w3.org/2000/svg">
<path d="M15.427 6.38764H15.7312C16.1965 6.38764 16.5722 6.01185 16.5722 5.54659V2.93607C16.5722 2.43502 16.1607 2.02344 15.6596 2.02344H15.4986C14.9975 2.02344 14.5859 2.43502 14.5859 2.93607V5.54659C14.5859 6.01185 14.9617 6.38764 15.427 6.38764Z" fill="#210529"/>
<path d="M8.35534 6.3642H8.65955C9.12481 6.3642 9.5006 5.98842 9.5006 5.52315V2.91263C9.5006 2.41158 9.08902 2 8.58797 2H8.42692C7.92586 2 7.51429 2.41158 7.51429 2.91263V5.52315C7.49639 5.98842 7.87218 6.3642 8.35534 6.3642Z" fill="#210529"/>
<path d="M3 16.0246C3 18.7861 5.23858 21.0246 8 21.0246H16C18.7614 21.0246 21 18.7861 21 16.0246V11.5246H3V16.0246Z" fill="#210529"/>
<path d="M6.01436 4.45573C4.34958 4.45573 3 5.8053 3 7.47009L3 10.0246H21V7.384C21 5.76704 19.6892 4.45625 18.0722 4.45625V4.45625V5.54776C18.0722 6.84145 17.0249 7.88881 15.7312 7.88881H15.427C14.1333 7.88881 13.0859 6.84145 13.0859 5.54776V4.45508L11.0007 4.45546V5.52315C11.0007 6.81684 9.95331 7.8642 8.65962 7.8642H8.35541C7.08825 7.8642 5.98209 6.85381 6.01436 5.50106V4.45573V4.45573Z" fill="#210529"/>
</svg>
