<svg width="24" height="24" viewBox="0 0 24 24" fill="none" xmlns="http://www.w3.org/2000/svg">
<path d="M4 5C4 4.44772 4.44772 4 5 4H9C9.55228 4 10 4.44772 10 5V9C10 9.55228 9.55228 10 9 10H5C4.44772 10 4 9.55228 4 9V5Z" fill="#210529" stroke="#210529" stroke-width="1.5" stroke-linecap="round" stroke-linejoin="round"/>
<path d="M14 5C14 4.44772 14.4477 4 15 4H19C19.5523 4 20 4.44772 20 5V9C20 9.55228 19.5523 10 19 10H15C14.4477 10 14 9.55228 14 9V5Z" fill="#210529" stroke="#210529" stroke-width="1.5" stroke-linecap="round" stroke-linejoin="round"/>
<path d="M4 15C4 14.4477 4.44772 14 5 14H9C9.55228 14 10 14.4477 10 15V19C10 19.5523 9.55228 20 9 20H5C4.44772 20 4 19.5523 4 19V15Z" fill="#210529" stroke="#210529" stroke-width="1.5" stroke-linecap="round" stroke-linejoin="round"/>
<path d="M14 17C14 17.7956 14.3161 18.5587 14.8787 19.1213C15.4413 19.6839 16.2044 20 17 20C17.7956 20 18.5587 19.6839 19.1213 19.1213C19.6839 18.5587 20 17.7956 20 17C20 16.2044 19.6839 15.4413 19.1213 14.8787C18.5587 14.3161 17.7956 14 17 14C16.2044 14 15.4413 14.3161 14.8787 14.8787C14.3161 15.4413 14 16.2044 14 17Z" fill="#210529" stroke="#210529" stroke-width="1.5" stroke-linecap="round" stroke-linejoin="round"/>
</svg>
