<svg width="24" height="24" viewBox="0 0 24 24" fill="none" xmlns="http://www.w3.org/2000/svg">
<g clip-path="url(#clip0_3702_13255)">
<path d="M3.60313 7.1964L10.7411 4.0874C10.8589 4.03692 10.9856 4.01052 11.1138 4.00978C11.2419 4.00904 11.3689 4.03396 11.4873 4.08308C11.6056 4.13219 11.713 4.20451 11.8029 4.29576C11.8929 4.38701 11.9637 4.49536 12.0111 4.6144L16.9351 16.5164C17.0375 16.7577 17.041 17.0296 16.9448 17.2735C16.8487 17.5174 16.6606 17.7138 16.4211 17.8204L9.28413 20.9294C9.16629 20.98 9.0395 21.0066 8.91124 21.0074C8.78298 21.0082 8.65586 20.9833 8.53738 20.9342C8.4189 20.8851 8.31147 20.8127 8.22143 20.7214C8.13138 20.63 8.06055 20.5216 8.01313 20.4024L3.08913 8.4994C2.98678 8.25805 2.9833 7.98617 3.07943 7.74228C3.17557 7.49839 3.36363 7.303 3.60313 7.1964Z" stroke="#210529" stroke-width="1.5" stroke-linecap="round" stroke-linejoin="round"/>
<path d="M15 4H16C16.2652 4 16.5196 4.10536 16.7071 4.29289C16.8946 4.48043 17 4.73478 17 5V8.5" stroke="#210529" stroke-width="1.5" stroke-linecap="round" stroke-linejoin="round"/>
<path d="M20 6C20.264 6.112 20.52 6.217 20.768 6.315C21.0121 6.41859 21.2051 6.6149 21.3045 6.86075C21.4039 7.1066 21.4015 7.38187 21.298 7.626L19 13" stroke="#210529" stroke-width="1.5" stroke-linecap="round" stroke-linejoin="round"/>
</g>
<defs>
<clipPath id="clip0_3702_13255">
<rect width="24" height="24" fill="white"/>
</clipPath>
</defs>
</svg>
