<svg width="16" height="17" viewBox="0 0 16 17" fill="none" xmlns="http://www.w3.org/2000/svg">
<g clip-path="url(#clip0_2196_16542)">
<path fill-rule="evenodd" clip-rule="evenodd" d="M8 2C7.14641 2 6.30117 2.16813 5.51256 2.49478C4.72394 2.82144 4.00739 3.30023 3.40381 3.90381C2.80023 4.50739 2.32144 5.22394 1.99478 6.01256C1.66813 6.80117 1.5 7.64641 1.5 8.5C1.5 9.35359 1.66813 10.1988 1.99478 10.9874C2.32144 11.7761 2.80023 12.4926 3.40381 13.0962C4.00739 13.6998 4.72394 14.1786 5.51256 14.5052C6.30117 14.8319 7.14641 15 8 15C8.85359 15 9.69883 14.8319 10.4874 14.5052C11.2761 14.1786 11.9926 13.6998 12.5962 13.0962C13.1998 12.4926 13.6786 11.7761 14.0052 10.9874C14.3319 10.1988 14.5 9.35359 14.5 8.5C14.5 7.64641 14.3319 6.80117 14.0052 6.01256C13.6786 5.22394 13.1998 4.50739 12.5962 3.90381C11.9926 3.30023 11.2761 2.82144 10.4874 2.49478C9.69883 2.16813 8.85359 2 8 2ZM10.3536 6.81311C10.5488 7.00838 10.5488 7.32496 10.3536 7.52022L7.68689 10.1869C7.49163 10.3821 7.17504 10.3821 6.97978 10.1869L5.64645 8.85355C5.45118 8.65829 5.45118 8.34171 5.64645 8.14645C5.84171 7.95118 6.15829 7.95118 6.35355 8.14645L7.33333 9.12623L9.64645 6.81311C9.84171 6.61785 10.1583 6.61785 10.3536 6.81311Z" fill="#1167FC"/>
</g>
<defs>
<clipPath id="clip0_2196_16542">
<rect width="16" height="16" fill="white" transform="translate(0 0.5)"/>
</clipPath>
</defs>
</svg>
