<svg width="24" height="24" viewBox="0 0 24 24" fill="none" xmlns="http://www.w3.org/2000/svg">
<path d="M14.1855 18.5734C14.4941 18.7981 15.5873 19.1233 17.1969 19.1233C18.8065 19.1233 19.9098 18.7981 20.2082 18.5734C19.9064 18.3487 18.8065 18.0234 17.1969 18.0234C15.5873 18.0234 14.4941 18.3487 14.1855 18.5734Z" fill="#210529"/>
<path d="M7.65648 7.83864C7.91804 7.83864 8.1293 8.05326 8.1293 8.31482V21.5205C8.1293 21.7887 7.91804 22 7.64977 22H1.47953C1.21462 22 1 21.7854 1 21.5205V8.31482C1 8.0499 1.21797 7.83864 1.47953 7.83864H2.62639V2.47657C2.62639 2.29549 2.72364 2.13453 2.88125 2.05069C3.04221 1.97021 3.23336 1.98698 3.37755 2.09093L6.31177 4.23375C6.4392 4.32093 6.50962 4.46513 6.50962 4.61603V7.83529L7.65648 7.83864Z" fill="#210529"/>
<path d="M18.8808 15.4709C20.9163 14.7701 22.3784 12.8419 22.3784 10.575C22.3784 7.71452 20.0545 5.39062 17.1974 5.39062C14.3403 5.39062 12.0164 7.71788 12.0164 10.575C12.0164 12.8419 13.4852 14.7701 15.514 15.4709C12.5596 15.8297 10.4336 17.1074 10.4336 18.6801C10.4336 20.5379 13.4081 21.9933 17.2007 21.9933C21.0001 21.9933 23.9679 20.5345 23.9679 18.6801C23.9645 17.1074 21.8351 15.8297 18.8808 15.4709ZM17.1974 20.0751C16.7849 20.0751 13.1834 20.0315 13.1834 18.5728C13.1834 17.1141 16.7849 17.0705 17.1974 17.0705C17.6098 17.0705 21.2114 17.1141 21.2114 18.5728C21.2114 20.0315 17.6098 20.0751 17.1974 20.0751ZM14.5717 10.4744L16.8587 8.11358C17.0431 7.92243 17.3449 7.91908 17.5327 8.10352C17.7205 8.28795 17.7239 8.58976 17.5394 8.77419L15.2524 11.135C15.1619 11.2289 15.0378 11.2792 14.9137 11.2792C14.7964 11.2792 14.6723 11.2322 14.5784 11.145C14.3872 10.9606 14.3872 10.6622 14.5717 10.4744ZM19.5951 11.2255L17.308 13.5863C17.2108 13.6802 17.0934 13.7305 16.9693 13.7305C16.8453 13.7305 16.7279 13.6836 16.634 13.5964C16.4462 13.4119 16.4395 13.1101 16.6206 12.919L18.9143 10.5616C19.0988 10.3704 19.4006 10.3671 19.5816 10.5515C19.7728 10.7326 19.7795 11.0377 19.5951 11.2255Z" fill="#210529"/>
<path d="M17.1974 20.0751C16.7849 20.0751 13.1834 20.0315 13.1834 18.5728C13.1834 17.1141 16.7849 17.0705 17.1974 17.0705C17.6098 17.0705 21.2114 17.1141 21.2114 18.5728C21.2114 20.0315 17.6098 20.0751 17.1974 20.0751Z" fill="#210529"/>
</svg>
