<svg width="24" height="24" viewBox="0 0 24 24" fill="none" xmlns="http://www.w3.org/2000/svg">
<path fill-rule="evenodd" clip-rule="evenodd" d="M22 20V13C22 11.8954 21.1046 11 20 11H18.75V15C18.75 15.4142 18.4142 15.75 18 15.75C17.5858 15.75 17.25 15.4142 17.25 15V11H12.75V15C12.75 15.4142 12.4142 15.75 12 15.75C11.5858 15.75 11.25 15.4142 11.25 15V11H6.75V15C6.75 15.4142 6.41421 15.75 6 15.75C5.58579 15.75 5.25 15.4142 5.25 15V11H4C2.89543 11 2 11.8954 2 13V20C2 21.1046 2.89543 22 4 22H20C21.1046 22 22 21.1046 22 20Z" fill="#210529"/>
<path d="M21 3V7M3 3V7M3 5H21" stroke="#210529" stroke-width="1.5" stroke-linecap="round" stroke-linejoin="round"/>
</svg>
