<svg width="24" height="24" viewBox="0 0 24 24" fill="none" xmlns="http://www.w3.org/2000/svg">
<path fill-rule="evenodd" clip-rule="evenodd" d="M11.0711 2.22614C11.4301 2.07685 11.815 2 12.2038 2C12.5926 2 12.9776 2.07685 13.3366 2.22614C13.6952 2.3753 14.0209 2.59382 14.2949 2.86917L14.2956 2.8699L14.9927 3.56692C15.264 3.83646 15.6316 3.98847 16.0141 3.98874H17.0138C17.7962 3.98874 18.5466 4.29955 19.0998 4.85278C19.653 5.40601 19.9638 6.15635 19.9638 6.93874V7.93831C19.964 8.32079 20.1154 8.68768 20.3848 8.95908L20.3856 8.9599L21.0827 9.65692L21.0838 9.65805C21.3589 9.93196 21.5773 10.2575 21.7264 10.616C21.8757 10.975 21.9526 11.3599 21.9526 11.7487C21.9526 12.1375 21.8757 12.5225 21.7264 12.8815C21.5773 13.2401 21.3588 13.5657 21.0836 13.8396L21.0827 13.8406L20.3856 14.5376C20.1161 14.809 19.964 15.1766 19.9638 15.5592V16.5587C19.9638 17.3411 19.653 18.0915 19.0998 18.6447C18.5466 19.1979 17.7962 19.5087 17.0138 19.5087H16.0143C15.6317 19.509 15.2647 19.6604 14.9933 19.9299L14.2956 20.6276L14.2947 20.6285C14.0208 20.9038 13.6951 21.1222 13.3366 21.2713C12.9776 21.4206 12.5926 21.4975 12.2038 21.4975C11.815 21.4975 11.4301 21.4206 11.0711 21.2713C10.7126 21.1223 10.387 20.9039 10.1131 20.6287L10.112 20.6276L9.41498 19.9306L9.41416 19.9297C9.14276 19.6603 8.77587 19.509 8.39339 19.5087H7.39382C6.61143 19.5087 5.86109 19.1979 5.30786 18.6447C4.75462 18.0915 4.44382 17.3411 4.44382 16.5587V15.5592C4.44355 15.1767 4.29215 14.8096 4.02261 14.5382L3.32498 13.8406L3.32425 13.8398C3.0489 13.5658 2.83038 13.2402 2.68122 12.8815C2.53193 12.5225 2.45508 12.1375 2.45508 11.7487C2.45508 11.3599 2.53193 10.975 2.68122 10.616C2.83038 10.2573 3.04889 9.93167 3.32422 9.65768L3.32498 9.65692L4.022 8.9599C4.29149 8.68853 4.44355 8.32097 4.44382 7.9385V6.93874C4.44382 6.15635 4.75462 5.40601 5.30786 4.85278C5.86109 4.29955 6.61143 3.98874 7.39382 3.98874H8.39339C8.77586 3.98847 9.14291 3.83711 9.41428 3.56762L10.112 2.8699L10.1128 2.86915C10.3867 2.59381 10.7124 2.3753 11.0711 2.22614ZM15.5313 8.46967C15.8242 8.76256 15.8242 9.23744 15.5313 9.53033L9.53131 15.5303C9.23841 15.8232 8.76354 15.8232 8.47065 15.5303C8.17775 15.2374 8.17775 14.7626 8.47065 14.4697L14.4706 8.46967C14.7635 8.17678 15.2384 8.17678 15.5313 8.46967ZM14.501 13.25C13.8106 13.25 13.251 13.8096 13.251 14.5C13.251 15.1904 13.8106 15.75 14.501 15.75C15.1913 15.75 15.751 15.1904 15.751 14.5C15.751 13.8096 15.1913 13.25 14.501 13.25ZM8.25098 9.5C8.25098 8.80964 8.81062 8.25 9.50098 8.25C10.1913 8.25 10.751 8.80964 10.751 9.5C10.751 10.1904 10.1913 10.75 9.50098 10.75C8.81062 10.75 8.25098 10.1904 8.25098 9.5Z" fill="#210529"/>
</svg>
