<svg width="24" height="24" viewBox="0 0 24 24" fill="none" xmlns="http://www.w3.org/2000/svg">
<g clip-path="url(#clip0_3702_13210)">
<path fill-rule="evenodd" clip-rule="evenodd" d="M2.92426 2.46967C3.21715 2.17678 3.69203 2.17678 3.98492 2.46967L5.90641 4.39116L9.80165 8.2864L10.7146 9.19933L12.2278 10.7125L13.2884 11.7732L14.8016 13.2864L15.7146 14.1993L19.5614 18.0462L21.9849 20.4697C22.2778 20.7626 22.2778 21.2374 21.9849 21.5303C21.692 21.8232 21.2172 21.8232 20.9243 21.5303L2.92426 3.53033C2.63137 3.23744 2.63137 2.76256 2.92426 2.46967Z" fill="#210529"/>
<path fill-rule="evenodd" clip-rule="evenodd" d="M11.0711 2.22614C11.4301 2.07685 11.815 2 12.2038 2C12.5926 2 12.9776 2.07685 13.3366 2.22614C13.6952 2.3753 14.0209 2.59382 14.2949 2.86917L14.2956 2.8699L14.9927 3.56692C15.264 3.83646 15.6316 3.98847 16.0141 3.98874H17.0138C17.7962 3.98874 18.5466 4.29955 19.0998 4.85278C19.653 5.40601 19.9638 6.15635 19.9638 6.93874V7.93831C19.964 8.32079 20.1154 8.68768 20.3848 8.95908L20.3856 8.9599L21.0827 9.65692L21.0838 9.65805C21.3589 9.93196 21.5773 10.2575 21.7264 10.616C21.8757 10.975 21.9526 11.3599 21.9526 11.7487C21.9526 12.1375 21.8757 12.5225 21.7264 12.8815C21.5773 13.2401 21.3588 13.5657 21.0836 13.8396L21.0827 13.8406L20.3856 14.5376C20.1161 14.809 19.964 15.1766 19.9638 15.5592V16.5587C19.9638 16.7046 19.953 16.8494 19.9318 16.992L14.0007 11.0609L15.5313 9.53033C15.8242 9.23744 15.8242 8.76256 15.5313 8.46967C15.2384 8.17678 14.7635 8.17678 14.4706 8.46967L12.9401 10.0002L6.96055 4.02072C7.10314 3.99955 7.24793 3.98874 7.39382 3.98874H8.39339C8.77586 3.98847 9.14291 3.83711 9.41428 3.56762L10.112 2.8699L10.1128 2.86915C10.3867 2.59381 10.7124 2.3753 11.0711 2.22614ZM13.2884 11.7732L9.53131 15.5303C9.23841 15.8232 8.76354 15.8232 8.47065 15.5303C8.17775 15.2374 8.17775 14.7626 8.47065 14.4697L12.2278 10.7125L10.7146 9.19933C10.7384 9.29564 10.751 9.39635 10.751 9.5C10.751 10.1904 10.1913 10.75 9.50098 10.75C8.81062 10.75 8.25098 10.1904 8.25098 9.5C8.25098 8.80964 8.81062 8.25 9.50098 8.25C9.60463 8.25 9.70534 8.26262 9.80165 8.2864L5.90641 4.39116C5.68974 4.51766 5.48831 4.67232 5.30786 4.85278C4.75462 5.40601 4.44382 6.15635 4.44382 6.93874V7.9385C4.44355 8.32097 4.29149 8.68853 4.022 8.9599L3.32498 9.65692L3.32422 9.65768C3.04889 9.93167 2.83038 10.2573 2.68122 10.616C2.53193 10.975 2.45508 11.3599 2.45508 11.7487C2.45508 12.1375 2.53193 12.5225 2.68122 12.8815C2.83038 13.2402 3.0489 13.5658 3.32425 13.8398L3.32498 13.8406L4.02261 14.5382C4.29215 14.8096 4.44355 15.1767 4.44382 15.5592V16.5587C4.44382 17.3411 4.75462 18.0915 5.30786 18.6447C5.86109 19.1979 6.61143 19.5087 7.39382 19.5087H8.39339C8.77587 19.509 9.14276 19.6603 9.41416 19.9297L9.41498 19.9306L10.112 20.6276L10.1131 20.6287C10.387 20.9039 10.7126 21.1223 11.0711 21.2713C11.4301 21.4206 11.815 21.4975 12.2038 21.4975C12.5926 21.4975 12.9776 21.4206 13.3366 21.2713C13.6951 21.1222 14.0208 20.9038 14.2947 20.6285L14.2956 20.6276L14.9933 19.9299C15.2647 19.6604 15.6317 19.509 16.0143 19.5087H17.0138C17.7962 19.5087 18.5466 19.1979 19.0998 18.6447C19.2802 18.4643 19.4349 18.2628 19.5614 18.0462L15.7146 14.1993C15.7384 14.2956 15.751 14.3963 15.751 14.5C15.751 15.1904 15.1913 15.75 14.501 15.75C13.8106 15.75 13.251 15.1904 13.251 14.5C13.251 13.8096 13.8106 13.25 14.501 13.25C14.6046 13.25 14.7053 13.2626 14.8016 13.2864L13.2884 11.7732Z" fill="#210529"/>
</g>
<defs>
<clipPath id="clip0_3702_13210">
<rect width="24" height="24" fill="white"/>
</clipPath>
</defs>
</svg>
