<svg width="24" height="24" viewBox="0 0 24 24" fill="none" xmlns="http://www.w3.org/2000/svg">
<g clip-path="url(#clip0_3702_13174)">
<path d="M15.5555 12.0103V13.3436C15.5555 13.933 15.7897 14.4982 16.2064 14.915C16.6232 15.3317 17.1884 15.5658 17.7778 15.5658C18.3671 15.5658 18.9324 15.3317 19.3491 14.915C19.7659 14.4982 20 13.933 20 13.3436V12.0103C20.0022 10.2913 19.4506 8.61725 18.427 7.23623C17.4034 5.85521 15.9621 4.84064 14.3168 4.34281C12.6714 3.84499 10.9095 3.89039 9.29194 4.47229C7.67441 5.05419 6.28733 6.14164 5.33618 7.57355C4.38504 9.00545 3.92042 10.7056 4.01116 12.4223C4.10189 14.1389 4.74316 15.7806 5.83996 17.1043C6.93676 18.4279 8.43075 19.3631 10.1006 19.7712C11.7705 20.1794 13.5274 20.0388 15.1111 19.3703M8.44444 12.0113C8.44444 12.9543 8.81905 13.8586 9.48584 14.5254C10.1526 15.1922 11.057 15.5668 12 15.5668C12.943 15.5668 13.8474 15.1922 14.5142 14.5254C15.181 13.8586 15.5556 12.9543 15.5556 12.0113C15.5556 11.0683 15.181 10.1639 14.5142 9.49713C13.8474 8.83033 12.943 8.45573 12 8.45573C11.057 8.45573 10.1526 8.83033 9.48584 9.49713C8.81905 10.1639 8.44444 11.0683 8.44444 12.0113Z" stroke="#210529" stroke-width="1.5" stroke-linecap="round" stroke-linejoin="round"/>
</g>
<defs>
<clipPath id="clip0_3702_13174">
<rect width="24" height="24" fill="white"/>
</clipPath>
</defs>
</svg>
