<svg width="24" height="24" viewBox="0 0 24 24" fill="none" xmlns="http://www.w3.org/2000/svg">
<g clip-path="url(#clip0_3702_13264)">
<path d="M18.9004 7C19.8048 8.50118 20.1913 10.2578 20.0004 12V13C19.9992 14.0529 20.2751 15.0875 20.8004 16" stroke="#210529" stroke-width="1.5" stroke-linecap="round" stroke-linejoin="round"/>
<path d="M8 11C8 9.93913 8.42143 8.92172 9.17157 8.17157C9.92172 7.42143 10.9391 7 12 7C13.0609 7 14.0783 7.42143 14.8284 8.17157C15.5786 8.92172 16 9.93913 16 11V12C16 14.1637 16.7018 16.269 18 18" stroke="#210529" stroke-width="1.5" stroke-linecap="round" stroke-linejoin="round"/>
<path d="M12 11V13C11.9968 15.8594 12.8693 18.6512 14.5 21" stroke="#210529" stroke-width="1.5" stroke-linecap="round" stroke-linejoin="round"/>
<path d="M8 15C8.2447 17.0898 8.85393 19.1206 9.8 21" stroke="#210529" stroke-width="1.5" stroke-linecap="round" stroke-linejoin="round"/>
<path d="M4.90042 19.0003C4.22567 16.7306 3.92176 14.3669 4.00042 12.0003V11.0003C3.99659 9.59419 4.36345 8.21188 5.06403 6.99268C5.76461 5.77349 6.77417 4.76049 7.99097 4.05576C9.20777 3.35103 10.5888 2.97947 11.995 2.97852C13.4011 2.97756 14.7827 3.34725 16.0004 4.05033" stroke="#210529" stroke-width="1.5" stroke-linecap="round" stroke-linejoin="round"/>
</g>
<defs>
<clipPath id="clip0_3702_13264">
<rect width="24" height="24" fill="white"/>
</clipPath>
</defs>
</svg>
