<svg width="24" height="24" viewBox="0 0 24 24" fill="none" xmlns="http://www.w3.org/2000/svg">
<g clip-path="url(#clip0_3702_13253)">
<path fill-rule="evenodd" clip-rule="evenodd" d="M21.5345 7.99117L21.4283 8.14563C20.5724 9.60463 19.1389 10.5441 17.5295 10.5441C15.921 10.5441 14.4896 9.60656 13.6298 8.14464C13.5954 8.09545 13.56 8.04528 13.5235 7.9951C13.3996 8.79789 13.3317 9.6538 13.3317 10.5441C13.3317 13.5271 14.0981 16.1361 15.2078 17.5911L12.9854 19.2951C12.7699 19.6542 12.7886 20.1087 13.0336 20.4481C13.2796 20.7885 13.7036 20.9499 14.1129 20.8593L17.5295 20.0999L20.9462 20.8593C21.3565 20.9508 21.7795 20.7895 22.0255 20.4481C22.2704 20.1077 22.2891 19.6542 22.0737 19.2951L19.8512 17.5911C20.961 16.136 21.7274 13.5269 21.7274 10.5441C21.7274 9.65279 21.6595 8.79394 21.5345 7.99007L21.5345 7.99117ZM13.8096 6.60301C14.0073 6.8657 14.2375 7.18248 14.5051 7.56616C14.514 7.57797 14.5219 7.59076 14.5278 7.60256C15.1879 8.73689 16.2809 9.49541 17.5294 9.49541C18.7769 9.49541 19.8699 8.73591 20.531 7.60256C20.5369 7.59174 20.5438 7.58092 20.5507 7.57108L21.2394 6.56267C20.9659 5.51886 20.5881 4.61472 20.1414 3.9124C19.4183 2.7761 18.4945 2.15039 17.5304 2.15039C16.5653 2.15039 15.6425 2.7761 14.9194 3.9124C14.4669 4.62369 14.0862 5.54258 13.8117 6.60322L13.8096 6.60301ZM18.1846 5.82284C18.5466 5.82284 18.8408 6.11701 18.8408 6.47905C18.8408 6.84109 18.5466 7.13526 18.1846 7.13526C17.8225 7.13526 17.5284 6.84109 17.5284 6.47905C17.5284 6.11701 17.8225 5.82284 18.1846 5.82284Z" fill="#210529"/>
<path fill-rule="evenodd" clip-rule="evenodd" d="M11 9.00047C11 10.1048 10.1045 11 9 11C7.89546 11 7 10.1047 7 9.00047C7 7.89523 7.89546 7 9 7C10.1045 7 11 7.89525 11 9.00047Z" fill="#210529"/>
<path d="M9 3V5.57143M9 12.5V17.7182C9 22.0939 2 22.0939 2 17.7182V13.7403L4.33333 15.7293" stroke="#210529" stroke-width="1.5" stroke-linecap="round" stroke-linejoin="round"/>
</g>
<defs>
<clipPath id="clip0_3702_13253">
<rect width="24" height="24" fill="white"/>
</clipPath>
</defs>
</svg>
