<svg width="24" height="24" viewBox="0 0 24 24" fill="none" xmlns="http://www.w3.org/2000/svg">
<path d="M18.6 3C19.7289 3 20.8146 3.44374 21.6325 4.23944C22.4504 5.03514 22.9381 6.12192 22.9945 7.275L23 7.5V16.5C23 17.6545 22.5661 18.7649 21.7881 19.6014C21.0101 20.4379 19.9475 20.9366 18.82 20.9944L18.6 21H5.4C4.27113 21 3.18545 20.5563 2.36751 19.7606C1.54957 18.9649 1.06194 17.8781 1.0055 16.725L1 16.5V7.5C0.999999 6.34548 1.43388 5.23512 2.2119 4.39859C2.98991 3.56206 4.05255 3.06335 5.18 3.00563L5.4 3H18.6ZM12.5577 8.625L12.3487 8.6295C11.3279 8.688 10.4578 9.28537 9.8 10.254C9.184 9.34837 8.3832 8.76675 7.4471 8.6475L7.2293 8.62838L7.0489 8.625L6.8729 8.63063C5.4649 8.72738 4.3 9.957 4.3 11.4375C4.3 12.8167 5.6442 13.9249 6.9983 14.1904L7.1743 14.2196L5.7223 15.7046L5.631 15.8104C5.48133 16.0077 5.40009 16.2503 5.40009 16.5C5.40009 16.7497 5.48133 16.9923 5.631 17.1896L5.7223 17.2954L5.8257 17.3888C6.01861 17.5418 6.25584 17.6249 6.5 17.6249C6.74416 17.6249 6.98139 17.5418 7.1743 17.3888L7.2777 17.2954L9.8 14.7169L12.3223 17.2954L12.4257 17.3888C12.6374 17.5565 12.9016 17.6396 13.1689 17.6224C13.4361 17.6051 13.6881 17.4887 13.8774 17.2951C14.0668 17.1014 14.1805 16.8438 14.1974 16.5704C14.2143 16.2971 14.1331 16.0268 13.969 15.8104L13.8777 15.7046L12.4257 14.2196C13.7776 14.0295 15.1779 12.9709 15.2923 11.6152L15.3 11.4375L15.2945 11.2541C15.2065 9.9165 14.1725 8.82187 12.902 8.64862L12.7271 8.63063L12.5577 8.625ZM12.5302 10.875L12.6424 10.8851C12.8558 10.9301 13.0461 11.1214 13.0901 11.3419L13.1 11.4375L13.0868 11.4724L13.0494 11.5174C12.9064 11.6692 12.4851 11.9325 12.1298 11.9899L12 12H11.3378L11.395 11.8875L11.4918 11.712C11.7888 11.2125 12.1232 10.929 12.429 10.8817L12.5302 10.875ZM7.0698 10.875L7.1622 10.8806L7.2656 10.9031C7.545 10.9897 7.8409 11.2631 8.1071 11.7109L8.2061 11.8875L8.2611 12H7.6L7.4834 11.991C7.0456 11.9269 6.5 11.541 6.5 11.4375C6.5 11.1788 6.7134 10.9357 6.9576 10.8851L7.0698 10.8739V10.875Z" fill="#210529"/>
<path fill-rule="evenodd" clip-rule="evenodd" d="M12.5577 8.625L12.3487 8.6295C11.3279 8.688 10.4578 9.28537 9.8 10.254C9.184 9.34837 8.3832 8.76675 7.4471 8.6475L7.2293 8.62838L7.0489 8.625L6.8729 8.63063C5.4649 8.72738 4.3 9.957 4.3 11.4375C4.3 12.8167 5.6442 13.9249 6.9983 14.1904L7.1743 14.2196L5.7223 15.7046L5.631 15.8104C5.48133 16.0077 5.40009 16.2503 5.40009 16.5C5.40009 16.7497 5.48133 16.9923 5.631 17.1896L5.7223 17.2954L5.8257 17.3888C6.01861 17.5418 6.25584 17.6249 6.5 17.6249C6.74416 17.6249 6.98139 17.5418 7.1743 17.3888L7.2777 17.2954L9.8 14.7169L12.3223 17.2954L12.4257 17.3888C12.6374 17.5565 12.9016 17.6396 13.1689 17.6224C13.4361 17.6051 13.6881 17.4887 13.8774 17.2951C14.0668 17.1014 14.1805 16.8438 14.1974 16.5704C14.2143 16.2971 14.1331 16.0268 13.969 15.8104L13.8777 15.7046L12.4257 14.2196C13.7776 14.0295 15.1779 12.9709 15.2923 11.6152L15.3 11.4375L15.2945 11.2541C15.2065 9.9165 14.1725 8.82187 12.902 8.64862L12.7271 8.63063L12.5577 8.625ZM12.6424 10.8851L12.5302 10.875L12.429 10.8817C12.1232 10.929 11.7888 11.2125 11.4918 11.712L11.395 11.8875L11.3378 12H12L12.1298 11.9899C12.4851 11.9325 12.9064 11.6692 13.0494 11.5174L13.0868 11.4724L13.1 11.4375L13.0901 11.3419C13.0461 11.1214 12.8558 10.9301 12.6424 10.8851ZM7.1622 10.8806L7.0698 10.875V10.8739L6.9576 10.8851C6.7134 10.9357 6.5 11.1788 6.5 11.4375C6.5 11.541 7.0456 11.9269 7.4834 11.991L7.6 12H8.2611L8.2061 11.8875L8.1071 11.7109C7.8409 11.2631 7.545 10.9897 7.2656 10.9031L7.1622 10.8806Z" fill="#210529"/>
<path d="M18.6 3C19.7289 3 20.8146 3.44374 21.6325 4.23944C22.4504 5.03514 22.9381 6.12192 22.9945 7.275L23 7.5V16.5C23 17.6545 22.5661 18.7649 21.7881 19.6014C21.0101 20.4379 19.9475 20.9366 18.82 20.9944L18.6 21H5.4C4.27113 21 3.18545 20.5563 2.36751 19.7606C1.54957 18.9649 1.06194 17.8781 1.0055 16.725L1 16.5V7.5C0.999999 6.34548 1.43388 5.23512 2.2119 4.39859C2.98991 3.56206 4.05255 3.06335 5.18 3.00563L5.4 3H18.6ZM12.5577 8.625L12.3487 8.6295C11.3279 8.688 10.4578 9.28537 9.8 10.254C9.184 9.34837 8.3832 8.76675 7.4471 8.6475L7.2293 8.62838L7.0489 8.625L6.8729 8.63063C5.4649 8.72738 4.3 9.957 4.3 11.4375C4.3 12.8167 5.6442 13.9249 6.9983 14.1904L7.1743 14.2196L5.7223 15.7046L5.631 15.8104C5.48133 16.0077 5.40009 16.2503 5.40009 16.5C5.40009 16.7497 5.48133 16.9923 5.631 17.1896L5.7223 17.2954L5.8257 17.3888C6.01861 17.5418 6.25584 17.6249 6.5 17.6249C6.74416 17.6249 6.98139 17.5418 7.1743 17.3888L7.2777 17.2954L9.8 14.7169L12.3223 17.2954L12.4257 17.3888C12.6374 17.5565 12.9016 17.6396 13.1689 17.6224C13.4361 17.6051 13.6881 17.4887 13.8774 17.2951C14.0668 17.1014 14.1805 16.8438 14.1974 16.5704C14.2143 16.2971 14.1331 16.0268 13.969 15.8104L13.8777 15.7046L12.4257 14.2196C13.7776 14.0295 15.1779 12.9709 15.2923 11.6152L15.3 11.4375L15.2945 11.2541C15.2065 9.9165 14.1725 8.82187 12.902 8.64862L12.7271 8.63063L12.5577 8.625ZM12.5302 10.875L12.6424 10.8851C12.8558 10.9301 13.0461 11.1214 13.0901 11.3419L13.1 11.4375L13.0868 11.4724L13.0494 11.5174C12.9064 11.6692 12.4851 11.9325 12.1298 11.9899L12 12H11.3378L11.395 11.8875L11.4918 11.712C11.7888 11.2125 12.1232 10.929 12.429 10.8817L12.5302 10.875ZM7.0698 10.875L7.1622 10.8806L7.2656 10.9031C7.545 10.9897 7.8409 11.2631 8.1071 11.7109L8.2061 11.8875L8.2611 12H7.6L7.4834 11.991C7.0456 11.9269 6.5 11.541 6.5 11.4375C6.5 11.1788 6.7134 10.9357 6.9576 10.8851L7.0698 10.8739V10.875Z" stroke="#2C3E50"/>
<path fill-rule="evenodd" clip-rule="evenodd" d="M12.5577 8.625L12.3487 8.6295C11.3279 8.688 10.4578 9.28537 9.8 10.254C9.184 9.34837 8.3832 8.76675 7.4471 8.6475L7.2293 8.62838L7.0489 8.625L6.8729 8.63063C5.4649 8.72738 4.3 9.957 4.3 11.4375C4.3 12.8167 5.6442 13.9249 6.9983 14.1904L7.1743 14.2196L5.7223 15.7046L5.631 15.8104C5.48133 16.0077 5.40009 16.2503 5.40009 16.5C5.40009 16.7497 5.48133 16.9923 5.631 17.1896L5.7223 17.2954L5.8257 17.3888C6.01861 17.5418 6.25584 17.6249 6.5 17.6249C6.74416 17.6249 6.98139 17.5418 7.1743 17.3888L7.2777 17.2954L9.8 14.7169L12.3223 17.2954L12.4257 17.3888C12.6374 17.5565 12.9016 17.6396 13.1689 17.6224C13.4361 17.6051 13.6881 17.4887 13.8774 17.2951C14.0668 17.1014 14.1805 16.8438 14.1974 16.5704C14.2143 16.2971 14.1331 16.0268 13.969 15.8104L13.8777 15.7046L12.4257 14.2196C13.7776 14.0295 15.1779 12.9709 15.2923 11.6152L15.3 11.4375L15.2945 11.2541C15.2065 9.9165 14.1725 8.82187 12.902 8.64862L12.7271 8.63063L12.5577 8.625ZM12.6424 10.8851L12.5302 10.875L12.429 10.8817C12.1232 10.929 11.7888 11.2125 11.4918 11.712L11.395 11.8875L11.3378 12H12L12.1298 11.9899C12.4851 11.9325 12.9064 11.6692 13.0494 11.5174L13.0868 11.4724L13.1 11.4375L13.0901 11.3419C13.0461 11.1214 12.8558 10.9301 12.6424 10.8851ZM7.1622 10.8806L7.0698 10.875V10.8739L6.9576 10.8851C6.7134 10.9357 6.5 11.1788 6.5 11.4375C6.5 11.541 7.0456 11.9269 7.4834 11.991L7.6 12H8.2611L8.2061 11.8875L8.1071 11.7109C7.8409 11.2631 7.545 10.9897 7.2656 10.9031L7.1622 10.8806Z" stroke="#2C3E50"/>
<path fill-rule="evenodd" clip-rule="evenodd" d="M8.02878 10.6507C7.55915 9.9547 7.12631 9.75793 6.80372 9.76491L6.78571 9.76511C6.3623 9.76511 5.71429 10.2935 5.71429 11.2355C5.71429 11.5141 5.89184 11.8748 6.29856 12.2104C6.70607 12.5467 7.1656 12.7059 7.42857 12.7059H8.9143C8.6726 11.843 8.36562 11.1499 8.02878 10.6507ZM7.68292 14.4706H7.42857C6.67712 14.4706 5.85093 14.1028 5.22633 13.5873C4.60095 13.0713 4 12.2556 4 11.2355C4 9.58322 5.17583 8.00635 6.77665 8.00042C7.90018 7.98002 8.79947 8.69952 9.43675 9.64399C9.64193 9.94808 9.82988 10.2884 10 10.6597C10.1701 10.2884 10.3581 9.94808 10.5632 9.64399C11.2005 8.69952 12.0998 7.98003 13.2233 8.00042C14.8242 8.00635 16 9.58322 16 11.2355C16 12.2556 15.3991 13.0713 14.7737 13.5873C14.1491 14.1028 13.3229 14.4706 12.5714 14.4706H12.3171L14.5578 16.4477C14.9172 16.7648 14.9589 17.3219 14.6508 17.6919C14.3427 18.0619 13.8016 18.1047 13.4422 17.7876L10 14.7504L6.55782 17.7876C6.1984 18.1047 5.65728 18.0619 5.34921 17.6919C5.04113 17.3219 5.08276 16.7648 5.44218 16.4477L7.68292 14.4706ZM11.0857 12.7059H12.5714C12.8344 12.7059 13.2939 12.5467 13.7014 12.2104C14.1082 11.8748 14.2857 11.5141 14.2857 11.2355C14.2857 10.2935 13.6377 9.76511 13.2143 9.76511L13.1963 9.76491C12.8737 9.75793 12.4408 9.9547 11.9712 10.6507C11.6344 11.1499 11.3274 11.843 11.0857 12.7059Z" fill="white"/>
</svg>
