<svg width="24" height="24" viewBox="0 0 24 24" fill="none" xmlns="http://www.w3.org/2000/svg">
<path d="M19.6498 11.9492V17.9491C19.6498 19.606 18.3067 20.9491 16.6498 20.9491H8.25C6.59315 20.9491 5.25 19.606 5.25 17.9491V11.9492" stroke="#210529" stroke-width="1.5" stroke-linecap="round" stroke-linejoin="round"/>
<path d="M19.199 7.44922H5.69919C4.45657 7.44922 3.44922 8.45657 3.44922 9.69919C3.44922 10.9418 4.45657 11.9492 5.69919 11.9492H19.199C20.4417 11.9492 21.449 10.9418 21.449 9.69919C21.449 8.45657 20.4416 7.44922 19.199 7.44922Z" stroke="#210529" stroke-width="1.5" stroke-linecap="round" stroke-linejoin="round"/>
<path d="M12.4492 20.9491V7.44922" stroke="#210529" stroke-width="1.5" stroke-linecap="round" stroke-linejoin="round"/>
<path d="M12.4484 7.44916H8.39841C7.80168 7.44916 7.22939 7.21211 6.80744 6.79016C6.38549 6.36821 6.14844 5.79592 6.14844 5.19919C6.14844 4.60246 6.38549 4.03017 6.80744 3.60822C7.22939 3.18627 7.80168 2.94922 8.39841 2.94922C11.5484 2.94922 12.4484 7.44916 12.4484 7.44916Z" stroke="#210529" stroke-width="1.5" stroke-linecap="round" stroke-linejoin="round"/>
<path d="M12.4492 7.44916H16.4992C17.0959 7.44916 17.6682 7.21211 18.0901 6.79016C18.5121 6.36821 18.7491 5.79592 18.7491 5.19919C18.7491 4.60246 18.5121 4.03017 18.0901 3.60822C17.6682 3.18627 17.0959 2.94922 16.4992 2.94922C13.3492 2.94922 12.4492 7.44916 12.4492 7.44916Z" stroke="#210529" stroke-width="1.5" stroke-linecap="round" stroke-linejoin="round"/>
</svg>
