<svg width="144" height="31" viewBox="0 0 144 31" fill="none" xmlns="http://www.w3.org/2000/svg">
<path d="M26.6491 16.2031C26.6491 15.2931 26.5674 14.4181 26.4158 13.5781H14.3291V18.5481H21.2358C20.9324 20.1465 20.0224 21.4998 18.6574 22.4098V25.6415H22.8224C25.2491 23.4015 26.6491 20.1115 26.6491 16.2031Z" fill="#4285F4"/>
<path d="M14.3287 28.7447C17.7937 28.7447 20.6987 27.6013 22.8221 25.6413L18.6571 22.4097C17.5137 23.1797 16.0554 23.6463 14.3287 23.6463C10.9921 23.6463 8.15707 21.3947 7.14207 18.3613H2.87207V21.6747C4.98374 25.863 9.31207 28.7447 14.3287 28.7447Z" fill="#34A853"/>
<path d="M7.14276 18.3502C6.88609 17.5802 6.73443 16.7635 6.73443 15.9118C6.73443 15.0602 6.88609 14.2435 7.14276 13.4735V10.1602H2.87276C1.99776 11.8868 1.49609 13.8352 1.49609 15.9118C1.49609 17.9885 1.99776 19.9368 2.87276 21.6635L6.19776 19.0735L7.14276 18.3502Z" fill="#FBBC05"/>
<path d="M14.3287 8.18813C16.2187 8.18813 17.8987 8.84146 19.2404 10.1015L22.9154 6.42646C20.6871 4.34979 17.7937 3.07812 14.3287 3.07812C9.31207 3.07812 4.98374 5.95979 2.87207 10.1598L7.14207 13.4731C8.15707 10.4398 10.9921 8.18813 14.3287 8.18813Z" fill="#EA4335"/>
<path d="M36.7161 8.82422V2.18022H34.4721V1.12422H40.1151V2.18022H37.8711V8.82422H36.7161ZM42.8759 8.91222C41.1489 8.91222 39.9279 7.71322 39.9279 6.01922V5.90922C39.9279 4.21522 41.1489 3.01622 42.8759 3.01622H42.9419C44.6579 3.01622 45.8789 4.21522 45.8789 5.90922V6.01922C45.8789 7.71322 44.6579 8.91222 42.9419 8.91222H42.8759ZM42.8869 7.96622H42.9199C43.9979 7.96622 44.7459 7.16322 44.7459 6.00822V5.92022C44.7459 4.76522 43.9979 3.96222 42.9199 3.96222H42.8869C41.8199 3.96222 41.0719 4.76522 41.0719 5.92022V6.00822C41.0719 7.16322 41.8199 7.96622 42.8869 7.96622ZM47.3375 11.0242V3.10422H48.1955C48.2725 3.30222 48.3495 3.65422 48.3715 3.90722C48.8555 3.34622 49.5815 3.01622 50.4285 3.01622H50.4725C52.0675 3.01622 53.2335 4.20422 53.2335 5.90922V6.01922C53.2335 7.72422 52.0675 8.91222 50.4725 8.91222H50.4285C49.6145 8.91222 48.9105 8.60422 48.4265 8.07622V11.0242H47.3375ZM50.2305 7.95522H50.2965C51.3745 7.95522 52.0895 7.18522 52.0895 6.00822V5.92022C52.0895 4.74322 51.3745 3.97322 50.2965 3.97322H50.2305C49.1525 3.97322 48.4265 4.74322 48.4265 5.92022V6.00822C48.4265 7.18522 49.1525 7.95522 50.2305 7.95522ZM54.5307 5.88722V4.94122H58.0507V5.88722H54.5307ZM59.6803 8.82422V3.10422H60.5493C60.6263 3.31322 60.6923 3.63222 60.7143 3.89622C61.1543 3.40122 61.7923 3.10422 62.5733 3.10422H62.6723V4.19322C62.5843 4.16022 62.4853 4.13822 62.3753 4.13822C61.3523 4.13822 60.7693 4.75422 60.7693 5.76622V8.82422H59.6803ZM65.4213 8.92322C64.2333 8.92322 63.4193 8.23022 63.4193 7.20722V7.15222C63.4193 5.93122 64.5853 5.29322 66.8953 5.29322H67.3903V4.97422C67.3903 4.35822 66.9063 3.97322 66.0923 3.97322H66.0703C65.4543 3.97322 64.7283 4.20422 64.1783 4.56722L63.7053 3.74222C64.4203 3.29122 65.2453 2.99422 66.1253 2.99422H66.1693C67.5553 2.99422 68.4463 3.75322 68.4463 4.95222V7.76822C68.4463 8.12022 68.5343 8.51622 68.6443 8.82422H67.5663C67.5003 8.65922 67.4453 8.38422 67.4233 8.13122C66.8733 8.63722 66.1693 8.92322 65.4213 8.92322ZM65.5643 7.96622C66.3013 7.96622 66.9613 7.64722 67.3903 7.17422V6.11822H67.0273C65.2783 6.11822 64.4973 6.44822 64.4973 7.13022V7.16322C64.4973 7.63622 64.9263 7.96622 65.5643 7.96622ZM72.0014 8.86822C70.9564 8.86822 70.2854 8.38422 70.2854 7.21822V4.03922H69.5264V3.28022C69.7464 3.20322 70.0324 3.13722 70.2854 3.11522V1.78422L71.3744 1.64122V3.10422H73.2334V4.03922H71.3744V7.02022C71.3744 7.66922 71.6934 7.88922 72.2544 7.88922C72.5404 7.88922 73.0794 7.83422 73.3104 7.76822V8.67022C73.0134 8.80222 72.4194 8.86822 72.0014 8.86822ZM76.9593 8.91222C75.2653 8.91222 74.0773 7.72422 74.0773 6.08522V5.94222C74.0773 4.24822 75.2983 3.02722 76.9483 3.02722H76.9813C78.5543 3.02722 79.6543 4.11622 79.6543 5.67822V6.36022H75.1883C75.2983 7.28422 76.0133 7.93322 77.0363 7.93322H77.0583C77.8063 7.93322 78.4553 7.58122 78.7853 7.13022L79.4893 7.75722C78.9503 8.48322 77.9823 8.91222 77.0033 8.91222H76.9593ZM75.2213 5.51322H78.6093C78.5433 4.60022 77.8723 3.96222 76.9373 3.96222H76.9263C76.0243 3.96222 75.3643 4.57822 75.2213 5.51322ZM83.5415 8.91222C81.9355 8.91222 80.7805 7.72422 80.7805 6.01922V5.90922C80.7805 4.20422 81.9355 3.01622 83.5415 3.01622H83.5855C84.3995 3.01622 85.1035 3.32422 85.5875 3.85222V0.904218H86.6765V8.82422H85.8185C85.7415 8.62622 85.6645 8.27422 85.6425 8.02122C85.1475 8.58222 84.4215 8.91222 83.5855 8.91222H83.5415ZM83.7175 7.95522H83.7835C84.8615 7.95522 85.5875 7.18522 85.5875 6.00822V5.92022C85.5875 4.74322 84.8615 3.97322 83.7835 3.97322H83.7175C82.6395 3.97322 81.9135 4.74322 81.9135 5.92022V6.00822C81.9135 7.18522 82.6395 7.95522 83.7175 7.95522ZM91.0919 5.13922V5.05122C91.0919 3.85222 92.1369 3.01622 93.5779 3.01622H93.6879C94.1829 3.01622 94.6339 3.11522 95.0079 3.29122C95.1179 2.97222 95.2609 2.69722 95.4259 2.46622H96.4489L95.7449 3.85222C96.0199 4.18222 96.1739 4.58922 96.1739 5.05122V5.13922C96.1739 6.31622 95.1179 7.15222 93.6879 7.15222H93.6439C93.4789 7.15222 93.3139 7.14122 93.1599 7.10822V7.77922C93.3469 7.76822 93.5449 7.75722 93.7429 7.75722H93.8419C95.3379 7.75722 96.4379 8.38422 96.4379 9.38522V9.48422C96.4379 10.4742 95.3269 11.1012 93.8199 11.1012H93.6439C92.1259 11.1012 91.0259 10.4742 91.0259 9.48422V9.37422C91.0259 8.73622 91.5099 8.23022 92.2029 7.95522V6.84422C91.5209 6.50322 91.0919 5.88722 91.0919 5.13922ZM92.1919 5.06222V5.16122C92.1919 5.82122 92.8079 6.28322 93.5999 6.28322H93.6879C94.4799 6.28322 95.0959 5.81022 95.0959 5.16122V5.06222C95.0959 4.40222 94.4799 3.92922 93.6769 3.92922H93.6219C92.8079 3.92922 92.1919 4.39122 92.1919 5.06222ZM92.1259 9.37422V9.44022C92.1259 9.91322 92.7529 10.2212 93.6549 10.2212H93.8089C94.7219 10.2212 95.3489 9.90222 95.3489 9.44022V9.37422C95.3489 8.90122 94.7109 8.59322 93.8089 8.59322H93.6549C92.7529 8.59322 92.1259 8.90122 92.1259 9.37422ZM98.2684 2.25722C97.8724 2.25722 97.5974 1.99322 97.5974 1.61922C97.5974 1.24522 97.8834 0.970218 98.2684 0.970218C98.6644 0.970218 98.9614 1.24522 98.9614 1.61922C98.9614 1.99322 98.6644 2.25722 98.2684 2.25722ZM97.7184 8.82422V3.10422H98.8074V8.82422H97.7184ZM100.674 8.82422V4.05022H100.003V3.32422C100.19 3.24722 100.454 3.18122 100.674 3.14822V2.73022C100.674 1.59722 101.323 0.926218 102.357 0.926218C102.72 0.926218 103.204 1.00322 103.501 1.14622V2.05922C103.226 1.93822 102.929 1.87222 102.61 1.87222C102.027 1.87222 101.741 2.12522 101.741 2.79622V3.12622H103.446V4.05022H101.763V8.82422H100.674ZM106.581 8.86822C105.536 8.86822 104.865 8.38422 104.865 7.21822V4.03922H104.106V3.28022C104.326 3.20322 104.612 3.13722 104.865 3.11522V1.78422L105.954 1.64122V3.10422H107.813V4.03922H105.954V7.02022C105.954 7.66922 106.273 7.88922 106.834 7.88922C107.12 7.88922 107.659 7.83422 107.89 7.76822V8.67022C107.593 8.80222 106.999 8.86822 106.581 8.86822ZM109.094 8.82422V3.10422H109.952C110.029 3.28022 110.084 3.58822 110.117 3.83022C110.546 3.32422 111.184 3.00522 111.899 3.00522H111.921C112.768 3.00522 113.34 3.34622 113.615 3.99522C114.055 3.37922 114.737 3.00522 115.529 3.00522H115.562C116.794 3.00522 117.421 3.74222 117.421 5.08422V8.82422H116.332V5.27122C116.332 4.41322 115.991 4.00622 115.243 4.00622H115.221C114.385 4.00622 113.802 4.52322 113.802 5.52422V8.82422H112.713V5.27122C112.713 4.41322 112.372 4.00622 111.602 4.00622H111.58C110.755 4.00622 110.183 4.52322 110.183 5.52422V8.82422H109.094ZM120.711 8.92322C119.523 8.92322 118.709 8.23022 118.709 7.20722V7.15222C118.709 5.93122 119.875 5.29322 122.185 5.29322H122.68V4.97422C122.68 4.35822 122.196 3.97322 121.382 3.97322H121.36C120.744 3.97322 120.018 4.20422 119.468 4.56722L118.995 3.74222C119.71 3.29122 120.535 2.99422 121.415 2.99422H121.459C122.845 2.99422 123.736 3.75322 123.736 4.95222V7.76822C123.736 8.12022 123.824 8.51622 123.934 8.82422H122.856C122.79 8.65922 122.735 8.38422 122.713 8.13122C122.163 8.63722 121.459 8.92322 120.711 8.92322ZM120.854 7.96622C121.591 7.96622 122.251 7.64722 122.68 7.17422V6.11822H122.317C120.568 6.11822 119.787 6.44822 119.787 7.13022V7.16322C119.787 7.63622 120.216 7.96622 120.854 7.96622ZM125.53 8.82422V0.904218H126.619V8.82422H125.53ZM128.43 8.82422V0.904218H129.519V8.82422H128.43ZM131.661 8.93422C131.254 8.93422 130.935 8.62622 130.935 8.24122V8.19722C130.935 7.82322 131.254 7.51522 131.661 7.51522C132.068 7.51522 132.409 7.82322 132.409 8.19722V8.24122C132.409 8.62622 132.068 8.93422 131.661 8.93422ZM133.812 11.0242V3.10422H134.67C134.747 3.30222 134.824 3.65422 134.846 3.90722C135.33 3.34622 136.056 3.01622 136.903 3.01622H136.947C138.542 3.01622 139.708 4.20422 139.708 5.90922V6.01922C139.708 7.72422 138.542 8.91222 136.947 8.91222H136.903C136.089 8.91222 135.385 8.60422 134.901 8.07622V11.0242H133.812ZM136.705 7.95522H136.771C137.849 7.95522 138.564 7.18522 138.564 6.00822V5.92022C138.564 4.74322 137.849 3.97322 136.771 3.97322H136.705C135.627 3.97322 134.901 4.74322 134.901 5.92022V6.00822C134.901 7.18522 135.627 7.95522 136.705 7.95522ZM141.16 8.82422V0.904218H142.249V8.82422H141.16Z" fill="white" fill-opacity="0.6"/>
<path d="M38.4541 27.9121V26.3941H34.5271V25.4371L37.9041 20.2121H39.5541V25.3931H40.5771V26.3941H39.5541V27.9121H38.4541ZM35.7371 25.3931H38.4541V21.2681H38.3441L35.7371 25.2831V25.3931ZM42.1461 28.0221C41.7391 28.0221 41.4201 27.7141 41.4201 27.3291V27.2851C41.4201 26.9111 41.7391 26.6031 42.1461 26.6031C42.5531 26.6031 42.8941 26.9111 42.8941 27.2851V27.3291C42.8941 27.7141 42.5531 28.0221 42.1461 28.0221ZM46.5546 28.0221C45.1466 28.0221 44.0906 27.3401 43.7386 26.1631L44.8056 25.8881C45.1026 26.6141 45.7406 26.9551 46.5766 26.9551C47.7646 26.9551 48.3696 26.3061 48.3696 25.3491C48.3696 24.4031 47.7756 23.8531 46.7856 23.8531C46.0706 23.8531 45.4986 24.1061 45.0366 24.5571L44.0686 24.2931L44.5086 20.2121H49.0296V21.2571H45.4216L45.1796 23.4241C45.7076 23.0611 46.2576 22.8741 46.9616 22.8741C48.5456 22.8741 49.5356 23.8091 49.5356 25.3051C49.5356 26.9221 48.3696 28.0221 46.5546 28.0221Z" fill="#F9D048"/>
<g clip-path="url(#clip0_1534_36355)">
<path d="M59.1962 21.1597L55.4277 21.706L55.361 21.7196C55.26 21.7465 55.1678 21.7996 55.0941 21.8737C55.0203 21.9477 54.9675 22.0401 54.9411 22.1412C54.9146 22.2424 54.9155 22.3487 54.9436 22.4494C54.9718 22.5501 55.0261 22.6415 55.1011 22.7143L57.8312 25.3718L57.1873 29.1255L57.1797 29.1904C57.1735 29.295 57.1952 29.3992 57.2425 29.4926C57.2899 29.5859 57.3612 29.665 57.4492 29.7218C57.5372 29.7785 57.6387 29.8108 57.7433 29.8154C57.8478 29.8201 57.9518 29.7968 58.0444 29.748L61.4148 27.976L64.7775 29.748L64.8365 29.7752C64.934 29.8136 65.04 29.8254 65.1436 29.8093C65.2471 29.7933 65.3445 29.75 65.4258 29.6838C65.5071 29.6177 65.5693 29.5311 65.6061 29.433C65.6429 29.3349 65.6529 29.2287 65.6351 29.1255L64.9907 25.3718L67.722 22.7137L67.7681 22.6635C67.8339 22.5825 67.877 22.4854 67.8931 22.3822C67.9092 22.2791 67.8977 22.1735 67.8597 22.0762C67.8217 21.979 67.7586 21.8935 67.6768 21.8286C67.595 21.7637 67.4975 21.7216 67.3942 21.7066L63.6257 21.1597L61.9411 17.7456C61.8923 17.6467 61.8169 17.5634 61.7232 17.5051C61.6296 17.4469 61.5215 17.416 61.4112 17.416C61.301 17.416 61.1929 17.4469 61.0993 17.5051C61.0056 17.5634 60.9302 17.6467 60.8814 17.7456L59.1962 21.1597Z" fill="#F9D048"/>
</g>
<g clip-path="url(#clip1_1534_36355)">
<path d="M76.5986 21.1597L72.8301 21.706L72.7633 21.7196C72.6623 21.7465 72.5702 21.7996 72.4964 21.8737C72.4226 21.9477 72.3698 22.0401 72.3434 22.1412C72.317 22.2424 72.3179 22.3487 72.346 22.4494C72.3741 22.5501 72.4284 22.6415 72.5034 22.7143L75.2335 25.3718L74.5897 29.1255L74.582 29.1904C74.5758 29.295 74.5975 29.3992 74.6449 29.4926C74.6923 29.5859 74.7636 29.665 74.8516 29.7218C74.9395 29.7785 75.041 29.8108 75.1456 29.8154C75.2502 29.8201 75.3541 29.7968 75.4468 29.748L78.8171 27.976L82.1798 29.748L82.2389 29.7752C82.3364 29.8136 82.4423 29.8254 82.5459 29.8093C82.6494 29.7933 82.7469 29.75 82.8281 29.6838C82.9094 29.6177 82.9717 29.5311 83.0084 29.433C83.0452 29.3349 83.0552 29.2287 83.0375 29.1255L82.3931 25.3718L85.1243 22.7137L85.1704 22.6635C85.2362 22.5825 85.2794 22.4854 85.2955 22.3822C85.3115 22.2791 85.3 22.1735 85.262 22.0762C85.224 21.979 85.1609 21.8935 85.0791 21.8286C84.9974 21.7637 84.8998 21.7216 84.7965 21.7066L81.028 21.1597L79.3434 17.7456C79.2947 17.6467 79.2192 17.5634 79.1256 17.5051C79.0319 17.4469 78.9239 17.416 78.8136 17.416C78.7033 17.416 78.5952 17.4469 78.5016 17.5051C78.408 17.5634 78.3325 17.6467 78.2838 17.7456L76.5986 21.1597Z" fill="#F9D048"/>
</g>
<g clip-path="url(#clip2_1534_36355)">
<path d="M93.9921 21.1597L90.2236 21.706L90.1569 21.7196C90.0558 21.7465 89.9637 21.7996 89.89 21.8737C89.8162 21.9477 89.7634 22.0401 89.737 22.1412C89.7105 22.2424 89.7114 22.3487 89.7395 22.4494C89.7677 22.5501 89.822 22.6415 89.897 22.7143L92.6271 25.3718L91.9832 29.1255L91.9756 29.1904C91.9694 29.295 91.9911 29.3992 92.0384 29.4926C92.0858 29.5859 92.1571 29.665 92.2451 29.7218C92.3331 29.7785 92.4346 29.8108 92.5392 29.8154C92.6437 29.8201 92.7477 29.7968 92.8403 29.748L96.2107 27.976L99.5734 29.748L99.6324 29.7752C99.7299 29.8136 99.8359 29.8254 99.9395 29.8093C100.043 29.7933 100.14 29.75 100.222 29.6838C100.303 29.6177 100.365 29.5311 100.402 29.433C100.439 29.3349 100.449 29.2287 100.431 29.1255L99.7866 25.3718L102.518 22.7137L102.564 22.6635C102.63 22.5825 102.673 22.4854 102.689 22.3822C102.705 22.2791 102.694 22.1735 102.656 22.0762C102.618 21.979 102.554 21.8935 102.473 21.8286C102.391 21.7637 102.293 21.7216 102.19 21.7066L98.4216 21.1597L96.737 17.7456C96.6882 17.6467 96.6128 17.5634 96.5191 17.5051C96.4255 17.4469 96.3174 17.416 96.2071 17.416C96.0969 17.416 95.9888 17.4469 95.8952 17.5051C95.8015 17.5634 95.7261 17.6467 95.6773 17.7456L93.9921 21.1597Z" fill="#F9D048"/>
</g>
<g clip-path="url(#clip3_1534_36355)">
<path d="M111.395 21.1597L107.627 21.706L107.56 21.7196C107.459 21.7465 107.367 21.7996 107.293 21.8737C107.22 21.9477 107.167 22.0401 107.14 22.1412C107.114 22.2424 107.115 22.3487 107.143 22.4494C107.171 22.5501 107.225 22.6415 107.3 22.7143L110.03 25.3718L109.387 29.1255L109.379 29.1904C109.373 29.295 109.394 29.3992 109.442 29.4926C109.489 29.5859 109.56 29.665 109.648 29.7218C109.736 29.7785 109.838 29.8108 109.942 29.8154C110.047 29.8201 110.151 29.7968 110.244 29.748L113.614 27.976L116.977 29.748L117.036 29.7752C117.133 29.8136 117.239 29.8254 117.343 29.8093C117.446 29.7933 117.544 29.75 117.625 29.6838C117.706 29.6177 117.769 29.5311 117.805 29.433C117.842 29.3349 117.852 29.2287 117.834 29.1255L117.19 25.3718L119.921 22.7137L119.967 22.6635C120.033 22.5825 120.076 22.4854 120.092 22.3822C120.108 22.2791 120.097 22.1735 120.059 22.0762C120.021 21.979 119.958 21.8935 119.876 21.8286C119.794 21.7637 119.697 21.7216 119.593 21.7066L115.825 21.1597L114.14 17.7456C114.092 17.6467 114.016 17.5634 113.922 17.5051C113.829 17.4469 113.721 17.416 113.61 17.416C113.5 17.416 113.392 17.4469 113.298 17.5051C113.205 17.5634 113.129 17.6467 113.081 17.7456L111.395 21.1597Z" fill="#F9D048"/>
</g>
<g clip-path="url(#clip4_1534_36355)">
<path d="M131.007 17.4143C131.104 17.4146 131.198 17.4387 131.283 17.4843C131.368 17.53 131.44 17.5958 131.493 17.6759L131.533 17.7445L133.218 21.1591L136.986 21.7055C137.424 21.7693 137.624 22.2607 137.401 22.6069L137.36 22.663L137.314 22.7138L134.583 25.3712L135.226 29.1249C135.243 29.2228 135.235 29.3234 135.203 29.4173C135.17 29.5113 135.115 29.5955 135.041 29.6623C134.968 29.7291 134.879 29.7763 134.782 29.7996C134.685 29.8228 134.585 29.8214 134.489 29.7953L134.429 29.7747L134.369 29.7475L131.007 27.9755L127.636 29.7475C127.574 29.78 127.511 29.8007 127.447 29.8101L127.385 29.816C127.302 29.819 127.22 29.8048 127.143 29.7742C127.067 29.7436 126.997 29.6974 126.94 29.6385C126.882 29.5795 126.837 29.5092 126.808 29.4319C126.779 29.3547 126.767 29.2723 126.772 29.1899L126.779 29.1249L127.423 25.3712L124.692 22.7132C124.622 22.6444 124.569 22.5591 124.54 22.4649C124.511 22.3708 124.506 22.2708 124.525 22.1742C124.544 22.0775 124.587 21.9872 124.65 21.9114C124.714 21.8356 124.795 21.7768 124.886 21.7403L124.953 21.7191L125.02 21.7055L128.788 21.1591L130.473 17.745C130.52 17.6438 130.596 17.5585 130.691 17.4998C130.786 17.441 130.896 17.4113 131.007 17.4143ZM131.007 19.3481V26.7174C131.055 26.7174 131.102 26.7231 131.148 26.7345L131.216 26.7557L131.283 26.7853L133.86 28.1432L133.366 25.2649C133.341 25.1226 133.37 24.9764 133.446 24.8538L133.487 24.7953L133.536 24.7421L135.63 22.7026L132.741 22.2844C132.599 22.2636 132.468 22.1914 132.375 22.0812L132.332 22.0239L132.297 21.9613L131.007 19.3481Z" fill="#F9D048"/>
</g>
<defs>
<clipPath id="clip0_1534_36355">
<rect width="14.1761" height="14.1761" fill="white" transform="translate(54.3291 16.8242)"/>
</clipPath>
<clipPath id="clip1_1534_36355">
<rect width="14.1761" height="14.1761" fill="white" transform="translate(71.7266 16.8242)"/>
</clipPath>
<clipPath id="clip2_1534_36355">
<rect width="14.1761" height="14.1761" fill="white" transform="translate(89.125 16.8242)"/>
</clipPath>
<clipPath id="clip3_1534_36355">
<rect width="14.1761" height="14.1761" fill="white" transform="translate(106.523 16.8242)"/>
</clipPath>
<clipPath id="clip4_1534_36355">
<rect width="14.1761" height="14.1761" fill="white" transform="translate(123.921 16.8242)"/>
</clipPath>
</defs>
</svg>
