<svg width="33" height="32" viewBox="0 0 33 32" fill="none" xmlns="http://www.w3.org/2000/svg">
<g clip-path="url(#clip0_1744_3483)">
<path d="M20.2333 12C19.9918 11.581 19.6409 11.2356 19.2181 11.0007C18.7954 10.7659 18.3167 10.6504 17.8333 10.6667H15.1667C14.4594 10.6667 13.7811 10.9476 13.281 11.4477C12.781 11.9478 12.5 12.6261 12.5 13.3333C12.5 14.0406 12.781 14.7189 13.281 15.219C13.7811 15.7191 14.4594 16 15.1667 16H17.8333C18.5406 16 19.2189 16.281 19.719 16.7811C20.219 17.2812 20.5 17.9594 20.5 18.6667C20.5 19.3739 20.219 20.0522 19.719 20.5523C19.2189 21.0524 18.5406 21.3333 17.8333 21.3333H15.1667C14.6833 21.3496 14.2046 21.2341 13.7819 20.9993C13.3591 20.7644 13.0082 20.419 12.7667 20" stroke="#1167FC" stroke-width="1.5" stroke-linecap="round" stroke-linejoin="round"/>
<path d="M16.5 9.33337V22.6667" stroke="#1167FC" stroke-width="1.5" stroke-linecap="round" stroke-linejoin="round"/>
</g>
<defs>
<clipPath id="clip0_1744_3483">
<rect width="32" height="32" fill="white" transform="translate(0.5)"/>
</clipPath>
</defs>
</svg>
