<svg width="24" height="24" viewBox="0 0 24 24" fill="none" xmlns="http://www.w3.org/2000/svg">
<g clip-path="url(#clip0_2623_38063)">
<path d="M11 21H6C5.46957 21 4.96086 20.7893 4.58579 20.4142C4.21071 20.0391 4 19.5304 4 19V7C4 6.46957 4.21071 5.96086 4.58579 5.58579C4.96086 5.21071 5.46957 5 6 5H18C18.5304 5 19.0391 5.21071 19.4142 5.58579C19.7893 5.96086 20 6.46957 20 7V10.5" stroke="#7A697F" stroke-width="1.5" stroke-linecap="round" stroke-linejoin="round"/>
<path d="M16 3V7" stroke="#7A697F" stroke-width="1.5" stroke-linecap="round" stroke-linejoin="round"/>
<path d="M8 3V7" stroke="#7A697F" stroke-width="1.5" stroke-linecap="round" stroke-linejoin="round"/>
<path d="M4 11H15" stroke="#7A697F" stroke-width="1.5" stroke-linecap="round" stroke-linejoin="round"/>
<path d="M17.8002 20.8175L15.6282 21.9555C15.5638 21.989 15.4913 22.004 15.4188 21.9987C15.3463 21.9934 15.2767 21.9681 15.2178 21.9256C15.1589 21.8831 15.113 21.825 15.0851 21.7579C15.0573 21.6907 15.0487 21.6172 15.0602 21.5455L15.4752 19.1345L13.7182 17.4275C13.6658 17.3768 13.6287 17.3123 13.6111 17.2416C13.5935 17.1708 13.5962 17.0965 13.6188 17.0271C13.6414 16.9578 13.6831 16.8962 13.7391 16.8494C13.795 16.8026 13.863 16.7725 13.9352 16.7625L16.3632 16.4105L17.4492 14.2175C17.4817 14.1521 17.5318 14.0972 17.5938 14.0588C17.6558 14.0204 17.7273 14 17.8002 14C17.8732 14 17.9447 14.0204 18.0067 14.0588C18.0687 14.0972 18.1188 14.1521 18.1512 14.2175L19.2372 16.4105L21.6652 16.7625C21.7373 16.7728 21.805 16.8031 21.8607 16.85C21.9164 16.8968 21.9579 16.9583 21.9805 17.0275C22.003 17.0967 22.0058 17.1708 21.9885 17.2415C21.9711 17.3122 21.9343 17.3766 21.8822 17.4275L20.1252 19.1345L20.5392 21.5445C20.5517 21.6163 20.5437 21.6902 20.5162 21.7578C20.4887 21.8254 20.4429 21.8839 20.3838 21.9267C20.3248 21.9695 20.2549 21.9949 20.1822 22C20.1094 22.005 20.0367 21.9896 19.9722 21.9555L17.8002 20.8175Z" stroke="#7A697F" stroke-width="1.5" stroke-linecap="round" stroke-linejoin="round"/>
</g>
<defs>
<clipPath id="clip0_2623_38063">
<rect width="24" height="24" fill="white"/>
</clipPath>
</defs>
</svg>
