<svg width="18" height="19" viewBox="0 0 18 19" fill="none" xmlns="http://www.w3.org/2000/svg">
<path d="M10.8103 5.65104L12.8603 7.69604C13.0409 7.87681 13.1425 8.12194 13.1425 8.37754C13.1425 8.63313 13.0409 8.87827 12.8603 9.05904L5.49725 16.422C5.40715 16.5122 5.30009 16.5835 5.18225 16.632L2.77525 17.623C2.51127 17.7316 2.22107 17.7596 1.9412 17.7035C1.66134 17.6474 1.40433 17.5098 1.20255 17.3079C1.00077 17.106 0.863259 16.8489 0.80733 16.569C0.7514 16.2892 0.779557 15.999 0.888255 15.735L1.87925 13.328C1.92772 13.2102 1.9991 13.1031 2.08925 13.013L9.45125 5.65104C9.63186 5.47157 9.87614 5.37083 10.1308 5.37083C10.3854 5.37083 10.6296 5.47157 10.8103 5.65104V5.65104Z" stroke="#7A697F" stroke-width="1.5" stroke-linecap="round" stroke-linejoin="round"/>
<path d="M10.8145 1.56104L12.8595 3.60704M16.9495 7.69704L14.9045 5.65104M12.8595 3.60704L14.2225 2.24404C14.4032 2.06334 14.6484 1.96184 14.904 1.96184C15.1595 1.96184 15.4047 2.06334 15.5855 2.24404L16.2675 2.92603C16.4481 3.10681 16.5497 3.35194 16.5497 3.60754C16.5497 3.86313 16.4481 4.10826 16.2675 4.28904L14.9045 5.65104M12.8595 3.60704L14.9045 5.65204" stroke="#7A697F" stroke-width="1.5" stroke-linecap="round" stroke-linejoin="round"/>
</svg>
