<svg width="24" height="24" viewBox="0 0 24 24" fill="none" xmlns="http://www.w3.org/2000/svg">
<g clip-path="url(#clip0_3702_13232)">
<path d="M11.9989 12C11.4502 13.0652 10.7145 14.0231 9.8269 14.828C9.26754 15.3875 8.55481 15.7686 7.77885 15.9231C7.0029 16.0775 6.19857 15.9984 5.46759 15.6956C4.73662 15.3929 4.11183 14.8802 3.67225 14.2224C3.23267 13.5646 2.99805 12.7912 2.99805 12C2.99805 11.2088 3.23267 10.4354 3.67225 9.7776C4.11183 9.11977 4.73662 8.60708 5.46759 8.30437C6.19857 8.00165 7.0029 7.92251 7.77885 8.07695C8.55481 8.23139 9.26754 8.61247 9.8269 9.172C10.7145 9.97693 11.4502 10.9348 11.9989 12ZM11.9989 12C12.5476 10.9348 13.2833 9.97693 14.1709 9.172C14.7303 8.61247 15.443 8.23139 16.219 8.07695C16.9949 7.92251 17.7992 8.00165 18.5302 8.30437C19.2612 8.60708 19.886 9.11977 20.3256 9.7776C20.7651 10.4354 20.9998 11.2088 20.9998 12C20.9998 12.7912 20.7651 13.5646 20.3256 14.2224C19.886 14.8802 19.2612 15.3929 18.5302 15.6956C17.7992 15.9984 16.9949 16.0775 16.219 15.9231C15.443 15.7686 14.7303 15.3875 14.1709 14.828C13.2833 14.0231 12.5476 13.0652 11.9989 12Z" stroke="#210529" stroke-width="1.5" stroke-linecap="round" stroke-linejoin="round"/>
</g>
<defs>
<clipPath id="clip0_3702_13232">
<rect width="24" height="24" fill="white"/>
</clipPath>
</defs>
</svg>
