<svg width="17" height="18" viewBox="0 0 17 18" fill="none" xmlns="http://www.w3.org/2000/svg">
<path d="M16.1794 1.27512V10.1377C16.1794 11.6388 15.834 12.9219 15.1432 13.9871C14.4215 15.0781 13.382 15.9256 12.1629 16.4169C10.8668 16.9691 9.32595 17.2452 7.54042 17.2452C6.42764 17.2561 5.31785 17.1288 4.23701 16.8661C3.36531 16.6719 2.53796 16.3177 1.79768 15.8218V12.2699C2.39719 12.7578 3.08036 13.1346 3.81452 13.3825C4.6631 13.6911 5.56027 13.8477 6.46413 13.845C8.01134 13.845 9.19022 13.4893 10.0008 12.7779C10.8113 12.0665 11.216 11.0127 11.2147 9.61648V9.31133C10.7457 10.3474 10.1085 11.1056 9.30301 11.5857C8.42537 12.0894 7.42434 12.3426 6.41061 12.3173C5.36228 12.3426 4.32573 12.0936 3.40542 11.5952C2.56752 11.1289 1.88467 10.4308 1.44019 9.58615C0.972553 8.68685 0.737392 7.68653 0.755803 6.67492C0.73323 5.59705 0.982262 4.53062 1.48034 3.57226C1.94135 2.69735 2.64775 1.97331 3.51438 1.48739C4.43713 0.985465 5.47687 0.733148 6.52913 0.755795C7.67615 0.755795 8.632 0.999662 9.39668 1.48739C10.1614 1.97513 10.7712 2.72757 11.2262 3.74474V1.2808L16.1794 1.27512ZM9.96637 8.70672C10.3549 8.52351 10.6821 8.23336 10.9088 7.87087C11.1325 7.50555 11.2477 7.08515 11.2415 6.65786C11.25 6.22448 11.1368 5.79727 10.9146 5.424C10.6928 5.06435 10.3708 4.77603 9.98739 4.59384C9.54911 4.38877 9.06873 4.28754 8.58421 4.29817C8.09861 4.28735 7.61746 4.39198 7.18102 4.60332C6.79715 4.79192 6.47551 5.08516 6.25385 5.44864C6.02806 5.82573 5.91164 6.25728 5.91739 6.69577C5.91081 7.11585 6.0227 7.52941 6.24047 7.88983C6.46134 8.24788 6.78203 8.53488 7.16382 8.71619C7.59358 8.92038 8.06569 9.02166 8.54215 9.01186C9.03438 9.02146 9.52206 8.91697 9.96637 8.70672Z" fill="#210529"/>
</svg>
