<svg width="24" height="24" viewBox="0 0 24 24" fill="none" xmlns="http://www.w3.org/2000/svg">
<g clip-path="url(#clip0_3702_13208)">
<path fill-rule="evenodd" clip-rule="evenodd" d="M5 4.25C4.27065 4.25 3.57118 4.53973 3.05546 5.05546C2.7985 5.31242 2.59764 5.61499 2.46077 5.94415L12.0001 12.0987L21.5392 5.94415C21.4024 5.61499 21.2015 5.31242 20.9445 5.05546C20.4288 4.53973 19.7293 4.25 19 4.25H5ZM21.75 7.39946L12.4161 13.6241C12.1642 13.7921 11.836 13.7921 11.5841 13.6241L2.25 7.39946V17C2.25 17.7293 2.53973 18.4288 3.05546 18.9445C3.57118 19.4603 4.27065 19.75 5 19.75H19C19.7293 19.75 20.4288 19.4603 20.9445 18.9445C21.4603 18.4288 21.75 17.7293 21.75 17V7.39946Z" fill="#210529"/>
</g>
<defs>
<clipPath id="clip0_3702_13208">
<rect width="24" height="24" fill="white"/>
</clipPath>
</defs>
</svg>
