<svg width="24" height="24" viewBox="0 0 24 24" fill="none" xmlns="http://www.w3.org/2000/svg">
<path d="M20.0396 16.0456C20.8917 14.3545 21.1886 12.4377 20.8881 10.568C20.5876 8.69838 19.7051 6.97115 18.3661 5.63214C17.0271 4.29314 15.2998 3.4106 13.4302 3.11013C11.5605 2.80965 9.64376 3.10656 7.95263 3.95858M5.63463 5.63559C4.78757 6.46864 4.11383 7.46116 3.65227 8.5559C3.19071 9.65064 2.95046 10.8259 2.94539 12.014C2.94032 13.202 3.17053 14.3793 3.62273 15.478C4.07493 16.5766 4.74018 17.5748 5.5801 18.4151C6.42002 19.2554 7.418 19.921 8.51646 20.3736C9.61492 20.8263 10.7921 21.0569 11.9802 21.0523C13.1682 21.0477 14.3436 20.8079 15.4385 20.3468C16.5335 19.8857 17.5262 19.2123 18.3596 18.3656" fill="#210529"/>
<path d="M5.63463 5.63559C4.78757 6.46864 4.11383 7.46116 3.65227 8.5559C3.19071 9.65064 2.95046 10.8259 2.94539 12.014C2.94032 13.202 3.17053 14.3793 3.62273 15.478C4.07493 16.5766 4.74018 17.5748 5.5801 18.4151C6.42002 19.2554 7.418 19.921 8.51646 20.3736C9.61492 20.8263 10.7921 21.0569 11.9802 21.0523C13.1682 21.0477 14.3436 20.8079 15.4385 20.3468C16.5335 19.8857 17.5262 19.2123 18.3596 18.3656M20.0396 16.0456C20.8917 14.3545 21.1886 12.4377 20.8881 10.568C20.5876 8.69838 19.7051 6.97115 18.3661 5.63214C17.0271 4.29314 15.2998 3.4106 13.4302 3.11013C11.5605 2.80965 9.64376 3.10656 7.95263 3.95858L20.0396 16.0456Z" stroke="#210529" stroke-width="1.5" stroke-linecap="round" stroke-linejoin="round"/>
<path d="M3 3L21 21" stroke="#210529" stroke-width="1.5" stroke-linecap="round" stroke-linejoin="round"/>
<path d="M14.82 9.16667C14.7006 8.83722 14.4825 8.55006 14.1938 8.34215C13.9051 8.13423 13.559 8.01507 13.2 8H10.8C10.3226 8 9.86477 8.18437 9.52721 8.51256C9.18964 8.84075 9 9.28587 9 9.75C9 10.2141 9.18964 10.6592 9.52721 10.9874C9.86477 11.3156 10.3226 11.5 10.8 11.5H13.2C13.6774 11.5 14.1352 11.6844 14.4728 12.0126C14.8104 12.3408 15 12.7859 15 13.25C15 13.7141 14.8104 14.1592 14.4728 14.4874C14.1352 14.8156 13.6774 15 13.2 15H10.8C10.441 14.9849 10.0949 14.8658 9.80624 14.6579C9.51753 14.4499 9.29943 14.1628 9.18 13.8333" stroke="white" stroke-width="1.5" stroke-linecap="round" stroke-linejoin="round"/>
<path d="M12 6V8M12 16V18" stroke="white" stroke-width="1.5" stroke-linecap="round" stroke-linejoin="round"/>
</svg>
