<svg width="24" height="24" viewBox="0 0 24 24" fill="none" xmlns="http://www.w3.org/2000/svg">
<g clip-path="url(#clip0_3702_13203)">
<path d="M12.6677 4.76717V8.2067L11.3323 8.20688V4.767C11.331 4.47596 11.3871 4.18753 11.4976 3.91827C11.6081 3.64901 11.7707 3.40422 11.976 3.19796C12.1813 2.9917 12.4254 2.82803 12.6941 2.71636C12.9629 2.60468 13.2511 2.54719 13.5421 2.54719C13.8332 2.54719 14.1213 2.60468 14.3901 2.71636C14.6589 2.82803 14.9029 2.9917 15.1083 3.19796C15.3136 3.40422 15.4762 3.64901 15.5866 3.91827C15.6971 4.18753 15.7533 4.47596 15.752 4.767V5.56862C15.752 5.77568 15.8342 5.97427 15.9807 6.12069C16.1271 6.2671 16.3257 6.34936 16.5327 6.34936C16.7398 6.34936 16.9384 6.2671 17.0848 6.12069C17.2312 5.97427 17.3135 5.77568 17.3135 5.56862V0.667721C17.3135 0.49063 17.3838 0.320792 17.509 0.19557C17.6343 0.070348 17.8041 0 17.9812 0C18.1583 0 18.3281 0.070348 18.4534 0.19557C18.5786 0.320792 18.6489 0.49063 18.6489 0.667721V5.5688C18.6489 6.13004 18.426 6.6683 18.0291 7.06517C17.6322 7.46203 17.094 7.68498 16.5327 7.68498C15.9715 7.68498 15.4332 7.46203 15.0364 7.06517C14.6395 6.6683 14.4165 6.13004 14.4165 5.5688V4.76717C14.4174 4.65182 14.3954 4.53744 14.3518 4.43063C14.3082 4.32381 14.2439 4.22668 14.1627 4.14482C14.0814 4.06296 13.9847 3.99799 13.8782 3.95365C13.7717 3.90931 13.6575 3.88649 13.5421 3.88649C13.4268 3.88649 13.3125 3.90931 13.206 3.95365C13.0995 3.99799 13.0029 4.06296 12.9216 4.14482C12.8403 4.22668 12.776 4.32381 12.7325 4.43063C12.6889 4.53744 12.6669 4.65182 12.6677 4.76717Z" fill="#210529"/>
<path d="M3.41323 5L6.62011 8.20688L16.841 18.4277L21.4132 23" fill="#210529"/>
<path fill-rule="evenodd" clip-rule="evenodd" d="M17.4219 8.2067H12.6677L11.3323 8.20688H9.20684L21.0972 20.0972C21.5678 20.056 22.0286 19.9296 22.4565 19.7228C23.0707 19.4298 23.5523 18.9163 23.8054 18.2846C24.0586 17.6528 24.0649 16.949 23.8231 16.3128L21.9579 11.345C21.608 10.4244 20.9872 9.63167 20.1773 9.07136C19.3674 8.51106 18.4067 8.20956 17.4219 8.2067ZM19.5695 11.5018C19.8066 11.8574 19.9329 12.2754 19.9325 12.7029C19.9307 13.2757 19.7021 13.8244 19.2966 14.2291C18.8911 14.6337 18.3419 14.8612 17.7691 14.8618C17.3416 14.8614 16.9239 14.7342 16.5688 14.4964C16.2136 14.2585 15.937 13.9207 15.7738 13.5256C15.6106 13.1306 15.5683 12.696 15.6521 12.2768C15.7359 11.8577 15.9421 11.4728 16.2447 11.1709C16.5473 10.8689 16.9326 10.6635 17.3519 10.5805C17.7712 10.4976 18.2057 10.5408 18.6004 10.7048C18.9952 10.8688 19.3324 11.1461 19.5695 11.5018Z" fill="#210529"/>
<path d="M18.5971 12.7029C18.5966 12.866 18.5479 13.0253 18.457 13.1608C18.3661 13.2962 18.2371 13.4017 18.0863 13.464C17.9355 13.5262 17.7696 13.5423 17.6097 13.5104C17.4497 13.4785 17.3028 13.3999 17.1874 13.2845C17.0721 13.1692 16.9935 13.0222 16.9615 12.8623C16.9296 12.7023 16.9458 12.5365 17.008 12.3857C17.0702 12.2349 17.1757 12.1059 17.3112 12.015C17.4466 11.9241 17.606 11.8753 17.7691 11.8749C17.9887 11.875 18.1992 11.9622 18.3545 12.1175C18.5097 12.2728 18.597 12.4833 18.5971 12.7029Z" fill="#210529"/>
<path fill-rule="evenodd" clip-rule="evenodd" d="M15.4499 17.6039C14.4011 16.9981 13.2112 16.6791 12 16.6791C10.7888 16.6791 9.5989 16.9981 8.55009 17.6039L5.24264 19.5626C4.68733 19.893 4.05878 20.0805 3.41323 20.1085C2.76768 20.1364 2.12527 20.0039 1.54347 19.7228C0.92926 19.4298 0.447752 18.9164 0.194576 18.2847C-0.0585998 17.653 -0.0649222 16.9492 0.176865 16.313L2.04203 11.3452C2.39193 10.4246 3.0128 9.63185 3.82266 9.07154C4.63253 8.51123 5.59329 8.20974 6.57808 8.20688H6.62011L16.841 18.4277L15.4499 17.6039ZM6 10.25C6.41421 10.25 6.75 10.5858 6.75 11V12.25H8C8.41421 12.25 8.75 12.5858 8.75 13C8.75 13.4142 8.41421 13.75 8 13.75H6.75V15C6.75 15.4142 6.41421 15.75 6 15.75C5.58579 15.75 5.25 15.4142 5.25 15V13.75H4C3.58579 13.75 3.25 13.4142 3.25 13C3.25 12.5858 3.58579 12.25 4 12.25H5.25V11C5.25 10.5858 5.58579 10.25 6 10.25Z" fill="#210529"/>
<path d="M3 5L21 23" stroke="#210529" stroke-width="1.5" stroke-linecap="round" stroke-linejoin="round"/>
</g>
<defs>
<clipPath id="clip0_3702_13203">
<rect width="24" height="24" fill="white"/>
</clipPath>
</defs>
</svg>
