<svg width="24" height="24" viewBox="0 0 24 24" fill="none" xmlns="http://www.w3.org/2000/svg">
<circle cx="12" cy="12" r="9.75" fill="#210529"/>
<path d="M10 7.5H12.5C12.8978 7.5 13.2794 7.67779 13.5607 7.99426C13.842 8.31072 14 8.73995 14 9.1875V10.3125C14 10.7601 13.842 11.1893 13.5607 11.5057C13.2794 11.8222 12.8978 12 12.5 12M12.5 12H11M12.5 12C12.8978 12 13.2794 12.1778 13.5607 12.4943C13.842 12.8107 14 13.2399 14 13.6875V14.8125C14 15.2601 13.842 15.6893 13.5607 16.0057C13.2794 16.3222 12.8978 16.5 12.5 16.5H10" stroke="white" stroke-width="1.5" stroke-linecap="round" stroke-linejoin="round"/>
</svg>
