<svg width="22" height="22" viewBox="0 0 22 22" fill="none" xmlns="http://www.w3.org/2000/svg">
<g clip-path="url(#clip0_1744_3441)">
<path d="M4.00684 18.0281H7.50839L16.7 8.8365C16.9299 8.60658 17.1123 8.33363 17.2367 8.03323C17.3611 7.73283 17.4252 7.41087 17.4252 7.08572C17.4252 6.76057 17.3611 6.4386 17.2367 6.1382C17.1123 5.8378 16.9299 5.56485 16.7 5.33494C16.4701 5.10502 16.1971 4.92264 15.8967 4.79821C15.5963 4.67378 15.2744 4.60974 14.9492 4.60974C14.6241 4.60974 14.3021 4.67378 14.0017 4.79821C13.7013 4.92264 13.4283 5.10502 13.1984 5.33494L4.00684 14.5265V18.0281Z" stroke="#210529" stroke-width="1.31308" stroke-linecap="round" stroke-linejoin="round"/>
<path d="M12.3232 6.21033L15.8248 9.71188" stroke="#210529" stroke-width="1.31308" stroke-linecap="round" stroke-linejoin="round"/>
</g>
<defs>
<clipPath id="clip0_1744_3441">
<rect width="21.0093" height="21.0093" fill="white" transform="translate(0.504883 0.520264)"/>
</clipPath>
</defs>
</svg>
