<svg width="24" height="24" viewBox="0 0 24 24" fill="none" xmlns="http://www.w3.org/2000/svg">
<g clip-path="url(#clip0_3702_13246)">
<path fill-rule="evenodd" clip-rule="evenodd" d="M6.16709 4.3428V19.2432H5.36586C5.16467 19.2432 5 19.4052 5 19.6032V20.64C5 20.838 5.16467 21 5.36586 21H19.6341C19.8354 21 20 20.838 20 20.64V19.6032C20 19.4052 19.8354 19.2432 19.6341 19.2432H18.8329V15.5694V14.8494V4.3428C18.8329 3.6012 18.222 3 17.4683 3H7.53172C6.77807 3 6.16709 3.6012 6.16709 4.3428ZM7.63051 4.79999C7.63051 4.60201 7.79147 4.44001 7.99634 4.44001H17.0037C17.2049 4.44001 17.3695 4.60201 17.3695 4.79999V7.63999C17.3695 7.838 17.2049 8 17.0037 8H7.99634C7.79147 8 7.63051 7.838 7.63051 7.63999V4.79999ZM12.0495 10.2581C11.7096 10.8978 10 14.1667 10 15.3871C10 16.828 11.1226 18 12.5025 18C13.8774 18 15 16.828 15 15.3871C15 14.1667 13.2956 10.8978 12.9506 10.2581C12.7703 9.91398 12.2348 9.91398 12.0495 10.2581Z" fill="#210529"/>
</g>
<defs>
<clipPath id="clip0_3702_13246">
<rect width="24" height="24" fill="white"/>
</clipPath>
</defs>
</svg>
