<svg width="24" height="24" viewBox="0 0 24 24" fill="none" xmlns="http://www.w3.org/2000/svg">
<g clip-path="url(#clip0_3702_13195)">
<path d="M11 4H21V11.2H18L14 13V11.2H11V4Z" fill="#210529" stroke="#210529" stroke-width="1.5" stroke-linecap="round" stroke-linejoin="round"/>
<path d="M15 15.3583V19.125C15 19.3571 14.9157 19.5796 14.7657 19.7437C14.6157 19.9078 14.4122 20 14.2 20H6.8C6.58783 20 6.38434 19.9078 6.23431 19.7437C6.08429 19.5796 6 19.3571 6 19.125V6.875C6 6.64294 6.08429 6.42038 6.23431 6.25628C6.38434 6.09219 6.58783 6 6.8 6H8.5V13.8H11.5V16L15 15.3583Z" fill="#210529" stroke="#210529" stroke-width="1.5" stroke-linecap="round" stroke-linejoin="round"/>
</g>
<defs>
<clipPath id="clip0_3702_13195">
<rect width="24" height="24" fill="white"/>
</clipPath>
</defs>
</svg>
