<svg width="24" height="24" viewBox="0 0 24 24" fill="none" xmlns="http://www.w3.org/2000/svg">
<path d="M9.26316 4C9.42357 3.99996 9.58104 4.04304 9.71909 4.12474C9.85714 4.20645 9.97068 4.32377 10.0478 4.46442L10.0935 4.56285L11.8829 9.037C11.955 9.21701 11.9667 9.41555 11.9162 9.60276C11.8657 9.78996 11.7557 9.95569 11.6029 10.075L11.5134 10.1359L10.0156 11.0343L10.072 11.1264C10.7849 12.2584 11.7425 13.2161 12.8743 13.929L12.9656 13.9845L13.8648 12.4884C13.9644 12.322 14.1154 12.1925 14.295 12.1194C14.4746 12.0463 14.6731 12.0335 14.8606 12.083L14.9635 12.1179L19.4372 13.9076C19.5862 13.967 19.7164 14.0654 19.8143 14.1924C19.9122 14.3195 19.9742 14.4705 19.9937 14.6297L20 14.738V18.3173C20 19.8 18.7984 21.0018 17.2621 21C9.58616 20.5338 3.46705 14.414 3 6.68449C2.99996 5.99976 3.26155 5.34089 3.73125 4.8427C4.20095 4.3445 4.84325 4.04465 5.52674 4.00447L5.68421 4H9.26316Z" fill="#210529"/>
</svg>
