<svg width="24" height="24" viewBox="0 0 24 24" fill="none" xmlns="http://www.w3.org/2000/svg">
<g clip-path="url(#clip0_3702_13173)">
<path d="M15.25 6.125L11.5 8.25L7.75 10.375M11.5 12.5913V20.266M4.53571 8.55357L9.03494 11.1031C10.5641 11.9696 12.4359 11.9696 13.9651 11.1031L18.3241 8.633M4 9.99819V15.0018C4 16.0822 4.58096 17.0792 5.52096 17.6119L9.52795 19.8825C10.7513 20.5757 12.2487 20.5757 13.472 19.8825L17.479 17.6119C18.419 17.0792 19 16.0822 19 15.0018V9.99819C19 8.91776 18.419 7.92079 17.479 7.38812L13.9651 5.39687C12.4359 4.53035 10.5641 4.53035 9.03494 5.39687L5.52096 7.38812C4.58096 7.92079 4 8.91776 4 9.99819Z" stroke="#210529" stroke-width="1.5" stroke-linecap="round" stroke-linejoin="round"/>
</g>
<defs>
<clipPath id="clip0_3702_13173">
<rect width="24" height="24" fill="white"/>
</clipPath>
</defs>
</svg>
