<svg width="22" height="22" viewBox="0 0 22 22" fill="none" xmlns="http://www.w3.org/2000/svg">
<g clip-path="url(#clip0_1744_3455)">
<path d="M5.75684 8.42995C5.75684 9.82295 6.31021 11.1589 7.29521 12.1439C8.28021 13.1289 9.61617 13.6823 11.0092 13.6823C12.4022 13.6823 13.7381 13.1289 14.7231 12.1439C15.7081 11.1589 16.2615 9.82295 16.2615 8.42995C16.2615 7.03694 15.7081 5.70099 14.7231 4.71599C13.7381 3.73098 12.4022 3.17761 11.0092 3.17761C9.61617 3.17761 8.28021 3.73098 7.29521 4.71599C6.31021 5.70099 5.75684 7.03694 5.75684 8.42995Z" stroke="#210529" stroke-width="1.31308" stroke-linecap="round" stroke-linejoin="round"/>
<path d="M11.0107 13.6822L13.9871 18.8382L15.3859 16.0081L18.5356 16.2112L15.5593 11.056" stroke="#210529" stroke-width="1.31308" stroke-linecap="round" stroke-linejoin="round"/>
<path d="M6.45972 11.056L3.4834 16.2121L6.63305 16.0081L8.03192 18.8374L11.0082 13.6822" stroke="#210529" stroke-width="1.31308" stroke-linecap="round" stroke-linejoin="round"/>
</g>
<defs>
<clipPath id="clip0_1744_3455">
<rect width="21.0093" height="21.0093" fill="white" transform="translate(0.504883 0.551392)"/>
</clipPath>
</defs>
</svg>
