<svg width="24" height="24" viewBox="0 0 24 24" fill="none" xmlns="http://www.w3.org/2000/svg">
<g clip-path="url(#clip0_3702_13177)">
<path d="M15.1426 3H8.85686C7.91115 3 7.14258 3.89663 7.14258 4.99993V5.99989H16.8569V4.99993C16.8569 3.89663 16.0883 3 15.1426 3Z" fill="#210529"/>
<path d="M7.71289 14V19.6664C7.71289 20.403 8.22432 20.9996 8.85575 20.9996H15.1415C15.7729 20.9996 16.2843 20.403 16.2843 19.6664V14H7.71289ZM14.57 19.3331H9.42718C9.11146 19.3331 8.85575 19.0348 8.85575 18.6665C8.85575 18.2982 9.11146 17.9999 9.42718 17.9999H14.57C14.8858 17.9999 15.1415 18.2982 15.1415 18.6665C15.1415 19.0348 14.8858 19.3331 14.57 19.3331ZM14.57 16.6666H9.42718C9.11146 16.6666 8.85575 16.3683 8.85575 15.9999C8.85575 15.6316 9.11146 15.3333 9.42718 15.3333H14.57C14.8858 15.3333 15.1415 15.6316 15.1415 15.9999C15.1415 16.3683 14.8858 16.6666 14.57 16.6666Z" fill="#210529"/>
<path d="M18.2857 7H5.71429C4.76857 7 4 7.89663 4 8.99993V15.6664C4 16.7697 4.76857 17.6663 5.71429 17.6663H6.57143V13.9996C6.25571 13.9996 6 13.7013 6 13.333C6 12.9647 6.25571 12.6664 6.57143 12.6664H17.4286C17.7443 12.6664 18 12.9647 18 13.333C18 13.7013 17.7443 13.9996 17.4286 13.9996V17.6663H18.2857C19.2314 17.6663 20 16.7697 20 15.6664V8.99993C20 7.89663 19.2314 7 18.2857 7ZM17.4286 10.9999H16C15.6843 10.9999 15.4286 10.7015 15.4286 10.3332C15.4286 9.96488 15.6843 9.66657 16 9.66657H17.4286C17.7443 9.66657 18 9.96488 18 10.3332C18 10.7015 17.7443 10.9999 17.4286 10.9999Z" fill="#210529"/>
</g>
<defs>
<clipPath id="clip0_3702_13177">
<rect width="24" height="24" fill="white"/>
</clipPath>
</defs>
</svg>
