<svg width="21" height="20" viewBox="0 0 21 20" fill="none" xmlns="http://www.w3.org/2000/svg">
<path d="M7.03035 6.28164L1.71368 7.05247L1.61952 7.07164C1.47696 7.10948 1.34701 7.18448 1.24293 7.28898C1.13884 7.39347 1.06435 7.52372 1.02707 7.66641C0.989783 7.80911 0.991038 7.95915 1.0307 8.1012C1.07037 8.24326 1.14703 8.37224 1.25285 8.47497L5.10452 12.2241L4.19618 17.52L4.18535 17.6116C4.17662 17.7591 4.20724 17.9062 4.27406 18.0379C4.34088 18.1696 4.4415 18.2812 4.56563 18.3612C4.68975 18.4413 4.83292 18.4869 4.98047 18.4934C5.12802 18.4999 5.27465 18.4671 5.40535 18.3983L10.1603 15.8983L14.9045 18.3983L14.9878 18.4366C15.1254 18.4908 15.2749 18.5074 15.421 18.4848C15.5671 18.4621 15.7045 18.401 15.8192 18.3077C15.9339 18.2144 16.0216 18.0923 16.0735 17.9538C16.1254 17.8154 16.1396 17.6657 16.1145 17.52L15.2053 12.2241L19.0587 8.47414L19.1237 8.40331C19.2165 8.28895 19.2774 8.15202 19.3001 8.00647C19.3228 7.86092 19.3065 7.71196 19.2529 7.57475C19.1993 7.43754 19.1103 7.317 18.9949 7.2254C18.8796 7.1338 18.742 7.07442 18.5962 7.05331L13.2795 6.28164L10.9028 1.46497C10.8341 1.32542 10.7276 1.2079 10.5955 1.12573C10.4634 1.04355 10.3109 1 10.1553 1C9.99977 1 9.8473 1.04355 9.71519 1.12573C9.58308 1.2079 9.47662 1.32542 9.40785 1.46497L7.03035 6.28164Z" fill="#1167FC" stroke="#1167FC" stroke-width="1.5" stroke-linecap="round" stroke-linejoin="round"/>
</svg>
