<svg width="24" height="24" viewBox="0 0 24 24" fill="none" xmlns="http://www.w3.org/2000/svg">
<g clip-path="url(#clip0_3703_37646)">
<path d="M19.9774 5.90425C20.0446 5.64191 19.9594 5.36413 19.7565 5.18393C19.5537 5.00372 19.2669 4.95113 19.0128 5.04753L3.96874 10.7569C3.69785 10.8597 3.51402 11.1128 3.50077 11.4012C3.48751 11.6896 3.64735 11.9584 3.90768 12.0854L6.9793 13.5842L8.55349 18.1929C8.64002 18.4462 8.85961 18.6314 9.12473 18.6748C9.38985 18.7181 9.65738 18.6125 9.82068 18.4L10.5024 15.5389L10.75 14.5L14.341 11.0417C14.6282 10.7614 15.089 10.7661 15.3704 11.0521C15.6518 11.3381 15.6471 11.7971 15.3599 12.0773L12.75 14.75L11.8281 15.7881L15.4194 19.2928C15.6054 19.4743 15.8744 19.543 16.1251 19.4732C16.3758 19.4033 16.5699 19.2054 16.6342 18.9542L19.9774 5.90425Z" fill="#2189C3"/>
</g>
<defs>
<clipPath id="clip0_3703_37646">
<rect width="24" height="24" fill="white"/>
</clipPath>
</defs>
</svg>
