<svg width="24" height="24" viewBox="0 0 24 24" fill="none" xmlns="http://www.w3.org/2000/svg">
<path fill-rule="evenodd" clip-rule="evenodd" d="M18 10.2222L17 4H7L6.07574 9.75097C6.92725 9.25798 7.87567 9 8.83875 9C10.1016 9 11.3393 9.44358 12.3663 10.279C13.1633 10.9273 14.1441 11.2857 15.1613 11.2857C16.1784 11.2857 17.203 10.8705 18 10.2222ZM17.1267 12.6314C16.4973 12.8746 15.8328 13 15.1613 13C13.8984 13 12.6607 12.5564 11.6337 11.721C10.8367 11.0727 9.85588 10.7143 8.83875 10.7143C7.90593 10.7143 7.00365 11.0158 6.24571 11.5658C6.98032 13.4748 9.27838 14.6667 12 14.6667C14.1716 14.6667 16.0735 13.9079 17.1267 12.6314Z" fill="#210529"/>
<path d="M8 19.9993H16Z" fill="#210529"/>
<path d="M12 14.666V19.9993Z" fill="#210529"/>
<path d="M8 19.9993H16M12 14.666V19.9993" stroke="#210529" stroke-width="1.5" stroke-linecap="round" stroke-linejoin="round"/>
</svg>
