<svg width="24" height="24" viewBox="0 0 24 24" fill="none" xmlns="http://www.w3.org/2000/svg">
<path d="M14.6993 13.5C13.5993 11.5 13.2583 11 11.9993 11C10.7403 11 10.2633 11.755 9.16328 13.747C8.22128 15.45 6.31728 15.592 5.84228 17.038C5.74528 17.303 5.69728 17.715 5.69928 18C5.69928 19.176 6.48628 20 7.49928 20C8.75828 20 10.4993 19 11.9993 19C13.4993 19 15.2403 20 16.4993 20C17.5123 20 18.2993 19.177 18.2993 18C18.2993 17.715 18.2503 17.303 18.1533 17.038C17.6783 15.587 15.6413 15.203 14.6993 13.5Z" fill="#210529"/>
<path d="M4.28758 14.8998C5.28491 14.4696 5.5758 12.7988 4.94269 11.1696C4.4098 9.79578 3.38924 8.88889 2.48723 8.88889C2.31612 8.88889 2.14868 8.92189 1.98979 8.98911C0.99245 9.41933 0.701561 11.0901 1.33467 12.7193C1.86757 14.0931 2.88813 15 3.79013 15C3.96124 15 4.12869 14.967 4.28758 14.8998Z" fill="#210529"/>
<path d="M8.91401 10.1111C8.98081 10.1111 9.04641 10.111 9.11201 10.0977C10.2658 9.94122 10.9857 8.45255 10.7254 6.77078C10.4772 5.18556 9.44568 4 8.36401 4C8.29679 4 8.23079 4 8.16479 4.01344C7.011 4.16989 6.29111 5.65855 6.55145 7.34033C6.80078 8.92067 7.83234 10.1111 8.91401 10.1111Z" fill="#210529"/>
<path d="M17.4462 7.34034C17.7077 5.65856 16.9878 4.16989 15.8328 4.01345C15.7672 4.00436 15.7011 3.99987 15.6348 4C14.5532 4 13.5228 5.18556 13.2759 6.77078C13.0144 8.45256 13.7343 9.94122 14.8893 10.0977C14.9553 10.1062 15.0213 10.1111 15.0873 10.1111C16.1689 10.1111 17.2017 8.92067 17.4462 7.34034Z" fill="#210529"/>
<path d="M22.0079 8.98911C21.8509 8.92274 21.6821 8.88865 21.5116 8.88889H21.4933C20.595 8.90356 19.5866 9.80556 19.0574 11.1696C18.4231 12.8012 18.7152 14.4696 19.715 14.8998C19.8726 14.967 20.0413 15 20.2112 15C21.1144 15 22.1362 14.0931 22.6691 12.7193C23.2998 11.0877 23.0015 9.41933 22.0079 8.98911Z" fill="#210529"/>
</svg>
