<svg width="32" height="32" viewBox="0 0 32 32" fill="none" xmlns="http://www.w3.org/2000/svg">
<path d="M2.90918 28.3333L4.79862 22.491C3.16563 20.0017 2.57488 17.0538 3.13623 14.1954C3.69758 11.337 5.37281 8.76262 7.85045 6.95091C10.3281 5.1392 13.4395 4.21345 16.6063 4.34579C19.773 4.47813 22.7796 5.65955 25.0669 7.67039C27.3542 9.68123 28.7667 12.3847 29.0417 15.278C29.3166 18.1714 28.4354 21.0578 26.5619 23.4005C24.6883 25.7433 21.9499 27.383 18.8557 28.0148C15.7616 28.6466 12.5224 28.2274 9.74023 26.8353L2.90918 28.3333Z" fill="#210529"/>
<path d="M9.45459 17.8788C10.3078 18.6559 11.3262 19.2733 12.4501 19.6948C13.5741 20.1162 14.7809 20.3333 16 20.3333C17.2192 20.3333 18.426 20.1162 19.55 19.6948C20.6739 19.2733 21.6923 18.6559 22.5455 17.8788" stroke="white" stroke-width="1.5" stroke-linecap="round" stroke-linejoin="round"/>
<path d="M14.4368 13.1643C14.4368 13.8271 13.8995 14.3643 13.2368 14.3643C12.574 14.3643 12.0368 13.8271 12.0368 13.1643C12.0368 12.5016 12.574 11.9643 13.2368 11.9643C13.8995 11.9643 14.4368 12.5016 14.4368 13.1643Z" fill="white"/>
<path d="M20.4 13.1253C20.4 13.788 19.8627 14.3253 19.2 14.3253C18.5373 14.3253 18 13.788 18 13.1253C18 12.4625 18.5373 11.9253 19.2 11.9253C19.8627 11.9253 20.4 12.4625 20.4 13.1253Z" fill="white"/>
</svg>
