<svg width="38" height="38" viewBox="0 0 38 38" fill="none" xmlns="http://www.w3.org/2000/svg">
<g clip-path="url(#clip0_1855_15681)">
<path d="M5 31.0886L7.02222 25.022C3.40711 19.6755 4.804 12.7766 10.2889 8.88462C15.7738 4.99418 23.6511 5.31307 28.7144 9.63129C33.7778 13.9511 34.4622 20.934 30.3151 25.9662C26.168 30.9984 18.4696 32.5228 12.3111 29.5331L5 31.0886Z" fill="#210529" stroke="#210529" stroke-width="1.75" stroke-linecap="round" stroke-linejoin="round"/>
<path d="M12.8485 19C13.0735 19 13.2893 18.9106 13.4485 18.7515C13.6076 18.5924 13.697 18.3765 13.697 18.1515C13.697 17.9265 13.6076 17.7107 13.4485 17.5515C13.2893 17.3924 13.0735 17.303 12.8485 17.303C12.6235 17.303 12.4076 17.3924 12.2485 17.5515C12.0894 17.7107 12 17.9265 12 18.1515C12 18.3765 12.0894 18.5924 12.2485 18.7515C12.4076 18.9106 12.6235 19 12.8485 19Z" fill="white" stroke="white" stroke-width="1.27273" stroke-linecap="round" stroke-linejoin="round"/>
<path d="M18.7879 19C19.013 19 19.2288 18.9106 19.3879 18.7515C19.547 18.5924 19.6364 18.3765 19.6364 18.1515C19.6364 17.9265 19.547 17.7107 19.3879 17.5515C19.2288 17.3924 19.013 17.303 18.7879 17.303C18.5629 17.303 18.3471 17.3924 18.188 17.5515C18.0288 17.7107 17.9395 17.9265 17.9395 18.1515C17.9395 18.3765 18.0288 18.5924 18.188 18.7515C18.3471 18.9106 18.5629 19 18.7879 19Z" fill="white" stroke="white" stroke-width="1.27273" stroke-linecap="round" stroke-linejoin="round"/>
<path d="M24.7274 19C24.9524 19 25.1682 18.9106 25.3274 18.7515C25.4865 18.5924 25.5759 18.3765 25.5759 18.1515C25.5759 17.9265 25.4865 17.7107 25.3274 17.5515C25.1682 17.3924 24.9524 17.303 24.7274 17.303C24.5024 17.303 24.2865 17.3924 24.1274 17.5515C23.9683 17.7107 23.8789 17.9265 23.8789 18.1515C23.8789 18.3765 23.9683 18.5924 24.1274 18.7515C24.2865 18.9106 24.5024 19 24.7274 19Z" fill="white" stroke="white" stroke-width="1.27273" stroke-linecap="round" stroke-linejoin="round"/>
</g>
<defs>
<clipPath id="clip0_1855_15681">
<rect width="37.3333" height="37.3333" fill="white" transform="translate(0.333496 0.333374)"/>
</clipPath>
</defs>
</svg>
