<svg width="64" height="52" viewBox="0 0 64 52" fill="none" xmlns="http://www.w3.org/2000/svg">
<g clip-path="url(#clip0_4058_11107)">
<path d="M42.0581 4.05947C47.1065 4.05947 51.1997 25.3437 51.1997 51.5993H58.5147C58.5147 23.3234 51.1459 0.401978 42.0583 0.401978C36.8876 0.401978 32.2744 7.29075 29.258 18.0629C26.2422 7.29075 21.6276 0.401978 16.4573 0.401978C7.36973 0.401978 0 23.3234 0 51.5993H7.31586C7.31586 25.3437 11.4095 4.05947 16.4573 4.05947C21.5066 4.05947 25.6014 23.7065 25.6014 47.9438H32.9146C32.9149 23.7065 37.0083 4.05947 42.0581 4.05947ZM62.1761 47.9438C63.1683 47.9438 64 48.7294 64 49.7629C64 50.8129 63.1683 51.5989 62.1761 51.5989C61.1804 51.5989 60.3419 50.8125 60.3419 49.7629C60.3419 48.7294 61.1804 47.9438 62.1761 47.9438ZM62.1761 51.3321C63.0164 51.3321 63.669 50.6569 63.669 49.7636C63.669 48.8858 63.016 48.2114 62.1761 48.2114C61.3254 48.2114 60.6735 48.8858 60.6735 49.7636C60.6733 50.6567 61.3254 51.3321 62.1761 51.3321ZM61.4649 48.7015H62.2891C62.7934 48.7015 63.0312 48.9022 63.0312 49.3116C63.0312 49.6978 62.7901 49.8592 62.4743 49.8927L63.0809 50.8376H62.7248L62.1467 49.9185H61.7971V50.8376H61.4654L61.4649 48.7015ZM61.7968 49.6504H62.1424C62.4334 49.6504 62.7014 49.6359 62.7014 49.2973C62.7014 49.0132 62.4582 48.9687 62.2347 48.9687H61.7973L61.7968 49.6504Z" fill="#756479"/>
</g>
<defs>
<clipPath id="clip0_4058_11107">
<rect width="64" height="52" fill="white"/>
</clipPath>
</defs>
</svg>
