<svg width="119" height="28" viewBox="0 0 119 28" fill="none" xmlns="http://www.w3.org/2000/svg">
<path fill-rule="evenodd" clip-rule="evenodd" d="M36.2988 19.9356V8.302H39.3945L43.317 16.9957L47.1813 8.302H50.147V19.9356H47.5942V13.1678L44.649 19.9356H41.9279L38.9447 13.2047V19.9356H36.2988Z" fill="#756479"/>
<path fill-rule="evenodd" clip-rule="evenodd" d="M60.4204 15.4313L58.2844 10.5L56.1975 15.4313H60.4204ZM54.2882 19.9356H51.2861L56.4464 8.302H60.1424L65.3395 19.9356H62.3763L61.3535 17.6182H55.2795L54.2882 19.9356Z" fill="#756479"/>
<path fill-rule="evenodd" clip-rule="evenodd" d="M66.5361 19.9356V8.302H77.6438V10.6281H69.2189V12.9388H76.4424V15.2091H69.2189V17.6085H77.6642V19.9356H66.5361Z" fill="#756479"/>
<path fill-rule="evenodd" clip-rule="evenodd" d="M82.5458 13.6438H88.382V10.6281H82.5458V13.6438ZM79.8252 19.9356V8.302H89.1201C90.3617 8.302 91.0828 9.02061 91.0828 10.2531V14.1615C91.0828 15.0606 90.2865 15.8734 88.743 15.8734C88.6557 15.8777 88.5664 15.8734 88.4747 15.8734L91.1803 19.9356H88.1943L85.6289 15.9578H82.5458V19.9356H79.8252Z" fill="#756479"/>
<path fill-rule="evenodd" clip-rule="evenodd" d="M95.9776 19.9425H95.0566C93.8543 19.9425 93.2754 19.2476 93.2754 18.2359V16.7162H95.9776V17.6163H101.719V15.2349C101.719 15.2349 96.1843 15.2349 95.1333 15.2349C94.0818 15.2349 93.3244 14.5279 93.3244 13.5468V10.093C93.3244 9.04783 94.1488 8.30933 95.1517 8.30933C96.1542 8.30933 102.68 8.30933 102.68 8.30933C103.698 8.30933 104.402 9.06869 104.402 10.1667C104.402 11.2633 104.402 11.555 104.402 11.555H101.719V10.6355H95.9776V12.9267H102.545C103.514 12.9267 104.402 13.5681 104.402 14.803V18.1234C104.402 19.2544 103.775 19.9425 102.601 19.9425C101.428 19.9425 95.9776 19.9425 95.9776 19.9425Z" fill="#756479"/>
<path fill-rule="evenodd" clip-rule="evenodd" d="M106.995 19.9424V8.30786H109.753V12.9611L115.007 8.30786H118.741L112.474 13.7122L118.966 19.9424H115.1L109.753 14.6506V19.9424H106.995Z" fill="#756479"/>
<path fill-rule="evenodd" clip-rule="evenodd" d="M22.1599 27.3221C23.8228 27.3221 25.1702 25.9742 25.1702 24.3113V3.92484C25.1702 2.262 23.8228 0.913574 22.1599 0.913574H3.15678C1.49345 0.913574 0.145508 2.262 0.145508 3.92484V24.3113C0.145508 25.9742 1.49345 27.3221 3.15678 27.3221H22.1599ZM21.5854 7.23992L16.6473 13.4328L23.7839 16.8696L23.7781 16.8938H15.8574L17.6192 24.6161L17.5969 24.6273L12.6583 18.4344L7.71877 24.6273L7.69645 24.6171L9.45925 16.8938H1.53853L1.53223 16.8696L8.66932 13.4328L3.73075 7.23992L3.74628 7.22002L10.8829 10.6568L12.6457 2.93408H12.6704L14.4332 10.6568L21.5698 7.22002L21.5854 7.23992Z" fill="#756479"/>
</svg>
