<svg width="125" height="32" viewBox="0 0 125 32" fill="none" xmlns="http://www.w3.org/2000/svg">
<g clip-path="url(#clip0_4063_26412)">
<path fill-rule="evenodd" clip-rule="evenodd" d="M80.0785 21.3188L72.5821 10.1263H65.1016V26.5527H70.577V15.3045L77.5385 26.5527H85.393V10.1263H80.0785V21.3188Z" fill="#756479"/>
<path fill-rule="evenodd" clip-rule="evenodd" d="M57.0495 21.3613L49.5301 10.1267H42.0723V26.5527H47.5481V15.3507L54.4905 26.5527H62.3637V10.1267H57.0495V21.3613Z" fill="#756479"/>
<path fill-rule="evenodd" clip-rule="evenodd" d="M33.5391 26.5527H39.1754V10.1267H33.5391V26.5527Z" fill="#756479"/>
<path fill-rule="evenodd" clip-rule="evenodd" d="M25.4862 19.4193L20.55 5.93906H12.4418V19.4079L5.66287 0.782532L0.0136719 0.786197L9.36411 26.5527H17.5954V12.5384L22.6145 26.5527H30.8007V5.93906H25.4862V19.4193Z" fill="#756479"/>
<path fill-rule="evenodd" clip-rule="evenodd" d="M88.293 10.1263V26.5523H101.659V22.6876H93.6075V20.2722H100.532V16.4071H93.6075V13.9914H101.659V10.1263H88.293Z" fill="#756479"/>
<path fill-rule="evenodd" clip-rule="evenodd" d="M124.705 30.7396L116.166 20.4804C117.93 19.6036 119.304 17.8884 119.304 15.7158C119.304 12.6982 116.744 10.1263 113.713 10.1263H104.396V26.5527H109.711V19.8393L118.708 30.7396H124.705ZM112.625 17.373H109.711V13.9914H112.625C113.505 13.9914 114.22 14.7396 114.22 15.6821C114.22 16.6249 113.505 17.373 112.625 17.373Z" fill="#756479"/>
</g>
<defs>
<clipPath id="clip0_4063_26412">
<rect width="125" height="30.6122" fill="white" transform="translate(0 0.693848)"/>
</clipPath>
</defs>
</svg>
