<svg width="56" height="56" viewBox="0 0 56 56" fill="none" xmlns="http://www.w3.org/2000/svg">
<path fill-rule="evenodd" clip-rule="evenodd" d="M27.7818 0.921453C25.4734 0.926952 24.5272 1.01401 22.4751 1.42369C14.7961 2.95679 8.02369 7.9829 4.22458 14.9684C-0.544709 23.7377 -0.0292006 34.5135 5.55675 42.8133C7.31363 45.4238 10.0073 48.1519 12.6159 49.9628C16.195 52.4475 20.7374 54.1303 24.9782 54.5427C25.4429 54.588 25.9614 54.6383 26.1304 54.6546C26.9527 54.7345 30.2566 54.623 31.3153 54.4796C35.7309 53.882 39.709 52.3375 43.2597 49.8423C48.563 46.1155 52.4059 40.5347 53.9375 34.3352C55.6634 27.3486 54.5682 19.997 50.8963 13.9213C47.216 7.83163 41.26 3.40852 34.4263 1.69025C32.0781 1.09984 30.5052 0.917962 27.7818 0.921453ZM27.5235 1.67614C28.9173 1.684 30.5826 1.74497 31.2001 1.83333C34.3796 2.28835 37.3567 3.23286 39.9703 4.61587C48.2009 8.97109 53.5527 17.3621 53.9499 26.5342L53.9992 27.6731L53.4966 27.1941C53.2202 26.9306 52.8201 26.5523 52.6075 26.3533C51.9478 25.7358 51.2646 24.1069 50.8743 22.2208L50.7069 21.4117L50.7369 23.1569C50.8472 29.5523 49.3617 36.0748 46.4467 41.9933C45.6316 43.6483 44.8676 44.8843 44.2332 45.5748C43.4446 46.433 41.355 47.8962 39.7458 48.7171C37.181 50.0255 34.4986 50.692 30.8161 50.9357C29.7277 51.0078 25.8471 51.0467 25.7783 50.9862C25.7606 50.9705 25.326 50.9357 24.8123 50.9082C21.7496 50.7447 18.6774 49.9944 16.3912 48.8517C14.6519 47.9824 12.2915 46.3273 11.573 45.4733C11.3481 45.206 10.9603 44.6765 10.7113 44.2965C10.101 43.3652 8.78016 40.674 8.15798 39.0941C6.13386 33.9542 5.1805 29.1276 5.16592 23.9457C5.16102 22.1548 5.15041 21.9928 5.06595 22.4063C4.74087 23.999 4.1769 24.9799 3.21041 25.634C2.62553 26.0298 2.30922 26.3502 1.96031 26.9001L1.74218 27.244L1.74274 26.749C1.74319 26.4768 1.79495 25.7705 1.85764 25.1794C2.40529 20.0175 4.29841 15.4244 7.56949 11.3215C8.36384 10.3251 10.5082 8.19202 11.5357 7.37614C15.001 4.62452 19.0966 2.76049 23.2611 2.03994C24.1143 1.8923 24.3404 1.86175 25.5925 1.72464C25.9484 1.68584 26.6872 1.67172 27.5235 1.67614ZM28.084 5.45064C26.8144 5.44239 25.553 5.47337 24.9013 5.54785C20.3897 6.06417 16.322 7.38955 12.4959 9.58988C11.046 10.4237 10.3699 10.9294 9.50667 11.8252C8.26018 13.1187 7.61128 14.2351 6.93373 16.2518C5.76221 19.7387 5.5187 23.7481 6.16516 28.9032C6.68819 33.0741 8.04069 37.6147 9.88659 41.3969C10.4093 42.4678 10.5598 42.7068 10.9571 43.0979C11.2115 43.3481 11.5993 43.6424 11.8192 43.752C12.2757 43.9794 12.6603 44.0081 12.8115 43.826C12.9526 43.6561 13.0006 42.2295 12.885 41.6423C12.8357 41.392 12.6401 40.6774 12.4502 40.0546C10.9081 34.997 9.69096 28.6001 9.34977 23.7592C9.23367 22.1121 9.25211 18.9907 9.38523 17.7324C9.6348 15.3739 10.1323 13.5672 10.799 12.5987C11.0755 12.197 11.7859 11.6203 12.5343 11.1897C15.042 9.74722 19.5316 8.72418 24.6709 8.42406C26.2222 8.33349 30.8418 8.36232 32.1219 8.47063C37.9786 8.96583 42.133 10.1039 44.3841 11.8299C45.098 12.3773 45.4514 12.9059 45.8164 13.9728C46.4445 15.8088 46.7053 17.8495 46.6993 20.8803C46.6888 26.1353 45.5324 33.2224 43.6427 39.6134C43.0513 41.6138 42.9933 41.889 42.992 42.7061C42.9904 43.6406 43.1101 43.9513 43.4712 43.9513C43.8458 43.9513 44.4812 43.6055 44.9533 43.1449C45.2946 42.8118 45.4688 42.529 45.9751 41.4854C47.9537 37.4069 49.274 32.9135 49.7849 28.5194C50.0243 26.4611 50.0469 25.9853 50.0247 23.4906C50.006 21.3867 49.9753 20.7874 49.8439 19.9566C49.3796 17.0202 48.6233 14.8243 47.4942 13.1345C46.9956 12.3884 45.9806 11.3159 45.2569 10.7703C44.0196 9.83734 41.2691 8.38289 39.2125 7.574C36.6079 6.54957 34.1841 5.94075 31.3153 5.5907C30.6312 5.50718 29.3535 5.45913 28.084 5.45064ZM28.0507 9.52365C24.4148 9.52365 23.2915 9.58677 20.8303 9.94525C16.7606 10.5381 13.6247 11.6151 12.19 12.9127C11.2425 13.7697 10.6698 15.6084 10.4164 18.6079C10.3036 19.9428 10.364 23.4058 10.5296 25.1028C11.0724 30.6641 12.5059 37.2368 14.2381 42.1051C14.9154 44.009 15.0967 44.2722 16.2552 45.0344C18.4539 46.4811 21.2682 47.2689 25.2471 47.5516C26.5395 47.6435 29.2665 47.6465 30.5472 47.5572C34.6923 47.269 37.3731 46.5367 39.6393 45.0736C40.6779 44.403 40.998 44.0327 41.3689 43.0729C43.1993 38.3365 44.706 31.7331 45.4256 25.2945C45.5281 24.3773 45.5593 23.427 45.5615 21.1486C45.5643 18.4307 45.5502 18.1049 45.3886 17.1021C45.0624 15.0762 44.5517 13.6514 43.9337 13.0431C42.3375 11.4722 38.4113 10.2588 33.0996 9.6948C31.7092 9.54716 31.0692 9.52569 28.0507 9.52365ZM26.7995 19.2401H33.4C35.5466 22.8885 36.3236 28.129 36.0735 37.4006H35.832H33.6934H33.4226C33.4073 35.308 33.3443 31.2165 33.0869 29.8909H29.8125L29.782 37.4006H29.4694H27.3391H27.0495L26.7995 19.2401ZM14.223 19.2403H20.7284L20.7453 21.6131H17.6158L17.6068 27.5225H20.0039V29.8701H17.6068L17.6695 37.4012H14.811L14.223 19.2403ZM21.8583 19.2403H25.2316L25.1717 37.4012H22.2198L21.8583 19.2403ZM35.6959 19.2403H43.7175L43.7351 21.5282H41.4226L40.8161 37.4012H37.9604L38.0274 21.5309H35.6958L35.6959 19.2403ZM29.7152 21.4767L29.6829 27.6455H32.967C32.5906 24.6676 32.1105 22.8507 31.3633 21.4767H29.7152ZM16.8046 47.2525C16.5591 47.2525 16.4904 47.2813 16.4904 47.3839C16.4904 47.6064 17.4852 48.5009 18.074 48.8078C19.2957 49.4446 21.9832 50.0271 24.7094 50.2458C26.0313 50.3519 31.1969 50.2814 32.3523 50.1413C35.0791 49.811 37.2278 49.2344 38.2761 48.5517C38.8456 48.1808 39.3807 47.6267 39.3807 47.4078C39.3807 47.2786 39.3306 47.2525 39.0819 47.2525C38.7078 47.2525 37.5856 47.4816 36.277 47.8251C35.0289 48.1527 34.3471 48.2801 32.7994 48.4752C28.2782 49.0452 23.3256 48.7893 19.5244 47.789C18.3809 47.4882 17.1863 47.2525 16.8046 47.2525Z" fill="#756479"/>
</svg>
