<svg width="126" height="41" viewBox="0 0 126 41" fill="none" xmlns="http://www.w3.org/2000/svg">
<g clip-path="url(#clip0_4058_11100)">
<path d="M87.8439 3.99797C87.8439 3.99797 85.5181 4.92384 82.8131 7.90519C80.1081 10.8865 78.5327 14.239 79.6986 15.1306C80.1465 15.4695 81.1792 15.5341 83.0532 13.8397C84.7826 12.3381 86.1401 10.4559 87.0189 8.3409C88.2292 5.3898 87.8439 4.03428 87.8439 4.002M102.648 9.36158C99.6422 7.82047 97.4455 5.93242 95.1601 4.76449C92.9796 3.64497 91.5696 3.17699 89.8066 3.413C89.5607 3.45683 89.318 3.51749 89.0804 3.59454C89.0804 3.59454 89.9881 6.6949 86.3754 11.9032C82.7163 17.1841 79.3961 17.1478 78.452 15.6975C77.4636 14.1664 78.7405 11.0459 80.8726 8.26828C83.1056 5.36358 87.027 2.9551 87.027 2.9551C87.027 2.9551 85.7763 2.1906 82.7062 3.9314C79.7107 5.62178 74.5549 9.65608 69.7702 16.4599C64.9855 23.2638 64.0375 27.0076 63.3516 29.9547C62.6658 32.9017 63.2891 36.0586 66.5569 36.0586C69.8247 36.0586 73.629 31.0742 74.7022 29.3415C76.6971 26.114 77.9982 21.1639 75.2831 21.8437C73.9457 22.1786 72.8625 23.6592 72.1787 25.0853C71.747 26.0013 71.4169 26.9618 71.1943 27.9496C70.2456 28.3407 69.3546 28.8591 68.5458 29.4907C67.6461 30.1572 66.8053 30.8995 66.0324 31.7096C66.0324 31.7096 66.0445 29.3536 67.9225 25.5412C69.8005 21.7287 73.2478 19.9879 75.2004 19.8245C76.9594 19.6833 79.2488 21.176 77.3083 26.6829C75.3678 32.1897 69.6431 38.8846 63.63 38.9673C58.0808 39.044 54.45 31.9617 62.1736 19.6027C70.7223 5.94855 80.7496 1.75893 84.0053 1.29297C87.2609 0.827006 88.32 2.26322 88.32 2.26322C90.2798 1.45919 92.3964 1.11021 94.5106 1.24254C98.4864 1.51082 101.561 4.32475 105.619 6.30156C104.564 7.31013 103.558 8.36914 102.65 9.36158M120.51 4.76449C117.754 6.53151 113.942 8.13313 110.279 7.79022C109.351 8.74836 108.358 9.8578 107.364 11.0681C113.716 12.3248 119.281 8.38931 122.24 5.03882C123.319 3.8342 124.246 2.50164 125 1.07108C123.653 2.47431 122.145 3.71398 120.508 4.76449M112.05 22.6607C112.098 22.5769 112.137 22.4883 112.167 22.3964C112.148 22.2509 112.08 22.1163 111.974 22.015C111.868 21.9137 111.73 21.8518 111.584 21.8397C110.979 21.8114 110.154 21.9264 107.989 24.3228C106.194 26.3017 104.648 28.494 103.388 30.8503C102.15 33.1135 101.647 34.7999 102.359 35.2356C102.591 35.3554 102.859 35.3828 103.11 35.3122C103.592 35.1973 104.138 34.7454 104.97 33.7832C105.359 33.3314 105.791 32.692 106.307 31.9839C107.739 30.0354 111.338 23.9012 112.05 22.6607ZM89.5666 25.2668C89.9276 24.3228 90.3875 22.469 89.4314 21.7408C88.4047 20.9683 85.7864 22.7817 85.7723 24.6415C85.7541 26.5457 87.616 27.407 88.0618 27.5281C88.3159 27.5966 88.4047 27.5865 88.5277 27.3828C88.9226 26.7024 89.2697 25.9954 89.5666 25.2668ZM87.5857 28.7303C86.9369 28.4307 86.3316 28.0446 85.7864 27.5825C85.2397 27.1239 84.7828 26.5678 84.4389 25.9426C84.4026 25.8821 84.3663 25.9284 84.326 25.9829C84.2857 26.0374 84.1243 26.1846 82.7284 28.23C81.3325 30.2754 79.1883 34.5134 81.1288 35.2356C82.3714 35.6975 84.4389 33.521 85.5665 32.0787C86.3348 31.0721 87.0311 30.0124 87.6503 28.9078C87.7088 28.7847 87.6503 28.7565 87.5877 28.7303M109.599 33.6259C109.072 34.4691 108.471 36.0868 110.204 35.0803C112.324 33.8559 115.344 29.2749 115.344 29.2749H116.713C115.467 31.1912 114.08 33.0117 112.562 34.7212C110.414 37.1015 107.794 39.2638 105.948 39.05C103.792 38.7979 104.467 35.9678 104.467 35.9678C104.467 35.9678 101.383 39.2517 99.2489 39.0157C96.3664 38.697 97.2458 35.1347 97.2458 35.1347C97.2458 35.1347 93.9861 39.1347 91.7653 39.0117C88.2836 38.81 89.1591 34.574 90.1273 31.5906C90.6457 29.995 91.1258 28.7424 91.1258 28.7424C91.1258 28.7424 90.7809 28.8331 90.0386 28.9441C89.6513 28.9986 88.9453 29.0389 88.9453 29.0389C88.9453 29.0389 87.4949 31.5966 86.3351 33.1337C85.1752 34.6708 80.2453 39.9698 77.3446 38.9088C74.6618 37.9285 75.5494 33.8216 77.1106 30.5578C79.39 25.7994 85.8005 18.9632 89.498 19.8669C93.3306 20.7968 89.5847 27.7903 89.5847 27.7903C89.5847 27.7903 89.5847 27.8165 89.625 27.8347C89.7017 27.8629 89.9014 27.8851 90.3633 27.7943C90.842 27.6967 91.3111 27.557 91.7653 27.3768C91.7653 27.3768 95.618 19.3082 99.8742 14.0293C104.13 8.75038 112.621 -0.340925 115.953 1.85777C116.76 2.39837 116.397 4.2602 115.299 6.51941C114.805 6.67995 114.303 6.81461 113.795 6.92284C114.529 5.5895 115.015 4.46595 115.16 3.68128C115.662 0.954086 109.294 6.70701 104.744 12.8876C102.003 16.6135 99.5673 20.5551 97.4617 24.6738C98.2838 24.1724 99.0685 23.6122 99.8097 22.9975C101.839 21.3144 103.769 19.5134 105.587 17.6037C107.338 15.8112 108.98 13.9157 110.505 11.9274C110.989 11.904 111.472 11.8541 111.951 11.7781C110.288 14.0346 108.476 16.1763 106.525 18.1886C104.709 20.0242 102.745 21.999 101.038 23.4332C99.5138 24.7295 97.906 25.9242 96.2252 27.0096C96.2252 27.0096 92.2453 35.0359 94.4097 35.5503C95.6826 35.8569 98.1959 31.986 98.1959 31.986C98.1959 31.986 101.476 26.9814 103.453 24.7242C106.15 21.6581 108.471 19.883 110.791 19.8508C112.143 19.8266 112.939 21.2628 112.939 21.2628L113.575 20.2784H117.488C117.488 20.2784 110.18 32.6799 109.595 33.6138M120.508 4.76449C117.752 6.53151 113.94 8.13313 110.277 7.79022C109.349 8.74836 108.356 9.8578 107.362 11.0681C113.714 12.3248 119.279 8.38931 122.238 5.03882C123.318 3.83431 124.245 2.50175 125 1.07108C123.653 2.47431 122.145 3.71398 120.508 4.76449ZM65.5503 10.8482H61.8287L59.7248 14.2471H63.4465L65.5503 10.8482ZM47.9285 22.6183C49.512 20.4478 53.8811 12.8412 53.8811 12.8412C53.8627 12.6959 53.7949 12.5613 53.6892 12.46C53.5835 12.3586 53.4461 12.2967 53.3002 12.2844C52.695 12.2562 51.6865 12.4599 49.6834 14.9672C47.6804 17.4746 46.1252 19.4695 44.9915 21.5452C43.749 23.8104 43.2064 25.408 43.9204 25.8417C44.1521 25.9578 44.4183 25.9851 44.6688 25.9184C45.1327 25.8014 45.7399 25.3354 46.573 24.3773C46.9643 23.9294 47.4081 23.3263 47.9285 22.6183ZM27.9587 12.3308C26.93 11.5542 24.3137 13.3717 24.2996 15.2275C24.2835 17.1337 26.6536 17.7166 26.9602 17.7307C27.0504 17.7382 27.1408 17.7193 27.2204 17.6763C27.2751 17.6444 27.3188 17.5965 27.3455 17.5391C27.6242 16.9915 27.8746 16.43 28.0959 15.8568C28.4569 14.9128 28.9148 13.059 27.9587 12.3308ZM26.4075 18.8926C25.6982 18.671 25.0202 18.3592 24.3904 17.9647C23.78 17.5668 23.2837 17.0169 22.9501 16.3692C22.9138 16.3086 22.8735 16.355 22.8372 16.4095C22.8008 16.464 22.5911 16.7262 21.1912 18.7797C19.7913 20.8331 17.7176 25.0328 19.6601 25.755C20.8987 26.225 22.9905 24.0303 24.1261 22.5941C24.976 21.4654 25.7612 20.2896 26.4781 19.0721C26.5245 18.9491 26.4781 18.9209 26.4095 18.8987M56.804 20.1574H58.1676C58.1676 20.1574 51.3355 30.0414 47.4767 29.5815C45.3223 29.3294 45.9618 26.6708 45.9618 26.6708C45.9618 26.6708 42.9361 30.2129 40.1564 29.4948C37.635 28.8473 39.2628 24.6536 39.2628 24.6536C38.9764 24.7686 33.52 30.9189 29.6854 29.4443C25.6733 27.8952 27.757 22.7454 28.5195 21.1962C29.167 19.8911 29.8831 18.6203 29.8831 18.6203C29.8831 18.6203 29.2678 18.7938 28.8745 18.8825C28.4811 18.9713 27.9123 19.0842 27.9123 19.0842C27.9123 19.0842 26.0142 22.1685 24.8543 23.7076C23.6944 25.2466 18.7645 30.5356 15.8598 29.4827C12.9551 28.4297 13.6752 24.3652 15.3071 21.1377C17.9536 15.9032 24.233 9.4705 28.0152 10.4468C31.8357 11.4211 28.6728 17.6178 28.6728 17.6178C28.6728 17.6178 29.4332 17.7166 31.2547 16.4741C33.877 14.6848 37.3385 9.87192 41.0863 10.4367C42.8534 10.703 44.4993 12.5083 42.2482 15.9375C41.5301 17.0389 40.3259 18.0232 39.404 17.0489C38.8291 16.4438 39.3314 15.3404 39.9345 14.586C40.1693 14.2785 40.476 14.0334 40.8278 13.8723C41.1795 13.7112 41.5655 13.639 41.9517 13.6621C41.9517 13.6621 42.571 12.2501 40.9956 12.2703C39.7207 12.2945 36.4933 15.2658 34.6718 18.2673C33.0016 21.0227 30.4701 25.7166 33.0117 26.7393C35.3415 27.6793 39.7752 22.4166 41.8286 19.6591C43.8821 16.9017 48.5619 10.6526 52.4873 10.4024C53.8388 10.3137 54.6436 11.5462 54.6436 11.5462L55.0975 10.828H59.0228C59.0228 10.828 51.63 23.1649 51.0531 24.0989C50.5992 24.8291 49.9961 26.4711 51.6582 25.5512C53.3204 24.6314 56.804 20.1574 56.804 20.1574ZM54.6678 39.9255C51.7775 37.9247 48.3166 36.9148 44.8039 37.047C43.8532 37.0729 42.9219 37.3226 42.0857 37.7757C41.2495 38.2289 40.5318 38.8728 39.991 39.6552C38.4943 37.043 35.5351 35.4393 30.9602 35.4756C23.5674 35.5603 16.235 38.9693 10.4256 38.9653C4.85828 38.9653 0.797753 35.4655 0.928868 29.2507C1.17294 18.344 10.3893 8.52244 17.2678 4.10286C21.2335 1.56327 24.5497 0.808852 26.7182 1.05293C28.2996 1.22842 30.2018 3.05596 29.0016 5.74886C27.2386 9.68432 24.8039 9.36158 24.8946 7.47957C24.9451 6.25516 25.76 5.48461 26.3732 5.05899C26.7625 4.79071 27.4504 4.71406 27.8094 4.70599C28.1584 4.41149 28.4146 2.25717 25.5906 2.96519C22.7666 3.67321 19.3374 6.45688 16.0817 10.0535C12.826 13.65 7.75693 20.4478 6.50428 27.5865C5.9193 30.8967 6.30256 36.934 14.1513 36.8654C20.8079 36.811 30.6193 32.4277 39.636 32.5185C43.1358 32.5528 46.1817 33.4968 48.5558 34.9613C50.8877 36.3975 53.6834 38.4953 54.6759 39.9275" fill="#756479"/>
</g>
<defs>
<clipPath id="clip0_4058_11100">
<rect width="125" height="39.2104" fill="white" transform="translate(0.0390625 0.864807)"/>
</clipPath>
</defs>
</svg>
