<svg width="125" height="70" viewBox="0 0 125 70" fill="none" xmlns="http://www.w3.org/2000/svg">
<g clip-path="url(#clip0_4063_26313)">
<g clip-path="url(#clip1_4063_26313)">
<path d="M71.8714 10.7061C69.7251 11.9687 69.0675 12.0751 66.7332 13.4718C68.0925 11.9971 68.5642 11.3696 69.406 10.1362C67.2543 10.2493 64.127 10.5091 61.8945 11.0027C63.8372 9.96471 67.691 8.80988 69.725 8.5358C69.2524 7.88426 65.436 5.81732 64.4865 5.41962C67.5083 5.65405 71.2026 6.78334 72.9931 7.87828C73.6979 7.6588 74.4303 7.64761 75.7416 7.53074C75.4076 8.10443 75.3934 8.43618 74.1068 9.28917C74.4632 10.2418 73.6118 15.484 72.9086 16.8725C72.8831 14.6797 72.6915 11.9103 71.8714 10.7061Z" fill="#756479"/>
<path d="M56.1551 29.5112C54.9212 29.0544 54.0334 28.5212 53.0554 27.6068C53.3482 26.7991 53.6822 26.1678 54.2274 25.3579C53.2246 25.5084 52.4855 25.6211 51.6212 25.7844C50.918 24.5536 50.599 23.3673 50.2406 21.713C50.0489 23.4647 49.9767 24.7157 50.2238 26.1102C49.4308 26.3311 48.8686 26.5236 48.2168 26.8182C49.1311 27.3773 49.8696 27.8075 50.8903 28.2842C51.4385 29.4615 52.0062 30.256 52.9262 31.1629C52.7109 30.3897 52.6536 29.7757 52.7423 28.9645C53.8825 29.2971 54.8587 29.472 56.1551 29.5112Z" fill="#756479"/>
<path d="M59.3667 12.0781C58.9825 12.5768 58.5369 13.507 58.4164 13.9383C61.5954 14.3705 64.1462 16.0031 64.1462 16.0031C61.3663 15.5096 59.9014 15.5709 58.8642 15.6638C57.8337 15.7612 57.6214 15.8825 57.6214 15.8825C56.8718 17.5264 56.4221 20.3467 56.4221 20.3467C55.9165 19.1268 55.1856 16.6853 55.1856 16.6853C53.7829 17.4357 50.5566 20.4696 50.5566 20.4696C52.33 16.9176 54.1304 15.3014 54.1304 15.3014C53.5111 14.6738 51.8859 14.3607 50.699 14.3084C51.3153 14.0567 52.8977 13.7617 54.1132 13.7062C55.3301 13.6718 56.0663 13.7406 56.0663 13.7406C57.1514 12.8847 58.799 12.162 59.3667 12.0781Z" fill="#756479"/>
<path d="M62.7381 27.3088C62.1772 28.0708 61.6942 28.6684 61.0715 29.3641C60.0017 29.664 59.1487 29.7757 58.1055 29.7757C58.7458 30.1063 59.3658 30.304 60.0339 30.4433C59.3659 31.048 58.8013 31.4787 58.1527 31.8916C59.2401 31.6344 60.669 31.1727 61.7332 30.5448C62.2884 30.5653 62.8085 30.5291 63.1897 30.4538C63.0901 30.1314 63.0295 29.8909 62.9486 29.472C63.9506 28.6961 64.6779 27.9936 65.5114 27.1492C64.624 27.769 63.8585 28.2314 62.8315 28.7163C62.7877 28.2442 62.7621 27.842 62.7381 27.3088Z" fill="#756479"/>
<path d="M44.7363 1.54553V36.3266H79.5174V1.54553H44.7363ZM78.7678 2.29745V35.5762H45.4864V2.29745H78.7678Z" fill="#756479"/>
</g>
<path d="M12.3599 63.1917C13.5163 63.1917 14.7767 63.6089 14.7767 64.6715C14.7767 65.2497 14.2794 65.7717 13.5395 66.0255C14.5221 66.3835 15.0889 66.9497 15.0889 67.6896C15.0889 68.9852 13.5163 69.4248 12.0357 69.4248H8.64844C8.72934 68.616 8.7525 67.447 8.7525 66.1521C8.7525 65.2976 8.74054 64.0028 8.65971 63.1917H12.3599ZM11.4119 63.9803C11.1116 63.9803 10.8105 64.0028 10.6607 64.0252C10.6255 64.8356 10.6135 65.2272 10.6135 66.1521C10.6135 67.2747 10.6135 67.6896 10.6607 68.5815H11.5624C12.6258 68.5815 13.1351 68.2685 13.1351 67.6207C13.1351 66.904 12.4753 66.5685 11.6081 66.5685H11.0883L11.4463 65.6324H11.8283C12.2671 65.6324 12.8573 65.4018 12.8573 64.8356C12.8573 64.2327 12.3143 63.9803 11.4119 63.9803Z" fill="#756479"/>
<path d="M21.957 63.1917C21.8994 63.8972 21.8642 65.5396 21.8642 66.1521C21.8642 66.719 21.8761 68.5688 21.957 69.4248H20.4885L18.1294 65.9454C17.9332 65.6669 17.7947 65.4018 17.7362 65.0887V67.0658C17.7362 67.8177 17.7595 68.8818 17.8291 69.4248H16.1523C16.2564 68.4782 16.2684 66.6959 16.2684 66.1521C16.2684 65.5627 16.2332 63.8972 16.1875 63.1917H18.095L20.084 66.4307C20.1882 66.5917 20.2226 66.6734 20.269 66.8119V63.1917H21.957Z" fill="#756479"/>
<path d="M26.5005 63.1917C27.8538 63.1917 29.4841 63.5745 29.4841 65.019C29.4841 66.2906 28.3278 66.9272 25.9808 66.9272C25.8422 66.9272 25.4603 66.9272 25.3569 66.916C25.4026 67.7825 25.3914 68.8339 25.4483 69.4248H23.4023C23.4832 68.5688 23.5064 67.1587 23.5064 66.1521C23.5064 65.2616 23.4832 63.7819 23.4023 63.1917H26.5005ZM25.3794 64.0597C25.3794 64.4633 25.3569 64.8813 25.3569 65.2864C25.3569 65.5852 25.3681 65.8166 25.3794 66.0383C25.4483 66.048 25.7726 66.048 25.9808 66.048C26.6398 66.048 27.5534 65.8646 27.5534 65.019C27.5534 64.1982 26.6166 64.047 25.9111 64.047C25.819 64.047 25.4723 64.047 25.3794 64.0597Z" fill="#756479"/>
<path d="M35.936 63.1917C37.2893 63.1917 38.9196 63.5745 38.9196 65.019C38.9196 66.2906 37.7633 66.9272 35.4156 66.9272C35.277 66.9272 34.8959 66.9272 34.7917 66.916C34.8382 67.7825 34.8262 68.8339 34.8838 69.4248H32.8379C32.9187 68.5688 32.9412 67.1587 32.9412 66.1521C32.9412 65.2616 32.9187 63.7819 32.8379 63.1917H35.936ZM34.815 64.0597C34.815 64.4633 34.7917 64.8813 34.7917 65.2864C34.7917 65.5852 34.8038 65.8166 34.815 66.0383C34.8838 66.048 35.2081 66.048 35.4156 66.048C36.0754 66.048 36.9883 65.8646 36.9883 65.019C36.9883 64.1982 36.0522 64.047 35.3467 64.047C35.2545 64.047 34.9071 64.047 34.815 64.0597Z" fill="#756479"/>
<path d="M42.5567 63.1917C42.7882 63.9324 44.8461 68.419 45.3201 69.4248H43.2734C43.1925 69.1822 43.0308 68.8467 42.7297 68.0603C42.4182 68.0491 42.0939 68.0491 41.6663 68.0491C41.2499 68.0491 40.9488 68.0603 40.6141 68.0723C40.4291 68.5815 40.2666 68.9852 40.1168 69.4248H38.3359C38.6827 68.6497 40.7294 64.187 41.0994 63.1917H42.5567ZM42.3829 67.1137C42.1403 66.5109 41.8048 65.7597 41.6431 65.2392C41.4693 65.7717 41.0994 66.5917 40.9152 67.1137C41.1458 67.1242 41.4581 67.1362 41.6663 67.1362C41.9553 67.1362 42.1058 67.1242 42.3829 67.1137Z" fill="#756479"/>
<path d="M49.148 63.1917C50.5117 63.1917 52.1421 63.6793 52.1421 65.1239C52.1421 65.8982 51.5639 66.4532 50.6623 66.8119C50.8472 67.1362 52.3623 69.1013 52.6626 69.4248H50.4317C50.0377 68.6722 49.2866 67.3781 48.5467 66.2787C49.4364 66.3955 50.2115 65.9679 50.2115 65.1119C50.2115 64.2911 49.2634 64.047 48.8005 64.047C48.5923 64.047 48.1991 64.047 48.0606 64.0597C48.0262 64.8236 48.0142 65.7373 48.0142 66.1521C48.0142 66.6959 48.0142 68.4782 48.1183 69.4248H46.0371C46.1412 68.5007 46.1644 67.4021 46.1644 66.1521C46.1644 65.1007 46.1532 63.8291 46.0603 63.1917H49.148Z" fill="#756479"/>
<path d="M55.5306 63.1917C55.4842 63.8972 55.4497 65.5627 55.4497 66.1633C55.4497 66.719 55.4497 68.5688 55.5306 69.4248H53.4727C53.5767 68.4782 53.588 66.6959 53.588 66.1633C53.588 65.5747 53.5536 63.8972 53.5071 63.1917H55.5306Z" fill="#756479"/>
<path d="M60.5827 63.1917C61.739 63.1917 62.9993 63.6089 62.9993 64.6715C62.9993 65.2497 62.5021 65.7717 61.7621 66.0255C62.7447 66.3835 63.3117 66.9497 63.3117 67.6896C63.3117 68.9852 61.739 69.4248 60.2591 69.4248H56.8711C56.9528 68.616 56.9752 67.447 56.9752 66.1521C56.9752 65.2976 56.964 64.0028 56.8831 63.1917H60.5827ZM59.6345 63.9803C59.3342 63.9803 59.0332 64.0028 58.8834 64.0252C58.8482 64.8356 58.837 65.2272 58.837 66.1521C58.837 67.2747 58.837 67.6896 58.8834 68.5815H59.785C60.8492 68.5815 61.3577 68.2685 61.3577 67.6207C61.3577 66.904 60.6987 66.5685 59.8308 66.5685H59.311L59.669 65.6324H60.0509C60.4905 65.6324 61.0799 65.4018 61.0799 64.8356C61.0799 64.2327 60.537 63.9803 59.6345 63.9803Z" fill="#756479"/>
<path d="M67.763 63.1917C67.9952 63.9324 70.0532 68.419 70.5265 69.4248H68.4812C68.3996 69.1822 68.2378 68.8467 67.9375 68.0603C67.6253 68.0491 67.3017 68.0491 66.8726 68.0491C66.4569 68.0491 66.1559 68.0603 65.8203 68.0723C65.6369 68.5815 65.4744 68.9852 65.3246 69.4248H63.543C63.8904 68.6497 65.9372 64.187 66.3064 63.1917H67.763ZM67.5901 67.1137C67.3474 66.5109 67.0119 65.7597 66.8501 65.2392C66.6764 65.7717 66.3064 66.5917 66.1214 67.1137C66.3529 67.1242 66.6644 67.1362 66.8726 67.1362C67.1624 67.1362 67.3122 67.1242 67.5901 67.1137Z" fill="#756479"/>
<path d="M73.7416 63.0308C74.54 63.0308 75.3143 63.1461 75.7996 63.2966V64.8813C75.1181 64.4881 74.4471 64.1526 73.556 64.1526C72.852 64.1526 72.8055 64.4305 72.8055 64.6379C72.8055 65.69 76.3553 65.7005 76.3553 67.587C76.3553 68.8115 75.2103 69.5858 73.3028 69.5858C72.4475 69.5858 71.638 69.4121 71.0823 69.2173V67.7024C72.3899 68.3142 73.0826 68.5112 73.6839 68.5112C74.1693 68.5112 74.5273 68.2917 74.5273 67.8753C74.5273 66.6846 70.9902 66.8007 70.9902 64.7764C70.9902 63.6673 72.0993 63.0308 73.7416 63.0308Z" fill="#756479"/>
<path d="M86.4336 66.3956C86.3984 67.0089 86.3633 68.3037 86.3408 69.0444C85.6698 69.3897 84.6176 69.5858 83.5998 69.5858C81.288 69.5858 79.8066 68.1308 79.8066 66.3379C79.8066 64.4529 81.3569 63.0308 83.8897 63.0308C84.4678 63.0308 85.3343 63.1236 85.9477 63.2734L85.4968 64.5001C85.0692 64.2327 84.3525 64.0125 83.8657 64.0125C82.4099 64.0125 81.8894 65.3089 81.8894 66.3491C81.8894 68.0948 82.8255 68.6617 83.8777 68.6617C84.005 68.6617 84.4102 68.6497 84.5359 68.616C84.5359 67.8634 84.5255 66.904 84.4678 66.3956H86.4336Z" fill="#756479"/>
<path d="M90.7442 63.1917C92.1087 63.1917 93.7398 63.6793 93.7398 65.1239C93.7398 65.8982 93.1617 66.4532 92.26 66.8119C92.4457 67.1362 93.96 69.1013 94.2603 69.4248H92.0278C91.6347 68.6722 90.8835 67.3781 90.1428 66.2787C91.034 66.3955 91.8084 65.9679 91.8084 65.1119C91.8084 64.2911 90.8611 64.047 90.3982 64.047C90.1901 64.047 89.7976 64.047 89.6575 64.0597C89.6239 64.8236 89.6119 65.7373 89.6119 66.1521C89.6119 66.6959 89.6119 68.4782 89.7152 69.4248H87.6348C87.7389 68.5007 87.7621 67.4021 87.7621 66.1521C87.7621 65.1007 87.7493 63.8291 87.6572 63.1917H90.7442Z" fill="#756479"/>
<path d="M97.9839 69.5978C96.0413 69.5978 94.584 68.2685 94.584 66.3154C94.584 64.348 96.0413 63.0308 97.9839 63.0308C99.9138 63.0308 101.371 64.348 101.371 66.3154C101.371 68.2685 99.9138 69.5978 97.9839 69.5978ZM97.9839 63.8291C97.0823 63.8291 96.5146 64.7083 96.5146 66.3154C96.5146 67.9203 97.0823 68.777 97.9839 68.777C98.8744 68.777 99.4285 67.9203 99.4285 66.3154C99.4285 64.7083 98.8744 63.8291 97.9839 63.8291Z" fill="#756479"/>
<path d="M104.264 63.1917C104.228 63.6089 104.217 64.0373 104.217 64.4754V67.447C104.217 68.258 104.471 68.7314 105.27 68.7314C105.963 68.7314 106.644 68.4535 106.644 67.1811V64.1646C106.644 63.5295 106.632 63.4591 106.587 63.1917H108.309C108.241 63.7354 108.241 64.7532 108.241 65.7597V67.5278C108.241 68.962 107.235 69.5858 105.246 69.5858C103.442 69.5858 102.333 69.2054 102.333 67.4373V65.1591C102.333 64.581 102.308 63.632 102.24 63.1917H104.264Z" fill="#756479"/>
<path d="M112.622 63.1917C113.976 63.1917 115.606 63.5745 115.606 65.019C115.606 66.2906 114.45 66.9272 112.102 66.9272C111.963 66.9272 111.581 66.9272 111.478 66.916C111.524 67.7825 111.513 68.8339 111.571 69.4248H109.523C109.605 68.5688 109.628 67.1587 109.628 66.1521C109.628 65.2616 109.605 63.7819 109.523 63.1917H112.622ZM111.501 64.0597C111.501 64.4633 111.478 64.8813 111.478 65.2864C111.478 65.5852 111.49 65.8166 111.501 66.0383C111.571 66.048 111.894 66.048 112.102 66.048C112.762 66.048 113.674 65.8646 113.674 65.019C113.674 64.1982 112.738 64.047 112.033 64.047C111.941 64.047 111.593 64.047 111.501 64.0597Z" fill="#756479"/>
<path d="M2.91572 44.9711C2.84686 45.7822 2.8296 46.5753 2.8296 47.3871V53.7355C2.8296 54.8737 3.41603 55.8227 5.2441 55.8227C6.8145 55.8227 7.86672 55.3216 7.86672 52.7169V46.7647C7.86672 45.4886 7.83229 45.368 7.7806 44.9711H10.4205C10.2819 45.8503 10.2819 47.9038 10.2819 49.9221V53.4239C10.2819 56.1507 8.67776 57.289 4.98566 57.289C1.63888 57.289 -0.207129 56.4083 -0.207129 52.8203V48.7321C-0.207129 47.5593 -0.241639 45.7125 -0.345703 44.9711H2.91572Z" fill="#756479"/>
<path d="M24.0811 44.9711C23.443 45.6428 20.1307 49.3522 19.2507 50.2336C19.9404 51.1638 23.9426 56.3221 24.6675 57.0471H20.8548C20.061 55.7365 17.7492 52.7005 16.6453 51.3023C16.6453 52.7521 16.6625 55.5987 16.8182 57.0471H13.4707C13.6429 55.3733 13.661 51.7846 13.661 50.7324C13.661 49.5596 13.592 46.3685 13.488 44.9711H16.8003C16.7142 46.2472 16.6453 48.9911 16.6453 50.3707C18.8021 48.1966 19.8371 46.6621 21.0968 44.9711H24.0811Z" fill="#756479"/>
<path d="M32.22 44.9711C34.7558 44.9711 37.7746 45.678 37.7746 48.473C37.7746 50.0426 36.8609 51.0964 35.0494 51.6475C35.3077 52.1642 38.2231 56.5992 38.7062 57.0471H35.1003C34.3072 55.5471 32.5128 52.5095 31.2015 50.5437C31.4262 50.5953 31.7542 50.6298 32.1339 50.6298C33.1861 50.6298 34.6696 49.8704 34.6696 48.473C34.6696 46.731 32.5645 46.4194 31.5123 46.4194C30.9776 46.4194 30.4601 46.4546 30.201 46.4892C30.1321 47.9907 30.0976 49.8704 30.0976 50.7166C30.0976 51.7846 30.0976 55.3561 30.2871 57.0471H26.9238C27.0961 55.3733 27.1305 53.2165 27.1305 50.7166C27.1305 48.6108 27.1132 46.093 26.9575 44.9711H32.22Z" fill="#756479"/>
<path d="M45.2744 44.7292C46.7586 44.7292 48.1209 44.9531 48.9836 45.1951V47.8514C47.9314 47.2657 46.7931 46.713 44.8782 46.713C43.1527 46.713 43.0493 47.3519 43.0493 47.7997C43.0493 49.991 50.0538 49.6974 50.0538 53.528C50.0538 55.8908 47.9487 57.289 44.3951 57.289C42.7558 57.289 41.3239 56.9954 40.375 56.6674V54.029C42.5319 55.0461 43.8949 55.3913 45.1193 55.3913C46.483 55.3913 47.19 54.9944 47.19 54.0972C47.19 51.7336 40.1855 52.0781 40.1855 48.0588C40.1855 45.9365 42.2211 44.7292 45.2744 44.7292Z" fill="#756479"/>
<path d="M56.143 44.9711C56.0396 46.3685 55.9707 49.5431 55.9707 50.7324C55.9707 51.7846 55.9879 55.3733 56.143 57.0471H52.7969C52.9691 55.3733 52.9864 51.7846 52.9864 50.7324C52.9864 49.5596 52.9167 46.3685 52.8305 44.9711H56.143Z" fill="#756479"/>
<path d="M65.5075 44.9711C67.6636 44.9711 69.9417 45.7642 69.9417 47.7652C69.9417 48.9732 68.9232 50.0426 67.3887 50.4395C69.4759 51.0777 70.5625 52.1994 70.5625 53.7355C70.5625 56.1843 67.6636 57.0471 64.9039 57.0471H59.2969C59.4519 55.4594 59.4864 53.1835 59.4864 50.7166C59.4864 49.0593 59.4691 46.5588 59.3141 44.9711H65.5075ZM63.6443 46.3168C63.248 46.3168 62.7987 46.3513 62.5748 46.385C62.5059 47.9907 62.4707 48.8527 62.4707 50.7166C62.4707 52.9064 62.4707 53.8216 62.5568 55.5987C62.9538 55.6152 63.5933 55.6152 63.955 55.6152C66.2841 55.6152 67.4404 54.9419 67.4404 53.5961C67.4404 52.01 65.5255 51.4408 64.0756 51.4408H63.4023L64.0756 49.7326H64.4905C65.473 49.7326 66.8713 49.2848 66.8713 48.0768C66.8713 46.7992 66.0085 46.3168 63.6443 46.3168Z" fill="#756479"/>
<path d="M78.9442 44.9711C81.101 44.9711 83.3785 45.7642 83.3785 47.7652C83.3785 48.9732 82.3599 50.0426 80.8255 50.4395C82.9127 51.0777 83.9993 52.1994 83.9993 53.7355C83.9993 56.1843 81.101 57.0471 78.3399 57.0471H72.7344C72.8887 55.4594 72.9239 53.1835 72.9239 50.7166C72.9239 49.0593 72.9058 46.5588 72.7509 44.9711H78.9442ZM77.081 46.3168C76.6848 46.3168 76.2354 46.3513 76.0115 46.385C75.9434 47.9907 75.9082 48.8527 75.9082 50.7166C75.9082 52.9064 75.9082 53.8216 75.9943 55.5987C76.3912 55.6152 77.0301 55.6152 77.391 55.6152C79.7208 55.6152 80.8772 54.9419 80.8772 53.5961C80.8772 52.01 78.9622 51.4408 77.5124 51.4408H76.839L77.5124 49.7326H77.9272C78.909 49.7326 80.308 49.2848 80.308 48.0768C80.308 46.7992 79.4453 46.3168 77.081 46.3168Z" fill="#756479"/>
<path d="M92.5172 44.9711C92.9838 46.2135 96.9515 55.0461 97.8823 57.0471H94.5527C94.364 56.4959 93.9672 55.4938 93.4489 54.2005C92.7599 54.1833 92.0514 54.1653 91.0689 54.1653C90.1545 54.1653 89.4632 54.1833 88.6701 54.2005C88.2905 55.219 87.9797 56.1507 87.7049 57.0471H84.8066C85.4964 55.5471 89.5509 46.7482 90.1882 44.9711H92.5172ZM92.8109 52.6144C92.0178 50.7166 91.328 49.0938 91.0854 48.5247C90.5327 49.6974 89.929 51.0777 89.2918 52.6144C89.8085 52.6308 90.5162 52.6473 91.0854 52.6473C91.6381 52.6473 92.2237 52.6308 92.8109 52.6144Z" fill="#756479"/>
<path d="M110.335 44.9711C110.215 46.3513 110.146 49.5431 110.146 50.7166C110.146 51.7846 110.162 55.3733 110.353 57.0471H108.092L102.917 49.439C102.47 48.7665 102.348 48.4221 102.262 48.1105C102.262 49.9565 102.244 50.8709 102.244 52.5095C102.244 53.9938 102.279 56.1162 102.4 57.0471H99.5879C99.7601 55.3733 99.7773 51.7846 99.7773 50.7166C99.7773 49.5431 99.7092 46.3513 99.6231 44.9711H102.796L106.66 50.6463C107.489 51.8542 107.663 52.1126 107.8 52.5612H107.817C107.713 51.0612 107.679 49.5087 107.609 48.0071L107.489 44.9711H110.335Z" fill="#756479"/>
<path d="M124.013 44.9711C123.374 45.6428 120.062 49.3522 119.182 50.2336C119.872 51.1638 123.875 56.3221 124.6 57.0471H120.786C119.993 55.7365 117.681 52.7005 116.577 51.3023C116.577 52.7521 116.593 55.5987 116.75 57.0471H113.402C113.575 55.3733 113.593 51.7846 113.593 50.7324C113.593 49.5596 113.524 46.3685 113.42 44.9711H116.733C116.647 46.2472 116.577 48.9911 116.577 50.3707C118.734 48.1966 119.77 46.6621 121.028 44.9711H124.013Z" fill="#756479"/>
</g>
<defs>
<clipPath id="clip0_4063_26313">
<rect width="125" height="69.7853" fill="white"/>
</clipPath>
<clipPath id="clip1_4063_26313">
<rect width="34.7811" height="34.7811" fill="white" transform="translate(44.7363 1.54553)"/>
</clipPath>
</defs>
</svg>
