<svg width="64" height="65" viewBox="0 0 64 65" fill="none" xmlns="http://www.w3.org/2000/svg">
<g clip-path="url(#clip0_4063_26272)">
<path d="M32.0026 1.61862C49.0254 1.61862 63.0155 15.5873 63.0155 32.6315C63.0155 49.6539 49.025 63.6445 32.0026 63.6445C14.9579 63.6445 0.989287 49.6544 0.989287 32.6315C0.989287 15.5868 14.9578 1.61862 32.0026 1.61862Z" stroke="#756479" stroke-width="2.06061"/>
<path fill-rule="evenodd" clip-rule="evenodd" d="M4.90625 27.5283H11.0261C12.7423 27.5283 14.752 27.7994 14.752 29.9219C14.752 31.0058 14.1197 31.5705 13.1938 31.954C14.4808 32.2476 15.2939 33.2186 15.2939 34.5512C15.2939 36.6737 13.6905 37.4416 11.8164 37.4416H4.90625V27.5283ZM11.0256 31.3445H7.39015V29.3124H11.0256C11.7259 29.3124 12.403 29.5156 12.3354 30.3511C12.2902 31.1189 11.7031 31.3445 11.0256 31.3445ZM11.0256 35.6571H7.39015V33.0606H11.0256C11.9743 33.0606 12.7418 33.173 12.7418 34.3253C12.7418 35.3859 11.9515 35.6571 11.0256 35.6571Z" fill="#756479"/>
<path fill-rule="evenodd" clip-rule="evenodd" d="M34.6918 27.5283L31.7786 31.4573L28.8655 27.5283H25.8171L30.5364 33.6474V37.4412H33.0209V33.6474L37.7398 27.5283H34.6918ZM27.9396 37.4412L23.0619 27.5283H20.3971L15.5199 37.4412H18.3199L19.2229 35.4767H24.2362L25.1392 37.4412H27.9396ZM47.8571 37.4412V35.6571H40.7433V33.2638H47.3599V31.4801H40.7433V29.312H47.5859V27.5283H38.2365V37.4412H47.8571ZM51.8305 37.4412V33.4894H54.6984L57.2956 37.4412H60.2532L57.2956 33.4894C58.8762 33.1506 59.8697 32.2252 59.8697 30.4862C59.8697 28.2058 57.9503 27.5283 56.0086 27.5283H49.3472V37.4412H51.8305ZM32.7945 5.42078H26.675V15.3569H33.5848C35.4593 15.3569 37.0623 14.5894 37.0623 12.4665C37.0623 11.1111 36.2492 10.1629 34.9626 9.86931C35.8884 9.46297 36.5203 8.89826 36.5203 7.83722C36.5203 5.69154 34.5106 5.42078 32.7945 5.42078ZM38.0785 26.3765L33.224 16.4631H30.5592L25.6816 26.3765H28.4587L29.385 24.4119H34.3979L35.3009 26.3765H38.0785ZM37.4466 48.4164V46.6322H29.6558V44.2386H36.9719V42.4545H29.6558V40.2872H37.1982V38.503H27.1489V48.4164H37.4466ZM29.6558 59.4811V55.5293L32.5013 55.5289L35.1205 59.4807H38.0785L35.1205 55.5289C36.7015 55.191 37.6726 54.2419 37.6726 52.503C37.6726 50.2229 35.7748 49.545 33.8331 49.545H27.1489V59.4811H29.6558ZM33.5391 53.7224H29.6556V51.3515H33.5391C34.3521 51.3515 35.1428 51.5771 35.1428 52.5481C35.1428 53.4968 34.3521 53.7224 33.5391 53.7224ZM51.8303 31.7056H55.7377C56.5284 31.7056 57.3407 31.4801 57.3407 30.509C57.3407 29.538 56.5508 29.312 55.7377 29.312H51.8303V31.7056ZM23.423 33.6926L21.752 30.0799L21.7296 30.1023L21.7068 30.0799L20.0583 33.6926H23.423ZM31.8913 18.9923L33.5619 22.6054H30.1976L31.8689 18.9923L31.8913 19.0375V18.9923ZM29.1589 9.237H32.794C33.4719 9.237 34.0586 9.01143 34.1266 8.26594C34.1718 7.40807 33.4947 7.2273 32.794 7.2273H29.1589V9.237ZM32.794 13.55H29.1589V10.9759H32.794C33.743 10.9759 34.5329 11.0887 34.5329 12.2178C34.5329 13.2792 33.743 13.55 32.794 13.55Z" fill="#756479"/>
</g>
<defs>
<clipPath id="clip0_4063_26272">
<rect width="64" height="64" fill="white" transform="translate(0 0.631531)"/>
</clipPath>
</defs>
</svg>
