<svg width="126" height="48" viewBox="0 0 126 48" fill="none" xmlns="http://www.w3.org/2000/svg">
<g clip-path="url(#clip0_4063_26086)">
<path fill-rule="evenodd" clip-rule="evenodd" d="M16.2548 31.1791C20.2659 31.1791 19.7653 35.4412 19.8364 35.6204H15.6817C15.6817 35.5842 15.6817 34.3306 14.5362 34.3306H6.1563C4.50877 34.3306 4.50877 37.1969 6.01267 37.268C8.73461 37.4109 13.1752 37.3746 16.8279 37.5538C18.5466 37.6619 20.0512 38.7719 20.0512 40.6341C20.0512 40.7052 20.123 43.8574 20.123 43.8574C20.1585 46.0055 18.297 47.0088 16.4703 47.0088H4.50877C2.50358 47.0088 0.856048 45.5412 0.56949 43.5701C0.49767 43.0954 0.49767 42.6127 0.56949 42.138H4.72351C4.72351 42.138 4.6517 43.9285 6.44215 43.9285C9.59357 43.9285 11.384 44.001 14.2489 43.9285C16.3977 43.8922 16.7554 40.777 14.2489 40.6341C11.2411 40.4912 8.94864 40.3838 5.15299 40.2757C2.57468 40.2046 0.711702 39.202 0.711702 37.1243V33.9011C0.711702 32.3972 2.14449 31.1791 4.14969 31.1791H16.2548ZM26.14 31.6804C26.0682 31.7885 26.14 37.984 26.14 42.7118C26.14 43.3923 26.5695 43.9285 27.4284 43.9285H35.4506C36.3103 43.9285 36.525 43.2131 36.525 42.64C36.5969 38.4142 36.5969 31.8603 36.525 31.753H41.1085C41.1085 31.753 41.1448 39.6315 41.1804 43.8574C41.2166 45.7559 39.6046 46.9725 37.3129 47.0088C33.0152 47.0813 30.8664 47.0088 26.8553 47.0088C24.0615 47.0088 21.6624 46.1854 21.6262 43.8574C21.5906 39.0577 21.4832 31.7885 21.5543 31.6804H26.14ZM57.0811 31.753C61.307 31.753 61.7364 34.8333 61.7364 35.7641C61.7364 38.2706 59.6239 39.3094 59.5158 39.3457C59.5521 39.3457 62.023 40.2765 62.023 42.7118C62.023 44.0728 61.8083 46.9725 57.0804 47.0088C51.6372 47.0813 42.8627 47.0088 42.8272 47.0088V31.753H57.0811ZM55.9356 38.0551C56.7946 38.0551 57.5113 37.5538 57.5113 36.4083C57.5113 35.4057 56.6879 34.8333 55.7927 34.8333C52.7849 34.8333 47.5202 34.7608 47.4128 34.8333V38.0551C47.5195 38.1269 52.6405 38.0551 55.9356 38.0551ZM56.0067 43.9285C56.9019 43.9285 57.7971 43.4286 57.7971 42.2817C57.7971 41.2065 56.9019 40.5275 55.9349 40.5623C53.1411 40.5986 47.5188 40.5623 47.4114 40.6348V43.9292C47.5195 44.0003 52.354 43.9285 56.0067 43.9285ZM70.1177 31.753H75.7031L83.9415 47.0088H79.4277L77.7808 43.9285H68.1829L66.4636 47.0088H61.8801L70.1177 31.753ZM72.8382 35.1191L69.8305 40.6341H75.9911L72.8382 35.1191ZM98.1947 34.8333C99.3402 34.8333 100.057 36.1928 100.057 37.268C100.057 38.3431 99.304 39.4886 98.1947 39.4886C94.8989 39.4886 89.8852 39.5249 89.8148 39.4886V34.8333C89.9215 34.7608 95.1855 34.8333 98.1947 34.8333ZM89.8148 42.2809C89.8497 42.2809 95.3298 42.3172 98.0518 42.2809C99.2321 42.2447 100.199 43.499 100.199 44.5741V47.0088H104.282V44.6452C104.282 42.4246 101.955 41.1354 101.919 41.1354C102.027 41.0992 104.212 39.6315 104.212 37.1969C104.212 34.3306 103.066 31.753 98.8396 31.753H85.2306V47.0088H89.8148V42.2809ZM110.443 31.6804C110.335 31.8234 110.514 37.984 110.514 42.7118C110.514 43.3923 110.872 43.9285 111.804 43.9285H119.753C120.613 43.9285 120.829 43.2131 120.829 42.64C120.9 38.4142 120.971 31.8603 120.9 31.753H125.413C125.413 31.753 125.448 39.6315 125.485 43.8574C125.521 45.7559 123.981 46.9725 121.689 47.0088C117.319 47.0813 115.17 47.0088 111.231 47.0088C108.438 47.0088 105.967 46.2216 105.932 43.8574C105.859 39.0577 105.859 31.7885 105.932 31.6804H110.443Z" fill="#756479"/>
<path d="M64.0678 1.29038C58.3282 1.29038 53.0315 2.81347 49.1277 5.12442C45.1294 7.49155 42.6066 10.6743 42.6066 13.8648C42.6066 17.0482 45.1181 20.1961 49.1007 22.5341C53.0059 24.8265 58.3139 26.3304 64.0671 26.3304C69.8666 26.3304 75.1967 24.8294 79.116 22.5405C83.12 20.2011 85.6365 17.0503 85.6365 13.8648C85.6365 10.6707 83.1087 7.48515 79.0897 5.11731C75.1753 2.81063 69.8566 1.29038 64.0678 1.29038ZM48.7999 4.56837C52.7954 2.20267 58.2094 0.643311 64.0678 0.643311C69.9732 0.643311 75.4071 2.19912 79.4168 4.56055C83.632 7.04429 86.2843 10.4297 86.2843 13.8634C86.2843 17.2914 83.6427 20.6433 79.4417 23.0972C75.432 25.4395 69.9853 26.9761 64.0678 26.9761C58.1987 26.9761 52.7741 25.4359 48.7758 23.0887C44.5961 20.6348 41.9609 17.2878 41.9609 13.8634C41.9602 10.4339 44.6061 7.0514 48.7999 4.56837Z" fill="#756479"/>
<path fill-rule="evenodd" clip-rule="evenodd" d="M58.1076 9.0957L68.0795 11.2637L58.2157 13.3222L56.0484 18.7413L53.8811 13.2142L44.7773 11.2637L53.8811 9.31257L55.9403 4.11044L58.1076 9.0957ZM69.0544 14.189L73.2803 15.0565L69.0544 16.0321L68.1862 18.3075L67.2113 15.9233L63.3097 15.0565L67.2113 14.189L68.0795 12.0217L69.0544 14.189ZM79.3506 14.189L83.5764 15.0565L79.3506 16.0321L78.4824 18.3075L77.5075 15.9233L73.7133 15.0565L77.5075 14.189L78.4824 12.0217L79.3506 14.189ZM76.6414 7.79516L80.8673 8.66195L76.6414 9.52873L75.7732 11.9136L74.7984 9.52873L70.8968 8.66195L74.7984 7.79516L75.6652 5.62714L76.6414 7.79516ZM72.6303 19.2831L76.9664 20.2587L72.7384 21.1254L71.7636 23.4015L70.7873 21.1254L66.9945 20.2587L70.7873 19.3919L71.7636 17.2238L72.6303 19.2831ZM61.4674 20.0418L65.6946 21.0174L61.4674 21.8841L60.5999 24.1602L59.625 21.7761L55.7234 21.0174L59.625 20.1499L60.4918 17.8745L61.4674 20.0418Z" fill="#756479"/>
</g>
<defs>
<clipPath id="clip0_4063_26086">
<rect width="125" height="46.3816" fill="white" transform="translate(0.5 0.669739)"/>
</clipPath>
</defs>
</svg>
