<svg width="126" height="64" viewBox="0 0 126 64" fill="none" xmlns="http://www.w3.org/2000/svg">
<g clip-path="url(#clip0_4058_11131)">
<path d="M63.726 0.230102C59.6077 0.248245 55.5075 0.756227 51.5162 1.71777C49.5569 2.20761 47.6156 2.86072 45.7289 3.60456L45.62 3.65898C45.62 3.65898 45.8558 17.7192 46.0191 24.6858C46.0736 26.7359 46.4545 28.7497 47.144 30.7091C47.9422 32.9043 48.9945 34.9906 50.2826 36.9318C52.1875 39.7439 54.6367 42.1387 57.485 43.971C58.755 44.733 60.0794 45.4043 61.44 45.9667C61.8936 46.1662 62.2927 46.3477 62.6374 46.4565C63.0184 46.6198 63.3994 46.7286 63.7804 46.8194C64.1795 46.7286 64.5605 46.6017 64.9233 46.4747C65.3043 46.3477 65.6853 46.1662 66.1389 45.9848C68.4248 45.114 70.5474 43.8622 72.4161 42.2838C74.3029 40.7417 75.9357 38.9275 77.2963 36.9137C78.6026 34.9543 79.6548 32.8861 80.435 30.6909C81.1425 28.7316 81.5053 26.7178 81.5598 24.6677C81.723 17.6829 81.9589 3.64084 81.9589 3.64084L81.8319 3.56827C77.3689 1.77219 72.6338 0.683658 67.8261 0.357098C66.4654 0.248244 65.2318 0.193817 63.853 0.193817H63.726V0.230102ZM63.726 0.937649H63.8348C67.7898 0.973933 71.7267 1.46377 75.5728 2.40717C77.4596 2.89701 79.3101 3.47756 81.1425 4.22139L81.2514 4.27582L81.1788 8.68438H81.1244C76.8246 6.94273 72.2891 5.87234 67.6628 5.54578C66.3929 5.41878 65.1229 5.36435 63.853 5.32807H63.7441C59.7891 5.36435 55.8522 5.87234 52.0061 6.81573C50.1011 7.30557 48.2325 7.92241 46.4183 8.66624L46.3457 4.22139L46.4545 4.18511C50.7542 2.44346 55.3261 1.3912 59.9524 1.06464C61.186 0.973932 62.456 0.919506 63.726 0.937649ZM90.2862 1.37306C87.9458 1.37306 86.0409 3.278 86.0409 5.61835C86.0409 7.95869 87.9458 9.88177 90.2862 9.88177C92.6265 9.88177 94.5315 7.97684 94.5315 5.63649C94.5315 3.29614 92.6447 1.37306 90.2862 1.37306ZM62.4016 1.60891C62.3109 1.62705 62.2201 1.66334 62.1476 1.71777C62.075 1.75405 62.0387 1.82662 62.0206 1.89919V2.58859L62.0024 3.24171C62.0024 3.31428 62.075 3.40499 62.1294 3.44128C62.202 3.51385 62.2927 3.51385 62.4016 3.53199H63.2724L64.1795 3.55013L65.0866 3.60456C65.1592 3.60456 65.1955 3.64084 65.2136 3.69527V4.05811C65.2136 4.13068 65.2136 4.18511 65.1773 4.25768C65.1592 4.3121 65.1048 4.33025 64.9959 4.33025H64.1977L63.7622 4.31211H62.6193L61.948 4.34839L61.9117 4.92894L62.8551 4.89266L63.5808 4.87451H64.1614L64.6875 4.89266L65.0503 4.9108H65.4495C65.5402 4.9108 65.649 4.87452 65.7216 4.82009C65.7942 4.76566 65.8305 4.69309 65.8486 4.60238V3.94926L65.8667 3.29614C65.8486 3.22357 65.8123 3.151 65.7579 3.09658C65.7035 3.04215 65.6309 3.02401 65.5402 3.00587L64.7056 2.96958H62.6918L62.6374 2.93329C62.6011 2.89701 62.583 2.86073 62.583 2.82444V2.58859C62.583 2.49788 62.583 2.38903 62.6193 2.29832C62.6374 2.26203 62.6918 2.22575 62.7826 2.22575L64.8145 2.24389H65.1048L65.8123 2.26203V1.68148L64.8689 1.6452L62.4016 1.60891ZM60.4604 1.69962C60.1156 1.69962 56.977 2.02618 56.977 2.02618V5.36436L57.3399 5.32807L57.6846 5.27364V4.23953L59.644 4.02183C59.8979 4.02183 60.1338 4.14882 60.2426 4.38467C60.3334 4.58424 60.4059 4.80195 60.4785 5.03779L61.2405 4.96522C61.2223 4.74752 61.1679 4.54796 61.0772 4.36653C60.9683 4.13068 60.7869 3.91298 60.5873 3.73155C60.7688 3.6227 60.8958 3.44128 60.9502 3.24171C60.9683 2.84258 60.9502 2.4616 60.9139 2.08061C60.8958 1.89919 60.8051 1.71776 60.4604 1.69962ZM67.4995 1.73591C67.3363 1.73591 67.1548 1.79033 67.0278 1.89919C66.9008 1.9899 66.8101 2.13504 66.792 2.29832V4.62052L66.8101 4.7838C66.8283 4.85637 66.8646 4.89266 66.9008 4.92894C66.9553 5.00151 67.0278 5.03779 67.1367 5.05594H67.2818L67.3181 5.07408H67.3544L68.8783 5.23736L70.4567 5.40064L70.6926 5.45507V4.83823L70.4204 4.7838L70.2027 4.76566H70.1664L68.8602 4.60238L67.554 4.4391C67.5358 4.4391 67.4995 4.4391 67.4814 4.40282L67.4633 4.33025V2.55231C67.4633 2.47974 67.4633 2.42531 67.5358 2.38903C67.5902 2.35274 67.6447 2.3346 67.6991 2.31646C67.9894 2.3346 70.4204 2.66116 70.7833 2.71559V2.06247L68.6788 1.82662L67.4995 1.73591ZM90.268 1.9899C91.6469 1.9899 92.9894 2.77001 93.5881 4.11254L93.6244 4.18511C93.9872 5.09222 93.9872 6.10819 93.6244 7.0153C93.2615 7.88612 92.5902 8.55739 91.7194 8.92023C90.8123 9.30122 89.7963 9.30122 88.8892 8.92023C88.0184 8.57553 87.329 7.88612 86.9843 7.0153C86.6215 6.10819 86.6215 5.09222 86.9843 4.18511C87.329 3.31428 88.0184 2.64302 88.8892 2.28018C89.3428 2.1169 89.8145 2.00804 90.268 1.9899ZM71.4001 2.26203V2.40717C71.4001 2.60674 71.4001 2.87887 71.3638 3.18729C71.3638 3.60456 71.3457 4.02183 71.3275 4.4391L71.3094 4.71123V5.11036L71.2913 5.50949L71.4545 5.54578L71.5453 5.58206L71.7085 5.6002L71.9625 5.63649L71.9807 5.40064V5.20107L71.9988 4.96522V4.31211C72.0351 4.31211 72.0895 4.3121 72.1258 4.33025H72.1802L72.9604 4.49353L74.1577 4.72938L74.2485 4.76566L74.3755 4.80195L74.5206 4.83823V5.49135L74.5024 5.70906V5.96305L74.4843 6.09004L74.702 6.14447L74.829 6.18076L74.956 6.21704L75.1374 6.27147V5.94491C75.1737 5.54578 75.1737 5.12851 75.1918 4.63867V3.04215L74.9379 2.96958L74.5931 2.89701V3.40499L74.5569 3.73155V4.27582H74.5387L74.3755 4.23953L74.2485 4.20325L74.1577 4.18511L74.067 4.14882L73.3051 3.98554L72.5249 3.84041H72.4524L72.2528 3.78598L72.0532 3.7497H71.9988V2.35274L71.8355 2.31646H71.7267L71.5997 2.28018L71.4001 2.26203ZM55.6164 2.29832L52.5322 2.89701C52.2963 2.96958 52.0424 3.151 52.0424 3.40499V5.63649C52.0424 5.87234 52.3326 6.18076 52.5685 6.12633L55.6527 5.52763C55.9429 5.45507 56.1425 5.20108 56.1788 4.9108V2.66116C56.1244 2.40717 55.8885 2.26203 55.6164 2.29832C55.6345 2.29832 55.6345 2.29832 55.6164 2.29832ZM59.9342 2.40717C60.0249 2.40717 60.0975 2.40717 60.1701 2.47974C60.2245 2.53417 60.2426 2.57045 60.2426 2.64302V3.02401C60.2426 3.13286 60.2064 3.24171 60.1338 3.31428C60.0612 3.38685 59.9524 3.44128 59.8435 3.44128L58.755 3.53199L57.6664 3.6227V2.60673L59.9342 2.40717ZM55.0902 2.93329C55.3805 2.89701 55.4712 3.06029 55.4712 3.25986V4.69309C55.4894 4.87451 55.3624 5.0378 55.181 5.09222L52.9857 5.50949C52.768 5.56392 52.641 5.40064 52.641 5.20107V3.78598C52.641 3.4957 52.768 3.36871 53.1127 3.29614C53.0946 3.29614 55.0902 2.93329 55.0902 2.93329ZM90.3769 3.06029H88.6171V8.35782H89.2702V5.98119H90.2862L91.3203 8.35782H92.0278L90.9393 5.89048C91.2659 5.81791 91.5924 5.65463 91.8101 5.40064C92.0097 5.16479 92.1367 4.87452 92.1367 4.54796C92.1367 4.36653 92.1004 4.18511 92.0641 4.02183C92.0097 3.84041 91.919 3.67713 91.792 3.53199C91.6469 3.36871 91.4654 3.25986 91.2477 3.16914C90.9756 3.09658 90.6853 3.06029 90.3769 3.06029ZM76.1715 3.22357L76.1352 5.18293L76.099 6.52546L77.9132 7.06972C78.4937 7.26929 79.1469 7.46885 79.8 7.7047L79.8725 7.72285L80.0902 7.79541C80.1265 7.55957 80.1265 7.37814 80.1265 7.14229L79.9451 7.06972H79.9088L79.8725 7.05158C79.546 6.92459 79.165 6.81573 78.8203 6.68874L77.7136 6.32589L77.4778 6.25332L77.2238 6.18076L76.9516 6.10819L76.8065 6.05376V5.7272L76.8246 5.40064L77.1875 5.49135L78.53 5.89048L79.8 6.32589L79.927 6.36218L80.1447 6.43475V5.74534L79.9451 5.67277L79.8544 5.65463C79.0743 5.36435 78.2942 5.11036 77.4959 4.89266L77.3145 4.83823L77.1149 4.7838L77.0242 4.74752L76.8609 4.69309V4.02183L77.0968 4.0944L77.3871 4.16697L77.6411 4.23953H77.6592C78.3667 4.4391 79.0743 4.65681 79.7637 4.9108L79.927 4.98337L80.1628 5.07408V4.47538L79.9995 4.40282L79.8544 4.34839H79.8363C78.6207 3.94926 77.4052 3.55013 76.1715 3.22357ZM50.9357 3.35057H50.718C49.448 3.7497 48.1962 4.16697 46.9444 4.63867L46.9807 6.30775V7.86798L47.8515 7.57771V6.43475L51.099 5.41878C51.1715 5.40064 51.226 5.34621 51.2622 5.29178C51.3167 5.2555 51.3348 5.18293 51.3529 5.12851C51.3529 5.11036 51.3711 5.07408 51.3711 5.05594L51.3348 3.73155C51.3167 3.60456 51.2441 3.47756 51.1171 3.40499C51.0627 3.36871 51.0082 3.35057 50.9357 3.35057ZM89.2702 3.64084H90.2499C90.5402 3.64084 90.8123 3.69527 91.0663 3.84041C91.3022 4.00369 91.411 4.27582 91.3929 4.54796C91.3929 4.67495 91.3747 4.7838 91.3384 4.9108C91.3022 5.01965 91.2477 5.11036 91.157 5.16479C91.0482 5.2555 90.903 5.30993 90.7579 5.34621C90.5402 5.41878 90.3406 5.41878 90.1048 5.41878H89.2339L89.2702 3.64084ZM50.3007 4.03997H50.337C50.4096 4.03997 50.464 4.05811 50.5003 4.11254C50.5547 4.16697 50.5728 4.20325 50.5728 4.27582L50.6091 4.74752C50.591 4.83823 50.5547 4.9108 50.5003 4.96522C50.4458 5.01965 50.3733 5.05594 50.3007 5.07408L47.7971 5.89048L47.7789 4.9108C47.7789 4.9108 48.7586 4.51167 49.1577 4.36653C49.5569 4.23954 50.3007 4.03997 50.3007 4.03997ZM63.345 5.96305V14.9253H57.612C57.5394 14.9253 57.5757 14.889 57.6483 14.8346C58.0474 14.5262 58.5191 14.3266 59.0271 14.2359C59.0815 14.2359 59.0997 14.2178 59.0271 14.1452C58.5373 13.6554 57.8479 13.4921 57.2129 13.7279C56.6505 13.9275 56.1969 14.3448 55.9974 14.9072C55.9974 14.9616 55.9611 14.9797 55.9248 14.9797L54.9995 15.016C54.9451 15.016 54.927 14.9435 54.927 14.9072C54.9995 14.508 55.2535 14.1815 55.5982 13.9819C55.9067 13.7642 56.2514 13.6554 56.6142 13.6191H56.6323C56.6686 13.6009 56.6686 13.5465 56.6505 13.5102C56.5961 13.4376 56.5235 13.3832 56.4328 13.3288C56.1425 13.1655 55.7978 13.1111 55.4531 13.1655C54.4734 13.2744 53.6933 14.0545 53.6207 15.0523C53.6026 15.1612 53.6207 15.1974 53.53 15.2337C53.2942 15.3063 52.895 15.3607 52.6773 15.397C52.641 15.4152 52.5866 15.3244 52.6048 15.2882C52.6773 14.9072 52.8406 14.5806 53.0765 14.2722C53.2397 14.0363 53.4756 13.8549 53.7296 13.7098C53.8022 13.6916 53.8203 13.6372 53.8021 13.6009C53.3123 13.1655 52.2963 13.6191 51.8791 14.0726C51.4981 14.5625 51.3167 15.2156 51.3529 15.8324V15.9231L50.5728 16.1953L50.5365 16.1227C50.464 15.651 50.5728 15.1974 50.8268 14.7983C50.9357 14.5988 51.099 14.4355 51.2985 14.3085V14.2359C51.0627 13.9456 50.1918 14.1452 49.9197 14.3992C49.3029 15.016 49.3573 15.5966 49.321 16.54C49.321 16.5944 49.2484 16.7577 49.2122 16.7758C49.1033 16.8484 48.9763 16.9028 48.8493 16.921H48.7949L48.7223 16.7577C48.5046 16.3948 48.0511 16.2678 47.6882 16.4855C47.6519 16.4855 47.6338 16.5218 47.6157 16.54C47.3254 16.794 47.2891 17.2294 47.5431 17.5197C47.5794 17.5559 47.5975 17.5922 47.5431 17.5922C47.1077 17.7192 46.8718 18.1728 46.9988 18.6082C46.9988 18.6263 46.9988 18.6263 47.017 18.6445C47.1077 18.8803 47.3435 19.0436 47.5975 19.0436C47.8515 19.0436 48.1055 18.971 48.3051 18.8259C48.3413 18.7896 48.3776 18.8078 48.4139 18.8259C48.6316 19.1887 49.1033 19.2976 49.4299 19.0799C49.7564 18.8622 49.8834 18.5356 49.6657 17.9914C49.6476 17.9551 49.702 17.9188 49.7383 17.8825C51.5888 16.8121 53.6933 16.2316 55.8341 16.1771C56.1425 16.2134 56.4328 16.2678 56.723 16.3948H56.7593V18.2272L56.7049 18.2816C56.3058 18.5175 55.9974 18.8985 55.8522 19.352C55.8522 19.3883 55.8522 19.3883 55.7797 19.3883L54.6367 19.5153C54.6004 19.5153 54.5641 19.4609 54.5641 19.4427C54.8363 18.7352 55.3261 18.1002 55.9792 17.6829C55.9974 17.6466 55.9974 17.5922 55.9792 17.5559C55.8885 17.4652 55.7797 17.3927 55.6527 17.3564C54.9995 17.3019 54.3464 17.5741 53.9291 18.0639C53.53 18.5538 53.3305 19.1343 53.3305 19.7511C53.3305 19.8056 53.3305 19.86 53.276 19.8781L52.5322 20.0958C52.4959 20.0958 52.4596 20.0596 52.4596 20.0233C52.3326 19.225 52.7136 18.4268 53.403 18.0276C53.4937 17.9551 53.3305 17.8281 53.2035 17.8281C52.4596 17.7918 51.7521 18.1909 51.4074 18.844C51.2441 19.3339 51.226 19.8781 51.3529 20.3861C51.3529 20.4406 51.3892 20.5131 51.3529 20.5131L50.6998 20.7308C50.6635 20.749 50.6273 20.7308 50.6273 20.6583C50.5365 20.3498 50.5184 20.0233 50.591 19.7149C50.6635 19.352 50.845 19.0255 51.1171 18.7715V18.6989C50.8813 18.59 50.6091 18.5719 50.3733 18.6445C49.9741 18.7533 49.6476 19.0073 49.4662 19.3702C49.1396 19.9507 49.2303 20.5131 49.5569 21.3295C49.5569 21.3839 49.5932 21.4384 49.5569 21.4747L49.3029 21.6742C49.2847 21.6924 49.2485 21.6742 49.2303 21.6379C49.1215 21.4747 48.9945 21.2388 48.8312 21.1662C48.559 21.0392 48.2506 21.0574 47.9966 21.2388C47.7608 21.4565 47.6701 21.7831 47.7608 22.0915L47.9422 22.3818C47.9604 22.3999 47.9422 22.4543 47.9241 22.4543C47.8152 22.5451 47.6519 22.6176 47.5431 22.7265C47.3435 22.9986 47.3435 23.3615 47.5431 23.6336C47.7245 23.9239 48.0873 24.0327 48.4139 23.8694C48.5772 23.7969 48.7223 23.7243 48.8675 23.6336C48.9219 23.5973 48.94 23.5429 48.9945 23.5792C49.1033 23.7062 49.2485 23.815 49.4299 23.8694C49.6657 23.942 49.9197 23.9057 50.1193 23.7606C50.3551 23.6336 50.5003 23.3796 50.4458 23.1075C50.3914 22.926 50.2826 22.7446 50.1737 22.5813C50.1011 22.5088 50.1011 22.5088 50.1737 22.4725C51.1897 21.8919 52.2963 21.4202 53.403 21.0755C54.4734 20.749 55.5801 20.6038 56.6868 20.6764H56.7593V24.4681H46.6722L46.4001 9.26494L46.4364 9.24679C50.7361 7.50514 55.2898 6.45289 59.9161 6.14447C61.0953 6.03562 62.1839 5.98119 63.345 5.96305ZM57.5032 7.55956C56.977 7.52328 56.4691 7.68656 56.0155 7.99498C55.4712 8.37597 55.1265 9.48264 55.0358 9.89991C55.0358 9.9362 55.0177 9.97248 54.9633 9.97248C54.5097 10.0269 54.0743 10.0995 53.6207 10.2083C53.657 9.77292 53.8384 9.37379 54.1106 9.06537C54.419 8.77509 54.7455 8.5211 55.0902 8.28525C55.1084 8.26711 55.0903 8.21268 55.054 8.19454C54.5641 7.99498 54.0017 7.99498 53.5119 8.21269C52.8043 8.5211 52.3326 9.15608 52.2056 9.89991C52.1512 10.1539 52.1331 10.4442 52.1331 10.7163L52.0605 10.7526L50.6817 11.2062L50.6091 11.188C50.591 10.7345 50.6998 10.299 50.9357 9.89991C51.1715 9.51893 51.6069 9.31936 51.9154 8.9928C51.9516 8.97466 51.9879 8.92023 51.9516 8.90209C51.1534 8.57553 50.4096 8.90209 49.7746 9.62778C49.3392 10.2809 49.2122 11.061 49.3754 11.823C49.3936 11.8956 49.3754 11.95 49.3392 11.9863L48.9037 12.1496C48.8675 12.1496 48.8312 12.1496 48.8312 12.1133C48.6316 11.5327 47.9604 11.6416 47.6519 11.823C47.3254 12.0226 47.1984 12.4398 47.3979 12.7664C47.3979 12.8208 47.3979 12.839 47.3617 12.8571C46.9444 13.0748 46.763 13.5646 46.9625 14.0001C47.1258 14.2903 47.4705 14.3992 47.7789 14.2722L48.2688 14.0363H48.3232C48.3232 14.0363 48.3232 14.0726 48.3595 14.0726C48.6135 14.3992 49.0852 14.4718 49.4299 14.1815C49.6476 14.0182 49.7383 14.0001 49.829 13.7098C49.8653 13.4921 49.7927 13.2925 49.6657 13.1292C49.6294 13.1292 49.6657 13.0567 49.6657 13.0567C52.2056 11.7504 54.9814 11.0429 57.8297 10.9703C58.8457 11.0066 59.8435 11.3694 60.6236 12.0407C60.6599 12.077 60.6962 12.1133 60.7506 12.1133C60.8051 12.0951 60.8232 12.0407 60.8413 12.0044C60.9865 11.5327 60.8232 11.0066 60.4422 10.68C60.1156 10.3535 59.7165 10.1176 59.263 10.0088C59.2267 10.0088 59.2267 9.9362 59.2448 9.9362C59.4081 9.75478 59.6439 9.60964 59.8979 9.51893C60.2789 9.44636 60.6599 9.42822 61.0772 9.42822C61.0953 9.42822 61.1498 9.39193 61.1498 9.35565C60.9865 8.92023 60.5873 8.61181 60.1338 8.59367C59.6802 8.53924 59.2085 8.61181 58.7913 8.79324C58.3559 9.02909 58.0111 9.41007 57.8116 9.86363L57.7572 9.89991H56.5779C56.5598 9.89991 56.5235 9.89991 56.5235 9.86363C56.5779 9.4645 56.7412 9.13794 57.0133 8.84766C57.4125 8.5211 57.866 8.24897 58.3377 8.10383C58.3921 8.08569 58.4103 8.03126 58.4103 7.99498C58.3014 7.84984 58.1744 7.74099 58.0112 7.66842C57.8842 7.59585 57.6846 7.55956 57.5032 7.55956ZM63.9437 10.68H81.1244C81.1244 12.0226 81.0881 13.4376 81.0518 14.9435H63.9618L63.9437 10.68ZM57.3217 15.524H70.2753C70.3116 15.524 70.3116 15.5421 70.3116 15.5603V25.5385C70.3116 26.0646 70.2209 26.5545 70.0395 27.0262C69.5133 28.3687 68.5155 29.4572 67.2455 30.1104C66.2296 30.7091 65.0503 31.0538 63.8711 31.0719C62.2383 31.0538 60.6962 30.4551 59.4807 29.4028C58.1563 28.3869 57.3762 26.8448 57.3399 25.1757V15.5784C57.3036 15.5784 57.3217 15.524 57.3217 15.524ZM81.0336 15.5603L80.9611 19.2976H80.8159H80.9792C80.9974 19.2976 81.0336 15.5603 81.0336 15.5603ZM66.1207 16.3767C66.0482 16.3948 65.9575 16.4493 65.9393 16.54L65.4857 17.9369L65.5039 18.0458L65.5946 18.1002C65.6672 18.1002 65.7035 18.1002 65.7216 18.0276L65.7942 17.7918H66.4473L66.5199 18.0276C66.5199 18.0821 66.5924 18.1002 66.6287 18.1002C66.665 18.1002 66.7194 18.0821 66.7376 18.0458C66.7557 18.0095 66.7557 17.9551 66.7376 17.9188L66.2477 16.5218C66.2477 16.4493 66.1752 16.3948 66.1207 16.3767ZM62.0569 16.413C61.9843 16.413 61.9299 16.4674 61.9299 16.5218C61.9299 16.5763 61.9843 16.6307 62.0569 16.6307H62.2746V17.9732C62.2746 18.0458 62.3471 18.0821 62.4016 18.0821C62.456 18.0821 62.5104 18.0276 62.5104 17.9732V16.6307H62.7463C62.8007 16.6307 62.8551 16.5763 62.8551 16.5218C62.8551 16.4674 62.8007 16.413 62.7463 16.413H62.0569ZM63.1273 16.413C63.0728 16.413 63.0184 16.4674 63.0184 16.5218C63.0184 16.5763 63.0728 16.6307 63.1273 16.6307H63.3631V17.9732C63.3631 18.0458 63.4357 18.0821 63.4901 18.0821C63.5445 18.0821 63.599 18.0276 63.599 17.9732V16.6307H63.8348C63.8892 16.6307 63.9437 16.5763 63.9437 16.5218C63.9437 16.4674 63.8892 16.413 63.8348 16.413H63.1273ZM64.6875 16.413C64.5061 16.3948 64.3428 16.5037 64.2702 16.6488C64.1614 16.8302 64.1069 17.0298 64.1069 17.2294C64.1069 17.4471 64.1614 17.6285 64.2521 17.8281C64.3246 17.9914 64.4879 18.1002 64.6875 18.1002C64.7963 18.1002 64.8871 18.0639 64.9778 18.0276C65.1229 17.9188 65.2136 17.7555 65.2499 17.5741C65.268 17.4834 65.2862 17.3745 65.2862 17.2838C65.2862 17.2112 65.2499 17.1205 65.1229 17.1205H64.7601C64.6693 17.1205 64.6512 17.1568 64.6512 17.1931C64.6512 17.2657 64.6875 17.3019 64.7419 17.3019H65.0141V17.3745C65.0322 17.5922 64.8871 17.7918 64.6875 17.8462C64.5605 17.8462 64.4335 17.7555 64.3972 17.6285C64.3246 17.5015 64.3065 17.3564 64.3065 17.2112C64.3065 17.048 64.3609 16.9028 64.4154 16.7758C64.4516 16.667 64.5605 16.5944 64.6693 16.5763C64.7782 16.5763 64.8689 16.6488 64.9233 16.7395C64.9415 16.794 64.9959 16.8121 65.0503 16.794C65.1048 16.794 65.1229 16.7214 65.1229 16.6851C65.0866 16.5037 64.8871 16.3948 64.6875 16.413ZM68.4611 16.413C68.3885 16.413 68.3341 16.4674 68.3341 16.5218C68.3341 16.5763 68.3885 16.6307 68.4611 16.6307H68.6969V17.9732C68.6969 18.0458 68.7514 18.0821 68.8058 18.0821C68.8602 18.0821 68.9146 18.0276 68.9146 17.9732V16.6307H69.1505C69.223 16.6307 69.2593 16.5763 69.2593 16.5218C69.2593 16.4674 69.2049 16.413 69.1505 16.413H68.4611ZM58.8638 16.413C58.7368 16.3948 58.5917 16.4311 58.4828 16.5037C58.374 16.5763 58.3014 16.7033 58.3014 16.8302C58.2833 16.9572 58.3377 17.1024 58.4284 17.2112C58.501 17.3019 58.628 17.3564 58.755 17.3564C58.9183 17.3564 59.0453 17.4108 59.136 17.5378C59.1723 17.6104 59.136 17.7011 59.0815 17.7736C59.009 17.8462 58.9001 17.8825 58.7913 17.8644C58.6824 17.8644 58.5736 17.8099 58.501 17.7374C58.4647 17.6829 58.3921 17.6648 58.3377 17.6829C58.2651 17.7192 58.2651 17.8099 58.2651 17.8462C58.374 18.0095 58.5554 18.1183 58.7731 18.1002C58.9545 18.1183 59.136 18.0639 59.263 17.9369C59.3537 17.8462 59.39 17.7192 59.39 17.5922C59.4081 17.4652 59.3355 17.3201 59.2267 17.2475C59.0634 17.1568 58.882 17.1024 58.7006 17.0842C58.5917 17.0661 58.5191 16.9572 58.5373 16.8484C58.5736 16.7033 58.7006 16.6307 58.8094 16.6488C58.9183 16.6488 59.0453 16.6851 59.1178 16.7758C59.1904 16.8484 59.2992 16.7758 59.2992 16.7033C59.2992 16.6307 59.1904 16.413 58.8638 16.413ZM59.6258 16.413C59.5714 16.413 59.517 16.4674 59.517 16.5218V16.54C59.517 16.5944 59.5714 16.6488 59.6258 16.6488H59.8617V17.9732C59.8617 18.0458 59.9161 18.1002 59.9705 18.1002C60.0431 18.1002 60.0975 18.0276 60.0975 17.9732V16.6488H60.3334C60.3878 16.6488 60.4422 16.5944 60.4422 16.54C60.4422 16.4855 60.4059 16.413 60.3515 16.413H60.3334H59.6258ZM67.1548 16.413L67.0641 16.4674C67.046 16.4855 67.0278 16.5218 67.0278 16.54V17.9551C67.0278 18.0276 67.0641 18.0639 67.1186 18.0821H67.1367C67.2093 18.0821 67.2637 18.0276 67.2637 17.9732V17.5197H67.4995L67.8624 18.0095C67.8987 18.0639 67.935 18.0821 67.9712 18.0821C68.0438 18.0821 68.0801 18.0276 68.0801 17.9914C68.0801 17.9551 68.062 17.9006 68.0257 17.8825L67.7354 17.4834H67.7717C67.8624 17.4471 67.935 17.3927 68.0075 17.3201C68.1164 17.2294 68.1708 17.0842 68.1527 16.9391C68.1527 16.7758 68.062 16.6307 67.935 16.54C67.808 16.4674 67.681 16.4311 67.5358 16.4311C67.5177 16.413 67.1548 16.413 67.1548 16.413ZM60.7506 16.413C60.6962 16.413 60.6418 16.4674 60.6418 16.5218V16.54V17.3927C60.6418 17.5559 60.6781 17.7555 60.7506 17.9006C60.8595 18.0458 61.0228 18.1183 61.2042 18.1002C61.3675 18.1365 61.5307 18.0458 61.6396 17.9006C61.7122 17.7374 61.7666 17.5741 61.7485 17.3927V16.54C61.7485 16.4855 61.694 16.4311 61.6396 16.4311H61.6215C61.567 16.4311 61.5126 16.4855 61.5126 16.54V17.4471C61.5126 17.5559 61.4945 17.6648 61.44 17.7555C61.3856 17.8281 61.2949 17.8644 61.2042 17.8462C61.1135 17.8644 61.0228 17.8281 60.9683 17.7555C60.9139 17.6648 60.8776 17.5559 60.8958 17.4471V16.54C60.8776 16.4674 60.8232 16.413 60.7506 16.413ZM67.2455 16.6488H67.554C67.6447 16.6488 67.7354 16.667 67.7898 16.7214C67.8624 16.794 67.8805 16.8484 67.8805 16.9391C67.8805 17.1387 67.7172 17.2838 67.5177 17.2838H67.2637L67.2455 16.6488ZM66.1026 16.667L66.3929 17.5741H65.8486L66.1026 16.667ZM63.8348 18.6445C63.6715 18.6989 63.5082 18.7352 63.3813 18.8259C63.2724 18.9166 63.1817 19.0255 63.1091 19.1525C63.091 19.1706 63.0728 19.1887 63.0365 19.2069L62.9458 19.225L62.6011 19.3883C62.4923 19.4427 62.3834 19.5153 62.2746 19.5516C62.1839 19.5879 62.1113 19.606 62.0206 19.6242C61.821 19.5879 61.6033 19.606 61.5307 19.8237C61.5307 19.8781 61.5489 19.9144 61.6033 19.9326C61.6396 19.9507 61.6577 19.9689 61.694 19.987L61.8029 20.0414C61.8392 20.0414 61.8573 20.0414 61.8754 20.0777L61.8936 20.114V20.1321C61.8936 20.1684 61.8392 20.2047 61.821 20.2047C61.7122 20.2228 61.6215 20.2047 61.5307 20.1503H61.5126C61.4763 20.114 61.4219 20.114 61.3856 20.1503C61.186 20.3136 60.9865 20.4768 60.7688 20.6038L60.6962 20.6764L60.6781 20.7127V20.7671C60.6781 20.8215 60.6236 20.8397 60.5873 20.8397C60.5511 20.8578 60.5148 20.8941 60.5148 20.9304V21.0211C60.5329 21.0937 60.5873 21.13 60.6781 21.13H60.7143L60.8776 21.0574H60.9502L60.9683 21.0755V21.1481C60.9502 21.1844 60.932 21.2207 60.8958 21.2388C60.8595 21.2932 60.8413 21.3295 60.8958 21.3658C60.9683 21.4384 61.0772 21.4202 61.1316 21.3477C61.1679 21.3114 61.186 21.257 61.2042 21.2207C61.2223 21.1662 61.2586 21.13 61.313 21.13C61.4037 21.0937 61.5126 21.0755 61.6033 21.0574C61.6759 21.0574 61.7484 21.0574 61.8029 21.1118L61.8573 21.1662V21.2025C61.8392 21.2751 61.821 21.3295 61.7847 21.4021L61.7303 21.5654L61.6759 21.7105L61.6033 21.7831L61.313 22.0189C61.1498 22.1641 61.0409 22.3092 60.9139 22.5088C60.8776 22.5632 60.8595 22.6176 60.8413 22.672C60.8051 22.8353 60.7688 23.0349 60.6055 22.9079C60.4422 22.8353 60.2789 22.7083 60.1157 22.5813C60.0612 22.5451 59.9887 22.4906 59.9524 22.4181C59.7891 22.1822 59.5895 22.4181 59.4988 22.5813C59.3174 22.8898 59.0997 23.18 58.8638 23.4522C58.8457 23.5247 58.8094 23.5792 58.7731 23.6336C58.7187 23.7062 58.6824 23.7969 58.7006 23.8876C58.7006 24.0509 58.6461 24.196 58.5736 24.323C58.501 24.3956 58.4647 24.4863 58.4647 24.577V24.831C58.4647 24.9035 58.501 24.9398 58.5554 24.9398H58.6098C58.7368 24.8854 58.8638 24.8128 58.9908 24.704L59.0453 24.6677C59.0815 24.6314 59.0815 24.577 59.0634 24.5407L59.0453 24.5044L59.009 24.4681C58.9908 24.45 58.9545 24.4318 58.9364 24.3956V24.2867L58.9727 24.1778C58.9727 24.1416 58.9908 24.0871 59.0271 24.069L59.2267 23.9057C59.2993 23.8331 59.3355 23.7062 59.2992 23.6154V23.4884C59.2992 23.434 59.3174 23.4159 59.3537 23.3615L59.4807 23.1982C59.5351 23.1075 59.6258 23.0349 59.7165 22.9986C59.8617 22.9986 59.9887 23.0349 60.0975 23.1256C60.1882 23.2526 60.2608 23.4159 60.3152 23.5792C60.3515 23.7243 60.4059 23.8513 60.4785 23.9783C60.5511 24.0509 60.6418 24.1053 60.7325 24.0509L60.7869 24.0146L60.8232 23.9964C60.8595 23.9964 60.8958 23.9964 60.9139 24.0509L61.0772 24.2141C61.1498 24.2686 61.0953 24.3048 61.0228 24.3048H60.7688C60.4966 24.3956 60.1882 24.45 59.8979 24.45H59.8435C59.7891 24.45 59.7709 24.4863 59.7709 24.5226L59.7528 24.5588L59.7165 24.6314C59.6984 24.704 59.6984 24.7765 59.7165 24.8491C59.8254 25.2482 59.8798 25.6655 59.7891 26.0828C59.7528 26.2461 59.7891 26.4093 59.8979 26.5182L60.0249 26.5908L60.0975 26.6271C60.1338 26.6815 60.1519 26.7178 60.1519 26.7903C60.1519 26.8629 60.2064 26.9536 60.2426 27.008C60.3152 27.0987 60.4059 27.1713 60.5148 27.2439H60.5511C60.6236 27.2802 60.6781 27.2439 60.7143 27.1895C60.7688 27.0625 60.805 26.9173 60.7869 26.7722C60.7869 26.6996 60.7325 26.6452 60.6599 26.6271L60.5873 26.6452L60.5329 26.6633H60.4604C60.4241 26.6452 60.4059 26.6089 60.3878 26.5726C60.3515 26.4819 60.3515 26.3912 60.3696 26.3005V26.2461L60.3878 26.1191C60.3878 26.0828 60.3878 26.0465 60.3515 26.0102C60.3152 25.9376 60.3152 25.9195 60.2608 25.9014C60.2245 25.9014 60.2064 25.8832 60.1882 25.8469C60.1519 25.8107 60.1519 25.7925 60.1701 25.7744C60.2064 25.5748 60.2064 25.3752 60.1882 25.1757C60.1882 25.1031 60.1882 25.0487 60.2245 25.0124C60.3696 24.8854 60.6055 24.9761 60.7325 25.0305C60.932 25.1031 61.1135 25.1394 61.2949 25.1757C61.6215 25.212 61.948 25.1212 62.202 24.9398C62.2201 24.9217 62.2201 24.9035 62.2564 24.9217L62.5286 25.1212C62.7644 25.2845 63.0184 25.3934 63.2724 25.4841C63.6352 25.5204 63.9799 25.5204 64.3609 25.4659C64.4335 25.4659 64.5424 25.4841 64.6149 25.5204L64.6512 25.5748C64.6512 25.7199 64.5786 25.8288 64.5786 25.9739C64.5786 26.0465 64.6149 26.1191 64.6512 26.1916L64.7238 26.3912L64.7782 26.4638C64.9778 26.7178 64.9959 27.0987 64.7782 27.3527C64.6512 27.4797 64.5061 27.6067 64.3428 27.7156C64.1977 27.8244 64.0162 27.897 63.8348 27.9151C63.7078 27.9151 63.599 27.9696 63.5082 28.0603C63.3994 28.1691 63.2905 28.2599 63.1635 28.3143C63.1091 28.3324 63.0547 28.3868 63.0547 28.4413C62.9821 28.5864 62.9458 28.7316 62.9096 28.8948C62.8914 28.9674 62.964 29.0037 63.0365 29.0037C63.1635 28.9855 63.2905 28.9311 63.4357 28.8948C63.5082 28.8948 63.5445 28.8041 63.5264 28.7316L63.5082 28.7134L63.4538 28.6046V28.5138C63.4901 28.4957 63.5082 28.4594 63.5445 28.4413C63.5808 28.405 63.6352 28.405 63.6715 28.405H63.7441C63.9255 28.4776 64.1432 28.405 64.2158 28.2236C64.2521 28.1691 64.2884 28.1147 64.3246 28.0784C64.6693 27.8607 65.0322 27.6793 65.4313 27.5342C65.4676 27.5342 65.5039 27.4979 65.5039 27.4616V26.8992C65.5039 26.8085 65.5402 26.6452 65.6672 26.6452C65.7216 26.6452 65.7579 26.6815 65.776 26.7178C65.903 26.881 66.0663 26.9899 66.2659 27.0625L66.4291 27.135C66.5743 27.2076 66.665 27.3346 66.6831 27.4979C66.7013 27.5886 66.6831 27.6612 66.6287 27.7337L66.2477 28.278C66.1933 28.3687 66.1207 28.4594 66.0119 28.5138C65.7579 28.6771 65.5402 28.8767 65.3225 29.0944L65.141 29.6568C65.1048 29.7657 65.1773 29.8019 65.268 29.7657C65.4313 29.7294 65.5583 29.6749 65.6853 29.6024L65.7579 29.548C65.776 29.5298 65.776 29.4935 65.776 29.4754C65.776 29.421 65.7397 29.3665 65.7035 29.3302C65.6672 29.2758 65.6672 29.2033 65.7035 29.1488C65.7216 29.1125 65.7579 29.0944 65.776 29.0763L66.1026 28.9855C66.2296 28.9674 66.3566 28.913 66.4654 28.8223C66.4836 28.786 66.5017 28.7678 66.5199 28.7316V28.6953C66.6469 28.278 66.9371 27.8789 67.3363 27.6793C67.3907 27.6612 67.4088 27.6067 67.4088 27.5523L67.3907 27.389L67.1004 26.9355C67.0097 26.8085 66.9553 26.6815 66.9371 26.5363C66.9371 26.3731 66.9734 26.2279 67.046 26.1009L67.1186 25.9921C67.173 25.8832 67.2818 25.8288 67.3544 25.7199C67.427 25.6292 67.5177 25.5204 67.5721 25.3934L67.7354 24.958C67.7717 24.831 67.7172 24.704 67.7172 24.577C67.7172 24.5226 67.7535 24.5044 67.7717 24.45C67.8261 24.3774 67.8987 24.323 67.9894 24.2867C68.0801 24.2686 68.1708 24.2686 68.2434 24.3048L68.6606 24.4681C68.7332 24.4681 68.8239 24.4681 68.8965 24.4318C68.9691 24.4137 69.0598 24.3593 69.1323 24.3048V24.2323H68.9328C68.8602 24.2141 68.8058 24.1779 68.7695 24.1234C68.7332 24.069 68.6969 24.0146 68.6969 23.9601L68.7514 23.8694C68.8602 23.7969 68.9509 23.7062 69.0053 23.6154C69.0598 23.5066 69.0779 23.3977 69.0779 23.2889H69.0235C68.9509 23.3615 68.9328 23.4522 68.8421 23.5066C68.7695 23.561 68.6788 23.5792 68.6062 23.5792C68.5518 23.5792 68.4974 23.561 68.4429 23.5066C68.4066 23.4522 68.3885 23.3977 68.3704 23.3433C68.3522 23.2707 68.4429 23.2526 68.4792 23.2345C68.5881 23.2345 68.6969 23.1982 68.8058 23.1619C68.8783 23.1256 68.9146 23.0712 68.9509 22.9986C68.9691 22.9442 68.9872 22.8898 68.9872 22.8353C68.9872 22.799 68.9872 22.7809 68.9691 22.799C68.8965 22.799 68.8602 22.8535 68.8058 22.8716C68.7151 22.9079 68.6062 22.8898 68.5155 22.8535C68.4248 22.7809 68.3522 22.6902 68.2978 22.5995V22.3999C68.4067 22.3999 68.4974 22.2911 68.5518 22.1641L68.5881 22.0915L68.6606 22.0008C68.6788 21.9282 68.6788 21.8556 68.6788 21.7831C68.6788 21.7287 68.6425 21.6561 68.6062 21.6198H68.5336C68.4974 21.6924 68.5336 21.7831 68.4611 21.8556C68.4067 21.9282 68.3522 22.0008 68.2797 22.0552C68.2252 22.0915 68.1889 22.1278 68.1527 22.1278C68.0619 22.0915 68.0075 22.0189 67.9894 21.9282C67.9894 21.8556 68.0257 21.7468 68.0619 21.6742L68.3704 21.1844L68.6244 20.8941C68.6788 20.8215 68.6969 20.6583 68.6425 20.622C68.5699 20.6038 68.5336 20.7671 68.4792 20.8034C68.2252 20.8941 67.9894 21.0211 67.7717 21.1844C67.6628 21.3114 67.6084 21.4565 67.554 21.6198C67.5177 21.7105 67.5358 21.8375 67.4995 21.9282C67.4995 21.9645 67.427 22.0008 67.3907 21.9826C67.3181 21.9101 67.2637 21.8012 67.2274 21.7105C67.2093 21.6379 67.2093 21.5654 67.2274 21.4747C67.2455 21.4384 67.2274 21.4202 67.2093 21.4384C67.1004 21.4928 67.046 21.5835 66.9916 21.6742C66.9553 21.8194 66.9553 21.9645 67.0278 22.0915C67.1367 22.3092 67.2637 22.4906 67.427 22.672C67.5358 22.8353 67.6628 23.0349 67.7535 23.1982C67.8442 23.3252 67.8805 23.5066 67.8624 23.688C67.808 23.8513 67.7354 24.0146 67.6084 24.1234C67.6084 24.1234 67.554 24.1597 67.5358 24.1416C67.4088 24.0146 67.2637 23.9057 67.1186 23.7969C66.9371 23.688 66.7557 23.5973 66.5561 23.561C66.3022 23.5247 66.03 23.5247 65.776 23.561C65.5039 23.561 65.2318 23.6154 64.9596 23.5973C64.7419 23.6154 64.5242 23.5973 64.3065 23.5247C64.1614 23.4522 64.0344 23.3433 63.9437 23.1982C63.8711 23.053 63.8348 22.8716 63.8711 22.7083C63.8711 22.5632 63.9255 22.4362 63.9799 22.3092C64.0344 22.2003 64.1251 22.1096 64.2158 22.0552C64.3428 21.9826 64.4879 21.9645 64.6149 22.0008L64.7782 22.1096C64.8326 22.1641 64.8871 22.2185 64.9415 22.2729L64.9959 22.2548C65.0141 22.0734 64.9778 21.8919 64.9233 21.7105C64.8689 21.5835 64.7782 21.4565 64.6875 21.3295C64.6875 21.2932 64.7601 21.3114 64.7782 21.2932C64.9233 21.2932 65.0685 21.3295 65.1773 21.4202C65.2499 21.4747 65.3406 21.5291 65.395 21.6379L65.4132 21.6198C65.4313 21.4021 65.3406 21.1844 65.1955 21.0211C65.141 20.9304 65.0503 20.8397 64.9596 20.7853C64.8871 20.7671 64.9959 20.7127 65.0503 20.7127C65.1592 20.6945 65.2862 20.7127 65.3769 20.7671L65.4857 20.8397L65.5583 20.9123C65.5765 20.9123 65.6127 20.876 65.5946 20.8578C65.5765 20.7853 65.5583 20.7308 65.522 20.6764C65.3587 20.5131 65.1773 20.3498 64.9778 20.2047L64.9052 20.1503C64.8508 20.0777 64.7963 19.987 64.7782 19.9144L64.7056 19.8056V19.6786C64.7782 19.5697 64.8145 19.5516 64.9415 19.4972C65.0322 19.4609 65.1229 19.4427 65.2136 19.4246L65.3043 19.4609C65.3043 19.4609 65.3225 19.4064 65.2862 19.3883C65.1773 19.3157 65.0322 19.2794 64.8871 19.2794C64.7056 19.2432 64.5242 19.2613 64.3428 19.3157C64.2158 19.3883 64.0707 19.4246 63.9437 19.4246C63.853 19.4246 63.7441 19.4246 63.6715 19.3702C63.6171 19.3339 63.5627 19.2794 63.5627 19.2069C63.5627 19.1162 63.5808 18.9892 63.6352 18.8985C63.6715 18.8259 63.7441 18.7715 63.8167 18.7352C63.8892 18.7352 63.9074 18.6989 63.8892 18.6626C63.9255 18.6082 63.8711 18.6263 63.8348 18.6445ZM63.1273 19.7149C63.218 19.7149 63.2905 19.7511 63.3631 19.8056C63.5808 19.987 63.6897 20.241 63.726 20.5131C63.7804 20.876 63.7985 21.257 63.726 21.6198C63.726 21.7468 63.6715 21.8556 63.5627 21.9101C63.5082 21.9282 63.4538 21.9464 63.3994 21.9464C63.345 21.9464 63.3268 21.8556 63.3268 21.7105V20.7127C63.2905 20.495 63.2361 20.2773 63.1273 20.0596C63.1273 20.0051 63.091 19.987 63.0547 19.9507L62.9821 19.86C62.9458 19.8237 62.8914 19.8056 62.8551 19.7693L62.8733 19.7149C62.964 19.6967 63.0547 19.6786 63.1273 19.7149ZM70.9103 19.8963H80.9611L80.8704 24.2867H70.9103V19.8963ZM70.9284 24.8673H80.8704C80.7797 26.7903 80.4168 28.6953 79.7818 30.5095C79.0199 32.6503 78.0039 34.6641 76.7521 36.569C74.9379 39.2903 72.5794 41.6125 69.8217 43.4086C68.6062 44.1525 67.3363 44.7874 66.0119 45.368C65.5946 45.5494 65.1955 45.7308 64.8689 45.8397C64.4879 45.9485 64.1614 46.0755 63.9437 46.13V31.7432C64.1614 31.7432 64.3428 31.7432 64.5605 31.7069L64.6331 31.9064C64.7238 32.0697 64.8689 32.1786 65.0503 32.233C65.2862 32.2693 65.5039 32.1786 65.649 32.0153C65.8667 32.1786 66.1389 32.2511 66.3929 32.1423C66.5924 32.0879 66.7376 31.9064 66.7376 31.7069C66.7557 31.5617 66.7376 31.4347 66.665 31.3078L66.5924 31.1989C67.1185 30.963 67.5902 30.7091 68.0438 30.3825H68.0982C68.8058 30.2011 71.7267 29.1488 73.5228 29.1307C74.6294 29.1125 75.718 29.3665 76.6795 29.8927C77.2056 30.2011 77.6773 30.5821 78.0765 31.0538L78.149 30.9993C78.2579 30.6728 78.3305 30.3462 78.3123 29.9834C78.2579 29.4391 77.7136 29.04 77.5503 28.8767C77.5503 28.8767 77.5503 28.8404 77.6048 28.8041C77.6592 28.7497 77.7318 28.6953 77.8043 28.6408C78.1309 28.405 78.5119 28.2417 78.911 28.2417C78.9654 28.2417 78.9473 28.1691 78.9291 28.0784C78.8203 27.6067 78.1127 27.2983 77.4052 27.389C76.9154 27.4797 76.4981 27.7882 76.226 28.2054C76.2078 28.2417 76.1352 28.278 76.1171 28.2417C75.8812 28.151 75.6454 28.0784 75.4096 28.024C75.337 28.0059 75.3733 27.9333 75.3733 27.9333C75.5184 27.6793 75.6998 27.4435 75.9538 27.2802C76.226 27.0625 76.5707 26.8992 76.9335 26.8448C76.9698 26.8448 76.9698 26.7903 76.9335 26.7722C76.8065 26.4819 76.5344 26.2642 76.226 26.1916C75.718 26.0284 75.1374 26.1191 74.7201 26.4456C74.321 26.7903 74.0126 27.262 73.8493 27.7519C73.8312 27.8063 73.813 27.8244 73.7767 27.8244C73.5772 27.77 73.1055 27.8063 73.0692 27.77C73.0329 27.77 73.0329 27.6974 73.0511 27.6793C73.1236 27.4072 73.2869 27.1532 73.4683 26.9536C73.6679 26.7178 73.9037 26.5182 74.1759 26.4093L74.2122 26.3731C74.2484 26.3186 74.2485 26.2461 74.194 26.2098C73.3776 25.8107 72.3979 26.0284 71.8174 26.7359C71.5453 27.135 71.3457 27.6067 71.2368 28.0784C71.2368 28.0966 71.2006 28.151 71.1643 28.151L70.1846 28.3869L70.0213 28.4231L69.985 28.3869C70.5656 27.4253 70.8921 26.3368 70.9284 25.1938C70.9284 25.212 70.9284 24.8673 70.9284 24.8673ZM57.4669 26.4456C57.5213 26.6633 57.6302 26.8629 57.7027 27.0806L57.4669 26.4456ZM58.5736 28.7497C59.8617 30.3644 61.7847 31.3077 63.8348 31.344C65.4132 31.3259 66.9371 30.7453 68.1345 29.7112C66.9371 30.7272 65.4132 31.2896 63.8348 31.3078C61.8029 31.2896 59.8617 30.3462 58.5736 28.7497ZM47.5249 29.7657H58.9183L59.1541 29.9652C60.3334 30.9812 61.821 31.598 63.3631 31.725V34.0654H49.3392C48.5953 32.6684 47.9966 31.2352 47.5249 29.7657ZM71.2913 30.6909C71.001 30.7272 70.7289 30.8179 70.4749 30.9812C70.1483 31.1808 69.8762 31.4529 69.7129 31.7976C69.5133 32.2874 69.4226 32.7773 69.3863 33.2853L69.3138 33.3578L68.6606 33.5211C68.6606 33.5211 68.6244 33.5211 68.6062 33.4848C68.5336 32.995 68.6425 32.5051 68.8965 32.0879C69.0053 31.8883 69.1505 31.7069 69.3138 31.5617C69.35 31.5436 69.3682 31.4892 69.35 31.471L69.2775 31.4347C68.8602 31.3622 68.4067 31.4347 68.0257 31.6706C67.5358 31.9246 67.2093 32.4144 67.1548 32.9768C67.1004 33.3578 67.1367 33.7388 67.2274 34.1198C67.2274 34.1379 67.2274 34.1742 67.1911 34.1924L66.4836 34.5371H66.4473C66.3747 34.2468 66.1933 33.9928 65.9212 33.8295C65.6309 33.7025 65.3225 33.7207 65.0503 33.8658C64.8689 33.9747 64.7238 34.1198 64.6512 34.3012C64.5061 34.6278 64.6149 34.9906 64.8871 35.172C64.8871 35.1902 64.9233 35.2265 64.8871 35.2446C64.7056 35.3172 64.7056 35.3535 64.5605 35.553C64.4335 35.8433 64.4698 36.188 64.6693 36.4239C64.9415 36.8411 65.5039 36.95 65.903 36.6779C65.9393 36.6597 65.9756 36.6234 66.0119 36.5871C66.0119 36.5871 66.0482 36.5871 66.0663 36.6234C66.1389 36.7323 66.2296 36.8411 66.3384 36.9137C66.6106 37.077 66.9553 37.077 67.2093 36.9137C67.4995 36.7504 67.6628 36.4239 67.6084 36.0973C67.6084 35.9159 67.5358 35.7345 67.3907 35.6075C67.3725 35.5712 67.3907 35.553 67.4633 35.5167C68.6425 34.8455 69.9306 34.3919 71.2913 34.2105C71.9807 34.1198 72.6882 34.1379 73.3776 34.2649C73.813 34.3556 74.2485 34.5734 74.5931 34.8636C74.8834 35.0995 75.1374 35.3535 75.3914 35.6437C75.464 35.6437 75.5547 35.6437 75.6273 35.5893C75.7724 35.2628 75.7905 34.8999 75.6454 34.5734C75.4821 34.1379 75.2281 33.757 74.9016 33.4304V33.3941C74.9016 33.3215 74.9379 33.3034 74.9923 33.2308C75.3007 32.9587 75.6817 32.741 76.0808 32.6684C76.1352 32.6684 76.1534 32.614 76.1352 32.5777C75.845 31.9972 75.1556 31.7432 74.5569 31.979C74.1759 32.1423 73.8493 32.4326 73.686 32.7954C73.6679 32.8317 73.6316 32.8861 73.6135 32.868L72.9604 32.7954C72.8878 32.7954 72.9059 32.7228 72.9241 32.7228C72.9966 32.487 73.1236 32.2693 73.3051 32.106C73.5409 31.8339 73.8493 31.6162 74.1759 31.4892C74.2122 31.4892 74.2122 31.4529 74.2122 31.4347C73.9945 31.1626 73.6497 30.9993 73.3051 30.9812C72.8696 30.963 72.4342 31.1263 72.1258 31.4347C71.7448 31.8339 71.5271 32.3419 71.4727 32.8861C71.4364 32.9224 71.4183 32.9587 71.4001 32.9587C71.2368 32.995 71.0373 32.995 70.8559 33.0131C70.8196 33.0131 70.8196 32.9587 70.8196 32.9406C70.8196 32.6684 70.8921 32.3963 71.0191 32.1604C71.255 31.6887 71.636 31.2896 72.0895 31.0175C72.1621 30.963 72.1621 30.8542 72.144 30.8542C71.89 30.7091 71.5815 30.6546 71.2913 30.6909ZM69.1505 36.8593C68.9691 36.8593 68.7876 36.9137 68.6425 37.0226C68.2071 37.2403 67.8805 37.6212 67.7172 38.0929C67.6447 38.4558 67.6447 38.8368 67.7535 39.1996V39.254L67.3363 39.4536H67.2818C67.0278 38.9819 67.0823 38.4195 67.4451 38.0204C67.4814 37.9841 67.4995 37.9478 67.427 37.9297C67.046 37.8752 66.665 38.0204 66.411 38.3107C66.1026 38.6735 66.0119 39.1633 66.1752 39.6169C66.2114 39.7802 66.2659 39.9435 66.3747 40.1067C66.3747 40.1067 66.4473 40.1612 66.3929 40.1793L66.1207 40.4151H66.0663C65.9574 40.1793 65.7397 40.016 65.5039 39.9435C65.2862 39.889 65.0685 39.9616 64.9052 40.1067C64.6331 40.3789 64.6149 40.8143 64.8871 41.1046L64.9052 41.1227C64.9778 41.1953 65.0685 41.2497 65.1773 41.286C65.1955 41.286 65.2136 41.3223 65.1955 41.3404C65.0322 41.4493 64.9052 41.5763 64.8145 41.7395C64.7056 42.0117 64.7601 42.3201 64.9778 42.5378C65.141 42.6648 65.3406 42.7374 65.5402 42.7011C65.8486 42.6104 66.0844 42.3745 66.2477 42.1024C66.2477 42.1024 66.284 42.0661 66.3022 42.1024C66.4291 42.2657 66.6106 42.3927 66.8283 42.4834C67.046 42.5741 67.2818 42.5196 67.4451 42.3564C67.681 42.1931 67.7717 41.8665 67.6628 41.5763C67.5721 41.413 67.4451 41.2678 67.2818 41.1771C67.2455 41.1408 67.2818 41.1046 67.3181 41.0683C68.0982 40.4333 69.0416 40.016 70.0576 39.8709C70.7289 39.7802 71.4183 39.889 72.0351 40.1974C72.2709 40.3244 72.4887 40.5059 72.6882 40.7054C72.7064 40.7054 72.7789 40.7417 72.7971 40.7054C73.1055 40.4514 73.1236 39.9797 72.8696 39.6713C72.7608 39.5443 72.6338 39.4355 72.4705 39.3448L72.4524 39.3085C72.6519 38.8005 73.0692 38.4014 73.6135 38.2744C73.6679 38.2744 73.6498 38.2381 73.6135 38.1837C73.3958 37.6394 72.4161 37.6212 71.9625 37.9115C71.6722 38.1111 71.4364 38.3651 71.2731 38.6735C71.2731 38.7098 71.255 38.7461 71.2187 38.7461L70.8196 38.6191V38.5646C71.0917 38.0204 71.5815 37.6213 72.1621 37.4761C72.1984 37.458 72.1802 37.4217 72.1621 37.4035C71.9625 36.8774 70.8921 36.9137 70.366 37.2584C69.8762 37.585 69.5133 38.0748 69.3863 38.6554V38.7279C69.2231 38.7823 69.0961 38.8186 68.9328 38.8368C68.9146 38.8368 68.8965 38.8186 68.8965 38.7823C68.8602 38.5284 68.8965 38.2562 69.0235 38.0385C69.1868 37.7482 69.4226 37.4761 69.6585 37.2221C69.6947 37.1858 69.6947 37.1314 69.6585 37.1133C69.4952 36.9318 69.3319 36.8774 69.1505 36.8593ZM53.022 39.3992H63.3268V46.0574C63.1273 45.9848 62.9096 45.8941 62.6556 45.8215C62.3109 45.7127 61.948 45.5131 61.4945 45.3317C59.2993 44.479 57.2673 43.2816 55.4712 41.7577C54.6004 41.032 53.784 40.2519 53.022 39.3992ZM91.3929 54.6931V63.2562H93.2797V60.0451H104.727V63.2562H106.632V54.6931H104.746V58.1764H93.2978V54.6931H91.3929ZM20.8014 54.6931C19.7492 54.6931 18.8965 55.5458 18.8783 56.598V61.3876C18.8783 62.4398 19.7492 63.2744 20.8014 63.2744H32.8297C33.882 63.2744 34.7165 62.4217 34.7165 61.3876V56.598C34.7165 55.5821 33.9001 54.7294 32.866 54.7112L20.8014 54.6931ZM37.0024 54.6931V63.2562H38.8711V60.9884H49.3754C50.4095 60.9884 51.2622 61.8593 51.2622 62.8934V63.2381H53.1672V63.2199C53.1672 61.9863 52.4596 60.8615 51.3348 60.3172C52.3508 60.2809 53.149 59.4464 53.149 58.4304V56.5799C53.149 55.5276 52.2963 54.6931 51.2441 54.6931H37.0024ZM0.554688 54.7112V63.2744H2.44148V61.0066H14.7782C15.8304 61.0066 16.6831 60.1539 16.6831 59.1198V56.598C16.6831 55.5458 15.8123 54.7112 14.7782 54.7112H0.590972H0.554688ZM75.6273 54.7112C74.575 54.7112 73.7042 55.5639 73.7042 56.598V61.3876C73.7042 62.4217 74.5387 63.2925 75.5728 63.2925H89.2339V61.4057H75.845C75.718 61.4057 75.6091 61.315 75.6091 61.1699V56.852C75.6091 56.6887 75.7543 56.598 75.9175 56.598H89.2339V54.6931L75.6273 54.7112ZM108.846 54.7112V63.2744H125.555V61.6779H110.751V59.8092H125.555V58.1945H110.751V56.3259H125.555V54.7112H108.846ZM57.1947 54.7112C56.1606 54.7475 55.3261 55.5821 55.3261 56.6343V57.9043C55.3261 58.9565 56.1969 59.8092 57.2492 59.8092H69.2593C69.4226 59.8092 69.5677 59.9362 69.5859 60.0995V61.4057C69.5859 61.569 69.4408 61.6779 69.2593 61.6779H55.5982V63.2925H69.5859C70.62 63.2925 71.4727 62.4217 71.4727 61.3876V60.0995C71.4727 59.0654 70.6019 58.1945 69.5678 58.1945H57.5394C57.3762 58.2127 57.231 58.0857 57.231 57.9224V56.6162C57.231 56.4529 57.3762 56.3259 57.5394 56.3259H71.1643V54.7294L57.1947 54.7112ZM38.8892 56.5799H50.9357C51.1171 56.598 51.2622 56.7432 51.2622 56.9064V58.7932C51.2622 58.9565 51.1352 59.1017 50.972 59.1198H38.8892V56.5799ZM2.44148 56.5799L14.4698 56.598C14.6331 56.598 14.7963 56.7613 14.7963 56.9246V58.7932C14.7963 58.9565 14.6693 59.1017 14.5061 59.1198H2.47776V56.5799H2.44148ZM21.1098 56.598H32.5394C32.7027 56.598 32.866 56.7432 32.866 56.9246V61.0792C32.866 61.2606 32.739 61.3876 32.5576 61.4057H21.0373C20.9103 61.4057 20.8014 61.2969 20.8014 61.1699V56.852C20.8196 56.6887 20.9647 56.5799 21.1098 56.598Z" fill="#756479"/>
</g>
<defs>
<clipPath id="clip0_4058_11131">
<rect width="125" height="62.9536" fill="white" transform="translate(0.5 0.266327)"/>
</clipPath>
</defs>
</svg>
