<svg width="101" height="56" viewBox="0 0 101 56" fill="none" xmlns="http://www.w3.org/2000/svg">
<g clip-path="url(#clip0_4063_26205)">
<path d="M95.4434 12.56C95.4434 12.1467 95.55 11.7467 95.7567 11.38C95.97 11.02 96.2567 10.74 96.6234 10.52C96.9834 10.3133 97.3767 10.2067 97.7967 10.2067C98.1034 10.2067 98.41 10.2667 98.69 10.3867C98.9767 10.5 99.2234 10.6733 99.4567 10.8867C99.6634 11.1067 99.8434 11.3533 99.9567 11.64C100.09 11.9267 100.143 12.2267 100.143 12.5467C100.143 12.8667 100.083 13.18 99.9567 13.46C99.8434 13.74 99.67 13.9867 99.4567 14.2133C99.2234 14.4267 98.9767 14.6 98.69 14.7133C98.4034 14.82 98.1034 14.8867 97.7967 14.8867C97.3834 14.8867 96.99 14.78 96.6234 14.5733C96.2567 14.3667 95.97 14.0867 95.7567 13.7133C95.55 13.3533 95.4434 12.96 95.4434 12.5267M95.79 12.56C95.79 12.9133 95.8834 13.2467 96.0567 13.56C96.2367 13.8667 96.4767 14.1133 96.7834 14.2933C97.09 14.4733 97.4234 14.5667 97.79 14.5667C98.1567 14.5667 98.4834 14.4733 98.7767 14.3C99.0834 14.12 99.33 13.8867 99.51 13.5733C99.6834 13.2667 99.7767 12.9333 99.7767 12.5667C99.7767 12.2 99.6834 11.8733 99.51 11.56C99.33 11.2533 99.0834 11.0133 98.7767 10.84C98.47 10.66 98.1434 10.5733 97.79 10.5733C97.4367 10.5733 97.0967 10.6667 96.7834 10.8467C96.4767 11.02 96.23 11.2667 96.0567 11.5733C95.8834 11.88 95.79 12.2067 95.79 12.56ZM96.9167 13.94V11.1867H97.9634C98.07 11.1867 98.17 11.2 98.29 11.2333C98.4034 11.2667 98.5234 11.34 98.61 11.4533C98.7034 11.5667 98.75 11.72 98.75 11.9133C98.75 12.0733 98.7167 12.2 98.6367 12.3C98.57 12.4067 98.4767 12.5 98.3634 12.5533C98.2567 12.6133 98.1434 12.6333 98.0367 12.6333H97.9767L98.85 13.9133H98.33L97.49 12.6467H97.3634V13.9133H96.91V13.9267L96.9167 13.94ZM97.3634 11.54V12.3067H97.7434C97.9567 12.3067 98.1034 12.2667 98.17 12.2067C98.2367 12.1267 98.2767 12.04 98.2767 11.92C98.2767 11.8 98.25 11.7 98.1767 11.6333C98.11 11.5667 97.9967 11.54 97.8034 11.54H97.3567H97.3634Z" fill="#756479"/>
<path d="M92.8754 15.2H79.3421C79.1421 15.2 78.7421 15.2 78.5421 15.2666C78.3421 15.2666 77.9421 15.3333 77.7421 15.3333C77.5421 15.3333 77.1421 15.4 76.9421 15.4666C76.7421 15.5333 76.4087 15.6 76.2087 15.6666C76.0087 15.7333 75.6754 15.8 75.4754 15.8666C75.2754 15.9333 74.9421 16 74.7421 16.0666C74.5421 16.1333 74.2087 16.2666 74.0087 16.3333C73.8087 16.4 73.5421 16.5333 73.3421 16.6C73.1421 16.6666 72.8754 16.8 72.6754 16.9333C72.4754 17 72.2087 17.2 72.0087 17.2666C71.8087 17.3333 71.5421 17.5333 71.3421 17.6666C71.1421 17.8 70.8754 18 70.7421 18.0666C70.6087 18.2 70.3421 18.4 70.1421 18.5333C69.9421 18.6666 69.6754 18.8666 69.5421 19C69.4087 19.1333 69.1421 19.3333 69.0087 19.5333C68.8754 19.6666 68.6754 19.9333 68.5421 20.0666C68.4087 20.2 68.2087 20.4666 68.0087 20.6C67.8754 20.7333 67.6754 21 67.5421 21.2C67.4087 21.3333 67.2087 21.6 67.0754 21.8C66.9421 22 66.8087 22.2666 66.6754 22.4666C66.6087 22.6666 66.4087 22.9333 66.2754 23.1333C66.1421 23.3333 66.0087 23.6 65.9421 23.8C65.8754 24 65.7421 24.2666 65.6087 24.4666C65.5421 24.6666 65.3421 25 65.2754 25.2C65.2087 25.4 65.0754 25.7333 65.0087 25.9333C64.9421 26.1333 64.8754 26.4666 64.8087 26.6666C64.7421 26.8666 64.6754 27.2 64.6087 27.3333C64.5421 27.5333 64.3421 27.0666 64.1421 26.3333L61.4754 16.9333C61.2754 16.2 60.6754 15.6 60.2087 15.6H53.5421C53.0087 15.6 52.4087 16.2 52.2087 16.9333L47.3421 34C47.1421 34.7333 46.9421 34.7333 46.9421 33.9333V16.8666C46.9421 16.1333 46.3421 15.4666 45.5421 15.4666H38.0754C37.2754 15.4666 36.6754 15.8 36.6754 16.1333C36.6754 16.5333 36.6754 16.7333 36.6087 16.6666C36.5421 16.6 36.4087 16.3333 36.3421 16.0666C36.2087 15.8 36.0087 15.4 35.8754 15.2C35.7421 14.9333 35.5421 14.6 35.3421 14.3333C35.2087 14.1333 35.0087 13.7333 34.8087 13.5333C34.6754 13.3333 34.4087 12.9333 34.2754 12.7333C34.1421 12.5333 33.8754 12.1333 33.6754 11.9333C33.4754 11.7333 33.2087 11.4 33.0087 11.2C32.8087 11 32.5421 10.6666 32.3421 10.5333C32.1421 10.3333 31.8087 10.0666 31.6754 9.86663C31.4754 9.66663 31.2087 9.39996 30.9421 9.19996C30.7421 9.06663 30.4087 8.79996 30.2087 8.59996C30.0087 8.46663 29.6754 8.19996 29.4754 7.99996C29.2754 7.86663 28.8754 7.59996 28.6754 7.46663C28.4087 7.33329 28.0754 7.13329 27.8087 6.99996C27.5421 6.86663 27.2087 6.66663 26.9421 6.59996C26.6754 6.46663 26.3421 6.33329 26.0754 6.19996C25.8087 6.13329 25.4087 5.93329 25.2087 5.86663C24.9421 5.79996 24.5421 5.59996 24.2754 5.53329C24.0087 5.46663 23.6087 5.33329 23.3421 5.26663C23.0754 5.19996 22.6754 5.13329 22.4087 5.06663C22.1421 4.99996 21.7421 4.93329 21.4754 4.86663C21.2087 4.79996 20.7421 4.79996 20.4754 4.73329C20.2087 4.73329 17.6087 4.66663 17.5421 4.66663C17.4754 4.66663 16.8087 4.66663 16.0087 4.66663H1.74206C0.942057 4.66663 0.275391 5.39996 0.275391 6.13329V44.7333C0.275391 45.4666 0.875391 46.1333 1.67539 46.1333H16.1421C16.8754 46.1333 20.2087 46.1333 20.4754 46.0666C20.7421 46.0666 21.2087 46 21.4754 45.9333C21.7421 45.8666 22.2087 45.8 22.4087 45.8C22.6754 45.7333 23.0754 45.6666 23.3421 45.6C23.6087 45.5333 24.0087 45.4 24.2754 45.3333C24.5421 45.2666 24.9421 45.1333 25.2087 45.0666C25.4754 45 25.8754 44.8 26.0754 44.7333C26.3421 44.6 26.6754 44.4666 26.9421 44.3333C27.2087 44.2666 27.5421 44.0666 27.8087 43.9333C28.0087 43.8 28.4087 43.6 28.6754 43.4666C28.9421 43.3333 29.2754 43.1333 29.4754 42.9333C29.6754 42.8 30.0087 42.5333 30.2087 42.4C30.4087 42.2666 30.7421 42 30.9421 41.8C31.1421 41.6 31.4754 41.3333 31.6754 41.1333L32.3421 40.4666C32.5421 40.2666 32.8087 39.9333 33.0087 39.7333C33.2087 39.5333 33.4754 39.2 33.6754 39C33.8754 38.8 34.1421 38.4666 34.2754 38.2666C34.4087 38.0666 34.6754 37.7333 34.8087 37.4666C34.9421 37.2 35.1421 36.8666 35.3421 36.6C35.4754 36.3333 35.6754 36 35.8754 35.7333C36.0087 35.4666 36.2087 35.1333 36.3421 34.8666C36.4754 34.6 36.6087 34.3333 36.6087 34.2666C36.6754 34.2 36.6754 34.7333 36.6754 35.5333V44.8666C36.6754 45.6666 37.2754 46.2666 38.0754 46.2666H52.6087C53.4087 46.2666 54.0754 45.6 54.2087 44.8L56.6754 31.2C56.8087 30.4666 57.0087 30.4666 57.1421 31.2L59.5421 44.8C59.6754 45.5333 60.4087 46.2 61.2087 46.2L68.6087 46.2666C69.4087 46.2666 69.8087 45.6666 69.6087 44.9333L69.0087 42.7333C68.8087 42 68.6754 41.4666 68.7421 41.5333L69.1421 41.9333C69.2754 42.0666 69.5421 42.3333 69.6754 42.4666C69.8087 42.6 70.0754 42.8 70.2754 42.9333C70.4754 43.0666 70.7421 43.2666 70.8754 43.3333C71.0087 43.4666 71.2754 43.6666 71.4754 43.7333C71.6754 43.8666 71.9421 44 72.1421 44.1333C72.3421 44.2 72.6087 44.4 72.8087 44.4666C73.0087 44.5333 73.3421 44.7333 73.4754 44.8C73.6754 44.8666 73.9421 45 74.1421 45.0666C74.3421 45.1333 74.6754 45.2666 74.8754 45.3333C75.0754 45.4 75.4087 45.5333 75.6087 45.6C75.8087 45.6666 76.1421 45.7333 76.3421 45.8C76.5421 45.8666 76.8754 45.9333 77.0754 45.9333C77.2754 46 77.6754 46 77.8754 46.0666C78.0754 46.0666 78.4754 46.1333 78.6754 46.1333C78.8754 46.1333 79.2754 46.2 79.5421 46.2H92.8754C93.6087 46.2 94.2754 45.6 94.2754 44.8V16.6C94.2754 15.8 93.6754 15.2 92.8754 15.2ZM27.7421 28.7333C27.7421 29.4666 27.1421 30 26.4754 30H22.6754C21.9421 30 21.4087 30.6 21.4087 31.2666V35.0666C21.4087 35.8 20.8087 36.3333 20.1421 36.3333H13.8087C13.0754 36.3333 12.5421 35.7333 12.5421 35.0666V31.2666C12.5421 30.5333 11.9421 30 11.2754 30H7.40872C6.67539 30 6.14206 29.4 6.14206 28.7333V22.3333C6.14206 21.6 6.74206 21.0666 7.40872 21.0666H11.2754C12.0087 21.0666 12.5421 20.4666 12.5421 19.8V16C12.5421 15.2666 13.1421 14.7333 13.8087 14.7333H20.1421C20.8754 14.7333 21.4087 15.3333 21.4087 16V19.8C21.4087 20.5333 22.0087 21.0666 22.6754 21.0666H26.4754C27.1421 21.0666 27.7421 21.6666 27.7421 22.3333V28.7333ZM85.0087 36.4666C85.0087 37.1333 84.4754 37.6666 83.7421 37.6666H80.5421C80.4754 37.6666 80.3421 37.6 80.2754 37.6C80.2087 37.6 80.0754 37.5333 80.0754 37.5333H79.9421C79.8754 37.5333 79.7421 37.4666 79.6754 37.4666C79.6087 37.4 79.4754 37.4 79.4087 37.3333C79.3421 37.2666 79.2087 37.2666 79.1421 37.2C79.0754 37.1333 78.9421 37.0666 78.8754 37.0666C78.8087 37 78.6754 36.9333 78.6087 36.9333C78.5421 36.9333 78.4087 36.8666 78.3421 36.8C78.2754 36.7333 78.1421 36.6666 78.0754 36.6C78.0087 36.5333 77.8754 36.4666 77.8087 36.4C77.7421 36.3333 77.6087 36.2666 77.6087 36.2C77.5421 36.1333 77.4754 36.0666 77.4087 36C77.3421 35.9333 77.2087 35.8666 77.2087 35.8C77.1421 35.7333 77.0754 35.6666 77.0087 35.6C76.9421 35.5333 76.8754 35.4666 76.8087 35.4C76.7421 35.3333 76.6754 35.2666 76.6087 35.2C76.5421 35.1333 76.4754 35 76.4754 34.9333C76.4087 34.8666 76.3421 34.7333 76.3421 34.6666C76.2754 34.6 76.2087 34.4666 76.2087 34.4C76.1421 34.3333 76.0754 34.2 76.0754 34.1333C76.0087 34.0666 75.9421 33.9333 75.9421 33.8666C75.9421 33.8 75.8754 33.6666 75.8087 33.6C75.8087 33.5333 75.7421 33.4 75.7421 33.3333C75.7421 33.2666 75.6754 33.1333 75.6754 33.0666C75.6087 33 75.6087 32.8666 75.6087 32.8C75.6087 32.7333 75.5421 32.6 75.5421 32.5333C75.5421 32.4666 75.4754 32.3333 75.4754 32.2C75.4754 32.1333 75.4087 32 75.4087 31.9333V31.4C75.4087 31.3333 75.3421 31.2 75.3421 31.0666V30.7333C75.3421 30.6 75.3421 30.4666 75.4087 30.4666V29.9333C75.4087 29.8666 75.4754 29.7333 75.4754 29.6666C75.4754 29.6 75.5421 29.4666 75.5421 29.4C75.5421 29.3333 75.6087 29.2 75.6087 29.1333C75.6087 29.0666 75.6754 28.9333 75.6754 28.8666C75.7421 28.8 75.7421 28.6666 75.7421 28.6C75.7421 28.5333 75.8087 28.4 75.8087 28.3333C75.8754 28.2666 75.8754 28.1333 75.9421 28.0666C76.0087 28 76.0754 27.8666 76.0754 27.8C76.1421 27.7333 76.2087 27.6 76.2087 27.5333C76.2754 27.4666 76.3421 27.3333 76.3421 27.2666C76.4087 27.2 76.4754 27.0666 76.4754 27.0666C76.5421 27 76.6087 26.9333 76.6087 26.8666C76.6754 26.8 76.7421 26.7333 76.8087 26.6666C76.8754 26.6 76.9421 26.4666 77.0087 26.4C77.0754 26.3333 77.1421 26.2666 77.2087 26.2C77.2754 26.1333 77.3421 26.0666 77.4087 26C77.4754 25.9333 77.6087 25.8666 77.6087 25.8C77.6754 25.7333 77.7421 25.6666 77.8087 25.6C77.8754 25.5333 78.0087 25.4666 78.0754 25.4C78.1421 25.3333 78.2754 25.2666 78.3421 25.2C78.4087 25.1333 78.5421 25.0666 78.6087 25.0666C78.6754 25.0666 78.8087 25 78.8754 24.9333C78.9421 24.8666 79.0754 24.8666 79.1421 24.8C79.2087 24.7333 79.3421 24.6666 79.4087 24.6666C79.4754 24.6666 79.6087 24.6 79.6754 24.6C79.7421 24.5333 79.8754 24.5333 79.9421 24.4666C80.0087 24.4666 80.0754 24.4 80.0754 24.4C80.0754 24.4 80.2087 24.4 80.2754 24.3333C80.3421 24.3333 80.4754 24.2666 80.5421 24.2666H83.7421C84.4087 24.2666 85.0087 24.8 85.0087 25.4V36.4666Z" fill="#756479"/>
<path d="M0.410156 49.0666C0.410156 49.5333 0.810156 49.9333 1.27682 49.9333H94.1435C94.6102 49.9333 95.0102 49.5333 95.0102 49.0666C95.0102 48.5999 94.6102 48.2 94.1435 48.2H1.27682C0.810156 48.2 0.410156 48.5999 0.410156 49.0666Z" fill="#756479"/>
<path d="M3.87656 55H2.67656L2.07656 53L1.87656 55H0.476562L1.0099 51.2H2.67656L3.27656 53.3334L3.87656 51.1334H5.54323L6.07656 54.9334H4.6099L4.4099 52.9334L3.87656 55Z" fill="#756479"/>
<path d="M7.47656 55V51.2H10.1432V52.3333H9.0099V52.6667H10.0099V53.6H9.0099V53.9333H10.1432V55.0667L7.47656 55Z" fill="#756479"/>
<path d="M12.0757 51.2H15.409V53.9333H15.8757V55.8H14.5423V55.0667H12.5423V55.8H11.209V53.9333C11.409 53.9333 11.609 53.8667 11.7423 53.7333C11.8757 53.6 11.9423 53.4667 11.9423 53.2667C11.9423 53.0667 12.009 52.9333 12.009 52.7333V51.2H12.0757ZM13.409 52.2667V52.8C13.409 53.0667 13.409 53.3333 13.3423 53.4667C13.2757 53.6 13.209 53.7333 13.0757 53.8667H13.8757V52.2667H13.409Z" fill="#756479"/>
<path d="M17.209 51.2H18.6757V53.1333L19.7423 51.2H21.1423V55H19.6757V53.1333L18.609 55H17.209V51.2Z" fill="#756479"/>
<path d="M24.7424 55V53.6667C24.5424 53.6667 24.4091 53.7333 24.3424 53.7333H24.0091C23.6758 53.7333 23.4091 53.6667 23.2091 53.6C23.0091 53.5333 22.8758 53.4 22.8091 53.3333C22.7424 53.2 22.6758 53.0667 22.6758 52.9333V51.2H24.1424V52.0667C24.1424 52.2 24.1424 52.3333 24.2091 52.4667C24.2091 52.6 24.3424 52.6 24.4091 52.6667H24.8091V51.2667H26.3424V55.0667H24.7424V55Z" fill="#756479"/>
<path d="M27.877 55V51.2H29.4103V52.5333H30.1436V51.2H31.677V55H30.1436V53.6H29.4103V55H27.877Z" fill="#756479"/>
<path d="M32.9414 55L34.2747 51.2H35.9414L37.2747 55H35.6747L35.5414 54.4667H34.6081L34.4747 55H32.9414ZM34.8747 53.4667H35.4081L35.1414 52.4667L34.8747 53.4667Z" fill="#756479"/>
<path d="M41.8098 51.2H45.3431V55H43.8098V52.2667H43.2098V53.6667C43.2098 53.8667 43.2098 54 43.1431 54.1333C43.1431 54.2667 43.0764 54.4 42.9431 54.5333C42.8764 54.6667 42.6764 54.8 42.4764 54.8667C42.2764 54.9333 41.9431 55 41.6098 55C41.4098 55 41.2764 55 41.0098 54.9333V53.8667C41.0764 53.8667 41.1431 53.9333 41.2764 53.9333C41.4098 53.9333 41.5431 53.8667 41.6098 53.8C41.6764 53.7333 41.7431 53.6 41.7431 53.5333V51.2H41.8098Z" fill="#756479"/>
<path d="M46.6094 55L47.9427 51.2H49.6094L50.9427 55H49.3427L49.2094 54.4667H48.276L48.1427 55H46.6094ZM48.5427 53.4667H49.076L48.8094 52.5333L48.5427 53.4667Z" fill="#756479"/>
<path d="M52.209 55V51.2H55.409V52.3333H53.7423V52.6667H54.2756C54.6756 52.6667 55.009 52.7333 55.2756 52.8667C55.609 53 55.7423 53.3333 55.7423 53.8C55.7423 54 55.6756 54.2 55.609 54.3333C55.5423 54.5333 55.409 54.6667 55.1423 54.8C54.9423 54.9333 54.609 55 54.209 55H52.209ZM53.7423 54.0667H53.8757C54.1423 54.0667 54.2756 54 54.2756 53.8C54.2756 53.6 54.1423 53.5333 53.8757 53.5333H53.7423V54.0667Z" fill="#756479"/>
<path d="M59.2764 55.1334C58.9431 55.1334 58.6098 55.0667 58.3431 55C58.0764 54.9334 57.8098 54.7334 57.6098 54.6C57.4098 54.4 57.2764 54.2 57.1431 53.9334C57.0098 53.6667 57.0098 53.4 57.0098 53.1334C57.0098 52.8667 57.0764 52.6 57.1431 52.3334C57.2764 52.0667 57.4098 51.8667 57.6098 51.6667C57.8098 51.4667 58.0098 51.3334 58.3431 51.2667C58.6098 51.2 58.9431 51.1334 59.2764 51.1334C59.6098 51.1334 59.9431 51.2 60.2098 51.2667C60.4764 51.4 60.7431 51.5334 60.9431 51.6667C61.1431 51.8667 61.2764 52.0667 61.4098 52.3334C61.5431 52.6 61.5431 52.8667 61.5431 53.1334C61.5431 53.4 61.4764 53.6667 61.4098 53.9334C61.2764 54.2 61.1431 54.4 60.9431 54.6C60.7431 54.8 60.5431 54.9334 60.2098 55C59.8764 55.0667 59.6098 55.1334 59.2764 55.1334ZM59.2764 53.9334C59.4764 53.9334 59.6764 53.8667 59.8098 53.7334C59.9431 53.6 60.0098 53.4 60.0098 53.1334C60.0098 52.8667 59.9431 52.6667 59.8098 52.5334C59.6764 52.4 59.4764 52.3334 59.2764 52.3334C59.1431 52.3334 59.0098 52.4 58.8764 52.4667C58.7431 52.5334 58.6764 52.6 58.6098 52.7334C58.5431 52.8667 58.5431 53 58.5431 53.1334C58.5431 53.2667 58.6098 53.4 58.6098 53.5334C58.6764 53.6667 58.7431 53.7334 58.8764 53.8C58.9431 53.8667 59.0764 53.9334 59.2764 53.9334Z" fill="#756479"/>
<path d="M62.9434 55V51.2H64.9434C65.2767 51.2 65.61 51.2667 65.81 51.4C66.01 51.5333 66.21 51.6667 66.2767 51.8667C66.41 52.0667 66.41 52.2667 66.41 52.5333C66.41 52.8 66.3434 53 66.2767 53.2C66.1434 53.4 66.01 53.5333 65.81 53.6667C65.61 53.8 65.2767 53.8667 64.9434 53.8667H64.4767V55.0667H62.9434V55ZM64.41 52.2V52.8667H64.61C64.8767 52.8667 64.9434 52.7333 64.9434 52.5333C64.9434 52.3333 64.81 52.2 64.61 52.2H64.41Z" fill="#756479"/>
<path d="M67.4746 55L68.8079 51.2H70.4746L71.8079 55H70.2746L70.1413 54.4667H69.2079L69.0746 55H67.4746ZM69.4079 53.4667H69.9413L69.6746 52.4667L69.4079 53.4667Z" fill="#756479"/>
<path d="M73.6086 55V52.2667H72.8086V51.1334H75.9419V52.2667H75.1419V55H73.6086Z" fill="#756479"/>
<path d="M79.2764 55.1334C78.9431 55.1334 78.6098 55.0667 78.3431 55C78.0764 54.9334 77.8098 54.7334 77.6098 54.6C77.4098 54.4 77.2764 54.2 77.1431 53.9334C77.0098 53.6667 77.0098 53.4 77.0098 53.1334C77.0098 52.8667 77.0764 52.6 77.1431 52.3334C77.2764 52.0667 77.4098 51.8667 77.6098 51.6667C77.8098 51.4667 78.0098 51.3334 78.3431 51.2667C78.6098 51.2 78.9431 51.1334 79.2764 51.1334C79.6098 51.1334 79.9431 51.2 80.2098 51.2667C80.4764 51.4 80.7431 51.5334 80.9431 51.6667C81.1431 51.8667 81.2764 52.0667 81.4098 52.3334C81.5431 52.6 81.5431 52.8667 81.5431 53.1334C81.5431 53.4 81.4764 53.6667 81.4098 53.9334C81.2764 54.2 81.1431 54.4 80.9431 54.6C80.7431 54.8 80.5431 54.9334 80.2098 55C79.9431 55.0667 79.6098 55.1334 79.2764 55.1334ZM79.2764 53.9334C79.4764 53.9334 79.6764 53.8667 79.8098 53.7334C79.9431 53.6 80.0098 53.4 80.0098 53.1334C80.0098 52.8667 79.9431 52.6667 79.8098 52.5334C79.6764 52.4 79.4764 52.3334 79.2764 52.3334C79.1431 52.3334 79.0098 52.4 78.8764 52.4667C78.7431 52.5334 78.6764 52.6 78.6098 52.7334C78.5431 52.8667 78.5431 53 78.5431 53.1334C78.5431 53.2667 78.5431 53.4 78.6098 53.5334C78.6764 53.6667 78.7431 53.7334 78.8764 53.8C79.0098 53.8667 79.1431 53.9334 79.2764 53.9334Z" fill="#756479"/>
<path d="M82.9414 55V51.2H84.9414C85.2747 51.2 85.6081 51.2667 85.8081 51.4C86.0081 51.5333 86.2081 51.6667 86.2747 51.8667C86.3414 52.0667 86.4081 52.2667 86.4081 52.5333C86.4081 52.8 86.3414 53 86.2747 53.2C86.1414 53.4 86.0081 53.5333 85.8081 53.6667C85.6081 53.8 85.2747 53.8667 84.9414 53.8667H84.4747V55.0667H82.9414V55ZM84.4747 52.2V52.8667H84.6747C84.9414 52.8667 85.0081 52.7333 85.0081 52.5333C85.0081 52.3333 84.8747 52.2 84.6747 52.2H84.4747Z" fill="#756479"/>
<path d="M87.875 55V51.2H89.4083V55H87.875Z" fill="#756479"/>
<path d="M90.8105 55L91.6772 53.6L91.2772 53.4C91.1439 53.3333 91.0772 53.2 91.0105 53.0667C90.9439 52.9333 90.8772 52.7333 90.8772 52.5333C90.8772 52.1333 91.0105 51.8667 91.2772 51.6C91.5439 51.3333 91.9439 51.2 92.5439 51.2H94.4772V55H92.9439V53.9333L92.4772 55H90.8105ZM92.9439 52.9333V52.2H92.8105C92.5439 52.2 92.3439 52.3333 92.3439 52.5333C92.3439 52.8 92.4772 52.8667 92.8105 52.8667L92.9439 52.9333Z" fill="#756479"/>
<path fill-rule="evenodd" clip-rule="evenodd" d="M47.9437 7.26667C47.9437 11 44.8771 14.0667 41.1438 14.0667C37.4104 14.0667 34.3438 11 34.3438 7.26667C34.3438 3.53334 37.4104 0.466675 41.1438 0.466675C44.8771 0.466675 47.9437 3.53334 47.9437 7.26667Z" fill="#756479"/>
</g>
<defs>
<clipPath id="clip0_4063_26205">
<rect width="100" height="56" fill="white" transform="translate(0.142578)"/>
</clipPath>
</defs>
</svg>
