<svg width="126" height="28" viewBox="0 0 126 28" fill="none" xmlns="http://www.w3.org/2000/svg">
<path d="M116.799 22.0623C116.799 20.3012 118.229 18.8723 119.989 18.8723C121.75 18.8723 123.178 20.3012 123.178 22.0623C123.178 23.8235 121.75 25.2514 119.989 25.2514C118.229 25.2514 116.799 23.8235 116.799 22.0623Z" fill="#756479"/>
<path d="M15.0635 13.6143C15.0635 11.5938 14.6731 10.0948 13.8922 9.11819C13.1103 8.14255 11.926 7.65518 10.3338 7.65518H8.64009V20.0109H9.93594C11.7045 20.0109 13.0005 19.4866 13.8257 18.4344C14.6499 17.384 15.0635 15.7769 15.0635 13.6143ZM21.1037 13.4038C21.1037 17.0849 20.1142 19.9213 18.1352 21.9123C16.1563 23.9042 13.3743 24.9002 9.78829 24.9002H2.82031V2.84253H10.2747C13.7324 2.84253 16.4017 3.74802 18.2829 5.55808C20.1631 7.36907 21.1037 9.98309 21.1037 13.4038Z" fill="#756479"/>
<path d="M40.4043 24.8999H45.949V2.74994H40.4043V24.8999Z" fill="#756479"/>
<path d="M53.7399 16.6379C53.7399 18.0501 53.9245 19.1273 54.2928 19.8675C54.662 20.6087 55.2803 20.9789 56.1498 20.9789C57.0101 20.9789 57.6184 20.6087 57.9728 19.8675C58.3273 19.1273 58.5036 18.0501 58.5036 16.6379C58.5036 15.233 58.3245 14.1734 57.9654 13.458C57.6055 12.7408 56.9917 12.3817 56.1214 12.3817C55.2703 12.3817 54.662 12.739 54.2928 13.4497C53.9245 14.1614 53.7399 15.2238 53.7399 16.6379ZM64.147 16.6379C64.147 19.3285 63.4418 21.4275 62.0277 22.932C60.6145 24.4375 58.6365 25.1906 56.0936 25.1906C53.6549 25.1906 51.7137 24.4208 50.2729 22.8812C48.8302 21.3416 48.1094 19.2611 48.1094 16.6379C48.1094 13.9555 48.8156 11.8713 50.2296 10.3852C51.6437 8.89916 53.6263 8.15613 56.1794 8.15613C57.7569 8.15613 59.1525 8.50043 60.3617 9.18809C61.5718 9.87575 62.5059 10.8606 63.1622 12.1436C63.8194 13.4248 64.147 14.9238 64.147 16.6379Z" fill="#756479"/>
<path d="M66.3477 24.8999H71.8932V16.4228V8.4469H66.3477V24.8999Z" fill="#756479"/>
<path d="M66.3477 6.45677H71.8932V2.74896H66.3477V6.45677Z" fill="#756479"/>
<path d="M83.1275 20.7034C83.8761 20.7034 84.7677 20.5133 85.8079 20.1358V24.2755C85.0603 24.6041 84.3496 24.8395 83.674 24.9789C82.9983 25.1201 82.2053 25.1903 81.298 25.1903C79.4363 25.1903 78.0942 24.7223 77.2699 23.7882C76.4493 22.8541 76.0377 21.4197 76.0377 19.4841V12.7017H74.0957V8.44833H76.0377V4.2467L81.6258 3.27472V8.44833H85.1638V12.7017H81.6258V19.1056C81.6258 20.1708 82.127 20.7034 83.1275 20.7034Z" fill="#756479"/>
<path d="M95.9624 20.7034C96.711 20.7034 97.6028 20.5133 98.643 20.1358V24.2755C97.8963 24.6041 97.1845 24.8395 96.5088 24.9789C95.8323 25.1201 95.0422 25.1903 94.1329 25.1903C92.2712 25.1903 90.9292 24.7223 90.1068 23.7882C89.2844 22.8541 88.8727 21.4197 88.8727 19.4841V12.7017H86.9297V8.44833H88.8727V4.18301L94.4598 3.27472V8.44833H97.9996V12.7017H94.4598V19.1056C94.4598 20.1708 94.961 20.7034 95.9624 20.7034Z" fill="#756479"/>
<path d="M105.641 14.6335C105.717 13.7326 105.975 13.0726 106.414 12.6508C106.855 12.2299 107.4 12.0194 108.051 12.0194C108.762 12.0194 109.327 12.2557 109.746 12.732C110.168 13.2055 110.387 13.8396 110.405 14.6335H105.641ZM113.461 10.0959C112.143 8.80362 110.273 8.15656 107.854 8.15656C105.311 8.15656 103.354 8.89959 101.982 10.3857C100.612 11.8717 99.9258 14.004 99.9258 16.7823C99.9258 19.4729 100.667 21.5479 102.146 23.0044C103.625 24.461 105.703 25.1902 108.379 25.1902C109.664 25.1902 110.77 25.1025 111.696 24.928C112.618 24.7554 113.509 24.4434 114.374 23.993L113.522 20.2852C112.894 20.5418 112.295 20.7393 111.73 20.8695C110.915 21.0587 110.019 21.1538 109.044 21.1538C107.976 21.1538 107.132 20.8925 106.514 20.3701C105.895 19.8467 105.566 19.1249 105.528 18.2056H115.439V15.6793C115.439 13.2489 114.78 11.3872 113.461 10.0959Z" fill="#756479"/>
<path d="M28.4634 14.6335C28.5391 13.7326 28.7967 13.0726 29.2359 12.6508C29.6763 12.2299 30.2219 12.0194 30.8745 12.0194C31.5834 12.0194 32.1482 12.2557 32.5682 12.732C32.99 13.2055 33.2088 13.8396 33.2282 14.6335H28.4634ZM36.2843 10.0959C34.9654 8.80362 33.0961 8.15656 30.676 8.15656C28.1321 8.15656 26.1761 8.89959 24.8054 10.3857C23.4347 11.8717 22.748 14.004 22.748 16.7823C22.748 19.4729 23.4884 21.5479 24.9689 23.0044C26.4476 24.461 28.5253 25.1902 31.2012 25.1902C32.486 25.1902 33.5918 25.1025 34.5185 24.928C35.4397 24.7554 36.3315 24.4434 37.1973 23.993L36.3444 20.2852C35.7157 20.5418 35.1176 20.7393 34.5536 20.8695C33.7358 21.0587 32.8414 21.1538 31.8666 21.1538C30.7987 21.1538 29.9542 20.8925 29.3358 20.3701C28.7164 19.8467 28.3879 19.1249 28.3501 18.2056H38.2615V15.6793C38.2615 13.2489 37.6024 11.3872 36.2843 10.0959Z" fill="#756479"/>
</svg>
