<svg width="56" height="64" viewBox="0 0 56 64" fill="none" xmlns="http://www.w3.org/2000/svg">
<g clip-path="url(#clip0_4063_26132)">
<path d="M8.31916 52.8934V47.6981L6.54092 51.4695L4.82953 47.6981V52.8934H3.41992V44.9295H4.97278L6.54092 48.5567L8.17495 44.9295H9.73832V52.8934" fill="#756479"/>
<path d="M11.0195 52.8934H12.4416V44.9295H11.0195V52.8934Z" fill="#756479"/>
<path d="M16.203 46.1376V52.8934H14.7838V46.1376H13.0801V44.9295H17.9144V46.1376" fill="#756479"/>
<path d="M20.5487 53.1102C18.6988 53.1102 18.0618 51.8963 17.9883 50.3989H19.3415C19.3415 51.119 19.6987 51.8218 20.5487 51.8218C21.2583 51.8218 21.6861 51.4694 21.6861 50.905C21.6861 50.3989 21.3337 50.1878 19.8382 49.3398C18.7704 48.6951 18.0618 48.0581 18.0618 46.9197C18.0618 45.7088 18.8459 44.8607 20.4809 44.8607C22.2543 44.8607 22.8961 45.9943 22.9668 47.3438H21.5495C21.5495 46.7049 21.1962 46.0612 20.4809 46.0612C19.8382 46.0612 19.4848 46.3534 19.4848 46.8472C19.4848 47.4144 19.9098 47.6981 21.0443 48.272C22.326 48.9883 23.1072 49.5489 23.1072 50.8372C23.1072 52.3251 21.9039 53.1102 20.5487 53.1102Z" fill="#756479"/>
<path d="M26.4717 53.0309C25.1967 53.0309 23.7012 52.5343 23.7012 50.3989V44.9305H25.1241V50.3989C25.1241 51.2537 25.551 51.756 26.4717 51.756C27.2586 51.756 27.6922 51.2537 27.6922 50.3989V44.9305H29.1075V50.3989C29.1075 52.4656 27.6922 53.0309 26.4717 53.0309Z" fill="#756479"/>
<path d="M32.5172 49.4086H31.9509V48.1308H32.5172C33.2296 48.1308 33.6518 47.8471 33.6518 47.1375C33.6518 46.427 33.1561 46.1376 32.5172 46.1376H31.4524V51.6872H32.5869C33.3672 51.6872 33.8666 51.331 33.8666 50.4772C33.8666 49.6922 33.3672 49.4086 32.5172 49.4086ZM32.9422 52.8934H30.0332V44.9305H32.6633C34.1512 44.9305 35.0728 45.6391 35.0728 46.9198C35.0728 47.9827 34.2993 48.6274 33.9383 48.6952C34.4387 48.8422 35.3584 49.4086 35.3584 50.6883C35.3584 51.9642 34.3671 52.8934 32.9422 52.8934Z" fill="#756479"/>
<path d="M48.7269 52.8934V49.4086H45.8265V52.8934H44.3281V44.9295H45.8265V48.0582H48.6601V44.9295H50.1537V52.8934" fill="#756479"/>
<path d="M36.1465 52.8934H37.5695V44.9295H36.1465V52.8934Z" fill="#756479"/>
<path d="M51.502 52.8934H52.924V44.9295H51.502V52.8934Z" fill="#756479"/>
<path d="M41.0526 52.9593C39.2008 52.9593 38.5638 51.8219 38.4922 50.2585H39.8407C39.8407 50.9709 40.1959 51.755 41.0526 51.755C41.7669 51.755 42.1957 51.3988 42.1957 50.8363C42.1957 50.3282 41.8414 50.0398 40.3468 49.1908C39.2782 48.6264 38.5638 47.9817 38.5638 46.8472C38.5638 45.6381 39.345 44.791 40.9838 44.791C42.7611 44.791 43.401 45.9227 43.4736 47.2674H42.1241C42.0468 46.5635 41.6905 45.9934 40.9838 45.9934C40.4165 45.9934 39.9868 46.2742 39.9868 46.7736C39.9868 47.2674 40.4165 47.5596 41.5549 48.2033C42.8318 48.9043 43.6149 49.4076 43.6149 50.7675C43.6149 52.1781 42.4049 52.9593 41.0526 52.9593Z" fill="#756479"/>
<path d="M20.6107 56.9995C19.5441 56.9995 18.8932 58.2062 18.8932 59.8594C18.8932 61.502 19.5441 62.6425 20.6107 62.6425C21.6859 62.6425 22.3339 61.502 22.3339 59.8594C22.3339 58.2062 21.6859 56.9995 20.6107 56.9995ZM20.6107 64C18.4007 64 17.3965 62.0799 17.3965 59.8594C17.3965 57.6379 18.4007 55.7169 20.6107 55.7169C22.8303 55.7169 23.8287 57.6379 23.8287 59.8594C23.8287 62.0799 22.8303 64 20.6107 64Z" fill="#756479"/>
<path d="M39.0735 63.7888L36.7167 59.5051H37.141C37.6431 59.5051 38.5033 59.3601 38.5033 58.2071C38.5033 57.2097 37.6431 56.9994 37.0709 56.9994H36.2136V63.7888H34.7812V55.784H37.4319C38.9996 55.784 40.0701 56.5684 40.0701 58.0689C40.0701 59.5051 39.2185 60.0677 38.7154 60.2885L40.7901 63.7888" fill="#756479"/>
<path d="M43.2368 63.8588C41.3773 63.8588 40.735 62.7231 40.6582 61.1419H42.0195C42.0195 61.8591 42.3776 62.6425 43.2368 62.6425C43.9521 62.6425 44.3889 62.2863 44.3889 61.7228C44.3889 61.2168 44.0202 60.9279 42.5235 60.0677C41.4512 59.5051 40.735 58.8657 40.735 57.7137C40.735 56.5012 41.5193 55.6448 43.1639 55.6448C44.9543 55.6448 45.6014 56.7824 45.6657 58.1467H44.2382C44.2382 57.4237 43.8829 56.8621 43.1639 56.8621C42.5927 56.8621 42.1606 57.1425 42.1606 57.6378C42.1606 58.1467 42.5927 58.427 43.7361 59.0731C45.0235 59.7845 45.8145 60.2885 45.8145 61.6527C45.8145 63.0716 44.6001 63.8588 43.2368 63.8588Z" fill="#756479"/>
<path d="M31.0219 56.9995C29.9495 56.9995 29.3044 58.2062 29.3044 59.8594C29.3044 61.502 29.9495 62.6425 31.0219 62.6425C32.0971 62.6425 32.7346 61.502 32.7346 59.8594C32.7346 58.2062 32.0971 56.9995 31.0219 56.9995ZM31.0219 64C28.809 64 27.8125 62.0799 27.8125 59.8594C27.8125 57.6379 28.809 55.7169 31.0219 55.7169C33.2405 55.7169 34.2332 57.6379 34.2332 59.8594C34.2332 62.0799 33.2405 64 31.0219 64Z" fill="#756479"/>
<path d="M26.4957 56.9994V63.7878H25.0643V56.9994H23.3516V55.784H28.2141V56.9994" fill="#756479"/>
<path d="M15.4715 63.7888V58.5663L13.6801 62.367L11.9626 58.5663V63.7888H10.5293V55.7841H12.1057L13.6801 59.4303L15.3237 55.7841H16.9058V63.7888" fill="#756479"/>
<path d="M28.1345 28.3734L19.9609 14.2164L28.1345 7.62939e-06L36.3674 14.2164" fill="#756479"/>
<path d="M36.234 42.1538L28 28H44.4097L52.5875 42.1538" fill="#756479"/>
<path d="M19.9596 42.5272H3.60938L11.7829 28.3734H28.1332" fill="#756479"/>
</g>
<defs>
<clipPath id="clip0_4063_26132">
<rect width="56" height="64" fill="white"/>
</clipPath>
</defs>
</svg>
