<svg width="120" height="68" viewBox="0 0 120 68" fill="none" xmlns="http://www.w3.org/2000/svg">
<g clip-path="url(#clip0_4063_27267)">
<path d="M38.9311 60.8092L38.8516 58.9001H31.2173L31.1377 60.8092C31.1775 60.8218 31.2173 60.8354 31.2571 60.8354C31.4696 60.8354 31.6152 60.5442 31.7608 60.2919C32.0655 59.762 32.4101 59.6426 33.0069 59.6426H33.9872V67.7273C34.3318 67.6612 34.6763 67.6341 35.048 67.6341C35.3256 67.6341 35.7633 67.6612 36.0681 67.7273V59.6426H37.0493C37.7121 59.6426 38.0169 59.7755 38.3343 60.3317C38.4672 60.5704 38.6128 60.8218 38.8118 60.8218C38.8516 60.8218 38.8914 60.8218 38.9311 60.8092Z" fill="#756479"/>
<path d="M45.3455 64.0692C45.3455 65.2087 45.067 67.171 43.5559 67.171C41.8594 67.171 41.5682 65.461 41.5682 64.1226C41.5682 62.89 41.8467 61.0207 43.4374 61.0207C45.0145 61.0207 45.3455 62.8366 45.3455 64.0692ZM47.4264 64.1352C47.4264 61.7632 45.9026 60.3054 43.5432 60.3054C41.3828 60.3054 39.4873 61.6836 39.4873 63.9761C39.4873 66.415 41.012 67.899 43.4103 67.899C45.6638 67.899 47.4264 66.4684 47.4264 64.1352Z" fill="#756479"/>
<path d="M53.7344 65.6065C53.7344 66.6275 53.2307 67.0643 52.2495 67.0643C51.6934 67.0643 51.4546 67.0109 51.4546 66.5606V64.2545H51.7196C52.0777 64.2545 52.5018 64.2816 52.6872 64.3205C53.3239 64.4535 53.7344 64.9038 53.7344 65.6065ZM53.3103 62.2135C53.3103 63.2607 52.7668 63.5654 51.7856 63.5654C51.6671 63.5654 51.5604 63.5654 51.4546 63.5519V61.339C51.4546 61.14 51.5342 61.1129 51.8661 61.1129C52.5416 61.1129 53.3103 61.2856 53.3103 62.2135ZM55.8017 65.7394C55.8017 64.4797 54.5565 63.7779 53.4423 63.6848C54.3439 63.6052 55.2184 63.0093 55.2184 62.0281C55.2184 61.1798 54.4507 60.7557 53.6946 60.6101C53.0851 60.4907 52.6076 60.4907 51.839 60.4907H48.6982C48.6982 60.7421 49.0428 60.8751 49.2011 61.0469C49.4932 61.3525 49.5067 61.8165 49.5067 62.227V67.7271H52.5543C53.5617 67.7271 54.1721 67.6611 54.7283 67.3826C55.3251 67.0914 55.8017 66.5479 55.8017 65.7394Z" fill="#756479"/>
<path d="M61.1729 64.864H58.8931L60.0995 62.0407L61.1729 64.864ZM64.3407 67.7271L61.7833 61.3516C61.5572 60.7819 61.4117 60.4907 60.8546 60.4907H58.7213C58.7213 60.8877 59.423 60.7955 59.423 61.3516C59.423 61.5642 59.2774 61.9223 59.1852 62.1475L56.7725 67.7271H57.6741L58.5621 65.6463H61.4514L62.2599 67.7271C62.5909 67.6602 62.949 67.6476 63.2673 67.6476C63.6245 67.6476 63.9826 67.6738 64.3407 67.7271Z" fill="#756479"/>
<path d="M71.7346 62.4921L71.655 60.8481C71.0989 60.5171 70.3166 60.3579 69.5868 60.3579C67.4137 60.3579 65.4658 61.7895 65.4658 64.0955C65.4658 66.5082 67.2817 67.8466 69.5615 67.8466C70.237 67.8466 71.2309 67.6739 71.6948 67.21V66.1501C71.2309 66.6538 70.6612 67.0382 69.9051 67.0382C68.2095 67.0382 67.5467 65.4746 67.5467 63.9897C67.5467 62.6377 68.2222 61.0606 69.7333 61.0606C70.1177 61.0606 70.436 61.1401 70.6874 61.3391C70.8999 61.4983 71.0328 61.7497 71.1911 62.1602C71.2707 62.399 71.4298 62.5319 71.6016 62.5319C71.655 62.5319 71.6948 62.5183 71.7346 62.4921Z" fill="#756479"/>
<path d="M79.7239 62.4921L79.6443 60.8481C79.0881 60.5171 78.3059 60.3579 77.577 60.3579C75.403 60.3579 73.4551 61.7895 73.4551 64.0955C73.4551 66.5082 75.271 67.8466 77.5499 67.8466C78.2263 67.8466 79.2211 67.6739 79.6841 67.21V66.1501C79.2211 66.6538 78.6504 67.0382 77.8953 67.0382C76.1988 67.0382 75.5359 65.4746 75.5359 63.9897C75.5359 62.6377 76.2115 61.0606 77.7226 61.0606C78.1069 61.0606 78.4252 61.1401 78.6776 61.3391C78.8892 61.4983 79.0221 61.7497 79.1804 62.1602C79.2599 62.399 79.4191 62.5319 79.5918 62.5319C79.6443 62.5319 79.6841 62.5183 79.7239 62.4921Z" fill="#756479"/>
<path d="M87.3045 64.0692C87.3045 65.2087 87.0259 67.171 85.5148 67.171C83.8183 67.171 83.5271 65.461 83.5271 64.1226C83.5271 62.89 83.8048 61.0207 85.3955 61.0207C86.9726 61.0207 87.3045 62.8366 87.3045 64.0692ZM89.3853 64.1352C89.3853 61.7632 87.8606 60.3054 85.5022 60.3054C83.3417 60.3054 81.4463 61.6836 81.4463 63.9761C81.4463 66.415 82.9701 67.899 85.3692 67.899C87.6228 67.899 89.3853 66.4684 89.3853 64.1352Z" fill="#756479"/>
<path d="M6.07967 51.6747C6.07967 52.9208 5.48373 53.543 4.39673 53.543C3.74742 53.543 3.46889 53.4779 3.46889 52.9335V49.9782H3.78721C4.46274 49.9782 5.29745 50.0713 5.74871 50.6537C5.94766 50.9196 6.07967 51.2903 6.07967 51.6747ZM5.57597 47.6188C5.57597 48.8116 4.99269 49.2231 3.85324 49.2231C3.72031 49.2231 3.60092 49.2231 3.46889 49.1959V46.3862C3.46889 46.1474 3.56114 46.095 3.94548 46.095C4.90045 46.095 5.57597 46.6385 5.57597 47.6188ZM8.29347 51.8338C8.29347 50.2965 6.84836 49.488 5.57597 49.3687C6.60962 49.2755 7.60437 48.5068 7.60437 47.314C7.60437 46.2668 6.72899 45.7505 5.85451 45.5777C5.16541 45.4321 4.60834 45.4321 3.73386 45.4321H0.5C0.5 45.7369 0.937694 45.9096 1.10952 46.1077C1.41427 46.4531 1.42783 46.9695 1.42783 47.5392V54.2592H4.55589C5.70891 54.2592 6.398 54.1797 7.04731 53.8487C7.72374 53.4779 8.29347 52.8141 8.29347 51.8338Z" fill="#756479"/>
<path d="M14.1436 48.997C14.1436 49.8453 13.8126 50.5479 12.8576 50.5479C12.5402 50.5479 12.1956 50.5344 12.1956 50.1898V47.7382C12.3277 47.6984 12.5529 47.6722 12.911 47.6722C13.2555 47.6722 13.5874 47.778 13.7728 47.9634C14.0242 48.2021 14.1436 48.5729 14.1436 48.997ZM18.1732 54.1797C18.1732 54.1399 18.1461 54.1263 18.0936 54.1128C18.0141 54.1001 17.9472 54.0866 17.8676 54.073C17.457 53.9807 17.0193 53.6624 16.5825 53.1985C16.1711 52.7879 15.6547 52.1386 15.0578 51.4486L14.3959 50.68C15.1238 50.4286 16.1313 49.8055 16.1313 48.7981C16.1313 48.3613 15.9594 47.9634 15.6945 47.7111C15.0578 47.1151 14.064 47.022 13.1235 47.022H9.4248C9.4248 47.3005 9.70333 47.3141 9.92851 47.5655C10.1012 47.7509 10.2468 48.0692 10.2468 48.7058V54.2593C10.5651 54.1924 10.9495 54.1797 11.2407 54.1797C11.5057 54.1797 11.8773 54.1924 12.1956 54.2593V51.171C12.381 51.1837 12.5266 51.2235 12.7382 51.4224C13.3351 52.0193 14.0504 53.4499 14.9918 53.9672C15.5353 54.2719 16.4369 54.3253 16.8611 54.3253C17.192 54.3253 17.8676 54.2991 18.1199 54.2593C18.1597 54.2457 18.1732 54.2186 18.1732 54.1797Z" fill="#756479"/>
<path d="M21.3754 54.2591V47.2343C21.3754 47.1023 21.3094 47.0227 21.1765 47.0227H18.6055C18.6055 47.2741 18.8704 47.3003 19.0956 47.5662C19.281 47.7652 19.4275 48.0826 19.4275 48.759V54.2591C19.7051 54.2057 20.0497 54.1795 20.3951 54.1795C20.6999 54.1795 21.1104 54.2057 21.3754 54.2591Z" fill="#756479"/>
<path d="M29.6666 48.6923L29.6132 47.022H23.1988L23.1328 48.7058C23.159 48.7058 23.1988 48.7185 23.2251 48.7185C23.3707 48.7185 23.4774 48.5729 23.5696 48.4011C23.8481 47.8838 24.0199 47.7382 24.6702 47.7382H25.4253V54.2593C25.7174 54.2059 26.0881 54.1797 26.4065 54.1797C26.6316 54.1797 27.1082 54.2059 27.3732 54.2593V47.7382H28.1292C28.8445 47.7382 28.991 47.9236 29.2687 48.44C29.3482 48.5991 29.454 48.7058 29.5734 48.7058C29.6132 48.7058 29.6403 48.7058 29.6666 48.6923Z" fill="#756479"/>
<path d="M33.4272 54.2591V47.2343C33.4272 47.1023 33.3612 47.0227 33.2282 47.0227H30.6572C30.6572 47.2741 30.9222 47.3003 31.1474 47.5662C31.3328 47.7652 31.4793 48.0826 31.4793 48.759V54.2591C31.7569 54.2057 32.1014 54.1795 32.446 54.1795C32.7516 54.1795 33.1622 54.2057 33.4272 54.2591Z" fill="#756479"/>
<path d="M40.5651 52.258C40.5651 49.8063 37.305 50.0053 37.305 48.4408C37.305 47.8449 37.9145 47.5401 38.4182 47.5401C38.723 47.5401 38.9744 47.6061 39.1471 47.6984C39.4519 47.8575 39.6373 48.1361 39.7431 48.3875C39.9022 48.7727 40.0216 48.931 40.2603 48.931C40.3001 48.931 40.3399 48.9183 40.3797 48.8912L40.2603 47.2616C39.6771 47.0093 39.0938 46.8899 38.3649 46.8899C37.7156 46.8899 37.1061 47.0228 36.615 47.2616C35.9395 47.5926 35.462 48.2156 35.462 48.9047C35.462 51.3826 38.657 51.0652 38.657 52.7481C38.657 53.3712 38.0864 53.6895 37.5166 53.6895C36.5092 53.6895 35.8463 53.0131 35.3164 52.2182V53.8613C36.0851 54.2592 36.7615 54.4048 37.6496 54.4048C39.2665 54.4048 40.5651 53.6099 40.5651 52.258Z" fill="#756479"/>
<path d="M49.3513 54.2591V47.0227H47.4025V49.9518H44.5005V47.2217C44.5005 47.1149 44.4345 47.0227 44.3016 47.0227H41.7441C41.7441 47.3003 42.0353 47.3139 42.2741 47.6187C42.4459 47.8574 42.5526 48.1495 42.5526 48.7454V54.2591C42.87 54.1931 43.2146 54.1795 43.5465 54.1795C43.8648 54.1795 44.1822 54.1931 44.5005 54.2591V50.734H47.4025V54.2591C47.7208 54.1931 48.0654 54.1795 48.3972 54.1795C48.7156 54.1795 49.033 54.1931 49.3513 54.2591Z" fill="#756479"/>
<path d="M60.4726 50.8129H57.6764L59.1604 47.1947L60.4726 50.8129ZM63.8656 54.2592L60.9238 46.4784C60.6715 45.7893 60.4726 45.4321 59.8368 45.4321H57.6628C57.6628 45.9223 58.3917 45.7495 58.3917 46.4784C58.3917 46.7443 58.2326 47.1811 58.1132 47.4596L55.2637 54.2592H56.2711L57.331 51.6476H60.7773L61.7178 54.2592C62.0497 54.1923 62.3807 54.1661 62.7524 54.1661C63.1629 54.1661 63.4813 54.1923 63.8656 54.2592Z" fill="#756479"/>
<path d="M74.4277 54.2591L73.4465 49.0366C73.3669 48.6134 73.2882 48.0826 73.2882 47.6322C73.2882 47.4333 73.3145 47.181 73.4203 47.0227H72.0285C71.5781 47.0227 71.4723 47.2081 71.2861 47.606L69.6564 51.1175L67.9328 47.3275C67.827 47.0752 67.761 47.0227 67.4824 47.0227H65.2958C65.2958 47.2343 65.4938 47.3401 65.7199 47.5128C65.9053 47.6584 66.0907 47.8836 66.0907 48.2951C66.0907 48.4271 66.0509 48.6794 66.0247 48.8115L64.8057 54.2591H65.6928L66.7671 49.156L69.0198 54.3785L71.4723 49.0502L72.4788 54.2591C72.7438 54.2057 73.1417 54.1795 73.4727 54.1795C73.7784 54.1795 74.1491 54.2057 74.4277 54.2591Z" fill="#756479"/>
<path d="M81.6424 52.7082C81.6153 52.6955 81.5628 52.682 81.523 52.682C81.0718 52.682 81.3377 53.504 80.0382 53.504H78.4077V50.7603H80.9398V49.9645H78.4077V47.7652H80.4496C80.767 47.7652 81.0854 47.8574 81.2707 48.003L81.2309 47.0227H75.6377C75.6377 47.2877 75.9027 47.3275 76.1288 47.5662C76.3141 47.7652 76.4597 48.069 76.4597 48.7192V53.6632C76.4597 54.2058 76.4995 54.2591 77.0692 54.2591H81.1649C81.4561 54.2591 81.5095 54.0204 81.5493 53.6225L81.6424 52.7082Z" fill="#756479"/>
<path d="M87.3878 48.997C87.3878 49.8453 87.0568 50.5479 86.1018 50.5479C85.7844 50.5479 85.4389 50.5344 85.4389 50.1898V47.7382C85.5719 47.6984 85.7971 47.6722 86.1552 47.6722C86.4997 47.6722 86.8307 47.778 87.017 47.9634C87.2693 48.2021 87.3878 48.5729 87.3878 48.997ZM91.4175 54.1797C91.4175 54.1399 91.3903 54.1263 91.3369 54.1128C91.2583 54.1001 91.1923 54.0866 91.1118 54.073C90.7012 53.9807 90.2644 53.6624 89.8267 53.1985C89.4162 52.7879 88.8989 52.1386 88.302 51.4486L87.6401 50.68C88.369 50.4286 89.3755 49.8055 89.3755 48.7981C89.3755 48.3613 89.2037 47.9634 88.9387 47.7111C88.302 47.1151 87.3082 47.022 86.3677 47.022H82.6699C82.6699 47.3005 82.9476 47.3141 83.1736 47.5655C83.3464 47.7509 83.4911 48.0692 83.4911 48.7058V54.2593C83.8094 54.1924 84.1937 54.1797 84.4858 54.1797C84.7508 54.1797 85.1215 54.1924 85.4389 54.2593V51.171C85.6252 51.1837 85.7708 51.2235 85.9834 51.4224C86.5793 52.0193 87.2955 53.4499 88.236 53.9672C88.7795 54.2719 89.6802 54.3253 90.1053 54.3253C90.4362 54.3253 91.1118 54.2991 91.3641 54.2593C91.4039 54.2457 91.4175 54.2186 91.4175 54.1797Z" fill="#756479"/>
<path d="M94.6186 54.2591V47.2343C94.6186 47.1023 94.5526 47.0227 94.4196 47.0227H91.8486C91.8486 47.2741 92.1136 47.3003 92.3388 47.5662C92.5251 47.7652 92.6707 48.0826 92.6707 48.759V54.2591C92.9492 54.2057 93.2937 54.1795 93.6383 54.1795C93.943 54.1795 94.3536 54.2057 94.6186 54.2591Z" fill="#756479"/>
<path d="M102.91 49.0241L102.831 47.38C102.275 47.0491 101.491 46.8899 100.763 46.8899C98.5895 46.8899 96.6416 48.3214 96.6416 50.6275C96.6416 53.0402 98.4575 54.3786 100.736 54.3786C101.413 54.3786 102.407 54.2059 102.871 53.742V52.6821C102.407 53.1858 101.837 53.5701 101.081 53.5701C99.3844 53.5701 98.7224 52.0057 98.7224 50.5217C98.7224 49.1697 99.398 47.5925 100.909 47.5925C101.293 47.5925 101.611 47.6721 101.863 47.8711C102.076 48.0302 102.208 48.2816 102.367 48.6922C102.446 48.931 102.606 49.0639 102.777 49.0639C102.831 49.0639 102.871 49.0503 102.91 49.0241Z" fill="#756479"/>
<path d="M108.475 51.3962H106.195L107.401 48.5729L108.475 51.3962ZM111.643 54.2593L109.084 47.8838C108.859 47.3141 108.713 47.022 108.156 47.022H106.023C106.023 47.4199 106.725 47.3276 106.725 47.8838C106.725 48.0963 106.579 48.4535 106.486 48.6796L104.074 54.2593H104.976L105.864 52.1784H108.752L109.562 54.2593C109.893 54.1924 110.251 54.1797 110.568 54.1797C110.926 54.1797 111.284 54.2059 111.643 54.2593Z" fill="#756479"/>
<path d="M119.5 54.2591V47.0227H118.585L118.665 51.8599L114.888 47.2614C114.755 47.0887 114.635 47.0227 114.41 47.0227H112.369C112.369 47.2741 112.714 47.407 112.873 47.5798C113.164 47.8836 113.191 48.2553 113.191 48.759V54.2591H114.092L114.026 49.1433L117.326 53.2255C117.525 53.4769 117.843 53.7952 118.068 53.9281C118.4 54.1262 118.811 54.2591 119.328 54.2591H119.5Z" fill="#756479"/>
<path d="M60.3316 8.07711L59.0855 36.7975L53.636 22.6892L56.4756 36.9549L47.6214 25.1019L53.8648 37.294L31.953 21.8002L51.2585 37.8963L38.9344 33.3068L48.8368 39.0104C39.628 39.0104 28.6025 31.7279 25.2158 16.6185C25.2158 16.6185 44.9002 16.8445 51.472 25.5966C50.2348 13.2697 58.7463 1.64917 60.3316 0.0629883C61.9169 1.64917 70.4284 13.2697 69.1913 25.5966C75.763 16.8445 95.4474 16.6185 95.4474 16.6185C92.0617 31.7279 81.0352 39.0104 71.8265 39.0104L81.7288 33.3068L69.4038 37.8963L88.7102 21.8002L66.7985 37.294L73.0419 25.1019L64.1886 36.9549L67.0281 22.6892L61.5778 36.7975L60.3316 8.07711Z" fill="#756479"/>
</g>
<defs>
<clipPath id="clip0_4063_27267">
<rect width="119" height="67.8741" fill="white" transform="translate(0.5 0.0629883)"/>
</clipPath>
</defs>
</svg>
