<svg width="73" height="57" viewBox="0 0 73 57" fill="none" xmlns="http://www.w3.org/2000/svg">
<path d="M18.7413 0.24646H4.64068C4.61732 7.80513 4.64392 28.2821 4.63688 28.7842H18.7413L18.7413 0.24646Z" fill="#756479"/>
<path d="M45.7608 0.24646H31.6602C31.6368 7.80513 31.6634 28.2821 31.6564 28.7842H45.7607L45.7608 0.24646Z" fill="#756479"/>
<path d="M72.8584 0.24646H58.758C58.7346 7.80513 58.7608 28.2821 58.7542 28.7842H72.8584L72.8584 0.24646Z" fill="#756479"/>
<path d="M20.2174 34.2385C20.2788 33.9594 20.5264 33.7605 20.8123 33.7605H30.0766C30.4377 33.7605 30.7058 34.0947 30.6275 34.4475L30.3134 35.8711C30.2593 36.1126 30.0595 36.2846 29.8136 36.3111C29.7709 36.3156 29.7437 36.3183 29.7437 36.3183C29.0457 36.4113 27.7849 36.6384 26.752 37.4466L19.0507 43.8513L19.0504 43.854L24.977 51.8748C26.1255 53.3515 26.6922 53.6192 27.8471 53.637C28.226 53.6442 28.4981 53.9995 28.4161 54.369L28.0927 55.8111C28.0359 56.0657 27.8101 56.2464 27.5495 56.2464H22.9343C17.8232 56.2471 16.4124 54.0055 12.1549 46.2222L12.1513 46.2226L10.9084 51.9003C10.7196 52.7827 11.4587 53.25 12.0002 53.47C12.0237 53.4799 12.0472 53.4885 12.069 53.4972C12.3277 53.5987 12.4745 53.8735 12.414 54.1442L12.0452 55.809C11.9881 56.0643 11.7616 56.2464 11.5 56.2464H0.804945C0.428715 56.2464 0.149902 55.8984 0.230858 55.5312L0.545615 54.1086C0.602383 53.8503 0.817711 53.6571 1.08006 53.6285C1.09079 53.6267 1.10123 53.6258 1.11131 53.625C2.09152 53.5118 3.11977 52.8924 3.75433 49.86L6.17968 38.7564C6.49175 37.2774 5.75205 36.7147 5.11414 36.4648C5.10878 36.4623 5.07114 36.4493 5.01269 36.4295C4.72044 36.3298 4.54912 36.0257 4.6163 35.7241L4.94584 34.2407C5.00765 33.9602 5.2569 33.7606 5.54378 33.7606H15.7164C16.0722 33.7606 16.3369 34.0898 16.26 34.4375L15.9358 35.9011C15.8888 36.1151 15.7299 36.2874 15.5206 36.3522C15.4954 36.3599 15.4692 36.368 15.443 36.3761C14.967 36.5309 14.2139 36.9213 13.9827 37.8692L12.6276 44.0485C12.6273 44.051 12.6313 44.051 12.6313 44.051L20.5217 37.4931C20.995 37.1028 20.8744 36.5811 20.3316 36.3722C20.3316 36.3722 20.3303 36.3718 20.3283 36.3712C20.0199 36.2778 19.8355 35.9624 19.9054 35.6476L20.2174 34.2385Z" fill="#756479"/>
<path d="M48.5103 40.4059C48.1734 40.4059 47.9114 40.1133 47.9483 39.7787C47.9546 39.722 47.9557 39.7035 47.9557 39.7035C48.0478 38.2966 47.5657 37.4716 45.9859 37.4716L41.0979 37.477L39.7916 43.4326L46.7888 43.4329C47.1489 43.4329 47.4163 43.7661 47.3387 44.1175L46.6567 47.1885C46.6 47.4461 46.3715 47.6289 46.1085 47.6289H38.8621C38.8621 47.6289 38.0569 51.2776 38.028 51.4352C37.7586 52.6129 38.5634 53.2246 39.1032 53.4873C39.1308 53.5004 39.1583 53.5135 39.1862 53.5259C39.4177 53.6294 39.5446 53.881 39.4896 54.1289L39.1174 55.8075C39.0606 56.0635 38.8332 56.2462 38.5708 56.2462H30.0499C29.6921 56.2462 29.4264 55.9153 29.5037 55.5663L33.2156 38.7492C33.5938 37.2654 32.7255 36.6618 32.1017 36.4239C32.0805 36.4162 32.059 36.409 32.0385 36.4011C31.7597 36.302 31.5985 36.0108 31.663 35.7219L31.9905 34.2415C32.0529 33.9606 32.3022 33.7604 32.5901 33.7604H51.5356C51.8951 33.7604 52.1625 34.0937 52.0849 34.4447L50.8591 39.9666C50.802 40.2232 50.5746 40.4059 50.3115 40.4059L48.5103 40.4059Z" fill="#756479"/>
<path d="M72.3876 34.5361C72.7168 34.6263 72.9161 34.96 72.8419 35.2937L71.6742 40.5489C71.6186 40.7996 71.3963 40.9777 71.1398 40.9777H69.4785C69.1647 40.9777 68.915 40.7143 68.9314 40.4012C68.9354 40.3329 68.9359 40.3051 68.9359 40.3034C69.0157 38.5902 67.9335 37.309 65.4845 37.3093C61.4135 37.31 58.4524 40.6505 58.0644 45.0393C57.6637 49.5709 60.8307 52.2042 65.2159 52.2035C67.4642 52.2032 69.2441 51.7695 70.242 51.4534C70.6381 51.3283 71.0241 51.6714 70.9463 52.08L70.4309 54.7953C70.3871 55.0271 70.2197 55.2156 69.9949 55.2872C69.0964 55.5732 66.5732 56.2455 62.7114 56.2461C53.5361 56.248 49.8131 50.97 50.3897 45.59C50.9021 40.7989 54.0718 33.7416 66.571 33.7393C68.9647 33.739 70.8796 34.1223 72.3876 34.5361Z" fill="#756479"/>
</svg>
