<svg width="24" height="24" viewBox="0 0 24 24" fill="none" xmlns="http://www.w3.org/2000/svg">
<path fill-rule="evenodd" clip-rule="evenodd" d="M11.0731 2.22614C11.4321 2.07685 11.817 2 12.2058 2C12.5946 2 12.9796 2.07685 13.3386 2.22614C13.6972 2.3753 14.0229 2.59382 14.2969 2.86917L14.2976 2.8699L14.9947 3.56692C15.266 3.83646 15.6336 3.98847 16.0161 3.98874H17.0158C17.7982 3.98874 18.5486 4.29955 19.1018 4.85278C19.655 5.40601 19.9658 6.15635 19.9658 6.93874V7.93831C19.966 8.32079 20.1174 8.68768 20.3868 8.95908L20.3876 8.9599L21.0847 9.65692L21.0858 9.65805C21.3609 9.93196 21.5793 10.2575 21.7284 10.616C21.8777 10.975 21.9546 11.3599 21.9546 11.7487C21.9546 12.1375 21.8777 12.5225 21.7284 12.8815C21.5793 13.2401 21.3608 13.5657 21.0856 13.8396L21.0847 13.8406L20.3876 14.5376C20.1181 14.809 19.966 15.1766 19.9658 15.5592V16.5587C19.9658 16.7046 19.955 16.8494 19.9338 16.992L14.0027 11.0609L15.5333 9.53033C15.8262 9.23744 15.8262 8.76256 15.5333 8.46967C15.2404 8.17678 14.7655 8.17678 14.4726 8.46967L12.9421 10.0002L6.9625 4.02072C7.10509 3.99955 7.24988 3.98874 7.39577 3.98874H8.39534C8.77781 3.98847 9.14486 3.83711 9.41623 3.56762L10.114 2.8699L10.1148 2.86915C10.3887 2.59381 10.7144 2.3753 11.0731 2.22614Z" fill="black"/>
<path fill-rule="evenodd" clip-rule="evenodd" d="M16.0163 19.5087H17.0158C17.5428 19.5087 18.0552 19.3678 18.5026 19.1067L20.9263 21.5303C21.2192 21.8232 21.694 21.8232 21.9869 21.5303C22.2798 21.2374 22.2798 20.7626 21.9869 20.4697L3.98687 2.46967C3.69398 2.17678 3.2191 2.17678 2.92621 2.46967C2.63332 2.76256 2.63332 3.23744 2.92621 3.53033L4.84783 5.45195C4.58675 5.89939 4.44577 6.4118 4.44577 6.93874V7.9385C4.4455 8.32097 4.29344 8.68853 4.02395 8.9599L3.32617 9.65768C3.05084 9.93167 2.83233 10.2573 2.68317 10.616C2.53388 10.975 2.45703 11.3599 2.45703 11.7487C2.45703 12.1375 2.53388 12.5225 2.68317 12.8815C2.83233 13.2402 3.05085 13.5658 3.3262 13.8398L3.32693 13.8406L4.02456 14.5382C4.2941 14.8096 4.4455 15.1767 4.44577 15.5592V16.5587C4.44577 17.3411 4.75657 18.0915 5.30981 18.6447C5.86304 19.1979 6.61338 19.5087 7.39577 19.5087H8.39534C8.77782 19.509 9.14471 19.6603 9.41611 19.9297L9.41693 19.9306L10.1151 20.6287C10.389 20.9039 10.7146 21.1223 11.0731 21.2713C11.4321 21.4206 11.817 21.4975 12.2058 21.4975C12.5946 21.4975 12.9796 21.4206 13.3386 21.2713C13.6971 21.1222 14.0228 20.9038 14.2967 20.6285L14.9953 19.9299C15.2667 19.6604 15.6337 19.509 16.0163 19.5087ZM14.503 15.75C13.8126 15.75 13.253 15.1904 13.253 14.5C13.253 14.3118 13.2946 14.1333 13.3691 13.9732L15.0298 15.6339C14.8697 15.7084 14.6912 15.75 14.503 15.75ZM9.50293 10.75C8.81257 10.75 8.25293 10.1904 8.25293 9.5C8.25293 9.31177 8.29453 9.13326 8.36904 8.97316L10.0298 10.6339C9.86966 10.7084 9.69115 10.75 9.50293 10.75ZM9.53326 15.5303C9.24036 15.8232 8.76549 15.8232 8.4726 15.5303C8.1797 15.2374 8.1797 14.7626 8.4726 14.4697L11.1691 11.7732L12.2298 12.8339L9.53326 15.5303Z" fill="black"/>
</svg>
