<svg width="24" height="24" viewBox="0 0 24 24" fill="none" xmlns="http://www.w3.org/2000/svg">
<g clip-path="url(#clip0_5247_1959)">
<mask id="mask0_5247_1959" style="mask-type:luminance" maskUnits="userSpaceOnUse" x="0" y="0" width="24" height="24">
<path d="M24 0H0V24H24V0Z" fill="white"/>
</mask>
<g mask="url(#mask0_5247_1959)">
<path fill-rule="evenodd" clip-rule="evenodd" d="M3.82899 2.25C3.37896 2.25 2.93104 2.4064 2.58723 2.70885C2.24032 3.01402 2.02344 3.4501 2.02344 3.92857V15.0714C2.02344 15.5499 2.24032 15.986 2.58723 16.2911C2.93104 16.5936 3.37896 16.75 3.82899 16.75H8.92394L8.61144 19.25H7.77344C7.35922 19.25 7.02344 19.5858 7.02344 20C7.02344 20.4142 7.35922 20.75 7.77344 20.75H16.7734C17.1877 20.75 17.5234 20.4142 17.5234 20C17.5234 19.5858 17.1877 19.25 16.7734 19.25H15.9356L15.6231 16.75H20.7179C21.1679 16.75 21.6158 16.5936 21.9597 16.2911C22.3066 15.986 22.5234 15.5499 22.5234 15.0714V3.92857C22.5234 3.4501 22.3066 3.01403 21.9597 2.70885C21.6158 2.4064 21.1679 2.25 20.7179 2.25H3.82899ZM3.52344 12.25H21.0234V13.75H3.52344V12.25Z" fill="black"/>
</g>
</g>
<defs>
<clipPath id="clip0_5247_1959">
<rect width="24" height="24" fill="white"/>
</clipPath>
</defs>
</svg>
