<svg width="24" height="24" viewBox="0 0 24 24" fill="none" xmlns="http://www.w3.org/2000/svg">
<path d="M20.2929 2.29289C20.6835 1.90237 21.3165 1.90237 21.707 2.29289C22.0974 2.68342 22.0975 3.31646 21.707 3.70696L3.70696 21.707C3.31646 22.0975 2.68342 22.0974 2.29289 21.707C1.90237 21.3165 1.90237 20.6835 2.29289 20.2929L20.2929 2.29289ZM20 13.9999C20.5522 14 21 14.4477 21 14.9999V19C20.9999 19.5522 20.5522 19.9999 20 20C19.4477 20 19 19.5522 19 19V17.7236C18.3211 18.5348 17.5032 19.2284 16.5751 19.7646C14.8468 20.7631 12.8379 21.1655 10.8583 20.9101C10.0533 20.8062 9.27122 20.5955 8.53119 20.288L8.21673 20.1503L8.12591 20.1035C7.68921 19.8461 7.50995 19.2945 7.7265 18.8242C7.94305 18.3539 8.47853 18.1315 8.95795 18.2959L9.05267 18.3339L9.29877 18.4414C9.87609 18.6812 10.4862 18.8457 11.1142 18.9267C12.6586 19.126 14.2258 18.812 15.5742 18.0332C16.4611 17.5208 17.2199 16.8246 17.8066 16H16C15.4477 16 15 15.5522 14.9999 14.9999C14.9999 14.4477 15.4477 13.9999 16 13.9999H20ZM5.57903 14.8662C5.81048 15.3673 5.5918 15.9615 5.09075 16.1933C4.58959 16.4249 3.99545 16.2061 3.7636 15.705L5.57903 14.8662ZM3.86223 12.0097C4.37505 11.9385 4.85149 12.2693 4.97161 12.7617L4.99016 12.8622L5.03118 13.123C5.13833 13.7281 5.32364 14.314 5.57903 14.8662L4.67083 15.2851L3.7636 15.705C3.43634 14.9975 3.19974 14.2471 3.06243 13.4716L3.00969 13.1376L3.0009 13.0361C2.98197 12.5294 3.34927 12.081 3.86223 12.0097ZM18.7793 7.6054C19.2734 7.359 19.8736 7.55949 20.1201 8.05365C20.503 8.82133 20.7774 9.64329 20.9316 10.496L20.9902 10.8632L20.999 10.9648C21.0177 11.4713 20.6505 11.9198 20.1377 11.9912C19.6249 12.0624 19.1485 11.7314 19.0283 11.2392L19.0097 11.1386L18.9638 10.8515C18.8435 10.1863 18.6288 9.54509 18.33 8.94623C18.0837 8.45206 18.2851 7.85189 18.7793 7.6054ZM7.42474 4.23626C9.15309 3.23778 11.1619 2.83531 13.1415 3.09075C13.9472 3.19471 14.7301 3.40491 15.4707 3.71282L15.7861 3.85051L15.8759 3.89837C16.3126 4.15587 16.4921 4.70735 16.2753 5.17766C16.0587 5.64779 15.5232 5.86938 15.0439 5.70501L14.9482 5.66692L14.7031 5.5595C14.1252 5.31923 13.5144 5.15528 12.8857 5.07415C11.3413 4.87487 9.77415 5.18879 8.42572 5.96771C7.53858 6.48022 6.77909 7.17599 6.19232 8.00091H7.99994L8.10247 8.0058C8.60655 8.05718 8.99994 8.48327 8.99994 9.00091C8.99975 9.51838 8.60642 9.94367 8.10247 9.99506L7.99994 10.0009H3.99993C3.44777 10.0009 3.00013 9.55303 2.99993 9.00091V5.00091C2.99993 4.44862 3.44764 4.0009 3.99993 4.0009C4.55218 4.00095 4.99993 4.44865 4.99993 5.00091V6.27532C5.6786 5.46454 6.49706 4.77223 7.42474 4.23626Z" fill="black"/>
</svg>
