<svg width="24" height="24" viewBox="0 0 24 24" fill="none" xmlns="http://www.w3.org/2000/svg">
<path fill-rule="evenodd" clip-rule="evenodd" d="M19 2.25C19.2841 2.25 19.5439 2.41095 19.6709 2.66504L21.6709 6.66504C21.7228 6.76908 21.75 6.88371 21.75 7V8C21.75 8.99456 21.3546 9.94811 20.6514 10.6514C20.3834 10.9194 20.0792 11.1427 19.75 11.3164V20.2432L21 20.25C21.4142 20.25 21.75 20.5858 21.75 21C21.75 21.4142 21.4142 21.75 21 21.75H3C2.58579 21.75 2.25 21.4142 2.25 21C2.25 20.5858 2.58579 20.25 3 20.25L4.25 20.2568V11.3164C3.92083 11.1427 3.61663 10.9194 3.34863 10.6514C2.64537 9.94811 2.25 8.99456 2.25 8V7C2.25 6.88371 2.27716 6.76908 2.3291 6.66504L4.3291 2.66504C4.45615 2.41095 4.71592 2.25 5 2.25H19ZM11 14.25C10.2707 14.25 9.57139 14.5399 9.05566 15.0557C8.53994 15.5714 8.25 16.2707 8.25 17V20.25H9.75V17C9.75 16.6685 9.88179 16.3506 10.1162 16.1162C10.3506 15.8818 10.6685 15.75 11 15.75H13C13.3315 15.75 13.6494 15.8818 13.8838 16.1162C14.1182 16.3506 14.25 16.6685 14.25 17V20.25H15.75V17C15.75 16.2707 15.4601 15.5714 14.9443 15.0557C14.4286 14.5399 13.7293 14.25 13 14.25H11ZM3.75 7.75V8C3.75 8.59674 3.98722 9.16886 4.40918 9.59082C4.83114 10.0128 5.40326 10.25 6 10.25C6.59674 10.25 7.16886 10.0128 7.59082 9.59082C8.01278 9.16886 8.25 8.59674 8.25 8V7.75H3.75ZM9.75 7.75V8C9.75 8.59674 9.98722 9.16886 10.4092 9.59082C10.8311 10.0128 11.4033 10.25 12 10.25C12.5967 10.25 13.1689 10.0128 13.5908 9.59082C14.0128 9.16886 14.25 8.59674 14.25 8V7.75H9.75ZM15.75 7.75V8C15.75 8.59674 15.9872 9.16886 16.4092 9.59082C16.8311 10.0128 17.4033 10.25 18 10.25C18.5967 10.25 19.1689 10.0128 19.5908 9.59082C20.0128 9.16886 20.25 8.59674 20.25 8V7.75H15.75Z" fill="black"/>
</svg>
