<svg width="294" height="149" viewBox="0 0 294 149" fill="none" xmlns="http://www.w3.org/2000/svg">
<path d="M160.248 99.2112C160.248 108.614 167.924 116.482 177.519 116.482V81.9404C168.116 82.1323 160.248 89.8082 160.248 99.2112Z" fill="black"/>
<path d="M293.233 38.9553V18.4222C293.233 8.25161 284.981 0 274.811 0H129.352C119.181 0 110.93 8.25161 110.93 18.4222V38.9553H293.233ZM239.693 14.5842H268.286C270.973 14.5842 273.084 16.6951 273.084 19.3817C273.084 22.0683 270.973 24.1791 268.286 24.1791H239.693C237.007 24.1791 234.896 22.0683 234.896 19.3817C234.896 16.6951 237.007 14.5842 239.693 14.5842ZM174.256 12.6653C177.902 12.6653 180.781 15.5437 180.781 19.1898C180.781 22.8359 177.902 25.7143 174.256 25.7143C170.61 25.7143 167.731 22.8359 167.731 19.1898C167.731 15.7356 170.802 12.6653 174.256 12.6653ZM155.066 12.6653C158.712 12.6653 161.591 15.5437 161.591 19.1898C161.591 22.8359 158.712 25.7143 155.066 25.7143C151.42 25.7143 148.542 22.8359 148.542 19.1898C148.542 15.7356 151.42 12.6653 155.066 12.6653ZM135.876 12.6653C139.522 12.6653 142.401 15.5437 142.401 19.1898C142.401 22.8359 139.522 25.7143 135.876 25.7143C132.23 25.7143 129.352 22.8359 129.352 19.1898C129.352 15.7356 132.23 12.6653 135.876 12.6653Z" fill="#E4E4E4"/>
<path d="M226.645 81.9404V116.482C236.048 116.482 243.915 108.614 243.915 99.2112C243.915 89.8082 236.048 82.1323 226.645 81.9404Z" fill="black"/>
<path d="M110.93 50.2772V129.723C110.93 139.894 119.181 148.145 129.352 148.145H274.811C284.981 148.145 293.233 139.894 293.233 129.723V50.2772H110.93Z" fill="#E4E4E4"/>
<path d="M205.196 104.178C205.196 101.303 202.872 99.0035 199.966 99.0035H187.374V89.9965H199.772C202.678 89.9965 205.003 87.6969 205.003 84.8223C205.003 81.9477 202.678 79.6481 199.772 79.6481H187.374V71.9826C187.374 69.2997 185.243 67 182.337 67H177.3C163.933 67 152.503 76.7735 150.179 89.4216H136.231C133.325 89.4216 131 91.7213 131 94.5958C131 97.4704 133.325 99.77 136.231 99.77H150.372C152.697 112.418 163.933 122 177.494 122H182.531C185.243 122 187.568 119.892 187.568 117.017V109.352H199.966C202.872 109.352 205.196 107.052 205.196 104.178Z" fill="white"/>
<path d="M254.015 99.5784H267.963C270.869 99.5784 273 97.2787 273 94.5958C273 91.9129 270.869 89.6132 267.963 89.6132H254.015C251.69 76.7735 240.454 67.1916 226.894 67.1916H221.857C219.145 67.1916 216.82 69.2997 216.82 72.1742V116.826C216.82 119.509 218.951 121.808 221.857 121.808H226.894C240.261 121.808 251.69 112.226 254.015 99.5784Z" fill="white"/>
<path fill-rule="evenodd" clip-rule="evenodd" d="M95.375 64.585C93.245 55.805 80.755 55.805 78.625 64.585C77.245 70.26 70.765 72.95 65.765 69.91C58.045 65.21 49.215 74.045 53.915 81.76C54.6215 82.9188 55.0444 84.228 55.1493 85.5811C55.2543 86.9342 55.0382 88.2929 54.5187 89.5467C53.9993 90.8006 53.1911 91.914 52.16 92.7964C51.1289 93.6789 49.904 94.3054 48.585 94.625C39.805 96.755 39.805 109.245 48.585 111.375C49.9028 111.695 51.1264 112.322 52.1564 113.205C53.1863 114.087 53.9935 115.2 54.5124 116.453C55.0312 117.706 55.2471 119.064 55.1424 120.416C55.0378 121.768 54.6155 123.077 53.91 124.235C49.21 131.955 58.045 140.785 65.76 136.085C66.9188 135.378 68.228 134.956 69.5811 134.851C70.9342 134.746 72.2929 134.962 73.5467 135.481C74.8006 136.001 75.914 136.809 76.7964 137.84C77.6789 138.871 78.3054 140.096 78.625 141.415C80.755 150.195 93.245 150.195 95.375 141.415C95.6955 140.097 96.3224 138.874 97.2047 137.844C98.0871 136.814 99.2001 136.007 100.453 135.488C101.706 134.969 103.064 134.753 104.416 134.858C105.768 134.962 107.077 135.384 108.235 136.09C115.955 140.79 124.785 131.955 120.085 124.24C119.378 123.081 118.956 121.772 118.851 120.419C118.746 119.066 118.962 117.707 119.481 116.453C120.001 115.199 120.809 114.086 121.84 113.204C122.871 112.321 124.096 111.695 125.415 111.375C134.195 109.245 134.195 96.755 125.415 94.625C124.097 94.3045 122.874 93.6776 121.844 92.7953C120.814 91.9129 120.007 90.7999 119.488 89.5469C118.969 88.2938 118.753 86.936 118.858 85.5839C118.962 84.2317 119.384 82.9233 120.09 81.765C124.79 74.045 115.955 65.215 108.24 69.915C107.081 70.6215 105.772 71.0444 104.419 71.1493C103.066 71.2543 101.707 71.0382 100.453 70.5187C99.1994 69.9993 98.086 69.1911 97.2036 68.16C96.3211 67.1289 95.6946 65.904 95.375 64.585ZM76.3934 113.607C73.5804 110.794 72 106.978 72 103C72 99.0218 73.5804 95.2064 76.3934 92.3934C79.2064 89.5804 83.0218 88 87 88C90.9782 88 94.7936 89.5804 97.6066 92.3934C100.42 95.2064 102 99.0218 102 103C102 106.978 100.42 110.794 97.6066 113.607C94.7936 116.42 90.9782 118 87 118C83.0218 118 79.2064 116.42 76.3934 113.607Z" fill="#FFD867"/>
<circle cx="12" cy="70" r="12" fill="#FF7FAB"/>
<circle cx="63" cy="24" r="12" fill="#39939B"/>
<circle cx="12" cy="136" r="12" fill="#1167FC"/>
</svg>
