<svg width="78" height="69" viewBox="0 0 78 69" fill="none" xmlns="http://www.w3.org/2000/svg">
<path d="M4 36H72V59C72 64.5228 67.5228 69 62 69H14C8.47715 69 4 64.5228 4 59V36Z" fill="#E4E4E4"/>
<rect y="15" width="78" height="21" rx="4" fill="white"/>
<path d="M66.1834 15.0174V5.98842C66.1834 4.1453 65.4153 2.52891 64.0191 1.44154C62.3198 0.115115 59.8679 -0.330625 57.4595 0.249303C54.6469 0.926399 48.0936 5.28665 45.3447 7.17296C43.9516 5.08306 41.5697 3.69802 38.8613 3.69802H36.9178C34.2918 3.69802 31.9768 5.0044 30.5681 6.98787C27.6794 5.01519 21.4478 0.904806 18.7238 0.249303C16.3108 -0.330625 13.8636 0.115115 12.1642 1.44154C10.7696 2.52891 10 4.1453 10 5.98842V15.0174L13.1111 15.0189H29.144L32.2551 15.0174H33.8098H41.9724H43.5272L46.6367 15.0159H63.0738L66.1834 15.0174Z" fill="#1167FC"/>
<rect x="32" y="15" width="11" height="54" fill="#1167FC"/>
</svg>
