<svg width="83" height="75" viewBox="0 0 83 75" fill="none" xmlns="http://www.w3.org/2000/svg">
<path fill-rule="evenodd" clip-rule="evenodd" d="M41.439 7.691L38.563 4.815C35.459 1.711 31.331 0 26.94 0C22.549 0 18.421 1.71 15.317 4.815L4.806 15.325C-1.602 21.734 -1.602 32.163 4.806 38.571L12.5 46.5L12.632 42.867L21.5 35C22.423 34.001 23.347 33.474 25 33.5C25.044 33.5004 25.0891 33.5006 25.1353 33.5009C26.369 33.5085 28.3277 33.5204 29.899 35.271C31.576 37.139 31.712 39.349 31.5 41C33.207 40.765 35.687 40.767 37.487 42.546C39.172 44.209 39.522 46.608 39.5 48C41.105 47.86 43.246 47.804 45.273 49.961C46.85 51.637 47.105 54.006 47 55.5C49.133 55.379 51.269 56.191 52.36 57.525C53.549 58.979 54.004 60.863 54.17 61.852C55.478 62.494 57.502 62.494 58.434 61.773C60.112 60.572 60.317 58.59 59.799 57.027L43.469 40.293C42.986 39.797 42.997 39.006 43.49 38.525C43.987 38.042 44.778 38.052 45.259 38.546L61.489 55.179C61.4965 55.1832 61.5042 55.1859 61.5119 55.1886C61.5207 55.1916 61.5295 55.1947 61.538 55.2C62.759 55.995 65.163 55.405 66.198 54.383C67.237 53.36 67.768 51.229 66.929 49.971L50.9 33.799C50.415 33.308 50.419 32.517 50.909 32.031C51.398 31.547 52.191 31.547 52.677 32.039L68.54 48.044C69.747 48.269 72.169 48.437 73.839 46.673C75.059 45.388 74.677 43.53 74.492 42.988L73.196 41.671L51.758 19.877C49.739 21.859 44.877 26.626 42.869 28.495C38.46 32.607 32.385 33.057 27.756 29.621C26.107 28.396 25.161 27.048 25.02 25.723C24.929 24.863 25.181 24.068 25.748 23.422C26.849 22.171 39.67 9.459 39.67 9.459L41.439 7.691Z" fill="#1167FC"/>
<path d="M83.0001 27.048C83.0001 22.657 81.291 18.529 78.187 15.425L67.675 4.91402C64.557 1.79602 60.407 0.0810163 56.016 0.128016C51.599 0.160016 47.408 1.94002 44.212 5.14002L41.562 7.79002L25.351 23.599C24.6534 24.7127 24.1822 27.496 27.879 29.72C32.508 33.156 38.583 32.706 42.992 28.594L51.872 20.599L74.21 42.645L75.964 40.893L78.187 38.67C81.291 35.566 83.0001 31.438 83.0001 27.048Z" fill="white"/>
<path fill-rule="evenodd" clip-rule="evenodd" d="M18.2522 53.1002C16.6978 52.8317 15.1709 52.0833 13.952 50.947C11.1135 48.1046 11.9713 44.442 12.755 42.966L21.176 34.802C22.099 33.803 23.717 33.124 25.37 33.15C26.592 33.16 28.392 33.554 30.022 35.37C31.0015 36.461 31.5112 37.6254 31.7236 38.7341C31.8075 39.1723 31.845 39.6018 31.8466 40.0147L18.2522 53.1002ZM19.5 54.7025L33.5 40.8958C34.8683 40.972 36.363 41.4125 37.61 42.645C38.8734 43.8919 39.4071 45.2337 39.5858 46.4139L25 60.6021C23.7597 60.2849 22.6175 59.6568 21.71 58.76C20.6541 57.7904 19.8931 56.2369 19.5 54.7025ZM26.787 62.1382C27.1691 63.5905 27.9506 64.9986 28.98 65.945C29.945 66.8301 31.4193 67.7305 33 68.2208L47.0803 53.63C46.9245 52.4637 46.4616 51.1925 45.396 50.06C43.8949 48.4627 42.3516 47.768 41 47.5719L26.787 62.1382ZM48.5 55.3053L35.1814 70.3857C35.8764 71.9616 37.0469 73.3954 39.165 74.105C39.595 74.248 40.506 74.5 41.642 74.5C43.038 74.5 44.775 74.121 46.376 72.699C46.5241 72.5499 46.7927 72.2982 47.1415 71.9712L47.148 71.965C50.368 68.949 52.788 66.447 53.831 64.469C53.985 64.0806 54.293 63.0333 54.293 61.951C54.127 60.962 53.672 59.078 52.483 57.624C51.6283 56.5788 50.1332 55.6153 48.5 55.3053Z" fill="white"/>
</svg>
