<svg width="98" height="78" viewBox="0 0 98 78" fill="none" xmlns="http://www.w3.org/2000/svg">
<path d="M49.2784 11.934C47.1573 11.8324 45.4386 13.2465 44.7315 15.5707C43.9229 17.9965 43.1143 20.5199 42.1065 22.9457C40.1885 27.5902 37.2588 31.5316 32.6104 33.8557C29.6807 35.2698 26.6495 35.8752 23.419 35.9768C21.3995 36.0783 19.3799 36.0783 17.3565 36.4807C7.96981 37.9924 1.30151 44.6604 0.290509 53.8517C-0.213401 57.8947 0.0912889 62.0353 0.0912889 66.0747C0.0912889 68.5005 1.90769 70.3169 4.43509 70.52C6.65779 70.6215 8.77889 68.9028 9.07959 66.5825C9.18115 65.6723 9.18115 64.6645 9.18115 63.7544V56.6841C9.18115 56.2817 9.28271 55.6724 9.78662 55.5747C10.189 55.5747 10.4936 56.0786 10.5952 56.4848C10.6968 56.7895 10.6968 57.1919 10.6968 57.4965V75.4765C10.6968 77.3945 11.3022 77.9999 13.2202 77.9999H33.0172C35.0367 77.9999 35.5406 77.3945 35.5406 75.4765V43.8595C35.5406 42.7501 35.8453 42.1407 36.8531 41.7384C40.4898 39.922 43.5211 37.3946 45.9429 34.0626C47.0523 32.547 48.064 30.9298 49.2749 29.2149C50.3281 26.6121 52.5634 20.8432 53.0791 18.5901C53.3294 17.6928 53.0004 15.8574 52.5 14.7341C51.679 13.1773 51.0575 12.0152 49.2784 11.934Z" fill="#1167FC"/>
<path d="M48.5243 11.5952C50.6454 11.4937 52.3641 12.9077 53.0712 15.2319C53.8798 17.6577 54.6884 20.1811 55.6962 22.6069C57.6142 27.2514 60.5439 31.1928 65.1923 33.5169C68.122 34.931 71.1532 35.5364 74.3837 35.638C76.4032 35.7396 78.4228 35.7396 80.4462 36.1419C89.8329 37.6536 96.5012 44.3216 97.5122 53.5129C98.0161 57.5559 97.7114 61.6965 97.7114 65.7359C97.7114 68.1617 95.895 69.9781 93.3676 70.1812C91.1449 70.2828 89.0238 68.564 88.7231 66.2437C88.6216 65.3336 88.6216 64.3257 88.6216 63.4156V56.3453C88.6216 55.943 88.52 55.3336 88.0161 55.2359C87.6138 55.2359 87.3091 55.7398 87.2075 56.1461C87.106 56.4508 87.106 56.8531 87.106 57.1578V75.1378C87.106 77.0558 86.5005 77.6612 84.5826 77.6612H64.7856C62.7661 77.6612 62.2622 77.0557 62.2622 75.1378V43.5208C62.2622 42.4114 61.9575 41.802 60.9497 41.3997C57.313 39.5833 54.2817 37.0559 51.8599 33.7239C50.7505 32.2083 49.7388 30.5911 48.5279 28.8762C47.4747 26.2733 45.2393 20.5044 44.7236 18.2513C44.4733 17.3541 44.0977 15.2788 44.5981 14.1555C45.4192 12.5987 46.7453 11.6765 48.5243 11.5952Z" fill="#1167FC"/>
<path d="M22.3086 32.844C28.0664 32.844 32.8126 28.0979 32.8126 22.539C32.8126 16.3788 28.2657 11.73 22.1056 11.73C16.2462 11.73 11.6016 16.4761 11.6016 22.335C11.6016 28.0928 16.4532 32.843 22.3086 32.843V32.844Z" fill="#1167FC"/>
<path d="M75.9454 32.844C81.9063 32.844 86.5504 28.1995 86.5504 22.34C86.4528 16.4806 81.9059 11.832 76.1484 11.832C70.289 11.832 65.5434 16.4765 65.4414 22.234C65.4414 27.9918 70.1875 32.843 75.9454 32.843V32.844Z" fill="#1167FC"/>
<path d="M49.1797 9.65203C49.652 9.65203 50.1051 9.4919 50.4422 9.15575C50.7796 8.81928 50.9414 8.36565 50.9414 7.89033V3.24583C50.9414 2.77348 50.7812 2.32041 50.4451 1.98333C50.1086 1.64593 49.655 1.48413 49.1797 1.48413C48.7073 1.48413 48.2542 1.64426 47.9172 1.98041C47.5798 2.31688 47.418 2.77051 47.418 3.24583V7.89033C47.418 8.36566 47.5798 8.8193 47.9172 9.15576C48.2543 9.49191 48.7073 9.65203 49.1797 9.65203Z" fill="#1167FC" stroke="#1167FC" stroke-width="1.5"/>
<path d="M56.1849 12.1988L56.2696 12.1564L56.3411 12.0944L60.1809 8.76242L60.2009 8.74504L60.2197 8.72629C60.81 8.13592 61.1113 7.04172 60.3212 6.25156L60.3212 6.25153C59.7361 5.66643 58.6562 5.36528 57.8677 6.12901L54.0454 9.44584L54.0254 9.46322L54.0067 9.48197C53.4169 10.0717 53.1157 11.1641 53.9024 11.9541C54.0474 12.1014 54.2225 12.2411 54.4437 12.3398C54.669 12.4403 54.9029 12.4811 55.1425 12.4811C55.5172 12.4811 55.9418 12.3203 56.1849 12.1988Z" fill="#1167FC" stroke="#1167FC" stroke-width="1.5"/>
<path d="M44.3356 9.36406L44.3531 9.38147C44.9538 9.97642 45.2447 11.0713 44.4573 11.8587L44.3356 9.36406ZM44.3356 9.36406L44.3169 9.34785M44.3356 9.36406L44.3169 9.34785M44.3169 9.34785L40.4946 6.03105C39.7093 5.27029 38.6298 5.56041 38.0399 6.15481C37.2539 6.9422 37.5449 8.03619 38.1452 8.63082L38.1592 8.64472M44.3169 9.34785L38.1592 8.64472M38.1592 8.64472L38.174 8.65786M38.1592 8.64472L38.174 8.65786M38.174 8.65786L41.8988 11.9778M38.174 8.65786L41.8988 11.9778M41.8988 11.9778C42.3204 12.3863 42.7939 12.3844 43.0764 12.3832C43.0909 12.3832 43.1049 12.3831 43.1183 12.3831C43.5746 12.3831 44.0832 12.2328 44.4572 11.8587L41.8988 11.9778Z" fill="#1167FC" stroke="#1167FC" stroke-width="1.5"/>
</svg>
