<svg width="80" height="76" viewBox="0 0 80 76" fill="none" xmlns="http://www.w3.org/2000/svg">
<path d="M51.1641 1.253C50.4414 0.58568 49.5453 0.234131 48.5689 0.234131H46.613H12C5.37258 0.234131 0 5.60671 0 12.2341V63.2301C0 69.8576 5.37258 75.2301 12 75.2301H48.4466C55.074 75.2301 60.4466 69.8576 60.4466 63.2301V13.0852V11.5325C60.4466 10.403 60.0065 9.39715 59.181 8.63547L51.1641 1.253Z" fill="white"/>
<path d="M51.2795 1.01887C50.5569 0.35155 49.6608 0 48.6843 0H46.7285V2.3437V7.9196C46.7285 10.6376 48.9127 12.851 51.5946 12.851H58.253H60.4704L60.562 11.2984C60.562 10.1688 60.122 9.16302 59.2965 8.40134L51.2795 1.01887Z" fill="#1167FC"/>
<path d="M67.2285 28.9875C67.2285 26.7806 68.9854 25 71.1632 25H75.8911C78.0688 25 79.8258 26.7837 79.8258 28.9907L79.8267 33.9544L77.5289 33.9576L69.5344 33.9544H67.229L67.2285 28.9875Z" fill="#1167FC"/>
<path d="M79.1049 66.7006C79.5963 65.7208 79.8308 64.7183 79.8308 63.6116V34L77.5242 34.0033H77.5209L69.5297 34H67.2305V63.6083C67.2305 64.7215 67.4649 65.7175 67.9564 66.6973L71.2614 73.279C72.2089 75.1669 74.8652 75.1474 75.8031 73.279L79.1049 66.7006Z" fill="#1167FC"/>
<rect x="9" y="46.2341" width="20" height="20" rx="4" fill="#1167FC"/>
<rect x="32" y="46.2341" width="20" height="20" rx="4" fill="#1167FC"/>
<path d="M16.769 58.1798L23.5277 51.5658C23.988 51.2886 25.251 50.4386 26.4049 51.5768C27.1993 52.3605 27.1993 53.6222 26.3992 54.4004L18.2048 62.4206C17.4103 63.1931 16.1277 63.1931 15.3333 62.4206L12.6037 59.7472C11.8035 58.969 11.7978 57.7073 12.5923 56.9236C13.3868 56.14 14.675 56.1344 15.4752 56.9125L16.769 58.1798Z" fill="white"/>
</svg>
