<svg width="110" height="75" viewBox="0 0 110 75" fill="none" xmlns="http://www.w3.org/2000/svg">
<g clip-path="url(#clip0_1821_5193)">
<path d="M65.1363 3C69.1285 3 72.3746 6.2422 72.3746 10.2344L66.1242 10.235C66.1242 9.69203 65.6828 9.25062 65.1359 9.25062H45.2379C44.691 9.25062 44.2496 9.69203 44.2496 10.235L38 10.2344C38 6.2461 41.2461 3 45.2383 3H65.1363Z" fill="#1167FC"/>
<path d="M17 65.055V41C18.1665 41.7135 21.0497 43.1444 23.25 43.16C23.3867 43.1639 23.5234 43.1795 23.6602 43.1795H85.3402C85.4808 43.1795 85.6136 43.1639 85.7503 43.16C87.0001 43.13 89.9997 42.656 92 41V65.055C92 70.2269 87.7969 74.43 82.625 74.43H26.375C21.2031 74.43 17 70.2269 17 65.055Z" fill="#E4E4E4"/>
<path d="M92.4996 42.07C95.3355 40.0036 97.1871 36.6716 97.1871 32.902V19.168C97.1871 14.043 93.0191 9.875 87.8941 9.875H72.1871L65.9367 9.8756H44.0617L37.8125 9.875H22.1055C16.9805 9.875 12.8125 14.043 12.8125 19.168V32.902C12.8125 36.6676 14.6637 40.0036 17.4996 42.07C18.6661 42.7835 21.5493 44.2144 23.7496 44.23C23.8863 44.2339 24.023 44.2495 24.1598 44.2495H85.8398C85.9804 44.2495 86.1132 44.2339 86.2499 44.23C87.4997 44.2 90.4993 43.726 92.4996 42.07Z" fill="white"/>
<path fill-rule="evenodd" clip-rule="evenodd" d="M46.0004 46.4988V49.6238C46.0004 52.2097 48.102 54.3113 50.6879 54.3113H60.0629C62.6488 54.3113 64.7504 52.2097 64.7504 49.6238V46.4988L64.75 40.25V38.6875C64.75 36.1016 62.6484 34 60.0625 34H50.6875C48.1016 34 46 36.1016 46 38.6875V40.25L46.0004 46.4988ZM52.2502 40.2498V48.0623H58.5002V40.2498H52.2502Z" fill="#1167FC"/>
<path d="M52.2502 48.0623V40.2498H58.5002V48.0623H52.2502Z" fill="#1167FC"/>
</g>
<defs>
<clipPath id="clip0_1821_5193">
<rect width="110" height="75" fill="white"/>
</clipPath>
</defs>
</svg>
