<svg width="86" height="74" viewBox="0 0 86 74" fill="none" xmlns="http://www.w3.org/2000/svg">
<path d="M66.9899 74C59.9818 74 53.8365 72.0969 50.4696 68.8493C50.3358 68.7164 50.2009 68.5836 50.0594 68.4276C49.2467 67.5631 48.6744 66.6186 48.3389 65.5651C48.1686 65.0914 48.0645 64.5955 48.0169 64.0595V57.9819C51.8883 61.7873 58.7046 64.166 66.9781 64.166L66.9808 64.1659L66.9865 64.166C72.6337 64.166 77.6055 63.0603 81.4293 61.1524C81.4604 61.1369 81.4951 61.1241 81.526 61.1085C81.7725 60.9839 81.9959 60.8443 82.2325 60.7132C83.6846 59.9091 84.9532 58.9866 86 57.9539V63.4789C85.9967 64.9413 85.5017 66.3138 84.6093 67.5569C81.8381 71.4115 75.1758 74 66.9899 74ZM48.0169 18.3264C52.6364 22.8618 60.5097 24.4243 66.9916 24.4243C73.5561 24.4243 81.3723 22.7825 86 18.2198V23.7515L85.9983 23.7597C85.9983 29.7569 77.8244 34.2792 66.9865 34.2792C56.2831 34.2792 48.1965 29.8547 48.0169 23.9575V18.3264ZM86 50.2262C85.9999 50.2321 85.9966 50.237 85.9966 50.2428C85.9966 50.6172 85.9647 50.9859 85.9022 51.348C85.8873 51.4337 85.8549 51.5154 85.8365 51.6004C85.7782 51.8732 85.7181 52.1458 85.6253 52.4105C84.773 54.8391 82.5011 56.9149 79.2679 58.3892C79.2513 58.3969 79.2366 58.4056 79.2199 58.4132C78.9928 58.5161 78.7466 58.6062 78.5103 58.7031C78.2605 58.8052 78.0203 58.9137 77.7606 59.0089L77.7578 59.0099C74.7339 60.1192 71.0453 60.7542 66.9823 60.7546C56.2812 60.7534 48.1965 56.3294 48.0169 50.4331V44.7418C51.8895 48.5501 58.7089 50.9307 66.9865 50.9307C75.2897 50.9307 82.1269 48.5399 86 44.7179L86 50.2262ZM66.9916 0C77.8193 0 85.9831 4.51642 85.9831 10.5328C85.9561 16.5075 77.7906 21.013 66.9916 21.013C56.2245 21.013 48.2445 16.7107 48.0152 10.7826C48.0135 10.726 48.0084 10.5627 48 10.5061C48 4.51642 56.1638 0 66.9916 0ZM66.9865 37.6904C75.2897 37.6904 82.1269 35.2996 86 31.4776V36.9918L85.9983 37C85.9983 42.9972 77.8244 47.5194 66.9865 47.5194C56.2831 47.5194 48.1965 43.0949 48.0169 37.1978V31.5016C51.8895 35.3098 58.7089 37.6904 66.9865 37.6904Z" fill="#1167FC"/>
<path d="M40.9962 51.6315C40.9962 47.007 39.54 42.734 37.0708 39.2633L34.1116 35.9198C30.4905 32.6205 25.7236 30.6171 20.4993 30.6171C14.84 30.6171 9.71345 32.9701 6.00438 36.7717C2.2953 40.5732 0 45.8262 0 51.6293C0 57.4302 2.29561 62.6828 6.00438 66.4847C8.9638 69.5182 12.8239 71.6284 17.1374 72.359L21.5239 72.6171C26.777 72.3512 31.5093 70.0609 34.9956 66.4892C38.7046 62.6875 41 57.4347 41 51.6338L40.9962 51.6315Z" fill="#1167FC"/>
<path d="M53.9962 51.6315C53.9962 47.007 52.54 42.734 50.0708 39.2633L47.1116 35.9198C43.4905 32.6205 38.7236 30.6171 33.4993 30.6171C27.84 30.6171 22.7135 32.9701 19.0044 36.7717C15.2953 40.5732 13 45.8262 13 51.6293C13 57.4302 15.2956 62.6828 19.0044 66.4847C21.9638 69.5182 25.8239 71.6284 30.1374 72.359L34.5239 72.6171C39.777 72.3512 44.5093 70.0609 47.9956 66.4892C51.7046 62.6875 54 57.4347 54 51.6338L53.9962 51.6315Z" fill="white"/>
</svg>
