<svg width="24" height="24" viewBox="0 0 24 24" fill="none" xmlns="http://www.w3.org/2000/svg">
<path fill-rule="evenodd" clip-rule="evenodd" d="M2.25 12.25C2.25 10.9696 2.50219 9.70176 2.99217 8.51884C3.48216 7.33591 4.20034 6.26108 5.10571 5.35571C6.01108 4.45034 7.08591 3.73216 8.26884 3.24217C9.45176 2.75219 10.7196 2.5 12 2.5C13.2804 2.5 14.5482 2.75219 15.7312 3.24217C16.9141 3.73216 17.9889 4.45034 18.8943 5.35571C19.7997 6.26108 20.5178 7.33591 21.0078 8.51884C21.4978 9.70176 21.75 10.9696 21.75 12.25C21.75 14.8359 20.7228 17.3158 18.8943 19.1443C17.0658 20.9728 14.5859 22 12 22C9.41414 22 6.93419 20.9728 5.10571 19.1443C3.27723 17.3158 2.25 14.8359 2.25 12.25ZM12.9141 12.5547C12.9141 13.0595 12.5048 13.4688 12 13.4688C11.4952 13.4688 11.0859 13.0595 11.0859 12.5547V8.28906C11.0859 7.78424 11.4952 7.375 12 7.375C12.5048 7.375 12.9141 7.78424 12.9141 8.28906V12.5547ZM12 14.6875C12.6731 14.6875 13.2188 15.2332 13.2188 15.9062C13.2188 16.5793 12.6731 17.125 12 17.125C11.3269 17.125 10.7812 16.5793 10.7812 15.9062C10.7812 15.2332 11.3269 14.6875 12 14.6875Z" fill="black"/>
</svg>
