<svg width="24" height="24" viewBox="0 0 24 24" fill="none" xmlns="http://www.w3.org/2000/svg">
<path fill-rule="evenodd" clip-rule="evenodd" d="M21.0667 10.9989C20.8686 9.37062 19.4699 8.14294 17.8142 8.14294H16.9911V6.94564C16.9911 5.62335 16.4721 4.38168 15.5287 3.44845C14.5852 2.51398 13.3316 2 11.9979 2C9.24412 2 7.0046 4.21939 7.0046 6.9457V8.143H6.18377C4.52798 8.143 3.12936 9.37068 2.93131 10.999L2.23405 16.3545C1.84443 19.347 4.17445 22 7.1922 22H16.8058C19.8236 22 22.1536 19.347 21.764 16.3545L21.0667 10.9989ZM11.9964 3.49501C10.0753 3.49501 8.51266 5.04272 8.51266 6.94555V8.14288L15.4813 8.14405V6.94675C15.4813 6.02394 15.1193 5.15722 14.4612 4.50542C13.8031 3.85361 12.928 3.49501 11.9964 3.49501ZM8.46798 15.2964C9.4102 16.2309 10.665 16.7449 12 16.7449C14.7537 16.7449 16.9933 14.5267 16.9933 11.798C16.9933 11.3845 16.656 11.0505 16.2386 11.0505C15.8211 11.0505 15.4838 11.3845 15.4838 11.798C15.4838 13.7009 13.9212 15.2486 12.0001 15.2486C11.0684 15.2486 10.1933 14.8912 9.53525 14.2394C8.87718 13.5876 8.51514 12.7208 8.51514 11.798C8.51514 11.3845 8.17784 11.0504 7.76036 11.0504C7.34289 11.0504 7.00559 11.3845 7.00559 11.798C7.00559 13.1203 7.52575 14.3619 8.46798 15.2964Z" fill="black"/>
</svg>
