<svg width="24" height="24" viewBox="0 0 24 24" fill="none" xmlns="http://www.w3.org/2000/svg">
<path d="M11.2855 13.438V22.0006L7 22.0005C6.20435 22.0005 5.44129 21.6844 4.87868 21.1218C4.31607 20.5592 4 19.7961 4 19.0005V14.4379C4 14.1727 4.10536 13.9183 4.29289 13.7308C4.48043 13.5433 4.73478 13.4379 5 13.4379L11.2855 13.438ZM19 13.4379C19.2652 13.4379 19.5196 13.5433 19.7071 13.7308C19.8946 13.9183 20 14.1727 20 14.4379V19.0005C20 19.7961 19.6839 20.5592 19.1213 21.1218C18.5587 21.6844 17.7956 22.0005 17 22.0005H12.7364V13.4379H19ZM16.5 2.00059C17.0905 2.00047 17.6715 2.14975 18.1888 2.43455C18.706 2.71935 19.1429 3.1304 19.4586 3.62944C19.7743 4.12848 19.9586 4.69929 19.9943 5.28871C20.03 5.87814 19.9161 6.46703 19.663 7.00056H20C20.5304 7.00056 21.0391 7.21127 21.4142 7.58635C21.7893 7.96142 22 8.47012 22 9.00055V10.0005C22 10.531 21.7893 11.0397 21.4142 11.4148C21.0391 11.7898 20.5304 12.0005 20 12.0005H12.7364V7.00056H11.2855V12.0006L4 12.0005C3.46957 12.0005 2.96086 11.7898 2.58579 11.4148C2.21071 11.0397 2 10.531 2 10.0005V9.00055C2 8.47012 2.21071 7.96142 2.58579 7.58635C2.96086 7.21127 3.46957 7.00056 4 7.00056H4.337C4.11444 6.53187 3.99931 6.01942 4 5.50057C4 3.56758 5.567 2.00059 7.483 2.00059C9.238 1.97059 10.795 3.09258 11.864 4.93457L12 5.17757C13.033 3.26358 14.56 2.06359 16.291 2.00259L16.5 2.00059ZM7.5 4.00058C7.10218 4.00058 6.72064 4.15861 6.43934 4.43991C6.15804 4.72122 6 5.10275 6 5.50057C6 5.89839 6.15804 6.27992 6.43934 6.56122C6.72064 6.84253 7.10218 7.00056 7.5 7.00056H10.643C9.902 5.09557 8.694 3.98058 7.5 4.00058ZM16.483 4.00058C15.303 3.98058 14.098 5.09657 13.357 7.00056H16.5C16.8978 6.99831 17.2785 6.83811 17.5582 6.55521C17.8379 6.27232 17.9938 5.88989 17.9915 5.49207C17.9892 5.09425 17.829 4.71361 17.5462 4.4339C17.2633 4.1542 16.8808 3.99832 16.483 4.00058Z" fill="black"/>
</svg>
