<svg width="24" height="24" viewBox="0 0 24 24" fill="none" xmlns="http://www.w3.org/2000/svg">
<path d="M3 10H21V7C21 6.16667 20.4 4.5 18 4.5V5.5C18 6.33333 17.5 8 15.5 8C13.5 8 13 6.33333 13 5.5V4.5H11V5.5C11 6.33333 10.5 8 8.5 8C6.5 8 6 6.33333 6 5.5V4.5C5.16667 4.5 3 5 3 7V10Z" fill="black"/>
<path d="M3 11.5H21V16C21 17.6667 20 21 16 21H8.5C4 21 3 17.6667 3 16V11.5Z" fill="black"/>
<path d="M8.35338 6.3642H8.65759C9.12286 6.3642 9.49864 5.98842 9.49864 5.52315V2.91263C9.49864 2.41158 9.08707 2 8.58601 2H8.42496C7.92391 2 7.51233 2.41158 7.51233 2.91263V5.52315C7.49444 5.98842 7.87023 6.3642 8.35338 6.3642Z" fill="black"/>
<path d="M15.4284 6.3642H15.7326C16.1979 6.3642 16.5737 5.98842 16.5737 5.52315V2.91263C16.5737 2.41158 16.1621 2 15.6611 2H15.5C14.9989 2 14.5874 2.41158 14.5874 2.91263V5.52315C14.5695 5.98842 14.9453 6.3642 15.4284 6.3642Z" fill="black"/>
</svg>
