<svg width="24" height="24" viewBox="0 0 24 24" fill="none" xmlns="http://www.w3.org/2000/svg">
<path d="M4 5C4 4.44772 4.44772 4 5 4H9C9.55228 4 10 4.44772 10 5V9C10 9.55228 9.55228 10 9 10H5C4.44772 10 4 9.55228 4 9V5Z" fill="black"/>
<path fill-rule="evenodd" clip-rule="evenodd" d="M3.25 5C3.25 4.0335 4.0335 3.25 5 3.25H9C9.9665 3.25 10.75 4.0335 10.75 5V9C10.75 9.9665 9.9665 10.75 9 10.75H5C4.0335 10.75 3.25 9.9665 3.25 9V5ZM5 4.75C4.86193 4.75 4.75 4.86193 4.75 5V9C4.75 9.13807 4.86193 9.25 5 9.25H9C9.13807 9.25 9.25 9.13807 9.25 9V5C9.25 4.86193 9.13807 4.75 9 4.75H5Z" fill="black"/>
<path d="M14 5C14 4.44772 14.4477 4 15 4H19C19.5523 4 20 4.44772 20 5V9C20 9.55228 19.5523 10 19 10H15C14.4477 10 14 9.55228 14 9V5Z" fill="black"/>
<path fill-rule="evenodd" clip-rule="evenodd" d="M13.25 5C13.25 4.0335 14.0335 3.25 15 3.25H19C19.9665 3.25 20.75 4.0335 20.75 5V9C20.75 9.9665 19.9665 10.75 19 10.75H15C14.0335 10.75 13.25 9.9665 13.25 9V5ZM15 4.75C14.8619 4.75 14.75 4.86193 14.75 5V9C14.75 9.13807 14.8619 9.25 15 9.25H19C19.1381 9.25 19.25 9.13807 19.25 9V5C19.25 4.86193 19.1381 4.75 19 4.75H15Z" fill="black"/>
<path d="M4 15C4 14.4477 4.44772 14 5 14H9C9.55228 14 10 14.4477 10 15V19C10 19.5523 9.55228 20 9 20H5C4.44772 20 4 19.5523 4 19V15Z" fill="black"/>
<path fill-rule="evenodd" clip-rule="evenodd" d="M3.25 15C3.25 14.0335 4.0335 13.25 5 13.25H9C9.9665 13.25 10.75 14.0335 10.75 15V19C10.75 19.9665 9.9665 20.75 9 20.75H5C4.0335 20.75 3.25 19.9665 3.25 19V15ZM5 14.75C4.86193 14.75 4.75 14.8619 4.75 15V19C4.75 19.1381 4.86193 19.25 5 19.25H9C9.13807 19.25 9.25 19.1381 9.25 19V15C9.25 14.8619 9.13807 14.75 9 14.75H5Z" fill="black"/>
<path d="M14 17C14 17.7956 14.3161 18.5587 14.8787 19.1213C15.4413 19.6839 16.2044 20 17 20C17.7956 20 18.5587 19.6839 19.1213 19.1213C19.6839 18.5587 20 17.7956 20 17C20 16.2044 19.6839 15.4413 19.1213 14.8787C18.5587 14.3161 17.7956 14 17 14C16.2044 14 15.4413 14.3161 14.8787 14.8787C14.3161 15.4413 14 16.2044 14 17Z" fill="black"/>
<path fill-rule="evenodd" clip-rule="evenodd" d="M14.3483 14.3483C15.0516 13.6451 16.0054 13.25 17 13.25C17.9946 13.25 18.9484 13.6451 19.6517 14.3483C20.3549 15.0516 20.75 16.0054 20.75 17C20.75 17.9946 20.3549 18.9484 19.6517 19.6517C18.9484 20.3549 17.9946 20.75 17 20.75C16.0054 20.75 15.0516 20.3549 14.3483 19.6517C13.6451 18.9484 13.25 17.9946 13.25 17C13.25 16.0054 13.6451 15.0516 14.3483 14.3483ZM17 14.75C16.4033 14.75 15.831 14.9871 15.409 15.409C14.9871 15.831 14.75 16.4033 14.75 17C14.75 17.5967 14.9871 18.169 15.409 18.591C15.831 19.0129 16.4033 19.25 17 19.25C17.5967 19.25 18.169 19.0129 18.591 18.591C19.0129 18.169 19.25 17.5967 19.25 17C19.25 16.4033 19.0129 15.831 18.591 15.409C18.169 14.9871 17.5967 14.75 17 14.75Z" fill="black"/>
</svg>
