<svg width="24" height="24" viewBox="0 0 24 24" fill="none" xmlns="http://www.w3.org/2000/svg">
<path d="M9.5 5.5C9.5 6.16304 9.76339 6.79893 10.2322 7.26777C10.7011 7.73661 11.337 8 12 8C12.663 8 13.2989 7.73661 13.7678 7.26777C14.2366 6.79893 14.5 6.16304 14.5 5.5C14.5 4.83696 14.2366 4.20107 13.7678 3.73223C13.2989 3.26339 12.663 3 12 3C11.337 3 10.7011 3.26339 10.2322 3.73223C9.76339 4.20107 9.5 4.83696 9.5 5.5Z" fill="black"/>
<path fill-rule="evenodd" clip-rule="evenodd" d="M9.7019 3.2019C10.3114 2.59241 11.138 2.25 12 2.25C12.862 2.25 13.6886 2.59241 14.2981 3.2019C14.9076 3.8114 15.25 4.63805 15.25 5.5C15.25 6.36195 14.9076 7.1886 14.2981 7.7981C13.6886 8.40759 12.862 8.75 12 8.75C11.138 8.75 10.3114 8.40759 9.7019 7.7981C9.09241 7.1886 8.75 6.36195 8.75 5.5C8.75 4.63805 9.09241 3.8114 9.7019 3.2019ZM12 3.75C11.5359 3.75 11.0908 3.93437 10.7626 4.26256C10.4344 4.59075 10.25 5.03587 10.25 5.5C10.25 5.96413 10.4344 6.40925 10.7626 6.73744C11.0908 7.06563 11.5359 7.25 12 7.25C12.4641 7.25 12.9092 7.06563 13.2374 6.73744C13.5656 6.40925 13.75 5.96413 13.75 5.5C13.75 5.03587 13.5656 4.59075 13.2374 4.26256C12.9092 3.93437 12.4641 3.75 12 3.75Z" fill="black"/>
<path d="M12.0019 21.368L17.0969 16.272C17.3867 15.9859 17.6171 15.6453 17.7747 15.2699C17.9324 14.8944 18.0142 14.4915 18.0155 14.0843C18.0168 13.6771 17.9376 13.2737 17.7824 12.8972C17.6272 12.5208 17.399 12.1787 17.1111 11.8908C16.8232 11.6028 16.4811 11.3747 16.1047 11.2195C15.7282 11.0643 15.3248 10.985 14.9176 10.9863C14.5104 10.9877 14.1074 11.0695 13.732 11.2272C13.3565 11.3848 13.016 11.6152 12.7299 11.905L12.0019 12.632L11.2739 11.905C10.9878 11.6152 10.6473 11.3848 10.2718 11.2272C9.8964 11.0695 9.49348 10.9877 9.08627 10.9863C8.67907 10.985 8.27563 11.0643 7.89917 11.2195C7.52271 11.3747 7.18067 11.6028 6.89274 11.8908C6.6048 12.1787 6.37665 12.5208 6.22143 12.8972C6.06621 13.2737 5.98698 13.6771 5.9883 14.0843C5.98962 14.4915 6.07146 14.8944 6.22911 15.2699C6.38677 15.6453 6.61712 15.9859 6.90691 16.272L12.0019 21.368Z" fill="black"/>
<path fill-rule="evenodd" clip-rule="evenodd" d="M7.61328 10.5261C8.08117 10.3332 8.5826 10.2347 9.0887 10.2363C9.5948 10.238 10.0956 10.3397 10.5622 10.5357C11.028 10.7312 11.4505 11.0168 11.8057 11.376L12.0019 11.572L12.1982 11.376C12.5533 11.0168 12.9759 10.7312 13.4416 10.5357C13.9082 10.3397 14.409 10.238 14.9151 10.2363C15.4212 10.2347 15.9227 10.3332 16.3905 10.5261C16.8584 10.719 17.2836 11.0026 17.6414 11.3605C17.9993 11.7183 18.2828 12.1434 18.4758 12.6113C18.6687 13.0792 18.7672 13.5806 18.7655 14.0867C18.7639 14.5929 18.6622 15.0936 18.4662 15.5603C18.2706 16.0261 17.9849 16.4487 17.6256 16.8039L12.5323 21.8982C12.3916 22.0389 12.2009 22.118 12.0019 22.118C11.803 22.118 11.6122 22.0389 11.4715 21.8982L6.37815 16.8039C6.01886 16.4487 5.73321 16.0261 5.5376 15.5603C5.34166 15.0936 5.23994 14.5929 5.2383 14.0867C5.23666 13.5806 5.33514 13.0792 5.52806 12.6113C5.72098 12.1434 6.00454 11.7183 6.36241 11.3605C6.72028 11.0026 7.14539 10.719 7.61328 10.5261ZM9.08385 11.7363C8.77555 11.7353 8.47009 11.7953 8.18506 11.9129C7.90004 12.0304 7.64107 12.2031 7.42307 12.4211C7.20506 12.6391 7.03233 12.8981 6.91481 13.1831C6.79728 13.4681 6.7373 13.7736 6.73829 14.0819C6.73929 14.3902 6.80126 14.6953 6.92062 14.9795C7.03998 15.2638 7.21439 15.5216 7.4338 15.7382L7.43731 15.7417L12.0019 20.3072L16.5665 15.7417L16.57 15.7382C16.7894 15.5216 16.9638 15.2638 17.0832 14.9795C17.2026 14.6953 17.2645 14.3902 17.2655 14.0819C17.2665 13.7736 17.2065 13.4681 17.089 13.1831C16.9715 12.8981 16.7988 12.6391 16.5808 12.4211C16.3628 12.2031 16.1038 12.0304 15.8188 11.9129C15.5337 11.7953 15.2283 11.7353 14.92 11.7363C14.6117 11.7373 14.3066 11.7993 14.0224 11.9187C13.7381 12.038 13.4803 12.2124 13.2637 12.4318L13.2599 12.4357L12.5319 13.1627C12.2391 13.4551 11.7648 13.4551 11.4719 13.1627L10.7401 12.4319C10.5236 12.2125 10.2657 12.038 9.98147 11.9187C9.69721 11.7993 9.39215 11.7373 9.08385 11.7363Z" fill="black"/>
</svg>
