<svg width="24" height="24" viewBox="0 0 24 24" fill="none" xmlns="http://www.w3.org/2000/svg">
<path fill-rule="evenodd" clip-rule="evenodd" d="M6 4.75C5.40326 4.75 4.83097 4.98705 4.40901 5.40901C3.98705 5.83097 3.75 6.40326 3.75 7V15C3.75 15.5967 3.98705 16.169 4.40901 16.591C4.83097 17.0129 5.40326 17.25 6 17.25H8C8.41421 17.25 8.75 17.5858 8.75 18V19.6754L12.6141 17.3569C12.7307 17.2869 12.8641 17.25 13 17.25H18C18.5967 17.25 19.169 17.0129 19.591 16.591C20.0129 16.169 20.25 15.5967 20.25 15V7C20.25 6.40326 20.0129 5.83097 19.591 5.40901C19.169 4.98705 18.5967 4.75 18 4.75H6ZM3.34835 4.34835C4.05161 3.64509 5.00544 3.25 6 3.25H18C18.9946 3.25 19.9484 3.64509 20.6517 4.34835C21.3549 5.05161 21.75 6.00544 21.75 7V15C21.75 15.9946 21.3549 16.9484 20.6517 17.6517C19.9484 18.3549 18.9946 18.75 18 18.75H13.2077L8.38587 21.6431C8.15417 21.7821 7.86561 21.7858 7.63048 21.6527C7.39534 21.5195 7.25 21.2702 7.25 21V18.75H6C5.00544 18.75 4.05161 18.3549 3.34835 17.6517C2.64509 16.9484 2.25 15.9946 2.25 15V7C2.25 6.00544 2.64509 5.05161 3.34835 4.34835Z" fill="black"/>
<path fill-rule="evenodd" clip-rule="evenodd" d="M8.75 9C8.75 8.58579 9.08579 8.25 9.5 8.25H9.51C9.92421 8.25 10.26 8.58579 10.26 9C10.26 9.41421 9.92421 9.75 9.51 9.75H9.5C9.08579 9.75 8.75 9.41421 8.75 9Z" fill="black"/>
<path fill-rule="evenodd" clip-rule="evenodd" d="M13.75 9C13.75 8.58579 14.0858 8.25 14.5 8.25H14.51C14.9242 8.25 15.26 8.58579 15.26 9C15.26 9.41421 14.9242 9.75 14.51 9.75H14.5C14.0858 9.75 13.75 9.41421 13.75 9Z" fill="black"/>
<path fill-rule="evenodd" clip-rule="evenodd" d="M8.97511 12.4643C9.27098 12.1744 9.74583 12.1792 10.0357 12.4751C10.2918 12.7364 10.5974 12.944 10.9347 13.0858C11.272 13.2275 11.6341 13.3005 12 13.3005C12.3659 13.3005 12.728 13.2275 13.0653 13.0858C13.4026 12.944 13.7082 12.7364 13.9643 12.4751C14.2542 12.1792 14.729 12.1744 15.0249 12.4643C15.3208 12.7542 15.3256 13.229 15.0357 13.5249C14.64 13.9288 14.1677 14.2496 13.6464 14.4686C13.1252 14.6877 12.5654 14.8005 12 14.8005C11.4346 14.8005 10.8748 14.6877 10.3536 14.4686C9.83232 14.2496 9.36 13.9288 8.96429 13.5249C8.6744 13.229 8.67924 12.7542 8.97511 12.4643Z" fill="black"/>
</svg>
