<svg width="24" height="24" viewBox="0 0 24 24" fill="none" xmlns="http://www.w3.org/2000/svg">
<path d="M5.00195 4.5C3.80926 4.5 2.73285 5.17199 2 6C2.07815 4.41283 3.39539 3 5.00195 3H9.56007C10.4715 3 11.3334 3.41427 11.9027 4.12591L12.202 4.5H5.00195Z" fill="black"/>
<path fill-rule="evenodd" clip-rule="evenodd" d="M22 10.0174C22 7.8083 20.2091 6.01744 18 6.01744H6C3.79086 6.01744 2 7.8083 2 10.0174V17.0174C2 19.2266 3.79086 21.0174 6 21.0174H18C20.2091 21.0174 22 19.2266 22 17.0174V10.0174ZM15.2823 11.2197C15.5752 11.5126 15.5752 11.9874 15.2823 12.2803L11.2823 16.2803C10.9894 16.5732 10.5145 16.5732 10.2216 16.2803L8.22162 14.2803C7.92873 13.9874 7.92873 13.5126 8.22162 13.2197C8.51452 12.9268 8.98939 12.9268 9.28228 13.2197L10.752 14.6893L14.2216 11.2197C14.5145 10.9268 14.9894 10.9268 15.2823 11.2197Z" fill="black"/>
</svg>
