<svg width="24" height="24" viewBox="0 0 24 24" fill="none" xmlns="http://www.w3.org/2000/svg">
<path fill-rule="evenodd" clip-rule="evenodd" d="M11.0691 2.22614C11.4281 2.07685 11.8131 2 12.2019 2C12.5907 2 12.9756 2.07685 13.3346 2.22614C13.6933 2.3753 14.019 2.59382 14.293 2.86917L14.2937 2.8699L14.9907 3.56692C15.2621 3.83646 15.6296 3.98847 16.0121 3.98874H17.0119C17.7943 3.98874 18.5446 4.29955 19.0978 4.85278C19.6511 5.40601 19.9619 6.15635 19.9619 6.93874V7.93831C19.9621 8.32079 20.1134 8.68768 20.3829 8.95908L20.3837 8.9599L21.0807 9.65692L21.0818 9.65805C21.357 9.93196 21.5754 10.2575 21.7245 10.616C21.8738 10.975 21.9506 11.3599 21.9506 11.7487C21.9506 12.1375 21.8738 12.5225 21.7245 12.8815C21.5753 13.2401 21.3569 13.5657 21.0816 13.8396L21.0807 13.8406L20.3837 14.5376C20.1141 14.809 19.9621 15.1766 19.9619 15.5592V16.5587C19.9619 17.3411 19.6511 18.0915 19.0978 18.6447C18.5446 19.1979 17.7943 19.5087 17.0119 19.5087H16.0123C15.6297 19.509 15.2627 19.6604 14.9913 19.9299L14.2937 20.6276L14.2928 20.6285C14.0188 20.9038 13.6932 21.1222 13.3346 21.2713C12.9756 21.4206 12.5907 21.4975 12.2019 21.4975C11.8131 21.4975 11.4281 21.4206 11.0691 21.2713C10.7106 21.1223 10.3851 20.9039 10.1112 20.6287L10.11 20.6276L9.41303 19.9306L9.41221 19.9297C9.1408 19.6603 8.77392 19.509 8.39144 19.5087H7.39187C6.60948 19.5087 5.85913 19.1979 5.3059 18.6447C4.75267 18.0915 4.44187 17.3411 4.44187 16.5587V15.5592C4.4416 15.1767 4.2902 14.8096 4.02066 14.5382L3.32303 13.8406L3.32229 13.8398C3.04695 13.5658 2.82843 13.2402 2.67927 12.8815C2.52998 12.5225 2.45312 12.1375 2.45312 11.7487C2.45312 11.3599 2.52998 10.975 2.67927 10.616C2.82842 10.2573 3.04694 9.93167 3.32227 9.65768L3.32303 9.65692L4.02005 8.9599C4.28953 8.68853 4.4416 8.32097 4.44187 7.9385V6.93874C4.44187 6.15635 4.75267 5.40601 5.3059 4.85278C5.85913 4.29955 6.60948 3.98874 7.39187 3.98874H8.39144C8.7739 3.98847 9.14095 3.83711 9.41233 3.56762L10.11 2.8699L10.1108 2.86915C10.3848 2.59381 10.7105 2.3753 11.0691 2.22614ZM15.5294 8.46967C15.8222 8.76256 15.8222 9.23744 15.5294 9.53033L9.52935 15.5303C9.23646 15.8232 8.76159 15.8232 8.46869 15.5303C8.1758 15.2374 8.1758 14.7626 8.46869 14.4697L14.4687 8.46967C14.7616 8.17678 15.2365 8.17678 15.5294 8.46967ZM14.499 13.25C13.8087 13.25 13.249 13.8096 13.249 14.5C13.249 15.1904 13.8087 15.75 14.499 15.75C15.1894 15.75 15.749 15.1904 15.749 14.5C15.749 13.8096 15.1894 13.25 14.499 13.25ZM8.24902 9.5C8.24902 8.80964 8.80867 8.25 9.49902 8.25C10.1894 8.25 10.749 8.80964 10.749 9.5C10.749 10.1904 10.1894 10.75 9.49902 10.75C8.80867 10.75 8.24902 10.1904 8.24902 9.5Z" fill="black"/>
</svg>
