<svg width="24" height="24" viewBox="0 0 24 24" fill="none" xmlns="http://www.w3.org/2000/svg">
<path fill-rule="evenodd" clip-rule="evenodd" d="M2.92231 2.46967C3.2152 2.17678 3.69007 2.17678 3.98297 2.46967L5.90446 4.39116L9.7997 8.2864L10.7126 9.19933L12.2258 10.7125L13.2865 11.7732L14.7997 13.2864L15.7126 14.1993L19.5594 18.0462L21.983 20.4697C22.2759 20.7626 22.2759 21.2374 21.983 21.5303C21.6901 21.8232 21.2152 21.8232 20.9223 21.5303L2.92231 3.53033C2.62941 3.23744 2.62941 2.76256 2.92231 2.46967Z" fill="black"/>
<path fill-rule="evenodd" clip-rule="evenodd" d="M11.0691 2.22614C11.4281 2.07685 11.8131 2 12.2019 2C12.5907 2 12.9756 2.07685 13.3346 2.22614C13.6933 2.3753 14.019 2.59382 14.293 2.86917L14.2937 2.8699L14.9907 3.56692C15.2621 3.83646 15.6296 3.98847 16.0121 3.98874H17.0119C17.7943 3.98874 18.5446 4.29955 19.0978 4.85278C19.6511 5.40601 19.9619 6.15635 19.9619 6.93874V7.93831C19.9621 8.32079 20.1134 8.68768 20.3829 8.95908L20.3837 8.9599L21.0807 9.65692L21.0818 9.65805C21.357 9.93196 21.5754 10.2575 21.7245 10.616C21.8738 10.975 21.9506 11.3599 21.9506 11.7487C21.9506 12.1375 21.8738 12.5225 21.7245 12.8815C21.5753 13.2401 21.3569 13.5657 21.0816 13.8396L21.0807 13.8406L20.3837 14.5376C20.1141 14.809 19.9621 15.1766 19.9619 15.5592V16.5587C19.9619 16.7046 19.9511 16.8494 19.9299 16.992L13.9988 11.0609L15.5294 9.53033C15.8222 9.23744 15.8222 8.76256 15.5294 8.46967C15.2365 8.17678 14.7616 8.17678 14.4687 8.46967L12.9381 10.0002L6.9586 4.02072C7.10119 3.99955 7.24597 3.98874 7.39187 3.98874H8.39144C8.7739 3.98847 9.14095 3.83711 9.41233 3.56762L10.11 2.8699L10.1108 2.86915C10.3848 2.59381 10.7105 2.3753 11.0691 2.22614ZM13.2865 11.7732L9.52935 15.5303C9.23646 15.8232 8.76159 15.8232 8.46869 15.5303C8.1758 15.2374 8.1758 14.7626 8.46869 14.4697L12.2258 10.7125L10.7126 9.19933C10.7364 9.29564 10.749 9.39635 10.749 9.5C10.749 10.1904 10.1894 10.75 9.49902 10.75C8.80867 10.75 8.24902 10.1904 8.24902 9.5C8.24902 8.80964 8.80867 8.25 9.49902 8.25C9.60268 8.25 9.70339 8.26262 9.7997 8.2864L5.90446 4.39116C5.68779 4.51766 5.48636 4.67232 5.3059 4.85278C4.75267 5.40601 4.44187 6.15635 4.44187 6.93874V7.9385C4.4416 8.32097 4.28953 8.68853 4.02005 8.9599L3.32303 9.65692L3.32227 9.65768C3.04694 9.93167 2.82842 10.2573 2.67927 10.616C2.52998 10.975 2.45312 11.3599 2.45312 11.7487C2.45312 12.1375 2.52998 12.5225 2.67927 12.8815C2.82843 13.2402 3.04695 13.5658 3.32229 13.8398L3.32303 13.8406L4.02066 14.5382C4.2902 14.8096 4.4416 15.1767 4.44187 15.5592V16.5587C4.44187 17.3411 4.75267 18.0915 5.3059 18.6447C5.85913 19.1979 6.60948 19.5087 7.39187 19.5087H8.39144C8.77392 19.509 9.1408 19.6603 9.41221 19.9297L9.41303 19.9306L10.11 20.6276L10.1112 20.6287C10.3851 20.9039 10.7106 21.1223 11.0691 21.2713C11.4281 21.4206 11.8131 21.4975 12.2019 21.4975C12.5907 21.4975 12.9756 21.4206 13.3346 21.2713C13.6932 21.1222 14.0188 20.9038 14.2928 20.6285L14.2937 20.6276L14.9913 19.9299C15.2627 19.6604 15.6297 19.509 16.0123 19.5087H17.0119C17.7943 19.5087 18.5446 19.1979 19.0978 18.6447C19.2783 18.4643 19.433 18.2628 19.5594 18.0462L15.7126 14.1993C15.7364 14.2956 15.749 14.3963 15.749 14.5C15.749 15.1904 15.1894 15.75 14.499 15.75C13.8087 15.75 13.249 15.1904 13.249 14.5C13.249 13.8096 13.8087 13.25 14.499 13.25C14.6027 13.25 14.7034 13.2626 14.7997 13.2864L13.2865 11.7732Z" fill="black"/>
</svg>
