<svg width="24" height="24" viewBox="0 0 24 24" fill="none" xmlns="http://www.w3.org/2000/svg">
<path fill-rule="evenodd" clip-rule="evenodd" d="M4 4.75C3.9337 4.75 3.87011 4.77634 3.82322 4.82322C3.77634 4.87011 3.75 4.9337 3.75 5V15C3.75 15.0663 3.77634 15.1299 3.82322 15.1768C3.87011 15.2237 3.9337 15.25 4 15.25H12C12.4142 15.25 12.75 15.5858 12.75 16C12.75 16.4142 12.4142 16.75 12 16.75H4C3.53587 16.75 3.09075 16.5656 2.76256 16.2374C2.43437 15.9092 2.25 15.4641 2.25 15V5C2.25 4.53587 2.43437 4.09075 2.76256 3.76256C3.09075 3.43437 3.53587 3.25 4 3.25H20C20.4641 3.25 20.9092 3.43437 21.2374 3.76256C21.5656 4.09075 21.75 4.53587 21.75 5V13C21.75 13.4142 21.4142 13.75 21 13.75C20.5858 13.75 20.25 13.4142 20.25 13V5C20.25 4.93369 20.2237 4.87011 20.1768 4.82322C20.1299 4.77634 20.0663 4.75 20 4.75H4Z" fill="black"/>
<path fill-rule="evenodd" clip-rule="evenodd" d="M21.5303 16.4697C21.8232 16.7626 21.8232 17.2374 21.5303 17.5303L17.5303 21.5303C17.2374 21.8232 16.7626 21.8232 16.4697 21.5303L14.4697 19.5303C14.1768 19.2374 14.1768 18.7626 14.4697 18.4697C14.7626 18.1768 15.2374 18.1768 15.5303 18.4697L17 19.9393L20.4697 16.4697C20.7626 16.1768 21.2374 16.1768 21.5303 16.4697Z" fill="black"/>
<path fill-rule="evenodd" clip-rule="evenodd" d="M6.25 20C6.25 19.5858 6.58579 19.25 7 19.25H11C11.4142 19.25 11.75 19.5858 11.75 20C11.75 20.4142 11.4142 20.75 11 20.75H7C6.58579 20.75 6.25 20.4142 6.25 20Z" fill="black"/>
<path fill-rule="evenodd" clip-rule="evenodd" d="M9 15.25C9.41421 15.25 9.75 15.5858 9.75 16V20C9.75 20.4142 9.41421 20.75 9 20.75C8.58579 20.75 8.25 20.4142 8.25 20V16C8.25 15.5858 8.58579 15.25 9 15.25Z" fill="black"/>
</svg>
