<svg width="24" height="24" viewBox="0 0 24 24" fill="none" xmlns="http://www.w3.org/2000/svg">
<path fill-rule="evenodd" clip-rule="evenodd" d="M16.5499 4.25C15.7014 4.25 14.8877 4.58697 14.2876 5.1868L13.162 6.3084L17.6917 10.838L18.8127 9.71292L18.8135 9.71217C19.4131 9.1121 19.75 8.29847 19.75 7.4501C19.75 6.60138 19.4128 5.78742 18.8127 5.18729C18.2126 4.58715 17.3986 4.25 16.5499 4.25ZM16.628 11.9055L12.092 7.37454L4.47062 14.9688C4.32939 15.1095 4.25 15.3007 4.25 15.5V19C4.25 19.4142 4.58579 19.75 5 19.75H8.49997C8.69935 19.75 8.89052 19.6706 9.03125 19.5294L16.628 11.9055Z" fill="black"/>
</svg>
