<svg width="24" height="24" viewBox="0 0 24 24" fill="none" xmlns="http://www.w3.org/2000/svg">
<path d="M9.78484 6L11.3766 7.59173L16.4136 12.6287L17.9998 14.215L15.9458 16.269C15.4104 16.8259 14.7692 17.2704 14.0599 17.5765C13.3505 17.8827 12.5873 18.0442 11.8147 18.0518C11.0422 18.0594 10.2759 17.9128 9.56071 17.6207C8.84551 17.3285 8.19575 16.8967 7.64946 16.3504C7.10317 15.8041 6.67132 15.1543 6.37917 14.4391C6.08703 13.7239 5.94046 12.9576 5.94803 12.1851C5.95561 11.4126 6.11719 10.6493 6.4233 9.93997C6.72942 9.23063 7.17394 8.58947 7.73084 8.054L9.78484 6Z" fill="black"/>
<path fill-rule="evenodd" clip-rule="evenodd" d="M15.5327 3.47201C15.8243 3.76618 15.8222 4.24105 15.528 4.53266L12.4396 7.59406L16.4104 11.5649L19.4666 8.47279C19.7577 8.17818 20.2326 8.1754 20.5272 8.46657C20.8218 8.75775 20.8246 9.23261 20.5334 9.52721L17.4711 12.6256L18.5302 13.6847C18.6708 13.8253 18.7498 14.0161 18.7498 14.215C18.7498 14.4139 18.6708 14.6047 18.5302 14.7453L16.4812 16.7943C15.8777 17.4205 15.1556 17.9205 14.357 18.2651C13.5561 18.6108 12.6944 18.7932 11.8221 18.8018C10.9498 18.8103 10.0846 18.6448 9.2771 18.315C8.70206 18.0801 8.16449 17.7652 7.67989 17.3806L4.53034 20.5303C4.23746 20.8232 3.76258 20.8232 3.46968 20.5303C3.17678 20.2375 3.17677 19.7626 3.46966 19.4697L6.61923 16.32C6.23465 15.8354 5.91976 15.2978 5.68487 14.7227C5.35501 13.9152 5.18951 13.05 5.19807 12.1777C5.20662 11.3055 5.38906 10.4437 5.73469 9.64279C6.07933 8.84421 6.57932 8.12216 7.20555 7.51863L9.25451 5.46967C9.5474 5.17678 10.0223 5.17678 10.3152 5.46967L11.3789 6.53339L14.472 3.46734C14.7662 3.17574 15.2411 3.17783 15.5327 3.47201ZM9.78484 7.06066L8.26117 8.58433L8.25066 8.59463C7.76565 9.06098 7.37852 9.61937 7.11192 10.2371C6.84531 10.8549 6.7046 11.5196 6.698 12.1925C6.6914 12.8653 6.81905 13.5326 7.07348 14.1555C7.32792 14.7784 7.70402 15.3443 8.17979 15.82C8.65556 16.2958 9.22144 16.6719 9.84432 16.9264C10.4672 17.1808 11.1346 17.3084 11.8074 17.3018C12.4802 17.2952 13.1449 17.1545 13.7627 16.8879C14.3805 16.6213 14.9389 16.2342 15.4052 15.7492L15.4155 15.7387L16.9392 14.215L9.78484 7.06066Z" fill="black"/>
</svg>
