<svg width="24" height="24" viewBox="0 0 24 24" fill="none" xmlns="http://www.w3.org/2000/svg">
<path d="M3.82899 3.75001C3.71912 3.75001 3.63008 3.78927 3.57798 3.8351C3.52897 3.87822 3.52344 3.91451 3.52344 3.92859V12.2501H21.0234V3.92859C21.0234 3.91451 21.0179 3.87822 20.9689 3.8351C20.9168 3.78927 20.8278 3.75001 20.7179 3.75001H3.82899Z" fill="black"/>
<path fill-rule="evenodd" clip-rule="evenodd" d="M3.82899 2.25C3.37896 2.25 2.93104 2.4064 2.58723 2.70886C2.24032 3.01403 2.02344 3.45011 2.02344 3.92859V15.0715C2.02344 15.55 2.24032 15.9861 2.58723 16.2913C2.93104 16.5937 3.37896 16.7501 3.82899 16.7501H8.92394H15.6231H20.7179C21.1679 16.7501 21.6158 16.5937 21.9597 16.2913C22.3066 15.9861 22.5234 15.55 22.5234 15.0715V3.92859C22.5234 3.45011 22.3066 3.01403 21.9597 2.70886C21.6158 2.4064 21.1679 2.25 20.7179 2.25H3.82899ZM3.82899 3.75001C3.71912 3.75001 3.63008 3.78927 3.57798 3.8351C3.52897 3.87822 3.52344 3.91451 3.52344 3.92859V12.2501V13.7501V15.0715C3.52344 15.0856 3.52897 15.1219 3.57798 15.165C3.63008 15.2109 3.71912 15.2501 3.82899 15.2501H20.7179C20.8278 15.2501 20.9168 15.2108 20.9689 15.165C21.0179 15.1219 21.0234 15.0856 21.0234 15.0715V13.7501V12.2501V3.92859C21.0234 3.91451 21.0179 3.87822 20.9689 3.8351C20.9168 3.78927 20.8278 3.75001 20.7179 3.75001H3.82899Z" fill="black"/>
<path d="M3.52344 15.0715C3.52344 15.0856 3.52897 15.1219 3.57798 15.165C3.63008 15.2109 3.71912 15.2501 3.82899 15.2501H20.7179C20.8278 15.2501 20.9168 15.2108 20.9689 15.165C21.0179 15.1219 21.0234 15.0856 21.0234 15.0715V13.7501H3.52344V15.0715Z" fill="black"/>
<path fill-rule="evenodd" clip-rule="evenodd" d="M7.02344 20.0002C7.02344 19.5859 7.35922 19.2501 7.77344 19.2501H8.61144H10.1231H14.4239H15.9356H16.7734C17.1877 19.2501 17.5234 19.5859 17.5234 20.0002C17.5234 20.4144 17.1877 20.7502 16.7734 20.7502H7.77344C7.35922 20.7502 7.02344 20.4144 7.02344 20.0002Z" fill="black"/>
<path d="M8.61144 19.2501H10.1231H14.4239H15.9356L15.6231 16.7501H8.92394L8.61144 19.2501Z" fill="black"/>
</svg>
