<svg width="24" height="24" viewBox="0 0 24 24" fill="none" xmlns="http://www.w3.org/2000/svg">
<path fill-rule="evenodd" clip-rule="evenodd" d="M17.4873 3.7435C17.9633 4.21955 18.2308 4.86522 18.2308 5.53846V7.61538V9V19.6154H20.3077C20.69 19.6154 21 19.9253 21 20.3077C21 20.69 20.69 21 20.3077 21H3.69231C3.30996 21 3 20.69 3 20.3077C3 19.9253 3.30996 19.6154 3.69231 19.6154H5.76923V5.53846C5.76923 4.86522 6.03667 4.21955 6.51273 3.7435C6.98878 3.26744 7.63445 3 8.30769 3H15.6923C16.3655 3 17.0112 3.26744 17.4873 3.7435ZM11.9017 8.82947C12.1616 8.56218 12.589 8.55616 12.8562 8.81603L15.1705 11.066C15.3012 11.1931 15.375 11.3677 15.375 11.55C15.375 11.7323 15.3012 11.9069 15.1705 12.034L12.8562 14.284C12.589 14.5438 12.1616 14.5378 11.9017 14.2705C11.6419 14.0032 11.6479 13.5759 11.9152 13.316L13.0374 12.225H9.3C8.92721 12.225 8.625 11.9228 8.625 11.55C8.625 11.1772 8.92721 10.875 9.3 10.875H13.0374L11.9152 9.78397C11.6479 9.52411 11.6419 9.09676 11.9017 8.82947Z" fill="black"/>
</svg>
