<svg width="24" height="24" viewBox="0 0 24 24" fill="none" xmlns="http://www.w3.org/2000/svg">
<path fill-rule="evenodd" clip-rule="evenodd" d="M2.35688 11.6141C4.84664 7.46452 8.05833 5.25 12 5.25C15.9417 5.25 19.1534 7.46452 21.6431 11.6141C21.7856 11.8516 21.7856 12.1484 21.6431 12.3859C19.1534 16.5355 15.9417 18.75 12 18.75C8.05833 18.75 4.84664 16.5355 2.35688 12.3859C2.21437 12.1484 2.21437 11.8516 2.35688 11.6141ZM12 16C14.2091 16 16 14.2091 16 12C16 9.79086 14.2091 8 12 8C9.79086 8 8 9.79086 8 12C8 14.2091 9.79086 16 12 16ZM14 12C14 13.1046 13.1046 14 12 14C10.8954 14 10 13.1046 10 12C10 10.8954 10.8954 10 12 10C13.1046 10 14 10.8954 14 12Z" fill="black"/>
</svg>
