<?xml version="1.0" encoding="utf-8"?>
<!-- Generator: Adobe Illustrator 24.2.0, SVG Export Plug-In . SVG Version: 6.00 Build 0)  -->
<svg version="1.1" id="Layer_1" xmlns="http://www.w3.org/2000/svg" xmlns:xlink="http://www.w3.org/1999/xlink" x="0px" y="0px"
	 viewBox="0 0 24 24" style="enable-background:new 0 0 24 24;" xml:space="preserve">
<style type="text/css">
	.st0{fill-rule:evenodd;clip-rule:evenodd;}
</style>
<path class="st0" d="M20.3,8.6c-0.5-1.1-1.1-2.1-2-2.9c-0.8-0.8-1.8-1.5-2.9-2C14.3,3.2,13.2,3,12,3S9.7,3.2,8.6,3.7
	c-1.1,0.5-2.1,1.1-2.9,2c-0.8,0.8-1.5,1.8-2,2.9C3.2,9.6,3,10.8,3,12c0,1.2,0.2,2.4,0.7,3.5c0.5,1.1,1.1,2.1,2,2.9
	c0.8,0.8,1.8,1.5,2.9,2C9.7,20.8,10.8,21,12,21s2.3-0.2,3.4-0.7c1.1-0.5,2.1-1.1,2.9-2c0.8-0.8,1.5-1.8,2-2.9
	c0.5-1.1,0.7-2.3,0.7-3.5C21,10.8,20.8,9.6,20.3,8.6z M9,9.2L9,9.2c0.4,0,0.8,0.3,0.8,0.8c0,0.4-0.3,0.8-0.8,0.8h0
	c-0.4,0-0.8-0.3-0.8-0.8C8.2,9.6,8.6,9.2,9,9.2z M15,15.7H9c-0.4,0-0.8-0.3-0.8-0.8c0-0.4,0.3-0.8,0.8-0.8h6c0.4,0,0.8,0.3,0.8,0.8
	C15.8,15.4,15.4,15.7,15,15.7z M15,10.7L15,10.7c-0.4,0-0.8-0.3-0.8-0.8c0-0.4,0.3-0.8,0.8-0.8h0c0.4,0,0.8,0.3,0.8,0.8
	C15.8,10.4,15.4,10.7,15,10.7z"/>
</svg>
