<svg width="24" height="24" viewBox="0 0 24 24" fill="none" xmlns="http://www.w3.org/2000/svg">
<path d="M3.44697 18.9673C3.19902 19.4592 3.39465 20.0615 3.89784 20.2857C6.37291 21.3887 9.13195 22.0008 11.9985 22.0008C14.7883 22.005 17.545 21.4195 20.0964 20.2853C20.6006 20.0612 20.7973 19.458 20.549 18.9652L19.2936 16.4746C19.224 16.5667 19.132 16.644 19.0208 16.6975C16.8911 17.7228 14.5572 18.2537 12.1936 18.2507C9.7059 18.2541 7.25308 17.6659 5.03748 16.5347C4.93349 16.4816 4.84718 16.4076 4.78106 16.3204L3.44697 18.9673Z" fill="black"/>
<path fill-rule="evenodd" clip-rule="evenodd" d="M5.71958 15.1988C7.72364 16.222 9.9423 16.754 12.1925 16.7507H12.1945C14.3326 16.7536 16.4437 16.2734 18.3702 15.346C18.4726 15.2967 18.5807 15.2727 18.6873 15.2716L12.8915 3.77257C12.5219 3.03935 11.4751 3.03935 11.1055 3.77257L5.38779 15.1166C5.49974 15.1179 5.61311 15.1444 5.71958 15.1988ZM13.4985 11.5009C14.3269 11.5009 14.9985 10.8293 14.9985 10.0009C14.9985 9.17244 14.3269 8.50087 13.4985 8.50087C12.6701 8.50087 11.9985 9.17244 11.9985 10.0009C11.9985 10.8293 12.6701 11.5009 13.4985 11.5009ZM9.84442 15.2716C10.6728 15.2716 11.3444 14.6 11.3444 13.7716C11.3444 12.9432 10.6728 12.2716 9.84442 12.2716C9.01599 12.2716 8.34442 12.9432 8.34442 13.7716C8.34442 14.6 9.01599 15.2716 9.84442 15.2716Z" fill="black"/>
</svg>
