<svg width="24" height="24" viewBox="0 0 24 24" fill="none" xmlns="http://www.w3.org/2000/svg">
<path fill-rule="evenodd" clip-rule="evenodd" d="M18.6 3C19.7289 3 20.8146 3.44374 21.6325 4.23944C22.4504 5.03514 22.9381 6.12192 22.9945 7.275L23 7.5V16.5C23 17.6545 22.5661 18.7649 21.7881 19.6014C21.0101 20.4379 19.9475 20.9366 18.82 20.9944L18.6 21H5.4C4.27113 21 3.18545 20.5563 2.36751 19.7606C1.54957 18.9649 1.06194 17.8781 1.0055 16.725L1 16.5V7.5C0.999999 6.34548 1.43388 5.23512 2.2119 4.39859C2.98991 3.56206 4.05255 3.06335 5.18 3.00563L5.4 3H18.6ZM6.68292 15.683H6.42857C5.67712 15.683 4.85093 15.3152 4.22633 14.7998C3.60095 14.2837 3 13.468 3 12.4479C3 10.7957 4.17583 9.21879 5.77665 9.21286C6.90018 9.19246 7.79947 9.91195 8.43675 10.8564C8.64193 11.1605 8.82988 11.5008 9 11.8721C9.17012 11.5008 9.35807 11.1605 9.56325 10.8564C10.2005 9.91195 11.0998 9.19246 12.2233 9.21286C13.8242 9.21879 15 10.7957 15 12.4479C15 13.468 14.3991 14.2837 13.7737 14.7998C13.1491 15.3152 12.3229 15.683 11.5714 15.683H11.3171L13.5578 17.6601C13.9172 17.9773 13.9589 18.5343 13.6508 18.9043C13.3427 19.2743 12.8016 19.3171 12.4422 19L9 15.9628L5.55782 19C5.1984 19.3171 4.65728 19.2743 4.34921 18.9043C4.04113 18.5343 4.08276 17.9773 4.44218 17.6601L6.68292 15.683Z" fill="black"/>
<path d="M11.5714 13.9183H10.0857C10.3274 13.0554 10.6344 12.3623 10.9712 11.8631C11.4408 11.1671 11.8737 10.9704 12.1963 10.9773L12.2143 10.9775C12.6377 10.9775 13.2857 11.5059 13.2857 12.4479C13.2857 12.7266 13.1082 13.0872 12.7014 13.4229C12.2939 13.7591 11.8344 13.9183 11.5714 13.9183Z" fill="black"/>
<path d="M5.80372 10.9773C6.12631 10.9704 6.55915 11.1671 7.02878 11.8631C7.36561 12.3623 7.6726 13.0554 7.9143 13.9183H6.42857C6.1656 13.9183 5.70607 13.7591 5.29856 13.4229C4.89184 13.0872 4.71429 12.7266 4.71429 12.4479C4.71429 11.5059 5.3623 10.9775 5.78571 10.9775L5.80372 10.9773Z" fill="black"/>
</svg>
