<svg width="24" height="24" viewBox="0 0 24 24" fill="none" xmlns="http://www.w3.org/2000/svg">
<path fill-rule="evenodd" clip-rule="evenodd" d="M5.25 11.1992C5.66421 11.1992 6 11.535 6 11.9492V17.9491C6 19.1917 7.00736 20.1991 8.25 20.1991H16.6498C17.8925 20.1991 18.8998 19.1917 18.8998 17.9491V11.9492C18.8998 11.535 19.2356 11.1992 19.6498 11.1992C20.064 11.1992 20.3998 11.535 20.3998 11.9492V17.9491C20.3998 20.0202 18.7209 21.6991 16.6498 21.6991H8.25C6.17894 21.6991 4.5 20.0202 4.5 17.9491V11.9492C4.5 11.535 4.83579 11.1992 5.25 11.1992Z" fill="black"/>
<path fill-rule="evenodd" clip-rule="evenodd" d="M2.69922 9.69919C2.69922 8.04235 4.04235 6.69922 5.69919 6.69922H19.199C20.8559 6.69922 22.199 8.04235 22.199 9.69919C22.199 11.356 20.8559 12.6992 19.199 12.6992H5.69919C4.04236 12.6992 2.69922 11.356 2.69922 9.69919ZM5.69919 8.19922C4.87078 8.19922 4.19922 8.87078 4.19922 9.69919C4.19922 10.5276 4.87078 11.1992 5.69919 11.1992H19.199C20.0274 11.1992 20.699 10.5276 20.699 9.69919C20.699 8.87078 20.0274 8.19922 19.199 8.19922H5.69919Z" fill="black"/>
<path fill-rule="evenodd" clip-rule="evenodd" d="M12.4492 6.69922C12.8634 6.69922 13.1992 7.03501 13.1992 7.44922V20.9491C13.1992 21.3633 12.8634 21.6991 12.4492 21.6991C12.035 21.6991 11.6992 21.3633 11.6992 20.9491V7.44922C11.6992 7.03501 12.035 6.69922 12.4492 6.69922Z" fill="black"/>
<path fill-rule="evenodd" clip-rule="evenodd" d="M8.39841 3.69922C8.00059 3.69922 7.61907 3.85725 7.33777 4.13855C7.05647 4.41985 6.89844 4.80137 6.89844 5.19919C6.89844 5.59701 7.05647 5.97853 7.33777 6.25983C7.61907 6.54113 8.00059 6.69916 8.39841 6.69916H11.452C11.3308 6.35652 11.1652 5.95645 10.9475 5.56063C10.3726 4.51546 9.55632 3.69922 8.39841 3.69922ZM12.4484 7.44916C13.1838 7.30208 13.1837 7.30182 13.1837 7.30154L13.1832 7.29931L13.1823 7.29489L13.1795 7.28121C13.1771 7.26997 13.1738 7.25452 13.1695 7.23515C13.1608 7.19643 13.1482 7.14193 13.1311 7.0739C13.0972 6.93801 13.0456 6.74721 12.9735 6.51963C12.8302 6.06716 12.6018 5.45594 12.2618 4.83775C11.5991 3.63295 10.3905 2.19922 8.39841 2.19922C7.60277 2.19922 6.83971 2.51529 6.27711 3.07789C5.71451 3.64049 5.39844 4.40355 5.39844 5.19919C5.39844 5.99483 5.71451 6.75789 6.27711 7.32049C6.83971 7.8831 7.60277 8.19916 8.39841 8.19916H12.4484C12.6731 8.19916 12.8859 8.09842 13.0284 7.92466C13.1708 7.75089 13.2278 7.52187 13.1837 7.30154L12.4484 7.44916Z" fill="black"/>
<path fill-rule="evenodd" clip-rule="evenodd" d="M12.6358 4.83775C13.2984 3.63295 14.5071 2.19922 16.4992 2.19922C17.2948 2.19922 18.0579 2.51529 18.6205 3.07789C19.1831 3.64049 19.4991 4.40355 19.4991 5.19919C19.4991 5.99483 19.1831 6.75789 18.6205 7.32049C18.0579 7.8831 17.2948 8.19916 16.4992 8.19916H12.4492C12.2245 8.19916 12.0117 8.09842 11.8692 7.92466C11.7268 7.75089 11.6697 7.52241 11.7138 7.30208L12.4492 7.44916C11.7138 7.30208 11.7137 7.30235 11.7138 7.30208L11.7143 7.29931L11.7152 7.29489L11.7181 7.28121C11.7205 7.26997 11.7238 7.25452 11.7281 7.23515C11.7368 7.19643 11.7494 7.14193 11.7664 7.0739C11.8004 6.93801 11.852 6.74721 11.9241 6.51963C12.0673 6.06716 12.2958 5.45594 12.6358 4.83775ZM13.4456 6.69916H16.4992C16.897 6.69916 17.2785 6.54113 17.5598 6.25983C17.8411 5.97853 17.9991 5.59701 17.9991 5.19919C17.9991 4.80137 17.8411 4.41985 17.5598 4.13855C17.2785 3.85725 16.897 3.69922 16.4992 3.69922C15.3413 3.69922 14.525 4.51546 13.9501 5.56063C13.7324 5.95645 13.5668 6.35652 13.4456 6.69916Z" fill="black"/>
</svg>
