<svg width="24" height="24" viewBox="0 0 24 24" fill="none" xmlns="http://www.w3.org/2000/svg">
<path fill-rule="evenodd" clip-rule="evenodd" d="M5.18259 7.61144C6.05062 7.25196 7.00576 7.15798 7.92721 7.34138C8.8425 7.52355 9.68372 7.97128 10.3459 8.62847C10.9717 9.19783 11.5269 9.83802 12.0009 10.5352C12.4749 9.83803 13.0301 9.19783 13.6558 8.62848C14.318 7.97128 15.1592 7.52355 16.0745 7.34138C16.996 7.15798 17.9511 7.25196 18.8191 7.61144C19.6872 7.97091 20.4291 8.57973 20.9511 9.36089C21.4731 10.1421 21.7517 11.0605 21.7517 12C21.7517 12.9395 21.4731 13.8579 20.9511 14.6391C20.4291 15.4203 19.6872 16.0291 18.8191 16.3886C17.9511 16.748 16.996 16.842 16.0745 16.6586C15.1592 16.4765 14.318 16.0287 13.6558 15.3715C13.0301 14.8022 12.4749 14.162 12.0009 13.4649C11.5269 14.162 10.9717 14.8022 10.3459 15.3715C9.68372 16.0287 8.8425 16.4765 7.92721 16.6586C7.00576 16.842 6.05062 16.748 5.18259 16.3886C4.31455 16.0291 3.57262 15.4203 3.05062 14.6391C2.52862 13.8579 2.25 12.9395 2.25 12C2.25 11.0605 2.52862 10.1421 3.05062 9.36089C3.57262 8.57973 4.31455 7.97091 5.18259 7.61144ZM11.1479 12C10.6645 11.1517 10.0495 10.3846 9.32502 9.72757C9.31596 9.71935 9.3071 9.71091 9.29845 9.70225C8.84396 9.24763 8.26487 8.938 7.63441 8.81252C7.00394 8.68704 6.35042 8.75134 5.75651 8.9973C5.16259 9.24326 4.65495 9.65982 4.29779 10.1943C3.94063 10.7288 3.75 11.3572 3.75 12C3.75 12.6428 3.94063 13.2712 4.29779 13.8057C4.65495 14.3402 5.16259 14.7568 5.75651 15.0027C6.35042 15.2487 7.00394 15.313 7.63441 15.1875C8.26487 15.062 8.84396 14.7524 9.29845 14.2978C9.3071 14.2891 9.31596 14.2807 9.32502 14.2724C10.0495 13.6154 10.6645 12.8483 11.1479 12ZM12.8538 12C13.3372 12.8483 13.9522 13.6154 14.6767 14.2724C14.6858 14.2807 14.6946 14.2891 14.7033 14.2978C15.1577 14.7524 15.7368 15.062 16.3673 15.1875C16.9978 15.313 17.6513 15.2487 18.2452 15.0027C18.8391 14.7568 19.3468 14.3402 19.7039 13.8057C20.0611 13.2712 20.2517 12.6428 20.2517 12C20.2517 11.3572 20.0611 10.7288 19.7039 10.1943C19.3468 9.65982 18.8391 9.24326 18.2452 8.9973C17.6513 8.75134 16.9978 8.68704 16.3673 8.81252C15.7368 8.938 15.1577 9.24763 14.7033 9.70225C14.6946 9.71091 14.6858 9.71935 14.6767 9.72757C13.9522 10.3846 13.3372 11.1517 12.8538 12Z" fill="black"/>
</svg>
