<svg width="24" height="24" viewBox="0 0 24 24" fill="none" xmlns="http://www.w3.org/2000/svg">
<path d="M17.6566 5.31627C19.1253 6.76798 19.9653 8.72745 19.9989 10.7803C20.0326 12.8332 19.2573 14.8186 17.837 16.3166L17.6566 16.5011L13.8851 20.2285C13.4066 20.7013 12.7642 20.9765 12.088 20.9986C11.4118 21.0206 10.7524 20.7877 10.2434 20.3471L10.1154 20.2285L6.3431 16.5002C4.84284 15.0171 4 13.0056 4 10.9083C4 8.81085 4.84284 6.79936 6.3431 5.31627C7.84336 3.83319 9.87815 3 11.9998 3C14.1215 3 16.1563 3.83319 17.6566 5.31627ZM11.9998 8.27218C11.6497 8.27218 11.3029 8.34037 10.9794 8.47284C10.6559 8.60532 10.3619 8.79949 10.1143 9.04427C9.86665 9.28905 9.67023 9.57965 9.53623 9.89947C9.40222 10.2193 9.33324 10.5621 9.33324 10.9083C9.33324 11.2544 9.40222 11.5972 9.53623 11.917C9.67023 12.2369 9.86665 12.5275 10.1143 12.7722C10.3619 13.017 10.6559 13.2112 10.9794 13.3437C11.3029 13.4761 11.6497 13.5443 11.9998 13.5443C12.7071 13.5443 13.3853 13.2666 13.8854 12.7722C14.3855 12.2779 14.6664 11.6074 14.6664 10.9083C14.6664 10.2091 14.3855 9.53863 13.8854 9.04427C13.3853 8.54991 12.7071 8.27218 11.9998 8.27218Z" fill="black"/>
</svg>
