<svg width="24" height="24" viewBox="0 0 24 24" fill="none" xmlns="http://www.w3.org/2000/svg">
<path fill-rule="evenodd" clip-rule="evenodd" d="M12 21.75C17.3848 21.75 21.75 17.3848 21.75 12C21.75 6.61522 17.3848 2.25 12 2.25C6.61522 2.25 2.25 6.61522 2.25 12C2.25 17.3848 6.61522 21.75 12 21.75ZM9.25 7.5C9.25 7.08579 9.58579 6.75 10 6.75H14C14.4142 6.75 14.75 7.08579 14.75 7.5C14.75 7.91421 14.4142 8.25 14 8.25H10.75V11.25H13C13.4945 11.25 13.9482 11.4718 14.2677 11.8312C14.5846 12.1878 14.75 12.6544 14.75 13.125V15.375C14.75 15.8456 14.5846 16.3122 14.2677 16.6688C13.9482 17.0282 13.4945 17.25 13 17.25H11C10.5055 17.25 10.0518 17.0282 9.73234 16.6688C9.41538 16.3122 9.25 15.8456 9.25 15.375C9.25 14.9608 9.58579 14.625 10 14.625C10.4142 14.625 10.75 14.9608 10.75 15.375C10.75 15.5011 10.7953 15.6068 10.8535 15.6722C10.909 15.7347 10.9641 15.75 11 15.75H13C13.0359 15.75 13.091 15.7347 13.1465 15.6722C13.2047 15.6068 13.25 15.5011 13.25 15.375V13.125C13.25 12.9989 13.2047 12.8932 13.1465 12.8278C13.091 12.7653 13.0359 12.75 13 12.75H10C9.58579 12.75 9.25 12.4142 9.25 12V7.5Z" fill="black"/>
</svg>
