<svg width="24" height="24" viewBox="0 0 24 24" fill="none" xmlns="http://www.w3.org/2000/svg">
<path d="M12 2.25C17.3848 2.25 21.75 6.61522 21.75 12C21.75 17.3848 17.3848 21.75 12 21.75C6.61522 21.75 2.25 17.3848 2.25 12C2.25 6.61522 6.61522 2.25 12 2.25ZM16.3535 7.33887C16.1401 7.22474 15.887 7.22134 15.6729 7.3252L15.584 7.37598L12.584 9.37598C12.2395 9.60578 12.1462 10.0714 12.376 10.416C12.6058 10.7604 13.0715 10.8536 13.416 10.624L15.25 9.40137V16C15.2502 16.4141 15.5859 16.75 16 16.75C16.4141 16.75 16.7498 16.4141 16.75 16V8C16.75 7.72345 16.5973 7.4694 16.3535 7.33887ZM10.5303 9.46973C10.2374 9.17683 9.76262 9.17683 9.46973 9.46973L7.46973 11.4697C7.32917 11.6104 7.25 11.8012 7.25 12C7.25009 12.1988 7.32915 12.3897 7.46973 12.5303L9.46973 14.5303L9.52637 14.582C9.82089 14.8222 10.2557 14.8047 10.5303 14.5303C10.8048 14.2557 10.8222 13.8209 10.582 13.5264L10.5303 13.4697L9.06055 12L10.5303 10.5303C10.8231 10.2374 10.823 9.76263 10.5303 9.46973Z" fill="black"/>
</svg>
