<svg width="24" height="24" viewBox="0 0 24 24" fill="none" xmlns="http://www.w3.org/2000/svg">
<path fill-rule="evenodd" clip-rule="evenodd" d="M12 21.75C17.3848 21.75 21.75 17.3848 21.75 12C21.75 6.61522 17.3848 2.25 12 2.25C6.61522 2.25 2.25 6.61522 2.25 12C2.25 17.3848 6.61522 21.75 12 21.75ZM9.25 7.5C9.25 7.08579 9.58579 6.75 10 6.75H12.5C13.1272 6.75 13.7079 7.03104 14.1212 7.49598C14.5319 7.95805 14.75 8.56769 14.75 9.1875V10.3125C14.75 10.9305 14.5332 11.5384 14.1248 12C14.5332 12.4616 14.75 13.0695 14.75 13.6875V14.8125C14.75 15.4323 14.5319 16.042 14.1212 16.504C13.7079 16.969 13.1272 17.25 12.5 17.25H10C9.58579 17.25 9.25 16.9142 9.25 16.5C9.25 16.0858 9.58579 15.75 10 15.75H12.5C12.6685 15.75 12.8508 15.6755 13.0001 15.5075C13.152 15.3366 13.25 15.0878 13.25 14.8125V13.6875C13.25 13.4122 13.152 13.1634 13.0001 12.9925C12.8508 12.8245 12.6685 12.75 12.5 12.75H11C10.5858 12.75 10.25 12.4142 10.25 12C10.25 11.5858 10.5858 11.25 11 11.25H12.5C12.6685 11.25 12.8508 11.1755 13.0001 11.0075C13.152 10.8366 13.25 10.5878 13.25 10.3125V9.1875C13.25 8.91221 13.152 8.6634 13.0001 8.49253C12.8508 8.32453 12.6685 8.25 12.5 8.25H10C9.58579 8.25 9.25 7.91421 9.25 7.5Z" fill="black"/>
</svg>
