<svg width="24" height="24" viewBox="0 0 24 24" fill="none" xmlns="http://www.w3.org/2000/svg">
<path d="M12 2C17.5228 2 22 6.47715 22 12C22 17.5228 17.5228 22 12 22C6.47715 22 2 17.5228 2 12C2 6.47715 6.47715 2 12 2ZM11 6.75C10.5055 6.75 10.0519 6.97169 9.73242 7.33105C9.41547 7.68763 9.25 8.15437 9.25 8.625V15.375C9.25 15.8456 9.41547 16.3124 9.73242 16.6689C10.0519 17.0283 10.5055 17.25 11 17.25H13C13.4945 17.25 13.9481 17.0283 14.2676 16.6689C14.5845 16.3124 14.75 15.8456 14.75 15.375V13.125C14.75 12.6544 14.5845 12.1876 14.2676 11.8311C13.9481 11.4717 13.4945 11.25 13 11.25H10.75V8.625C10.75 8.499 10.7955 8.39352 10.8535 8.32812C10.9091 8.26562 10.9641 8.25 11 8.25H13L13.0654 8.26562C13.0907 8.27724 13.1186 8.29674 13.1465 8.32812C13.2045 8.39352 13.25 8.499 13.25 8.625C13.25 9.03921 13.5858 9.375 14 9.375C14.4142 9.375 14.75 9.03921 14.75 8.625C14.75 8.15437 14.5845 7.68763 14.2676 7.33105C13.9881 7.01666 13.606 6.80716 13.1836 6.75977L13 6.75H11ZM13 12.75C13.0359 12.75 13.0909 12.7656 13.1465 12.8281C13.2045 12.8935 13.25 12.999 13.25 13.125V15.375C13.25 15.501 13.2045 15.6065 13.1465 15.6719C13.0909 15.7344 13.0359 15.75 13 15.75H11C10.9641 15.75 10.9091 15.7344 10.8535 15.6719C10.7955 15.6065 10.75 15.501 10.75 15.375V12.75H13Z" fill="black"/>
</svg>
