<svg width="24" height="24" viewBox="0 0 24 24" fill="none" xmlns="http://www.w3.org/2000/svg">
<path d="M11 4H21V11.2H18L14 13V11.2H11V4Z" fill="black"/>
<path fill-rule="evenodd" clip-rule="evenodd" d="M10.25 4C10.25 3.58579 10.5858 3.25 11 3.25H21C21.4142 3.25 21.75 3.58579 21.75 4V11.2C21.75 11.6142 21.4142 11.95 21 11.95H18.161L14.3078 13.6839C14.0757 13.7884 13.8065 13.768 13.5928 13.6298C13.3791 13.4916 13.25 13.2545 13.25 13V11.95H11C10.5858 11.95 10.25 11.6142 10.25 11.2V4ZM11.75 4.75V10.45H14C14.4142 10.45 14.75 10.7858 14.75 11.2V11.8401L17.6922 10.5161C17.789 10.4725 17.8939 10.45 18 10.45H20.25V4.75H11.75Z" fill="black"/>
<path d="M15 15.3583V19.125C15 19.3571 14.9157 19.5796 14.7657 19.7437C14.6157 19.9078 14.4122 20 14.2 20H6.8C6.58783 20 6.38434 19.9078 6.23431 19.7437C6.08429 19.5796 6 19.3571 6 19.125V6.875C6 6.64294 6.08429 6.42038 6.23431 6.25628C6.38434 6.09219 6.58783 6 6.8 6H8.5V13.8H11.5V16L15 15.3583Z" fill="black"/>
<path fill-rule="evenodd" clip-rule="evenodd" d="M6.80286 6.75C6.80083 6.75101 6.79526 6.75424 6.78784 6.76236C6.77015 6.78171 6.75 6.82124 6.75 6.875V19.125C6.75 19.1788 6.77015 19.2183 6.78784 19.2376C6.79526 19.2458 6.80083 19.249 6.80286 19.25H14.1971C14.1992 19.249 14.2047 19.2458 14.2122 19.2376C14.2299 19.2183 14.25 19.1788 14.25 19.125V16.2583L11.6352 16.7377C11.4163 16.7778 11.1909 16.7187 11.0199 16.5762C10.8489 16.4337 10.75 16.2226 10.75 16V14.55H8.5C8.08579 14.55 7.75 14.2142 7.75 13.8V6.75H6.80286ZM5.68079 5.7502C5.96521 5.43912 6.36612 5.25 6.8 5.25H8.5C8.69891 5.25 8.88968 5.32902 9.03033 5.46967C9.17098 5.61032 9.25 5.80109 9.25 6V13.05H11.5C11.9142 13.05 12.25 13.3858 12.25 13.8V15.1L14.8648 14.6206C15.0837 14.5805 15.3091 14.6397 15.4801 14.7822C15.6511 14.9247 15.75 15.1357 15.75 15.3583V19.125C15.75 19.5354 15.6016 19.941 15.3192 20.2498C15.0348 20.5609 14.6339 20.75 14.2 20.75H6.8C6.36612 20.75 5.96522 20.5609 5.68079 20.2498C5.39843 19.941 5.25 19.5354 5.25 19.125V6.875C5.25 6.46463 5.39843 6.05904 5.68079 5.7502Z" fill="black"/>
</svg>
