<svg width="24" height="24" viewBox="0 0 24 24" fill="none" xmlns="http://www.w3.org/2000/svg">
<path fill-rule="evenodd" clip-rule="evenodd" d="M8.66518 4.74347C10.4237 3.74697 12.5763 3.74697 14.3348 4.74347L15.609 5.4655C15.6167 5.46966 15.6242 5.47396 15.6318 5.47839L17.8488 6.73472C19.0238 7.40055 19.75 8.64677 19.75 9.9973V15.0009C19.75 16.3515 19.0238 17.5977 17.8488 18.2635L13.8418 20.5341C12.3891 21.3573 10.6109 21.3573 9.15819 20.5341L5.1512 18.2635C3.97621 17.5977 3.25 16.3515 3.25 15.0009V9.9973C3.25 8.64677 3.97621 7.40055 5.1512 6.73472L8.66518 4.74347ZM13.7287 6.12411L13.5953 6.0485C12.2955 5.31196 10.7045 5.31196 9.4047 6.0485L5.89072 8.03975C5.77193 8.10707 5.66079 8.18426 5.55809 8.26998L7.75 9.51207L13.7287 6.12411ZM9.27126 10.3741L15.25 6.98616L17.1093 8.03975C17.2281 8.10707 17.3392 8.18426 17.4419 8.26998L13.5953 10.4497C12.2955 11.1863 10.7045 11.1863 9.4047 10.4497L9.27126 10.3741ZM7.36826 11.0198C7.37577 11.0243 7.38334 11.0286 7.39099 11.0327L8.66518 11.7548C9.32283 12.1274 10.0356 12.3607 10.7623 12.4547C10.7542 12.4987 10.75 12.5441 10.75 12.5904V19.5639C10.4554 19.494 10.1683 19.3824 9.89771 19.2291L5.89072 16.9585C5.18572 16.559 4.75 15.8112 4.75 15.0009V9.9973C4.75 9.84899 4.7646 9.70277 4.79277 9.5604L7.36826 11.0198ZM12.25 19.5639C12.5446 19.494 12.8317 19.3824 13.1023 19.2291L17.1093 16.9585C17.8143 16.559 18.25 15.8112 18.25 15.0009V9.9973C18.25 9.84899 18.2354 9.70277 18.2072 9.5604L14.3348 11.7548C13.6772 12.1274 12.9644 12.3607 12.2377 12.4547C12.2458 12.4987 12.25 12.5441 12.25 12.5904V19.5639Z" fill="black"/>
</svg>
