<svg width="24" height="24" viewBox="0 0 24 24" fill="none" xmlns="http://www.w3.org/2000/svg">
<path d="M4 5.5H7C7.26522 5.5 7.51957 5.39464 7.70711 5.20711C7.89464 5.01957 8 4.76522 8 4.5V3.5C8 2.96957 8.21071 2.46086 8.58579 2.08579C8.96086 1.71071 9.46957 1.5 10 1.5C10.5304 1.5 11.0391 1.71071 11.4142 2.08579C11.7893 2.46086 12 2.96957 12 3.5V4.5C12 4.76522 12.1054 5.01957 12.2929 5.20711C12.4804 5.39464 12.7348 5.5 13 5.5H16C16.2652 5.5 16.5196 5.60536 16.7071 5.79289C16.8946 5.98043 17 6.23478 17 6.5V9.5C17 9.76522 17.1054 10.0196 17.2929 10.2071C17.4804 10.3946 17.7348 10.5 18 10.5H19C19.5304 10.5 20.0391 10.7107 20.4142 11.0858C20.7893 11.4609 21 11.9696 21 12.5C21 13.0304 20.7893 13.5391 20.4142 13.9142C20.0391 14.2893 19.5304 14.5 19 14.5H18C17.7348 14.5 17.4804 14.6054 17.2929 14.7929C17.1054 14.9804 17 15.2348 17 15.5V18.5C17 18.7652 16.8946 19.0196 16.7071 19.2071C16.5196 19.3946 16.2652 19.5 16 19.5H13C12.7348 19.5 12.4804 19.3946 12.2929 19.2071C12.1054 19.0196 12 18.7652 12 18.5V17.5C12 16.9696 11.7893 16.4609 11.4142 16.0858C11.0391 15.7107 10.5304 15.5 10 15.5C9.46957 15.5 8.96086 15.7107 8.58579 16.0858C8.21071 16.4609 8 16.9696 8 17.5V18.5C8 18.7652 7.89464 19.0196 7.70711 19.2071C7.51957 19.3946 7.26522 19.5 7 19.5H4C3.73478 19.5 3.48043 19.3946 3.29289 19.2071C3.10536 19.0196 3 18.7652 3 18.5V15.5C3 15.2348 3.10536 14.9804 3.29289 14.7929C3.48043 14.6054 3.73478 14.5 4 14.5H5C5.53043 14.5 6.03914 14.2893 6.41421 13.9142C6.78929 13.5391 7 13.0304 7 12.5C7 11.9696 6.78929 11.4609 6.41421 11.0858C6.03914 10.7107 5.53043 10.5 5 10.5H4C3.73478 10.5 3.48043 10.3946 3.29289 10.2071C3.10536 10.0196 3 9.76522 3 9.5V6.5C3 6.23478 3.10536 5.98043 3.29289 5.79289C3.48043 5.60536 3.73478 5.5 4 5.5Z" fill="black"/>
<path fill-rule="evenodd" clip-rule="evenodd" d="M10 2.25C9.66848 2.25 9.35054 2.3817 9.11612 2.61612C8.8817 2.85054 8.75 3.16848 8.75 3.5V4.5C8.75 4.96413 8.56563 5.40925 8.23744 5.73744C7.90925 6.06563 7.46413 6.25 7 6.25H4C3.9337 6.25 3.87011 6.27634 3.82322 6.32322C3.77634 6.37011 3.75 6.4337 3.75 6.5V9.5C3.75 9.5663 3.77634 9.62989 3.82322 9.67678C3.87011 9.72366 3.9337 9.75 4 9.75H5C5.72935 9.75 6.42882 10.0397 6.94454 10.5555C7.46027 11.0712 7.75 11.7707 7.75 12.5C7.75 13.2293 7.46027 13.9288 6.94454 14.4445C6.42882 14.9603 5.72935 15.25 5 15.25H4C3.93369 15.25 3.87011 15.2763 3.82322 15.3232C3.77634 15.3701 3.75 15.4337 3.75 15.5V18.5C3.75 18.5663 3.77634 18.6299 3.82322 18.6768C3.87011 18.7237 3.93369 18.75 4 18.75H7C7.06631 18.75 7.12989 18.7237 7.17678 18.6768C7.22366 18.6299 7.25 18.5663 7.25 18.5V17.5C7.25 16.7707 7.53973 16.0712 8.05546 15.5555C8.57118 15.0397 9.27065 14.75 10 14.75C10.7293 14.75 11.4288 15.0397 11.9445 15.5555C12.4603 16.0712 12.75 16.7707 12.75 17.5V18.5C12.75 18.5663 12.7763 18.6299 12.8232 18.6768C12.8701 18.7237 12.9337 18.75 13 18.75H16C16.0663 18.75 16.1299 18.7237 16.1768 18.6768C16.2237 18.6299 16.25 18.5663 16.25 18.5V15.5C16.25 15.0359 16.4344 14.5908 16.7626 14.2626C17.0908 13.9344 17.5359 13.75 18 13.75H19C19.3315 13.75 19.6495 13.6183 19.8839 13.3839C20.1183 13.1495 20.25 12.8315 20.25 12.5C20.25 12.1685 20.1183 11.8505 19.8839 11.6161C19.6495 11.3817 19.3315 11.25 19 11.25H18C17.5359 11.25 17.0908 11.0656 16.7626 10.7374C16.4344 10.4092 16.25 9.96413 16.25 9.5V6.5C16.25 6.43369 16.2237 6.37011 16.1768 6.32322C16.1299 6.27634 16.0663 6.25 16 6.25H13C12.5359 6.25 12.0908 6.06563 11.7626 5.73744C11.4344 5.40925 11.25 4.96413 11.25 4.5V3.5C11.25 3.16848 11.1183 2.85054 10.8839 2.61612C10.6495 2.3817 10.3315 2.25 10 2.25ZM8.05546 1.55546C8.57118 1.03973 9.27065 0.75 10 0.75C10.7293 0.75 11.4288 1.03973 11.9445 1.55546C12.4603 2.07118 12.75 2.77065 12.75 3.5V4.5C12.75 4.5663 12.7763 4.62989 12.8232 4.67678C12.8701 4.72366 12.9337 4.75 13 4.75H16C16.4641 4.75 16.9092 4.93437 17.2374 5.26256C17.5656 5.59075 17.75 6.03587 17.75 6.5V9.5C17.75 9.56631 17.7763 9.62989 17.8232 9.67678C17.8701 9.72366 17.9337 9.75 18 9.75H19C19.7293 9.75 20.4288 10.0397 20.9445 10.5555C21.4603 11.0712 21.75 11.7707 21.75 12.5C21.75 13.2293 21.4603 13.9288 20.9445 14.4445C20.4288 14.9603 19.7293 15.25 19 15.25H18C17.9337 15.25 17.8701 15.2763 17.8232 15.3232C17.7763 15.3701 17.75 15.4337 17.75 15.5V18.5C17.75 18.9641 17.5656 19.4092 17.2374 19.7374C16.9092 20.0656 16.4641 20.25 16 20.25H13C12.5359 20.25 12.0908 20.0656 11.7626 19.7374C11.4344 19.4092 11.25 18.9641 11.25 18.5V17.5C11.25 17.1685 11.1183 16.8505 10.8839 16.6161C10.6495 16.3817 10.3315 16.25 10 16.25C9.66848 16.25 9.35054 16.3817 9.11612 16.6161C8.8817 16.8505 8.75 17.1685 8.75 17.5V18.5C8.75 18.9641 8.56563 19.4092 8.23744 19.7374C7.90925 20.0656 7.46413 20.25 7 20.25H4C3.53587 20.25 3.09075 20.0656 2.76256 19.7374C2.43437 19.4092 2.25 18.9641 2.25 18.5V15.5C2.25 15.0359 2.43437 14.5908 2.76256 14.2626C3.09075 13.9344 3.53587 13.75 4 13.75H5C5.33152 13.75 5.64946 13.6183 5.88388 13.3839C6.1183 13.1495 6.25 12.8315 6.25 12.5C6.25 12.1685 6.1183 11.8505 5.88388 11.6161C5.64946 11.3817 5.33152 11.25 5 11.25H4C3.53587 11.25 3.09075 11.0656 2.76256 10.7374C2.43437 10.4092 2.25 9.96413 2.25 9.5V6.5C2.25 6.03587 2.43437 5.59075 2.76256 5.26256C3.09075 4.93437 3.53587 4.75 4 4.75H7C7.0663 4.75 7.12989 4.72366 7.17678 4.67678C7.22366 4.62989 7.25 4.5663 7.25 4.5V3.5C7.25 2.77065 7.53973 2.07118 8.05546 1.55546Z" fill="black"/>
</svg>
