<svg width="24" height="24" viewBox="0 0 24 24" fill="none" xmlns="http://www.w3.org/2000/svg">
<path d="M19 3V15H14C13.977 11.319 14.184 7.594 19 3Z" fill="black"/>
<path fill-rule="evenodd" clip-rule="evenodd" d="M19.2952 2.31054C19.5711 2.42866 19.75 2.69989 19.75 3.00002V21C19.75 21.4142 19.4142 21.75 19 21.75H18C17.5858 21.75 17.25 21.4142 17.25 21V18C17.25 17.5858 17.5858 17.25 18 17.25C18.0877 17.25 18.1718 17.2651 18.25 17.2927V15.75H14C13.5876 15.75 13.2526 15.4171 13.25 15.0047C13.2385 13.1539 13.2813 11.1968 13.9734 9.10664C14.6691 7.00557 16.0009 4.8244 18.4823 2.45733C18.6995 2.25017 19.0193 2.19242 19.2952 2.31054ZM18.25 14.25V4.85082C16.7339 6.55565 15.8821 8.11429 15.3974 9.57815C14.8709 11.1679 14.7624 12.6867 14.75 14.25H18.25ZM5 3.25002C5.41421 3.25002 5.75 3.5858 5.75 4.00002V7.00002C5.75 7.59676 5.98705 8.16905 6.40901 8.59101C6.64856 8.83056 6.93657 9.01052 7.25 9.12134V4.00002C7.25 3.5858 7.58579 3.25002 8 3.25002C8.41421 3.25002 8.75 3.5858 8.75 4.00002V9.12134C9.06343 9.01052 9.35144 8.83056 9.59099 8.59101C10.0129 8.16905 10.25 7.59676 10.25 7.00002V4.00002C10.25 3.5858 10.5858 3.25002 11 3.25002C11.4142 3.25002 11.75 3.5858 11.75 4.00002V7.00002C11.75 7.99458 11.3549 8.94841 10.6517 9.65167C10.1279 10.1755 9.46508 10.5283 8.75 10.6743V21C8.75 21.4142 8.41421 21.75 8 21.75C7.58579 21.75 7.25 21.4142 7.25 21V10.6743C6.53492 10.5283 5.87214 10.1755 5.34835 9.65167C4.64509 8.94841 4.25 7.99458 4.25 7.00002V4.00002C4.25 3.5858 4.58579 3.25002 5 3.25002Z" fill="black"/>
</svg>
