<svg width="24" height="24" viewBox="0 0 24 24" fill="none" xmlns="http://www.w3.org/2000/svg">
<path fill-rule="evenodd" clip-rule="evenodd" d="M16.9592 3.25111C16.9728 3.25037 16.9864 3.25 17 3.25C17.9946 3.25 18.9484 3.64509 19.6517 4.34835C20.3549 5.05161 20.75 6.00544 20.75 7C20.75 7.01362 20.7496 7.02723 20.7489 7.04083C20.6439 8.96628 19.9703 10.8174 18.8133 12.36C17.7561 13.7697 16.3385 14.864 14.7138 15.5305C14.6087 16.4992 14.2947 17.4358 13.7913 18.2748C13.2008 19.2591 12.369 20.0765 11.3746 20.6498C11.1562 20.7757 10.8892 20.7834 10.6638 20.6704C10.4385 20.5575 10.285 20.3388 10.2552 20.0885C10.0632 18.4726 9.3331 16.9682 8.18243 15.8176C7.03175 14.6669 5.52742 13.9368 3.91149 13.7448C3.66117 13.715 3.44254 13.5615 3.32956 13.3362C3.21657 13.1108 3.22434 12.8438 3.35025 12.6254C3.92353 11.631 4.74094 10.7992 5.72519 10.2087C6.56418 9.70526 7.50079 9.39133 8.46952 9.28616C9.13597 7.66154 10.2303 6.24394 11.64 5.18665C13.1826 4.02967 15.0337 3.3561 16.9592 3.25111ZM17.0194 4.75008C15.3979 4.84272 13.8396 5.41196 12.54 6.38665C11.2347 7.36564 10.249 8.7097 9.7075 10.2489C9.60489 10.5406 9.33379 10.7394 9.02476 10.7496C8.13249 10.7791 7.26247 11.0356 6.49694 11.4949C6.04753 11.7645 5.64285 12.0988 5.29505 12.4854C6.78151 12.8789 8.14559 13.6594 9.24309 14.7569C10.3406 15.8544 11.1211 17.2185 11.5146 18.7049C11.9012 18.3571 12.2355 17.9525 12.5051 17.5031C12.9644 16.7375 13.2209 15.8675 13.2504 14.9752C13.2606 14.6662 13.4594 14.3951 13.7511 14.2925C15.2903 13.751 16.6344 12.7653 17.6133 11.46C18.588 10.1604 19.1573 8.60212 19.2499 6.98058C19.2448 6.39086 19.0084 5.82639 18.591 5.40901C18.1736 4.99163 17.6091 4.75516 17.0194 4.75008Z" fill="black"/>
<path fill-rule="evenodd" clip-rule="evenodd" d="M7.65261 13.6314C7.85625 13.9921 7.72892 14.4496 7.36822 14.6532C6.45755 15.1674 5.72117 15.9417 5.25348 16.8771C4.87636 17.6314 4.68781 18.4626 4.69975 19.2999C5.53709 19.3118 6.36828 19.1233 7.12252 18.7462C8.05789 18.2785 8.83227 17.5421 9.3464 16.6314C9.55003 16.2707 10.0075 16.1434 10.3682 16.347C10.7289 16.5507 10.8562 17.0081 10.6526 17.3688C9.99159 18.5397 8.99596 19.4865 7.79334 20.0878C6.59072 20.6891 5.23592 20.9176 3.90261 20.7438C3.56526 20.6999 3.29974 20.4344 3.25579 20.097C3.08208 18.7637 3.31053 17.4089 3.91184 16.2063C4.51315 15.0037 5.45992 14.008 6.63079 13.347C6.99149 13.1434 7.44898 13.2707 7.65261 13.6314Z" fill="black"/>
<path fill-rule="evenodd" clip-rule="evenodd" d="M13.7626 7.76256C14.0908 7.43438 14.5359 7.25 15 7.25C15.4641 7.25 15.9092 7.43438 16.2374 7.76256C16.5656 8.09075 16.75 8.53587 16.75 9C16.75 9.46413 16.5656 9.90925 16.2374 10.2374C15.9092 10.5656 15.4641 10.75 15 10.75C14.5359 10.75 14.0908 10.5656 13.7626 10.2374C13.4344 9.90925 13.25 9.46413 13.25 9C13.25 8.53587 13.4344 8.09075 13.7626 7.76256ZM15 8.75C14.9337 8.75 14.8701 8.77634 14.8232 8.82322C14.7763 8.87011 14.75 8.9337 14.75 9C14.75 9.0663 14.7763 9.12989 14.8232 9.17678C14.8701 9.22366 14.9337 9.25 15 9.25C15.0663 9.25 15.1299 9.22366 15.1768 9.17678C15.2237 9.12989 15.25 9.0663 15.25 9C15.25 8.9337 15.2237 8.87011 15.1768 8.82322C15.1299 8.77634 15.0663 8.75 15 8.75Z" fill="black"/>
</svg>
