<svg width="24" height="24" viewBox="0 0 24 24" fill="none" xmlns="http://www.w3.org/2000/svg">
<path fill-rule="evenodd" clip-rule="evenodd" d="M12 3.75C10.0772 3.75 8.23311 4.51384 6.87348 5.87348C5.51384 7.23312 4.75 9.07718 4.75 11V14C4.75 14.4142 4.41421 14.75 4 14.75C3.58579 14.75 3.25 14.4142 3.25 14V11C3.25 8.67936 4.17187 6.45376 5.81282 4.81282C7.45376 3.17187 9.67936 2.25 12 2.25C14.3206 2.25 16.5462 3.17187 18.1872 4.81282C19.8281 6.45376 20.75 8.67936 20.75 11V14C20.75 14.4142 20.4142 14.75 20 14.75C19.5858 14.75 19.25 14.4142 19.25 14V11C19.25 9.07718 18.4862 7.23312 17.1265 5.87348C15.7669 4.51384 13.9228 3.75 12 3.75Z" fill="black"/>
<path fill-rule="evenodd" clip-rule="evenodd" d="M18 18.25C18.4142 18.25 18.75 18.5858 18.75 19C18.75 20.2656 17.7437 21.2094 16.5782 21.7922C15.3678 22.3974 13.7482 22.75 12 22.75C11.5858 22.75 11.25 22.4142 11.25 22C11.25 21.5858 11.5858 21.25 12 21.25C13.5658 21.25 14.9462 20.9311 15.9073 20.4506C16.9133 19.9476 17.25 19.3914 17.25 19C17.25 18.5858 17.5858 18.25 18 18.25Z" fill="black"/>
<path d="M4 14C4 13.4696 4.21071 12.9609 4.58579 12.5858C4.96086 12.2107 5.46957 12 6 12H7C7.53043 12 8.03914 12.2107 8.41421 12.5858C8.78929 12.9609 9 13.4696 9 14V17C9 17.5304 8.78929 18.0391 8.41421 18.4142C8.03914 18.7893 7.53043 19 7 19H6C5.46957 19 4.96086 18.7893 4.58579 18.4142C4.21071 18.0391 4 17.5304 4 17V14Z" fill="black"/>
<path fill-rule="evenodd" clip-rule="evenodd" d="M6 12.75C5.66848 12.75 5.35054 12.8817 5.11612 13.1161C4.8817 13.3505 4.75 13.6685 4.75 14V17C4.75 17.3315 4.8817 17.6495 5.11612 17.8839C5.35054 18.1183 5.66848 18.25 6 18.25H7C7.33152 18.25 7.64946 18.1183 7.88388 17.8839C8.1183 17.6495 8.25 17.3315 8.25 17V14C8.25 13.6685 8.1183 13.3505 7.88388 13.1161C7.64946 12.8817 7.33152 12.75 7 12.75H6ZM4.05546 12.0555C4.57118 11.5397 5.27065 11.25 6 11.25H7C7.72935 11.25 8.42882 11.5397 8.94454 12.0555C9.46027 12.5712 9.75 13.2707 9.75 14V17C9.75 17.7293 9.46027 18.4288 8.94454 18.9445C8.42882 19.4603 7.72935 19.75 7 19.75H6C5.27065 19.75 4.57118 19.4603 4.05546 18.9445C3.53973 18.4288 3.25 17.7293 3.25 17V14C3.25 13.2707 3.53973 12.5712 4.05546 12.0555Z" fill="black"/>
<path d="M15 14C15 13.4696 15.2107 12.9609 15.5858 12.5858C15.9609 12.2107 16.4696 12 17 12H18C18.5304 12 19.0391 12.2107 19.4142 12.5858C19.7893 12.9609 20 13.4696 20 14V17C20 17.5304 19.7893 18.0391 19.4142 18.4142C19.0391 18.7893 18.5304 19 18 19H17C16.4696 19 15.9609 18.7893 15.5858 18.4142C15.2107 18.0391 15 17.5304 15 17V14Z" fill="black"/>
<path fill-rule="evenodd" clip-rule="evenodd" d="M17 12.75C16.6685 12.75 16.3505 12.8817 16.1161 13.1161C15.8817 13.3505 15.75 13.6685 15.75 14V17C15.75 17.3315 15.8817 17.6495 16.1161 17.8839C16.3505 18.1183 16.6685 18.25 17 18.25H18C18.3315 18.25 18.6495 18.1183 18.8839 17.8839C19.1183 17.6495 19.25 17.3315 19.25 17V14C19.25 13.6685 19.1183 13.3505 18.8839 13.1161C18.6495 12.8817 18.3315 12.75 18 12.75H17ZM15.0555 12.0555C15.5712 11.5397 16.2707 11.25 17 11.25H18C18.7293 11.25 19.4288 11.5397 19.9445 12.0555C20.4603 12.5712 20.75 13.2707 20.75 14V17C20.75 17.7293 20.4603 18.4288 19.9445 18.9445C19.4288 19.4603 18.7293 19.75 18 19.75H17C16.2707 19.75 15.5712 19.4603 15.0555 18.9445C14.5397 18.4288 14.25 17.7293 14.25 17V14C14.25 13.2707 14.5397 12.5712 15.0555 12.0555Z" fill="black"/>
</svg>
