<svg width="24" height="24" viewBox="0 0 24 24" fill="none" xmlns="http://www.w3.org/2000/svg">
<path d="M13.0002 4V8C6.42519 9.028 3.98019 14.788 3.00019 20C2.96319 20.206 8.38419 14.038 13.0002 14V18L21.0002 11L13.0002 4Z" fill="black"/>
<path fill-rule="evenodd" clip-rule="evenodd" d="M12.6903 3.31704C12.9583 3.19543 13.2726 3.24179 13.4941 3.43558L21.4941 10.4356C21.6569 10.578 21.7502 10.7837 21.7502 11C21.7502 11.2163 21.6569 11.422 21.4941 11.5644L13.4941 18.5644C13.2726 18.7582 12.9583 18.8046 12.6903 18.683C12.4223 18.5614 12.2502 18.2943 12.2502 18V14.8157C11.4706 14.9406 10.6501 15.2371 9.82147 15.6529C8.72557 16.2027 7.66024 16.9383 6.71992 17.6803C5.78175 18.4206 4.98222 19.1558 4.41627 19.6969C4.21925 19.8852 4.05475 20.046 3.91882 20.1788C3.85753 20.2387 3.80204 20.2929 3.752 20.3414C3.67726 20.4138 3.60487 20.4832 3.54893 20.532L3.54726 20.5335C3.52803 20.5503 3.4704 20.6006 3.40057 20.6429C3.37912 20.6558 3.33838 20.6792 3.28438 20.7008C3.24615 20.716 3.11765 20.7657 2.94657 20.753C2.71596 20.7357 2.44588 20.6011 2.31562 20.3097C2.22227 20.1008 2.25318 19.9167 2.26203 19.8674L2.26311 19.8614L2.26313 19.8614C3.22331 14.7548 5.645 8.74491 12.2502 7.37416V4.00001C12.2502 3.70573 12.4223 3.43864 12.6903 3.31704ZM13.7502 5.65284V8.00001C13.7502 8.3695 13.4811 8.68393 13.1161 8.74101C7.9835 9.54349 5.51516 13.4581 4.28999 17.7688C4.73079 17.3735 5.23694 16.9397 5.79076 16.5027C6.77807 15.7237 7.93117 14.9231 9.1488 14.3122C10.3607 13.7041 11.6821 13.2608 12.994 13.25C13.194 13.2484 13.3864 13.3267 13.5284 13.4675C13.6703 13.6083 13.7502 13.8 13.7502 14V16.3472L19.8613 11L13.7502 5.65284ZM2.55552 19.4079C2.55561 19.4077 2.5577 19.4059 2.56154 19.4028C2.55736 19.4064 2.55544 19.408 2.55552 19.4079Z" fill="black"/>
</svg>
