<svg width="24" height="24" viewBox="0 0 24 24" fill="none" xmlns="http://www.w3.org/2000/svg">
<path fill-rule="evenodd" clip-rule="evenodd" d="M3.82937 13.6701C3.52838 13.6701 3.23505 13.6393 2.95064 13.5825L3.37152 17.2024C3.6164 19.3349 5.54606 20.9444 7.85694 20.9444H15.1443C17.4553 20.9444 19.3849 19.3362 19.6298 17.2024L20.0506 13.5825C19.7662 13.6405 19.4729 13.6701 19.1719 13.6701H3.82937ZM15.3918 14.9644C15.7783 15.0363 16.0314 15.398 15.9572 15.7724L15.4197 18.4836C15.3455 18.8579 14.9721 19.1031 14.5856 19.0312C14.1992 18.9593 13.9461 18.5976 14.0203 18.2233L14.5578 15.5121C14.632 15.1377 15.0054 14.8925 15.3918 14.9644ZM11.5912 14.9629C11.9847 14.9629 12.3037 15.2719 12.3037 15.653V18.4138C12.3037 18.795 11.9847 19.104 11.5912 19.104C11.1977 19.104 10.8787 18.795 10.8787 18.4138V15.653C10.8787 15.2719 11.1977 14.9629 11.5912 14.9629ZM7.79099 14.9636C7.40455 15.0355 7.15143 15.3972 7.22564 15.7716L7.76309 18.4828C7.8373 18.8571 8.21073 19.1023 8.59718 19.0304C8.98362 18.9585 9.23673 18.5968 9.16253 18.2224L8.62507 15.5112C8.55086 15.1369 8.17743 14.8917 7.79099 14.9636Z" fill="black"/>
<path fill-rule="evenodd" clip-rule="evenodd" d="M17.0342 7.60091H18.6029C19.9248 7.60091 21 8.63258 21 9.901C21 11.1684 19.9248 12.2 18.6029 12.2021H4.39712C3.07518 12.2021 2 11.1705 2 9.90206C2 8.63364 3.07518 7.60199 4.39712 7.60199H5.96582L7.42112 7.60091H14.629H17.0342Z" fill="black"/>
<path d="M7.76309 7.60091H8.19552V7.55111C8.19552 5.80004 9.68 4.37578 11.5051 4.37578C12.3901 4.37578 13.2215 4.70578 13.8466 5.30559C14.4718 5.90541 14.8157 6.703 14.8157 7.55222V7.60091H15.3631H16.25V7.5512C16.25 6.33437 15.757 5.19172 14.8607 4.33293C13.9644 3.47298 12.7735 3 11.5065 3C8.89041 3 6.76286 5.04238 6.76286 7.55125V7.6014L7.42112 7.60091H7.76309Z" fill="black"/>
</svg>
