<?xml version="1.0" encoding="utf-8"?>
<!-- Generator: Adobe Illustrator 24.2.0, SVG Export Plug-In . SVG Version: 6.00 Build 0)  -->
<svg version="1.1" id="Layer_1" xmlns="http://www.w3.org/2000/svg" xmlns:xlink="http://www.w3.org/1999/xlink" x="0px" y="0px"
	 viewBox="0 0 24 24" style="enable-background:new 0 0 24 24;" xml:space="preserve">
<g>
	<path d="M4.3,13.7c-0.3,0-0.6,0-0.9-0.1l0.4,3.6C4.1,19.4,6,21,8.4,21h7.3c2.3,0,4.2-1.6,4.5-3.7l0.4-3.6c-0.3,0.1-0.6,0.1-0.9,0.1
		H4.3z M9.1,19.1c-0.4,0.1-0.8-0.2-0.8-0.5l-0.5-2.7c-0.1-0.4,0.2-0.7,0.6-0.8c0.4-0.1,0.8,0.2,0.8,0.5l0.5,2.7
		C9.7,18.6,9.5,19,9.1,19.1z M12.8,18.4c0,0.4-0.3,0.7-0.7,0.7s-0.7-0.3-0.7-0.7v-2.8c0-0.4,0.3-0.7,0.7-0.7s0.7,0.3,0.7,0.7V18.4z
		 M15.9,18.5c-0.1,0.4-0.4,0.6-0.8,0.5c-0.4-0.1-0.6-0.4-0.6-0.8l0.5-2.7c0.1-0.4,0.4-0.6,0.8-0.5c0.4,0.1,0.6,0.4,0.6,0.8
		L15.9,18.5z"/>
	<path d="M19.1,7.6h-2.3V7.6c0-1.2-0.5-2.4-1.4-3.2C14.5,3.5,13.3,3,12,3c-2.6,0-4.8,2-4.8,4.5v0.1l-0.8,0H4.9c-1.3,0-2.4,1-2.4,2.3
		c0,1.3,1.1,2.3,2.4,2.3h14.2c1.3,0,2.4-1,2.4-2.3C21.5,8.7,20.4,7.6,19.1,7.6z M15.3,7.6H8.7V7.6c0-1.8,1.5-3.2,3.3-3.2
		c0.9,0,1.7,0.3,2.3,0.9C15,5.9,15.3,6.7,15.3,7.6L15.3,7.6z"/>
</g>
</svg>
