<svg width="24" height="24" viewBox="0 0 24 24" fill="none" xmlns="http://www.w3.org/2000/svg">
<path fill-rule="evenodd" clip-rule="evenodd" d="M17 3.33989C18.5083 4.21075 19.7629 5.46042 20.6398 6.96519C21.5167 8.46997 21.9854 10.1777 21.9994 11.9192C22.0135 13.6608 21.5725 15.3758 20.72 16.8946C19.8676 18.4133 18.6332 19.6831 17.1392 20.5782C15.6452 21.4733 13.9434 21.9627 12.2021 21.998C10.4608 22.0332 8.74055 21.6131 7.21156 20.7791C5.68256 19.9452 4.39787 18.7264 3.48467 17.2434C2.57146 15.7604 2.06141 14.0646 2.005 12.3239L2 11.9999L2.005 11.6759C2.061 9.94888 2.56355 8.26585 3.46364 6.79089C4.36373 5.31592 5.63065 4.09934 7.14089 3.25977C8.65113 2.42021 10.3531 1.98629 12.081 2.00033C13.8089 2.01437 15.5036 2.47589 17 3.33989ZM7.25 16.75C7.25 17.1642 7.58579 17.5 8 17.5H16C16.4142 17.5 16.75 17.1642 16.75 16.75C16.75 16.3358 16.4142 16 16 16H8C7.58579 16 7.25 16.3358 7.25 16.75ZM11.4724 14.4413C11.7647 14.7305 12.2353 14.7305 12.5276 14.4413L16.2776 10.7296C16.572 10.4383 16.5744 9.96339 16.2831 9.66899C15.9917 9.3746 15.5168 9.37216 15.2224 9.66354L12.7499 12.1107L12.75 5.74998C12.75 5.33576 12.4142 4.99999 12 5C11.5858 5.00001 11.25 5.33581 11.25 5.75002L11.2499 12.1106L8.7776 9.66354C8.4832 9.37216 8.00833 9.3746 7.71695 9.66899C7.42557 9.96339 7.42801 10.4383 7.7224 10.7296L11.4724 14.4413Z" fill="black"/>
</svg>
