<svg width="24" height="24" viewBox="0 0 24 24" fill="none" xmlns="http://www.w3.org/2000/svg">
<path fill-rule="evenodd" clip-rule="evenodd" d="M8.89356 4.30141C9.71533 3.46958 10.8325 3 12 3C13.1675 3 14.2847 3.46958 15.1064 4.30141C15.9278 5.13283 16.3871 6.25793 16.3871 7.42857C16.3871 8.59921 15.9278 9.72431 15.1064 10.5557C14.2847 11.3876 13.1675 11.8571 12 11.8571C10.8325 11.8571 9.71533 11.3876 8.89356 10.5557C8.0722 9.72431 7.6129 8.59921 7.6129 7.42857C7.6129 6.25793 8.0722 5.13283 8.89356 4.30141ZM5.42626 14.5428C6.34344 13.595 7.59354 13.0571 8.90323 13.0571H15.0968C16.4065 13.0571 17.6566 13.595 18.5737 14.5428C19.49 15.4896 20 16.7679 20 18.0952C20 19.688 18.7213 21 17.1183 21H6.88172C5.27874 21 4 19.688 4 18.0952C4 16.7679 4.51 15.4896 5.42626 14.5428Z" fill="black"/>
</svg>
