<svg width="24" height="24" viewBox="0 0 24 24" fill="none" xmlns="http://www.w3.org/2000/svg">
<path fill-rule="evenodd" clip-rule="evenodd" d="M1.25 5C1.25 4.58579 1.58579 4.25 2 4.25H13C13.4142 4.25 13.75 4.58579 13.75 5V5.25H18C18.2634 5.25 18.5076 5.38822 18.6431 5.61413L21.6431 10.6141C21.7131 10.7307 21.75 10.8641 21.75 11V17C21.75 17.4142 21.4142 17.75 21 17.75H19.6458C19.5189 18.1975 19.2793 18.6098 18.9445 18.9445C18.4288 19.4603 17.7293 19.75 17 19.75C16.2707 19.75 15.5712 19.4603 15.0555 18.9445C14.7207 18.6098 14.4811 18.1975 14.3542 17.75H9.64576C9.51888 18.1975 9.27933 18.6098 8.94454 18.9445C8.42882 19.4603 7.72935 19.75 7 19.75C6.27065 19.75 5.57118 19.4603 5.05546 18.9445C4.72067 18.6098 4.48112 18.1975 4.35424 17.75H3C2.58579 17.75 2.25 17.4142 2.25 17V13C2.25 12.5858 2.58579 12.25 3 12.25C3.41421 12.25 3.75 12.5858 3.75 13V16.25H4.35424C4.48112 15.8025 4.72067 15.3902 5.05546 15.0555C5.57118 14.5397 6.27065 14.25 7 14.25C7.72935 14.25 8.42882 14.5397 8.94454 15.0555C9.27933 15.3902 9.51888 15.8025 9.64576 16.25H12.25V5.75H2C1.58579 5.75 1.25 5.41421 1.25 5ZM13.75 6.75V10.25H19.6754L17.5754 6.75H13.75ZM20.25 11.75H13.75V16.25H14.3542C14.4811 15.8025 14.7207 15.3902 15.0555 15.0555C15.5712 14.5397 16.2707 14.25 17 14.25C17.7293 14.25 18.4288 14.5397 18.9445 15.0555C19.2793 15.3902 19.5189 15.8025 19.6458 16.25H20.25V11.75ZM2.25 9C2.25 8.58579 2.58579 8.25 3 8.25H7C7.41421 8.25 7.75 8.58579 7.75 9C7.75 9.41421 7.41421 9.75 7 9.75H3C2.58579 9.75 2.25 9.41421 2.25 9ZM7 15.75C6.66848 15.75 6.35054 15.8817 6.11612 16.1161C5.8817 16.3505 5.75 16.6685 5.75 17C5.75 17.3315 5.8817 17.6495 6.11612 17.8839C6.35054 18.1183 6.66848 18.25 7 18.25C7.33152 18.25 7.64946 18.1183 7.88388 17.8839C8.1183 17.6495 8.25 17.3315 8.25 17C8.25 16.6685 8.1183 16.3505 7.88388 16.1161C7.64946 15.8817 7.33152 15.75 7 15.75ZM17 15.75C16.6685 15.75 16.3505 15.8817 16.1161 16.1161C15.8817 16.3505 15.75 16.6685 15.75 17C15.75 17.3315 15.8817 17.6495 16.1161 17.8839C16.3505 18.1183 16.6685 18.25 17 18.25C17.3315 18.25 17.6495 18.1183 17.8839 17.8839C18.1183 17.6495 18.25 17.3315 18.25 17C18.25 16.6685 18.1183 16.3505 17.8839 16.1161C17.6495 15.8817 17.3315 15.75 17 15.75Z" fill="black"/>
</svg>
