<svg width="24" height="24" viewBox="0 0 24 24" fill="none" xmlns="http://www.w3.org/2000/svg">
<path d="M12.5 5.125C8.98047 5.125 6.125 7.98047 6.125 11.5C6.125 15.0195 8.98047 17.875 12.5 17.875C13.0877 17.875 13.5625 18.3498 13.5625 18.9375C13.5625 19.5252 13.0877 20 12.5 20C7.80508 20 4 16.1949 4 11.5C4 6.80508 7.80508 3 12.5 3C17.1949 3 21 6.80508 21 11.5V12.5625C21 14.3223 19.5723 15.75 17.8125 15.75C16.8396 15.75 15.9664 15.3117 15.382 14.6244C14.625 15.3217 13.6123 15.75 12.5 15.75C10.1525 15.75 8.25 13.8475 8.25 11.5C8.25 9.15254 10.1525 7.25 12.5 7.25C13.4264 7.25 14.283 7.54551 14.9803 8.0502C15.1695 7.88418 15.4152 7.78125 15.6875 7.78125C16.2752 7.78125 16.75 8.25605 16.75 8.84375V11.5V12.5625C16.75 13.1502 17.2248 13.625 17.8125 13.625C18.4002 13.625 18.875 13.1502 18.875 12.5625V11.5C18.875 7.98047 16.0195 5.125 12.5 5.125ZM14.625 11.5C14.625 10.9364 14.4011 10.3959 14.0026 9.9974C13.6041 9.59888 13.0636 9.375 12.5 9.375C11.9364 9.375 11.3959 9.59888 10.9974 9.9974C10.5989 10.3959 10.375 10.9364 10.375 11.5C10.375 12.0636 10.5989 12.6041 10.9974 13.0026C11.3959 13.4011 11.9364 13.625 12.5 13.625C13.0636 13.625 13.6041 13.4011 14.0026 13.0026C14.4011 12.6041 14.625 12.0636 14.625 11.5Z" fill="black"/>
</svg>
