<svg width="24" height="24" viewBox="0 0 24 24" fill="none" xmlns="http://www.w3.org/2000/svg">
<path fill-rule="evenodd" clip-rule="evenodd" d="M12 21.75C17.3848 21.75 21.75 17.3848 21.75 12C21.75 6.61522 17.3848 2.25 12 2.25C6.61522 2.25 2.25 6.61522 2.25 12C2.25 17.3848 6.61522 21.75 12 21.75ZM10 6.75C10.4142 6.75 10.75 7.08579 10.75 7.5V10.875C10.75 11.0011 10.7953 11.1069 10.8534 11.1722C10.909 11.2347 10.9641 11.25 10.9999 11.25H13.25V7.5C13.25 7.08579 13.5858 6.75 14 6.75C14.4142 6.75 14.75 7.08579 14.75 7.5V16.5C14.75 16.9142 14.4142 17.25 14 17.25C13.5858 17.25 13.25 16.9142 13.25 16.5V12.75H10.9999C10.5054 12.75 10.0518 12.5282 9.73229 12.1687C9.41536 11.8122 9.25 11.3456 9.25 10.875V7.5C9.25 7.08579 9.58579 6.75 10 6.75Z" fill="black"/>
</svg>
