<svg width="24" height="24" viewBox="0 0 24 24" fill="none" xmlns="http://www.w3.org/2000/svg">
<path fill-rule="evenodd" clip-rule="evenodd" d="M12 21.75C17.3848 21.75 21.75 17.3848 21.75 12C21.75 6.61522 17.3848 2.25 12 2.25C6.61522 2.25 2.25 6.61522 2.25 12C2.25 17.3848 6.61522 21.75 12 21.75ZM9.25 7.5C9.25 7.08579 9.58579 6.75 10 6.75H13C13.4945 6.75 13.9482 6.97178 14.2677 7.33123C14.5846 7.68781 14.75 8.15437 14.75 8.625V10.875C14.75 11.3456 14.5846 11.8122 14.2677 12.1688C13.9482 12.5282 13.4945 12.75 13 12.75H11C10.9641 12.75 10.909 12.7653 10.8535 12.8278C10.7953 12.8932 10.75 12.9989 10.75 13.125V15.375C10.75 15.5011 10.7953 15.6068 10.8535 15.6722C10.909 15.7347 10.9641 15.75 11 15.75H14C14.4142 15.75 14.75 16.0858 14.75 16.5C14.75 16.9142 14.4142 17.25 14 17.25H11C10.5055 17.25 10.0518 17.0282 9.73234 16.6688C9.41538 16.3122 9.25 15.8456 9.25 15.375V13.125C9.25 12.6544 9.41538 12.1878 9.73234 11.8312C10.0518 11.4718 10.5055 11.25 11 11.25H13C13.0359 11.25 13.091 11.2347 13.1465 11.1722C13.2047 11.1068 13.25 11.0011 13.25 10.875V8.625C13.25 8.49889 13.2047 8.39316 13.1465 8.32778C13.091 8.26527 13.0359 8.25 13 8.25H10C9.58579 8.25 9.25 7.91421 9.25 7.5Z" fill="black"/>
</svg>
