<svg width="24" height="24" viewBox="0 0 24 24" fill="none" xmlns="http://www.w3.org/2000/svg">
<path d="M9.199 11.623L9.307 11.721L13.293 15.707L13.387 15.79C13.5794 15.9391 13.8196 16.013 14.0626 15.9976C14.3056 15.9823 14.5346 15.8789 14.7067 15.7067C14.8789 15.5346 14.9823 15.3056 14.9976 15.0626C15.013 14.8196 14.9391 14.5794 14.79 14.387L14.707 14.293L14.415 14L15.707 12.707L15.813 12.612C16.27 12.232 16.731 12.232 17.199 12.623L17.307 12.721L21.809 17.224C21.5605 17.9955 21.0837 18.6734 20.4416 19.168C19.7995 19.6626 19.0224 19.9506 18.213 19.994L18 20H6C5.15317 19.9999 4.32818 19.7313 3.64372 19.2326C2.95927 18.734 2.45064 18.0311 2.191 17.225L7.707 11.707L7.813 11.612C8.27 11.232 8.731 11.232 9.199 11.623ZM18 4C19.0262 4 20.0132 4.39444 20.7568 5.10172C21.5004 5.80901 21.9437 6.77504 21.995 7.8L22 8V14.585L18.707 11.293L18.557 11.156C17.301 10.061 15.707 10.059 14.461 11.139L14.307 11.279L13 12.585L10.707 10.293L10.557 10.156C9.301 9.061 7.707 9.059 6.461 10.139L6.307 10.279L2 14.585V8C2 6.97376 2.39444 5.98677 3.10172 5.24319C3.80901 4.4996 4.77504 4.05631 5.8 4.005L6 4H18ZM15.01 7L14.883 7.007C14.64 7.03591 14.4159 7.15296 14.2534 7.33596C14.0909 7.51897 14.0011 7.75524 14.0011 8C14.0011 8.24476 14.0909 8.48103 14.2534 8.66404C14.4159 8.84704 14.64 8.96409 14.883 8.993L15 9L15.127 8.993C15.37 8.96409 15.5941 8.84704 15.7566 8.66404C15.9191 8.48103 16.0089 8.24476 16.0089 8C16.0089 7.75524 15.9191 7.51897 15.7566 7.33596C15.5941 7.15296 15.37 7.03591 15.127 7.007L15.01 7Z" fill="black"/>
</svg>
