<svg width="24" height="24" viewBox="0 0 24 24" fill="none" xmlns="http://www.w3.org/2000/svg">
<path fill-rule="evenodd" clip-rule="evenodd" d="M6 3.75C5.40326 3.75 4.83097 3.98705 4.40901 4.40901C3.98705 4.83097 3.75 5.40326 3.75 6V14.1893L7.46967 10.4697L7.47996 10.4596C8.05657 9.90471 8.75344 9.58025 9.5 9.58025C10.2466 9.58025 10.9434 9.90471 11.52 10.4596L11.5303 10.4697L14.0002 12.9396L14.4697 12.4701L14.4803 12.4597C15.3247 11.648 16.4057 11.3548 17.4533 11.7612C17.8394 11.9111 18.031 12.3456 17.8812 12.7317C17.7314 13.1179 17.2969 13.3095 16.9107 13.1597C16.4957 12.9987 16.0185 13.0644 15.5247 13.5364L15.0609 14.0002L15.5303 14.4697C15.8232 14.7626 15.8232 15.2374 15.5303 15.5303C15.2374 15.8232 14.7626 15.8232 14.4697 15.5303L13.4855 14.5461C13.4801 14.5411 13.4749 14.536 13.4697 14.5308C13.4645 14.5256 13.4593 14.5203 13.4543 14.515L10.4751 11.5358C10.1255 11.2012 9.78811 11.0802 9.5 11.0802C9.21189 11.0802 8.87454 11.2012 8.52488 11.5358L3.75 16.3107V18C3.75 18.5967 3.98705 19.169 4.40901 19.591C4.83097 20.0129 5.40326 20.25 6 20.25H12.5C12.9142 20.25 13.25 20.5858 13.25 21C13.25 21.4142 12.9142 21.75 12.5 21.75H6C5.00544 21.75 4.05161 21.3549 3.34835 20.6517C2.64509 19.9484 2.25 18.9946 2.25 18V6C2.25 5.00544 2.64509 4.05161 3.34835 3.34835C4.05161 2.64509 5.00544 2.25 6 2.25H18C18.9946 2.25 19.9484 2.64509 20.6517 3.34835C21.3549 4.05161 21.75 5.00544 21.75 6V12.5C21.75 12.9142 21.4142 13.25 21 13.25C20.5858 13.25 20.25 12.9142 20.25 12.5V6C20.25 5.40326 20.0129 4.83097 19.591 4.40901C19.169 3.98705 18.5967 3.75 18 3.75H6ZM14.25 8C14.25 7.58579 14.5858 7.25 15 7.25H15.01C15.4242 7.25 15.76 7.58579 15.76 8C15.76 8.41421 15.4242 8.75 15.01 8.75H15C14.5858 8.75 14.25 8.41421 14.25 8ZM19 15.25C19.4142 15.25 19.75 15.5858 19.75 16V18.25H22C22.4142 18.25 22.75 18.5858 22.75 19C22.75 19.4142 22.4142 19.75 22 19.75H19.75V22C19.75 22.4142 19.4142 22.75 19 22.75C18.5858 22.75 18.25 22.4142 18.25 22V19.75H16C15.5858 19.75 15.25 19.4142 15.25 19C15.25 18.5858 15.5858 18.25 16 18.25H18.25V16C18.25 15.5858 18.5858 15.25 19 15.25Z" fill="black"/>
</svg>
