<svg width="24" height="24" viewBox="0 0 24 24" fill="none" xmlns="http://www.w3.org/2000/svg">
<path fill-rule="evenodd" clip-rule="evenodd" d="M15.975 4.77076C14.4534 3.93414 12.7067 3.59893 10.9835 3.81287C9.26036 4.02681 7.64863 4.77899 6.37786 5.9623C5.10709 7.1456 4.24208 8.69969 3.90601 10.4032C3.56993 12.1068 3.77994 13.873 4.50611 15.4502C5.23229 17.0275 6.4376 18.3354 7.95042 19.1877C9.46323 20.0401 11.2064 20.3933 12.9317 20.1972C13.3433 20.1505 13.7148 20.4462 13.7616 20.8577C13.8084 21.2693 13.5126 21.6409 13.1011 21.6876C11.0621 21.9194 9.002 21.5019 7.21413 20.4946C5.42626 19.4873 4.00179 17.9416 3.14359 16.0775C2.28538 14.2135 2.03719 12.1262 2.43437 10.1129C2.83155 8.09963 3.85384 6.26298 5.35566 4.86453C6.85747 3.46608 8.76224 2.57714 10.7987 2.3243C12.8352 2.07146 14.8995 2.46761 16.6977 3.45635C18.4959 4.44508 19.9363 5.97597 20.8137 7.83102C21.6912 9.68606 21.961 11.7707 21.5847 13.788C21.5087 14.1952 21.117 14.4637 20.7099 14.3877C20.3027 14.3118 20.0341 13.9201 20.1101 13.5129C20.4285 11.806 20.2003 10.0421 19.4578 8.4724C18.7153 6.90275 17.4965 5.60738 15.975 4.77076ZM12 6.24943C12.4142 6.24943 12.75 6.58522 12.75 6.99943V11.6888L14.5303 13.4691C14.8232 13.762 14.8232 14.2369 14.5303 14.5298C14.2374 14.8227 13.7626 14.8227 13.4697 14.5298L11.4697 12.5298C11.329 12.3891 11.25 12.1983 11.25 11.9994V6.99943C11.25 6.58522 11.5858 6.24943 12 6.24943ZM16.6312 15.3468C16.8663 15.2136 17.1549 15.2173 17.3866 15.3563L22.3866 18.3563C22.6125 18.4918 22.7507 18.736 22.7507 18.9994C22.7507 19.2629 22.6125 19.507 22.3866 19.6425L17.3866 22.6425C17.1549 22.7816 16.8663 22.7852 16.6312 22.6521C16.3961 22.5189 16.2507 22.2696 16.2507 21.9994V15.9994C16.2507 15.7292 16.3961 15.4799 16.6312 15.3468ZM17.7507 17.3241V20.6748L20.543 18.9994L17.7507 17.3241Z" fill="black"/>
</svg>
