<svg width="24" height="24" viewBox="0 0 24 24" fill="none" xmlns="http://www.w3.org/2000/svg">
<path fill-rule="evenodd" clip-rule="evenodd" d="M7.35107 9.26184C7.59277 9.21839 7.84044 9.29603 8.01409 9.46968L14.5321 15.9877C14.7057 16.1613 14.7834 16.409 14.7399 16.6507C14.6965 16.8923 14.5375 17.0975 14.3143 17.1998L4.7373 21.5899C4.41244 21.7408 4.04906 21.7884 3.69625 21.7262C3.34252 21.6639 3.01654 21.4942 2.76256 21.2402C2.50859 20.9862 2.33891 20.6603 2.27656 20.3065C2.21439 19.9538 2.26197 19.5904 2.41284 19.2656L6.80194 9.68757C6.90424 9.46431 7.10936 9.30529 7.35107 9.26184Z" fill="black"/>
<path d="M19.7518 4.00052C19.7518 3.58631 19.4161 3.25052 19.0018 3.25052C18.5876 3.25052 18.2518 3.58631 18.2518 4.00052V4.25052H18.0018C17.5876 4.25052 17.2518 4.58631 17.2518 5.00052C17.2518 5.41474 17.5876 5.75052 18.0018 5.75052H18.2518V6.00052C18.2518 6.41474 18.5876 6.75052 19.0018 6.75052C19.4161 6.75052 19.7518 6.41474 19.7518 6.00052V5.75052H20.0018C20.4161 5.75052 20.7518 5.41474 20.7518 5.00052C20.7518 4.58631 20.4161 4.25052 20.0018 4.25052H19.7518V4.00052Z" fill="black"/>
<path fill-rule="evenodd" clip-rule="evenodd" d="M20.7296 12.3188C20.8301 12.7206 20.5858 13.1278 20.1839 13.2283L18.1839 13.7283C17.7821 13.8288 17.3749 13.5844 17.2744 13.1826C17.174 12.7808 17.4183 12.3736 17.8201 12.2731L19.8201 11.7731C20.222 11.6726 20.6292 11.917 20.7296 12.3188Z" fill="black"/>
<path fill-rule="evenodd" clip-rule="evenodd" d="M15.5322 8.47019C15.8251 8.76309 15.8251 9.23796 15.5322 9.53086L14.5322 10.5309C14.2393 10.8237 13.7644 10.8237 13.4715 10.5309C13.1786 10.238 13.1786 9.76309 13.4715 9.47019L14.4715 8.47019C14.7644 8.1773 15.2393 8.1773 15.5322 8.47019Z" fill="black"/>
<path fill-rule="evenodd" clip-rule="evenodd" d="M11.6839 3.2731C12.0858 3.37356 12.3301 3.78076 12.2296 4.1826L11.7296 6.1826C11.6292 6.58445 11.222 6.82877 10.8201 6.72831C10.4183 6.62785 10.174 6.22065 10.2744 5.8188L10.7744 3.8188C10.8749 3.41695 11.2821 3.17263 11.6839 3.2731Z" fill="black"/>
<path d="M19.7296 17.5533C19.7296 17.1391 19.3938 16.8033 18.9796 16.8033C18.5654 16.8033 18.2296 17.1391 18.2296 17.5533V17.8033H17.9796C17.5654 17.8033 17.2296 18.1391 17.2296 18.5533C17.2296 18.9675 17.5654 19.3033 17.9796 19.3033H18.2296V19.5533C18.2296 19.9675 18.5654 20.3033 18.9796 20.3033C19.3938 20.3033 19.7296 19.9675 19.7296 19.5533V19.3033H19.9796C20.3938 19.3033 20.7296 18.9675 20.7296 18.5533C20.7296 18.1391 20.3938 17.8033 19.9796 17.8033H19.7296V17.5533Z" fill="black"/>
<path d="M4.5 3.75C4.5 3.33579 4.16421 3 3.75 3C3.33579 3 3 3.33579 3 3.75V4H2.75C2.33579 4 2 4.33579 2 4.75C2 5.16421 2.33579 5.5 2.75 5.5H3V5.75C3 6.16421 3.33579 6.5 3.75 6.5C4.16421 6.5 4.5 6.16421 4.5 5.75V5.5H4.75C5.16421 5.5 5.5 5.16421 5.5 4.75C5.5 4.33579 5.16421 4 4.75 4H4.5V3.75Z" fill="black"/>
</svg>
