<svg width="24" height="24" viewBox="0 0 24 24" fill="none" xmlns="http://www.w3.org/2000/svg">
<path d="M10.0665 10.3609C9.8718 10.1716 9.76646 9.91948 9.76646 9.66119C9.76646 9.41287 9.86383 9.17023 10.0443 8.98368L11.7219 10.6612H10.8165C10.5313 10.6612 10.2619 10.5508 10.0665 10.3609Z" fill="black"/>
<path d="M3.40227 8.3059C2.94071 9.40064 2.70046 10.5759 2.69539 11.764C2.69032 12.952 2.92053 14.1293 3.37273 15.228C3.82493 16.3266 4.49018 17.3248 5.3301 18.1651C6.17002 19.0054 7.168 19.671 8.26646 20.1236C9.36492 20.5763 10.5421 20.8069 11.7302 20.8023C12.9182 20.7977 14.0936 20.5579 15.1885 20.0968C16.0538 19.7324 16.8552 19.2355 17.5646 18.6253L20.2197 21.2803C20.5126 21.5732 20.9874 21.5732 21.2803 21.2803C21.5732 20.9874 21.5732 20.5126 21.2803 20.2197L15.4421 14.3814C15.3267 14.5838 15.1824 14.7708 15.0121 14.9364C14.5323 15.4028 13.8861 15.6612 13.2165 15.6612H12.8211V17.4151C12.8211 17.8293 12.4854 18.1651 12.0711 18.1651C11.6569 18.1651 11.3211 17.8293 11.3211 17.4151V15.6612C11.3107 15.6612 10.7955 15.661 10.785 15.6605C10.2811 15.6394 9.79329 15.4721 9.3844 15.1776C8.97528 14.883 8.66303 14.4737 8.49136 14.0001C8.35019 13.6107 8.55144 13.1806 8.94085 13.0394C9.33027 12.8983 9.76039 13.0995 9.90156 13.4889C9.96874 13.6742 10.0927 13.8392 10.261 13.9604C10.4259 14.0792 10.6252 14.1498 10.8342 14.1612H13.2165C13.5016 14.1612 13.771 14.0508 13.9664 13.8609C14.1501 13.6823 14.2543 13.4477 14.2655 13.2048L13.2165 12.1612H10.8165C10.1469 12.1612 9.50059 11.9028 9.02086 11.4364C8.5404 10.9693 8.26646 10.3312 8.26646 9.66119C8.26646 9.00873 8.52628 8.38648 8.98363 7.92297L3.28033 2.21967C2.98744 1.92678 2.51256 1.92678 2.21967 2.21967C1.92678 2.51256 1.92678 2.98744 2.21967 3.28033L4.87244 5.9331C4.26296 6.64161 3.76654 7.44192 3.40227 8.3059Z" fill="black"/>
<path d="M19.7896 15.7956C20.6417 14.1045 20.9386 12.1877 20.6381 10.318C20.3376 8.44838 19.4551 6.72114 18.1161 5.38214C16.7771 4.04314 15.0498 3.1606 13.1802 2.86013C11.3105 2.55965 9.39376 2.85656 7.70263 3.70858L11.1552 7.16119H11.3211V5.4151C11.3211 5.00088 11.6569 4.6651 12.0711 4.6651C12.4854 4.6651 12.8211 5.00088 12.8211 5.4151V7.16119C12.8316 7.16119 13.2374 7.16141 13.2479 7.16185C13.7518 7.183 14.2396 7.35027 14.6485 7.64473C15.0576 7.93937 15.3699 8.34869 15.5416 8.82225C15.6827 9.21167 15.4815 9.64179 15.0921 9.78296C14.7027 9.92413 14.2725 9.72288 14.1314 9.33347C14.0642 9.14814 13.9402 8.98314 13.7719 8.86194C13.607 8.74316 13.4077 8.67257 13.1987 8.66119H12.6552L19.7896 15.7956Z" fill="black"/>
</svg>
