<svg width="24" height="24" viewBox="0 0 24 24" fill="none" xmlns="http://www.w3.org/2000/svg">
<path fill-rule="evenodd" clip-rule="evenodd" d="M12 21.75C17.3848 21.75 21.75 17.3848 21.75 12C21.75 6.61522 17.3848 2.25 12 2.25C6.61522 2.25 2.25 6.61522 2.25 12C2.25 17.3848 6.61522 21.75 12 21.75ZM12.8355 6.82918C13.0895 6.95623 13.25 7.21593 13.25 7.5V16.5C13.25 16.9142 12.9143 17.25 12.5 17.25C12.0858 17.25 11.75 16.9142 11.75 16.5V9L9.95004 10.35C9.61867 10.5985 9.14857 10.5314 8.90004 10.2C8.65152 9.86863 8.71867 9.39853 9.05004 9.15L12.05 6.9C12.2773 6.72956 12.5814 6.70214 12.8355 6.82918Z" fill="black"/>
</svg>
