<svg width="46" height="16" viewBox="0 0 46 16" fill="none" xmlns="http://www.w3.org/2000/svg">
<path d="M7.12018 2.0628C6.66347 2.60324 5.93274 3.0295 5.20201 2.9686C5.11066 2.23787 5.46842 1.46147 5.88707 0.981922C6.34377 0.426261 7.14301 0.0304472 7.79002 0C7.86613 0.76118 7.56927 1.50714 7.12018 2.0628ZM7.7824 3.11323C6.72436 3.05233 5.81856 3.71456 5.31618 3.71456C4.80619 3.71456 4.0374 3.14367 3.2001 3.1589C2.11161 3.17412 1.09925 3.79068 0.543585 4.7726C-0.598185 6.73644 0.246725 9.64415 1.35044 11.2426C1.89087 12.0343 2.53788 12.902 3.3904 12.8716C4.19725 12.8411 4.51694 12.3463 5.49125 12.3463C6.47317 12.3463 6.75481 12.8716 7.60733 12.8563C8.4903 12.8411 9.04596 12.0647 9.5864 11.2731C10.203 10.3749 10.4541 9.49952 10.4694 9.45385C10.4541 9.43863 8.76433 8.79163 8.7491 6.84301C8.73388 5.21408 10.0812 4.43768 10.1421 4.39201C9.38088 3.26546 8.19344 3.14367 7.7824 3.11323ZM13.8947 0.905804V12.7726H15.7367V8.71551H18.2867C20.6159 8.71551 22.2524 7.11703 22.2524 4.80304C22.2524 2.48906 20.6463 0.905804 18.3476 0.905804H13.8947ZM15.7367 2.45861H17.8604C19.4589 2.45861 20.3723 3.31113 20.3723 4.81066C20.3723 6.31018 19.4589 7.17031 17.8528 7.17031H15.7367V2.45861ZM25.6168 12.8639C26.7738 12.8639 27.8471 12.2778 28.3343 11.3492H28.3723V12.7726H30.0774V6.86584C30.0774 5.15319 28.7072 4.04948 26.5988 4.04948C24.6425 4.04948 23.1963 5.16841 23.143 6.70599H24.8024C24.9394 5.97526 25.6168 5.49572 26.5455 5.49572C27.672 5.49572 28.3038 6.02093 28.3038 6.98763V7.64225L26.005 7.77926C23.8661 7.90866 22.7091 8.78401 22.7091 10.3064C22.7091 11.844 23.9042 12.8639 25.6168 12.8639ZM26.1116 11.4558C25.1297 11.4558 24.5055 10.9838 24.5055 10.2607C24.5055 9.51475 25.1069 9.08088 26.2562 9.01237L28.3038 8.88297V9.55281C28.3038 10.6641 27.3599 11.4558 26.1116 11.4558ZM32.3533 16C34.1497 16 34.9946 15.3149 35.7329 13.2369L38.9679 4.16365H37.0954L34.9261 11.1741H34.888L32.7187 4.16365H30.7929L33.9137 12.803L33.7462 13.3283C33.4646 14.2188 33.0079 14.5614 32.1934 14.5614C32.0488 14.5614 31.7672 14.5461 31.653 14.5309V15.9543C31.7596 15.9848 32.2163 16 32.3533 16Z" fill="black"/>
</svg>
