<svg width="46" height="18" viewBox="0 0 46 18" fill="none" xmlns="http://www.w3.org/2000/svg">
<g clip-path="url(#clip0_3812_39267)">
<path d="M19.2165 9.34004V14.2219H17.6914V2.14844H21.6566C22.6225 2.14844 23.5375 2.51589 24.2492 3.19831C24.9609 3.82823 25.3168 4.77311 25.3168 5.77048C25.3168 6.76786 24.9609 7.66025 24.2492 8.34266C23.5375 9.02508 22.6733 9.39253 21.6566 9.39253L19.2165 9.34004ZM19.2165 3.61825V7.81773H21.7583C22.3175 7.81773 22.8767 7.60776 23.2325 7.18781C24.0459 6.40041 24.0459 5.08807 23.2833 4.30067L23.2325 4.24818C22.8258 3.82823 22.3175 3.56576 21.7583 3.61825H19.2165Z" fill="#5F6368"/>
<path d="M28.8241 5.71875C29.9425 5.71875 30.8067 6.03371 31.4675 6.66363C32.1284 7.29355 32.4334 8.13345 32.4334 9.18332V14.2227H31.01V13.0678H30.9592C30.3491 14.0127 29.4849 14.4852 28.4682 14.4852C27.604 14.4852 26.8415 14.2227 26.2314 13.6978C25.6723 13.1728 25.3164 12.4379 25.3164 11.6505C25.3164 10.8106 25.6214 10.1282 26.2314 9.60326C26.8415 9.07833 27.7057 8.86836 28.7224 8.86836C29.6374 8.86836 30.3491 9.02584 30.9083 9.39329V9.02584C30.9083 8.5009 30.705 7.97597 30.2983 7.66101C29.8916 7.29355 29.3833 7.08358 28.8241 7.08358C27.9599 7.08358 27.299 7.45103 26.8415 8.18594L25.5198 7.34605C26.3331 6.24368 27.4007 5.71875 28.8241 5.71875ZM26.8923 11.703C26.8923 12.123 27.0957 12.4904 27.4007 12.7004C27.7565 12.9628 28.1632 13.1203 28.5699 13.1203C29.1799 13.1203 29.79 12.8579 30.2475 12.3854C30.7558 11.913 31.01 11.3355 31.01 10.7056C30.5525 10.3382 29.8916 10.1282 29.0274 10.1282C28.4174 10.1282 27.909 10.2857 27.5023 10.6006C27.0957 10.8631 26.8923 11.2306 26.8923 11.703Z" fill="#5F6368"/>
<path d="M40.6707 5.98047L35.6379 17.8965H34.1129L35.9938 13.7495L32.6895 6.03296H34.3162L36.7055 11.9647H36.7563L39.0948 6.03296H40.6707V5.98047Z" fill="#5F6368"/>
<path d="M13.1651 8.29037C13.1651 7.81793 13.1143 7.34549 13.0635 6.87305H6.70898V9.55021H10.3183C10.1658 10.3901 9.70829 11.1775 8.99659 11.65V13.3822H11.1825C12.4534 12.1749 13.1651 10.3901 13.1651 8.29037Z" fill="#4285F4"/>
<path d="M6.71346 15.0621C8.54355 15.0621 10.0686 14.4322 11.187 13.3823L9.00107 11.65C8.39104 12.07 7.62851 12.3325 6.71346 12.3325C4.98505 12.3325 3.45997 11.1251 2.95162 9.44531H0.714844V11.2301C1.88407 13.5923 4.17168 15.0621 6.71346 15.0621Z" fill="#34A853"/>
<path d="M2.94946 9.44632C2.64445 8.60642 2.64445 7.66154 2.94946 6.76915V4.98438H0.712691C-0.253189 6.92663 -0.253189 9.23634 0.712691 11.2311L2.94946 9.44632Z" fill="#FBBC04"/>
<path d="M6.71145 3.93561C7.67733 3.93561 8.59238 4.30306 9.30408 4.98548L11.2358 2.99073C10.0158 1.83587 8.38903 1.15346 6.76229 1.20595C4.2205 1.20595 1.88206 2.67577 0.763672 5.03797L3.00045 6.82275C3.45797 5.14296 4.98304 3.93561 6.71145 3.93561Z" fill="#EA4335"/>
</g>
<defs>
<clipPath id="clip0_3812_39267">
<rect width="46" height="18" fill="white"/>
</clipPath>
</defs>
</svg>
