<svg width="93" height="16" viewBox="0 0 93 16" fill="none" xmlns="http://www.w3.org/2000/svg">
<g clip-path="url(#clip0_3813_41154)">
<path d="M21.4267 15.7677H17.4219L19.9268 0.279297H23.9314L21.4267 15.7677Z" fill="#00579F"/>
<path d="M35.943 0.657451C35.1531 0.344064 33.9002 -0.00195312 32.351 -0.00195312C28.3962 -0.00195312 25.6112 2.107 25.5941 5.12217C25.5612 7.34675 27.588 8.58234 29.104 9.32408C30.6534 10.082 31.1801 10.5768 31.1801 11.2524C31.1643 12.29 29.928 12.7683 28.775 12.7683C27.1761 12.7683 26.3194 12.5217 25.0175 11.9444L24.4901 11.6969L23.9297 15.1737C24.869 15.6017 26.5995 15.9814 28.3962 15.9981C32.5983 15.9981 35.334 13.9217 35.3664 10.7086C35.3824 8.94544 34.3122 7.59444 32.0048 6.49047C30.6041 5.78179 29.7463 5.30393 29.7463 4.57883C29.7627 3.91965 30.4718 3.24448 32.053 3.24448C33.3549 3.21141 34.3115 3.52435 35.0362 3.83752L35.3984 4.00199L35.943 0.657451Z" fill="#00579F"/>
<path d="M41.2664 10.2807C41.5962 9.39093 42.8653 5.94719 42.8653 5.94719C42.8487 5.98026 43.1945 5.04097 43.3922 4.46435L43.6721 5.79893C43.6721 5.79893 44.4305 9.50635 44.5952 10.2807C43.9693 10.2807 42.0574 10.2807 41.2664 10.2807ZM46.2099 0.279297H43.1121C42.1569 0.279297 41.4311 0.559176 41.019 1.56438L35.0703 15.7675H39.2724C39.2724 15.7675 39.9643 13.8559 40.113 13.4442C40.574 13.4442 44.6618 13.4442 45.2548 13.4442C45.3698 13.9879 45.7327 15.7675 45.7327 15.7675H49.4407L46.2099 0.279297Z" fill="#00579F"/>
<path d="M14.079 0.279297L10.1569 10.8409L9.72834 8.6989C9.00323 6.22729 6.72916 3.54193 4.19141 2.2067L7.78385 15.7513H12.0188L18.3137 0.279297H14.079Z" fill="#00579F"/>
<path d="M6.51319 0.279297H0.0698244L0.00390625 0.592245C5.03013 1.87755 8.3589 4.97571 9.72655 8.69956L8.32584 1.58124C8.09523 0.592026 7.38655 0.311928 6.51319 0.279297Z" fill="#FAA61A"/>
</g>
<g clip-path="url(#clip1_3813_41154)">
<path d="M82.4918 1.70703H75.3559V14.2844H82.4918V1.70703Z" fill="#FF5A00"/>
<path d="M75.8314 7.99609C75.8314 5.44075 77.0559 3.17279 78.9349 1.70742C77.5521 0.640754 75.8077 -0.00390625 73.905 -0.00390625C69.3975 -0.00390625 65.7504 3.57409 65.7504 7.99609C65.7504 12.4181 69.3975 15.9961 73.905 15.9961C75.8077 15.9961 77.5521 15.3514 78.9349 14.2848C77.0533 12.8401 75.8314 10.5514 75.8314 7.99609Z" fill="#EB001B"/>
<path d="M92.1185 7.99609C92.1185 12.4181 88.4714 15.9961 83.964 15.9961C82.0613 15.9961 80.3169 15.3514 78.934 14.2848C80.8368 12.8168 82.0375 10.5514 82.0375 7.99609C82.0375 5.44075 80.813 3.17279 78.934 1.70742C80.3142 0.640754 82.0586 -0.00390625 83.9613 -0.00390625C88.4714 -0.00390625 92.1185 3.59739 92.1185 7.99609Z" fill="#F79E1B"/>
</g>
<defs>
<clipPath id="clip0_3813_41154">
<rect width="49.4379" height="16" fill="white"/>
</clipPath>
<clipPath id="clip1_3813_41154">
<rect width="27" height="16" fill="white" transform="translate(65.4379 -0.00195312)"/>
</clipPath>
</defs>
</svg>
