<svg width="120" height="18" viewBox="0 0 120 18" fill="none" xmlns="http://www.w3.org/2000/svg">
<g clip-path="url(#clip0_4063_27183)">
<path d="M0.599609 13.3899V13.767C0.599609 13.767 0.693904 13.767 0.788199 13.767C0.882494 13.767 1.35397 13.6727 1.91974 13.6727C2.4855 13.6727 3.05127 13.767 3.14557 13.767C3.23986 13.767 3.42845 13.767 3.42845 13.6727C3.42845 13.5784 3.33416 13.4842 3.23986 13.4842C3.14557 13.4842 2.67409 13.2013 2.5798 12.8241C2.5798 12.4469 2.5798 11.9754 2.67409 11.6926L4.18281 3.20602L9.36902 13.6727C9.36902 13.6727 9.36902 13.767 9.46332 13.767C9.55761 13.767 9.55761 13.6727 9.55761 13.6727L14.2724 3.30032C14.2724 3.30032 14.2724 3.20602 14.3666 3.20602C14.4609 3.20602 14.4609 3.39461 14.4609 3.39461L16.064 12.7298C16.064 12.8241 16.064 13.2013 15.9697 13.3899C15.7811 13.6727 15.5925 13.767 15.5925 13.8613C15.5925 13.9556 15.6868 13.9556 15.9697 13.9556C16.064 13.9556 16.724 13.8613 17.1955 13.8613C17.5727 13.8613 18.4213 13.9556 18.7042 13.9556C18.8928 13.9556 18.9871 13.9556 18.9871 13.8613C18.9871 13.767 18.8928 13.6727 18.7985 13.6727C18.7042 13.6727 18.0441 13.4842 17.8556 12.9184C17.667 12.3526 17.667 12.0697 17.667 12.0697L15.8754 1.69731C15.8754 1.50872 15.8754 1.03724 16.1582 0.848653C16.4411 0.660063 16.8183 0.565769 17.0069 0.565769C17.1955 0.565769 17.1955 0.471474 17.1955 0.377179C17.1955 0.282884 17.1955 0.18859 17.0069 0.18859C16.8183 0.18859 15.8754 0.18859 15.5925 0.18859C15.3096 0.18859 14.4609 0.18859 14.3666 0.18859C14.2724 0.18859 14.1781 0.282884 14.1781 0.377179C14.1781 0.471474 14.2724 0.848653 14.2724 1.13154C14.1781 1.41442 10.0291 10.6553 10.0291 10.6553C10.0291 10.6553 10.0291 10.7496 9.93479 10.7496C9.8405 10.7496 9.8405 10.6553 9.8405 10.6553C9.8405 10.6553 5.12576 1.32013 5.12576 1.03724C5.12576 0.848653 5.12576 0.565769 5.12576 0.471474C5.12576 0.377179 5.12576 0.282884 5.12576 0.18859C5.12576 0.0942948 5.03146 0 4.93717 0C4.84287 0 4.27711 0.0942948 4.08852 0.0942948C3.89993 0.0942948 2.76839 0.0942948 2.5798 0.0942948C2.39121 0.0942948 2.01403 0.0942948 1.91974 0.0942948C1.82544 0.0942948 1.82544 0.18859 1.82544 0.282884C1.82544 0.377179 1.91974 0.377179 2.10833 0.471474C2.39121 0.471474 3.05127 0.848653 3.14557 1.13154C3.23986 1.41442 3.23986 1.7916 3.14557 2.16878C3.23986 2.54596 1.44826 12.164 1.44826 12.164C1.44826 12.164 1.25967 12.8241 1.16538 13.0127C0.882494 13.3899 0.599609 13.3899 0.599609 13.3899Z" fill="#756479"/>
<path d="M24.4567 10.2783C24.4567 10.2783 23.608 12.1642 23.608 12.3528C23.5137 12.4471 23.4194 12.73 23.4194 12.9186C23.4194 13.2015 23.5137 13.39 23.5137 13.5786C23.5137 13.6729 23.608 13.7672 23.5137 13.8615C23.5137 13.9558 23.3251 13.8615 23.2308 13.8615C23.1366 13.8615 22.6651 13.7672 22.3822 13.7672C22.0993 13.7672 21.345 13.8615 21.2507 13.9558C21.0621 14.0501 21.0621 13.9558 20.9678 13.8615C20.9678 13.7672 20.9678 13.7672 21.1564 13.6729C21.345 13.5786 21.5335 13.4843 21.8164 13.2015C22.1936 12.9186 22.3822 12.3528 22.3822 12.3528L27.6627 0.377367C27.6627 0.377367 27.757 0.0944824 27.8513 0.0944824C27.9456 0.0944824 28.0399 0.188777 28.0399 0.188777C28.0399 0.188777 32.8489 11.5041 32.9432 11.787C33.0375 12.0699 33.3204 12.5414 33.6033 12.9186C33.8862 13.2957 34.3576 13.5786 34.4519 13.5786C34.5462 13.5786 34.7348 13.6729 34.6405 13.8615C34.6405 14.0501 34.169 13.8615 33.8862 13.8615C33.6033 13.8615 33.1318 13.7672 32.8489 13.7672C32.566 13.7672 31.8117 13.8615 31.7174 13.8615C31.6231 13.8615 31.5288 13.9558 31.4345 13.8615C31.3402 13.7672 31.4345 13.6729 31.5288 13.5786C31.6231 13.4843 31.7174 13.1072 31.7174 13.0129C31.7174 12.9186 31.6231 12.5414 31.6231 12.5414L30.6801 10.2783H24.4567ZM24.8339 9.42966H30.303H30.3973L27.757 2.92333C27.757 2.92333 27.757 2.82903 27.6627 2.82903L27.5684 2.92333L24.8339 9.42966Z" fill="#756479"/>
<path d="M38.5066 0.188777C38.4123 0.188777 38.2237 0.0944824 38.1294 0.188777C38.0352 0.188777 38.0352 0.283072 38.0352 0.377367C38.0352 0.471662 38.2237 0.565956 38.318 0.565956C38.4123 0.565956 38.9781 0.943135 38.9781 1.41461C38.9781 1.79179 38.9781 12.6357 38.9781 12.6357C38.9781 12.8243 38.7895 13.2958 38.5066 13.39C38.318 13.4843 38.0352 13.5786 38.0352 13.6729C38.0352 13.7672 38.0352 13.8615 38.318 13.8615C38.6009 13.8615 39.1667 13.7672 39.6382 13.7672C40.1096 13.7672 40.5811 13.7672 40.864 13.8615C41.0526 13.8615 41.4298 13.9558 41.5241 13.8615C41.6184 13.7672 41.6184 13.6729 41.5241 13.6729C41.4298 13.5786 41.0526 13.4843 40.9583 13.39C40.864 13.2958 40.6754 13.0129 40.6754 12.73V1.5089C40.6754 1.32031 40.6754 0.660251 42.0898 0.660251C42.7499 0.660251 44.9187 1.03743 44.9187 3.77198C44.9187 5.94076 43.3157 6.978 42.1841 6.978C41.8069 6.978 41.4298 6.978 41.4298 6.978C41.4298 7.0723 41.5241 7.16659 41.5241 7.16659C41.6184 7.35518 43.8814 10.184 44.1643 10.4669C44.4472 10.8441 45.9559 12.8243 47.1817 13.2958C47.5589 13.4843 48.0304 13.6729 49.4448 13.5786C49.6334 13.5786 49.6334 13.4843 49.6334 13.39C49.6334 13.39 49.6334 13.2958 49.5391 13.2958C49.4448 13.2958 48.7848 13.2958 48.1247 12.9186C47.4646 12.5414 47.276 12.2585 46.7103 11.5041C46.3331 11.2213 43.5043 7.54377 43.5043 7.54377C43.5043 7.54377 43.3157 7.35518 43.5043 7.35518C43.5985 7.35518 46.4274 6.60082 46.4274 3.58339C46.4274 3.20621 46.3331 0.0944824 42.2784 0.0944824C41.6184 0.0944824 40.1096 0.283072 39.8268 0.283072C39.4496 0.283072 38.6009 0.188777 38.5066 0.188777Z" fill="#756479"/>
<path d="M50.1982 0.283011C50.1982 0.188716 50.3868 0.188716 50.5754 0.188716C50.6697 0.188716 51.4241 0.283011 51.8956 0.283011C52.367 0.283011 53.2157 0.283011 53.4043 0.188716C53.5929 0.0944216 53.7814 0.188716 53.7814 0.283011C53.7814 0.377306 53.5929 0.565895 53.5929 0.565895C53.4986 0.66019 53.31 0.943075 53.31 1.13166C53.31 1.32025 53.4043 1.50884 53.4986 1.69743C53.5929 1.88602 57.6475 11.0326 57.6475 11.0326C57.6475 11.0326 57.6475 11.1269 57.7418 11.1269C57.8361 11.1269 57.8361 10.9383 57.8361 10.9383L62.8337 1.69743C62.8337 1.69743 62.928 1.60314 62.928 1.13166C62.928 0.84878 62.8337 0.754485 62.8337 0.66019C62.7394 0.471601 62.5509 0.377306 62.5509 0.283011C62.6452 0.0944216 62.8337 0.188716 63.0223 0.188716C63.2109 0.188716 63.3052 0.188716 63.3995 0.188716C63.4938 0.188716 65.0968 0.283011 65.1911 0.188716C65.2854 0.188716 65.6626 0.0944216 65.6626 0.283011C65.6626 0.471601 65.5683 0.471601 65.3797 0.565895C65.1911 0.66019 64.531 1.13166 63.871 2.2632C63.6824 2.64038 56.1388 16.6903 56.1388 16.6903C55.9502 16.9732 55.1959 18.0104 54.7244 18.0104H53.2157C53.2157 18.0104 53.97 17.8218 54.3472 17.4447C54.5358 17.2561 54.8187 16.8789 55.0073 16.5017C55.1959 16.2188 56.7046 13.2957 56.7046 13.2957C56.7046 13.2957 56.7046 13.2014 56.6103 13.0128C56.516 12.8242 51.9898 2.64038 51.9898 2.64038C51.9898 2.54609 51.8013 2.16891 51.5184 1.69743C51.2355 1.32025 50.764 0.84878 50.5754 0.66019C50.3868 0.471601 50.1982 0.377306 50.1982 0.283011Z" fill="#756479"/>
<path d="M100.741 0.282964C100.741 0.188669 100.93 0.188669 101.118 0.188669C101.213 0.188669 101.967 0.282964 102.439 0.282964C102.91 0.282964 103.759 0.282964 103.947 0.188669C104.136 0.0943745 104.324 0.188669 104.324 0.282964C104.324 0.377259 104.136 0.565848 104.136 0.565848C104.042 0.660143 103.853 0.943027 103.853 1.13162C103.853 1.32021 103.947 1.5088 104.042 1.69739C104.136 1.88598 108.19 11.0326 108.19 11.0326C108.19 11.0326 108.19 11.1269 108.285 11.1269C108.379 11.1269 108.379 10.9383 108.379 10.9383L113.377 1.60309C113.377 1.60309 113.471 1.5088 113.471 1.03732C113.471 0.754438 113.377 0.660143 113.282 0.565848C113.188 0.377259 113 0.282964 113 0.188669C113.094 7.96989e-05 113.282 0.0943745 113.471 0.0943745C113.66 0.0943745 113.754 0.0943745 113.848 0.0943745C113.942 0.0943745 115.545 0.188669 115.64 0.0943745C115.734 0.0943745 116.111 7.96989e-05 116.111 0.188669C116.111 0.377259 116.017 0.377259 115.828 0.471554C115.64 0.565848 114.98 1.03732 114.32 2.16886C114.131 2.54604 106.587 16.596 106.587 16.596C106.399 16.8788 105.645 17.9161 105.173 17.9161H103.664C103.664 17.9161 104.419 17.7275 104.796 17.3503C104.984 17.1617 105.267 16.7845 105.456 16.4074C105.645 16.1245 107.153 13.2013 107.153 13.2013C107.153 13.2013 107.153 13.1071 107.059 12.9185C106.965 12.7299 102.439 2.54604 102.439 2.54604C102.439 2.45174 102.25 2.07456 101.967 1.60309C101.684 1.22591 101.213 0.754438 101.024 0.565848C100.836 0.471554 100.741 0.377259 100.741 0.282964Z" fill="#756479"/>
<path d="M118.657 2.54594V2.64023H118.374C118.374 2.64023 118.091 2.26305 117.997 1.98017C117.903 1.88588 117.809 1.88588 117.809 1.88588H117.431V2.73453H117.148V0.848633C117.148 0.848633 117.997 0.848633 118.091 0.848633C118.186 0.848633 118.563 0.942928 118.563 1.32011C118.563 1.69729 118.186 1.79158 118.186 1.79158C118.091 1.79158 118.186 1.88588 118.186 1.88588C118.28 1.98017 118.657 2.54594 118.657 2.54594ZM117.337 1.03722V1.69729H117.997C117.997 1.69729 118.28 1.69729 118.28 1.32011C118.28 1.13152 118.091 1.03722 117.997 1.03722C117.903 1.03722 117.337 1.03722 117.337 1.03722Z" fill="#756479"/>
<path d="M74.8093 0.283072C74.8093 0.188777 74.9036 0.188777 74.9979 0.188777C75.0922 0.188777 75.6579 0.188777 75.7522 0.283072C75.8465 0.283072 76.7895 0.283072 77.0723 0.283072C77.3552 0.283072 77.7324 0.188777 77.921 0.188777C78.0153 0.188777 78.1096 0.188777 78.1096 0.283072C78.1096 0.377367 78.1096 0.377367 78.0153 0.471662C77.921 0.471662 77.8267 0.471661 77.6381 0.660251C77.4495 0.848841 77.3552 1.03743 77.3552 1.22602V12.5414C77.3552 12.8243 77.5438 13.1072 77.6381 13.2015C77.7324 13.39 78.1096 13.4843 78.1096 13.4843C78.2039 13.4843 78.2982 13.5786 78.2982 13.6729C78.2982 13.7672 78.1096 13.8615 78.0153 13.7672C77.8267 13.7672 77.0723 13.6729 76.6009 13.6729C76.1294 13.6729 75.4693 13.6729 75.1865 13.7672C74.9979 13.7672 74.9036 13.7672 74.9036 13.6729C74.9036 13.5786 74.9036 13.4843 74.9979 13.4843C75.0922 13.4843 75.375 13.2958 75.5636 13.2015C75.7522 13.0129 75.8465 12.6357 75.8465 12.5414V1.22602C75.8465 0.943135 75.375 0.660251 75.2807 0.660251C75.1865 0.660251 74.715 0.471662 74.8093 0.283072ZM90.4622 9.52396H95.9313C95.9313 9.52396 96.0256 9.52396 95.9313 9.42966C95.837 9.33537 93.2911 3.20621 93.2911 3.20621C93.2911 3.20621 93.291 3.01762 93.1968 3.01762C93.1025 3.01762 93.1025 3.20621 93.1025 3.20621L90.4622 9.42966C90.5565 9.33537 90.4622 9.52396 90.4622 9.52396ZM82.73 0.188777C82.8243 0.0944824 83.1072 0.188777 83.2958 0.188777C83.4844 0.188777 84.4273 0.188777 84.6159 0.188777C84.8045 0.188777 84.9931 0.0944824 85.1817 0.0944824C85.276 0.0944824 85.3703 0.0944824 85.4646 0.283072C85.4646 0.377367 85.3703 0.471662 85.1817 0.471662C84.9931 0.471662 84.5216 0.660251 84.1445 0.848841C83.7673 1.03743 83.2015 1.5089 83.0129 1.69749C82.8243 1.88608 79.4297 5.46929 79.4297 5.46929C79.4297 5.46929 79.2411 5.65787 79.2411 5.75217C79.2411 5.84646 79.3354 5.94076 79.3354 5.94076C79.3354 5.94076 84.6159 12.1642 84.8988 12.4471C85.1817 12.73 86.0304 13.4843 86.6904 13.4843C87.822 13.4843 88.1048 12.4471 88.2934 12.0699L93.4796 0.377367C93.4796 0.377367 93.5739 0.188777 93.6682 0.188777C93.8568 0.188777 93.8568 0.377367 93.8568 0.377367C93.8568 0.377367 98.8544 12.0699 98.8544 12.1642C98.9487 12.2585 99.043 12.6357 99.3259 13.0129C99.6088 13.39 100.08 13.6729 100.175 13.6729C100.269 13.7672 100.363 13.6729 100.363 13.8615C100.363 14.0501 100.08 14.0501 99.8917 13.9558C99.7031 13.8615 99.043 13.8615 98.6659 13.8615C98.2887 13.8615 97.7229 13.8615 97.6286 13.9558C97.44 14.0501 97.3457 14.0501 97.2514 13.9558C97.1571 13.8615 97.2514 13.6729 97.3457 13.4843C97.44 13.2958 97.44 12.9186 97.44 12.8243C97.44 12.73 96.4971 10.4669 96.4971 10.4669H90.1793C90.1793 10.4669 89.2364 12.73 89.1421 12.8243C89.0478 13.0129 89.0478 13.2015 89.1421 13.39C89.2364 13.5786 89.3307 13.7672 89.3307 13.8615C89.3307 13.9558 89.1421 13.9558 88.9535 13.9558C88.7649 13.9558 88.482 13.8615 88.1991 13.8615C87.9163 13.8615 87.6334 13.8615 86.7847 13.8615C84.3331 13.8615 83.3901 12.4471 82.1643 11.3156C81.6928 10.8441 77.7324 6.41223 77.7324 6.41223L77.6381 6.31794C77.6381 6.22364 77.7324 6.22364 77.7324 6.22364C77.7324 6.22364 82.07 1.69749 82.1643 1.6032C82.3529 1.41461 82.5414 1.22602 82.6357 1.03743C82.6357 0.754546 82.6357 0.471662 82.6357 0.377367C82.6357 0.377367 82.6357 0.283072 82.73 0.188777Z" fill="#756479"/>
<path d="M116.111 1.7916C116.111 0.848653 116.866 0 117.903 0C118.94 0 119.695 0.754358 119.695 1.7916C119.695 2.73455 118.94 3.5832 117.903 3.5832C116.866 3.5832 116.111 2.73455 116.111 1.7916ZM116.3 1.7916C116.3 2.64025 116.96 3.30032 117.809 3.30032C118.657 3.30032 119.317 2.64025 119.317 1.7916C119.317 0.942948 118.657 0.282884 117.809 0.282884C116.96 0.282884 116.3 0.942948 116.3 1.7916Z" fill="#756479"/>
</g>
<defs>
<clipPath id="clip0_4063_27183">
<rect width="119" height="17.916" fill="white" transform="translate(0.599609)"/>
</clipPath>
</defs>
</svg>
