<svg width="125" height="28" viewBox="0 0 125 28" fill="none" xmlns="http://www.w3.org/2000/svg">
<g clip-path="url(#clip0_4063_26518)">
<mask id="mask0_4063_26518" style="mask-type:luminance" maskUnits="userSpaceOnUse" x="-11" y="-6" width="149" height="40">
<path d="M-10.3809 33.6174H137.599V-5.84142H-10.3809V33.6174Z" fill="white"/>
</mask>
<g mask="url(#mask0_4063_26518)">
<path d="M115.798 15.265C115.798 15.0004 115.855 14.7327 115.971 14.459C116.084 14.1863 116.252 13.9359 116.473 13.7067C116.692 13.4776 116.97 13.289 117.305 13.139C117.639 12.9889 118.026 12.9139 118.467 12.9139C118.906 12.9139 119.285 12.9889 119.602 13.139C119.92 13.289 120.183 13.4776 120.395 13.7067C120.606 13.9359 120.764 14.1863 120.87 14.459C120.976 14.7327 121.028 15.0004 121.028 15.265H115.798ZM122.799 19.0152C122.516 19.2271 122.067 19.4775 121.452 19.7685C120.834 20.0585 120.034 20.2045 119.048 20.2045C118.043 20.2045 117.255 19.953 116.683 19.4512C116.112 18.9493 115.816 18.3643 115.798 17.6952H124.62V17.0615C124.62 16.0224 124.489 15.0663 124.224 14.1954C123.961 13.3235 123.568 12.5753 123.049 11.9497C122.53 11.3252 121.891 10.8365 121.134 10.4847C120.377 10.1319 119.497 9.95653 118.493 9.95653C117.489 9.95653 116.591 10.137 115.798 10.4979C115.007 10.8589 114.337 11.3384 113.791 11.9366C113.246 12.5357 112.828 13.2353 112.537 14.0373C112.247 14.8382 112.101 15.6706 112.101 16.5323C112.101 17.5188 112.255 18.4211 112.563 19.2403C112.871 20.0585 113.321 20.759 113.911 21.34C114.5 21.9209 115.218 22.3751 116.063 22.7005C116.909 23.026 117.859 23.1892 118.916 23.1892C119.708 23.1892 120.411 23.1132 121.028 22.9641C121.645 22.8141 122.177 22.6428 122.627 22.4491C123.076 22.2555 123.441 22.0578 123.722 21.855C124.004 21.6522 124.215 21.5073 124.356 21.419L122.799 19.0152ZM80.7001 19.4644C80.4538 19.6408 80.1902 19.7949 79.9083 19.9267C79.6265 20.0585 79.2919 20.1254 78.9046 20.1254C78.3936 20.1254 78.0195 19.9622 77.7823 19.6357C77.544 19.3103 77.4254 18.8479 77.4254 18.2498V13.363H80.6221V10.3783H77.4254V7.05897H73.6225V10.3783H71.6617V13.363H73.6225V18.0379C73.6225 18.8135 73.7016 19.5171 73.8597 20.1517C74.0189 20.7854 74.2825 21.3268 74.6526 21.7759C75.0216 22.2251 75.5062 22.5769 76.1044 22.8323C76.7036 23.0868 77.4437 23.2156 78.3237 23.2156C79.7319 23.2156 81.0357 22.7401 82.2331 21.7891L80.7001 19.4644ZM113.628 5.96807C113.064 5.49258 112.44 5.15801 111.753 4.96437C111.066 4.77072 110.387 4.6734 109.718 4.6734C109.086 4.6734 108.464 4.77478 107.857 4.97755C107.25 5.18032 106.708 5.48852 106.232 5.90217C105.756 6.31582 105.374 6.83896 105.084 7.47363C104.793 8.10728 104.647 8.86462 104.647 9.74464V10.3783H102.641V13.363H104.647V22.7664H108.424V13.363H111.357V10.3783H108.424V9.69192C108.424 9.0755 108.583 8.60001 108.9 8.26544C109.217 7.93189 109.639 7.76359 110.167 7.76359C110.502 7.76359 110.827 7.81631 111.145 7.92175C111.462 8.0282 111.753 8.17825 112.017 8.37088L113.628 5.96807ZM96.9125 22.7664H100.715V10.3783H98.8135H96.9125V22.7664ZM83.6565 22.7664H95.2447V19.5039H87.645V5.14889H83.6565V22.7664ZM61.9298 15.265C61.9298 15.0004 61.9866 14.7327 62.1012 14.459C62.2157 14.1863 62.383 13.9359 62.603 13.7067C62.823 13.4776 63.1008 13.289 63.4354 13.139C63.77 12.9889 64.1573 12.9139 64.5973 12.9139C65.0373 12.9139 65.4164 12.9889 65.7328 13.139C66.0501 13.289 66.3147 13.4776 66.5256 13.7067C66.7365 13.9359 66.8956 14.1863 67.0011 14.459C67.1065 14.7327 67.1592 15.0004 67.1592 15.265H61.9298ZM68.9294 19.0152C68.6476 19.2271 68.1984 19.4775 67.582 19.7685C66.9656 20.0585 66.1647 20.2045 65.1782 20.2045C64.1745 20.2045 63.3867 19.953 62.8149 19.4512C62.2421 18.9493 61.9471 18.3643 61.9298 17.6952H70.7513V17.0615C70.7513 16.0224 70.6195 15.0663 70.3559 14.1954C70.0913 13.3235 69.6989 12.5753 69.1798 11.9497C68.6607 11.3252 68.022 10.8365 67.2647 10.4847C66.5084 10.1319 65.6273 9.95653 64.6236 9.95653C63.6199 9.95653 62.7227 10.137 61.9298 10.4979C61.138 10.8589 60.4679 11.3384 59.9224 11.9366C59.376 12.5357 58.9583 13.2353 58.6683 14.0373C58.3773 14.8382 58.2324 15.6706 58.2324 16.5323C58.2324 17.5188 58.3854 18.4211 58.6947 19.2403C59.0019 20.0585 59.451 20.759 60.041 21.34C60.6311 21.9209 61.3489 22.3751 62.1934 22.7005C63.039 23.026 63.99 23.1892 65.0464 23.1892C65.8392 23.1892 66.5428 23.1132 67.1592 22.9641C67.7757 22.8141 68.3089 22.6428 68.7581 22.4491C69.2062 22.2555 69.5722 22.0578 69.853 21.855C70.1349 21.6522 70.3468 21.5073 70.4877 21.419L68.9294 19.0152ZM38.3164 22.7664H42.1193L42.5685 11.3293L46.4251 18.118H48.4853L52.13 11.2502L52.6319 22.7664H56.6203L55.8012 5.14889H51.9972L47.5079 13.4158L42.9122 5.14889H39.1346L38.3164 22.7664ZM98.8135 8.96195C97.6394 8.96195 96.6702 7.99272 96.6702 6.81767C96.6702 5.64263 97.6394 4.6734 98.8135 4.6734C100.018 4.6734 100.958 5.61323 100.958 6.81767C100.958 7.99272 99.9885 8.96195 98.8135 8.96195Z" fill="#756479"/>
<path d="M14.8711 9.02774C17.8629 12.9888 19.6382 17.9222 19.6382 23.2733C19.6382 24.5639 19.5338 25.8302 19.334 27.066H27.9963C28.7496 27.066 29.3599 26.4537 29.3599 25.6984V1.75037C29.3599 0.858189 28.5195 0.198175 27.6587 0.425276C22.4861 1.79092 18.0089 4.87301 14.8711 9.02774Z" fill="#756479"/>
<path d="M10.4068 27.0655C10.208 25.8306 10.1026 24.5643 10.1026 23.2727C10.1026 17.9227 11.8789 12.9883 14.8697 9.02719C11.7319 4.87246 7.25472 1.79037 2.08209 0.425741C1.22134 0.198641 0.380859 0.857639 0.380859 1.74982V25.6988C0.380859 26.4531 0.992207 27.0655 1.74549 27.0655H10.4068Z" fill="#756479"/>
<path d="M14.8706 9.02774C11.8788 12.9888 10.1035 17.9222 10.1035 23.2733C10.1035 24.5639 10.2079 25.8302 10.4077 27.066H19.3335C19.5333 25.8302 19.6377 24.5639 19.6377 23.2733C19.6377 17.9222 17.8625 12.9888 14.8706 9.02774Z" fill="#756479"/>
</g>
</g>
<defs>
<clipPath id="clip0_4063_26518">
<rect width="125" height="27.4462" fill="white"/>
</clipPath>
</defs>
</svg>
