<svg width="108" height="17" viewBox="0 0 108 17" fill="none" xmlns="http://www.w3.org/2000/svg">
<path d="M7.54996 12.1975C7.65388 12.5725 7.65388 12.9687 7.54996 13.3436C7.47637 13.6724 7.28162 13.9613 7.00459 14.1527C6.72756 14.344 6.38863 14.4238 6.05545 14.376C5.85999 14.4001 5.66163 14.3815 5.47402 14.3216C5.28641 14.2616 5.114 14.1617 4.96866 14.0287C4.82331 13.8957 4.70848 13.7327 4.63206 13.551C4.55564 13.3693 4.51945 13.1732 4.52598 12.9762V11.4889H0.470703V12.6787C0.470703 16.1082 3.14509 17.1406 6.01175 17.1406C8.87841 17.1406 11.0284 16.1957 11.3955 13.6411C11.5317 12.8067 11.5317 11.9558 11.3955 11.1214C10.7487 7.89309 4.96297 6.93947 4.52598 5.13721C4.47343 4.86855 4.47343 4.59223 4.52598 4.32357C4.57976 4.00585 4.75476 3.72149 5.01404 3.5305C5.27332 3.33951 5.59659 3.25685 5.91561 3.29995C6.10308 3.28163 6.29228 3.3045 6.47 3.36698C6.64771 3.42947 6.80965 3.53004 6.94449 3.66169C7.07933 3.79334 7.18383 3.95289 7.25067 4.12917C7.31751 4.30545 7.34508 4.49421 7.33147 4.68227V5.63589H11.1333V4.53354C11.1333 1.19149 8.15301 0.657806 5.99427 0.657806C3.28493 0.657806 1.07375 1.53269 0.662979 4.08735C0.532487 4.78207 0.5414 5.49583 0.689199 6.18707C1.34469 9.33665 6.80708 10.2465 7.54996 12.2325" fill="#756479"/>
<path d="M57.0885 12.1714C57.1968 12.5368 57.1968 12.9259 57.0885 13.2913C57.0207 13.6191 56.8295 13.9083 56.5545 14.0989C56.2796 14.2894 55.9419 14.3668 55.6115 14.3149C55.4191 14.3389 55.2237 14.321 55.0389 14.2625C54.854 14.2039 54.684 14.1061 54.5404 13.9756C54.3968 13.8452 54.2831 13.6853 54.207 13.5067C54.1309 13.3282 54.0942 13.1354 54.0995 12.9413V11.4365H50.0879V12.6001C50.0879 15.9947 52.7098 17.027 55.5765 17.027C58.4432 17.027 60.5407 16.0909 60.9078 13.5275C61.0475 12.7022 61.0475 11.8593 60.9078 11.0341C60.2785 7.84076 54.5539 6.88713 54.117 5.10237C54.0558 4.84052 54.0558 4.56808 54.117 4.30623C54.1687 3.99094 54.3407 3.70805 54.5966 3.51713C54.8525 3.3262 55.1725 3.24213 55.4891 3.28262C55.6755 3.26546 55.8634 3.28929 56.0397 3.35244C56.2159 3.41558 56.3763 3.51653 56.5095 3.6482C56.6427 3.77987 56.7455 3.93909 56.8108 4.11471C56.8761 4.29034 56.9023 4.47812 56.8875 4.66493V5.60106H60.6456V4.58619C60.6456 1.27038 57.7003 0.745453 55.559 0.745453C52.9371 0.745453 50.6909 1.62034 50.3151 4.13125C50.1805 4.80917 50.1716 5.5061 50.2889 6.18723C50.9444 9.30181 56.3106 10.1942 57.0797 12.1714" fill="#756479"/>
<path d="M82.9927 3.58872L83.2112 16.3708H79.4531V1.1478H85.1165L88.7086 13.5361L88.4988 1.1478H92.2657V16.3708H86.847L82.9927 3.58872Z" fill="#756479"/>
<path d="M18.0813 16.5282H13.9648L16.7965 1.1478H23.5699L26.3754 16.5282H22.2764L20.2138 2.29389L18.0813 16.5282Z" fill="#756479"/>
<path d="M35.9466 16.5282L33.3334 2.29386L33.2285 16.5282H29.418L29.7588 1.14777H35.9728L37.8956 13.1774L39.8184 1.14777H46.0236L46.3557 16.5282H42.5452L42.449 2.29386L39.8184 16.5282H35.9466Z" fill="#756479"/>
<path d="M69.882 14.236C70.2201 14.2619 70.5559 14.1633 70.8263 13.9587C71.0967 13.754 71.2831 13.4575 71.3503 13.1249C71.3639 12.9297 71.3639 12.7338 71.3503 12.5387V1.16521H75.2046V12.1887C75.2046 12.4775 75.2046 13.0636 75.2046 13.2036C74.9424 16.0732 72.6963 17.0006 69.8908 17.0006C67.0853 17.0006 64.8304 16.0645 64.5682 13.1861C64.5682 13.0374 64.5158 12.46 64.5682 12.1712V1.15646H68.4312V12.5299C68.4133 12.7249 68.4133 12.9211 68.4312 13.1161C68.4948 13.4489 68.679 13.7465 68.9484 13.9515C69.2178 14.1566 69.5534 14.2548 69.8908 14.2272" fill="#756479"/>
<path d="M101.668 14.0611C102.021 14.1018 102.377 14.0098 102.666 13.8029C102.955 13.5959 103.157 13.2889 103.233 12.9413C103.247 12.7461 103.247 12.5503 103.233 12.3551V10.1417H101.66V7.93695H107.096V12.0664C107.096 12.3464 107.096 12.5563 107.043 13.0725C106.79 15.8721 104.421 16.8695 101.686 16.8695C98.9502 16.8695 96.608 15.8109 96.3195 13.0375C96.3023 12.7024 96.3023 12.3666 96.3195 12.0314V5.54852C96.3195 5.27731 96.3195 4.79612 96.3807 4.53366C96.7216 1.65529 99.0027 0.736664 101.73 0.736664C104.456 0.736664 106.79 1.61155 107.087 4.53366C107.087 5.03234 107.087 5.54852 107.087 5.54852V6.0647H103.25V5.18982C103.25 5.18982 103.25 4.82237 103.198 4.5949C103.096 4.27244 102.894 3.9909 102.621 3.79108C102.348 3.59126 102.019 3.48354 101.681 3.48354C101.344 3.48354 101.014 3.59126 100.742 3.79108C100.469 3.9909 100.267 4.27244 100.165 4.5949C100.118 4.83094 100.097 5.07162 100.104 5.3123V12.3114C100.086 12.5063 100.086 12.7026 100.104 12.8975C100.17 13.2532 100.368 13.5707 100.658 13.7865C100.948 14.0022 101.309 14.1003 101.668 14.0611Z" fill="#756479"/>
</svg>
