<svg width="126" height="77" viewBox="0 0 126 77" fill="none" xmlns="http://www.w3.org/2000/svg">
<g clip-path="url(#clip0_4063_26389)">
<path fill-rule="evenodd" clip-rule="evenodd" d="M61.5205 5.89093C61.8673 6.2348 62.1658 6.70697 62.474 7.18771C62.7443 7.60909 63.0362 8.07772 63.3132 8.56082C63.5628 8.99651 63.7617 9.52316 64.1144 10.0105C64.3716 10.3659 64.9015 11.038 65.2206 11.1168C65.8655 11.2759 66.4743 10.7203 67.0135 10.5064C67.5006 11.4905 67.5522 12.6475 67.3186 13.7868C67.054 15.0773 66.3875 16.2884 65.5639 17.0673C65.3772 17.2438 65.1661 17.4023 65.0299 17.6013C66.398 17.948 67.9185 18.4548 69.2639 18.7839C70.3407 19.3023 71.485 19.6484 72.5827 20.1188C73.6736 20.5868 74.7631 21.1531 75.8631 21.4541C77.0134 21.7688 78.7026 20.9637 79.4868 20.5387C79.918 20.3047 80.4266 19.992 80.86 19.6994C81.257 19.4313 81.8058 18.8651 82.2332 18.8601C82.6464 18.8557 83.0783 19.3446 83.1106 19.8901C83.1463 20.4898 82.8015 21.1836 82.5386 21.7973C82.3027 22.3473 82.0391 22.9116 81.9282 23.6666C81.8083 24.4821 81.8584 25.052 82.0044 25.7645C82.1553 26.5006 82.7817 27.4824 82.5386 28.3201C82.4827 28.5126 82.2077 28.9129 81.8137 28.8924C81.3412 28.8679 80.9994 28.3654 80.5551 27.9769C79.5389 27.0883 77.9279 25.8846 76.0158 26.0314C75.1051 26.1014 74.5961 26.4736 73.6507 26.7942C74.2745 28.6051 73.1007 30.0418 71.2859 30.1129C71.3347 30.3252 71.5642 30.4469 71.7053 30.5708C72.764 31.4979 73.8077 32.4856 74.757 33.5843C77.9422 37.2699 80.1014 42.2023 80.7075 48.3846H80.059C79.7936 44.2333 78.5556 40.737 76.9695 37.742C75.3803 34.7417 73.3455 32.14 70.8282 30.0748C70.5786 30.0956 70.3938 30.0512 70.1797 30.0367C70.4025 30.3694 70.7339 30.6087 71.0187 30.8759C75.4106 34.9946 78.6257 40.574 79.3727 48.3846H76.8169C76.0919 40.0567 72.7548 33.8869 68.1199 29.3501C67.8375 29.074 67.4712 28.6045 66.9753 28.8923C67.5001 29.5622 68.1725 30.0859 68.7301 30.7232C72.5943 35.141 75.4512 40.7365 76.1684 48.3464C75.2514 48.4327 74.3319 48.3744 73.4981 48.3846C72.8844 40.1232 70.0351 34.0972 66.1364 29.1213C63.9493 29.6456 61.5975 30.1894 58.965 30.1894C58.5738 30.1894 58.0512 30.1064 57.7827 30.1894C57.5805 30.2515 57.3116 30.7526 57.0959 31.0665C53.9738 35.6142 51.5986 41.3312 51.1072 48.3846H48.4371C49.2018 40.3631 52.3334 34.7088 56.5238 30.1129C55.88 29.8181 55.5513 30.3857 55.1506 30.8378C51.3031 35.1776 48.4132 40.9578 47.7504 48.3464C46.9613 48.4346 46.0088 48.3596 45.1565 48.3846C45.9706 40.5779 49.1971 35.1834 53.5102 30.8759C52.3915 31.0069 51.6754 31.9989 51.0308 32.7449C47.6528 36.6537 45.1003 41.8038 44.508 48.3465C44.3364 48.4046 43.993 48.4046 43.8213 48.3465C44.532 41.325 47.2227 36.0956 51.1072 32.2109C51.3501 31.9682 51.6958 31.7121 51.7557 31.3338C49.9658 31.5573 48.7566 30.259 49.0091 28.4346C48.2951 28.0596 47.5485 27.8284 46.8731 27.4427C45.5683 26.6985 44.323 25.9601 43.1729 24.9252C42.4361 24.2625 41.1249 23.3258 41.647 21.9118C42.101 20.683 43.7913 20.0228 45.1948 19.4703C48.4588 18.1858 53.1291 17.3074 56.9434 16.9149C56.8132 16.5797 56.5216 16.3343 56.2949 16.0375C55.5301 15.0351 54.8237 12.9896 55.4176 11.4218C55.8875 11.6935 56.791 11.9504 57.3631 11.6888C57.8485 11.4669 58.0523 10.4783 58.2786 9.85783C58.7176 8.65288 59.1482 7.07804 59.6518 6.04337C60.1449 6.09415 61.1149 6.23126 61.5205 5.89093ZM62.169 7.83621C61.9963 7.51955 61.6647 6.69274 61.2916 6.61562C60.9204 6.53873 60.5429 6.81994 59.9947 6.69187C59.6738 7.61687 59.2953 8.48449 59.0411 9.47654C59.9222 8.69879 61.8643 8.71043 62.9318 9.17128C62.6923 8.80131 62.4589 8.36766 62.169 7.83621ZM64.9915 11.7269C63.6941 10.7499 63.0786 9.21475 60.872 9.40013C59.8585 9.48527 59.3007 9.89077 58.8503 10.5063C58.3915 11.1336 58.1849 12.0313 57.5533 12.261C57.0463 12.4453 56.2776 12.3568 55.7989 12.2991C55.7732 13.2931 55.9897 14.2442 56.4092 15.0836C56.6717 15.6092 57.4073 16.7379 58.011 16.8765C58.5805 17.0074 59.0749 16.7818 59.7276 16.8765C58.3985 14.9387 58.1331 10.5926 61.177 10.4682C61.4418 10.4575 61.7767 10.4529 62.1306 10.5445C64.2524 11.0933 64.7705 14.7494 63.5803 16.6476C63.4132 16.9144 63.0959 17.0575 63.1226 17.2961C64.2587 17.5194 65.1492 16.7495 65.7165 15.9611C66.5379 14.8194 67.1789 13.0898 66.6702 11.3837C66.1834 11.571 65.7096 11.7713 64.9915 11.7269ZM59.3463 13.3673C59.3662 13.6141 59.2904 13.9572 59.4225 14.092C59.7392 13.6892 61.1305 13.6401 61.1391 14.2446C60.9098 14.2575 60.8022 14.149 60.643 14.092C60.692 14.6225 59.7739 14.8051 59.804 14.1684C59.318 14.2651 59.4176 14.7639 59.5368 15.1982C59.6706 15.6856 60.0345 16.3579 60.3378 16.6476C60.8054 17.0946 61.5475 17.0611 62.2831 17.1818C63.1011 16.5246 63.689 15.6376 63.6182 14.092C63.4999 13.9942 63.3441 13.9339 63.1605 13.9012C63.2835 14.4581 62.2938 14.5395 62.3595 13.9775C62.0783 13.9478 62.1006 14.3486 61.8254 14.2063C61.9482 13.4762 63.0522 13.5254 63.5801 13.7105C63.579 13.4192 63.5434 13.1625 63.4658 12.9477C62.0525 13.0474 60.6948 13.2028 59.3463 13.3673ZM80.8982 20.8437C79.7162 21.6598 78.1457 22.5409 76.2444 22.522C74.8235 22.5081 73.325 21.7527 72.0867 21.2251C68.3219 19.6207 63.9892 18.0367 58.8884 17.9828C58.732 17.9813 58.5824 17.9765 58.4307 17.9828C55.5577 18.1016 52.605 18.546 49.8864 19.1273C48.5926 19.4039 47.3893 19.6729 46.0717 20.1571C45.0004 20.5506 42.6603 21.3617 43.3253 23.0181C43.6856 23.9155 44.8382 24.8169 45.7285 25.383C46.0499 25.5873 46.4849 25.9434 46.7583 25.9552C46.939 25.9628 47.3747 25.7598 47.6357 25.6501C49.1416 25.0165 49.9789 23.9636 50.6111 22.5984C50.7723 22.25 51.0228 21.0797 51.4121 20.9964C51.6343 20.9487 51.9823 21.0044 52.0606 21.3015C52.1896 21.7911 51.6441 22.6232 51.4502 23.0181C50.6352 24.6785 49.6081 25.9035 47.979 26.5656C48.3711 26.6822 48.7503 26.8114 49.1615 26.9088C49.1111 26.3539 49.2473 26.0843 49.5811 25.9933C50.383 25.7749 50.7852 26.7383 50.9162 27.4048C51.4441 27.5611 51.8021 27.5131 52.2132 27.3284C52.7218 27.0997 52.9622 26.5287 53.3956 26.4129C53.6771 26.3373 54.1272 26.279 54.4257 26.451C54.5843 26.5423 54.5948 26.7122 54.6926 26.9087C54.7865 27.0975 54.8926 27.2515 54.9215 27.4047C54.9866 27.749 54.7687 28.0335 54.9596 28.2438C55.1408 28.4427 56.0732 28.5272 56.5235 28.5869C60.8156 29.1574 64.7875 28.2203 67.8907 27.0613C67.9208 26.8055 67.786 26.635 67.8144 26.3747C67.8463 26.0847 68.2312 25.4164 68.4248 25.3446C68.7105 25.2388 69.1883 25.2708 69.4165 25.3446C69.8405 25.4814 70.065 26.103 70.4845 26.222C71.0065 26.0824 71.4879 25.903 71.9721 25.7262C72.1972 25.3185 72.4303 24.8408 73.0404 24.8868C73.3208 24.908 73.3892 25.1973 73.6507 25.23C73.8777 25.2585 74.5138 24.9731 74.8712 24.8868C75.3002 24.7834 75.7856 24.6858 76.2444 24.658C78.1687 24.5412 79.3787 25.657 80.2496 26.6035C80.4272 26.7964 80.9645 27.4713 81.3559 27.1374C81.6206 26.9118 81.3334 26.474 81.1654 26.1077C80.7214 25.1401 80.4643 23.4963 81.0125 22.4456C81.2086 22.07 81.5317 21.7043 81.7755 21.3393C81.9934 21.013 82.4189 20.5908 82.157 20.0806C81.6224 20.1089 81.2899 20.5732 80.8982 20.8437ZM71.9721 26.718C71.3925 27.0916 70.2105 26.5883 69.798 26.1841C69.5834 25.9737 69.4292 25.536 69.0352 25.688C69.0528 26.3584 69.7374 26.8921 70.1031 27.2141C69.7 27.0579 69.3309 26.6463 69.1114 26.2603C68.9948 26.0552 68.9176 25.6234 68.6537 25.6501C68.2546 25.6902 68.5127 26.3835 68.6154 26.6037C68.9008 27.2135 69.2857 27.4481 69.6837 27.7861C69.2926 27.6202 68.9946 27.3623 68.7682 27.0233C68.5886 26.7545 68.5478 26.382 68.2721 26.1841C68.0023 26.6197 68.292 27.1848 68.5391 27.5573C68.7676 27.9013 69.1613 28.1199 69.3783 28.3584C69.018 28.2153 68.7537 27.9574 68.5391 27.6717C68.4323 27.5296 68.3878 27.3099 68.1959 27.2519C68.07 27.7662 68.5104 28.2877 68.8444 28.5869C69.7313 29.3818 71.4586 29.5556 72.4682 28.7777C73.3856 28.071 73.0168 26.7468 73.1929 25.3828C72.2544 24.932 72.4584 26.4045 71.9721 26.718ZM49.543 26.4511C49.7919 27.7821 49.3165 28.946 50.0769 29.6932C50.9386 30.5401 52.804 30.5295 53.7772 29.7697C54.1956 29.4428 54.6632 28.8769 54.5781 28.3201C54.15 28.6676 53.9602 29.2534 53.3575 29.4264C53.4776 29.2554 53.75 29.1519 53.9295 28.9686C54.2587 28.633 54.9187 27.6736 54.3872 27.252C54.0973 27.9411 53.768 28.5909 53.0524 28.8541C53.2585 28.6298 53.6806 28.4262 53.9295 28.053C54.1444 27.7316 54.5824 26.8365 54.1203 26.7563C53.8088 26.7019 53.5821 27.3942 53.4337 27.5954C53.1732 27.9486 52.9798 28.1644 52.5947 28.282C53.0948 27.9152 53.6849 27.443 53.7007 26.7181C53.12 26.785 52.9 27.3931 52.404 27.6335C51.9469 27.855 51.0936 28.0168 50.6493 27.7479C50.3849 27.2556 50.341 26.0412 49.543 26.4511Z" fill="#756479"/>
<path fill-rule="evenodd" clip-rule="evenodd" d="M62.0531 15.2364C61.968 15.49 61.2262 15.587 61.1758 15.2364C61.4572 15.2497 61.9393 15.0309 62.0531 15.2364Z" fill="#756479"/>
<path fill-rule="evenodd" clip-rule="evenodd" d="M62.2459 16.0375C62.4146 16.492 61.2473 16.8394 61.1016 16.19C61.4244 16.4139 62.0404 16.2729 62.2459 16.0375Z" fill="#756479"/>
<path fill-rule="evenodd" clip-rule="evenodd" d="M46.0712 21.683C47.7752 21.5234 47.9365 24.1174 46.3765 24.3148C44.6142 24.5378 44.3194 21.847 46.0712 21.683Z" fill="#756479"/>
<path fill-rule="evenodd" clip-rule="evenodd" d="M59.9927 41.5184C59.8095 43.711 59.5657 46.2134 59.5733 48.3465C58.416 48.4354 57.0936 48.3593 55.873 48.3847C56.05 46.0314 56.2234 43.6745 56.6361 41.5565C57.5687 41.5184 58.7434 41.5144 59.9927 41.5184Z" fill="#756479"/>
<path fill-rule="evenodd" clip-rule="evenodd" d="M60.795 41.5184H64.2661C64.5498 43.6472 64.6336 46.1971 64.7621 48.3465C63.3252 48.4354 61.7231 48.3593 60.2227 48.3846C60.3689 46.0904 60.4522 43.8369 60.7185 41.633C60.7169 41.5677 60.747 41.5339 60.795 41.5184Z" fill="#756479"/>
<path fill-rule="evenodd" clip-rule="evenodd" d="M68.2321 41.5184C68.572 43.6963 68.7674 46.0183 68.9568 48.3465C67.8506 48.4354 66.579 48.3593 65.4095 48.3846C65.4503 46.2988 65.1906 43.8555 65.0279 41.633C64.9852 41.5779 64.9868 41.5398 65.0661 41.5184L68.2321 41.5184Z" fill="#756479"/>
<path fill-rule="evenodd" clip-rule="evenodd" d="M66.8595 31.1429C69.9573 35.5982 72.2867 41.354 72.81 48.3846C71.5977 48.3808 70.7422 48.4021 69.6058 48.3846C69.5644 46.0051 69.221 43.7105 68.9573 41.5184C69.5223 41.4982 70.1705 41.5616 70.6739 41.4802C70.0459 37.3908 68.6127 34.107 66.8595 31.1429Z" fill="#756479"/>
<path fill-rule="evenodd" clip-rule="evenodd" d="M53.8518 41.4802C54.5972 41.609 55.2257 41.4838 55.9116 41.5564C55.547 43.7093 55.3135 45.9936 55.1869 48.3846H51.7539C52.3478 41.5021 54.4947 36.1726 57.4374 31.6387C57.4459 31.6244 57.4477 31.638 57.4374 31.6387C55.861 34.5382 54.7817 37.9345 53.8518 41.4802Z" fill="#756479"/>
<path fill-rule="evenodd" clip-rule="evenodd" d="M13.9141 65.1283C13.9163 65.6391 13.4818 65.7498 13.2274 65.9294C12.671 66.3226 12.1619 66.6831 11.5108 67.1121C11.2296 67.2973 10.8434 67.6059 10.5954 67.646C10.0088 67.7408 9.17869 67.4087 8.61178 67.1121C6.96422 66.2495 5.97366 64.6614 5.59842 62.6107C4.82601 58.392 6.6915 54.1195 10.8623 54.2951C11.399 54.3178 11.9287 54.3849 12.3882 54.5623C12.7129 54.6875 13.2928 54.9732 13.3799 55.3632C13.4928 55.8686 13.1443 56.6002 12.9986 57.156C12.9092 57.496 12.7634 58.6513 12.4263 58.7199C11.9299 58.8211 11.7954 57.7042 11.7016 57.3849C11.4048 56.3758 10.7402 55.5985 9.45109 56.1262C8.03403 56.7063 7.45927 58.6971 7.61996 60.8179C7.80337 63.2331 9.5926 65.6699 12.6171 65.2047C12.9909 65.1472 13.443 64.8094 13.9141 65.1283ZM104.318 54.6005C108.203 54.2816 110.392 56.9044 110.612 60.4367C110.868 64.5587 108.679 67.5612 105.081 67.646C101.343 67.7342 99.0065 64.9304 98.9778 61.1614C98.9642 59.3758 99.595 57.7362 100.389 56.6984C101.22 55.6132 102.477 54.7516 104.318 54.6005ZM103.326 56.1263C100.482 57.5434 101.045 63.2949 102.945 65.3953C103.626 66.1483 104.908 66.7588 106.149 66.2728C109.406 64.9973 108.64 58.5107 106.492 56.6222C105.975 56.1673 105.177 55.7768 104.203 55.8975C103.811 55.9461 103.555 56.012 103.326 56.1263ZM44.0868 54.7912C44.389 55.4121 44.6575 56.1585 44.8879 56.9272C44.9512 57.1382 45.1371 57.4695 44.8879 57.6519C44.2385 57.6963 44.2446 57.0592 43.7055 56.8129C43.2986 56.627 42.059 56.4466 41.6838 56.7364C41.292 57.039 41.4752 58.2307 41.4547 59.1016C41.4179 60.674 41.3745 62.7896 41.4547 64.4038C41.4988 65.2875 41.555 66.1819 42.027 66.5398C42.2292 66.693 43.2654 66.723 43.0951 67.2646C42.9667 67.673 41.8824 67.4934 41.3023 67.4934C40.4641 67.4934 39.7934 67.6127 39.4714 67.3026C39.1184 66.9632 39.2807 65.4592 39.2807 64.6707C39.2807 62.5321 39.3578 59.9462 39.3568 57.9953C39.3568 57.5743 39.3633 57.0707 39.2045 56.8891C38.8555 56.4907 37.5866 56.6007 37.1064 56.8129C36.6185 57.0283 36.5164 57.6145 35.9239 57.6518C35.6133 57.5211 35.8205 57.1456 35.8858 56.9272C36.1004 56.2098 36.3805 55.3565 36.7248 54.7912C39.0744 54.7286 41.8612 54.7261 44.0868 54.7912ZM115.571 67.3026C115.348 67.5541 114.93 67.4553 114.579 67.4553C113.824 67.4553 113.23 67.4486 112.672 67.4553C112.376 67.4588 112.01 67.5096 111.794 67.3791C111.338 67.1023 111.469 65.5173 111.489 64.7467C111.539 62.8778 111.578 60.6882 111.566 59.3305C111.558 58.4919 111.661 57.8019 111.566 56.7748C111.518 56.264 111.266 55.7858 110.917 55.5541C110.631 55.3635 110.058 55.3563 110.116 54.982C110.171 54.6274 111.127 54.7616 111.604 54.7529C113.334 54.7219 116.122 54.4072 117.593 55.0581C118.677 55.5379 119.321 56.7623 119.195 58.5293C119.033 60.7905 117.331 61.9117 115.189 62.3057C114.612 62.4118 113.977 62.4635 113.816 62.9161C113.648 63.3886 113.778 64.1732 113.816 64.6707C113.88 65.5072 113.984 66.2554 114.503 66.5779C114.887 66.8169 115.583 66.6184 115.571 67.3026ZM113.74 57.6141C113.728 57.9399 113.717 58.2815 113.702 58.6058C113.679 59.1116 113.631 60.3957 113.854 60.6656C114.435 61.3676 116.053 60.5411 116.41 60.0933C117.25 59.0408 116.75 56.9353 115.838 56.3933C115.545 56.2195 114.934 56.1563 114.617 56.2026C113.744 56.3305 113.773 56.718 113.74 57.6141ZM18.5296 54.753H19.3307C19.7715 55.5532 20.1145 56.5016 20.4751 57.4614C21.3321 59.7434 22.1101 62.236 23.0307 64.5563C23.424 65.5473 23.5604 66.0425 24.4803 66.5399C24.7925 66.7087 25.3557 66.957 25.2432 67.3027C25.1284 67.6557 23.9822 67.4835 23.4884 67.4935C22.9079 67.5055 22.1593 67.653 21.734 67.3792C21.3292 67.1187 21.194 66.2195 21.0473 65.7388C20.8399 65.0596 20.6939 64.6443 20.4369 64.0605C19.936 64.0456 19.5083 64.0605 18.9492 64.0605C18.424 64.0605 17.7638 63.94 17.309 64.0605C16.817 64.1906 16.2024 65.7869 16.546 66.3493C16.9083 66.9419 18.0642 66.5603 17.8813 67.3793C17.7502 67.5865 17.418 67.4936 17.1945 67.4936H14.8677C14.4004 67.215 14.2816 66.8445 14.3337 66.273C14.4175 65.3491 14.8976 64.25 15.2108 63.2595C15.8134 61.3544 16.5667 59.4759 17.2708 57.6143C17.6483 56.6156 18.0297 55.3252 18.5296 54.753ZM17.3852 62.382C18.1462 62.3773 19.1794 62.463 19.7503 62.3058C19.8085 61.6316 19.4889 61.0195 19.2926 60.4368C19.0867 59.8259 18.9133 59.2071 18.606 58.682C18.5975 58.6524 18.5739 58.6376 18.5296 58.6439C18.0899 59.8316 17.5924 60.962 17.3852 62.382ZM27.7606 59.7119C28.5622 59.7808 29.5677 59.75 30.5072 59.75C31.4432 59.75 32.446 59.9009 33.0248 59.4831C33.0301 58.0117 33.3423 56.2429 32.4908 55.5922C32.3016 55.4478 31.5901 55.3989 31.6132 55.0201C31.6381 54.6151 32.5679 54.753 33.1391 54.753C34.0149 54.753 34.9707 54.5875 35.2372 55.1344C35.5191 55.7132 35.3134 57.2544 35.3134 58.148C35.3134 60.3467 35.2806 61.9149 35.3134 64.0604C35.3289 65.0816 35.417 66.1365 35.8856 66.5398C36.2038 66.8137 37.2067 66.8238 37.1062 67.3026C37.0235 67.6967 35.5948 67.5315 35.1226 67.5315C34.2379 67.5315 33.4435 67.6085 33.1771 67.3026C32.8342 66.9082 33.0071 65.2496 33.0248 64.5181C33.048 63.5547 33.0833 62.8173 33.0629 61.6953C31.4116 61.6195 29.4141 61.6492 27.8751 61.6953C27.9507 63.2593 27.4785 66.0181 28.5998 66.6542C28.9238 66.838 29.6943 66.7418 29.6299 67.2646C29.5804 67.666 28.4175 67.5316 27.837 67.5316C26.8057 67.5316 25.8835 67.692 25.6245 67.1122C25.4226 66.6596 25.5864 65.4716 25.5864 64.5945C25.5864 62.8296 25.6245 60.9769 25.6245 59.1016C25.6245 57.6217 25.8467 56.1335 25.0141 55.5541C24.7398 55.3631 23.8346 55.2886 24.3275 54.7912C25.013 54.9332 26.9415 54.4295 27.57 54.8675C28.0027 55.1692 27.8369 56.0432 27.8369 56.6603C27.8369 57.8074 27.7871 58.6662 27.7606 59.7119ZM48.7025 54.753C49.9879 57.6337 51.1958 61.417 52.4408 64.5182C52.842 65.5177 52.8834 66.0382 53.814 66.5398C54.1601 66.7265 54.651 66.8828 54.6149 67.2265C54.5706 67.6485 53.6134 67.5316 52.9748 67.5316C52.2307 67.5316 51.4682 67.6162 51.1055 67.3792C50.7055 67.1173 50.5725 66.2416 50.4189 65.7388C50.2174 65.0785 50.0635 64.6559 49.8087 64.0605C48.7075 64.223 47.6211 63.8383 46.7189 64.0605C46.3205 64.1586 46.1875 64.6598 46.0704 64.9761C45.9565 65.284 45.7087 65.7429 45.8416 66.1966C45.9328 66.5072 46.292 66.6688 46.6046 66.7689C46.887 66.8594 47.4187 66.8831 47.2913 67.3028C47.1907 67.6333 46.4471 67.5316 45.8416 67.5316C44.6915 67.5316 43.8572 67.7228 43.7056 66.7688C43.6265 66.2716 43.8526 65.5806 44.0107 65.0525C44.9141 62.0327 46.0447 59.0839 47.1767 56.2026C47.3775 55.6919 47.5578 55.1158 47.8252 54.8294C47.988 54.6745 48.4192 54.7877 48.7025 54.753ZM46.757 62.382C47.5664 62.3469 48.5531 62.5393 49.1602 62.2677C48.9209 60.892 48.463 59.7352 47.9395 58.6439C47.4349 59.7544 46.9518 61.0888 46.757 62.382ZM67.1646 54.7912C67.4711 55.1721 67.4058 55.9097 67.4316 56.5077C67.4586 57.1313 67.5698 57.8494 67.2789 58.2243C66.7459 57.984 66.7915 57.3504 66.5161 56.9272C66.3654 56.6964 66.065 56.4414 65.7914 56.3169C65.171 56.0346 63.341 55.8237 63.0068 56.4695C62.7865 56.8958 62.8963 57.7589 62.8923 58.2623C62.8869 58.934 62.7911 59.5474 62.9304 60.1316C63.8655 60.4989 64.8344 60.275 65.6387 60.2459C67.5608 60.1758 69.0759 61.0719 68.9193 63.2592C68.7153 66.1059 66.5254 67.4448 63.5027 67.4934C63.1276 67.4993 62.7178 67.5038 62.2819 67.4934C61.7166 67.48 60.9782 67.6469 60.7182 67.15C60.4762 66.6883 60.6549 65.1749 60.6798 64.5181C60.7561 62.5294 60.7179 61.1633 60.7182 59.4449C60.7182 57.9584 60.956 56.2054 60.1459 55.5921C59.979 55.4659 58.6729 55.0423 59.4974 54.7529C59.9439 54.5963 60.845 54.7529 61.4428 54.7529C63.3774 54.7529 65.3509 54.7217 67.1646 54.7912ZM63.1213 61.4283C62.728 61.835 62.9178 63.2374 62.9306 63.8696C62.9399 64.3341 62.9163 65.8577 63.2359 66.0821C63.7663 66.4544 65.123 65.9761 65.4101 65.8151C66.5259 65.1894 67.0737 62.8379 66.0204 61.7715C65.652 61.3987 64.8478 61.1979 64.113 61.2376C63.8073 61.2541 63.3386 61.2037 63.1213 61.4283ZM69.0718 54.7912C69.0822 54.7881 69.0749 54.7555 69.1101 54.753C70.5088 54.6504 71.84 54.753 73.2678 54.753C74.771 54.753 76.0597 54.7968 76.8918 55.516C77.6782 56.1957 77.9775 57.5122 77.8454 58.7201C77.6239 60.7454 76.3564 61.7865 74.5267 62.2293C73.7748 62.4114 72.6666 62.4305 72.4669 62.9923C72.2786 63.5213 72.4461 64.3731 72.505 64.9759C72.5734 65.6792 72.7002 66.3083 73.039 66.5779C73.3575 66.8313 74.3454 66.8589 74.2215 67.3026C74.1388 67.5997 73.8081 67.5315 73.4205 67.5315C73.0537 67.5315 72.6102 67.5292 72.3905 67.5315C71.8388 67.5372 70.9924 67.6783 70.5215 67.4934C69.9233 67.2589 70.1132 65.9777 70.1399 65.0523C70.1941 63.1901 70.1781 61.5048 70.1781 59.4449C70.1781 57.861 70.4296 56.2108 69.5679 55.5921C69.5051 55.5471 68.7514 55.3957 68.7286 55.0963C68.7066 54.8052 68.9882 54.8151 69.0718 54.7912ZM72.5431 56.5841C72.3909 56.8238 72.441 57.2316 72.4288 57.4995C72.3917 58.3035 72.129 60.1467 72.4669 60.6655C72.8645 61.2766 74.2238 60.887 74.7556 60.4747C75.7256 59.7221 75.6632 57.5779 74.8699 56.7364C74.5751 56.4238 74.0079 56.2206 73.4586 56.2406C73.0563 56.2553 72.7379 56.2769 72.5431 56.5841ZM85.5888 58.2243C85.0601 58.0548 85.0994 57.4761 84.8641 57.0799C84.5149 56.4921 83.9227 56.1585 82.9569 56.0882C82.4428 56.0508 81.3763 56.0298 81.1641 56.3552C81.0123 56.5874 81.0734 57.5228 81.0495 58.0335C81.0156 58.762 81.0553 59.2323 81.0114 59.8645C82.3309 60.0618 83.5775 59.6748 84.7114 59.7883C84.866 60.3891 84.5866 61.1107 84.4063 61.6192C83.8019 61.9983 81.6994 61.3108 81.2021 61.8481C81.0178 62.0471 81.0876 62.8611 81.0876 63.3739C81.0876 64.5138 80.9659 65.7365 81.8885 66.006C82.8985 66.3006 84.7535 65.8952 85.2454 65.4719C85.5455 65.2136 85.7071 64.872 85.8938 64.5564C86.0632 64.2706 86.2435 63.8469 86.695 63.7934C86.9145 64.4822 86.6201 65.0391 86.5042 65.6626C86.4075 66.1832 86.4175 67.2166 86.0465 67.4555C85.7495 67.6467 84.8003 67.5316 84.3299 67.5316H80.7445C80.1979 67.5316 79.3657 67.5998 79.1042 67.4173C78.6195 67.0787 78.8372 65.8607 78.8372 65.0141C78.8372 62.9632 78.8753 61.6972 78.8753 59.6357C78.8755 58.1635 79.1403 56.2216 78.3032 55.5923C78.2266 55.5348 77.4641 55.3961 77.4259 55.0964C77.4009 54.9019 77.609 54.7795 77.6928 54.753C78.1131 54.6202 79.0616 54.753 79.6764 54.753H83.6055C84.0971 54.753 85.1882 54.6307 85.4745 54.8294C85.7578 55.0263 85.6873 56.085 85.7032 56.5461C85.7222 57.0852 85.8626 57.7908 85.5888 58.2243ZM93.2559 59.8263C93.9976 58.1645 94.5259 56.2899 95.4302 54.7912C96.1572 54.7269 97.1442 54.7291 97.8715 54.7912C98.2958 55.5222 98.1385 56.4673 98.1385 57.3088C98.1385 60.0481 97.9941 61.9864 98.1385 64.5945C98.1782 65.312 98.3244 66.3492 98.9016 66.6543C99.2637 66.846 99.9708 66.7673 99.9314 67.2265C99.896 67.6415 98.6132 67.4935 98.0623 67.4935C97.4413 67.4935 96.3756 67.6169 96.0788 67.3408C95.7554 67.0399 95.888 65.7633 95.888 64.976C95.888 62.265 95.9623 60.2386 95.888 57.7284C95.6313 57.8164 95.5783 58.1213 95.4684 58.3386C94.7187 59.8207 94.0967 61.7007 93.4467 63.3355C93.192 63.3106 92.837 63.386 92.6458 63.2976C92.2507 62.9354 92.155 62.3631 91.959 61.886C91.3719 60.4565 90.6428 58.963 89.8611 57.6903C89.7904 59.6821 89.6813 62.5043 89.823 64.7852C89.866 65.4746 90.046 66.2859 90.4333 66.578C90.8623 66.902 91.5725 66.5898 91.5777 67.3792C91.2654 67.6315 90.5222 67.5316 89.8611 67.5316C89.0597 67.5316 88.238 67.6533 88.0302 67.1122C87.8156 66.5537 87.9921 65.2938 87.9921 64.4039C87.9921 63.4147 87.9877 62.8084 87.9921 62.0388C88.0025 60.1742 88.1799 58.1438 88.0302 56.6984C87.9872 56.2835 87.749 55.8159 87.4579 55.5922C87.1928 55.3883 86.6532 55.3457 86.6189 55.0963C86.5422 54.5421 88.3255 54.753 88.8694 54.753C89.4862 54.753 90.338 54.5784 90.853 54.7912C91.1117 54.8982 91.3936 55.5612 91.5777 55.9356C92.2133 57.2288 92.7491 58.4834 93.2559 59.8263Z" fill="#756479"/>
<path fill-rule="evenodd" clip-rule="evenodd" d="M62.1097 0.709473C79.2067 0.709473 93.0715 14.5745 93.0715 31.6713C93.0715 37.8055 91.2865 43.5235 88.2076 48.3344H117.306C120.82 48.3344 123.695 51.2096 123.695 54.7237V67.5026C123.695 71.0167 120.82 73.8919 117.306 73.8919H6.6879C3.17383 73.8919 0.298828 71.0167 0.298828 67.5026V54.7237C0.298828 51.2096 3.17383 48.3344 6.6879 48.3344H36.0118C32.9329 43.5235 31.1479 37.8055 31.1479 31.6713C31.1479 14.5745 45.0129 0.709473 62.1097 0.709473ZM6.6879 50.3617C4.28892 50.3617 2.32611 52.3245 2.32611 54.7235V67.5026C2.32611 69.9015 4.289 71.8644 6.6879 71.8644H117.306C119.705 71.8644 121.668 69.9015 121.668 67.5026V54.7235C121.668 52.3245 119.705 50.3617 117.306 50.3617H6.6879ZM38.4553 48.3344H85.7642C89.0898 43.6231 91.0442 37.8752 91.0442 31.6713C91.0442 15.6939 78.087 2.73699 62.1097 2.73699C46.1323 2.73699 33.1753 15.6939 33.1753 31.6713C33.1753 37.8752 35.1295 43.6231 38.4553 48.3344Z" fill="#756479"/>
</g>
<defs>
<clipPath id="clip0_4063_26389">
<rect width="125" height="76.2579" fill="white" transform="translate(0.0839844 0.250488)"/>
</clipPath>
</defs>
</svg>
