<svg width="120" height="16" viewBox="0 0 120 16" fill="none" xmlns="http://www.w3.org/2000/svg">
<g clip-path="url(#clip0_4063_27353)">
<path d="M108.553 5.74838H108.578C109.256 4.87034 110.046 4.71982 110.924 4.71982L110.761 6.9651C110.573 6.95256 110.385 6.95256 110.209 6.95256C108.466 6.95256 108.403 7.95604 108.34 9.12258L108.177 11.7442H105.455L105.819 6.52608C105.869 5.89891 105.882 5.47243 105.856 4.70728H108.453L108.553 5.74838Z" fill="#756479"/>
<path d="M94.7432 11.7444L95.4456 1.65942H98.017L97.3146 11.7444H94.7432Z" fill="#756479"/>
<path d="M90.579 1.396C92.6612 1.396 94.781 2.29913 94.6932 4.83291H91.8333C91.8333 4.16811 91.4445 3.4155 90.4786 3.4155C89.5128 3.4155 88.3713 4.14302 88.1706 6.22524C87.9699 8.30745 88.2333 9.90048 89.9267 9.90048C91.3943 9.90048 91.6828 8.63358 91.7079 8.39526H94.5427C94.5427 9.52417 93.6145 11.8447 89.7636 11.8447C85.6995 11.8447 84.9846 8.88445 85.3107 6.13743C85.5992 3.82943 87.2424 1.396 90.579 1.396Z" fill="#756479"/>
<path d="M81.7231 6.12476H85.1224L84.0311 8.31986H80.6318L81.7231 6.12476Z" fill="#756479"/>
<path d="M76.4416 15.1309H73.9957L75.5761 11.8571L72.9922 4.70728H75.9901L77.1441 9.07241L78.988 4.70728H81.459L76.4416 15.1309Z" fill="#756479"/>
<path d="M38.4103 4.70729V5.66059H38.4354C39.2131 4.63203 40.2918 4.54422 40.9566 4.54422C41.9099 4.54422 42.9008 5.07105 43.089 5.78603C43.6284 4.94561 44.5942 4.53168 45.6604 4.50659C47.1907 4.50659 48.2569 5.48498 48.1566 7.04038L47.8179 11.7442H45.1336L45.4221 7.61738C45.4597 6.95257 45.4095 6.18742 44.519 6.18742C43.227 6.18742 43.2772 7.62992 43.2646 7.71772L43.0012 11.7442H40.2918L40.5928 7.61738C40.6054 6.92748 40.5176 6.18742 39.6646 6.18742C38.2974 6.18742 38.335 7.62992 38.335 7.71772L38.0591 11.7567H35.2744L35.7636 4.71983L38.4103 4.70729Z" fill="#756479"/>
<path d="M32.7285 4.70728H35.2371L34.748 11.7442H32.2393L32.7285 4.70728Z" fill="#756479"/>
<path d="M28.7513 1.65942L25.2266 6.13745L28.3624 11.7444H31.8997L28.375 5.98693L32.0878 1.65942H28.7513Z" fill="#756479"/>
<path d="M22.5304 1.65942H25.4781L24.7757 11.7444H21.8154L22.5304 1.65942Z" fill="#756479"/>
<path d="M59.3954 8.68362C59.3202 9.64947 59.5334 10.4397 60.5369 10.4397C61.277 10.4397 61.7411 9.95052 61.7411 9.48641H64.1996C64.1494 10.3394 63.5473 11.0042 62.8449 11.393C62.2052 11.7819 61.4651 11.8571 60.6749 11.8571C57.815 11.8571 56.6986 10.6655 56.8742 8.00628C57.0247 5.78608 58.8059 4.46901 60.9258 4.50664C63.748 4.55682 64.6512 6.21256 64.3878 8.69617H59.3954V8.68362ZM61.9418 7.35402C61.9669 6.97771 61.8791 6.60141 61.6909 6.30036C61.5028 6.01186 61.2143 5.82371 60.8129 5.8488C59.8846 5.88643 59.6463 6.55123 59.5209 7.34147H61.9418V7.35402Z" fill="#756479"/>
<path d="M49.06 1.65942H51.6941L51.4182 5.67334H51.4684C51.9952 5.04616 52.7352 4.51934 53.6886 4.51934C55.846 4.51934 56.6739 6.4134 56.5485 8.11932C56.4356 9.85032 55.5199 11.8322 53.1241 11.8322C52.3088 11.8322 51.5311 11.3806 51.1673 10.8663H51.1171L50.9541 11.7193H48.3701L49.06 1.65942ZM51.1673 8.32001C51.1297 9.17297 51.3429 10.3897 52.3088 10.3897C53.5255 10.3897 53.8265 9.17297 53.8767 8.19458C53.9143 7.32908 53.7513 6.04964 52.7102 6.06219C51.3806 6.06219 51.2049 7.39179 51.1673 8.32001Z" fill="#756479"/>
<path d="M69.7559 11.7444L70.4583 1.65942H73.0297L72.3273 11.7444H69.7559Z" fill="#756479"/>
<path d="M67.5865 5.74838H67.6116C68.289 4.87034 69.0792 4.71982 69.9447 4.71982L69.7816 6.9651C69.606 6.95256 69.4179 6.95256 69.2423 6.95256C67.4987 6.95256 67.436 7.95604 67.3733 9.12258L67.2102 11.7442H64.4883L64.852 6.52608C64.9022 5.89891 64.9148 5.47243 64.8897 4.70728H67.4862L67.5865 5.74838Z" fill="#756479"/>
<path d="M113.746 7.8306L116.255 4.70728H119.265L116.556 7.68008L119.115 11.7442H115.853L113.746 7.8306Z" fill="#756479"/>
<path d="M110.823 11.7444L111.526 1.65942H114.185L113.482 11.7444H110.823Z" fill="#756479"/>
<path d="M102.369 10.8789H102.344C101.78 11.4057 101.24 11.7945 100.212 11.7945C98.5434 11.7945 97.8535 10.8538 97.8535 9.61197C97.8535 8.21965 99.2835 7.31652 101.83 7.31652H102.67C102.708 6.70189 102.921 5.68586 101.88 5.68586C101.127 5.68586 100.952 6.40084 100.939 6.73952H98.5183C98.5685 5.82384 98.9699 5.20921 99.7099 4.89562C100.463 4.55695 101.378 4.48169 102.156 4.48169C103.586 4.48169 105.329 5.19667 105.217 6.92767L105.016 10.3019C104.991 10.5904 104.991 10.904 105.028 11.7444H102.52L102.369 10.8789ZM101.215 10.4022C102.457 10.4022 102.532 9.24821 102.595 8.30745C102.03 8.30745 101.504 8.28236 101.127 8.45797C100.726 8.65867 100.425 8.9848 100.387 9.47399C100.362 10.0008 100.713 10.4022 101.215 10.4022Z" fill="#756479"/>
<path d="M32.979 1.65942H35.4876L35.3622 3.47823H32.8535L32.979 1.65942Z" fill="#756479"/>
<path d="M6.76315 1.72205V6.01192C6.42447 5.23423 5.67186 4.54434 4.90671 4.08023H1.68304C2.72415 4.85792 4.37989 6.07464 4.37989 7.05303C4.37989 7.54223 3.79034 7.63003 3.45167 7.63003H1.41963V9.96312H4.60567C5.32065 9.96312 6.34921 9.69971 6.76315 8.60842V11.7318H9.72341V8.60842C10.1373 9.71225 11.1659 9.96312 11.8809 9.96312H15.0669V7.63003H13.0349C12.6962 7.63003 12.1067 7.52968 12.1067 7.05303C12.1067 6.07464 13.7624 4.85792 14.8035 4.08023H11.5798C10.8147 4.54434 10.0621 5.23423 9.72341 6.01192V1.72205H6.76315ZM8.24328 0.216835C12.646 0.216835 16.2209 3.28999 16.2209 7.07812C16.2209 10.8663 12.646 13.9394 8.24328 13.9394C3.84052 13.9394 0.265625 10.8663 0.265625 7.07812C0.265625 3.27744 3.82797 0.204292 8.24328 0.216835Z" fill="#756479"/>
</g>
<defs>
<clipPath id="clip0_4063_27353">
<rect width="119" height="14.9142" fill="white" transform="translate(0.265625 0.216797)"/>
</clipPath>
</defs>
</svg>
