<svg width="120" height="30" viewBox="0 0 120 30" fill="none" xmlns="http://www.w3.org/2000/svg">
<path d="M114.947 4.89932V3.84445H115.64C115.994 3.84445 116.373 3.91958 116.373 4.34398C116.373 4.86772 115.989 4.90016 115.553 4.90016H114.947V4.89932ZM116.904 4.3771C116.904 3.70478 116.514 3.40661 115.715 3.40661H114.437V6.81525H114.946V5.33817H115.53L116.422 6.81525H116.991L116.031 5.31313C116.53 5.25396 116.904 4.98437 116.904 4.3771ZM115.564 7.5743C114.224 7.5743 113.182 6.52767 113.182 5.1037C113.182 3.70545 114.224 2.64857 115.564 2.64857C116.884 2.64857 117.925 3.70545 117.925 5.1037C117.925 6.52666 116.884 7.5743 115.564 7.5743ZM115.564 2.15576C113.959 2.15576 112.6 3.40661 112.6 5.1032C112.6 6.81525 113.959 8.06761 115.564 8.06761C117.155 8.06761 118.51 6.81525 118.51 5.1032C118.51 3.4061 117.155 2.15576 115.564 2.15576ZM89.8494 20.4976C89.8494 19.6035 90.0736 18.861 90.5183 18.2581C90.9627 17.6579 91.6156 17.3547 92.4886 17.3547C93.2348 17.3547 93.7947 17.5979 94.1468 18.0912C94.5052 18.5786 94.8563 19.2993 95.2153 20.2555C96.073 22.391 97.22 23.4611 98.6614 23.4611C99.2808 23.4611 99.8118 23.2949 100.258 22.9562C100.699 22.6194 100.927 22.1451 100.927 21.5437C100.927 20.9087 100.437 20.2164 99.4637 19.4504C98.489 18.6904 97.5099 17.9429 96.5199 17.2125C95.5368 16.4759 94.682 15.6043 93.9683 14.584C93.2478 13.5613 92.8877 12.3286 92.8877 10.8791C92.8877 9.26937 93.3207 7.86827 94.1734 6.68096C95.0297 5.48776 96.1648 4.58753 97.58 3.97018C98.9926 3.35282 100.487 3.0412 102.07 3.0412C102.737 3.0412 103.47 3.13768 104.252 3.32795C105.037 3.52023 105.445 3.62074 105.474 3.62074C105.574 3.62074 105.838 3.52023 106.273 3.32795C106.706 3.13886 107.105 3.0412 107.469 3.0412C108.095 3.0412 108.692 3.31299 109.257 3.85151C109.818 4.39373 110.268 5.04908 110.605 5.82241C110.942 6.58565 111.108 7.27343 111.108 7.86894C111.108 8.63437 110.864 9.30467 110.363 9.87564C109.867 10.4513 109.241 10.7391 108.482 10.7391C107.933 10.7391 107.459 10.5925 107.057 10.2995C106.659 10.0014 106.211 9.56872 105.705 8.98818C105.196 8.41083 104.757 7.97096 104.376 7.67128C103.996 7.37311 103.553 7.22654 103.045 7.22654C102.581 7.22654 102.206 7.34974 101.904 7.60421C101.606 7.85213 101.459 8.20157 101.459 8.64429C101.459 9.1966 101.648 9.65142 102.011 10.0116C102.375 10.3774 102.895 10.7318 103.554 11.0747C105.151 11.9437 106.377 12.6733 107.24 13.2629C108.1 13.8563 108.832 14.6266 109.433 15.5816C110.038 16.5322 110.333 17.7117 110.333 19.1111C110.333 20.5329 110.006 21.7909 109.36 22.8792C108.709 23.9629 107.835 24.8648 106.744 25.5662C105.655 26.2766 104.449 26.8047 103.112 27.1542C101.785 27.5107 100.46 27.6821 99.124 27.6821C97.5523 27.6821 96.0535 27.4303 94.6423 26.9194C93.2237 26.4045 92.069 25.6072 91.1804 24.5197C90.2931 23.431 89.8494 22.0962 89.8494 20.4976ZM78.8098 9.72268C78.8229 9.59494 78.8565 9.34652 78.9021 8.98213C78.9528 8.61471 78.9794 8.29922 78.9794 8.04156C78.9794 7.67918 78.8849 7.42454 78.6888 7.28184C78.5012 7.14385 78.2074 7.00736 77.8144 6.88013C77.4225 6.74903 77.1219 6.59305 76.9214 6.40009C76.7234 6.21437 76.6227 5.89367 76.6227 5.44373C76.6227 4.84217 77.0349 4.32919 77.8536 3.8974C78.6753 3.46207 80.4553 3.24693 83.194 3.24693C85.1065 3.24693 86.585 3.31231 87.625 3.43283C88.6752 3.56158 89.424 3.77857 89.8744 4.09909C90.3274 4.41827 90.5516 4.87377 90.5516 5.4723C90.5516 5.94376 90.4382 6.27051 90.2234 6.44296C90.0025 6.62549 89.664 6.76516 89.2018 6.8803C88.7406 6.98938 88.379 7.13006 88.1185 7.29007C87.8655 7.45076 87.6971 7.76053 87.623 8.21148C87.5781 8.50226 87.5079 8.848 87.4196 9.24483C87.3309 9.65074 87.262 9.95497 87.2174 10.1683L85.9025 19.4835C85.7368 20.6764 85.6595 21.419 85.6595 21.7094C85.6595 22.314 85.7669 22.753 85.9783 23.0065C86.1881 23.2648 86.493 23.4709 86.8858 23.6269C87.286 23.7812 87.5788 23.9397 87.7674 24.1049C87.9588 24.2706 88.0546 24.5841 88.0546 25.053C88.0546 26.0563 87.4489 26.7098 86.2382 27.0026C85.0225 27.3058 83.5168 27.4545 81.7167 27.4545C79.7344 27.4545 78.2062 27.3824 77.1231 27.2402C76.0432 27.1056 75.2576 26.8597 74.7619 26.4934C74.2664 26.1331 74.0167 25.6146 74.0167 24.9517C74.0167 24.4664 74.1226 24.1471 74.3443 23.9889C74.5559 23.828 74.9477 23.6489 75.5018 23.448C76.0556 23.2451 76.4918 22.9698 76.8069 22.6222C77.1219 22.2733 77.3314 21.6867 77.4273 20.8682L78.8098 9.72268ZM54.0699 27.1802C52.6518 27.1802 51.6705 27.0024 51.1324 26.6363C50.5896 26.2714 50.3158 25.7536 50.3158 25.0885C50.3158 24.5471 50.4325 24.2025 50.6562 24.0363C50.8858 23.8726 51.2668 23.6874 51.8064 23.4721C52.3459 23.2593 52.6607 23.0075 52.7518 22.7253C53.1226 21.4464 53.4597 19.9466 53.763 18.2238C54.0615 16.4988 54.3045 14.7667 54.4803 13.0227C54.654 11.2761 54.7422 9.76319 54.7422 8.4826C54.7422 8.05265 54.6457 7.74977 54.4576 7.56371C54.265 7.3768 53.9773 7.21427 53.6065 7.06165C53.2339 6.91274 52.9471 6.75004 52.7637 6.56868C52.5706 6.39068 52.4745 6.09705 52.4745 5.68072C52.4745 4.20061 53.6235 3.45753 55.9258 3.45753C56.8909 3.48123 58.3324 3.49283 60.2483 3.49283C62.9011 3.49283 64.8843 3.48123 66.1857 3.45753C68.2971 3.45753 69.9562 3.91975 71.1669 4.84217C72.3683 5.76425 72.9692 7.12586 72.9692 8.92111C72.9692 9.68436 72.8183 10.3767 72.5199 10.9947C72.218 11.6111 71.88 12.1087 71.519 12.4953C71.1561 12.876 70.7548 13.2478 70.3319 13.6102C69.9066 13.9729 69.6898 14.1968 69.6898 14.2889C69.6898 14.4608 69.952 14.6977 70.4611 14.9978C70.9758 15.3002 71.4178 15.5947 71.7942 15.8803C72.1676 16.1682 72.5224 16.6544 72.867 17.3468C73.2087 18.0349 73.3766 18.9403 73.3766 20.0585C73.3766 21.0758 73.1253 22.1289 72.6238 23.2095C72.1278 24.2901 71.2425 25.225 69.9865 26.0042C68.7217 26.7874 67.0567 27.1806 64.9732 27.1806H54.0699V27.1802ZM61.0211 22.9976C61.0211 23.2593 61.1104 23.4299 61.2811 23.5008C61.4519 23.5684 61.7299 23.6016 62.1017 23.6016C63.8812 23.6016 64.7664 22.1515 64.7664 19.2447C64.7664 18.6289 64.6933 18.1369 64.5526 17.7538C64.412 17.3736 64.1723 17.0936 63.8297 16.918C63.4885 16.7391 63.0132 16.6509 62.4046 16.6509C62.1004 16.6509 61.8819 16.6601 61.7466 16.6879C61.619 16.7102 61.5281 16.7686 61.4812 16.8516C61.4386 16.9371 61.407 17.1109 61.3983 17.3748C61.382 17.637 61.3672 17.8485 61.358 18.0009L61.0211 22.9976ZM61.8662 11.7884C61.8662 12.126 61.8553 12.3615 61.8319 12.4951C61.8319 12.7237 61.8825 12.892 61.9839 13.0054C62.0767 13.111 62.276 13.171 62.5743 13.171C64.217 13.171 65.0402 11.7447 65.0402 8.89254C65.0402 8.17249 64.9095 7.64254 64.6493 7.30772C64.3914 6.97341 63.9239 6.80449 63.2487 6.80449C62.985 6.80449 62.7903 6.82315 62.677 6.85088C62.5589 6.88013 62.4727 6.93492 62.4279 7.01173C62.3789 7.09107 62.3375 7.24923 62.3123 7.4795C62.281 7.70994 62.2599 7.88423 62.2338 8.01433L61.8662 11.7884ZM28.8521 20.4976C28.8521 19.6035 29.0758 18.861 29.5211 18.2581C29.9663 17.6579 30.6195 17.3547 31.4905 17.3547C32.2389 17.3547 32.7966 17.5979 33.1491 18.0912C33.5046 18.5786 33.8585 19.2993 34.2209 20.2555C35.0748 22.391 36.2216 23.4611 37.6635 23.4611C38.2827 23.4611 38.8169 23.2949 39.2601 22.9562C39.7048 22.6194 39.9304 22.1451 39.9304 21.5437C39.9304 20.9087 39.4401 20.2164 38.4674 19.4504C37.4931 18.6904 36.5152 17.9429 35.5247 17.2125C34.5379 16.4759 33.6837 15.6043 32.9696 14.584C32.25 13.5613 31.89 12.3286 31.89 10.8791C31.89 9.26937 32.3218 7.86827 33.1778 6.68096C34.0318 5.48776 35.1685 4.58753 36.5799 3.97018C37.9938 3.35282 39.4904 3.0412 41.0705 3.0412C41.7391 3.0412 42.4709 3.13768 43.2525 3.32795C44.0403 3.52023 44.4443 3.62074 44.4732 3.62074C44.5759 3.62074 44.8386 3.52023 45.2718 3.32795C45.7037 3.13886 46.1044 3.0412 46.472 3.0412C47.0944 3.0412 47.6903 3.31299 48.256 3.85151C48.8172 4.39373 49.2665 5.04908 49.6032 5.82241C49.9392 6.58565 50.1103 7.27343 50.1103 7.86894C50.1103 8.63437 49.8624 9.30467 49.3608 9.87564C48.867 10.4513 48.2438 10.7391 47.4835 10.7391C46.929 10.7391 46.4586 10.5925 46.0589 10.2995C45.6619 10.0014 45.2109 9.56872 44.7052 8.98818C44.1964 8.41083 43.7567 7.97096 43.376 7.67128C42.999 7.37311 42.5534 7.22654 42.0489 7.22654C41.5829 7.22654 41.2063 7.34974 40.9063 7.60421C40.6086 7.85213 40.4612 8.20157 40.4612 8.64429C40.4612 9.1966 40.6476 9.65142 41.0128 10.0116C41.3801 10.3774 41.8966 10.7318 42.5534 11.0747C44.1524 11.9437 45.3778 12.6733 46.2396 13.2629C47.1022 13.8563 47.8318 14.6266 48.4337 15.5816C49.0389 16.5322 49.3346 17.7117 49.3346 19.1111C49.3346 20.5329 49.0082 21.7909 48.3622 22.8792C47.7103 23.9629 46.8352 24.8648 45.7453 25.5662C44.6593 26.2766 43.4496 26.8047 42.1184 27.1542C40.7896 27.5107 39.4608 27.6821 38.1276 27.6821C36.5525 27.6821 35.0576 27.4303 33.6462 26.9194C32.2261 26.4045 31.0733 25.6072 30.1858 24.5197C29.298 23.431 28.8521 22.0962 28.8521 20.4976ZM16.3953 17.6975C16.8587 17.6621 17.1545 17.5819 17.2962 17.4511C17.4357 17.3246 17.5033 17.1109 17.5033 16.8215C17.5033 16.3554 17.4078 15.7448 17.2118 14.9797C17.0141 14.2212 16.7842 13.5488 16.5208 12.9666C16.2613 12.3842 16.0442 12.0913 15.8576 12.0913C15.6109 12.0913 15.2718 12.4456 14.855 13.1621C14.4385 13.8754 14.0555 14.661 13.7087 15.5135C13.3655 16.3642 13.19 16.8987 13.19 17.1163C13.19 17.415 13.5272 17.6058 14.2052 17.6974H16.3953V17.6975ZM12.4797 21.5792C11.681 21.642 11.1579 21.7797 10.9001 22.0044C10.6476 22.2321 10.5177 22.5856 10.5177 23.0621C10.5177 23.3399 10.747 23.5697 11.2082 23.7556C11.6642 23.9353 11.9864 24.0869 12.1723 24.2172C12.3582 24.3447 12.4463 24.6708 12.4463 25.186C12.4463 25.6588 12.3113 26.0581 12.036 26.3724C11.7595 26.6928 11.1692 26.9513 10.2636 27.1532C9.35815 27.3473 7.99183 27.4564 6.16952 27.4564C4.91346 27.4564 3.90196 27.3211 3.11905 27.0616C2.33647 26.8042 1.94922 26.1902 1.94922 25.2194C1.94922 24.7293 2.02855 24.3957 2.1852 24.2217C2.34219 24.0479 2.61834 23.8897 3.0177 23.7615C3.40983 23.638 3.76565 23.469 4.08113 23.2694C4.3904 23.074 4.7042 22.7154 5.0212 22.1866C5.13734 21.9936 5.83521 20.8641 7.11311 18.805C8.39573 16.7386 9.41344 15.052 10.1614 13.7416C10.9162 12.4293 11.5949 11.0804 12.2096 9.69713C12.8169 8.30729 13.2564 7.00081 13.5248 5.77316C13.7694 4.68787 14.1891 3.96278 14.7989 3.59368C15.4068 3.22928 16.2877 3.04053 17.4426 3.04053C18.4317 3.04053 19.2698 3.21533 19.9513 3.56158C20.6374 3.90681 21.1941 4.40163 21.6343 5.0484C22.0727 5.70122 22.4675 6.50884 22.8051 7.46857C23.2376 8.67269 23.7671 10.5972 24.3849 13.229C25.0117 15.8582 25.6633 18.7097 26.3494 21.7807C26.4846 22.3772 26.6752 22.7881 26.9149 23.0246C27.1498 23.2571 27.4456 23.4433 27.8052 23.5786C28.1722 23.7116 28.4301 23.8644 28.5829 24.042C28.7351 24.217 28.8162 24.5557 28.8162 25.0554C28.8162 26.6545 26.7775 27.457 22.7095 27.457H21.6911H20.7462C17.8645 27.457 16.4309 26.801 16.4309 25.4932C16.4309 25.0505 16.5225 24.7375 16.7084 24.537C16.8901 24.3412 17.1691 24.1545 17.547 23.9871C17.9226 23.8213 18.1867 23.6665 18.3514 23.5258C18.5089 23.3825 18.5862 23.1414 18.5862 22.8002C18.5862 22.4853 18.5178 22.2574 18.3774 22.1062C18.2378 21.9543 18.0472 21.8561 17.8048 21.7862C17.5626 21.7266 17.298 21.6581 17.0073 21.5802H12.4797V21.5792Z" fill="#756479"/>
</svg>
