<svg width="40" height="40" viewBox="0 0 40 40" fill="none" xmlns="http://www.w3.org/2000/svg">
<path d="M18 13.75C18 14.2141 18.1844 14.6592 18.5126 14.9874C18.8408 15.3156 19.2859 15.5 19.75 15.5C20.2141 15.5 20.6592 15.3156 20.9874 14.9874C21.3156 14.6592 21.5 14.2141 21.5 13.75C21.5 13.2859 21.3156 12.8408 20.9874 12.5126C20.6592 12.1844 20.2141 12 19.75 12C19.2859 12 18.8408 12.1844 18.5126 12.5126C18.1844 12.8408 18 13.2859 18 13.75Z" fill="black"/>
<path d="M18 20.75C18 21.2141 18.1844 21.6592 18.5126 21.9874C18.8408 22.3156 19.2859 22.5 19.75 22.5C20.2141 22.5 20.6592 22.3156 20.9874 21.9874C21.3156 21.6592 21.5 21.2141 21.5 20.75C21.5 20.2859 21.3156 19.8408 20.9874 19.5126C20.6592 19.1844 20.2141 19 19.75 19C19.2859 19 18.8408 19.1844 18.5126 19.5126C18.1844 19.8408 18 20.2859 18 20.75Z" fill="black"/>
<path d="M18 27.75C18 28.2141 18.1844 28.6592 18.5126 28.9874C18.8408 29.3156 19.2859 29.5 19.75 29.5C20.2141 29.5 20.6592 29.3156 20.9874 28.9874C21.3156 28.6592 21.5 28.2141 21.5 27.75C21.5 27.2859 21.3156 26.8408 20.9874 26.5126C20.6592 26.1844 20.2141 26 19.75 26C19.2859 26 18.8408 26.1844 18.5126 26.5126C18.1844 26.8408 18 27.2859 18 27.75Z" fill="black"/>
</svg>
