<svg width="24" height="24" viewBox="0 0 24 24" fill="none" xmlns="http://www.w3.org/2000/svg">
<path d="M12 20.75C12.4142 20.75 12.75 20.4142 12.75 20V18.6458C13.1976 18.5189 13.6098 18.2793 13.9445 17.9445C14.4603 17.4288 14.75 16.7293 14.75 16C14.75 15.2707 14.4603 14.5712 13.9445 14.0555C13.6098 13.7207 13.1976 13.4811 12.75 13.3542V4C12.75 3.58579 12.4142 3.25 12 3.25C11.5858 3.25 11.25 3.58579 11.25 4V13.3542C10.8024 13.4811 10.3902 13.7207 10.0555 14.0555C9.53973 14.5712 9.25 15.2707 9.25 16C9.25 16.7293 9.53973 17.4288 10.0555 17.9445C10.3902 18.2793 10.8024 18.5189 11.25 18.6458V20C11.25 20.4142 11.5858 20.75 12 20.75Z" fill="black"/>
<path d="M6 20.75C6.41421 20.75 6.75 20.4142 6.75 20V12.6458C7.19755 12.5189 7.60976 12.2793 7.94454 11.9445C8.46027 11.4288 8.75 10.7293 8.75 10C8.75 9.27065 8.46027 8.57118 7.94454 8.05546C7.60976 7.72067 7.19755 7.48113 6.75 7.35424V4C6.75 3.58579 6.41421 3.25 6 3.25C5.58579 3.25 5.25 3.58579 5.25 4V7.35424C4.80245 7.48113 4.39024 7.72067 4.05546 8.05546C3.53973 8.57118 3.25 9.27065 3.25 10C3.25 10.7293 3.53973 11.4288 4.05546 11.9445C4.39024 12.2793 4.80245 12.5189 5.25 12.6458V20C5.25 20.4142 5.58579 20.75 6 20.75Z" fill="black"/>
<path d="M20.75 7C20.75 6.27065 20.4603 5.57118 19.9445 5.05546C19.6098 4.72068 19.1976 4.48113 18.75 4.35424V4C18.75 3.58579 18.4142 3.25 18 3.25C17.5858 3.25 17.25 3.58579 17.25 4V4.35424C16.8024 4.48113 16.3902 4.72068 16.0555 5.05546C15.5397 5.57118 15.25 6.27065 15.25 7C15.25 7.72935 15.5397 8.42882 16.0555 8.94454C16.3902 9.27932 16.8024 9.51887 17.25 9.64576V20C17.25 20.4142 17.5858 20.75 18 20.75C18.4142 20.75 18.75 20.4142 18.75 20V9.64576C19.1976 9.51887 19.6098 9.27932 19.9445 8.94454C20.4603 8.42882 20.75 7.72935 20.75 7Z" fill="black"/>
</svg>
