<svg width="24" height="24" viewBox="0 0 24 24" fill="none" xmlns="http://www.w3.org/2000/svg">
<path fill-rule="evenodd" clip-rule="evenodd" d="M5 12.9996C5 12.4692 5.21071 11.9605 5.58579 11.5854C5.96086 11.2104 6.46957 10.9996 7 10.9996L7.25 11V7C7.25 5.74022 7.75044 4.53204 8.64124 3.64124C9.53204 2.75044 10.7402 2.25 12 2.25C13.2598 2.25 14.468 2.75044 15.3588 3.64124C16.2496 4.53204 16.75 5.74022 16.75 7V11L17 10.9996C17.5304 10.9996 18.0391 11.2104 18.4142 11.5854C18.7893 11.9605 19 12.4692 19 12.9996V18.9996C19 19.5301 18.7893 20.0388 18.4142 20.4139C18.0391 20.7889 17.5304 20.9996 17 20.9996H7C6.46957 20.9996 5.96086 20.7889 5.58579 20.4139C5.21071 20.0388 5 19.5301 5 18.9996V12.9996ZM10.7626 14.7622C11.0908 14.434 11.5359 14.2496 12 14.2496C12.4641 14.2496 12.9092 14.434 13.2374 14.7622C13.5656 15.0904 13.75 15.5355 13.75 15.9996C13.75 16.4638 13.5656 16.9089 13.2374 17.2371C12.9092 17.5653 12.4641 17.7496 12 17.7496C11.5359 17.7496 11.0908 17.5653 10.7626 17.2371C10.4344 16.9089 10.25 16.4638 10.25 15.9996C10.25 15.5355 10.4344 15.0904 10.7626 14.7622ZM12 3.75C11.138 3.75 10.3114 4.09241 9.7019 4.7019C9.09241 5.3114 8.75 6.13805 8.75 7V11H15.25V7C15.25 6.13805 14.9076 5.3114 14.2981 4.7019C13.6886 4.09241 12.862 3.75 12 3.75Z" fill="black"/>
</svg>
