<svg width="24" height="24" viewBox="0 0 24 24" fill="none" xmlns="http://www.w3.org/2000/svg">
<path d="M18.15 5.11571V2.53571C18.15 1.83821 17.4675 1.33571 16.8 1.55321L5.60547 5.11571H18.15Z" fill="black"/>
<path d="M14.4163 11.7406C13.7698 11.5321 13.0325 11.7608 12.4933 12.3376C12.3658 12.4741 12.1873 12.5521 11.9998 12.5521C11.8123 12.5521 11.6338 12.4741 11.5063 12.3376C11.099 11.9011 10.5793 11.6641 10.07 11.6641C9.90501 11.6641 9.74151 11.6888 9.58326 11.7406C8.93151 11.9506 8.49801 12.5498 8.39226 13.3823C8.15901 15.2251 10.3378 16.8533 11.9998 17.4548C13.703 16.8421 15.8413 15.2446 15.6073 13.3816C15.5015 12.5491 15.0673 11.9506 14.4163 11.7406Z" fill="black"/>
<path d="M20.0545 6.24023H3.86203C3.85453 6.27773 3.83203 6.31524 3.83203 6.35274V21.4727C3.83203 22.0352 4.28953 22.5002 4.85953 22.5002H19.1395C19.7095 22.5002 20.1745 22.0352 20.1745 21.4727V6.71273C20.1745 6.54023 20.1295 6.38273 20.0545 6.24023ZM12.2065 18.8117C12.1398 18.8327 12.07 18.8432 12.001 18.8432C11.932 18.8432 11.8623 18.8327 11.7963 18.8117C9.77053 18.166 6.69253 16.075 7.05478 13.2137C7.22653 11.8592 8.01703 10.8287 9.16978 10.4567C10.123 10.1477 11.1618 10.348 12.001 10.975C12.8418 10.348 13.8798 10.1485 14.833 10.4567C15.9858 10.8295 16.7763 11.86 16.9473 13.2137C17.308 16.072 14.2315 18.1645 12.2065 18.8117Z" fill="black"/>
</svg>
